<?xml version="1.0" encoding="UTF-8" standalone="no"?>
<!DOCTYPE svg PUBLIC "-//W3C//DTD SVG 1.1//EN"
 "http://www.w3.org/Graphics/SVG/1.1/DTD/svg11.dtd">
<!-- Generated by graphviz version 2.40.1 (20161225.0304)
 -->
<!-- Title: oneDegreeRelationshipsDiagram Pages: 1 -->
<svg width="558pt" height="294pt"
 viewBox="0.00 0.00 558.00 294.20" xmlns="http://www.w3.org/2000/svg" xmlns:xlink="http://www.w3.org/1999/xlink">
<g id="graph0" class="graph" transform="scale(1 1) rotate(0) translate(4 290.2)">
<title>oneDegreeRelationshipsDiagram</title>
<polygon fill="#ffffff" stroke="transparent" points="-4,4 -4,-290.2 554,-290.2 554,4 -4,4"/>
<text text-anchor="middle" x="72.4936" y="-7.3" font-family="Helvetica,sans-Serif" font-size="11.00" fill="#000000">Generated by SchemaSpy</text>
<!-- damages -->
<g id="node1" class="node">
<title>damages</title>
<g id="a_node1"><a xlink:href="../../tables/damages.html" xlink:title="damages" target="_top">
<polygon fill="#ffffff" stroke="transparent" points="272,-38.2 272,-282.2 542,-282.2 542,-38.2 272,-38.2"/>
<polygon fill="#f5f5f5" stroke="transparent" points="274,-257.2 274,-280.2 540,-280.2 540,-257.2 274,-257.2"/>
<polygon fill="none" stroke="#000000" points="274,-257.2 274,-280.2 540,-280.2 540,-257.2 274,-257.2"/>
<text text-anchor="start" x="279" y="-265.8" font-family="Helvetica,sans-Serif" font-weight="bold" font-size="11.00" fill="#000000">damages</text>
<text text-anchor="start" x="505.0437" y="-265.3" font-family="Helvetica,sans-Serif" font-size="11.00" fill="#000000">[table]</text>
<polygon fill="none" stroke="#000000" points="274,-235.2 274,-257.2 456,-257.2 456,-235.2 274,-235.2"/>
<image xlink:href="../../images/primaryKeys.png" width="11px" height="12px" preserveAspectRatio="xMinYMin meet" x="279" y="-252.2"/>
<text text-anchor="start" x="294" y="-242.3" font-family="Helvetica,sans-Serif" font-size="11.00" fill="#000000">id</text>
<polygon fill="none" stroke="#000000" points="456,-235.2 456,-257.2 540,-257.2 540,-235.2 456,-235.2"/>
<text text-anchor="start" x="459" y="-242.9" font-family="Helvetica,sans-Serif" font-size="11.00" fill="#000000">serial[10]</text>
<polygon fill="#ffffff" stroke="transparent" points="274,-213.2 274,-235.2 456,-235.2 456,-213.2 274,-213.2"/>
<polygon fill="none" stroke="#000000" points="274,-213.2 274,-235.2 456,-235.2 456,-213.2 274,-213.2"/>
<image xlink:href="../../images/foreignKeys.png" width="11px" height="12px" preserveAspectRatio="xMinYMin meet" x="279" y="-230.2"/>
<text text-anchor="start" x="294" y="-220.3" font-family="Helvetica,sans-Serif" font-size="11.00" fill="#000000">draft_adjudication_fk_id</text>
<polygon fill="none" stroke="#000000" points="456,-213.2 456,-235.2 540,-235.2 540,-213.2 456,-213.2"/>
<text text-anchor="start" x="459" y="-220.9" font-family="Helvetica,sans-Serif" font-size="11.00" fill="#000000">int8[19]</text>
<polygon fill="none" stroke="#000000" points="274,-191.2 274,-213.2 456,-213.2 456,-191.2 274,-191.2"/>
<text text-anchor="start" x="294" y="-198.3" font-family="Helvetica,sans-Serif" font-size="11.00" fill="#000000">code</text>
<polygon fill="none" stroke="#000000" points="456,-191.2 456,-213.2 540,-213.2 540,-191.2 456,-191.2"/>
<text text-anchor="start" x="459" y="-198.9" font-family="Helvetica,sans-Serif" font-size="11.00" fill="#000000">varchar[32]</text>
<polygon fill="none" stroke="#000000" points="274,-169.2 274,-191.2 456,-191.2 456,-169.2 274,-169.2"/>
<text text-anchor="start" x="294" y="-176.3" font-family="Helvetica,sans-Serif" font-size="11.00" fill="#000000">details</text>
<polygon fill="none" stroke="#000000" points="456,-169.2 456,-191.2 540,-191.2 540,-169.2 456,-169.2"/>
<text text-anchor="start" x="459" y="-176.9" font-family="Helvetica,sans-Serif" font-size="11.00" fill="#000000">varchar[4000]</text>
<polygon fill="none" stroke="#000000" points="274,-147.2 274,-169.2 456,-169.2 456,-147.2 274,-147.2"/>
<text text-anchor="start" x="294" y="-154.3" font-family="Helvetica,sans-Serif" font-size="11.00" fill="#000000">reporter</text>
<polygon fill="none" stroke="#000000" points="456,-147.2 456,-169.2 540,-169.2 540,-147.2 456,-147.2"/>
<text text-anchor="start" x="459" y="-154.9" font-family="Helvetica,sans-Serif" font-size="11.00" fill="#000000">varchar[32]</text>
<polygon fill="none" stroke="#000000" points="274,-125.2 274,-147.2 456,-147.2 456,-125.2 274,-125.2"/>
<text text-anchor="start" x="294" y="-132.3" font-family="Helvetica,sans-Serif" font-size="11.00" fill="#000000">create_user_id</text>
<polygon fill="none" stroke="#000000" points="456,-125.2 456,-147.2 540,-147.2 540,-125.2 456,-125.2"/>
<text text-anchor="start" x="459" y="-132.9" font-family="Helvetica,sans-Serif" font-size="11.00" fill="#000000">varchar[32]</text>
<polygon fill="none" stroke="#000000" points="274,-103.2 274,-125.2 456,-125.2 456,-103.2 274,-103.2"/>
<text text-anchor="start" x="294" y="-110.3" font-family="Helvetica,sans-Serif" font-size="11.00" fill="#000000">create_datetime</text>
<polygon fill="none" stroke="#000000" points="456,-103.2 456,-125.2 540,-125.2 540,-103.2 456,-103.2"/>
<text text-anchor="start" x="458.8807" y="-110.9" font-family="Helvetica,sans-Serif" font-size="11.00" fill="#000000">timestamp[29,6]</text>
<polygon fill="none" stroke="#000000" points="274,-81.2 274,-103.2 456,-103.2 456,-81.2 274,-81.2"/>
<text text-anchor="start" x="294" y="-88.3" font-family="Helvetica,sans-Serif" font-size="11.00" fill="#000000">modify_user_id</text>
<polygon fill="none" stroke="#000000" points="456,-81.2 456,-103.2 540,-103.2 540,-81.2 456,-81.2"/>
<text text-anchor="start" x="459" y="-88.9" font-family="Helvetica,sans-Serif" font-size="11.00" fill="#000000">varchar[32]</text>
<polygon fill="none" stroke="#000000" points="274,-59.2 274,-81.2 456,-81.2 456,-59.2 274,-59.2"/>
<text text-anchor="start" x="294" y="-66.3" font-family="Helvetica,sans-Serif" font-size="11.00" fill="#000000">modify_datetime</text>
<polygon fill="none" stroke="#000000" points="456,-59.2 456,-81.2 540,-81.2 540,-59.2 456,-59.2"/>
<text text-anchor="start" x="458.8807" y="-66.9" font-family="Helvetica,sans-Serif" font-size="11.00" fill="#000000">timestamp[29,6]</text>
<polygon fill="#ffffff" stroke="transparent" points="274,-40.2 274,-59.2 369,-59.2 369,-40.2 274,-40.2"/>
<polygon fill="none" stroke="#000000" points="274,-40.2 274,-59.2 369,-59.2 369,-40.2 274,-40.2"/>
<text text-anchor="start" x="277" y="-46.3" font-family="Helvetica,sans-Serif" font-size="11.00" fill="#000000">&lt; 1</text>
<polygon fill="#ffffff" stroke="transparent" points="369,-40.2 369,-59.2 456,-59.2 456,-40.2 369,-40.2"/>
<polygon fill="none" stroke="#000000" points="369,-40.2 369,-59.2 456,-59.2 456,-40.2 369,-40.2"/>
<text text-anchor="start" x="446.8862" y="-46.3" font-family="Helvetica,sans-Serif" font-size="11.00" fill="#000000"> &#160;</text>
<polygon fill="#ffffff" stroke="transparent" points="456,-40.2 456,-59.2 540,-59.2 540,-40.2 456,-40.2"/>
<polygon fill="none" stroke="#000000" points="456,-40.2 456,-59.2 540,-59.2 540,-40.2 456,-40.2"/>
<text text-anchor="start" x="521.4053" y="-46.3" font-family="Helvetica,sans-Serif" font-size="11.00" fill="#000000">0 &gt;</text>
<polygon fill="none" stroke="#000000" stroke-width="2" points="273,-39.2 273,-281.2 541,-281.2 541,-39.2 273,-39.2"/>
</a>
</g>
</g>
<!-- draft_adjudications -->
<g id="node2" class="node">
<title>draft_adjudications</title>
<g id="a_node2"><a xlink:href="../../tables/draft_adjudications.html" xlink:title="draft_adjudications" target="_top">
<polygon fill="#ffffff" stroke="transparent" points="8,-87.7 8,-258.7 223,-258.7 223,-87.7 8,-87.7"/>
<polygon fill="#f5f5f5" stroke="transparent" points="8.5,-235.2 8.5,-258.2 223.5,-258.2 223.5,-235.2 8.5,-235.2"/>
<polygon fill="none" stroke="#000000" points="8.5,-235.2 8.5,-258.2 223.5,-258.2 223.5,-235.2 8.5,-235.2"/>
<text text-anchor="start" x="13.5" y="-243.8" font-family="Helvetica,sans-Serif" font-weight="bold" font-size="11.00" fill="#000000">draft_adjudications</text>
<text text-anchor="start" x="188.5437" y="-243.3" font-family="Helvetica,sans-Serif" font-size="11.00" fill="#000000">[table]</text>
<polygon fill="none" stroke="#000000" points="8.5,-213.2 8.5,-235.2 223.5,-235.2 223.5,-213.2 8.5,-213.2"/>
<image xlink:href="../../images/primaryKeys.png" width="11px" height="12px" preserveAspectRatio="xMinYMin meet" x="13.5" y="-230.2"/>
<text text-anchor="start" x="28.5" y="-220.3" font-family="Helvetica,sans-Serif" font-size="11.00" fill="#000000">id</text>
<polygon fill="#ffffff" stroke="transparent" points="8.5,-191.2 8.5,-213.2 223.5,-213.2 223.5,-191.2 8.5,-191.2"/>
<polygon fill="none" stroke="#000000" points="8.5,-191.2 8.5,-213.2 223.5,-213.2 223.5,-191.2 8.5,-191.2"/>
<text text-anchor="start" x="28.5" y="-198.3" font-family="Helvetica,sans-Serif" font-size="11.00" fill="#000000">prisoner_number</text>
<polygon fill="#ffffff" stroke="transparent" points="8.5,-169.2 8.5,-191.2 223.5,-191.2 223.5,-169.2 8.5,-169.2"/>
<polygon fill="none" stroke="#000000" points="8.5,-169.2 8.5,-191.2 223.5,-191.2 223.5,-169.2 8.5,-169.2"/>
<image xlink:href="../../images/foreignKeys.png" width="11px" height="12px" preserveAspectRatio="xMinYMin meet" x="13.5" y="-186.2"/>
<text text-anchor="start" x="28.5" y="-176.3" font-family="Helvetica,sans-Serif" font-size="11.00" fill="#000000">incident_details_id</text>
<polygon fill="#ffffff" stroke="transparent" points="8.5,-147.2 8.5,-169.2 223.5,-169.2 223.5,-147.2 8.5,-147.2"/>
<polygon fill="none" stroke="#000000" points="8.5,-147.2 8.5,-169.2 223.5,-169.2 223.5,-147.2 8.5,-147.2"/>
<image xlink:href="../../images/foreignKeys.png" width="11px" height="12px" preserveAspectRatio="xMinYMin meet" x="13.5" y="-164.2"/>
<text text-anchor="start" x="28.5" y="-154.3" font-family="Helvetica,sans-Serif" font-size="11.00" fill="#000000">incident_statement_id</text>
<polygon fill="#ffffff" stroke="transparent" points="8.5,-125.2 8.5,-147.2 223.5,-147.2 223.5,-125.2 8.5,-125.2"/>
<polygon fill="none" stroke="#000000" points="8.5,-125.2 8.5,-147.2 223.5,-147.2 223.5,-125.2 8.5,-125.2"/>
<image xlink:href="../../images/foreignKeys.png" width="11px" height="12px" preserveAspectRatio="xMinYMin meet" x="13.5" y="-142.2"/>
<text text-anchor="start" x="28.5" y="-132.3" font-family="Helvetica,sans-Serif" font-size="11.00" fill="#000000">incident_role_id</text>
<polygon fill="none" stroke="#000000" points="8.5,-106.2 8.5,-125.2 223.5,-125.2 223.5,-106.2 8.5,-106.2"/>
<text text-anchor="start" x="11.5" y="-112.3" font-family="Helvetica,sans-Serif" font-size="11.00" fill="#000000">...</text>
<polygon fill="#ffffff" stroke="transparent" points="8.5,-87.2 8.5,-106.2 109.5,-106.2 109.5,-87.2 8.5,-87.2"/>
<polygon fill="none" stroke="#000000" points="8.5,-87.2 8.5,-106.2 109.5,-106.2 109.5,-87.2 8.5,-87.2"/>
<text text-anchor="start" x="11.5" y="-93.3" font-family="Helvetica,sans-Serif" font-size="11.00" fill="#000000">&lt; 3</text>
<polygon fill="#ffffff" stroke="transparent" points="109.5,-87.2 109.5,-106.2 161.5,-106.2 161.5,-87.2 109.5,-87.2"/>
<polygon fill="none" stroke="#000000" points="109.5,-87.2 109.5,-106.2 161.5,-106.2 161.5,-87.2 109.5,-87.2"/>
<text text-anchor="start" x="152.3862" y="-93.3" font-family="Helvetica,sans-Serif" font-size="11.00" fill="#000000"> &#160;</text>
<polygon fill="#ffffff" stroke="transparent" points="161.5,-87.2 161.5,-106.2 223.5,-106.2 223.5,-87.2 161.5,-87.2"/>
<polygon fill="none" stroke="#000000" points="161.5,-87.2 161.5,-106.2 223.5,-106.2 223.5,-87.2 161.5,-87.2"/>
<text text-anchor="start" x="204.9053" y="-93.3" font-family="Helvetica,sans-Serif" font-size="11.00" fill="#000000">4 &gt;</text>
</a>
</g>
</g>
<!-- damages&#45;&gt;draft_adjudications -->
<g id="edge1" class="edge">
<title>damages:w&#45;&gt;draft_adjudications:e</title>
<path fill="none" stroke="#000000" d="M259.4203,-224.2C247.5435,-224.2 240.158,-224.2 223.5,-224.2"/>
<polygon fill="#000000" stroke="#000000" points="266,-224.2001 274,-227.8 270,-224.2 274,-224.2 274,-224.2 274,-224.2 270,-224.2 274,-220.6 266,-224.2001 266,-224.2001"/>
<ellipse fill="none" stroke="#000000" cx="262.8" cy="-224.2001" rx="3.2" ry="3.2"/>
</g>
</g>
</svg>
