<?xml version="1.0" encoding="UTF-8" standalone="no"?>
<!DOCTYPE svg PUBLIC "-//W3C//DTD SVG 1.1//EN"
 "http://www.w3.org/Graphics/SVG/1.1/DTD/svg11.dtd">
<!-- Generated by graphviz version 2.40.1 (20161225.0304)
 -->
<!-- Title: twoDegreesRelationshipsDiagram Pages: 1 -->
<svg width="776pt" height="566pt"
 viewBox="0.00 0.00 776.00 565.70" xmlns="http://www.w3.org/2000/svg" xmlns:xlink="http://www.w3.org/1999/xlink">
<g id="graph0" class="graph" transform="scale(1 1) rotate(0) translate(4 561.7)">
<title>twoDegreesRelationshipsDiagram</title>
<polygon fill="#ffffff" stroke="transparent" points="-4,4 -4,-561.7 772,-561.7 772,4 -4,4"/>
<text text-anchor="middle" x="72.4936" y="-7.3" font-family="Helvetica,sans-Serif" font-size="11.00" fill="#000000">Generated by SchemaSpy</text>
<!-- damages -->
<g id="node1" class="node">
<title>damages</title>
<g id="a_node1"><a xlink:href="../../tables/damages.html" xlink:title="damages" target="_top">
<polygon fill="#ffffff" stroke="transparent" points="490,-309.7 490,-553.7 760,-553.7 760,-309.7 490,-309.7"/>
<polygon fill="#f5f5f5" stroke="transparent" points="492,-528.7 492,-551.7 758,-551.7 758,-528.7 492,-528.7"/>
<polygon fill="none" stroke="#000000" points="492,-528.7 492,-551.7 758,-551.7 758,-528.7 492,-528.7"/>
<text text-anchor="start" x="497" y="-537.3" font-family="Helvetica,sans-Serif" font-weight="bold" font-size="11.00" fill="#000000">damages</text>
<text text-anchor="start" x="723.0437" y="-536.8" font-family="Helvetica,sans-Serif" font-size="11.00" fill="#000000">[table]</text>
<polygon fill="none" stroke="#000000" points="492,-506.7 492,-528.7 674,-528.7 674,-506.7 492,-506.7"/>
<image xlink:href="../../images/primaryKeys.png" width="11px" height="12px" preserveAspectRatio="xMinYMin meet" x="497" y="-523.7"/>
<text text-anchor="start" x="512" y="-513.8" font-family="Helvetica,sans-Serif" font-size="11.00" fill="#000000">id</text>
<polygon fill="none" stroke="#000000" points="674,-506.7 674,-528.7 758,-528.7 758,-506.7 674,-506.7"/>
<text text-anchor="start" x="677" y="-514.4" font-family="Helvetica,sans-Serif" font-size="11.00" fill="#000000">serial[10]</text>
<polygon fill="#ffffff" stroke="transparent" points="492,-484.7 492,-506.7 674,-506.7 674,-484.7 492,-484.7"/>
<polygon fill="none" stroke="#000000" points="492,-484.7 492,-506.7 674,-506.7 674,-484.7 492,-484.7"/>
<image xlink:href="../../images/foreignKeys.png" width="11px" height="12px" preserveAspectRatio="xMinYMin meet" x="497" y="-501.7"/>
<text text-anchor="start" x="512" y="-491.8" font-family="Helvetica,sans-Serif" font-size="11.00" fill="#000000">draft_adjudication_fk_id</text>
<polygon fill="none" stroke="#000000" points="674,-484.7 674,-506.7 758,-506.7 758,-484.7 674,-484.7"/>
<text text-anchor="start" x="677" y="-492.4" font-family="Helvetica,sans-Serif" font-size="11.00" fill="#000000">int8[19]</text>
<polygon fill="none" stroke="#000000" points="492,-462.7 492,-484.7 674,-484.7 674,-462.7 492,-462.7"/>
<text text-anchor="start" x="512" y="-469.8" font-family="Helvetica,sans-Serif" font-size="11.00" fill="#000000">code</text>
<polygon fill="none" stroke="#000000" points="674,-462.7 674,-484.7 758,-484.7 758,-462.7 674,-462.7"/>
<text text-anchor="start" x="677" y="-470.4" font-family="Helvetica,sans-Serif" font-size="11.00" fill="#000000">varchar[32]</text>
<polygon fill="none" stroke="#000000" points="492,-440.7 492,-462.7 674,-462.7 674,-440.7 492,-440.7"/>
<text text-anchor="start" x="512" y="-447.8" font-family="Helvetica,sans-Serif" font-size="11.00" fill="#000000">details</text>
<polygon fill="none" stroke="#000000" points="674,-440.7 674,-462.7 758,-462.7 758,-440.7 674,-440.7"/>
<text text-anchor="start" x="677" y="-448.4" font-family="Helvetica,sans-Serif" font-size="11.00" fill="#000000">varchar[4000]</text>
<polygon fill="none" stroke="#000000" points="492,-418.7 492,-440.7 674,-440.7 674,-418.7 492,-418.7"/>
<text text-anchor="start" x="512" y="-425.8" font-family="Helvetica,sans-Serif" font-size="11.00" fill="#000000">reporter</text>
<polygon fill="none" stroke="#000000" points="674,-418.7 674,-440.7 758,-440.7 758,-418.7 674,-418.7"/>
<text text-anchor="start" x="677" y="-426.4" font-family="Helvetica,sans-Serif" font-size="11.00" fill="#000000">varchar[32]</text>
<polygon fill="none" stroke="#000000" points="492,-396.7 492,-418.7 674,-418.7 674,-396.7 492,-396.7"/>
<text text-anchor="start" x="512" y="-403.8" font-family="Helvetica,sans-Serif" font-size="11.00" fill="#000000">create_user_id</text>
<polygon fill="none" stroke="#000000" points="674,-396.7 674,-418.7 758,-418.7 758,-396.7 674,-396.7"/>
<text text-anchor="start" x="677" y="-404.4" font-family="Helvetica,sans-Serif" font-size="11.00" fill="#000000">varchar[32]</text>
<polygon fill="none" stroke="#000000" points="492,-374.7 492,-396.7 674,-396.7 674,-374.7 492,-374.7"/>
<text text-anchor="start" x="512" y="-381.8" font-family="Helvetica,sans-Serif" font-size="11.00" fill="#000000">create_datetime</text>
<polygon fill="none" stroke="#000000" points="674,-374.7 674,-396.7 758,-396.7 758,-374.7 674,-374.7"/>
<text text-anchor="start" x="676.8807" y="-382.4" font-family="Helvetica,sans-Serif" font-size="11.00" fill="#000000">timestamp[29,6]</text>
<polygon fill="none" stroke="#000000" points="492,-352.7 492,-374.7 674,-374.7 674,-352.7 492,-352.7"/>
<text text-anchor="start" x="512" y="-359.8" font-family="Helvetica,sans-Serif" font-size="11.00" fill="#000000">modify_user_id</text>
<polygon fill="none" stroke="#000000" points="674,-352.7 674,-374.7 758,-374.7 758,-352.7 674,-352.7"/>
<text text-anchor="start" x="677" y="-360.4" font-family="Helvetica,sans-Serif" font-size="11.00" fill="#000000">varchar[32]</text>
<polygon fill="none" stroke="#000000" points="492,-330.7 492,-352.7 674,-352.7 674,-330.7 492,-330.7"/>
<text text-anchor="start" x="512" y="-337.8" font-family="Helvetica,sans-Serif" font-size="11.00" fill="#000000">modify_datetime</text>
<polygon fill="none" stroke="#000000" points="674,-330.7 674,-352.7 758,-352.7 758,-330.7 674,-330.7"/>
<text text-anchor="start" x="676.8807" y="-338.4" font-family="Helvetica,sans-Serif" font-size="11.00" fill="#000000">timestamp[29,6]</text>
<polygon fill="#ffffff" stroke="transparent" points="492,-311.7 492,-330.7 587,-330.7 587,-311.7 492,-311.7"/>
<polygon fill="none" stroke="#000000" points="492,-311.7 492,-330.7 587,-330.7 587,-311.7 492,-311.7"/>
<text text-anchor="start" x="495" y="-317.8" font-family="Helvetica,sans-Serif" font-size="11.00" fill="#000000">&lt; 1</text>
<polygon fill="#ffffff" stroke="transparent" points="587,-311.7 587,-330.7 674,-330.7 674,-311.7 587,-311.7"/>
<polygon fill="none" stroke="#000000" points="587,-311.7 587,-330.7 674,-330.7 674,-311.7 587,-311.7"/>
<text text-anchor="start" x="664.8862" y="-317.8" font-family="Helvetica,sans-Serif" font-size="11.00" fill="#000000"> &#160;</text>
<polygon fill="#ffffff" stroke="transparent" points="674,-311.7 674,-330.7 758,-330.7 758,-311.7 674,-311.7"/>
<polygon fill="none" stroke="#000000" points="674,-311.7 674,-330.7 758,-330.7 758,-311.7 674,-311.7"/>
<text text-anchor="start" x="739.4053" y="-317.8" font-family="Helvetica,sans-Serif" font-size="11.00" fill="#000000">0 &gt;</text>
<polygon fill="none" stroke="#000000" stroke-width="2" points="491,-310.7 491,-552.7 759,-552.7 759,-310.7 491,-310.7"/>
</a>
</g>
</g>
<!-- draft_adjudications -->
<g id="node2" class="node">
<title>draft_adjudications</title>
<g id="a_node2"><a xlink:href="../../tables/draft_adjudications.html" xlink:title="draft_adjudications" target="_top">
<polygon fill="#ffffff" stroke="transparent" points="226,-77.2 226,-248.2 441,-248.2 441,-77.2 226,-77.2"/>
<polygon fill="#f5f5f5" stroke="transparent" points="226.5,-224.7 226.5,-247.7 441.5,-247.7 441.5,-224.7 226.5,-224.7"/>
<polygon fill="none" stroke="#000000" points="226.5,-224.7 226.5,-247.7 441.5,-247.7 441.5,-224.7 226.5,-224.7"/>
<text text-anchor="start" x="231.5" y="-233.3" font-family="Helvetica,sans-Serif" font-weight="bold" font-size="11.00" fill="#000000">draft_adjudications</text>
<text text-anchor="start" x="406.5437" y="-232.8" font-family="Helvetica,sans-Serif" font-size="11.00" fill="#000000">[table]</text>
<polygon fill="none" stroke="#000000" points="226.5,-202.7 226.5,-224.7 441.5,-224.7 441.5,-202.7 226.5,-202.7"/>
<image xlink:href="../../images/primaryKeys.png" width="11px" height="12px" preserveAspectRatio="xMinYMin meet" x="231.5" y="-219.7"/>
<text text-anchor="start" x="246.5" y="-209.8" font-family="Helvetica,sans-Serif" font-size="11.00" fill="#000000">id</text>
<polygon fill="#ffffff" stroke="transparent" points="226.5,-180.7 226.5,-202.7 441.5,-202.7 441.5,-180.7 226.5,-180.7"/>
<polygon fill="none" stroke="#000000" points="226.5,-180.7 226.5,-202.7 441.5,-202.7 441.5,-180.7 226.5,-180.7"/>
<text text-anchor="start" x="246.5" y="-187.8" font-family="Helvetica,sans-Serif" font-size="11.00" fill="#000000">prisoner_number</text>
<polygon fill="#ffffff" stroke="transparent" points="226.5,-158.7 226.5,-180.7 441.5,-180.7 441.5,-158.7 226.5,-158.7"/>
<polygon fill="none" stroke="#000000" points="226.5,-158.7 226.5,-180.7 441.5,-180.7 441.5,-158.7 226.5,-158.7"/>
<image xlink:href="../../images/foreignKeys.png" width="11px" height="12px" preserveAspectRatio="xMinYMin meet" x="231.5" y="-175.7"/>
<text text-anchor="start" x="246.5" y="-165.8" font-family="Helvetica,sans-Serif" font-size="11.00" fill="#000000">incident_details_id</text>
<polygon fill="#ffffff" stroke="transparent" points="226.5,-136.7 226.5,-158.7 441.5,-158.7 441.5,-136.7 226.5,-136.7"/>
<polygon fill="none" stroke="#000000" points="226.5,-136.7 226.5,-158.7 441.5,-158.7 441.5,-136.7 226.5,-136.7"/>
<image xlink:href="../../images/foreignKeys.png" width="11px" height="12px" preserveAspectRatio="xMinYMin meet" x="231.5" y="-153.7"/>
<text text-anchor="start" x="246.5" y="-143.8" font-family="Helvetica,sans-Serif" font-size="11.00" fill="#000000">incident_statement_id</text>
<polygon fill="#ffffff" stroke="transparent" points="226.5,-114.7 226.5,-136.7 441.5,-136.7 441.5,-114.7 226.5,-114.7"/>
<polygon fill="none" stroke="#000000" points="226.5,-114.7 226.5,-136.7 441.5,-136.7 441.5,-114.7 226.5,-114.7"/>
<image xlink:href="../../images/foreignKeys.png" width="11px" height="12px" preserveAspectRatio="xMinYMin meet" x="231.5" y="-131.7"/>
<text text-anchor="start" x="246.5" y="-121.8" font-family="Helvetica,sans-Serif" font-size="11.00" fill="#000000">incident_role_id</text>
<polygon fill="none" stroke="#000000" points="226.5,-95.7 226.5,-114.7 441.5,-114.7 441.5,-95.7 226.5,-95.7"/>
<text text-anchor="start" x="229.5" y="-101.8" font-family="Helvetica,sans-Serif" font-size="11.00" fill="#000000">...</text>
<polygon fill="#ffffff" stroke="transparent" points="226.5,-76.7 226.5,-95.7 327.5,-95.7 327.5,-76.7 226.5,-76.7"/>
<polygon fill="none" stroke="#000000" points="226.5,-76.7 226.5,-95.7 327.5,-95.7 327.5,-76.7 226.5,-76.7"/>
<text text-anchor="start" x="229.5" y="-82.8" font-family="Helvetica,sans-Serif" font-size="11.00" fill="#000000">&lt; 3</text>
<polygon fill="#ffffff" stroke="transparent" points="327.5,-76.7 327.5,-95.7 379.5,-95.7 379.5,-76.7 327.5,-76.7"/>
<polygon fill="none" stroke="#000000" points="327.5,-76.7 327.5,-95.7 379.5,-95.7 379.5,-76.7 327.5,-76.7"/>
<text text-anchor="start" x="370.3862" y="-82.8" font-family="Helvetica,sans-Serif" font-size="11.00" fill="#000000"> &#160;</text>
<polygon fill="#ffffff" stroke="transparent" points="379.5,-76.7 379.5,-95.7 441.5,-95.7 441.5,-76.7 379.5,-76.7"/>
<polygon fill="none" stroke="#000000" points="379.5,-76.7 379.5,-95.7 441.5,-95.7 441.5,-76.7 379.5,-76.7"/>
<text text-anchor="start" x="422.9053" y="-82.8" font-family="Helvetica,sans-Serif" font-size="11.00" fill="#000000">4 &gt;</text>
</a>
</g>
</g>
<!-- damages&#45;&gt;draft_adjudications -->
<g id="edge1" class="edge">
<title>damages:w&#45;&gt;draft_adjudications:e</title>
<path fill="none" stroke="#000000" d="M478.5211,-489.81C440.5035,-449.3139 499.6925,-213.7 441.5,-213.7"/>
<polygon fill="#000000" stroke="#000000" points="484.6693,-492.4966 490.5585,-498.9988 488.3347,-494.0983 492,-495.7 492,-495.7 492,-495.7 488.3347,-494.0983 493.4415,-492.4012 484.6693,-492.4966 484.6693,-492.4966"/>
<ellipse fill="none" stroke="#000000" cx="481.7371" cy="-491.2153" rx="3.2" ry="3.2"/>
</g>
<!-- incident_details -->
<g id="node3" class="node">
<title>incident_details</title>
<g id="a_node3"><a xlink:href="../../tables/incident_details.html" xlink:title="incident_details" target="_top">
<polygon fill="#ffffff" stroke="transparent" points="20,-202.2 20,-263.2 165,-263.2 165,-202.2 20,-202.2"/>
<polygon fill="#f5f5f5" stroke="transparent" points="20.5,-239.7 20.5,-262.7 165.5,-262.7 165.5,-239.7 20.5,-239.7"/>
<polygon fill="none" stroke="#000000" points="20.5,-239.7 20.5,-262.7 165.5,-262.7 165.5,-239.7 20.5,-239.7"/>
<text text-anchor="start" x="25.5" y="-248.3" font-family="Helvetica,sans-Serif" font-weight="bold" font-size="11.00" fill="#000000">incident_details</text>
<text text-anchor="start" x="131.0219" y="-247.8" font-family="Helvetica,sans-Serif" font-size="11.00" fill="#000000">[table]</text>
<polygon fill="none" stroke="#000000" points="20.5,-220.7 20.5,-239.7 165.5,-239.7 165.5,-220.7 20.5,-220.7"/>
<text text-anchor="start" x="23.5" y="-226.8" font-family="Helvetica,sans-Serif" font-size="11.00" fill="#000000">...</text>
<polygon fill="#ffffff" stroke="transparent" points="20.5,-201.7 20.5,-220.7 82.5,-220.7 82.5,-201.7 20.5,-201.7"/>
<polygon fill="none" stroke="#000000" points="20.5,-201.7 20.5,-220.7 82.5,-220.7 82.5,-201.7 20.5,-201.7"/>
<text text-anchor="start" x="23.5" y="-207.8" font-family="Helvetica,sans-Serif" font-size="11.00" fill="#000000"> &#160;</text>
<polygon fill="#ffffff" stroke="transparent" points="82.5,-201.7 82.5,-220.7 119.5,-220.7 119.5,-201.7 82.5,-201.7"/>
<polygon fill="none" stroke="#000000" points="82.5,-201.7 82.5,-220.7 119.5,-220.7 119.5,-201.7 82.5,-201.7"/>
<text text-anchor="start" x="110.3862" y="-207.8" font-family="Helvetica,sans-Serif" font-size="11.00" fill="#000000"> &#160;</text>
<polygon fill="#ffffff" stroke="transparent" points="119.5,-201.7 119.5,-220.7 165.5,-220.7 165.5,-201.7 119.5,-201.7"/>
<polygon fill="none" stroke="#000000" points="119.5,-201.7 119.5,-220.7 165.5,-220.7 165.5,-201.7 119.5,-201.7"/>
<text text-anchor="start" x="146.9053" y="-207.8" font-family="Helvetica,sans-Serif" font-size="11.00" fill="#000000">1 &gt;</text>
</a>
</g>
</g>
<!-- draft_adjudications&#45;&gt;incident_details -->
<g id="edge2" class="edge">
<title>draft_adjudications:w&#45;&gt;incident_details:e</title>
<path fill="none" stroke="#000000" d="M212.4407,-173.4533C191.8274,-186.5887 197.7346,-229.7 165.5,-229.7"/>
<polygon fill="#000000" stroke="#000000" points="218.7707,-171.7635 227.4286,-173.1782 222.6353,-170.7317 226.5,-169.7 226.5,-169.7 226.5,-169.7 222.6353,-170.7317 225.5714,-166.2218 218.7707,-171.7635 218.7707,-171.7635"/>
<ellipse fill="none" stroke="#000000" cx="215.679" cy="-172.5888" rx="3.2" ry="3.2"/>
</g>
<!-- incident_role -->
<g id="node4" class="node">
<title>incident_role</title>
<g id="a_node4"><a xlink:href="../../tables/incident_role.html" xlink:title="incident_role" target="_top">
<polygon fill="#ffffff" stroke="transparent" points="29.5,-38.2 29.5,-99.2 155.5,-99.2 155.5,-38.2 29.5,-38.2"/>
<polygon fill="#f5f5f5" stroke="transparent" points="29.5,-75.7 29.5,-98.7 155.5,-98.7 155.5,-75.7 29.5,-75.7"/>
<polygon fill="none" stroke="#000000" points="29.5,-75.7 29.5,-98.7 155.5,-98.7 155.5,-75.7 29.5,-75.7"/>
<text text-anchor="start" x="34.5" y="-84.3" font-family="Helvetica,sans-Serif" font-weight="bold" font-size="11.00" fill="#000000">incident_role</text>
<text text-anchor="start" x="121.0219" y="-83.8" font-family="Helvetica,sans-Serif" font-size="11.00" fill="#000000">[table]</text>
<polygon fill="none" stroke="#000000" points="29.5,-56.7 29.5,-75.7 155.5,-75.7 155.5,-56.7 29.5,-56.7"/>
<text text-anchor="start" x="32.5" y="-62.8" font-family="Helvetica,sans-Serif" font-size="11.00" fill="#000000">...</text>
<polygon fill="#ffffff" stroke="transparent" points="29.5,-37.7 29.5,-56.7 81.5,-56.7 81.5,-37.7 29.5,-37.7"/>
<polygon fill="none" stroke="#000000" points="29.5,-37.7 29.5,-56.7 81.5,-56.7 81.5,-37.7 29.5,-37.7"/>
<text text-anchor="start" x="32.5" y="-43.8" font-family="Helvetica,sans-Serif" font-size="11.00" fill="#000000"> &#160;</text>
<polygon fill="#ffffff" stroke="transparent" points="81.5,-37.7 81.5,-56.7 113.5,-56.7 113.5,-37.7 81.5,-37.7"/>
<polygon fill="none" stroke="#000000" points="81.5,-37.7 81.5,-56.7 113.5,-56.7 113.5,-37.7 81.5,-37.7"/>
<text text-anchor="start" x="104.3862" y="-43.8" font-family="Helvetica,sans-Serif" font-size="11.00" fill="#000000"> &#160;</text>
<polygon fill="#ffffff" stroke="transparent" points="113.5,-37.7 113.5,-56.7 155.5,-56.7 155.5,-37.7 113.5,-37.7"/>
<polygon fill="none" stroke="#000000" points="113.5,-37.7 113.5,-56.7 155.5,-56.7 155.5,-37.7 113.5,-37.7"/>
<text text-anchor="start" x="136.9053" y="-43.8" font-family="Helvetica,sans-Serif" font-size="11.00" fill="#000000">1 &gt;</text>
</a>
</g>
</g>
<!-- draft_adjudications&#45;&gt;incident_role -->
<g id="edge3" class="edge">
<title>draft_adjudications:w&#45;&gt;incident_role:e</title>
<path fill="none" stroke="#000000" d="M212.2529,-122.6421C187.3758,-110.4153 191.1658,-65.7 155.5,-65.7"/>
<polygon fill="#000000" stroke="#000000" points="218.6781,-124.0211 225.7445,-129.2198 222.5891,-124.8606 226.5,-125.7 226.5,-125.7 226.5,-125.7 222.5891,-124.8606 227.2555,-122.1802 218.6781,-124.0211 218.6781,-124.0211"/>
<ellipse fill="none" stroke="#000000" cx="215.5494" cy="-123.3496" rx="3.2" ry="3.2"/>
</g>
<!-- incident_statement -->
<g id="node5" class="node">
<title>incident_statement</title>
<g id="a_node5"><a xlink:href="../../tables/incident_statement.html" xlink:title="incident_statement" target="_top">
<polygon fill="#ffffff" stroke="transparent" points="8,-120.2 8,-181.2 177,-181.2 177,-120.2 8,-120.2"/>
<polygon fill="#f5f5f5" stroke="transparent" points="8.5,-157.7 8.5,-180.7 177.5,-180.7 177.5,-157.7 8.5,-157.7"/>
<polygon fill="none" stroke="#000000" points="8.5,-157.7 8.5,-180.7 177.5,-180.7 177.5,-157.7 8.5,-157.7"/>
<text text-anchor="start" x="13.5" y="-166.3" font-family="Helvetica,sans-Serif" font-weight="bold" font-size="11.00" fill="#000000">incident_statement</text>
<text text-anchor="start" x="143.0219" y="-165.8" font-family="Helvetica,sans-Serif" font-size="11.00" fill="#000000">[table]</text>
<polygon fill="none" stroke="#000000" points="8.5,-138.7 8.5,-157.7 177.5,-157.7 177.5,-138.7 8.5,-138.7"/>
<text text-anchor="start" x="11.5" y="-144.8" font-family="Helvetica,sans-Serif" font-size="11.00" fill="#000000">...</text>
<polygon fill="#ffffff" stroke="transparent" points="8.5,-119.7 8.5,-138.7 82.5,-138.7 82.5,-119.7 8.5,-119.7"/>
<polygon fill="none" stroke="#000000" points="8.5,-119.7 8.5,-138.7 82.5,-138.7 82.5,-119.7 8.5,-119.7"/>
<text text-anchor="start" x="11.5" y="-125.8" font-family="Helvetica,sans-Serif" font-size="11.00" fill="#000000"> &#160;</text>
<polygon fill="#ffffff" stroke="transparent" points="82.5,-119.7 82.5,-138.7 125.5,-138.7 125.5,-119.7 82.5,-119.7"/>
<polygon fill="none" stroke="#000000" points="82.5,-119.7 82.5,-138.7 125.5,-138.7 125.5,-119.7 82.5,-119.7"/>
<text text-anchor="start" x="116.3862" y="-125.8" font-family="Helvetica,sans-Serif" font-size="11.00" fill="#000000"> &#160;</text>
<polygon fill="#ffffff" stroke="transparent" points="125.5,-119.7 125.5,-138.7 177.5,-138.7 177.5,-119.7 125.5,-119.7"/>
<polygon fill="none" stroke="#000000" points="125.5,-119.7 125.5,-138.7 177.5,-138.7 177.5,-119.7 125.5,-119.7"/>
<text text-anchor="start" x="158.9053" y="-125.8" font-family="Helvetica,sans-Serif" font-size="11.00" fill="#000000">1 &gt;</text>
</a>
</g>
</g>
<!-- draft_adjudications&#45;&gt;incident_statement -->
<g id="edge4" class="edge">
<title>draft_adjudications:w&#45;&gt;incident_statement:e</title>
<path fill="none" stroke="#000000" d="M211.9909,-147.7C200.6774,-147.7 193.4931,-147.7 177.5,-147.7"/>
<polygon fill="#000000" stroke="#000000" points="218.5,-147.7001 226.5,-151.3 222.5,-147.7 226.5,-147.7 226.5,-147.7 226.5,-147.7 222.5,-147.7 226.5,-144.1 218.5,-147.7001 218.5,-147.7001"/>
<ellipse fill="none" stroke="#000000" cx="215.3" cy="-147.7001" rx="3.2" ry="3.2"/>
</g>
<!-- evidence -->
<g id="node6" class="node">
<title>evidence</title>
<g id="a_node6"><a xlink:href="../../tables/evidence.html" xlink:title="evidence" target="_top">
<polygon fill="#ffffff" stroke="transparent" points="575.5,-227.2 575.5,-288.2 674.5,-288.2 674.5,-227.2 575.5,-227.2"/>
<polygon fill="#f5f5f5" stroke="transparent" points="576,-264.7 576,-287.7 675,-287.7 675,-264.7 576,-264.7"/>
<polygon fill="none" stroke="#000000" points="576,-264.7 576,-287.7 675,-287.7 675,-264.7 576,-264.7"/>
<text text-anchor="start" x="581" y="-273.3" font-family="Helvetica,sans-Serif" font-weight="bold" font-size="11.00" fill="#000000">evidence</text>
<text text-anchor="start" x="640.5219" y="-272.8" font-family="Helvetica,sans-Serif" font-size="11.00" fill="#000000">[table]</text>
<polygon fill="none" stroke="#000000" points="576,-245.7 576,-264.7 675,-264.7 675,-245.7 576,-245.7"/>
<text text-anchor="start" x="579" y="-251.8" font-family="Helvetica,sans-Serif" font-size="11.00" fill="#000000">...</text>
<polygon fill="#ffffff" stroke="transparent" points="576,-226.7 576,-245.7 624,-245.7 624,-226.7 576,-226.7"/>
<polygon fill="none" stroke="#000000" points="576,-226.7 576,-245.7 624,-245.7 624,-226.7 576,-226.7"/>
<text text-anchor="start" x="579" y="-232.8" font-family="Helvetica,sans-Serif" font-size="11.00" fill="#000000">&lt; 1</text>
<polygon fill="#ffffff" stroke="transparent" points="624,-226.7 624,-245.7 649,-245.7 649,-226.7 624,-226.7"/>
<polygon fill="none" stroke="#000000" points="624,-226.7 624,-245.7 649,-245.7 649,-226.7 624,-226.7"/>
<text text-anchor="start" x="639.8862" y="-232.8" font-family="Helvetica,sans-Serif" font-size="11.00" fill="#000000"> &#160;</text>
<polygon fill="#ffffff" stroke="transparent" points="649,-226.7 649,-245.7 675,-245.7 675,-226.7 649,-226.7"/>
<polygon fill="none" stroke="#000000" points="649,-226.7 649,-245.7 675,-245.7 675,-226.7 649,-226.7"/>
<text text-anchor="start" x="665.8862" y="-232.8" font-family="Helvetica,sans-Serif" font-size="11.00" fill="#000000"> &#160;</text>
</a>
</g>
</g>
<!-- evidence&#45;&gt;draft_adjudications -->
<g id="edge5" class="edge">
<title>evidence:w&#45;&gt;draft_adjudications:e</title>
<path fill="none" stroke="#000000" d="M561.3129,-253.881C511.535,-248.1025 498.745,-213.7 441.5,-213.7"/>
<polygon fill="#000000" stroke="#000000" points="568.0124,-254.2545 575.7995,-258.2944 572.0062,-254.4773 576,-254.7 576,-254.7 576,-254.7 572.0062,-254.4773 576.2005,-251.1056 568.0124,-254.2545 568.0124,-254.2545"/>
<ellipse fill="none" stroke="#000000" cx="564.8174" cy="-254.0764" rx="3.2" ry="3.2"/>
</g>
<!-- offence -->
<g id="node7" class="node">
<title>offence</title>
<g id="a_node7"><a xlink:href="../../tables/offence.html" xlink:title="offence" target="_top">
<polygon fill="#ffffff" stroke="transparent" points="580.5,-145.2 580.5,-206.2 669.5,-206.2 669.5,-145.2 580.5,-145.2"/>
<polygon fill="#f5f5f5" stroke="transparent" points="581,-182.7 581,-205.7 670,-205.7 670,-182.7 581,-182.7"/>
<polygon fill="none" stroke="#000000" points="581,-182.7 581,-205.7 670,-205.7 670,-182.7 581,-182.7"/>
<text text-anchor="start" x="586" y="-191.3" font-family="Helvetica,sans-Serif" font-weight="bold" font-size="11.00" fill="#000000">offence</text>
<text text-anchor="start" x="635.5219" y="-190.8" font-family="Helvetica,sans-Serif" font-size="11.00" fill="#000000">[table]</text>
<polygon fill="none" stroke="#000000" points="581,-163.7 581,-182.7 670,-182.7 670,-163.7 581,-163.7"/>
<text text-anchor="start" x="584" y="-169.8" font-family="Helvetica,sans-Serif" font-size="11.00" fill="#000000">...</text>
<polygon fill="#ffffff" stroke="transparent" points="581,-144.7 581,-163.7 619,-163.7 619,-144.7 581,-144.7"/>
<polygon fill="none" stroke="#000000" points="581,-144.7 581,-163.7 619,-163.7 619,-144.7 581,-144.7"/>
<text text-anchor="start" x="584" y="-150.8" font-family="Helvetica,sans-Serif" font-size="11.00" fill="#000000">&lt; 1</text>
<polygon fill="#ffffff" stroke="transparent" points="619,-144.7 619,-163.7 640,-163.7 640,-144.7 619,-144.7"/>
<polygon fill="none" stroke="#000000" points="619,-144.7 619,-163.7 640,-163.7 640,-144.7 619,-144.7"/>
<text text-anchor="start" x="630.8862" y="-150.8" font-family="Helvetica,sans-Serif" font-size="11.00" fill="#000000"> &#160;</text>
<polygon fill="#ffffff" stroke="transparent" points="640,-144.7 640,-163.7 670,-163.7 670,-144.7 640,-144.7"/>
<polygon fill="none" stroke="#000000" points="640,-144.7 640,-163.7 670,-163.7 670,-144.7 640,-144.7"/>
<text text-anchor="start" x="651.4053" y="-150.8" font-family="Helvetica,sans-Serif" font-size="11.00" fill="#000000">1 &gt;</text>
</a>
</g>
</g>
<!-- offence&#45;&gt;draft_adjudications -->
<g id="edge6" class="edge">
<title>offence:w&#45;&gt;draft_adjudications:e</title>
<path fill="none" stroke="#000000" d="M566.4655,-173.4466C514.3866,-179.0035 500.9475,-213.7 441.5,-213.7"/>
<polygon fill="#000000" stroke="#000000" points="573.0105,-173.1105 581.1847,-176.2953 577.0053,-172.9052 581,-172.7 581,-172.7 581,-172.7 577.0053,-172.9052 580.8153,-169.1047 573.0105,-173.1105 573.0105,-173.1105"/>
<ellipse fill="none" stroke="#000000" cx="569.8147" cy="-173.2747" rx="3.2" ry="3.2"/>
</g>
<!-- witness -->
<g id="node8" class="node">
<title>witness</title>
<g id="a_node8"><a xlink:href="../../tables/witness.html" xlink:title="witness" target="_top">
<polygon fill="#ffffff" stroke="transparent" points="580,-63.2 580,-124.2 670,-124.2 670,-63.2 580,-63.2"/>
<polygon fill="#f5f5f5" stroke="transparent" points="580,-100.7 580,-123.7 670,-123.7 670,-100.7 580,-100.7"/>
<polygon fill="none" stroke="#000000" points="580,-100.7 580,-123.7 670,-123.7 670,-100.7 580,-100.7"/>
<text text-anchor="start" x="585" y="-109.3" font-family="Helvetica,sans-Serif" font-weight="bold" font-size="11.00" fill="#000000">witness</text>
<text text-anchor="start" x="635.5219" y="-108.8" font-family="Helvetica,sans-Serif" font-size="11.00" fill="#000000">[table]</text>
<polygon fill="none" stroke="#000000" points="580,-81.7 580,-100.7 670,-100.7 670,-81.7 580,-81.7"/>
<text text-anchor="start" x="583" y="-87.8" font-family="Helvetica,sans-Serif" font-size="11.00" fill="#000000">...</text>
<polygon fill="#ffffff" stroke="transparent" points="580,-62.7 580,-81.7 623,-81.7 623,-62.7 580,-62.7"/>
<polygon fill="none" stroke="#000000" points="580,-62.7 580,-81.7 623,-81.7 623,-62.7 580,-62.7"/>
<text text-anchor="start" x="583" y="-68.8" font-family="Helvetica,sans-Serif" font-size="11.00" fill="#000000">&lt; 1</text>
<polygon fill="#ffffff" stroke="transparent" points="623,-62.7 623,-81.7 646,-81.7 646,-62.7 623,-62.7"/>
<polygon fill="none" stroke="#000000" points="623,-62.7 623,-81.7 646,-81.7 646,-62.7 623,-62.7"/>
<text text-anchor="start" x="636.8862" y="-68.8" font-family="Helvetica,sans-Serif" font-size="11.00" fill="#000000"> &#160;</text>
<polygon fill="#ffffff" stroke="transparent" points="646,-62.7 646,-81.7 670,-81.7 670,-62.7 646,-62.7"/>
<polygon fill="none" stroke="#000000" points="646,-62.7 646,-81.7 670,-81.7 670,-62.7 646,-62.7"/>
<text text-anchor="start" x="660.8862" y="-68.8" font-family="Helvetica,sans-Serif" font-size="11.00" fill="#000000"> &#160;</text>
</a>
</g>
</g>
<!-- witness&#45;&gt;draft_adjudications -->
<g id="edge7" class="edge">
<title>witness:w&#45;&gt;draft_adjudications:e</title>
<path fill="none" stroke="#000000" d="M565.4195,-91.1131C528.6087,-93.3936 512.8351,-105.4198 482,-134.7 453.3882,-161.869 480.9562,-213.7 441.5,-213.7"/>
<polygon fill="#000000" stroke="#000000" points="572.0032,-90.9266 580.102,-94.2986 576.0016,-90.8133 580,-90.7 580,-90.7 580,-90.7 576.0016,-90.8133 579.898,-87.1014 572.0032,-90.9266 572.0032,-90.9266"/>
<ellipse fill="none" stroke="#000000" cx="568.8045" cy="-91.0173" rx="3.2" ry="3.2"/>
</g>
</g>
</svg>
