<?xml version="1.0" encoding="UTF-8" standalone="no"?>
<!DOCTYPE svg PUBLIC "-//W3C//DTD SVG 1.1//EN"
 "http://www.w3.org/Graphics/SVG/1.1/DTD/svg11.dtd">
<!-- Generated by graphviz version 2.40.1 (20161225.0304)
 -->
<!-- Title: oneDegreeRelationshipsDiagram Pages: 1 -->
<svg width="853pt" height="768pt"
 viewBox="0.00 0.00 853.00 767.70" xmlns="http://www.w3.org/2000/svg" xmlns:xlink="http://www.w3.org/1999/xlink">
<g id="graph0" class="graph" transform="scale(1 1) rotate(0) translate(4 763.7)">
<title>oneDegreeRelationshipsDiagram</title>
<polygon fill="#ffffff" stroke="transparent" points="-4,4 -4,-763.7 849,-763.7 849,4 -4,4"/>
<text text-anchor="middle" x="72.4936" y="-7.3" font-family="Helvetica,sans-Serif" font-size="11.00" fill="#000000">Generated by SchemaSpy</text>
<!-- damages -->
<g id="node1" class="node">
<title>damages</title>
<g id="a_node1"><a xlink:href="../../tables/damages.html" xlink:title="damages" target="_top">
<polygon fill="#ffffff" stroke="transparent" points="642.5,-650.7 642.5,-755.7 824.5,-755.7 824.5,-650.7 642.5,-650.7"/>
<polygon fill="#f5f5f5" stroke="transparent" points="642.5,-732.2 642.5,-755.2 824.5,-755.2 824.5,-732.2 642.5,-732.2"/>
<polygon fill="none" stroke="#000000" points="642.5,-732.2 642.5,-755.2 824.5,-755.2 824.5,-732.2 642.5,-732.2"/>
<text text-anchor="start" x="647.5" y="-740.8" font-family="Helvetica,sans-Serif" font-weight="bold" font-size="11.00" fill="#000000">damages</text>
<text text-anchor="start" x="789.5437" y="-740.3" font-family="Helvetica,sans-Serif" font-size="11.00" fill="#000000">[table]</text>
<polygon fill="none" stroke="#000000" points="642.5,-710.2 642.5,-732.2 824.5,-732.2 824.5,-710.2 642.5,-710.2"/>
<image xlink:href="../../images/primaryKeys.png" width="11px" height="12px" preserveAspectRatio="xMinYMin meet" x="647.5" y="-727.2"/>
<text text-anchor="start" x="662.5" y="-717.3" font-family="Helvetica,sans-Serif" font-size="11.00" fill="#000000">id</text>
<polygon fill="#ffffff" stroke="transparent" points="642.5,-688.2 642.5,-710.2 824.5,-710.2 824.5,-688.2 642.5,-688.2"/>
<polygon fill="none" stroke="#000000" points="642.5,-688.2 642.5,-710.2 824.5,-710.2 824.5,-688.2 642.5,-688.2"/>
<image xlink:href="../../images/foreignKeys.png" width="11px" height="12px" preserveAspectRatio="xMinYMin meet" x="647.5" y="-705.2"/>
<text text-anchor="start" x="662.5" y="-695.3" font-family="Helvetica,sans-Serif" font-size="11.00" fill="#000000">draft_adjudication_fk_id</text>
<polygon fill="none" stroke="#000000" points="642.5,-669.2 642.5,-688.2 824.5,-688.2 824.5,-669.2 642.5,-669.2"/>
<text text-anchor="start" x="645.5" y="-675.3" font-family="Helvetica,sans-Serif" font-size="11.00" fill="#000000">...</text>
<polygon fill="#ffffff" stroke="transparent" points="642.5,-650.2 642.5,-669.2 731.5,-669.2 731.5,-650.2 642.5,-650.2"/>
<polygon fill="none" stroke="#000000" points="642.5,-650.2 642.5,-669.2 731.5,-669.2 731.5,-650.2 642.5,-650.2"/>
<text text-anchor="start" x="645.5" y="-656.3" font-family="Helvetica,sans-Serif" font-size="11.00" fill="#000000">&lt; 1</text>
<polygon fill="#ffffff" stroke="transparent" points="731.5,-650.2 731.5,-669.2 777.5,-669.2 777.5,-650.2 731.5,-650.2"/>
<polygon fill="none" stroke="#000000" points="731.5,-650.2 731.5,-669.2 777.5,-669.2 777.5,-650.2 731.5,-650.2"/>
<text text-anchor="start" x="768.3862" y="-656.3" font-family="Helvetica,sans-Serif" font-size="11.00" fill="#000000"> &#160;</text>
<polygon fill="#ffffff" stroke="transparent" points="777.5,-650.2 777.5,-669.2 824.5,-669.2 824.5,-650.2 777.5,-650.2"/>
<polygon fill="none" stroke="#000000" points="777.5,-650.2 777.5,-669.2 824.5,-669.2 824.5,-650.2 777.5,-650.2"/>
<text text-anchor="start" x="815.3862" y="-656.3" font-family="Helvetica,sans-Serif" font-size="11.00" fill="#000000"> &#160;</text>
</a>
</g>
</g>
<!-- draft_adjudications -->
<g id="node2" class="node">
<title>draft_adjudications</title>
<g id="a_node2"><a xlink:href="../../tables/draft_adjudications.html" xlink:title="draft_adjudications" target="_top">
<polygon fill="#ffffff" stroke="transparent" points="278,-38.2 278,-546.2 581,-546.2 581,-38.2 278,-38.2"/>
<polygon fill="#f5f5f5" stroke="transparent" points="280.5,-521.2 280.5,-544.2 579.5,-544.2 579.5,-521.2 280.5,-521.2"/>
<polygon fill="none" stroke="#000000" points="280.5,-521.2 280.5,-544.2 579.5,-544.2 579.5,-521.2 280.5,-521.2"/>
<text text-anchor="start" x="285.5" y="-529.8" font-family="Helvetica,sans-Serif" font-weight="bold" font-size="11.00" fill="#000000">draft_adjudications</text>
<text text-anchor="start" x="544.5437" y="-529.3" font-family="Helvetica,sans-Serif" font-size="11.00" fill="#000000">[table]</text>
<polygon fill="none" stroke="#000000" points="280.5,-499.2 280.5,-521.2 495.5,-521.2 495.5,-499.2 280.5,-499.2"/>
<image xlink:href="../../images/primaryKeys.png" width="11px" height="12px" preserveAspectRatio="xMinYMin meet" x="285.5" y="-516.2"/>
<text text-anchor="start" x="300.5" y="-506.3" font-family="Helvetica,sans-Serif" font-size="11.00" fill="#000000">id</text>
<polygon fill="none" stroke="#000000" points="495.5,-499.2 495.5,-521.2 579.5,-521.2 579.5,-499.2 495.5,-499.2"/>
<text text-anchor="start" x="498.5" y="-506.9" font-family="Helvetica,sans-Serif" font-size="11.00" fill="#000000">serial[10]</text>
<polygon fill="#ffffff" stroke="transparent" points="280.5,-477.2 280.5,-499.2 495.5,-499.2 495.5,-477.2 280.5,-477.2"/>
<polygon fill="none" stroke="#000000" points="280.5,-477.2 280.5,-499.2 495.5,-499.2 495.5,-477.2 280.5,-477.2"/>
<text text-anchor="start" x="300.5" y="-484.3" font-family="Helvetica,sans-Serif" font-size="11.00" fill="#000000">prisoner_number</text>
<polygon fill="none" stroke="#000000" points="495.5,-477.2 495.5,-499.2 579.5,-499.2 579.5,-477.2 495.5,-477.2"/>
<text text-anchor="start" x="498.5" y="-484.9" font-family="Helvetica,sans-Serif" font-size="11.00" fill="#000000">varchar[7]</text>
<polygon fill="#ffffff" stroke="transparent" points="280.5,-455.2 280.5,-477.2 495.5,-477.2 495.5,-455.2 280.5,-455.2"/>
<polygon fill="none" stroke="#000000" points="280.5,-455.2 280.5,-477.2 495.5,-477.2 495.5,-455.2 280.5,-455.2"/>
<image xlink:href="../../images/foreignKeys.png" width="11px" height="12px" preserveAspectRatio="xMinYMin meet" x="285.5" y="-472.2"/>
<text text-anchor="start" x="300.5" y="-462.3" font-family="Helvetica,sans-Serif" font-size="11.00" fill="#000000">incident_details_id</text>
<polygon fill="none" stroke="#000000" points="495.5,-455.2 495.5,-477.2 579.5,-477.2 579.5,-455.2 495.5,-455.2"/>
<text text-anchor="start" x="498.5" y="-462.9" font-family="Helvetica,sans-Serif" font-size="11.00" fill="#000000">int4[10]</text>
<polygon fill="#ffffff" stroke="transparent" points="280.5,-433.2 280.5,-455.2 495.5,-455.2 495.5,-433.2 280.5,-433.2"/>
<polygon fill="none" stroke="#000000" points="280.5,-433.2 280.5,-455.2 495.5,-455.2 495.5,-433.2 280.5,-433.2"/>
<image xlink:href="../../images/foreignKeys.png" width="11px" height="12px" preserveAspectRatio="xMinYMin meet" x="285.5" y="-450.2"/>
<text text-anchor="start" x="300.5" y="-440.3" font-family="Helvetica,sans-Serif" font-size="11.00" fill="#000000">incident_statement_id</text>
<polygon fill="none" stroke="#000000" points="495.5,-433.2 495.5,-455.2 579.5,-455.2 579.5,-433.2 495.5,-433.2"/>
<text text-anchor="start" x="498.5" y="-440.9" font-family="Helvetica,sans-Serif" font-size="11.00" fill="#000000">int4[10]</text>
<polygon fill="none" stroke="#000000" points="280.5,-411.2 280.5,-433.2 495.5,-433.2 495.5,-411.2 280.5,-411.2"/>
<text text-anchor="start" x="300.5" y="-418.3" font-family="Helvetica,sans-Serif" font-size="11.00" fill="#000000">create_user_id</text>
<polygon fill="none" stroke="#000000" points="495.5,-411.2 495.5,-433.2 579.5,-433.2 579.5,-411.2 495.5,-411.2"/>
<text text-anchor="start" x="498.5" y="-418.9" font-family="Helvetica,sans-Serif" font-size="11.00" fill="#000000">varchar[32]</text>
<polygon fill="none" stroke="#000000" points="280.5,-389.2 280.5,-411.2 495.5,-411.2 495.5,-389.2 280.5,-389.2"/>
<text text-anchor="start" x="300.5" y="-396.3" font-family="Helvetica,sans-Serif" font-size="11.00" fill="#000000">create_datetime</text>
<polygon fill="none" stroke="#000000" points="495.5,-389.2 495.5,-411.2 579.5,-411.2 579.5,-389.2 495.5,-389.2"/>
<text text-anchor="start" x="498.3807" y="-396.9" font-family="Helvetica,sans-Serif" font-size="11.00" fill="#000000">timestamp[29,6]</text>
<polygon fill="none" stroke="#000000" points="280.5,-367.2 280.5,-389.2 495.5,-389.2 495.5,-367.2 280.5,-367.2"/>
<text text-anchor="start" x="300.5" y="-374.3" font-family="Helvetica,sans-Serif" font-size="11.00" fill="#000000">modify_user_id</text>
<polygon fill="none" stroke="#000000" points="495.5,-367.2 495.5,-389.2 579.5,-389.2 579.5,-367.2 495.5,-367.2"/>
<text text-anchor="start" x="498.5" y="-374.9" font-family="Helvetica,sans-Serif" font-size="11.00" fill="#000000">varchar[32]</text>
<polygon fill="none" stroke="#000000" points="280.5,-345.2 280.5,-367.2 495.5,-367.2 495.5,-345.2 280.5,-345.2"/>
<text text-anchor="start" x="300.5" y="-352.3" font-family="Helvetica,sans-Serif" font-size="11.00" fill="#000000">modify_datetime</text>
<polygon fill="none" stroke="#000000" points="495.5,-345.2 495.5,-367.2 579.5,-367.2 579.5,-345.2 495.5,-345.2"/>
<text text-anchor="start" x="498.3807" y="-352.9" font-family="Helvetica,sans-Serif" font-size="11.00" fill="#000000">timestamp[29,6]</text>
<polygon fill="none" stroke="#000000" points="280.5,-323.2 280.5,-345.2 495.5,-345.2 495.5,-323.2 280.5,-323.2"/>
<text text-anchor="start" x="300.5" y="-330.3" font-family="Helvetica,sans-Serif" font-size="11.00" fill="#000000">originating_agency_id</text>
<polygon fill="none" stroke="#000000" points="495.5,-323.2 495.5,-345.2 579.5,-345.2 579.5,-323.2 495.5,-323.2"/>
<text text-anchor="start" x="498.5" y="-330.9" font-family="Helvetica,sans-Serif" font-size="11.00" fill="#000000">varchar[6]</text>
<polygon fill="none" stroke="#000000" points="280.5,-301.2 280.5,-323.2 495.5,-323.2 495.5,-301.2 280.5,-301.2"/>
<text text-anchor="start" x="300.5" y="-308.3" font-family="Helvetica,sans-Serif" font-size="11.00" fill="#000000">charge_number</text>
<polygon fill="none" stroke="#000000" points="495.5,-301.2 495.5,-323.2 579.5,-323.2 579.5,-301.2 495.5,-301.2"/>
<text text-anchor="start" x="498.5" y="-308.9" font-family="Helvetica,sans-Serif" font-size="11.00" fill="#000000">varchar[16]</text>
<polygon fill="none" stroke="#000000" points="280.5,-279.2 280.5,-301.2 495.5,-301.2 495.5,-279.2 280.5,-279.2"/>
<text text-anchor="start" x="300.5" y="-286.3" font-family="Helvetica,sans-Serif" font-size="11.00" fill="#000000">report_by_user_id</text>
<polygon fill="none" stroke="#000000" points="495.5,-279.2 495.5,-301.2 579.5,-301.2 579.5,-279.2 495.5,-279.2"/>
<text text-anchor="start" x="498.5" y="-286.9" font-family="Helvetica,sans-Serif" font-size="11.00" fill="#000000">varchar[32]</text>
<polygon fill="#ffffff" stroke="transparent" points="280.5,-257.2 280.5,-279.2 495.5,-279.2 495.5,-257.2 280.5,-257.2"/>
<polygon fill="none" stroke="#000000" points="280.5,-257.2 280.5,-279.2 495.5,-279.2 495.5,-257.2 280.5,-257.2"/>
<image xlink:href="../../images/foreignKeys.png" width="11px" height="12px" preserveAspectRatio="xMinYMin meet" x="285.5" y="-274.2"/>
<text text-anchor="start" x="300.5" y="-264.3" font-family="Helvetica,sans-Serif" font-size="11.00" fill="#000000">incident_role_id</text>
<polygon fill="none" stroke="#000000" points="495.5,-257.2 495.5,-279.2 579.5,-279.2 579.5,-257.2 495.5,-257.2"/>
<text text-anchor="start" x="498.5" y="-264.9" font-family="Helvetica,sans-Serif" font-size="11.00" fill="#000000">int4[10]</text>
<polygon fill="none" stroke="#000000" points="280.5,-235.2 280.5,-257.2 495.5,-257.2 495.5,-235.2 280.5,-235.2"/>
<text text-anchor="start" x="300.5" y="-242.3" font-family="Helvetica,sans-Serif" font-size="11.00" fill="#000000">is_youth_offender</text>
<polygon fill="none" stroke="#000000" points="495.5,-235.2 495.5,-257.2 579.5,-257.2 579.5,-235.2 495.5,-235.2"/>
<text text-anchor="start" x="498.5" y="-242.9" font-family="Helvetica,sans-Serif" font-size="11.00" fill="#000000">bool[1]</text>
<polygon fill="none" stroke="#000000" points="280.5,-213.2 280.5,-235.2 495.5,-235.2 495.5,-213.2 280.5,-213.2"/>
<text text-anchor="start" x="300.5" y="-220.3" font-family="Helvetica,sans-Serif" font-size="11.00" fill="#000000">damages_saved</text>
<polygon fill="none" stroke="#000000" points="495.5,-213.2 495.5,-235.2 579.5,-235.2 579.5,-213.2 495.5,-213.2"/>
<text text-anchor="start" x="498.5" y="-220.9" font-family="Helvetica,sans-Serif" font-size="11.00" fill="#000000">bool[1]</text>
<polygon fill="none" stroke="#000000" points="280.5,-191.2 280.5,-213.2 495.5,-213.2 495.5,-191.2 280.5,-191.2"/>
<text text-anchor="start" x="300.5" y="-198.3" font-family="Helvetica,sans-Serif" font-size="11.00" fill="#000000">evidence_saved</text>
<polygon fill="none" stroke="#000000" points="495.5,-191.2 495.5,-213.2 579.5,-213.2 579.5,-191.2 495.5,-191.2"/>
<text text-anchor="start" x="498.5" y="-198.9" font-family="Helvetica,sans-Serif" font-size="11.00" fill="#000000">bool[1]</text>
<polygon fill="none" stroke="#000000" points="280.5,-169.2 280.5,-191.2 495.5,-191.2 495.5,-169.2 280.5,-169.2"/>
<text text-anchor="start" x="300.5" y="-176.3" font-family="Helvetica,sans-Serif" font-size="11.00" fill="#000000">witnesses_saved</text>
<polygon fill="none" stroke="#000000" points="495.5,-169.2 495.5,-191.2 579.5,-191.2 579.5,-169.2 495.5,-169.2"/>
<text text-anchor="start" x="498.5" y="-176.9" font-family="Helvetica,sans-Serif" font-size="11.00" fill="#000000">bool[1]</text>
<polygon fill="none" stroke="#000000" points="280.5,-147.2 280.5,-169.2 495.5,-169.2 495.5,-147.2 280.5,-147.2"/>
<text text-anchor="start" x="300.5" y="-154.3" font-family="Helvetica,sans-Serif" font-size="11.00" fill="#000000">gender</text>
<polygon fill="none" stroke="#000000" points="495.5,-147.2 495.5,-169.2 579.5,-169.2 579.5,-147.2 495.5,-147.2"/>
<text text-anchor="start" x="498.5" y="-154.9" font-family="Helvetica,sans-Serif" font-size="11.00" fill="#000000">varchar[12]</text>
<polygon fill="none" stroke="#000000" points="280.5,-125.2 280.5,-147.2 495.5,-147.2 495.5,-125.2 280.5,-125.2"/>
<text text-anchor="start" x="300.5" y="-132.3" font-family="Helvetica,sans-Serif" font-size="11.00" fill="#000000">override_agency_id</text>
<polygon fill="none" stroke="#000000" points="495.5,-125.2 495.5,-147.2 579.5,-147.2 579.5,-125.2 495.5,-125.2"/>
<text text-anchor="start" x="498.5" y="-132.9" font-family="Helvetica,sans-Serif" font-size="11.00" fill="#000000">varchar[6]</text>
<polygon fill="none" stroke="#000000" points="280.5,-103.2 280.5,-125.2 495.5,-125.2 495.5,-103.2 280.5,-103.2"/>
<text text-anchor="start" x="300.5" y="-110.3" font-family="Helvetica,sans-Serif" font-size="11.00" fill="#000000">created_on_behalf_of_officer</text>
<polygon fill="none" stroke="#000000" points="495.5,-103.2 495.5,-125.2 579.5,-125.2 579.5,-103.2 495.5,-103.2"/>
<text text-anchor="start" x="498.5" y="-110.9" font-family="Helvetica,sans-Serif" font-size="11.00" fill="#000000">varchar[32]</text>
<polygon fill="none" stroke="#000000" points="280.5,-81.2 280.5,-103.2 495.5,-103.2 495.5,-81.2 280.5,-81.2"/>
<text text-anchor="start" x="300.5" y="-88.3" font-family="Helvetica,sans-Serif" font-size="11.00" fill="#000000">created_on_behalf_of_reason</text>
<polygon fill="none" stroke="#000000" points="495.5,-81.2 495.5,-103.2 579.5,-103.2 579.5,-81.2 495.5,-81.2"/>
<text text-anchor="start" x="498.5" y="-88.9" font-family="Helvetica,sans-Serif" font-size="11.00" fill="#000000">varchar[4000]</text>
<polygon fill="none" stroke="#000000" points="280.5,-59.2 280.5,-81.2 495.5,-81.2 495.5,-59.2 280.5,-59.2"/>
<text text-anchor="start" x="300.5" y="-66.3" font-family="Helvetica,sans-Serif" font-size="11.00" fill="#000000">offender_booking_id</text>
<polygon fill="none" stroke="#000000" points="495.5,-59.2 495.5,-81.2 579.5,-81.2 579.5,-59.2 495.5,-59.2"/>
<text text-anchor="start" x="498.5" y="-66.9" font-family="Helvetica,sans-Serif" font-size="11.00" fill="#000000">int8[19]</text>
<polygon fill="#ffffff" stroke="transparent" points="280.5,-40.2 280.5,-59.2 392.5,-59.2 392.5,-40.2 280.5,-40.2"/>
<polygon fill="none" stroke="#000000" points="280.5,-40.2 280.5,-59.2 392.5,-59.2 392.5,-40.2 280.5,-40.2"/>
<text text-anchor="start" x="283.5" y="-46.3" font-family="Helvetica,sans-Serif" font-size="11.00" fill="#000000">&lt; 3</text>
<polygon fill="#ffffff" stroke="transparent" points="392.5,-40.2 392.5,-59.2 495.5,-59.2 495.5,-40.2 392.5,-40.2"/>
<polygon fill="none" stroke="#000000" points="392.5,-40.2 392.5,-59.2 495.5,-59.2 495.5,-40.2 392.5,-40.2"/>
<text text-anchor="start" x="486.3862" y="-46.3" font-family="Helvetica,sans-Serif" font-size="11.00" fill="#000000"> &#160;</text>
<polygon fill="#ffffff" stroke="transparent" points="495.5,-40.2 495.5,-59.2 579.5,-59.2 579.5,-40.2 495.5,-40.2"/>
<polygon fill="none" stroke="#000000" points="495.5,-40.2 495.5,-59.2 579.5,-59.2 579.5,-40.2 495.5,-40.2"/>
<text text-anchor="start" x="560.9053" y="-46.3" font-family="Helvetica,sans-Serif" font-size="11.00" fill="#000000">4 &gt;</text>
<polygon fill="none" stroke="#000000" stroke-width="2" points="279,-39.2 279,-545.2 580,-545.2 580,-39.2 279,-39.2"/>
</a>
</g>
</g>
<!-- damages&#45;&gt;draft_adjudications -->
<g id="edge1" class="edge">
<title>damages:w&#45;&gt;draft_adjudications:e</title>
<path fill="none" stroke="#000000" d="M628.1737,-697.0774C567.4256,-676.3133 662.5098,-510.2 579.5,-510.2"/>
<polygon fill="#000000" stroke="#000000" points="634.5864,-698.0275 641.9724,-702.7611 638.5432,-698.6137 642.5,-699.2 642.5,-699.2 642.5,-699.2 638.5432,-698.6137 643.0276,-695.6389 634.5864,-698.0275 634.5864,-698.0275"/>
<ellipse fill="none" stroke="#000000" cx="631.4209" cy="-697.5585" rx="3.2" ry="3.2"/>
</g>
<!-- incident_details -->
<g id="node3" class="node">
<title>incident_details</title>
<g id="a_node3"><a xlink:href="../../tables/incident_details.html" xlink:title="incident_details" target="_top">
<polygon fill="#ffffff" stroke="transparent" points="29.5,-463.7 29.5,-546.7 207.5,-546.7 207.5,-463.7 29.5,-463.7"/>
<polygon fill="#f5f5f5" stroke="transparent" points="29.5,-523.2 29.5,-546.2 207.5,-546.2 207.5,-523.2 29.5,-523.2"/>
<polygon fill="none" stroke="#000000" points="29.5,-523.2 29.5,-546.2 207.5,-546.2 207.5,-523.2 29.5,-523.2"/>
<text text-anchor="start" x="34.5" y="-531.8" font-family="Helvetica,sans-Serif" font-weight="bold" font-size="11.00" fill="#000000">incident_details</text>
<text text-anchor="start" x="172.5437" y="-531.3" font-family="Helvetica,sans-Serif" font-size="11.00" fill="#000000">[table]</text>
<polygon fill="none" stroke="#000000" points="29.5,-501.2 29.5,-523.2 207.5,-523.2 207.5,-501.2 29.5,-501.2"/>
<image xlink:href="../../images/primaryKeys.png" width="11px" height="12px" preserveAspectRatio="xMinYMin meet" x="34.5" y="-518.2"/>
<text text-anchor="start" x="49.5" y="-508.3" font-family="Helvetica,sans-Serif" font-size="11.00" fill="#000000">id</text>
<polygon fill="none" stroke="#000000" points="29.5,-482.2 29.5,-501.2 207.5,-501.2 207.5,-482.2 29.5,-482.2"/>
<text text-anchor="start" x="32.5" y="-488.3" font-family="Helvetica,sans-Serif" font-size="11.00" fill="#000000">...</text>
<polygon fill="#ffffff" stroke="transparent" points="29.5,-463.2 29.5,-482.2 107.5,-482.2 107.5,-463.2 29.5,-463.2"/>
<polygon fill="none" stroke="#000000" points="29.5,-463.2 29.5,-482.2 107.5,-482.2 107.5,-463.2 29.5,-463.2"/>
<text text-anchor="start" x="32.5" y="-469.3" font-family="Helvetica,sans-Serif" font-size="11.00" fill="#000000"> &#160;</text>
<polygon fill="#ffffff" stroke="transparent" points="107.5,-463.2 107.5,-482.2 152.5,-482.2 152.5,-463.2 107.5,-463.2"/>
<polygon fill="none" stroke="#000000" points="107.5,-463.2 107.5,-482.2 152.5,-482.2 152.5,-463.2 107.5,-463.2"/>
<text text-anchor="start" x="143.3862" y="-469.3" font-family="Helvetica,sans-Serif" font-size="11.00" fill="#000000"> &#160;</text>
<polygon fill="#ffffff" stroke="transparent" points="152.5,-463.2 152.5,-482.2 207.5,-482.2 207.5,-463.2 152.5,-463.2"/>
<polygon fill="none" stroke="#000000" points="152.5,-463.2 152.5,-482.2 207.5,-482.2 207.5,-463.2 152.5,-463.2"/>
<text text-anchor="start" x="188.9053" y="-469.3" font-family="Helvetica,sans-Serif" font-size="11.00" fill="#000000">1 &gt;</text>
</a>
</g>
</g>
<!-- draft_adjudications&#45;&gt;incident_details -->
<g id="edge2" class="edge">
<title>draft_adjudications:w&#45;&gt;incident_details:e</title>
<path fill="none" stroke="#000000" d="M266.2533,-468.805C242.3418,-478.536 240.3061,-512.2 207.5,-512.2"/>
<polygon fill="#000000" stroke="#000000" points="272.6305,-467.639 281.1475,-469.7413 276.5652,-466.9195 280.5,-466.2 280.5,-466.2 280.5,-466.2 276.5652,-466.9195 279.8525,-462.6587 272.6305,-467.639 272.6305,-467.639"/>
<ellipse fill="none" stroke="#000000" cx="269.4827" cy="-468.2145" rx="3.2" ry="3.2"/>
</g>
<!-- incident_role -->
<g id="node4" class="node">
<title>incident_role</title>
<g id="a_node4"><a xlink:href="../../tables/incident_role.html" xlink:title="incident_role" target="_top">
<polygon fill="#ffffff" stroke="transparent" points="8,-197.7 8,-302.7 229,-302.7 229,-197.7 8,-197.7"/>
<polygon fill="#f5f5f5" stroke="transparent" points="8.5,-279.2 8.5,-302.2 229.5,-302.2 229.5,-279.2 8.5,-279.2"/>
<polygon fill="none" stroke="#000000" points="8.5,-279.2 8.5,-302.2 229.5,-302.2 229.5,-279.2 8.5,-279.2"/>
<text text-anchor="start" x="13.5" y="-287.8" font-family="Helvetica,sans-Serif" font-weight="bold" font-size="11.00" fill="#000000">incident_role</text>
<text text-anchor="start" x="194.5437" y="-287.3" font-family="Helvetica,sans-Serif" font-size="11.00" fill="#000000">[table]</text>
<polygon fill="none" stroke="#000000" points="8.5,-257.2 8.5,-279.2 229.5,-279.2 229.5,-257.2 8.5,-257.2"/>
<image xlink:href="../../images/primaryKeys.png" width="11px" height="12px" preserveAspectRatio="xMinYMin meet" x="13.5" y="-274.2"/>
<text text-anchor="start" x="28.5" y="-264.3" font-family="Helvetica,sans-Serif" font-size="11.00" fill="#000000">id</text>
<polygon fill="#ffffff" stroke="transparent" points="8.5,-235.2 8.5,-257.2 229.5,-257.2 229.5,-235.2 8.5,-235.2"/>
<polygon fill="none" stroke="#000000" points="8.5,-235.2 8.5,-257.2 229.5,-257.2 229.5,-235.2 8.5,-235.2"/>
<text text-anchor="start" x="28.5" y="-242.3" font-family="Helvetica,sans-Serif" font-size="11.00" fill="#000000">associated_prisoners_number</text>
<polygon fill="none" stroke="#000000" points="8.5,-216.2 8.5,-235.2 229.5,-235.2 229.5,-216.2 8.5,-216.2"/>
<text text-anchor="start" x="11.5" y="-222.3" font-family="Helvetica,sans-Serif" font-size="11.00" fill="#000000">...</text>
<polygon fill="#ffffff" stroke="transparent" points="8.5,-197.2 8.5,-216.2 108.5,-216.2 108.5,-197.2 8.5,-197.2"/>
<polygon fill="none" stroke="#000000" points="8.5,-197.2 8.5,-216.2 108.5,-216.2 108.5,-197.2 8.5,-197.2"/>
<text text-anchor="start" x="11.5" y="-203.3" font-family="Helvetica,sans-Serif" font-size="11.00" fill="#000000"> &#160;</text>
<polygon fill="#ffffff" stroke="transparent" points="108.5,-197.2 108.5,-216.2 164.5,-216.2 164.5,-197.2 108.5,-197.2"/>
<polygon fill="none" stroke="#000000" points="108.5,-197.2 108.5,-216.2 164.5,-216.2 164.5,-197.2 108.5,-197.2"/>
<text text-anchor="start" x="155.3862" y="-203.3" font-family="Helvetica,sans-Serif" font-size="11.00" fill="#000000"> &#160;</text>
<polygon fill="#ffffff" stroke="transparent" points="164.5,-197.2 164.5,-216.2 229.5,-216.2 229.5,-197.2 164.5,-197.2"/>
<polygon fill="none" stroke="#000000" points="164.5,-197.2 164.5,-216.2 229.5,-216.2 229.5,-197.2 164.5,-197.2"/>
<text text-anchor="start" x="210.9053" y="-203.3" font-family="Helvetica,sans-Serif" font-size="11.00" fill="#000000">1 &gt;</text>
</a>
</g>
</g>
<!-- draft_adjudications&#45;&gt;incident_role -->
<g id="edge3" class="edge">
<title>draft_adjudications:w&#45;&gt;incident_role:e</title>
<path fill="none" stroke="#000000" d="M265.776,-268.2C253.7815,-268.2 246.3229,-268.2 229.5,-268.2"/>
<polygon fill="#000000" stroke="#000000" points="272.5,-268.2001 280.5,-271.8 276.5,-268.2 280.5,-268.2 280.5,-268.2 280.5,-268.2 276.5,-268.2 280.5,-264.6 272.5,-268.2001 272.5,-268.2001"/>
<ellipse fill="none" stroke="#000000" cx="269.3" cy="-268.2001" rx="3.2" ry="3.2"/>
</g>
<!-- incident_statement -->
<g id="node5" class="node">
<title>incident_statement</title>
<g id="a_node5"><a xlink:href="../../tables/incident_statement.html" xlink:title="incident_statement" target="_top">
<polygon fill="#ffffff" stroke="transparent" points="34,-359.7 34,-442.7 203,-442.7 203,-359.7 34,-359.7"/>
<polygon fill="#f5f5f5" stroke="transparent" points="34.5,-419.2 34.5,-442.2 203.5,-442.2 203.5,-419.2 34.5,-419.2"/>
<polygon fill="none" stroke="#000000" points="34.5,-419.2 34.5,-442.2 203.5,-442.2 203.5,-419.2 34.5,-419.2"/>
<text text-anchor="start" x="39.5" y="-427.8" font-family="Helvetica,sans-Serif" font-weight="bold" font-size="11.00" fill="#000000">incident_statement</text>
<text text-anchor="start" x="169.0219" y="-427.3" font-family="Helvetica,sans-Serif" font-size="11.00" fill="#000000">[table]</text>
<polygon fill="none" stroke="#000000" points="34.5,-397.2 34.5,-419.2 203.5,-419.2 203.5,-397.2 34.5,-397.2"/>
<image xlink:href="../../images/primaryKeys.png" width="11px" height="12px" preserveAspectRatio="xMinYMin meet" x="39.5" y="-414.2"/>
<text text-anchor="start" x="63.5" y="-404.3" font-family="Helvetica,sans-Serif" font-size="11.00" fill="#000000">id</text>
<polygon fill="none" stroke="#000000" points="34.5,-378.2 34.5,-397.2 203.5,-397.2 203.5,-378.2 34.5,-378.2"/>
<text text-anchor="start" x="37.5" y="-384.3" font-family="Helvetica,sans-Serif" font-size="11.00" fill="#000000">...</text>
<polygon fill="#ffffff" stroke="transparent" points="34.5,-359.2 34.5,-378.2 108.5,-378.2 108.5,-359.2 34.5,-359.2"/>
<polygon fill="none" stroke="#000000" points="34.5,-359.2 34.5,-378.2 108.5,-378.2 108.5,-359.2 34.5,-359.2"/>
<text text-anchor="start" x="37.5" y="-365.3" font-family="Helvetica,sans-Serif" font-size="11.00" fill="#000000"> &#160;</text>
<polygon fill="#ffffff" stroke="transparent" points="108.5,-359.2 108.5,-378.2 151.5,-378.2 151.5,-359.2 108.5,-359.2"/>
<polygon fill="none" stroke="#000000" points="108.5,-359.2 108.5,-378.2 151.5,-378.2 151.5,-359.2 108.5,-359.2"/>
<text text-anchor="start" x="142.3862" y="-365.3" font-family="Helvetica,sans-Serif" font-size="11.00" fill="#000000"> &#160;</text>
<polygon fill="#ffffff" stroke="transparent" points="151.5,-359.2 151.5,-378.2 203.5,-378.2 203.5,-359.2 151.5,-359.2"/>
<polygon fill="none" stroke="#000000" points="151.5,-359.2 151.5,-378.2 203.5,-378.2 203.5,-359.2 151.5,-359.2"/>
<text text-anchor="start" x="184.9053" y="-365.3" font-family="Helvetica,sans-Serif" font-size="11.00" fill="#000000">1 &gt;</text>
</a>
</g>
</g>
<!-- draft_adjudications&#45;&gt;incident_statement -->
<g id="edge4" class="edge">
<title>draft_adjudications:w&#45;&gt;incident_statement:e</title>
<path fill="none" stroke="#000000" d="M266.1773,-442.1613C241.5457,-434.5458 235.8177,-408.2 203.5,-408.2"/>
<polygon fill="#000000" stroke="#000000" points="272.5798,-443.0726 279.9927,-447.7641 276.5399,-443.6363 280.5,-444.2 280.5,-444.2 280.5,-444.2 276.5399,-443.6363 281.0073,-440.6359 272.5798,-443.0726 272.5798,-443.0726"/>
<ellipse fill="none" stroke="#000000" cx="269.4118" cy="-442.6217" rx="3.2" ry="3.2"/>
</g>
<!-- evidence -->
<g id="node6" class="node">
<title>evidence</title>
<g id="a_node6"><a xlink:href="../../tables/evidence.html" xlink:title="evidence" target="_top">
<polygon fill="#ffffff" stroke="transparent" points="642.5,-524.7 642.5,-629.7 824.5,-629.7 824.5,-524.7 642.5,-524.7"/>
<polygon fill="#f5f5f5" stroke="transparent" points="642.5,-606.2 642.5,-629.2 824.5,-629.2 824.5,-606.2 642.5,-606.2"/>
<polygon fill="none" stroke="#000000" points="642.5,-606.2 642.5,-629.2 824.5,-629.2 824.5,-606.2 642.5,-606.2"/>
<text text-anchor="start" x="647.5" y="-614.8" font-family="Helvetica,sans-Serif" font-weight="bold" font-size="11.00" fill="#000000">evidence</text>
<text text-anchor="start" x="789.5437" y="-614.3" font-family="Helvetica,sans-Serif" font-size="11.00" fill="#000000">[table]</text>
<polygon fill="none" stroke="#000000" points="642.5,-584.2 642.5,-606.2 824.5,-606.2 824.5,-584.2 642.5,-584.2"/>
<image xlink:href="../../images/primaryKeys.png" width="11px" height="12px" preserveAspectRatio="xMinYMin meet" x="647.5" y="-601.2"/>
<text text-anchor="start" x="662.5" y="-591.3" font-family="Helvetica,sans-Serif" font-size="11.00" fill="#000000">id</text>
<polygon fill="#ffffff" stroke="transparent" points="642.5,-562.2 642.5,-584.2 824.5,-584.2 824.5,-562.2 642.5,-562.2"/>
<polygon fill="none" stroke="#000000" points="642.5,-562.2 642.5,-584.2 824.5,-584.2 824.5,-562.2 642.5,-562.2"/>
<image xlink:href="../../images/foreignKeys.png" width="11px" height="12px" preserveAspectRatio="xMinYMin meet" x="647.5" y="-579.2"/>
<text text-anchor="start" x="662.5" y="-569.3" font-family="Helvetica,sans-Serif" font-size="11.00" fill="#000000">draft_adjudication_fk_id</text>
<polygon fill="none" stroke="#000000" points="642.5,-543.2 642.5,-562.2 824.5,-562.2 824.5,-543.2 642.5,-543.2"/>
<text text-anchor="start" x="645.5" y="-549.3" font-family="Helvetica,sans-Serif" font-size="11.00" fill="#000000">...</text>
<polygon fill="#ffffff" stroke="transparent" points="642.5,-524.2 642.5,-543.2 731.5,-543.2 731.5,-524.2 642.5,-524.2"/>
<polygon fill="none" stroke="#000000" points="642.5,-524.2 642.5,-543.2 731.5,-543.2 731.5,-524.2 642.5,-524.2"/>
<text text-anchor="start" x="645.5" y="-530.3" font-family="Helvetica,sans-Serif" font-size="11.00" fill="#000000">&lt; 1</text>
<polygon fill="#ffffff" stroke="transparent" points="731.5,-524.2 731.5,-543.2 777.5,-543.2 777.5,-524.2 731.5,-524.2"/>
<polygon fill="none" stroke="#000000" points="731.5,-524.2 731.5,-543.2 777.5,-543.2 777.5,-524.2 731.5,-524.2"/>
<text text-anchor="start" x="768.3862" y="-530.3" font-family="Helvetica,sans-Serif" font-size="11.00" fill="#000000"> &#160;</text>
<polygon fill="#ffffff" stroke="transparent" points="777.5,-524.2 777.5,-543.2 824.5,-543.2 824.5,-524.2 777.5,-524.2"/>
<polygon fill="none" stroke="#000000" points="777.5,-524.2 777.5,-543.2 824.5,-543.2 824.5,-524.2 777.5,-524.2"/>
<text text-anchor="start" x="815.3862" y="-530.3" font-family="Helvetica,sans-Serif" font-size="11.00" fill="#000000"> &#160;</text>
</a>
</g>
</g>
<!-- evidence&#45;&gt;draft_adjudications -->
<g id="edge5" class="edge">
<title>evidence:w&#45;&gt;draft_adjudications:e</title>
<path fill="none" stroke="#000000" d="M628.4901,-569.6323C606.4182,-556.3051 613.3748,-510.2 579.5,-510.2"/>
<polygon fill="#000000" stroke="#000000" points="634.7474,-571.2257 641.6116,-576.6887 638.6237,-572.2129 642.5,-573.2 642.5,-573.2 642.5,-573.2 638.6237,-572.2129 643.3884,-569.7113 634.7474,-571.2257 634.7474,-571.2257"/>
<ellipse fill="none" stroke="#000000" cx="631.6464" cy="-570.436" rx="3.2" ry="3.2"/>
</g>
<!-- offence -->
<g id="node7" class="node">
<title>offence</title>
<g id="a_node7"><a xlink:href="../../tables/offence.html" xlink:title="offence" target="_top">
<polygon fill="#ffffff" stroke="transparent" points="630,-376.7 630,-503.7 837,-503.7 837,-376.7 630,-376.7"/>
<polygon fill="#f5f5f5" stroke="transparent" points="630.5,-480.2 630.5,-503.2 837.5,-503.2 837.5,-480.2 630.5,-480.2"/>
<polygon fill="none" stroke="#000000" points="630.5,-480.2 630.5,-503.2 837.5,-503.2 837.5,-480.2 630.5,-480.2"/>
<text text-anchor="start" x="635.5" y="-488.8" font-family="Helvetica,sans-Serif" font-weight="bold" font-size="11.00" fill="#000000">offence</text>
<text text-anchor="start" x="802.5437" y="-488.3" font-family="Helvetica,sans-Serif" font-size="11.00" fill="#000000">[table]</text>
<polygon fill="none" stroke="#000000" points="630.5,-458.2 630.5,-480.2 837.5,-480.2 837.5,-458.2 630.5,-458.2"/>
<image xlink:href="../../images/primaryKeys.png" width="11px" height="12px" preserveAspectRatio="xMinYMin meet" x="635.5" y="-475.2"/>
<text text-anchor="start" x="650.5" y="-465.3" font-family="Helvetica,sans-Serif" font-size="11.00" fill="#000000">id</text>
<polygon fill="#ffffff" stroke="transparent" points="630.5,-436.2 630.5,-458.2 837.5,-458.2 837.5,-436.2 630.5,-436.2"/>
<polygon fill="none" stroke="#000000" points="630.5,-436.2 630.5,-458.2 837.5,-458.2 837.5,-436.2 630.5,-436.2"/>
<image xlink:href="../../images/foreignKeys.png" width="11px" height="12px" preserveAspectRatio="xMinYMin meet" x="635.5" y="-453.2"/>
<text text-anchor="start" x="650.5" y="-443.3" font-family="Helvetica,sans-Serif" font-size="11.00" fill="#000000">draft_adjudication_fk_id</text>
<polygon fill="#ffffff" stroke="transparent" points="630.5,-414.2 630.5,-436.2 837.5,-436.2 837.5,-414.2 630.5,-414.2"/>
<polygon fill="none" stroke="#000000" points="630.5,-414.2 630.5,-436.2 837.5,-436.2 837.5,-414.2 630.5,-414.2"/>
<text text-anchor="start" x="650.5" y="-421.3" font-family="Helvetica,sans-Serif" font-size="11.00" fill="#000000">victim_prisoners_number</text>
<polygon fill="none" stroke="#000000" points="630.5,-395.2 630.5,-414.2 837.5,-414.2 837.5,-395.2 630.5,-395.2"/>
<text text-anchor="start" x="633.5" y="-401.3" font-family="Helvetica,sans-Serif" font-size="11.00" fill="#000000">...</text>
<polygon fill="#ffffff" stroke="transparent" points="630.5,-376.2 630.5,-395.2 727.5,-395.2 727.5,-376.2 630.5,-376.2"/>
<polygon fill="none" stroke="#000000" points="630.5,-376.2 630.5,-395.2 727.5,-395.2 727.5,-376.2 630.5,-376.2"/>
<text text-anchor="start" x="633.5" y="-382.3" font-family="Helvetica,sans-Serif" font-size="11.00" fill="#000000">&lt; 1</text>
<polygon fill="#ffffff" stroke="transparent" points="727.5,-376.2 727.5,-395.2 777.5,-395.2 777.5,-376.2 727.5,-376.2"/>
<polygon fill="none" stroke="#000000" points="727.5,-376.2 727.5,-395.2 777.5,-395.2 777.5,-376.2 727.5,-376.2"/>
<text text-anchor="start" x="768.3862" y="-382.3" font-family="Helvetica,sans-Serif" font-size="11.00" fill="#000000"> &#160;</text>
<polygon fill="#ffffff" stroke="transparent" points="777.5,-376.2 777.5,-395.2 837.5,-395.2 837.5,-376.2 777.5,-376.2"/>
<polygon fill="none" stroke="#000000" points="777.5,-376.2 777.5,-395.2 837.5,-395.2 837.5,-376.2 777.5,-376.2"/>
<text text-anchor="start" x="818.9053" y="-382.3" font-family="Helvetica,sans-Serif" font-size="11.00" fill="#000000">1 &gt;</text>
</a>
</g>
</g>
<!-- offence&#45;&gt;draft_adjudications -->
<g id="edge6" class="edge">
<title>offence:w&#45;&gt;draft_adjudications:e</title>
<path fill="none" stroke="#000000" d="M616.4033,-452.1435C600.025,-466.9952 609.3329,-510.2 579.5,-510.2"/>
<polygon fill="#000000" stroke="#000000" points="622.9507,-449.8474 631.6913,-450.5972 626.7254,-448.5237 630.5,-447.2 630.5,-447.2 630.5,-447.2 626.7254,-448.5237 629.3087,-443.8028 622.9507,-449.8474 622.9507,-449.8474"/>
<ellipse fill="none" stroke="#000000" cx="619.931" cy="-450.9064" rx="3.2" ry="3.2"/>
</g>
<!-- witness -->
<g id="node8" class="node">
<title>witness</title>
<g id="a_node8"><a xlink:href="../../tables/witness.html" xlink:title="witness" target="_top">
<polygon fill="#ffffff" stroke="transparent" points="642.5,-250.7 642.5,-355.7 824.5,-355.7 824.5,-250.7 642.5,-250.7"/>
<polygon fill="#f5f5f5" stroke="transparent" points="642.5,-332.2 642.5,-355.2 824.5,-355.2 824.5,-332.2 642.5,-332.2"/>
<polygon fill="none" stroke="#000000" points="642.5,-332.2 642.5,-355.2 824.5,-355.2 824.5,-332.2 642.5,-332.2"/>
<text text-anchor="start" x="647.5" y="-340.8" font-family="Helvetica,sans-Serif" font-weight="bold" font-size="11.00" fill="#000000">witness</text>
<text text-anchor="start" x="789.5437" y="-340.3" font-family="Helvetica,sans-Serif" font-size="11.00" fill="#000000">[table]</text>
<polygon fill="none" stroke="#000000" points="642.5,-310.2 642.5,-332.2 824.5,-332.2 824.5,-310.2 642.5,-310.2"/>
<image xlink:href="../../images/primaryKeys.png" width="11px" height="12px" preserveAspectRatio="xMinYMin meet" x="647.5" y="-327.2"/>
<text text-anchor="start" x="662.5" y="-317.3" font-family="Helvetica,sans-Serif" font-size="11.00" fill="#000000">id</text>
<polygon fill="#ffffff" stroke="transparent" points="642.5,-288.2 642.5,-310.2 824.5,-310.2 824.5,-288.2 642.5,-288.2"/>
<polygon fill="none" stroke="#000000" points="642.5,-288.2 642.5,-310.2 824.5,-310.2 824.5,-288.2 642.5,-288.2"/>
<image xlink:href="../../images/foreignKeys.png" width="11px" height="12px" preserveAspectRatio="xMinYMin meet" x="647.5" y="-305.2"/>
<text text-anchor="start" x="662.5" y="-295.3" font-family="Helvetica,sans-Serif" font-size="11.00" fill="#000000">draft_adjudication_fk_id</text>
<polygon fill="none" stroke="#000000" points="642.5,-269.2 642.5,-288.2 824.5,-288.2 824.5,-269.2 642.5,-269.2"/>
<text text-anchor="start" x="645.5" y="-275.3" font-family="Helvetica,sans-Serif" font-size="11.00" fill="#000000">...</text>
<polygon fill="#ffffff" stroke="transparent" points="642.5,-250.2 642.5,-269.2 731.5,-269.2 731.5,-250.2 642.5,-250.2"/>
<polygon fill="none" stroke="#000000" points="642.5,-250.2 642.5,-269.2 731.5,-269.2 731.5,-250.2 642.5,-250.2"/>
<text text-anchor="start" x="645.5" y="-256.3" font-family="Helvetica,sans-Serif" font-size="11.00" fill="#000000">&lt; 1</text>
<polygon fill="#ffffff" stroke="transparent" points="731.5,-250.2 731.5,-269.2 777.5,-269.2 777.5,-250.2 731.5,-250.2"/>
<polygon fill="none" stroke="#000000" points="731.5,-250.2 731.5,-269.2 777.5,-269.2 777.5,-250.2 731.5,-250.2"/>
<text text-anchor="start" x="768.3862" y="-256.3" font-family="Helvetica,sans-Serif" font-size="11.00" fill="#000000"> &#160;</text>
<polygon fill="#ffffff" stroke="transparent" points="777.5,-250.2 777.5,-269.2 824.5,-269.2 824.5,-250.2 777.5,-250.2"/>
<polygon fill="none" stroke="#000000" points="777.5,-250.2 777.5,-269.2 824.5,-269.2 824.5,-250.2 777.5,-250.2"/>
<text text-anchor="start" x="815.3862" y="-256.3" font-family="Helvetica,sans-Serif" font-size="11.00" fill="#000000"> &#160;</text>
</a>
</g>
</g>
<!-- witness&#45;&gt;draft_adjudications -->
<g id="edge7" class="edge">
<title>witness:w&#45;&gt;draft_adjudications:e</title>
<path fill="none" stroke="#000000" d="M628.0056,-301.1541C558.9282,-322.4254 671.8253,-510.2 579.5,-510.2"/>
<polygon fill="#000000" stroke="#000000" points="634.5717,-300.2689 642.981,-302.7677 638.5359,-299.7345 642.5,-299.2 642.5,-299.2 642.5,-299.2 638.5359,-299.7345 642.019,-295.6323 634.5717,-300.2689 634.5717,-300.2689"/>
<ellipse fill="none" stroke="#000000" cx="631.4004" cy="-300.6965" rx="3.2" ry="3.2"/>
</g>
</g>
</svg>
