<?xml version="1.0" encoding="UTF-8" standalone="no"?>
<!DOCTYPE svg PUBLIC "-//W3C//DTD SVG 1.1//EN"
 "http://www.w3.org/Graphics/SVG/1.1/DTD/svg11.dtd">
<!-- Generated by graphviz version 2.40.1 (20161225.0304)
 -->
<!-- Title: oneDegreeRelationshipsDiagram Pages: 1 -->
<svg width="600pt" height="250pt"
 viewBox="0.00 0.00 600.00 250.20" xmlns="http://www.w3.org/2000/svg" xmlns:xlink="http://www.w3.org/1999/xlink">
<g id="graph0" class="graph" transform="scale(1 1) rotate(0) translate(4 246.2)">
<title>oneDegreeRelationshipsDiagram</title>
<polygon fill="#ffffff" stroke="transparent" points="-4,4 -4,-246.2 596,-246.2 596,4 -4,4"/>
<text text-anchor="middle" x="72.4936" y="-7.3" font-family="Helvetica,sans-Serif" font-size="11.00" fill="#000000">Generated by SchemaSpy</text>
<!-- draft_protected_characteristics -->
<g id="node1" class="node">
<title>draft_protected_characteristics</title>
<g id="a_node1"><a xlink:href="../../tables/draft_protected_characteristics.html" xlink:title="draft_protected_characteristics" target="_top">
<polygon fill="#ffffff" stroke="transparent" points="264,-38.2 264,-238.2 584,-238.2 584,-38.2 264,-38.2"/>
<polygon fill="#f5f5f5" stroke="transparent" points="266,-213.2 266,-236.2 582,-236.2 582,-213.2 266,-213.2"/>
<polygon fill="none" stroke="#000000" points="266,-213.2 266,-236.2 582,-236.2 582,-213.2 266,-213.2"/>
<text text-anchor="start" x="271" y="-221.8" font-family="Helvetica,sans-Serif" font-weight="bold" font-size="11.00" fill="#000000">draft_protected_characteristics</text>
<text text-anchor="start" x="547.0437" y="-221.3" font-family="Helvetica,sans-Serif" font-size="11.00" fill="#000000">[table]</text>
<polygon fill="none" stroke="#000000" points="266,-191.2 266,-213.2 498,-213.2 498,-191.2 266,-191.2"/>
<image xlink:href="../../images/primaryKeys.png" width="11px" height="12px" preserveAspectRatio="xMinYMin meet" x="271" y="-208.2"/>
<text text-anchor="start" x="286" y="-198.3" font-family="Helvetica,sans-Serif" font-size="11.00" fill="#000000">id</text>
<polygon fill="none" stroke="#000000" points="498,-191.2 498,-213.2 582,-213.2 582,-191.2 498,-191.2"/>
<text text-anchor="start" x="501" y="-198.9" font-family="Helvetica,sans-Serif" font-size="11.00" fill="#000000">serial[10]</text>
<polygon fill="#ffffff" stroke="transparent" points="266,-169.2 266,-191.2 498,-191.2 498,-169.2 266,-169.2"/>
<polygon fill="none" stroke="#000000" points="266,-169.2 266,-191.2 498,-191.2 498,-169.2 266,-169.2"/>
<image xlink:href="../../images/foreignKeys.png" width="11px" height="12px" preserveAspectRatio="xMinYMin meet" x="271" y="-186.2"/>
<text text-anchor="start" x="286" y="-176.3" font-family="Helvetica,sans-Serif" font-size="11.00" fill="#000000">offence_fk_id</text>
<polygon fill="none" stroke="#000000" points="498,-169.2 498,-191.2 582,-191.2 582,-169.2 498,-169.2"/>
<text text-anchor="start" x="501" y="-176.9" font-family="Helvetica,sans-Serif" font-size="11.00" fill="#000000">int8[19]</text>
<polygon fill="none" stroke="#000000" points="266,-147.2 266,-169.2 498,-169.2 498,-147.2 266,-147.2"/>
<text text-anchor="start" x="286" y="-154.3" font-family="Helvetica,sans-Serif" font-size="11.00" fill="#000000">characteristic</text>
<polygon fill="none" stroke="#000000" points="498,-147.2 498,-169.2 582,-169.2 582,-147.2 498,-147.2"/>
<text text-anchor="start" x="501" y="-154.9" font-family="Helvetica,sans-Serif" font-size="11.00" fill="#000000">varchar[20]</text>
<polygon fill="none" stroke="#000000" points="266,-125.2 266,-147.2 498,-147.2 498,-125.2 266,-125.2"/>
<text text-anchor="start" x="286" y="-132.3" font-family="Helvetica,sans-Serif" font-size="11.00" fill="#000000">create_user_id</text>
<polygon fill="none" stroke="#000000" points="498,-125.2 498,-147.2 582,-147.2 582,-125.2 498,-125.2"/>
<text text-anchor="start" x="501" y="-132.9" font-family="Helvetica,sans-Serif" font-size="11.00" fill="#000000">varchar[32]</text>
<polygon fill="none" stroke="#000000" points="266,-103.2 266,-125.2 498,-125.2 498,-103.2 266,-103.2"/>
<text text-anchor="start" x="286" y="-110.3" font-family="Helvetica,sans-Serif" font-size="11.00" fill="#000000">create_datetime</text>
<polygon fill="none" stroke="#000000" points="498,-103.2 498,-125.2 582,-125.2 582,-103.2 498,-103.2"/>
<text text-anchor="start" x="500.8807" y="-110.9" font-family="Helvetica,sans-Serif" font-size="11.00" fill="#000000">timestamp[29,6]</text>
<polygon fill="none" stroke="#000000" points="266,-81.2 266,-103.2 498,-103.2 498,-81.2 266,-81.2"/>
<text text-anchor="start" x="286" y="-88.3" font-family="Helvetica,sans-Serif" font-size="11.00" fill="#000000">modify_user_id</text>
<polygon fill="none" stroke="#000000" points="498,-81.2 498,-103.2 582,-103.2 582,-81.2 498,-81.2"/>
<text text-anchor="start" x="501" y="-88.9" font-family="Helvetica,sans-Serif" font-size="11.00" fill="#000000">varchar[32]</text>
<polygon fill="none" stroke="#000000" points="266,-59.2 266,-81.2 498,-81.2 498,-59.2 266,-59.2"/>
<text text-anchor="start" x="286" y="-66.3" font-family="Helvetica,sans-Serif" font-size="11.00" fill="#000000">modify_datetime</text>
<polygon fill="none" stroke="#000000" points="498,-59.2 498,-81.2 582,-81.2 582,-59.2 498,-59.2"/>
<text text-anchor="start" x="500.8807" y="-66.9" font-family="Helvetica,sans-Serif" font-size="11.00" fill="#000000">timestamp[29,6]</text>
<polygon fill="#ffffff" stroke="transparent" points="266,-40.2 266,-59.2 386,-59.2 386,-40.2 266,-40.2"/>
<polygon fill="none" stroke="#000000" points="266,-40.2 266,-59.2 386,-59.2 386,-40.2 266,-40.2"/>
<text text-anchor="start" x="269" y="-46.3" font-family="Helvetica,sans-Serif" font-size="11.00" fill="#000000">&lt; 1</text>
<polygon fill="#ffffff" stroke="transparent" points="386,-40.2 386,-59.2 498,-59.2 498,-40.2 386,-40.2"/>
<polygon fill="none" stroke="#000000" points="386,-40.2 386,-59.2 498,-59.2 498,-40.2 386,-40.2"/>
<text text-anchor="start" x="488.8862" y="-46.3" font-family="Helvetica,sans-Serif" font-size="11.00" fill="#000000"> &#160;</text>
<polygon fill="#ffffff" stroke="transparent" points="498,-40.2 498,-59.2 582,-59.2 582,-40.2 498,-40.2"/>
<polygon fill="none" stroke="#000000" points="498,-40.2 498,-59.2 582,-59.2 582,-40.2 498,-40.2"/>
<text text-anchor="start" x="563.4053" y="-46.3" font-family="Helvetica,sans-Serif" font-size="11.00" fill="#000000">0 &gt;</text>
<polygon fill="none" stroke="#000000" stroke-width="2" points="265,-39.2 265,-237.2 583,-237.2 583,-39.2 265,-39.2"/>
</a>
</g>
</g>
<!-- offence -->
<g id="node2" class="node">
<title>offence</title>
<g id="a_node2"><a xlink:href="../../tables/offence.html" xlink:title="offence" target="_top">
<polygon fill="#ffffff" stroke="transparent" points="8,-87.7 8,-214.7 215,-214.7 215,-87.7 8,-87.7"/>
<polygon fill="#f5f5f5" stroke="transparent" points="8.5,-191.2 8.5,-214.2 215.5,-214.2 215.5,-191.2 8.5,-191.2"/>
<polygon fill="none" stroke="#000000" points="8.5,-191.2 8.5,-214.2 215.5,-214.2 215.5,-191.2 8.5,-191.2"/>
<text text-anchor="start" x="13.5" y="-199.8" font-family="Helvetica,sans-Serif" font-weight="bold" font-size="11.00" fill="#000000">offence</text>
<text text-anchor="start" x="180.5437" y="-199.3" font-family="Helvetica,sans-Serif" font-size="11.00" fill="#000000">[table]</text>
<polygon fill="none" stroke="#000000" points="8.5,-169.2 8.5,-191.2 215.5,-191.2 215.5,-169.2 8.5,-169.2"/>
<image xlink:href="../../images/primaryKeys.png" width="11px" height="12px" preserveAspectRatio="xMinYMin meet" x="13.5" y="-186.2"/>
<text text-anchor="start" x="28.5" y="-176.3" font-family="Helvetica,sans-Serif" font-size="11.00" fill="#000000">id</text>
<polygon fill="#ffffff" stroke="transparent" points="8.5,-147.2 8.5,-169.2 215.5,-169.2 215.5,-147.2 8.5,-147.2"/>
<polygon fill="none" stroke="#000000" points="8.5,-147.2 8.5,-169.2 215.5,-169.2 215.5,-147.2 8.5,-147.2"/>
<image xlink:href="../../images/foreignKeys.png" width="11px" height="12px" preserveAspectRatio="xMinYMin meet" x="13.5" y="-164.2"/>
<text text-anchor="start" x="28.5" y="-154.3" font-family="Helvetica,sans-Serif" font-size="11.00" fill="#000000">draft_adjudication_fk_id</text>
<polygon fill="#ffffff" stroke="transparent" points="8.5,-125.2 8.5,-147.2 215.5,-147.2 215.5,-125.2 8.5,-125.2"/>
<polygon fill="none" stroke="#000000" points="8.5,-125.2 8.5,-147.2 215.5,-147.2 215.5,-125.2 8.5,-125.2"/>
<text text-anchor="start" x="28.5" y="-132.3" font-family="Helvetica,sans-Serif" font-size="11.00" fill="#000000">victim_prisoners_number</text>
<polygon fill="none" stroke="#000000" points="8.5,-106.2 8.5,-125.2 215.5,-125.2 215.5,-106.2 8.5,-106.2"/>
<text text-anchor="start" x="11.5" y="-112.3" font-family="Helvetica,sans-Serif" font-size="11.00" fill="#000000">...</text>
<polygon fill="#ffffff" stroke="transparent" points="8.5,-87.2 8.5,-106.2 105.5,-106.2 105.5,-87.2 8.5,-87.2"/>
<polygon fill="none" stroke="#000000" points="8.5,-87.2 8.5,-106.2 105.5,-106.2 105.5,-87.2 8.5,-87.2"/>
<text text-anchor="start" x="11.5" y="-93.3" font-family="Helvetica,sans-Serif" font-size="11.00" fill="#000000">&lt; 1</text>
<polygon fill="#ffffff" stroke="transparent" points="105.5,-87.2 105.5,-106.2 155.5,-106.2 155.5,-87.2 105.5,-87.2"/>
<polygon fill="none" stroke="#000000" points="105.5,-87.2 105.5,-106.2 155.5,-106.2 155.5,-87.2 105.5,-87.2"/>
<text text-anchor="start" x="146.3862" y="-93.3" font-family="Helvetica,sans-Serif" font-size="11.00" fill="#000000"> &#160;</text>
<polygon fill="#ffffff" stroke="transparent" points="155.5,-87.2 155.5,-106.2 215.5,-106.2 215.5,-87.2 155.5,-87.2"/>
<polygon fill="none" stroke="#000000" points="155.5,-87.2 155.5,-106.2 215.5,-106.2 215.5,-87.2 155.5,-87.2"/>
<text text-anchor="start" x="196.9053" y="-93.3" font-family="Helvetica,sans-Serif" font-size="11.00" fill="#000000">1 &gt;</text>
</a>
</g>
</g>
<!-- draft_protected_characteristics&#45;&gt;offence -->
<g id="edge1" class="edge">
<title>draft_protected_characteristics:w&#45;&gt;offence:e</title>
<path fill="none" stroke="#000000" d="M251.4203,-180.2C239.5435,-180.2 232.158,-180.2 215.5,-180.2"/>
<polygon fill="#000000" stroke="#000000" points="258,-180.2001 266,-183.8 262,-180.2 266,-180.2 266,-180.2 266,-180.2 262,-180.2 266,-176.6 258,-180.2001 258,-180.2001"/>
<ellipse fill="none" stroke="#000000" cx="254.8" cy="-180.2001" rx="3.2" ry="3.2"/>
</g>
</g>
</svg>
