<?xml version="1.0" encoding="UTF-8" standalone="no"?>
<!DOCTYPE svg PUBLIC "-//W3C//DTD SVG 1.1//EN"
 "http://www.w3.org/Graphics/SVG/1.1/DTD/svg11.dtd">
<!-- Generated by graphviz version 2.40.1 (20161225.0304)
 -->
<!-- Title: twoDegreesRelationshipsDiagram Pages: 1 -->
<svg width="818pt" height="250pt"
 viewBox="0.00 0.00 818.00 250.20" xmlns="http://www.w3.org/2000/svg" xmlns:xlink="http://www.w3.org/1999/xlink">
<g id="graph0" class="graph" transform="scale(1 1) rotate(0) translate(4 246.2)">
<title>twoDegreesRelationshipsDiagram</title>
<polygon fill="#ffffff" stroke="transparent" points="-4,4 -4,-246.2 814,-246.2 814,4 -4,4"/>
<text text-anchor="middle" x="72.4936" y="-7.3" font-family="Helvetica,sans-Serif" font-size="11.00" fill="#000000">Generated by SchemaSpy</text>
<!-- draft_protected_characteristics -->
<g id="node1" class="node">
<title>draft_protected_characteristics</title>
<g id="a_node1"><a xlink:href="../../tables/draft_protected_characteristics.html" xlink:title="draft_protected_characteristics" target="_top">
<polygon fill="#ffffff" stroke="transparent" points="482,-38.2 482,-238.2 802,-238.2 802,-38.2 482,-38.2"/>
<polygon fill="#f5f5f5" stroke="transparent" points="484,-213.2 484,-236.2 800,-236.2 800,-213.2 484,-213.2"/>
<polygon fill="none" stroke="#000000" points="484,-213.2 484,-236.2 800,-236.2 800,-213.2 484,-213.2"/>
<text text-anchor="start" x="489" y="-221.8" font-family="Helvetica,sans-Serif" font-weight="bold" font-size="11.00" fill="#000000">draft_protected_characteristics</text>
<text text-anchor="start" x="765.0437" y="-221.3" font-family="Helvetica,sans-Serif" font-size="11.00" fill="#000000">[table]</text>
<polygon fill="none" stroke="#000000" points="484,-191.2 484,-213.2 716,-213.2 716,-191.2 484,-191.2"/>
<image xlink:href="../../images/primaryKeys.png" width="11px" height="12px" preserveAspectRatio="xMinYMin meet" x="489" y="-208.2"/>
<text text-anchor="start" x="504" y="-198.3" font-family="Helvetica,sans-Serif" font-size="11.00" fill="#000000">id</text>
<polygon fill="none" stroke="#000000" points="716,-191.2 716,-213.2 800,-213.2 800,-191.2 716,-191.2"/>
<text text-anchor="start" x="719" y="-198.9" font-family="Helvetica,sans-Serif" font-size="11.00" fill="#000000">serial[10]</text>
<polygon fill="#ffffff" stroke="transparent" points="484,-169.2 484,-191.2 716,-191.2 716,-169.2 484,-169.2"/>
<polygon fill="none" stroke="#000000" points="484,-169.2 484,-191.2 716,-191.2 716,-169.2 484,-169.2"/>
<image xlink:href="../../images/foreignKeys.png" width="11px" height="12px" preserveAspectRatio="xMinYMin meet" x="489" y="-186.2"/>
<text text-anchor="start" x="504" y="-176.3" font-family="Helvetica,sans-Serif" font-size="11.00" fill="#000000">offence_fk_id</text>
<polygon fill="none" stroke="#000000" points="716,-169.2 716,-191.2 800,-191.2 800,-169.2 716,-169.2"/>
<text text-anchor="start" x="719" y="-176.9" font-family="Helvetica,sans-Serif" font-size="11.00" fill="#000000">int8[19]</text>
<polygon fill="none" stroke="#000000" points="484,-147.2 484,-169.2 716,-169.2 716,-147.2 484,-147.2"/>
<text text-anchor="start" x="504" y="-154.3" font-family="Helvetica,sans-Serif" font-size="11.00" fill="#000000">characteristic</text>
<polygon fill="none" stroke="#000000" points="716,-147.2 716,-169.2 800,-169.2 800,-147.2 716,-147.2"/>
<text text-anchor="start" x="719" y="-154.9" font-family="Helvetica,sans-Serif" font-size="11.00" fill="#000000">varchar[20]</text>
<polygon fill="none" stroke="#000000" points="484,-125.2 484,-147.2 716,-147.2 716,-125.2 484,-125.2"/>
<text text-anchor="start" x="504" y="-132.3" font-family="Helvetica,sans-Serif" font-size="11.00" fill="#000000">create_user_id</text>
<polygon fill="none" stroke="#000000" points="716,-125.2 716,-147.2 800,-147.2 800,-125.2 716,-125.2"/>
<text text-anchor="start" x="719" y="-132.9" font-family="Helvetica,sans-Serif" font-size="11.00" fill="#000000">varchar[32]</text>
<polygon fill="none" stroke="#000000" points="484,-103.2 484,-125.2 716,-125.2 716,-103.2 484,-103.2"/>
<text text-anchor="start" x="504" y="-110.3" font-family="Helvetica,sans-Serif" font-size="11.00" fill="#000000">create_datetime</text>
<polygon fill="none" stroke="#000000" points="716,-103.2 716,-125.2 800,-125.2 800,-103.2 716,-103.2"/>
<text text-anchor="start" x="718.8807" y="-110.9" font-family="Helvetica,sans-Serif" font-size="11.00" fill="#000000">timestamp[29,6]</text>
<polygon fill="none" stroke="#000000" points="484,-81.2 484,-103.2 716,-103.2 716,-81.2 484,-81.2"/>
<text text-anchor="start" x="504" y="-88.3" font-family="Helvetica,sans-Serif" font-size="11.00" fill="#000000">modify_user_id</text>
<polygon fill="none" stroke="#000000" points="716,-81.2 716,-103.2 800,-103.2 800,-81.2 716,-81.2"/>
<text text-anchor="start" x="719" y="-88.9" font-family="Helvetica,sans-Serif" font-size="11.00" fill="#000000">varchar[32]</text>
<polygon fill="none" stroke="#000000" points="484,-59.2 484,-81.2 716,-81.2 716,-59.2 484,-59.2"/>
<text text-anchor="start" x="504" y="-66.3" font-family="Helvetica,sans-Serif" font-size="11.00" fill="#000000">modify_datetime</text>
<polygon fill="none" stroke="#000000" points="716,-59.2 716,-81.2 800,-81.2 800,-59.2 716,-59.2"/>
<text text-anchor="start" x="718.8807" y="-66.9" font-family="Helvetica,sans-Serif" font-size="11.00" fill="#000000">timestamp[29,6]</text>
<polygon fill="#ffffff" stroke="transparent" points="484,-40.2 484,-59.2 604,-59.2 604,-40.2 484,-40.2"/>
<polygon fill="none" stroke="#000000" points="484,-40.2 484,-59.2 604,-59.2 604,-40.2 484,-40.2"/>
<text text-anchor="start" x="487" y="-46.3" font-family="Helvetica,sans-Serif" font-size="11.00" fill="#000000">&lt; 1</text>
<polygon fill="#ffffff" stroke="transparent" points="604,-40.2 604,-59.2 716,-59.2 716,-40.2 604,-40.2"/>
<polygon fill="none" stroke="#000000" points="604,-40.2 604,-59.2 716,-59.2 716,-40.2 604,-40.2"/>
<text text-anchor="start" x="706.8862" y="-46.3" font-family="Helvetica,sans-Serif" font-size="11.00" fill="#000000"> &#160;</text>
<polygon fill="#ffffff" stroke="transparent" points="716,-40.2 716,-59.2 800,-59.2 800,-40.2 716,-40.2"/>
<polygon fill="none" stroke="#000000" points="716,-40.2 716,-59.2 800,-59.2 800,-40.2 716,-40.2"/>
<text text-anchor="start" x="781.4053" y="-46.3" font-family="Helvetica,sans-Serif" font-size="11.00" fill="#000000">0 &gt;</text>
<polygon fill="none" stroke="#000000" stroke-width="2" points="483,-39.2 483,-237.2 801,-237.2 801,-39.2 483,-39.2"/>
</a>
</g>
</g>
<!-- offence -->
<g id="node2" class="node">
<title>offence</title>
<g id="a_node2"><a xlink:href="../../tables/offence.html" xlink:title="offence" target="_top">
<polygon fill="#ffffff" stroke="transparent" points="226,-87.7 226,-214.7 433,-214.7 433,-87.7 226,-87.7"/>
<polygon fill="#f5f5f5" stroke="transparent" points="226.5,-191.2 226.5,-214.2 433.5,-214.2 433.5,-191.2 226.5,-191.2"/>
<polygon fill="none" stroke="#000000" points="226.5,-191.2 226.5,-214.2 433.5,-214.2 433.5,-191.2 226.5,-191.2"/>
<text text-anchor="start" x="231.5" y="-199.8" font-family="Helvetica,sans-Serif" font-weight="bold" font-size="11.00" fill="#000000">offence</text>
<text text-anchor="start" x="398.5437" y="-199.3" font-family="Helvetica,sans-Serif" font-size="11.00" fill="#000000">[table]</text>
<polygon fill="none" stroke="#000000" points="226.5,-169.2 226.5,-191.2 433.5,-191.2 433.5,-169.2 226.5,-169.2"/>
<image xlink:href="../../images/primaryKeys.png" width="11px" height="12px" preserveAspectRatio="xMinYMin meet" x="231.5" y="-186.2"/>
<text text-anchor="start" x="246.5" y="-176.3" font-family="Helvetica,sans-Serif" font-size="11.00" fill="#000000">id</text>
<polygon fill="#ffffff" stroke="transparent" points="226.5,-147.2 226.5,-169.2 433.5,-169.2 433.5,-147.2 226.5,-147.2"/>
<polygon fill="none" stroke="#000000" points="226.5,-147.2 226.5,-169.2 433.5,-169.2 433.5,-147.2 226.5,-147.2"/>
<image xlink:href="../../images/foreignKeys.png" width="11px" height="12px" preserveAspectRatio="xMinYMin meet" x="231.5" y="-164.2"/>
<text text-anchor="start" x="246.5" y="-154.3" font-family="Helvetica,sans-Serif" font-size="11.00" fill="#000000">draft_adjudication_fk_id</text>
<polygon fill="#ffffff" stroke="transparent" points="226.5,-125.2 226.5,-147.2 433.5,-147.2 433.5,-125.2 226.5,-125.2"/>
<polygon fill="none" stroke="#000000" points="226.5,-125.2 226.5,-147.2 433.5,-147.2 433.5,-125.2 226.5,-125.2"/>
<text text-anchor="start" x="246.5" y="-132.3" font-family="Helvetica,sans-Serif" font-size="11.00" fill="#000000">victim_prisoners_number</text>
<polygon fill="none" stroke="#000000" points="226.5,-106.2 226.5,-125.2 433.5,-125.2 433.5,-106.2 226.5,-106.2"/>
<text text-anchor="start" x="229.5" y="-112.3" font-family="Helvetica,sans-Serif" font-size="11.00" fill="#000000">...</text>
<polygon fill="#ffffff" stroke="transparent" points="226.5,-87.2 226.5,-106.2 323.5,-106.2 323.5,-87.2 226.5,-87.2"/>
<polygon fill="none" stroke="#000000" points="226.5,-87.2 226.5,-106.2 323.5,-106.2 323.5,-87.2 226.5,-87.2"/>
<text text-anchor="start" x="229.5" y="-93.3" font-family="Helvetica,sans-Serif" font-size="11.00" fill="#000000">&lt; 1</text>
<polygon fill="#ffffff" stroke="transparent" points="323.5,-87.2 323.5,-106.2 373.5,-106.2 373.5,-87.2 323.5,-87.2"/>
<polygon fill="none" stroke="#000000" points="323.5,-87.2 323.5,-106.2 373.5,-106.2 373.5,-87.2 323.5,-87.2"/>
<text text-anchor="start" x="364.3862" y="-93.3" font-family="Helvetica,sans-Serif" font-size="11.00" fill="#000000"> &#160;</text>
<polygon fill="#ffffff" stroke="transparent" points="373.5,-87.2 373.5,-106.2 433.5,-106.2 433.5,-87.2 373.5,-87.2"/>
<polygon fill="none" stroke="#000000" points="373.5,-87.2 373.5,-106.2 433.5,-106.2 433.5,-87.2 373.5,-87.2"/>
<text text-anchor="start" x="414.9053" y="-93.3" font-family="Helvetica,sans-Serif" font-size="11.00" fill="#000000">1 &gt;</text>
</a>
</g>
</g>
<!-- draft_protected_characteristics&#45;&gt;offence -->
<g id="edge1" class="edge">
<title>draft_protected_characteristics:w&#45;&gt;offence:e</title>
<path fill="none" stroke="#000000" d="M469.4203,-180.2C457.5435,-180.2 450.158,-180.2 433.5,-180.2"/>
<polygon fill="#000000" stroke="#000000" points="476,-180.2001 484,-183.8 480,-180.2 484,-180.2 484,-180.2 484,-180.2 480,-180.2 484,-176.6 476,-180.2001 476,-180.2001"/>
<ellipse fill="none" stroke="#000000" cx="472.8" cy="-180.2001" rx="3.2" ry="3.2"/>
</g>
<!-- draft_adjudications -->
<g id="node3" class="node">
<title>draft_adjudications</title>
<g id="a_node3"><a xlink:href="../../tables/draft_adjudications.html" xlink:title="draft_adjudications" target="_top">
<polygon fill="#ffffff" stroke="transparent" points="8,-130.7 8,-191.7 177,-191.7 177,-130.7 8,-130.7"/>
<polygon fill="#f5f5f5" stroke="transparent" points="8.5,-168.2 8.5,-191.2 177.5,-191.2 177.5,-168.2 8.5,-168.2"/>
<polygon fill="none" stroke="#000000" points="8.5,-168.2 8.5,-191.2 177.5,-191.2 177.5,-168.2 8.5,-168.2"/>
<text text-anchor="start" x="13.5" y="-176.8" font-family="Helvetica,sans-Serif" font-weight="bold" font-size="11.00" fill="#000000">draft_adjudications</text>
<text text-anchor="start" x="143.0219" y="-176.3" font-family="Helvetica,sans-Serif" font-size="11.00" fill="#000000">[table]</text>
<polygon fill="none" stroke="#000000" points="8.5,-149.2 8.5,-168.2 177.5,-168.2 177.5,-149.2 8.5,-149.2"/>
<text text-anchor="start" x="11.5" y="-155.3" font-family="Helvetica,sans-Serif" font-size="11.00" fill="#000000">...</text>
<polygon fill="#ffffff" stroke="transparent" points="8.5,-130.2 8.5,-149.2 86.5,-149.2 86.5,-130.2 8.5,-130.2"/>
<polygon fill="none" stroke="#000000" points="8.5,-130.2 8.5,-149.2 86.5,-149.2 86.5,-130.2 8.5,-130.2"/>
<text text-anchor="start" x="11.5" y="-136.3" font-family="Helvetica,sans-Serif" font-size="11.00" fill="#000000">&lt; 3</text>
<polygon fill="#ffffff" stroke="transparent" points="86.5,-130.2 86.5,-149.2 127.5,-149.2 127.5,-130.2 86.5,-130.2"/>
<polygon fill="none" stroke="#000000" points="86.5,-130.2 86.5,-149.2 127.5,-149.2 127.5,-130.2 86.5,-130.2"/>
<text text-anchor="start" x="118.3862" y="-136.3" font-family="Helvetica,sans-Serif" font-size="11.00" fill="#000000"> &#160;</text>
<polygon fill="#ffffff" stroke="transparent" points="127.5,-130.2 127.5,-149.2 177.5,-149.2 177.5,-130.2 127.5,-130.2"/>
<polygon fill="none" stroke="#000000" points="127.5,-130.2 127.5,-149.2 177.5,-149.2 177.5,-130.2 127.5,-130.2"/>
<text text-anchor="start" x="158.9053" y="-136.3" font-family="Helvetica,sans-Serif" font-size="11.00" fill="#000000">4 &gt;</text>
</a>
</g>
</g>
<!-- offence&#45;&gt;draft_adjudications -->
<g id="edge2" class="edge">
<title>offence:w&#45;&gt;draft_adjudications:e</title>
<path fill="none" stroke="#000000" d="M211.9909,-158.2C200.6774,-158.2 193.4931,-158.2 177.5,-158.2"/>
<polygon fill="#000000" stroke="#000000" points="218.5,-158.2001 226.5,-161.8 222.5,-158.2 226.5,-158.2 226.5,-158.2 226.5,-158.2 222.5,-158.2 226.5,-154.6 218.5,-158.2001 218.5,-158.2001"/>
<ellipse fill="none" stroke="#000000" cx="215.3" cy="-158.2001" rx="3.2" ry="3.2"/>
</g>
</g>
</svg>
