<?xml version="1.0" encoding="UTF-8" standalone="no"?>
<!DOCTYPE svg PUBLIC "-//W3C//DTD SVG 1.1//EN"
 "http://www.w3.org/Graphics/SVG/1.1/DTD/svg11.dtd">
<!-- Generated by graphviz version 2.40.1 (20161225.0304)
 -->
<!-- Title: twoDegreesRelationshipsDiagram Pages: 1 -->
<svg width="776pt" height="563pt"
 viewBox="0.00 0.00 776.00 563.20" xmlns="http://www.w3.org/2000/svg" xmlns:xlink="http://www.w3.org/1999/xlink">
<g id="graph0" class="graph" transform="scale(1 1) rotate(0) translate(4 559.2)">
<title>twoDegreesRelationshipsDiagram</title>
<polygon fill="#ffffff" stroke="transparent" points="-4,4 -4,-559.2 772,-559.2 772,4 -4,4"/>
<text text-anchor="middle" x="72.4936" y="-7.3" font-family="Helvetica,sans-Serif" font-size="11.00" fill="#000000">Generated by SchemaSpy</text>
<!-- damages -->
<g id="node1" class="node">
<title>damages</title>
<g id="a_node1"><a xlink:href="../../tables/damages.html" xlink:title="damages" target="_top">
<polygon fill="#ffffff" stroke="transparent" points="575,-490.2 575,-551.2 675,-551.2 675,-490.2 575,-490.2"/>
<polygon fill="#f5f5f5" stroke="transparent" points="575,-527.7 575,-550.7 675,-550.7 675,-527.7 575,-527.7"/>
<polygon fill="none" stroke="#000000" points="575,-527.7 575,-550.7 675,-550.7 675,-527.7 575,-527.7"/>
<text text-anchor="start" x="580" y="-536.3" font-family="Helvetica,sans-Serif" font-weight="bold" font-size="11.00" fill="#000000">damages</text>
<text text-anchor="start" x="640.5219" y="-535.8" font-family="Helvetica,sans-Serif" font-size="11.00" fill="#000000">[table]</text>
<polygon fill="none" stroke="#000000" points="575,-508.7 575,-527.7 675,-527.7 675,-508.7 575,-508.7"/>
<text text-anchor="start" x="578" y="-514.8" font-family="Helvetica,sans-Serif" font-size="11.00" fill="#000000">...</text>
<polygon fill="#ffffff" stroke="transparent" points="575,-489.7 575,-508.7 623,-508.7 623,-489.7 575,-489.7"/>
<polygon fill="none" stroke="#000000" points="575,-489.7 575,-508.7 623,-508.7 623,-489.7 575,-489.7"/>
<text text-anchor="start" x="578" y="-495.8" font-family="Helvetica,sans-Serif" font-size="11.00" fill="#000000">&lt; 1</text>
<polygon fill="#ffffff" stroke="transparent" points="623,-489.7 623,-508.7 649,-508.7 649,-489.7 623,-489.7"/>
<polygon fill="none" stroke="#000000" points="623,-489.7 623,-508.7 649,-508.7 649,-489.7 623,-489.7"/>
<text text-anchor="start" x="639.8862" y="-495.8" font-family="Helvetica,sans-Serif" font-size="11.00" fill="#000000"> &#160;</text>
<polygon fill="#ffffff" stroke="transparent" points="649,-489.7 649,-508.7 675,-508.7 675,-489.7 649,-489.7"/>
<polygon fill="none" stroke="#000000" points="649,-489.7 649,-508.7 675,-508.7 675,-489.7 649,-489.7"/>
<text text-anchor="start" x="665.8862" y="-495.8" font-family="Helvetica,sans-Serif" font-size="11.00" fill="#000000"> &#160;</text>
</a>
</g>
</g>
<!-- draft_adjudications -->
<g id="node2" class="node">
<title>draft_adjudications</title>
<g id="a_node2"><a xlink:href="../../tables/draft_adjudications.html" xlink:title="draft_adjudications" target="_top">
<polygon fill="#ffffff" stroke="transparent" points="226,-142.2 226,-313.2 441,-313.2 441,-142.2 226,-142.2"/>
<polygon fill="#f5f5f5" stroke="transparent" points="226.5,-289.7 226.5,-312.7 441.5,-312.7 441.5,-289.7 226.5,-289.7"/>
<polygon fill="none" stroke="#000000" points="226.5,-289.7 226.5,-312.7 441.5,-312.7 441.5,-289.7 226.5,-289.7"/>
<text text-anchor="start" x="231.5" y="-298.3" font-family="Helvetica,sans-Serif" font-weight="bold" font-size="11.00" fill="#000000">draft_adjudications</text>
<text text-anchor="start" x="406.5437" y="-297.8" font-family="Helvetica,sans-Serif" font-size="11.00" fill="#000000">[table]</text>
<polygon fill="none" stroke="#000000" points="226.5,-267.7 226.5,-289.7 441.5,-289.7 441.5,-267.7 226.5,-267.7"/>
<image xlink:href="../../images/primaryKeys.png" width="11px" height="12px" preserveAspectRatio="xMinYMin meet" x="231.5" y="-284.7"/>
<text text-anchor="start" x="246.5" y="-274.8" font-family="Helvetica,sans-Serif" font-size="11.00" fill="#000000">id</text>
<polygon fill="#ffffff" stroke="transparent" points="226.5,-245.7 226.5,-267.7 441.5,-267.7 441.5,-245.7 226.5,-245.7"/>
<polygon fill="none" stroke="#000000" points="226.5,-245.7 226.5,-267.7 441.5,-267.7 441.5,-245.7 226.5,-245.7"/>
<text text-anchor="start" x="246.5" y="-252.8" font-family="Helvetica,sans-Serif" font-size="11.00" fill="#000000">prisoner_number</text>
<polygon fill="#ffffff" stroke="transparent" points="226.5,-223.7 226.5,-245.7 441.5,-245.7 441.5,-223.7 226.5,-223.7"/>
<polygon fill="none" stroke="#000000" points="226.5,-223.7 226.5,-245.7 441.5,-245.7 441.5,-223.7 226.5,-223.7"/>
<image xlink:href="../../images/foreignKeys.png" width="11px" height="12px" preserveAspectRatio="xMinYMin meet" x="231.5" y="-240.7"/>
<text text-anchor="start" x="246.5" y="-230.8" font-family="Helvetica,sans-Serif" font-size="11.00" fill="#000000">incident_details_id</text>
<polygon fill="#ffffff" stroke="transparent" points="226.5,-201.7 226.5,-223.7 441.5,-223.7 441.5,-201.7 226.5,-201.7"/>
<polygon fill="none" stroke="#000000" points="226.5,-201.7 226.5,-223.7 441.5,-223.7 441.5,-201.7 226.5,-201.7"/>
<image xlink:href="../../images/foreignKeys.png" width="11px" height="12px" preserveAspectRatio="xMinYMin meet" x="231.5" y="-218.7"/>
<text text-anchor="start" x="246.5" y="-208.8" font-family="Helvetica,sans-Serif" font-size="11.00" fill="#000000">incident_statement_id</text>
<polygon fill="#ffffff" stroke="transparent" points="226.5,-179.7 226.5,-201.7 441.5,-201.7 441.5,-179.7 226.5,-179.7"/>
<polygon fill="none" stroke="#000000" points="226.5,-179.7 226.5,-201.7 441.5,-201.7 441.5,-179.7 226.5,-179.7"/>
<image xlink:href="../../images/foreignKeys.png" width="11px" height="12px" preserveAspectRatio="xMinYMin meet" x="231.5" y="-196.7"/>
<text text-anchor="start" x="246.5" y="-186.8" font-family="Helvetica,sans-Serif" font-size="11.00" fill="#000000">incident_role_id</text>
<polygon fill="none" stroke="#000000" points="226.5,-160.7 226.5,-179.7 441.5,-179.7 441.5,-160.7 226.5,-160.7"/>
<text text-anchor="start" x="229.5" y="-166.8" font-family="Helvetica,sans-Serif" font-size="11.00" fill="#000000">...</text>
<polygon fill="#ffffff" stroke="transparent" points="226.5,-141.7 226.5,-160.7 327.5,-160.7 327.5,-141.7 226.5,-141.7"/>
<polygon fill="none" stroke="#000000" points="226.5,-141.7 226.5,-160.7 327.5,-160.7 327.5,-141.7 226.5,-141.7"/>
<text text-anchor="start" x="229.5" y="-147.8" font-family="Helvetica,sans-Serif" font-size="11.00" fill="#000000">&lt; 3</text>
<polygon fill="#ffffff" stroke="transparent" points="327.5,-141.7 327.5,-160.7 379.5,-160.7 379.5,-141.7 327.5,-141.7"/>
<polygon fill="none" stroke="#000000" points="327.5,-141.7 327.5,-160.7 379.5,-160.7 379.5,-141.7 327.5,-141.7"/>
<text text-anchor="start" x="370.3862" y="-147.8" font-family="Helvetica,sans-Serif" font-size="11.00" fill="#000000"> &#160;</text>
<polygon fill="#ffffff" stroke="transparent" points="379.5,-141.7 379.5,-160.7 441.5,-160.7 441.5,-141.7 379.5,-141.7"/>
<polygon fill="none" stroke="#000000" points="379.5,-141.7 379.5,-160.7 441.5,-160.7 441.5,-141.7 379.5,-141.7"/>
<text text-anchor="start" x="422.9053" y="-147.8" font-family="Helvetica,sans-Serif" font-size="11.00" fill="#000000">4 &gt;</text>
</a>
</g>
</g>
<!-- damages&#45;&gt;draft_adjudications -->
<g id="edge1" class="edge">
<title>damages:w&#45;&gt;draft_adjudications:e</title>
<path fill="none" stroke="#000000" d="M560.2687,-517.5084C525.5683,-516.4358 507.1173,-510.0794 482,-479.7 423.9325,-409.4674 532.6287,-278.7 441.5,-278.7"/>
<polygon fill="#000000" stroke="#000000" points="567.0007,-517.5959 574.9531,-521.2997 571.0003,-517.6479 575,-517.7 575,-517.7 575,-517.7 571.0003,-517.6479 575.0469,-514.1003 567.0007,-517.5959 567.0007,-517.5959"/>
<ellipse fill="none" stroke="#000000" cx="563.8009" cy="-517.5542" rx="3.2" ry="3.2"/>
</g>
<!-- incident_details -->
<g id="node3" class="node">
<title>incident_details</title>
<g id="a_node3"><a xlink:href="../../tables/incident_details.html" xlink:title="incident_details" target="_top">
<polygon fill="#ffffff" stroke="transparent" points="20,-267.2 20,-328.2 165,-328.2 165,-267.2 20,-267.2"/>
<polygon fill="#f5f5f5" stroke="transparent" points="20.5,-304.7 20.5,-327.7 165.5,-327.7 165.5,-304.7 20.5,-304.7"/>
<polygon fill="none" stroke="#000000" points="20.5,-304.7 20.5,-327.7 165.5,-327.7 165.5,-304.7 20.5,-304.7"/>
<text text-anchor="start" x="25.5" y="-313.3" font-family="Helvetica,sans-Serif" font-weight="bold" font-size="11.00" fill="#000000">incident_details</text>
<text text-anchor="start" x="131.0219" y="-312.8" font-family="Helvetica,sans-Serif" font-size="11.00" fill="#000000">[table]</text>
<polygon fill="none" stroke="#000000" points="20.5,-285.7 20.5,-304.7 165.5,-304.7 165.5,-285.7 20.5,-285.7"/>
<text text-anchor="start" x="23.5" y="-291.8" font-family="Helvetica,sans-Serif" font-size="11.00" fill="#000000">...</text>
<polygon fill="#ffffff" stroke="transparent" points="20.5,-266.7 20.5,-285.7 82.5,-285.7 82.5,-266.7 20.5,-266.7"/>
<polygon fill="none" stroke="#000000" points="20.5,-266.7 20.5,-285.7 82.5,-285.7 82.5,-266.7 20.5,-266.7"/>
<text text-anchor="start" x="23.5" y="-272.8" font-family="Helvetica,sans-Serif" font-size="11.00" fill="#000000"> &#160;</text>
<polygon fill="#ffffff" stroke="transparent" points="82.5,-266.7 82.5,-285.7 119.5,-285.7 119.5,-266.7 82.5,-266.7"/>
<polygon fill="none" stroke="#000000" points="82.5,-266.7 82.5,-285.7 119.5,-285.7 119.5,-266.7 82.5,-266.7"/>
<text text-anchor="start" x="110.3862" y="-272.8" font-family="Helvetica,sans-Serif" font-size="11.00" fill="#000000"> &#160;</text>
<polygon fill="#ffffff" stroke="transparent" points="119.5,-266.7 119.5,-285.7 165.5,-285.7 165.5,-266.7 119.5,-266.7"/>
<polygon fill="none" stroke="#000000" points="119.5,-266.7 119.5,-285.7 165.5,-285.7 165.5,-266.7 119.5,-266.7"/>
<text text-anchor="start" x="146.9053" y="-272.8" font-family="Helvetica,sans-Serif" font-size="11.00" fill="#000000">1 &gt;</text>
</a>
</g>
</g>
<!-- draft_adjudications&#45;&gt;incident_details -->
<g id="edge2" class="edge">
<title>draft_adjudications:w&#45;&gt;incident_details:e</title>
<path fill="none" stroke="#000000" d="M212.4407,-238.4533C191.8274,-251.5887 197.7346,-294.7 165.5,-294.7"/>
<polygon fill="#000000" stroke="#000000" points="218.7707,-236.7635 227.4286,-238.1782 222.6353,-235.7317 226.5,-234.7 226.5,-234.7 226.5,-234.7 222.6353,-235.7317 225.5714,-231.2218 218.7707,-236.7635 218.7707,-236.7635"/>
<ellipse fill="none" stroke="#000000" cx="215.679" cy="-237.5888" rx="3.2" ry="3.2"/>
</g>
<!-- incident_role -->
<g id="node4" class="node">
<title>incident_role</title>
<g id="a_node4"><a xlink:href="../../tables/incident_role.html" xlink:title="incident_role" target="_top">
<polygon fill="#ffffff" stroke="transparent" points="29.5,-103.2 29.5,-164.2 155.5,-164.2 155.5,-103.2 29.5,-103.2"/>
<polygon fill="#f5f5f5" stroke="transparent" points="29.5,-140.7 29.5,-163.7 155.5,-163.7 155.5,-140.7 29.5,-140.7"/>
<polygon fill="none" stroke="#000000" points="29.5,-140.7 29.5,-163.7 155.5,-163.7 155.5,-140.7 29.5,-140.7"/>
<text text-anchor="start" x="34.5" y="-149.3" font-family="Helvetica,sans-Serif" font-weight="bold" font-size="11.00" fill="#000000">incident_role</text>
<text text-anchor="start" x="121.0219" y="-148.8" font-family="Helvetica,sans-Serif" font-size="11.00" fill="#000000">[table]</text>
<polygon fill="none" stroke="#000000" points="29.5,-121.7 29.5,-140.7 155.5,-140.7 155.5,-121.7 29.5,-121.7"/>
<text text-anchor="start" x="32.5" y="-127.8" font-family="Helvetica,sans-Serif" font-size="11.00" fill="#000000">...</text>
<polygon fill="#ffffff" stroke="transparent" points="29.5,-102.7 29.5,-121.7 81.5,-121.7 81.5,-102.7 29.5,-102.7"/>
<polygon fill="none" stroke="#000000" points="29.5,-102.7 29.5,-121.7 81.5,-121.7 81.5,-102.7 29.5,-102.7"/>
<text text-anchor="start" x="32.5" y="-108.8" font-family="Helvetica,sans-Serif" font-size="11.00" fill="#000000"> &#160;</text>
<polygon fill="#ffffff" stroke="transparent" points="81.5,-102.7 81.5,-121.7 113.5,-121.7 113.5,-102.7 81.5,-102.7"/>
<polygon fill="none" stroke="#000000" points="81.5,-102.7 81.5,-121.7 113.5,-121.7 113.5,-102.7 81.5,-102.7"/>
<text text-anchor="start" x="104.3862" y="-108.8" font-family="Helvetica,sans-Serif" font-size="11.00" fill="#000000"> &#160;</text>
<polygon fill="#ffffff" stroke="transparent" points="113.5,-102.7 113.5,-121.7 155.5,-121.7 155.5,-102.7 113.5,-102.7"/>
<polygon fill="none" stroke="#000000" points="113.5,-102.7 113.5,-121.7 155.5,-121.7 155.5,-102.7 113.5,-102.7"/>
<text text-anchor="start" x="136.9053" y="-108.8" font-family="Helvetica,sans-Serif" font-size="11.00" fill="#000000">1 &gt;</text>
</a>
</g>
</g>
<!-- draft_adjudications&#45;&gt;incident_role -->
<g id="edge3" class="edge">
<title>draft_adjudications:w&#45;&gt;incident_role:e</title>
<path fill="none" stroke="#000000" d="M212.2529,-187.6421C187.3758,-175.4153 191.1658,-130.7 155.5,-130.7"/>
<polygon fill="#000000" stroke="#000000" points="218.6781,-189.0211 225.7445,-194.2198 222.5891,-189.8606 226.5,-190.7 226.5,-190.7 226.5,-190.7 222.5891,-189.8606 227.2555,-187.1802 218.6781,-189.0211 218.6781,-189.0211"/>
<ellipse fill="none" stroke="#000000" cx="215.5494" cy="-188.3496" rx="3.2" ry="3.2"/>
</g>
<!-- incident_statement -->
<g id="node5" class="node">
<title>incident_statement</title>
<g id="a_node5"><a xlink:href="../../tables/incident_statement.html" xlink:title="incident_statement" target="_top">
<polygon fill="#ffffff" stroke="transparent" points="8,-185.2 8,-246.2 177,-246.2 177,-185.2 8,-185.2"/>
<polygon fill="#f5f5f5" stroke="transparent" points="8.5,-222.7 8.5,-245.7 177.5,-245.7 177.5,-222.7 8.5,-222.7"/>
<polygon fill="none" stroke="#000000" points="8.5,-222.7 8.5,-245.7 177.5,-245.7 177.5,-222.7 8.5,-222.7"/>
<text text-anchor="start" x="13.5" y="-231.3" font-family="Helvetica,sans-Serif" font-weight="bold" font-size="11.00" fill="#000000">incident_statement</text>
<text text-anchor="start" x="143.0219" y="-230.8" font-family="Helvetica,sans-Serif" font-size="11.00" fill="#000000">[table]</text>
<polygon fill="none" stroke="#000000" points="8.5,-203.7 8.5,-222.7 177.5,-222.7 177.5,-203.7 8.5,-203.7"/>
<text text-anchor="start" x="11.5" y="-209.8" font-family="Helvetica,sans-Serif" font-size="11.00" fill="#000000">...</text>
<polygon fill="#ffffff" stroke="transparent" points="8.5,-184.7 8.5,-203.7 82.5,-203.7 82.5,-184.7 8.5,-184.7"/>
<polygon fill="none" stroke="#000000" points="8.5,-184.7 8.5,-203.7 82.5,-203.7 82.5,-184.7 8.5,-184.7"/>
<text text-anchor="start" x="11.5" y="-190.8" font-family="Helvetica,sans-Serif" font-size="11.00" fill="#000000"> &#160;</text>
<polygon fill="#ffffff" stroke="transparent" points="82.5,-184.7 82.5,-203.7 125.5,-203.7 125.5,-184.7 82.5,-184.7"/>
<polygon fill="none" stroke="#000000" points="82.5,-184.7 82.5,-203.7 125.5,-203.7 125.5,-184.7 82.5,-184.7"/>
<text text-anchor="start" x="116.3862" y="-190.8" font-family="Helvetica,sans-Serif" font-size="11.00" fill="#000000"> &#160;</text>
<polygon fill="#ffffff" stroke="transparent" points="125.5,-184.7 125.5,-203.7 177.5,-203.7 177.5,-184.7 125.5,-184.7"/>
<polygon fill="none" stroke="#000000" points="125.5,-184.7 125.5,-203.7 177.5,-203.7 177.5,-184.7 125.5,-184.7"/>
<text text-anchor="start" x="158.9053" y="-190.8" font-family="Helvetica,sans-Serif" font-size="11.00" fill="#000000">1 &gt;</text>
</a>
</g>
</g>
<!-- draft_adjudications&#45;&gt;incident_statement -->
<g id="edge4" class="edge">
<title>draft_adjudications:w&#45;&gt;incident_statement:e</title>
<path fill="none" stroke="#000000" d="M211.9909,-212.7C200.6774,-212.7 193.4931,-212.7 177.5,-212.7"/>
<polygon fill="#000000" stroke="#000000" points="218.5,-212.7001 226.5,-216.3 222.5,-212.7 226.5,-212.7 226.5,-212.7 226.5,-212.7 222.5,-212.7 226.5,-209.1 218.5,-212.7001 218.5,-212.7001"/>
<ellipse fill="none" stroke="#000000" cx="215.3" cy="-212.7001" rx="3.2" ry="3.2"/>
</g>
<!-- evidence -->
<g id="node6" class="node">
<title>evidence</title>
<g id="a_node6"><a xlink:href="../../tables/evidence.html" xlink:title="evidence" target="_top">
<polygon fill="#ffffff" stroke="transparent" points="490,-202.7 490,-468.7 760,-468.7 760,-202.7 490,-202.7"/>
<polygon fill="#f5f5f5" stroke="transparent" points="492,-443.7 492,-466.7 758,-466.7 758,-443.7 492,-443.7"/>
<polygon fill="none" stroke="#000000" points="492,-443.7 492,-466.7 758,-466.7 758,-443.7 492,-443.7"/>
<text text-anchor="start" x="497" y="-452.3" font-family="Helvetica,sans-Serif" font-weight="bold" font-size="11.00" fill="#000000">evidence</text>
<text text-anchor="start" x="723.0437" y="-451.8" font-family="Helvetica,sans-Serif" font-size="11.00" fill="#000000">[table]</text>
<polygon fill="none" stroke="#000000" points="492,-421.7 492,-443.7 674,-443.7 674,-421.7 492,-421.7"/>
<image xlink:href="../../images/primaryKeys.png" width="11px" height="12px" preserveAspectRatio="xMinYMin meet" x="497" y="-438.7"/>
<text text-anchor="start" x="512" y="-428.8" font-family="Helvetica,sans-Serif" font-size="11.00" fill="#000000">id</text>
<polygon fill="none" stroke="#000000" points="674,-421.7 674,-443.7 758,-443.7 758,-421.7 674,-421.7"/>
<text text-anchor="start" x="677" y="-429.4" font-family="Helvetica,sans-Serif" font-size="11.00" fill="#000000">serial[10]</text>
<polygon fill="#ffffff" stroke="transparent" points="492,-399.7 492,-421.7 674,-421.7 674,-399.7 492,-399.7"/>
<polygon fill="none" stroke="#000000" points="492,-399.7 492,-421.7 674,-421.7 674,-399.7 492,-399.7"/>
<image xlink:href="../../images/foreignKeys.png" width="11px" height="12px" preserveAspectRatio="xMinYMin meet" x="497" y="-416.7"/>
<text text-anchor="start" x="512" y="-406.8" font-family="Helvetica,sans-Serif" font-size="11.00" fill="#000000">draft_adjudication_fk_id</text>
<polygon fill="none" stroke="#000000" points="674,-399.7 674,-421.7 758,-421.7 758,-399.7 674,-399.7"/>
<text text-anchor="start" x="677" y="-407.4" font-family="Helvetica,sans-Serif" font-size="11.00" fill="#000000">int8[19]</text>
<polygon fill="none" stroke="#000000" points="492,-377.7 492,-399.7 674,-399.7 674,-377.7 492,-377.7"/>
<text text-anchor="start" x="512" y="-384.8" font-family="Helvetica,sans-Serif" font-size="11.00" fill="#000000">code</text>
<polygon fill="none" stroke="#000000" points="674,-377.7 674,-399.7 758,-399.7 758,-377.7 674,-377.7"/>
<text text-anchor="start" x="677" y="-385.4" font-family="Helvetica,sans-Serif" font-size="11.00" fill="#000000">varchar[32]</text>
<polygon fill="none" stroke="#000000" points="492,-355.7 492,-377.7 674,-377.7 674,-355.7 492,-355.7"/>
<text text-anchor="start" x="512" y="-362.8" font-family="Helvetica,sans-Serif" font-size="11.00" fill="#000000">identifier</text>
<polygon fill="none" stroke="#000000" points="674,-355.7 674,-377.7 758,-377.7 758,-355.7 674,-355.7"/>
<text text-anchor="start" x="677" y="-363.4" font-family="Helvetica,sans-Serif" font-size="11.00" fill="#000000">varchar[32]</text>
<polygon fill="none" stroke="#000000" points="492,-333.7 492,-355.7 674,-355.7 674,-333.7 492,-333.7"/>
<text text-anchor="start" x="512" y="-340.8" font-family="Helvetica,sans-Serif" font-size="11.00" fill="#000000">details</text>
<polygon fill="none" stroke="#000000" points="674,-333.7 674,-355.7 758,-355.7 758,-333.7 674,-333.7"/>
<text text-anchor="start" x="677" y="-341.4" font-family="Helvetica,sans-Serif" font-size="11.00" fill="#000000">varchar[4000]</text>
<polygon fill="none" stroke="#000000" points="492,-311.7 492,-333.7 674,-333.7 674,-311.7 492,-311.7"/>
<text text-anchor="start" x="512" y="-318.8" font-family="Helvetica,sans-Serif" font-size="11.00" fill="#000000">reporter</text>
<polygon fill="none" stroke="#000000" points="674,-311.7 674,-333.7 758,-333.7 758,-311.7 674,-311.7"/>
<text text-anchor="start" x="677" y="-319.4" font-family="Helvetica,sans-Serif" font-size="11.00" fill="#000000">varchar[32]</text>
<polygon fill="none" stroke="#000000" points="492,-289.7 492,-311.7 674,-311.7 674,-289.7 492,-289.7"/>
<text text-anchor="start" x="512" y="-296.8" font-family="Helvetica,sans-Serif" font-size="11.00" fill="#000000">create_user_id</text>
<polygon fill="none" stroke="#000000" points="674,-289.7 674,-311.7 758,-311.7 758,-289.7 674,-289.7"/>
<text text-anchor="start" x="677" y="-297.4" font-family="Helvetica,sans-Serif" font-size="11.00" fill="#000000">varchar[32]</text>
<polygon fill="none" stroke="#000000" points="492,-267.7 492,-289.7 674,-289.7 674,-267.7 492,-267.7"/>
<text text-anchor="start" x="512" y="-274.8" font-family="Helvetica,sans-Serif" font-size="11.00" fill="#000000">create_datetime</text>
<polygon fill="none" stroke="#000000" points="674,-267.7 674,-289.7 758,-289.7 758,-267.7 674,-267.7"/>
<text text-anchor="start" x="676.8807" y="-275.4" font-family="Helvetica,sans-Serif" font-size="11.00" fill="#000000">timestamp[29,6]</text>
<polygon fill="none" stroke="#000000" points="492,-245.7 492,-267.7 674,-267.7 674,-245.7 492,-245.7"/>
<text text-anchor="start" x="512" y="-252.8" font-family="Helvetica,sans-Serif" font-size="11.00" fill="#000000">modify_user_id</text>
<polygon fill="none" stroke="#000000" points="674,-245.7 674,-267.7 758,-267.7 758,-245.7 674,-245.7"/>
<text text-anchor="start" x="677" y="-253.4" font-family="Helvetica,sans-Serif" font-size="11.00" fill="#000000">varchar[32]</text>
<polygon fill="none" stroke="#000000" points="492,-223.7 492,-245.7 674,-245.7 674,-223.7 492,-223.7"/>
<text text-anchor="start" x="512" y="-230.8" font-family="Helvetica,sans-Serif" font-size="11.00" fill="#000000">modify_datetime</text>
<polygon fill="none" stroke="#000000" points="674,-223.7 674,-245.7 758,-245.7 758,-223.7 674,-223.7"/>
<text text-anchor="start" x="676.8807" y="-231.4" font-family="Helvetica,sans-Serif" font-size="11.00" fill="#000000">timestamp[29,6]</text>
<polygon fill="#ffffff" stroke="transparent" points="492,-204.7 492,-223.7 587,-223.7 587,-204.7 492,-204.7"/>
<polygon fill="none" stroke="#000000" points="492,-204.7 492,-223.7 587,-223.7 587,-204.7 492,-204.7"/>
<text text-anchor="start" x="495" y="-210.8" font-family="Helvetica,sans-Serif" font-size="11.00" fill="#000000">&lt; 1</text>
<polygon fill="#ffffff" stroke="transparent" points="587,-204.7 587,-223.7 674,-223.7 674,-204.7 587,-204.7"/>
<polygon fill="none" stroke="#000000" points="587,-204.7 587,-223.7 674,-223.7 674,-204.7 587,-204.7"/>
<text text-anchor="start" x="664.8862" y="-210.8" font-family="Helvetica,sans-Serif" font-size="11.00" fill="#000000"> &#160;</text>
<polygon fill="#ffffff" stroke="transparent" points="674,-204.7 674,-223.7 758,-223.7 758,-204.7 674,-204.7"/>
<polygon fill="none" stroke="#000000" points="674,-204.7 674,-223.7 758,-223.7 758,-204.7 674,-204.7"/>
<text text-anchor="start" x="739.4053" y="-210.8" font-family="Helvetica,sans-Serif" font-size="11.00" fill="#000000">0 &gt;</text>
<polygon fill="none" stroke="#000000" stroke-width="2" points="491,-203.7 491,-467.7 759,-467.7 759,-203.7 491,-203.7"/>
</a>
</g>
</g>
<!-- evidence&#45;&gt;draft_adjudications -->
<g id="edge5" class="edge">
<title>evidence:w&#45;&gt;draft_adjudications:e</title>
<path fill="none" stroke="#000000" d="M477.7435,-407.4371C442.0605,-387.1102 498.4247,-278.7 441.5,-278.7"/>
<polygon fill="#000000" stroke="#000000" points="484.2016,-408.9151 491.1968,-414.2093 488.1008,-409.8076 492,-410.7 492,-410.7 492,-410.7 488.1008,-409.8076 492.8032,-407.1907 484.2016,-408.9151 484.2016,-408.9151"/>
<ellipse fill="none" stroke="#000000" cx="481.0823" cy="-408.2012" rx="3.2" ry="3.2"/>
</g>
<!-- offence -->
<g id="node7" class="node">
<title>offence</title>
<g id="a_node7"><a xlink:href="../../tables/offence.html" xlink:title="offence" target="_top">
<polygon fill="#ffffff" stroke="transparent" points="580.5,-120.2 580.5,-181.2 669.5,-181.2 669.5,-120.2 580.5,-120.2"/>
<polygon fill="#f5f5f5" stroke="transparent" points="581,-157.7 581,-180.7 670,-180.7 670,-157.7 581,-157.7"/>
<polygon fill="none" stroke="#000000" points="581,-157.7 581,-180.7 670,-180.7 670,-157.7 581,-157.7"/>
<text text-anchor="start" x="586" y="-166.3" font-family="Helvetica,sans-Serif" font-weight="bold" font-size="11.00" fill="#000000">offence</text>
<text text-anchor="start" x="635.5219" y="-165.8" font-family="Helvetica,sans-Serif" font-size="11.00" fill="#000000">[table]</text>
<polygon fill="none" stroke="#000000" points="581,-138.7 581,-157.7 670,-157.7 670,-138.7 581,-138.7"/>
<text text-anchor="start" x="584" y="-144.8" font-family="Helvetica,sans-Serif" font-size="11.00" fill="#000000">...</text>
<polygon fill="#ffffff" stroke="transparent" points="581,-119.7 581,-138.7 619,-138.7 619,-119.7 581,-119.7"/>
<polygon fill="none" stroke="#000000" points="581,-119.7 581,-138.7 619,-138.7 619,-119.7 581,-119.7"/>
<text text-anchor="start" x="584" y="-125.8" font-family="Helvetica,sans-Serif" font-size="11.00" fill="#000000">&lt; 1</text>
<polygon fill="#ffffff" stroke="transparent" points="619,-119.7 619,-138.7 640,-138.7 640,-119.7 619,-119.7"/>
<polygon fill="none" stroke="#000000" points="619,-119.7 619,-138.7 640,-138.7 640,-119.7 619,-119.7"/>
<text text-anchor="start" x="630.8862" y="-125.8" font-family="Helvetica,sans-Serif" font-size="11.00" fill="#000000"> &#160;</text>
<polygon fill="#ffffff" stroke="transparent" points="640,-119.7 640,-138.7 670,-138.7 670,-119.7 640,-119.7"/>
<polygon fill="none" stroke="#000000" points="640,-119.7 640,-138.7 670,-138.7 670,-119.7 640,-119.7"/>
<text text-anchor="start" x="651.4053" y="-125.8" font-family="Helvetica,sans-Serif" font-size="11.00" fill="#000000">1 &gt;</text>
</a>
</g>
</g>
<!-- offence&#45;&gt;draft_adjudications -->
<g id="edge6" class="edge">
<title>offence:w&#45;&gt;draft_adjudications:e</title>
<path fill="none" stroke="#000000" d="M566.2263,-148.1122C528.8935,-150.3922 512.6427,-162.4681 482,-192.7 451.9249,-222.372 483.7485,-278.7 441.5,-278.7"/>
<polygon fill="#000000" stroke="#000000" points="573.0031,-147.9232 581.1004,-151.2986 577.0016,-147.8116 581,-147.7 581,-147.7 581,-147.7 577.0016,-147.8116 580.8996,-144.1014 573.0031,-147.9232 573.0031,-147.9232"/>
<ellipse fill="none" stroke="#000000" cx="569.8044" cy="-148.0125" rx="3.2" ry="3.2"/>
</g>
<!-- witness -->
<g id="node8" class="node">
<title>witness</title>
<g id="a_node8"><a xlink:href="../../tables/witness.html" xlink:title="witness" target="_top">
<polygon fill="#ffffff" stroke="transparent" points="580,-38.2 580,-99.2 670,-99.2 670,-38.2 580,-38.2"/>
<polygon fill="#f5f5f5" stroke="transparent" points="580,-75.7 580,-98.7 670,-98.7 670,-75.7 580,-75.7"/>
<polygon fill="none" stroke="#000000" points="580,-75.7 580,-98.7 670,-98.7 670,-75.7 580,-75.7"/>
<text text-anchor="start" x="585" y="-84.3" font-family="Helvetica,sans-Serif" font-weight="bold" font-size="11.00" fill="#000000">witness</text>
<text text-anchor="start" x="635.5219" y="-83.8" font-family="Helvetica,sans-Serif" font-size="11.00" fill="#000000">[table]</text>
<polygon fill="none" stroke="#000000" points="580,-56.7 580,-75.7 670,-75.7 670,-56.7 580,-56.7"/>
<text text-anchor="start" x="583" y="-62.8" font-family="Helvetica,sans-Serif" font-size="11.00" fill="#000000">...</text>
<polygon fill="#ffffff" stroke="transparent" points="580,-37.7 580,-56.7 623,-56.7 623,-37.7 580,-37.7"/>
<polygon fill="none" stroke="#000000" points="580,-37.7 580,-56.7 623,-56.7 623,-37.7 580,-37.7"/>
<text text-anchor="start" x="583" y="-43.8" font-family="Helvetica,sans-Serif" font-size="11.00" fill="#000000">&lt; 1</text>
<polygon fill="#ffffff" stroke="transparent" points="623,-37.7 623,-56.7 646,-56.7 646,-37.7 623,-37.7"/>
<polygon fill="none" stroke="#000000" points="623,-37.7 623,-56.7 646,-56.7 646,-37.7 623,-37.7"/>
<text text-anchor="start" x="636.8862" y="-43.8" font-family="Helvetica,sans-Serif" font-size="11.00" fill="#000000"> &#160;</text>
<polygon fill="#ffffff" stroke="transparent" points="646,-37.7 646,-56.7 670,-56.7 670,-37.7 646,-37.7"/>
<polygon fill="none" stroke="#000000" points="646,-37.7 646,-56.7 670,-56.7 670,-37.7 646,-37.7"/>
<text text-anchor="start" x="660.8862" y="-43.8" font-family="Helvetica,sans-Serif" font-size="11.00" fill="#000000"> &#160;</text>
</a>
</g>
</g>
<!-- witness&#45;&gt;draft_adjudications -->
<g id="edge7" class="edge">
<title>witness:w&#45;&gt;draft_adjudications:e</title>
<path fill="none" stroke="#000000" d="M565.2866,-65.9889C527.7988,-67.6366 509.1325,-76.9592 482,-109.7 432.7162,-169.1709 518.7378,-278.7 441.5,-278.7"/>
<polygon fill="#000000" stroke="#000000" points="572.0015,-65.8571 580.0707,-69.2993 576.0008,-65.7786 580,-65.7 580,-65.7 580,-65.7 576.0008,-65.7786 579.9293,-62.1007 572.0015,-65.8571 572.0015,-65.8571"/>
<ellipse fill="none" stroke="#000000" cx="568.8022" cy="-65.92" rx="3.2" ry="3.2"/>
</g>
</g>
</svg>
