<?xml version="1.0" encoding="UTF-8" standalone="no"?>
<!DOCTYPE svg PUBLIC "-//W3C//DTD SVG 1.1//EN"
 "http://www.w3.org/Graphics/SVG/1.1/DTD/svg11.dtd">
<!-- Generated by graphviz version 2.40.1 (20161225.0304)
 -->
<!-- Title: oneDegreeRelationshipsDiagram Pages: 1 -->
<svg width="288pt" height="316pt"
 viewBox="0.00 0.00 288.00 316.20" xmlns="http://www.w3.org/2000/svg" xmlns:xlink="http://www.w3.org/1999/xlink">
<g id="graph0" class="graph" transform="scale(1 1) rotate(0) translate(4 312.2)">
<title>oneDegreeRelationshipsDiagram</title>
<polygon fill="#ffffff" stroke="transparent" points="-4,4 -4,-312.2 284,-312.2 284,4 -4,4"/>
<text text-anchor="middle" x="72.4936" y="-7.3" font-family="Helvetica,sans-Serif" font-size="11.00" fill="#000000">Generated by SchemaSpy</text>
<!-- flyway_schema_history -->
<g id="node1" class="node">
<title>flyway_schema_history</title>
<g id="a_node1"><a xlink:href="../../tables/flyway_schema_history.html" xlink:title="flyway_schema_history" target="_top">
<polygon fill="#ffffff" stroke="transparent" points="8,-38.2 8,-304.2 272,-304.2 272,-38.2 8,-38.2"/>
<polygon fill="#f5f5f5" stroke="transparent" points="10,-279.2 10,-302.2 270,-302.2 270,-279.2 10,-279.2"/>
<polygon fill="none" stroke="#000000" points="10,-279.2 10,-302.2 270,-302.2 270,-279.2 10,-279.2"/>
<text text-anchor="start" x="15" y="-287.8" font-family="Helvetica,sans-Serif" font-weight="bold" font-size="11.00" fill="#000000">flyway_schema_history</text>
<text text-anchor="start" x="235.0437" y="-287.3" font-family="Helvetica,sans-Serif" font-size="11.00" fill="#000000">[table]</text>
<polygon fill="none" stroke="#000000" points="10,-257.2 10,-279.2 186,-279.2 186,-257.2 10,-257.2"/>
<image xlink:href="../../images/primaryKeys.png" width="11px" height="12px" preserveAspectRatio="xMinYMin meet" x="15" y="-274.2"/>
<text text-anchor="start" x="30" y="-264.3" font-family="Helvetica,sans-Serif" font-size="11.00" fill="#000000">installed_rank</text>
<polygon fill="none" stroke="#000000" points="186,-257.2 186,-279.2 270,-279.2 270,-257.2 186,-257.2"/>
<text text-anchor="start" x="189" y="-264.9" font-family="Helvetica,sans-Serif" font-size="11.00" fill="#000000">int4[10]</text>
<polygon fill="none" stroke="#000000" points="10,-235.2 10,-257.2 186,-257.2 186,-235.2 10,-235.2"/>
<text text-anchor="start" x="30" y="-242.3" font-family="Helvetica,sans-Serif" font-size="11.00" fill="#000000">version</text>
<polygon fill="none" stroke="#000000" points="186,-235.2 186,-257.2 270,-257.2 270,-235.2 186,-235.2"/>
<text text-anchor="start" x="189" y="-242.9" font-family="Helvetica,sans-Serif" font-size="11.00" fill="#000000">varchar[50]</text>
<polygon fill="none" stroke="#000000" points="10,-213.2 10,-235.2 186,-235.2 186,-213.2 10,-213.2"/>
<text text-anchor="start" x="30" y="-220.3" font-family="Helvetica,sans-Serif" font-size="11.00" fill="#000000">description</text>
<polygon fill="none" stroke="#000000" points="186,-213.2 186,-235.2 270,-235.2 270,-213.2 186,-213.2"/>
<text text-anchor="start" x="189" y="-220.9" font-family="Helvetica,sans-Serif" font-size="11.00" fill="#000000">varchar[200]</text>
<polygon fill="none" stroke="#000000" points="10,-191.2 10,-213.2 186,-213.2 186,-191.2 10,-191.2"/>
<text text-anchor="start" x="30" y="-198.3" font-family="Helvetica,sans-Serif" font-size="11.00" fill="#000000">type</text>
<polygon fill="none" stroke="#000000" points="186,-191.2 186,-213.2 270,-213.2 270,-191.2 186,-191.2"/>
<text text-anchor="start" x="189" y="-198.9" font-family="Helvetica,sans-Serif" font-size="11.00" fill="#000000">varchar[20]</text>
<polygon fill="none" stroke="#000000" points="10,-169.2 10,-191.2 186,-191.2 186,-169.2 10,-169.2"/>
<text text-anchor="start" x="30" y="-176.3" font-family="Helvetica,sans-Serif" font-size="11.00" fill="#000000">script</text>
<polygon fill="none" stroke="#000000" points="186,-169.2 186,-191.2 270,-191.2 270,-169.2 186,-169.2"/>
<text text-anchor="start" x="189" y="-176.9" font-family="Helvetica,sans-Serif" font-size="11.00" fill="#000000">varchar[1000]</text>
<polygon fill="none" stroke="#000000" points="10,-147.2 10,-169.2 186,-169.2 186,-147.2 10,-147.2"/>
<text text-anchor="start" x="30" y="-154.3" font-family="Helvetica,sans-Serif" font-size="11.00" fill="#000000">checksum</text>
<polygon fill="none" stroke="#000000" points="186,-147.2 186,-169.2 270,-169.2 270,-147.2 186,-147.2"/>
<text text-anchor="start" x="189" y="-154.9" font-family="Helvetica,sans-Serif" font-size="11.00" fill="#000000">int4[10]</text>
<polygon fill="none" stroke="#000000" points="10,-125.2 10,-147.2 186,-147.2 186,-125.2 10,-125.2"/>
<text text-anchor="start" x="30" y="-132.3" font-family="Helvetica,sans-Serif" font-size="11.00" fill="#000000">installed_by</text>
<polygon fill="none" stroke="#000000" points="186,-125.2 186,-147.2 270,-147.2 270,-125.2 186,-125.2"/>
<text text-anchor="start" x="189" y="-132.9" font-family="Helvetica,sans-Serif" font-size="11.00" fill="#000000">varchar[100]</text>
<polygon fill="none" stroke="#000000" points="10,-103.2 10,-125.2 186,-125.2 186,-103.2 10,-103.2"/>
<text text-anchor="start" x="30" y="-110.3" font-family="Helvetica,sans-Serif" font-size="11.00" fill="#000000">installed_on</text>
<polygon fill="none" stroke="#000000" points="186,-103.2 186,-125.2 270,-125.2 270,-103.2 186,-103.2"/>
<text text-anchor="start" x="188.8807" y="-110.9" font-family="Helvetica,sans-Serif" font-size="11.00" fill="#000000">timestamp[29,6]</text>
<polygon fill="none" stroke="#000000" points="10,-81.2 10,-103.2 186,-103.2 186,-81.2 10,-81.2"/>
<text text-anchor="start" x="30" y="-88.3" font-family="Helvetica,sans-Serif" font-size="11.00" fill="#000000">execution_time</text>
<polygon fill="none" stroke="#000000" points="186,-81.2 186,-103.2 270,-103.2 270,-81.2 186,-81.2"/>
<text text-anchor="start" x="189" y="-88.9" font-family="Helvetica,sans-Serif" font-size="11.00" fill="#000000">int4[10]</text>
<polygon fill="#ffffff" stroke="transparent" points="10,-59.2 10,-81.2 186,-81.2 186,-59.2 10,-59.2"/>
<polygon fill="none" stroke="#000000" points="10,-59.2 10,-81.2 186,-81.2 186,-59.2 10,-59.2"/>
<text text-anchor="start" x="30" y="-66.3" font-family="Helvetica,sans-Serif" font-size="11.00" fill="#000000">success</text>
<polygon fill="none" stroke="#000000" points="186,-59.2 186,-81.2 270,-81.2 270,-59.2 186,-59.2"/>
<text text-anchor="start" x="189" y="-66.9" font-family="Helvetica,sans-Serif" font-size="11.00" fill="#000000">bool[1]</text>
<polygon fill="#ffffff" stroke="transparent" points="10,-40.2 10,-59.2 102,-59.2 102,-40.2 10,-40.2"/>
<polygon fill="none" stroke="#000000" points="10,-40.2 10,-59.2 102,-59.2 102,-40.2 10,-40.2"/>
<text text-anchor="start" x="13" y="-46.3" font-family="Helvetica,sans-Serif" font-size="11.00" fill="#000000">&lt; 0</text>
<polygon fill="#ffffff" stroke="transparent" points="102,-40.2 102,-59.2 186,-59.2 186,-40.2 102,-40.2"/>
<polygon fill="none" stroke="#000000" points="102,-40.2 102,-59.2 186,-59.2 186,-40.2 102,-40.2"/>
<text text-anchor="start" x="176.8862" y="-46.3" font-family="Helvetica,sans-Serif" font-size="11.00" fill="#000000"> &#160;</text>
<polygon fill="#ffffff" stroke="transparent" points="186,-40.2 186,-59.2 270,-59.2 270,-40.2 186,-40.2"/>
<polygon fill="none" stroke="#000000" points="186,-40.2 186,-59.2 270,-59.2 270,-40.2 186,-40.2"/>
<text text-anchor="start" x="251.4053" y="-46.3" font-family="Helvetica,sans-Serif" font-size="11.00" fill="#000000">0 &gt;</text>
<polygon fill="none" stroke="#000000" stroke-width="2" points="9,-39.2 9,-303.2 271,-303.2 271,-39.2 9,-39.2"/>
</a>
</g>
</g>
</g>
</svg>
