<?xml version="1.0" encoding="UTF-8" standalone="no"?>
<!DOCTYPE svg PUBLIC "-//W3C//DTD SVG 1.1//EN"
 "http://www.w3.org/Graphics/SVG/1.1/DTD/svg11.dtd">
<!-- Generated by graphviz version 2.40.1 (20161225.0304)
 -->
<!-- Title: twoDegreesRelationshipsDiagram Pages: 1 -->
<svg width="612pt" height="491pt"
 viewBox="0.00 0.00 612.00 490.70" xmlns="http://www.w3.org/2000/svg" xmlns:xlink="http://www.w3.org/1999/xlink">
<g id="graph0" class="graph" transform="scale(1 1) rotate(0) translate(4 486.7)">
<title>twoDegreesRelationshipsDiagram</title>
<polygon fill="#ffffff" stroke="transparent" points="-4,4 -4,-486.7 608,-486.7 608,4 -4,4"/>
<text text-anchor="middle" x="72.4936" y="-7.3" font-family="Helvetica,sans-Serif" font-size="11.00" fill="#000000">Generated by SchemaSpy</text>
<!-- hearing -->
<g id="node1" class="node">
<title>hearing</title>
<g id="a_node1"><a xlink:href="../../tables/hearing.html" xlink:title="hearing" target="_top">
<polygon fill="#ffffff" stroke="transparent" points="388,-263.7 388,-478.7 596,-478.7 596,-263.7 388,-263.7"/>
<polygon fill="#f5f5f5" stroke="transparent" points="388,-455.2 388,-478.2 596,-478.2 596,-455.2 388,-455.2"/>
<polygon fill="none" stroke="#000000" points="388,-455.2 388,-478.2 596,-478.2 596,-455.2 388,-455.2"/>
<text text-anchor="start" x="393" y="-463.8" font-family="Helvetica,sans-Serif" font-weight="bold" font-size="11.00" fill="#000000">hearing</text>
<text text-anchor="start" x="561.0437" y="-463.3" font-family="Helvetica,sans-Serif" font-size="11.00" fill="#000000">[table]</text>
<polygon fill="none" stroke="#000000" points="388,-433.2 388,-455.2 596,-455.2 596,-433.2 388,-433.2"/>
<image xlink:href="../../images/primaryKeys.png" width="11px" height="12px" preserveAspectRatio="xMinYMin meet" x="393" y="-450.2"/>
<text text-anchor="start" x="408" y="-440.3" font-family="Helvetica,sans-Serif" font-size="11.00" fill="#000000">id</text>
<polygon fill="#ffffff" stroke="transparent" points="388,-411.2 388,-433.2 596,-433.2 596,-411.2 388,-411.2"/>
<polygon fill="none" stroke="#000000" points="388,-411.2 388,-433.2 596,-433.2 596,-411.2 388,-411.2"/>
<image xlink:href="../../images/foreignKeys.png" width="11px" height="12px" preserveAspectRatio="xMinYMin meet" x="393" y="-428.2"/>
<text text-anchor="start" x="408" y="-418.3" font-family="Helvetica,sans-Serif" font-size="11.00" fill="#000000">reported_adjudication_fk_id</text>
<polygon fill="#ffffff" stroke="transparent" points="388,-389.2 388,-411.2 596,-411.2 596,-389.2 388,-389.2"/>
<polygon fill="none" stroke="#000000" points="388,-389.2 388,-411.2 596,-411.2 596,-389.2 388,-389.2"/>
<text text-anchor="start" x="408" y="-396.3" font-family="Helvetica,sans-Serif" font-size="11.00" fill="#000000">agency_id</text>
<polygon fill="#ffffff" stroke="transparent" points="388,-367.2 388,-389.2 596,-389.2 596,-367.2 388,-367.2"/>
<polygon fill="none" stroke="#000000" points="388,-367.2 388,-389.2 596,-389.2 596,-367.2 388,-367.2"/>
<text text-anchor="start" x="408" y="-374.3" font-family="Helvetica,sans-Serif" font-size="11.00" fill="#000000">date_time_of_hearing</text>
<polygon fill="#ffffff" stroke="transparent" points="388,-345.2 388,-367.2 596,-367.2 596,-345.2 388,-345.2"/>
<polygon fill="none" stroke="#000000" points="388,-345.2 388,-367.2 596,-367.2 596,-345.2 388,-345.2"/>
<text text-anchor="start" x="408" y="-352.3" font-family="Helvetica,sans-Serif" font-size="11.00" fill="#000000">charge_number</text>
<polygon fill="#ffffff" stroke="transparent" points="388,-323.2 388,-345.2 596,-345.2 596,-323.2 388,-323.2"/>
<polygon fill="none" stroke="#000000" points="388,-323.2 388,-345.2 596,-345.2 596,-323.2 388,-323.2"/>
<image xlink:href="../../images/foreignKeys.png" width="11px" height="12px" preserveAspectRatio="xMinYMin meet" x="393" y="-340.2"/>
<text text-anchor="start" x="408" y="-330.3" font-family="Helvetica,sans-Serif" font-size="11.00" fill="#000000">outcome_id</text>
<polygon fill="#ffffff" stroke="transparent" points="388,-301.2 388,-323.2 596,-323.2 596,-301.2 388,-301.2"/>
<polygon fill="none" stroke="#000000" points="388,-301.2 388,-323.2 596,-323.2 596,-301.2 388,-301.2"/>
<text text-anchor="start" x="408" y="-308.3" font-family="Helvetica,sans-Serif" font-size="11.00" fill="#000000">hearing_pre_migrate_id</text>
<polygon fill="none" stroke="#000000" points="388,-282.2 388,-301.2 596,-301.2 596,-282.2 388,-282.2"/>
<text text-anchor="start" x="391" y="-288.3" font-family="Helvetica,sans-Serif" font-size="11.00" fill="#000000">...</text>
<polygon fill="#ffffff" stroke="transparent" points="388,-263.2 388,-282.2 490,-282.2 490,-263.2 388,-263.2"/>
<polygon fill="none" stroke="#000000" points="388,-263.2 388,-282.2 490,-282.2 490,-263.2 388,-263.2"/>
<text text-anchor="start" x="391" y="-269.3" font-family="Helvetica,sans-Serif" font-size="11.00" fill="#000000">&lt; 2</text>
<polygon fill="#ffffff" stroke="transparent" points="490,-263.2 490,-282.2 543,-282.2 543,-263.2 490,-263.2"/>
<polygon fill="none" stroke="#000000" points="490,-263.2 490,-282.2 543,-282.2 543,-263.2 490,-263.2"/>
<text text-anchor="start" x="533.8862" y="-269.3" font-family="Helvetica,sans-Serif" font-size="11.00" fill="#000000"> &#160;</text>
<polygon fill="#ffffff" stroke="transparent" points="543,-263.2 543,-282.2 596,-282.2 596,-263.2 543,-263.2"/>
<polygon fill="none" stroke="#000000" points="543,-263.2 543,-282.2 596,-282.2 596,-263.2 543,-263.2"/>
<text text-anchor="start" x="586.8862" y="-269.3" font-family="Helvetica,sans-Serif" font-size="11.00" fill="#000000"> &#160;</text>
</a>
</g>
</g>
<!-- hearing_outcome -->
<g id="node2" class="node">
<title>hearing_outcome</title>
<g id="a_node2"><a xlink:href="../../tables/hearing_outcome.html" xlink:title="hearing_outcome" target="_top">
<polygon fill="#ffffff" stroke="transparent" points="8,-38.2 8,-370.2 339,-370.2 339,-38.2 8,-38.2"/>
<polygon fill="#f5f5f5" stroke="transparent" points="10.5,-345.2 10.5,-368.2 337.5,-368.2 337.5,-345.2 10.5,-345.2"/>
<polygon fill="none" stroke="#000000" points="10.5,-345.2 10.5,-368.2 337.5,-368.2 337.5,-345.2 10.5,-345.2"/>
<text text-anchor="start" x="15.5" y="-353.8" font-family="Helvetica,sans-Serif" font-weight="bold" font-size="11.00" fill="#000000">hearing_outcome</text>
<text text-anchor="start" x="302.5437" y="-353.3" font-family="Helvetica,sans-Serif" font-size="11.00" fill="#000000">[table]</text>
<polygon fill="none" stroke="#000000" points="10.5,-323.2 10.5,-345.2 253.5,-345.2 253.5,-323.2 10.5,-323.2"/>
<image xlink:href="../../images/primaryKeys.png" width="11px" height="12px" preserveAspectRatio="xMinYMin meet" x="15.5" y="-340.2"/>
<text text-anchor="start" x="30.5" y="-330.3" font-family="Helvetica,sans-Serif" font-size="11.00" fill="#000000">id</text>
<polygon fill="none" stroke="#000000" points="253.5,-323.2 253.5,-345.2 337.5,-345.2 337.5,-323.2 253.5,-323.2"/>
<text text-anchor="start" x="256.5" y="-330.9" font-family="Helvetica,sans-Serif" font-size="11.00" fill="#000000">serial[10]</text>
<polygon fill="none" stroke="#000000" points="10.5,-301.2 10.5,-323.2 253.5,-323.2 253.5,-301.2 10.5,-301.2"/>
<text text-anchor="start" x="30.5" y="-308.3" font-family="Helvetica,sans-Serif" font-size="11.00" fill="#000000">code</text>
<polygon fill="none" stroke="#000000" points="253.5,-301.2 253.5,-323.2 337.5,-323.2 337.5,-301.2 253.5,-301.2"/>
<text text-anchor="start" x="256.5" y="-308.9" font-family="Helvetica,sans-Serif" font-size="11.00" fill="#000000">varchar[32]</text>
<polygon fill="none" stroke="#000000" points="10.5,-279.2 10.5,-301.2 253.5,-301.2 253.5,-279.2 10.5,-279.2"/>
<text text-anchor="start" x="30.5" y="-286.3" font-family="Helvetica,sans-Serif" font-size="11.00" fill="#000000">adjudicator</text>
<polygon fill="none" stroke="#000000" points="253.5,-279.2 253.5,-301.2 337.5,-301.2 337.5,-279.2 253.5,-279.2"/>
<text text-anchor="start" x="256.5" y="-286.9" font-family="Helvetica,sans-Serif" font-size="11.00" fill="#000000">varchar[32]</text>
<polygon fill="none" stroke="#000000" points="10.5,-257.2 10.5,-279.2 253.5,-279.2 253.5,-257.2 10.5,-257.2"/>
<text text-anchor="start" x="30.5" y="-264.3" font-family="Helvetica,sans-Serif" font-size="11.00" fill="#000000">adjourn_reason</text>
<polygon fill="none" stroke="#000000" points="253.5,-257.2 253.5,-279.2 337.5,-279.2 337.5,-257.2 253.5,-257.2"/>
<text text-anchor="start" x="256.5" y="-264.9" font-family="Helvetica,sans-Serif" font-size="11.00" fill="#000000">varchar[32]</text>
<polygon fill="none" stroke="#000000" points="10.5,-235.2 10.5,-257.2 253.5,-257.2 253.5,-235.2 10.5,-235.2"/>
<text text-anchor="start" x="30.5" y="-242.3" font-family="Helvetica,sans-Serif" font-size="11.00" fill="#000000">plea</text>
<polygon fill="none" stroke="#000000" points="253.5,-235.2 253.5,-257.2 337.5,-257.2 337.5,-235.2 253.5,-235.2"/>
<text text-anchor="start" x="256.5" y="-242.9" font-family="Helvetica,sans-Serif" font-size="11.00" fill="#000000">varchar[32]</text>
<polygon fill="none" stroke="#000000" points="10.5,-213.2 10.5,-235.2 253.5,-235.2 253.5,-213.2 10.5,-213.2"/>
<text text-anchor="start" x="30.5" y="-220.3" font-family="Helvetica,sans-Serif" font-size="11.00" fill="#000000">details</text>
<polygon fill="none" stroke="#000000" points="253.5,-213.2 253.5,-235.2 337.5,-235.2 337.5,-213.2 253.5,-213.2"/>
<text text-anchor="start" x="256.5" y="-220.9" font-family="Helvetica,sans-Serif" font-size="11.00" fill="#000000">varchar[4000]</text>
<polygon fill="none" stroke="#000000" points="10.5,-191.2 10.5,-213.2 253.5,-213.2 253.5,-191.2 10.5,-191.2"/>
<text text-anchor="start" x="30.5" y="-198.3" font-family="Helvetica,sans-Serif" font-size="11.00" fill="#000000">create_user_id</text>
<polygon fill="none" stroke="#000000" points="253.5,-191.2 253.5,-213.2 337.5,-213.2 337.5,-191.2 253.5,-191.2"/>
<text text-anchor="start" x="256.5" y="-198.9" font-family="Helvetica,sans-Serif" font-size="11.00" fill="#000000">varchar[32]</text>
<polygon fill="none" stroke="#000000" points="10.5,-169.2 10.5,-191.2 253.5,-191.2 253.5,-169.2 10.5,-169.2"/>
<text text-anchor="start" x="30.5" y="-176.3" font-family="Helvetica,sans-Serif" font-size="11.00" fill="#000000">create_datetime</text>
<polygon fill="none" stroke="#000000" points="253.5,-169.2 253.5,-191.2 337.5,-191.2 337.5,-169.2 253.5,-169.2"/>
<text text-anchor="start" x="256.3807" y="-176.9" font-family="Helvetica,sans-Serif" font-size="11.00" fill="#000000">timestamp[29,6]</text>
<polygon fill="none" stroke="#000000" points="10.5,-147.2 10.5,-169.2 253.5,-169.2 253.5,-147.2 10.5,-147.2"/>
<text text-anchor="start" x="30.5" y="-154.3" font-family="Helvetica,sans-Serif" font-size="11.00" fill="#000000">modify_user_id</text>
<polygon fill="none" stroke="#000000" points="253.5,-147.2 253.5,-169.2 337.5,-169.2 337.5,-147.2 253.5,-147.2"/>
<text text-anchor="start" x="256.5" y="-154.9" font-family="Helvetica,sans-Serif" font-size="11.00" fill="#000000">varchar[32]</text>
<polygon fill="none" stroke="#000000" points="10.5,-125.2 10.5,-147.2 253.5,-147.2 253.5,-125.2 10.5,-125.2"/>
<text text-anchor="start" x="30.5" y="-132.3" font-family="Helvetica,sans-Serif" font-size="11.00" fill="#000000">modify_datetime</text>
<polygon fill="none" stroke="#000000" points="253.5,-125.2 253.5,-147.2 337.5,-147.2 337.5,-125.2 253.5,-125.2"/>
<text text-anchor="start" x="256.3807" y="-132.9" font-family="Helvetica,sans-Serif" font-size="11.00" fill="#000000">timestamp[29,6]</text>
<polygon fill="none" stroke="#000000" points="10.5,-103.2 10.5,-125.2 253.5,-125.2 253.5,-103.2 10.5,-103.2"/>
<text text-anchor="start" x="30.5" y="-110.3" font-family="Helvetica,sans-Serif" font-size="11.00" fill="#000000">nomis_outcome</text>
<polygon fill="none" stroke="#000000" points="253.5,-103.2 253.5,-125.2 337.5,-125.2 337.5,-103.2 253.5,-103.2"/>
<text text-anchor="start" x="256.5" y="-110.9" font-family="Helvetica,sans-Serif" font-size="11.00" fill="#000000">bool[1]</text>
<polygon fill="none" stroke="#000000" points="10.5,-81.2 10.5,-103.2 253.5,-103.2 253.5,-81.2 10.5,-81.2"/>
<text text-anchor="start" x="30.5" y="-88.3" font-family="Helvetica,sans-Serif" font-size="11.00" fill="#000000">migrated</text>
<polygon fill="none" stroke="#000000" points="253.5,-81.2 253.5,-103.2 337.5,-103.2 337.5,-81.2 253.5,-81.2"/>
<text text-anchor="start" x="256.5" y="-88.9" font-family="Helvetica,sans-Serif" font-size="11.00" fill="#000000">bool[1]</text>
<polygon fill="#ffffff" stroke="transparent" points="10.5,-59.2 10.5,-81.2 253.5,-81.2 253.5,-59.2 10.5,-59.2"/>
<polygon fill="none" stroke="#000000" points="10.5,-59.2 10.5,-81.2 253.5,-81.2 253.5,-59.2 10.5,-59.2"/>
<text text-anchor="start" x="30.5" y="-66.3" font-family="Helvetica,sans-Serif" font-size="11.00" fill="#000000">hearing_outcome_pre_migrate_id</text>
<polygon fill="none" stroke="#000000" points="253.5,-59.2 253.5,-81.2 337.5,-81.2 337.5,-59.2 253.5,-59.2"/>
<text text-anchor="start" x="256.5" y="-66.9" font-family="Helvetica,sans-Serif" font-size="11.00" fill="#000000">int4[10]</text>
<polygon fill="#ffffff" stroke="transparent" points="10.5,-40.2 10.5,-59.2 136.5,-59.2 136.5,-40.2 10.5,-40.2"/>
<polygon fill="none" stroke="#000000" points="10.5,-40.2 10.5,-59.2 136.5,-59.2 136.5,-40.2 10.5,-40.2"/>
<text text-anchor="start" x="13.5" y="-46.3" font-family="Helvetica,sans-Serif" font-size="11.00" fill="#000000">&lt; 0</text>
<polygon fill="#ffffff" stroke="transparent" points="136.5,-40.2 136.5,-59.2 253.5,-59.2 253.5,-40.2 136.5,-40.2"/>
<polygon fill="none" stroke="#000000" points="136.5,-40.2 136.5,-59.2 253.5,-59.2 253.5,-40.2 136.5,-40.2"/>
<text text-anchor="start" x="244.3862" y="-46.3" font-family="Helvetica,sans-Serif" font-size="11.00" fill="#000000"> &#160;</text>
<polygon fill="#ffffff" stroke="transparent" points="253.5,-40.2 253.5,-59.2 337.5,-59.2 337.5,-40.2 253.5,-40.2"/>
<polygon fill="none" stroke="#000000" points="253.5,-40.2 253.5,-59.2 337.5,-59.2 337.5,-40.2 253.5,-40.2"/>
<text text-anchor="start" x="318.9053" y="-46.3" font-family="Helvetica,sans-Serif" font-size="11.00" fill="#000000">1 &gt;</text>
<polygon fill="none" stroke="#000000" stroke-width="2" points="9,-39.2 9,-369.2 338,-369.2 338,-39.2 9,-39.2"/>
</a>
</g>
</g>
<!-- hearing&#45;&gt;hearing_outcome -->
<g id="edge1" class="edge">
<title>hearing:w&#45;&gt;hearing_outcome:e</title>
<path fill="none" stroke="#000000" d="M373.4203,-334.2C361.5435,-334.2 354.158,-334.2 337.5,-334.2"/>
<polygon fill="#000000" stroke="#000000" points="380,-334.2001 388,-337.8 384,-334.2 388,-334.2 388,-334.2 388,-334.2 384,-334.2 388,-330.6 380,-334.2001 380,-334.2001"/>
<ellipse fill="none" stroke="#000000" cx="376.8" cy="-334.2001" rx="3.2" ry="3.2"/>
</g>
<!-- reported_adjudications -->
<g id="node3" class="node">
<title>reported_adjudications</title>
<g id="a_node3"><a xlink:href="../../tables/reported_adjudications.html" xlink:title="reported_adjudications" target="_top">
<polygon fill="#ffffff" stroke="transparent" points="76,-394.7 76,-455.7 271,-455.7 271,-394.7 76,-394.7"/>
<polygon fill="#f5f5f5" stroke="transparent" points="76.5,-432.2 76.5,-455.2 271.5,-455.2 271.5,-432.2 76.5,-432.2"/>
<polygon fill="none" stroke="#000000" points="76.5,-432.2 76.5,-455.2 271.5,-455.2 271.5,-432.2 76.5,-432.2"/>
<text text-anchor="start" x="81.5" y="-440.8" font-family="Helvetica,sans-Serif" font-weight="bold" font-size="11.00" fill="#000000">reported_adjudications</text>
<text text-anchor="start" x="237.0219" y="-440.3" font-family="Helvetica,sans-Serif" font-size="11.00" fill="#000000">[table]</text>
<polygon fill="none" stroke="#000000" points="76.5,-413.2 76.5,-432.2 271.5,-432.2 271.5,-413.2 76.5,-413.2"/>
<text text-anchor="start" x="79.5" y="-419.3" font-family="Helvetica,sans-Serif" font-size="11.00" fill="#000000">...</text>
<polygon fill="#ffffff" stroke="transparent" points="76.5,-394.2 76.5,-413.2 163.5,-413.2 163.5,-394.2 76.5,-394.2"/>
<polygon fill="none" stroke="#000000" points="76.5,-394.2 76.5,-413.2 163.5,-413.2 163.5,-394.2 76.5,-394.2"/>
<text text-anchor="start" x="79.5" y="-400.3" font-family="Helvetica,sans-Serif" font-size="11.00" fill="#000000"> &#160;</text>
<polygon fill="#ffffff" stroke="transparent" points="163.5,-394.2 163.5,-413.2 212.5,-413.2 212.5,-394.2 163.5,-394.2"/>
<polygon fill="none" stroke="#000000" points="163.5,-394.2 163.5,-413.2 212.5,-413.2 212.5,-394.2 163.5,-394.2"/>
<text text-anchor="start" x="203.3862" y="-400.3" font-family="Helvetica,sans-Serif" font-size="11.00" fill="#000000"> &#160;</text>
<polygon fill="#ffffff" stroke="transparent" points="212.5,-394.2 212.5,-413.2 271.5,-413.2 271.5,-394.2 212.5,-394.2"/>
<polygon fill="none" stroke="#000000" points="212.5,-394.2 212.5,-413.2 271.5,-413.2 271.5,-394.2 212.5,-394.2"/>
<text text-anchor="start" x="252.9053" y="-400.3" font-family="Helvetica,sans-Serif" font-size="11.00" fill="#000000">9 &gt;</text>
</a>
</g>
</g>
<!-- hearing&#45;&gt;reported_adjudications -->
<g id="edge2" class="edge">
<title>hearing:w&#45;&gt;reported_adjudications:e</title>
<path fill="none" stroke="#000000" d="M373.3443,-422.2C333.1923,-422.2 318.0191,-422.2 271.5,-422.2"/>
<polygon fill="#000000" stroke="#000000" points="380,-422.2001 388,-425.8 384,-422.2 388,-422.2 388,-422.2 388,-422.2 384,-422.2 388,-418.6 380,-422.2001 380,-422.2001"/>
<ellipse fill="none" stroke="#000000" cx="376.8" cy="-422.2001" rx="3.2" ry="3.2"/>
</g>
</g>
</svg>
