<?xml version="1.0" encoding="UTF-8" standalone="no"?>
<!DOCTYPE svg PUBLIC "-//W3C//DTD SVG 1.1//EN"
 "http://www.w3.org/Graphics/SVG/1.1/DTD/svg11.dtd">
<!-- Generated by graphviz version 2.40.1 (20161225.0304)
 -->
<!-- Title: twoDegreesRelationshipsDiagram Pages: 1 -->
<svg width="693pt" height="1105pt"
 viewBox="0.00 0.00 693.00 1104.70" xmlns="http://www.w3.org/2000/svg" xmlns:xlink="http://www.w3.org/1999/xlink">
<g id="graph0" class="graph" transform="scale(1 1) rotate(0) translate(4 1100.7)">
<title>twoDegreesRelationshipsDiagram</title>
<polygon fill="#ffffff" stroke="transparent" points="-4,4 -4,-1100.7 689,-1100.7 689,4 -4,4"/>
<text text-anchor="middle" x="72.4936" y="-7.3" font-family="Helvetica,sans-Serif" font-size="11.00" fill="#000000">Generated by SchemaSpy</text>
<!-- dis_issue_history -->
<g id="node1" class="node">
<title>dis_issue_history</title>
<g id="a_node1"><a xlink:href="../../tables/dis_issue_history.html" xlink:title="dis_issue_history" target="_top">
<polygon fill="#ffffff" stroke="transparent" points="447.5,-366.2 447.5,-427.2 600.5,-427.2 600.5,-366.2 447.5,-366.2"/>
<polygon fill="#f5f5f5" stroke="transparent" points="448,-403.7 448,-426.7 601,-426.7 601,-403.7 448,-403.7"/>
<polygon fill="none" stroke="#000000" points="448,-403.7 448,-426.7 601,-426.7 601,-403.7 448,-403.7"/>
<text text-anchor="start" x="453" y="-412.3" font-family="Helvetica,sans-Serif" font-weight="bold" font-size="11.00" fill="#000000">dis_issue_history</text>
<text text-anchor="start" x="566.5219" y="-411.8" font-family="Helvetica,sans-Serif" font-size="11.00" fill="#000000">[table]</text>
<polygon fill="none" stroke="#000000" points="448,-384.7 448,-403.7 601,-403.7 601,-384.7 448,-384.7"/>
<text text-anchor="start" x="451" y="-390.8" font-family="Helvetica,sans-Serif" font-size="11.00" fill="#000000">...</text>
<polygon fill="#ffffff" stroke="transparent" points="448,-365.7 448,-384.7 523,-384.7 523,-365.7 448,-365.7"/>
<polygon fill="none" stroke="#000000" points="448,-365.7 448,-384.7 523,-384.7 523,-365.7 448,-365.7"/>
<text text-anchor="start" x="451" y="-371.8" font-family="Helvetica,sans-Serif" font-size="11.00" fill="#000000">&lt; 1</text>
<polygon fill="#ffffff" stroke="transparent" points="523,-365.7 523,-384.7 562,-384.7 562,-365.7 523,-365.7"/>
<polygon fill="none" stroke="#000000" points="523,-365.7 523,-384.7 562,-384.7 562,-365.7 523,-365.7"/>
<text text-anchor="start" x="552.8862" y="-371.8" font-family="Helvetica,sans-Serif" font-size="11.00" fill="#000000"> &#160;</text>
<polygon fill="#ffffff" stroke="transparent" points="562,-365.7 562,-384.7 601,-384.7 601,-365.7 562,-365.7"/>
<polygon fill="none" stroke="#000000" points="562,-365.7 562,-384.7 601,-384.7 601,-365.7 562,-365.7"/>
<text text-anchor="start" x="591.8862" y="-371.8" font-family="Helvetica,sans-Serif" font-size="11.00" fill="#000000"> &#160;</text>
</a>
</g>
</g>
<!-- reported_adjudications -->
<g id="node2" class="node">
<title>reported_adjudications</title>
<g id="a_node2"><a xlink:href="../../tables/reported_adjudications.html" xlink:title="reported_adjudications" target="_top">
<polygon fill="#ffffff" stroke="transparent" points="8,-103.2 8,-428.2 322,-428.2 322,-103.2 8,-103.2"/>
<polygon fill="#f5f5f5" stroke="transparent" points="8,-404.7 8,-427.7 322,-427.7 322,-404.7 8,-404.7"/>
<polygon fill="none" stroke="#000000" points="8,-404.7 8,-427.7 322,-427.7 322,-404.7 8,-404.7"/>
<text text-anchor="start" x="13" y="-413.3" font-family="Helvetica,sans-Serif" font-weight="bold" font-size="11.00" fill="#000000">reported_adjudications</text>
<text text-anchor="start" x="287.0437" y="-412.8" font-family="Helvetica,sans-Serif" font-size="11.00" fill="#000000">[table]</text>
<polygon fill="none" stroke="#000000" points="8,-382.7 8,-404.7 322,-404.7 322,-382.7 8,-382.7"/>
<image xlink:href="../../images/primaryKeys.png" width="11px" height="12px" preserveAspectRatio="xMinYMin meet" x="13" y="-399.7"/>
<text text-anchor="start" x="28" y="-389.8" font-family="Helvetica,sans-Serif" font-size="11.00" fill="#000000">id</text>
<polygon fill="#ffffff" stroke="transparent" points="8,-360.7 8,-382.7 322,-382.7 322,-360.7 8,-360.7"/>
<polygon fill="none" stroke="#000000" points="8,-360.7 8,-382.7 322,-382.7 322,-360.7 8,-360.7"/>
<text text-anchor="start" x="28" y="-367.8" font-family="Helvetica,sans-Serif" font-size="11.00" fill="#000000">prisoner_number</text>
<polygon fill="#ffffff" stroke="transparent" points="8,-338.7 8,-360.7 322,-360.7 322,-338.7 8,-338.7"/>
<polygon fill="none" stroke="#000000" points="8,-338.7 8,-360.7 322,-360.7 322,-338.7 8,-338.7"/>
<text text-anchor="start" x="28" y="-345.8" font-family="Helvetica,sans-Serif" font-size="11.00" fill="#000000">charge_number</text>
<polygon fill="#ffffff" stroke="transparent" points="8,-316.7 8,-338.7 322,-338.7 322,-316.7 8,-316.7"/>
<polygon fill="none" stroke="#000000" points="8,-316.7 8,-338.7 322,-338.7 322,-316.7 8,-316.7"/>
<text text-anchor="start" x="28" y="-323.8" font-family="Helvetica,sans-Serif" font-size="11.00" fill="#000000">originating_agency_id</text>
<polygon fill="#ffffff" stroke="transparent" points="8,-294.7 8,-316.7 322,-316.7 322,-294.7 8,-294.7"/>
<polygon fill="none" stroke="#000000" points="8,-294.7 8,-316.7 322,-316.7 322,-294.7 8,-294.7"/>
<text text-anchor="start" x="28" y="-301.8" font-family="Helvetica,sans-Serif" font-size="11.00" fill="#000000">create_user_id</text>
<polygon fill="#ffffff" stroke="transparent" points="8,-272.7 8,-294.7 322,-294.7 322,-272.7 8,-272.7"/>
<polygon fill="none" stroke="#000000" points="8,-272.7 8,-294.7 322,-294.7 322,-272.7 8,-272.7"/>
<text text-anchor="start" x="28" y="-279.8" font-family="Helvetica,sans-Serif" font-size="11.00" fill="#000000">incident_role_associated_prisoners_number</text>
<polygon fill="#ffffff" stroke="transparent" points="8,-250.7 8,-272.7 322,-272.7 322,-250.7 8,-250.7"/>
<polygon fill="none" stroke="#000000" points="8,-250.7 8,-272.7 322,-272.7 322,-250.7 8,-250.7"/>
<text text-anchor="start" x="28" y="-257.8" font-family="Helvetica,sans-Serif" font-size="11.00" fill="#000000">status</text>
<polygon fill="#ffffff" stroke="transparent" points="8,-228.7 8,-250.7 322,-250.7 322,-228.7 8,-228.7"/>
<polygon fill="none" stroke="#000000" points="8,-228.7 8,-250.7 322,-250.7 322,-228.7 8,-228.7"/>
<text text-anchor="start" x="28" y="-235.8" font-family="Helvetica,sans-Serif" font-size="11.00" fill="#000000">date_time_of_discovery</text>
<polygon fill="#ffffff" stroke="transparent" points="8,-206.7 8,-228.7 322,-228.7 322,-206.7 8,-206.7"/>
<polygon fill="none" stroke="#000000" points="8,-206.7 8,-228.7 322,-228.7 322,-206.7 8,-206.7"/>
<text text-anchor="start" x="28" y="-213.8" font-family="Helvetica,sans-Serif" font-size="11.00" fill="#000000">date_time_of_first_hearing</text>
<polygon fill="#ffffff" stroke="transparent" points="8,-184.7 8,-206.7 322,-206.7 322,-184.7 8,-184.7"/>
<polygon fill="none" stroke="#000000" points="8,-184.7 8,-206.7 322,-206.7 322,-184.7 8,-184.7"/>
<text text-anchor="start" x="28" y="-191.8" font-family="Helvetica,sans-Serif" font-size="11.00" fill="#000000">override_agency_id</text>
<polygon fill="#ffffff" stroke="transparent" points="8,-162.7 8,-184.7 322,-184.7 322,-162.7 8,-162.7"/>
<polygon fill="none" stroke="#000000" points="8,-162.7 8,-184.7 322,-184.7 322,-162.7 8,-162.7"/>
<text text-anchor="start" x="28" y="-169.8" font-family="Helvetica,sans-Serif" font-size="11.00" fill="#000000">migrated</text>
<polygon fill="#ffffff" stroke="transparent" points="8,-140.7 8,-162.7 322,-162.7 322,-140.7 8,-140.7"/>
<polygon fill="none" stroke="#000000" points="8,-140.7 8,-162.7 322,-162.7 322,-140.7 8,-140.7"/>
<text text-anchor="start" x="28" y="-147.8" font-family="Helvetica,sans-Serif" font-size="11.00" fill="#000000">offender_booking_id</text>
<polygon fill="none" stroke="#000000" points="8,-121.7 8,-140.7 322,-140.7 322,-121.7 8,-121.7"/>
<text text-anchor="start" x="11" y="-127.8" font-family="Helvetica,sans-Serif" font-size="11.00" fill="#000000">...</text>
<polygon fill="#ffffff" stroke="transparent" points="8,-102.7 8,-121.7 154,-121.7 154,-102.7 8,-102.7"/>
<polygon fill="none" stroke="#000000" points="8,-102.7 8,-121.7 154,-121.7 154,-102.7 8,-102.7"/>
<text text-anchor="start" x="11" y="-108.8" font-family="Helvetica,sans-Serif" font-size="11.00" fill="#000000"> &#160;</text>
<polygon fill="#ffffff" stroke="transparent" points="154,-102.7 154,-121.7 233,-121.7 233,-102.7 154,-102.7"/>
<polygon fill="none" stroke="#000000" points="154,-102.7 154,-121.7 233,-121.7 233,-102.7 154,-102.7"/>
<text text-anchor="start" x="223.8862" y="-108.8" font-family="Helvetica,sans-Serif" font-size="11.00" fill="#000000"> &#160;</text>
<polygon fill="#ffffff" stroke="transparent" points="233,-102.7 233,-121.7 322,-121.7 322,-102.7 233,-102.7"/>
<polygon fill="none" stroke="#000000" points="233,-102.7 233,-121.7 322,-121.7 322,-102.7 233,-102.7"/>
<text text-anchor="start" x="303.4053" y="-108.8" font-family="Helvetica,sans-Serif" font-size="11.00" fill="#000000">9 &gt;</text>
</a>
</g>
</g>
<!-- dis_issue_history&#45;&gt;reported_adjudications -->
<g id="edge1" class="edge">
<title>dis_issue_history:w&#45;&gt;reported_adjudications:e</title>
<path fill="none" stroke="#000000" d="M433.5749,-393.7C389.0758,-393.7 372.8594,-393.7 322,-393.7"/>
<polygon fill="#000000" stroke="#000000" points="440,-393.7001 448,-397.3 444,-393.7 448,-393.7 448,-393.7 448,-393.7 444,-393.7 448,-390.1 440,-393.7001 440,-393.7001"/>
<ellipse fill="none" stroke="#000000" cx="436.8" cy="-393.7001" rx="3.2" ry="3.2"/>
</g>
<!-- hearing -->
<g id="node3" class="node">
<title>hearing</title>
<g id="a_node3"><a xlink:href="../../tables/hearing.html" xlink:title="hearing" target="_top">
<polygon fill="#ffffff" stroke="transparent" points="371,-694.7 371,-1092.7 677,-1092.7 677,-694.7 371,-694.7"/>
<polygon fill="#f5f5f5" stroke="transparent" points="373,-1067.7 373,-1090.7 675,-1090.7 675,-1067.7 373,-1067.7"/>
<polygon fill="none" stroke="#000000" points="373,-1067.7 373,-1090.7 675,-1090.7 675,-1067.7 373,-1067.7"/>
<text text-anchor="start" x="378" y="-1076.3" font-family="Helvetica,sans-Serif" font-weight="bold" font-size="11.00" fill="#000000">hearing</text>
<text text-anchor="start" x="640.0437" y="-1075.8" font-family="Helvetica,sans-Serif" font-size="11.00" fill="#000000">[table]</text>
<polygon fill="none" stroke="#000000" points="373,-1045.7 373,-1067.7 581,-1067.7 581,-1045.7 373,-1045.7"/>
<image xlink:href="../../images/primaryKeys.png" width="11px" height="12px" preserveAspectRatio="xMinYMin meet" x="378" y="-1062.7"/>
<text text-anchor="start" x="393" y="-1052.8" font-family="Helvetica,sans-Serif" font-size="11.00" fill="#000000">id</text>
<polygon fill="none" stroke="#000000" points="581,-1045.7 581,-1067.7 675,-1067.7 675,-1045.7 581,-1045.7"/>
<text text-anchor="start" x="584" y="-1053.4" font-family="Helvetica,sans-Serif" font-size="11.00" fill="#000000">serial[10]</text>
<polygon fill="#ffffff" stroke="transparent" points="373,-1023.7 373,-1045.7 581,-1045.7 581,-1023.7 373,-1023.7"/>
<polygon fill="none" stroke="#000000" points="373,-1023.7 373,-1045.7 581,-1045.7 581,-1023.7 373,-1023.7"/>
<image xlink:href="../../images/foreignKeys.png" width="11px" height="12px" preserveAspectRatio="xMinYMin meet" x="378" y="-1040.7"/>
<text text-anchor="start" x="393" y="-1030.8" font-family="Helvetica,sans-Serif" font-size="11.00" fill="#000000">reported_adjudication_fk_id</text>
<polygon fill="none" stroke="#000000" points="581,-1023.7 581,-1045.7 675,-1045.7 675,-1023.7 581,-1023.7"/>
<text text-anchor="start" x="584" y="-1031.4" font-family="Helvetica,sans-Serif" font-size="11.00" fill="#000000">int8[19]</text>
<polygon fill="#ffffff" stroke="transparent" points="373,-1001.7 373,-1023.7 581,-1023.7 581,-1001.7 373,-1001.7"/>
<polygon fill="none" stroke="#000000" points="373,-1001.7 373,-1023.7 581,-1023.7 581,-1001.7 373,-1001.7"/>
<text text-anchor="start" x="393" y="-1008.8" font-family="Helvetica,sans-Serif" font-size="11.00" fill="#000000">agency_id</text>
<polygon fill="none" stroke="#000000" points="581,-1001.7 581,-1023.7 675,-1023.7 675,-1001.7 581,-1001.7"/>
<text text-anchor="start" x="584" y="-1009.4" font-family="Helvetica,sans-Serif" font-size="11.00" fill="#000000">varchar[6]</text>
<polygon fill="none" stroke="#000000" points="373,-979.7 373,-1001.7 581,-1001.7 581,-979.7 373,-979.7"/>
<text text-anchor="start" x="393" y="-986.8" font-family="Helvetica,sans-Serif" font-size="11.00" fill="#000000">location_id</text>
<polygon fill="none" stroke="#000000" points="581,-979.7 581,-1001.7 675,-1001.7 675,-979.7 581,-979.7"/>
<text text-anchor="start" x="584" y="-987.4" font-family="Helvetica,sans-Serif" font-size="11.00" fill="#000000">int8[19]</text>
<polygon fill="#ffffff" stroke="transparent" points="373,-957.7 373,-979.7 581,-979.7 581,-957.7 373,-957.7"/>
<polygon fill="none" stroke="#000000" points="373,-957.7 373,-979.7 581,-979.7 581,-957.7 373,-957.7"/>
<text text-anchor="start" x="393" y="-964.8" font-family="Helvetica,sans-Serif" font-size="11.00" fill="#000000">date_time_of_hearing</text>
<polygon fill="none" stroke="#000000" points="581,-957.7 581,-979.7 675,-979.7 675,-957.7 581,-957.7"/>
<text text-anchor="start" x="584" y="-965.4" font-family="Helvetica,sans-Serif" font-size="11.00" fill="#000000">timestamp[29,6]</text>
<polygon fill="none" stroke="#000000" points="373,-935.7 373,-957.7 581,-957.7 581,-935.7 373,-935.7"/>
<text text-anchor="start" x="393" y="-942.8" font-family="Helvetica,sans-Serif" font-size="11.00" fill="#000000">create_user_id</text>
<polygon fill="none" stroke="#000000" points="581,-935.7 581,-957.7 675,-957.7 675,-935.7 581,-935.7"/>
<text text-anchor="start" x="584" y="-943.4" font-family="Helvetica,sans-Serif" font-size="11.00" fill="#000000">varchar[32]</text>
<polygon fill="none" stroke="#000000" points="373,-913.7 373,-935.7 581,-935.7 581,-913.7 373,-913.7"/>
<text text-anchor="start" x="393" y="-920.8" font-family="Helvetica,sans-Serif" font-size="11.00" fill="#000000">create_datetime</text>
<polygon fill="none" stroke="#000000" points="581,-913.7 581,-935.7 675,-935.7 675,-913.7 581,-913.7"/>
<text text-anchor="start" x="584" y="-921.4" font-family="Helvetica,sans-Serif" font-size="11.00" fill="#000000">timestamp[29,6]</text>
<polygon fill="none" stroke="#000000" points="373,-891.7 373,-913.7 581,-913.7 581,-891.7 373,-891.7"/>
<text text-anchor="start" x="393" y="-898.8" font-family="Helvetica,sans-Serif" font-size="11.00" fill="#000000">modify_user_id</text>
<polygon fill="none" stroke="#000000" points="581,-891.7 581,-913.7 675,-913.7 675,-891.7 581,-891.7"/>
<text text-anchor="start" x="584" y="-899.4" font-family="Helvetica,sans-Serif" font-size="11.00" fill="#000000">varchar[32]</text>
<polygon fill="none" stroke="#000000" points="373,-869.7 373,-891.7 581,-891.7 581,-869.7 373,-869.7"/>
<text text-anchor="start" x="393" y="-876.8" font-family="Helvetica,sans-Serif" font-size="11.00" fill="#000000">modify_datetime</text>
<polygon fill="none" stroke="#000000" points="581,-869.7 581,-891.7 675,-891.7 675,-869.7 581,-869.7"/>
<text text-anchor="start" x="584" y="-877.4" font-family="Helvetica,sans-Serif" font-size="11.00" fill="#000000">timestamp[29,6]</text>
<polygon fill="#ffffff" stroke="transparent" points="373,-847.7 373,-869.7 581,-869.7 581,-847.7 373,-847.7"/>
<polygon fill="none" stroke="#000000" points="373,-847.7 373,-869.7 581,-869.7 581,-847.7 373,-847.7"/>
<text text-anchor="start" x="393" y="-854.8" font-family="Helvetica,sans-Serif" font-size="11.00" fill="#000000">charge_number</text>
<polygon fill="none" stroke="#000000" points="581,-847.7 581,-869.7 675,-869.7 675,-847.7 581,-847.7"/>
<text text-anchor="start" x="584" y="-855.4" font-family="Helvetica,sans-Serif" font-size="11.00" fill="#000000">varchar[16]</text>
<polygon fill="none" stroke="#000000" points="373,-825.7 373,-847.7 581,-847.7 581,-825.7 373,-825.7"/>
<text text-anchor="start" x="393" y="-832.8" font-family="Helvetica,sans-Serif" font-size="11.00" fill="#000000">oic_hearing_id</text>
<polygon fill="none" stroke="#000000" points="581,-825.7 581,-847.7 675,-847.7 675,-825.7 581,-825.7"/>
<text text-anchor="start" x="584" y="-833.4" font-family="Helvetica,sans-Serif" font-size="11.00" fill="#000000">int8[19]</text>
<polygon fill="none" stroke="#000000" points="373,-803.7 373,-825.7 581,-825.7 581,-803.7 373,-803.7"/>
<text text-anchor="start" x="393" y="-810.8" font-family="Helvetica,sans-Serif" font-size="11.00" fill="#000000">oic_hearing_type</text>
<polygon fill="none" stroke="#000000" points="581,-803.7 581,-825.7 675,-825.7 675,-803.7 581,-803.7"/>
<text text-anchor="start" x="584" y="-811.4" font-family="Helvetica,sans-Serif" font-size="11.00" fill="#000000">varchar[32]</text>
<polygon fill="#ffffff" stroke="transparent" points="373,-781.7 373,-803.7 581,-803.7 581,-781.7 373,-781.7"/>
<polygon fill="none" stroke="#000000" points="373,-781.7 373,-803.7 581,-803.7 581,-781.7 373,-781.7"/>
<image xlink:href="../../images/foreignKeys.png" width="11px" height="12px" preserveAspectRatio="xMinYMin meet" x="378" y="-798.7"/>
<text text-anchor="start" x="393" y="-788.8" font-family="Helvetica,sans-Serif" font-size="11.00" fill="#000000">outcome_id</text>
<polygon fill="none" stroke="#000000" points="581,-781.7 581,-803.7 675,-803.7 675,-781.7 581,-781.7"/>
<text text-anchor="start" x="584" y="-789.4" font-family="Helvetica,sans-Serif" font-size="11.00" fill="#000000">int4[10]</text>
<polygon fill="#ffffff" stroke="transparent" points="373,-759.7 373,-781.7 581,-781.7 581,-759.7 373,-759.7"/>
<polygon fill="none" stroke="#000000" points="373,-759.7 373,-781.7 581,-781.7 581,-759.7 373,-759.7"/>
<text text-anchor="start" x="393" y="-766.8" font-family="Helvetica,sans-Serif" font-size="11.00" fill="#000000">hearing_pre_migrate_id</text>
<polygon fill="none" stroke="#000000" points="581,-759.7 581,-781.7 675,-781.7 675,-759.7 581,-759.7"/>
<text text-anchor="start" x="584" y="-767.4" font-family="Helvetica,sans-Serif" font-size="11.00" fill="#000000">int4[10]</text>
<polygon fill="none" stroke="#000000" points="373,-737.7 373,-759.7 581,-759.7 581,-737.7 373,-737.7"/>
<text text-anchor="start" x="393" y="-744.8" font-family="Helvetica,sans-Serif" font-size="11.00" fill="#000000">representative</text>
<polygon fill="none" stroke="#000000" points="581,-737.7 581,-759.7 675,-759.7 675,-737.7 581,-737.7"/>
<text text-anchor="start" x="584" y="-745.4" font-family="Helvetica,sans-Serif" font-size="11.00" fill="#000000">varchar[240]</text>
<polygon fill="none" stroke="#000000" points="373,-715.7 373,-737.7 581,-737.7 581,-715.7 373,-715.7"/>
<text text-anchor="start" x="393" y="-722.8" font-family="Helvetica,sans-Serif" font-size="11.00" fill="#000000">location_uuid</text>
<polygon fill="none" stroke="#000000" points="581,-715.7 581,-737.7 675,-737.7 675,-715.7 581,-715.7"/>
<text text-anchor="start" x="583.9758" y="-723.4" font-family="Helvetica,sans-Serif" font-size="11.00" fill="#000000">uuid[2147483647]</text>
<polygon fill="#ffffff" stroke="transparent" points="373,-696.7 373,-715.7 481,-715.7 481,-696.7 373,-696.7"/>
<polygon fill="none" stroke="#000000" points="373,-696.7 373,-715.7 481,-715.7 481,-696.7 373,-696.7"/>
<text text-anchor="start" x="376" y="-702.8" font-family="Helvetica,sans-Serif" font-size="11.00" fill="#000000">&lt; 2</text>
<polygon fill="#ffffff" stroke="transparent" points="481,-696.7 481,-715.7 581,-715.7 581,-696.7 481,-696.7"/>
<polygon fill="none" stroke="#000000" points="481,-696.7 481,-715.7 581,-715.7 581,-696.7 481,-696.7"/>
<text text-anchor="start" x="571.8862" y="-702.8" font-family="Helvetica,sans-Serif" font-size="11.00" fill="#000000"> &#160;</text>
<polygon fill="#ffffff" stroke="transparent" points="581,-696.7 581,-715.7 675,-715.7 675,-696.7 581,-696.7"/>
<polygon fill="none" stroke="#000000" points="581,-696.7 581,-715.7 675,-715.7 675,-696.7 581,-696.7"/>
<text text-anchor="start" x="656.4053" y="-702.8" font-family="Helvetica,sans-Serif" font-size="11.00" fill="#000000">0 &gt;</text>
<polygon fill="none" stroke="#000000" stroke-width="2" points="372,-695.7 372,-1091.7 676,-1091.7 676,-695.7 372,-695.7"/>
</a>
</g>
</g>
<!-- hearing&#45;&gt;reported_adjudications -->
<g id="edge3" class="edge">
<title>hearing:w&#45;&gt;reported_adjudications:e</title>
<path fill="none" stroke="#000000" d="M360.8316,-1026.5954C313.0372,-952.3939 388.7027,-393.7 322,-393.7"/>
<polygon fill="#000000" stroke="#000000" points="366.3417,-1030.2653 371.0044,-1037.6963 369.6708,-1032.4826 373,-1034.7 373,-1034.7 373,-1034.7 369.6708,-1032.4826 374.9956,-1031.7037 366.3417,-1030.2653 366.3417,-1030.2653"/>
<ellipse fill="none" stroke="#000000" cx="363.6783" cy="-1028.4914" rx="3.2" ry="3.2"/>
</g>
<!-- hearing_outcome -->
<g id="node4" class="node">
<title>hearing_outcome</title>
<g id="a_node4"><a xlink:href="../../tables/hearing_outcome.html" xlink:title="hearing_outcome" target="_top">
<polygon fill="#ffffff" stroke="transparent" points="43.5,-722.2 43.5,-827.2 286.5,-827.2 286.5,-722.2 43.5,-722.2"/>
<polygon fill="#f5f5f5" stroke="transparent" points="44,-803.7 44,-826.7 287,-826.7 287,-803.7 44,-803.7"/>
<polygon fill="none" stroke="#000000" points="44,-803.7 44,-826.7 287,-826.7 287,-803.7 44,-803.7"/>
<text text-anchor="start" x="49" y="-812.3" font-family="Helvetica,sans-Serif" font-weight="bold" font-size="11.00" fill="#000000">hearing_outcome</text>
<text text-anchor="start" x="252.0437" y="-811.8" font-family="Helvetica,sans-Serif" font-size="11.00" fill="#000000">[table]</text>
<polygon fill="none" stroke="#000000" points="44,-781.7 44,-803.7 287,-803.7 287,-781.7 44,-781.7"/>
<image xlink:href="../../images/primaryKeys.png" width="11px" height="12px" preserveAspectRatio="xMinYMin meet" x="49" y="-798.7"/>
<text text-anchor="start" x="64" y="-788.8" font-family="Helvetica,sans-Serif" font-size="11.00" fill="#000000">id</text>
<polygon fill="#ffffff" stroke="transparent" points="44,-759.7 44,-781.7 287,-781.7 287,-759.7 44,-759.7"/>
<polygon fill="none" stroke="#000000" points="44,-759.7 44,-781.7 287,-781.7 287,-759.7 44,-759.7"/>
<text text-anchor="start" x="64" y="-766.8" font-family="Helvetica,sans-Serif" font-size="11.00" fill="#000000">hearing_outcome_pre_migrate_id</text>
<polygon fill="none" stroke="#000000" points="44,-740.7 44,-759.7 287,-759.7 287,-740.7 44,-740.7"/>
<text text-anchor="start" x="47" y="-746.8" font-family="Helvetica,sans-Serif" font-size="11.00" fill="#000000">...</text>
<polygon fill="#ffffff" stroke="transparent" points="44,-721.7 44,-740.7 155,-740.7 155,-721.7 44,-721.7"/>
<polygon fill="none" stroke="#000000" points="44,-721.7 44,-740.7 155,-740.7 155,-721.7 44,-721.7"/>
<text text-anchor="start" x="47" y="-727.8" font-family="Helvetica,sans-Serif" font-size="11.00" fill="#000000"> &#160;</text>
<polygon fill="#ffffff" stroke="transparent" points="155,-721.7 155,-740.7 216,-740.7 216,-721.7 155,-721.7"/>
<polygon fill="none" stroke="#000000" points="155,-721.7 155,-740.7 216,-740.7 216,-721.7 155,-721.7"/>
<text text-anchor="start" x="206.8862" y="-727.8" font-family="Helvetica,sans-Serif" font-size="11.00" fill="#000000"> &#160;</text>
<polygon fill="#ffffff" stroke="transparent" points="216,-721.7 216,-740.7 287,-740.7 287,-721.7 216,-721.7"/>
<polygon fill="none" stroke="#000000" points="216,-721.7 216,-740.7 287,-740.7 287,-721.7 216,-721.7"/>
<text text-anchor="start" x="268.4053" y="-727.8" font-family="Helvetica,sans-Serif" font-size="11.00" fill="#000000">1 &gt;</text>
</a>
</g>
</g>
<!-- hearing&#45;&gt;hearing_outcome -->
<g id="edge2" class="edge">
<title>hearing:w&#45;&gt;hearing_outcome:e</title>
<path fill="none" stroke="#000000" d="M358.4162,-792.7C331.5234,-792.7 319.8472,-792.7 287,-792.7"/>
<polygon fill="#000000" stroke="#000000" points="365,-792.7001 373,-796.3 369,-792.7 373,-792.7 373,-792.7 373,-792.7 369,-792.7 373,-789.1 365,-792.7001 365,-792.7001"/>
<ellipse fill="none" stroke="#000000" cx="361.8" cy="-792.7001" rx="3.2" ry="3.2"/>
</g>
<!-- outcome -->
<g id="node5" class="node">
<title>outcome</title>
<g id="a_node5"><a xlink:href="../../tables/outcome.html" xlink:title="outcome" target="_top">
<polygon fill="#ffffff" stroke="transparent" points="475.5,-284.2 475.5,-345.2 572.5,-345.2 572.5,-284.2 475.5,-284.2"/>
<polygon fill="#f5f5f5" stroke="transparent" points="476,-321.7 476,-344.7 573,-344.7 573,-321.7 476,-321.7"/>
<polygon fill="none" stroke="#000000" points="476,-321.7 476,-344.7 573,-344.7 573,-321.7 476,-321.7"/>
<text text-anchor="start" x="481" y="-330.3" font-family="Helvetica,sans-Serif" font-weight="bold" font-size="11.00" fill="#000000">outcome</text>
<text text-anchor="start" x="538.5219" y="-329.8" font-family="Helvetica,sans-Serif" font-size="11.00" fill="#000000">[table]</text>
<polygon fill="none" stroke="#000000" points="476,-302.7 476,-321.7 573,-321.7 573,-302.7 476,-302.7"/>
<text text-anchor="start" x="479" y="-308.8" font-family="Helvetica,sans-Serif" font-size="11.00" fill="#000000">...</text>
<polygon fill="#ffffff" stroke="transparent" points="476,-283.7 476,-302.7 523,-302.7 523,-283.7 476,-283.7"/>
<polygon fill="none" stroke="#000000" points="476,-283.7 476,-302.7 523,-302.7 523,-283.7 476,-283.7"/>
<text text-anchor="start" x="479" y="-289.8" font-family="Helvetica,sans-Serif" font-size="11.00" fill="#000000">&lt; 1</text>
<polygon fill="#ffffff" stroke="transparent" points="523,-283.7 523,-302.7 548,-302.7 548,-283.7 523,-283.7"/>
<polygon fill="none" stroke="#000000" points="523,-283.7 523,-302.7 548,-302.7 548,-283.7 523,-283.7"/>
<text text-anchor="start" x="538.8862" y="-289.8" font-family="Helvetica,sans-Serif" font-size="11.00" fill="#000000"> &#160;</text>
<polygon fill="#ffffff" stroke="transparent" points="548,-283.7 548,-302.7 573,-302.7 573,-283.7 548,-283.7"/>
<polygon fill="none" stroke="#000000" points="548,-283.7 548,-302.7 573,-302.7 573,-283.7 548,-283.7"/>
<text text-anchor="start" x="563.8862" y="-289.8" font-family="Helvetica,sans-Serif" font-size="11.00" fill="#000000"> &#160;</text>
</a>
</g>
</g>
<!-- outcome&#45;&gt;reported_adjudications -->
<g id="edge4" class="edge">
<title>outcome:w&#45;&gt;reported_adjudications:e</title>
<path fill="none" stroke="#000000" d="M461.5745,-312.1212C419.2399,-314.7685 404.3089,-329.8371 363,-355.7 341.9416,-368.8844 346.8452,-393.7 322,-393.7"/>
<polygon fill="#000000" stroke="#000000" points="468.0034,-311.9336 476.1051,-315.2985 472.0017,-311.8168 476,-311.7 476,-311.7 476,-311.7 472.0017,-311.8168 475.8949,-308.1015 468.0034,-311.9336 468.0034,-311.9336"/>
<ellipse fill="none" stroke="#000000" cx="464.8048" cy="-312.027" rx="3.2" ry="3.2"/>
</g>
<!-- punishment -->
<g id="node6" class="node">
<title>punishment</title>
<g id="a_node6"><a xlink:href="../../tables/punishment.html" xlink:title="punishment" target="_top">
<polygon fill="#ffffff" stroke="transparent" points="464.5,-202.2 464.5,-263.2 583.5,-263.2 583.5,-202.2 464.5,-202.2"/>
<polygon fill="#f5f5f5" stroke="transparent" points="465,-239.7 465,-262.7 584,-262.7 584,-239.7 465,-239.7"/>
<polygon fill="none" stroke="#000000" points="465,-239.7 465,-262.7 584,-262.7 584,-239.7 465,-239.7"/>
<text text-anchor="start" x="470" y="-248.3" font-family="Helvetica,sans-Serif" font-weight="bold" font-size="11.00" fill="#000000">punishment</text>
<text text-anchor="start" x="549.5219" y="-247.8" font-family="Helvetica,sans-Serif" font-size="11.00" fill="#000000">[table]</text>
<polygon fill="none" stroke="#000000" points="465,-220.7 465,-239.7 584,-239.7 584,-220.7 465,-220.7"/>
<text text-anchor="start" x="468" y="-226.8" font-family="Helvetica,sans-Serif" font-size="11.00" fill="#000000">...</text>
<polygon fill="#ffffff" stroke="transparent" points="465,-201.7 465,-220.7 518,-220.7 518,-201.7 465,-201.7"/>
<polygon fill="none" stroke="#000000" points="465,-201.7 465,-220.7 518,-220.7 518,-201.7 465,-201.7"/>
<text text-anchor="start" x="468" y="-207.8" font-family="Helvetica,sans-Serif" font-size="11.00" fill="#000000">&lt; 1</text>
<polygon fill="#ffffff" stroke="transparent" points="518,-201.7 518,-220.7 546,-220.7 546,-201.7 518,-201.7"/>
<polygon fill="none" stroke="#000000" points="518,-201.7 518,-220.7 546,-220.7 546,-201.7 518,-201.7"/>
<text text-anchor="start" x="536.8862" y="-207.8" font-family="Helvetica,sans-Serif" font-size="11.00" fill="#000000"> &#160;</text>
<polygon fill="#ffffff" stroke="transparent" points="546,-201.7 546,-220.7 584,-220.7 584,-201.7 546,-201.7"/>
<polygon fill="none" stroke="#000000" points="546,-201.7 546,-220.7 584,-220.7 584,-201.7 546,-201.7"/>
<text text-anchor="start" x="565.4053" y="-207.8" font-family="Helvetica,sans-Serif" font-size="11.00" fill="#000000">2 &gt;</text>
</a>
</g>
</g>
<!-- punishment&#45;&gt;reported_adjudications -->
<g id="edge5" class="edge">
<title>punishment:w&#45;&gt;reported_adjudications:e</title>
<path fill="none" stroke="#000000" d="M450.5912,-229.9723C411.5186,-231.6107 393.0525,-241.2062 363,-273.7 324.7319,-315.0768 378.3604,-393.7 322,-393.7"/>
<polygon fill="#000000" stroke="#000000" points="457.0014,-229.8512 465.068,-233.2994 461.0007,-229.7756 465,-229.7 465,-229.7 465,-229.7 461.0007,-229.7756 464.932,-226.1006 457.0014,-229.8512 457.0014,-229.8512"/>
<ellipse fill="none" stroke="#000000" cx="453.802" cy="-229.9117" rx="3.2" ry="3.2"/>
</g>
<!-- punishment_comments -->
<g id="node7" class="node">
<title>punishment_comments</title>
<g id="a_node7"><a xlink:href="../../tables/punishment_comments.html" xlink:title="punishment_comments" target="_top">
<polygon fill="#ffffff" stroke="transparent" points="426.5,-120.2 426.5,-181.2 621.5,-181.2 621.5,-120.2 426.5,-120.2"/>
<polygon fill="#f5f5f5" stroke="transparent" points="427,-157.7 427,-180.7 622,-180.7 622,-157.7 427,-157.7"/>
<polygon fill="none" stroke="#000000" points="427,-157.7 427,-180.7 622,-180.7 622,-157.7 427,-157.7"/>
<text text-anchor="start" x="432" y="-166.3" font-family="Helvetica,sans-Serif" font-weight="bold" font-size="11.00" fill="#000000">punishment_comments</text>
<text text-anchor="start" x="587.5219" y="-165.8" font-family="Helvetica,sans-Serif" font-size="11.00" fill="#000000">[table]</text>
<polygon fill="none" stroke="#000000" points="427,-138.7 427,-157.7 622,-157.7 622,-138.7 427,-138.7"/>
<text text-anchor="start" x="430" y="-144.8" font-family="Helvetica,sans-Serif" font-size="11.00" fill="#000000">...</text>
<polygon fill="#ffffff" stroke="transparent" points="427,-119.7 427,-138.7 523,-138.7 523,-119.7 427,-119.7"/>
<polygon fill="none" stroke="#000000" points="427,-119.7 427,-138.7 523,-138.7 523,-119.7 427,-119.7"/>
<text text-anchor="start" x="430" y="-125.8" font-family="Helvetica,sans-Serif" font-size="11.00" fill="#000000">&lt; 1</text>
<polygon fill="#ffffff" stroke="transparent" points="523,-119.7 523,-138.7 572,-138.7 572,-119.7 523,-119.7"/>
<polygon fill="none" stroke="#000000" points="523,-119.7 523,-138.7 572,-138.7 572,-119.7 523,-119.7"/>
<text text-anchor="start" x="562.8862" y="-125.8" font-family="Helvetica,sans-Serif" font-size="11.00" fill="#000000"> &#160;</text>
<polygon fill="#ffffff" stroke="transparent" points="572,-119.7 572,-138.7 622,-138.7 622,-119.7 572,-119.7"/>
<polygon fill="none" stroke="#000000" points="572,-119.7 572,-138.7 622,-138.7 622,-119.7 572,-119.7"/>
<text text-anchor="start" x="612.8862" y="-125.8" font-family="Helvetica,sans-Serif" font-size="11.00" fill="#000000"> &#160;</text>
</a>
</g>
</g>
<!-- punishment_comments&#45;&gt;reported_adjudications -->
<g id="edge6" class="edge">
<title>punishment_comments:w&#45;&gt;reported_adjudications:e</title>
<path fill="none" stroke="#000000" d="M412.4585,-148.8078C389.0096,-152.7847 379.0676,-167.4084 363,-191.7 312.4613,-268.1064 413.6084,-393.7 322,-393.7"/>
<polygon fill="#000000" stroke="#000000" points="419.0231,-148.3077 427.2735,-151.2896 423.0116,-148.0039 427,-147.7 427,-147.7 427,-147.7 423.0116,-148.0039 426.7265,-144.1104 419.0231,-148.3077 419.0231,-148.3077"/>
<ellipse fill="none" stroke="#000000" cx="415.8324" cy="-148.5508" rx="3.2" ry="3.2"/>
</g>
<!-- reported_damages -->
<g id="node8" class="node">
<title>reported_damages</title>
<g id="a_node8"><a xlink:href="../../tables/reported_damages.html" xlink:title="reported_damages" target="_top">
<polygon fill="#ffffff" stroke="transparent" points="441.5,-38.2 441.5,-99.2 606.5,-99.2 606.5,-38.2 441.5,-38.2"/>
<polygon fill="#f5f5f5" stroke="transparent" points="442,-75.7 442,-98.7 607,-98.7 607,-75.7 442,-75.7"/>
<polygon fill="none" stroke="#000000" points="442,-75.7 442,-98.7 607,-98.7 607,-75.7 442,-75.7"/>
<text text-anchor="start" x="447" y="-84.3" font-family="Helvetica,sans-Serif" font-weight="bold" font-size="11.00" fill="#000000">reported_damages</text>
<text text-anchor="start" x="572.5219" y="-83.8" font-family="Helvetica,sans-Serif" font-size="11.00" fill="#000000">[table]</text>
<polygon fill="none" stroke="#000000" points="442,-56.7 442,-75.7 607,-75.7 607,-56.7 442,-56.7"/>
<text text-anchor="start" x="445" y="-62.8" font-family="Helvetica,sans-Serif" font-size="11.00" fill="#000000">...</text>
<polygon fill="#ffffff" stroke="transparent" points="442,-37.7 442,-56.7 523,-56.7 523,-37.7 442,-37.7"/>
<polygon fill="none" stroke="#000000" points="442,-37.7 442,-56.7 523,-56.7 523,-37.7 442,-37.7"/>
<text text-anchor="start" x="445" y="-43.8" font-family="Helvetica,sans-Serif" font-size="11.00" fill="#000000">&lt; 1</text>
<polygon fill="#ffffff" stroke="transparent" points="523,-37.7 523,-56.7 565,-56.7 565,-37.7 523,-37.7"/>
<polygon fill="none" stroke="#000000" points="523,-37.7 523,-56.7 565,-56.7 565,-37.7 523,-37.7"/>
<text text-anchor="start" x="555.8862" y="-43.8" font-family="Helvetica,sans-Serif" font-size="11.00" fill="#000000"> &#160;</text>
<polygon fill="#ffffff" stroke="transparent" points="565,-37.7 565,-56.7 607,-56.7 607,-37.7 565,-37.7"/>
<polygon fill="none" stroke="#000000" points="565,-37.7 565,-56.7 607,-56.7 607,-37.7 565,-37.7"/>
<text text-anchor="start" x="597.8862" y="-43.8" font-family="Helvetica,sans-Serif" font-size="11.00" fill="#000000"> &#160;</text>
</a>
</g>
</g>
<!-- reported_damages&#45;&gt;reported_adjudications -->
<g id="edge7" class="edge">
<title>reported_damages:w&#45;&gt;reported_adjudications:e</title>
<path fill="none" stroke="#000000" d="M427.5966,-66.2675C397.5681,-68.8787 382.8541,-80.8653 363,-109.7 326.8377,-162.2196 385.7654,-393.7 322,-393.7"/>
<polygon fill="#000000" stroke="#000000" points="434.0062,-66.015 442.1418,-69.2972 438.0031,-65.8575 442,-65.7 442,-65.7 442,-65.7 438.0031,-65.8575 441.8582,-62.1028 434.0062,-66.015 434.0062,-66.015"/>
<ellipse fill="none" stroke="#000000" cx="430.8087" cy="-66.141" rx="3.2" ry="3.2"/>
</g>
<!-- reported_evidence -->
<g id="node9" class="node">
<title>reported_evidence</title>
<g id="a_node9"><a xlink:href="../../tables/reported_evidence.html" xlink:title="reported_evidence" target="_top">
<polygon fill="#ffffff" stroke="transparent" points="442,-612.2 442,-673.2 606,-673.2 606,-612.2 442,-612.2"/>
<polygon fill="#f5f5f5" stroke="transparent" points="442,-649.7 442,-672.7 606,-672.7 606,-649.7 442,-649.7"/>
<polygon fill="none" stroke="#000000" points="442,-649.7 442,-672.7 606,-672.7 606,-649.7 442,-649.7"/>
<text text-anchor="start" x="447" y="-658.3" font-family="Helvetica,sans-Serif" font-weight="bold" font-size="11.00" fill="#000000">reported_evidence</text>
<text text-anchor="start" x="571.5219" y="-657.8" font-family="Helvetica,sans-Serif" font-size="11.00" fill="#000000">[table]</text>
<polygon fill="none" stroke="#000000" points="442,-630.7 442,-649.7 606,-649.7 606,-630.7 442,-630.7"/>
<text text-anchor="start" x="445" y="-636.8" font-family="Helvetica,sans-Serif" font-size="11.00" fill="#000000">...</text>
<polygon fill="#ffffff" stroke="transparent" points="442,-611.7 442,-630.7 522,-630.7 522,-611.7 442,-611.7"/>
<polygon fill="none" stroke="#000000" points="442,-611.7 442,-630.7 522,-630.7 522,-611.7 442,-611.7"/>
<text text-anchor="start" x="445" y="-617.8" font-family="Helvetica,sans-Serif" font-size="11.00" fill="#000000">&lt; 1</text>
<polygon fill="#ffffff" stroke="transparent" points="522,-611.7 522,-630.7 564,-630.7 564,-611.7 522,-611.7"/>
<polygon fill="none" stroke="#000000" points="522,-611.7 522,-630.7 564,-630.7 564,-611.7 522,-611.7"/>
<text text-anchor="start" x="554.8862" y="-617.8" font-family="Helvetica,sans-Serif" font-size="11.00" fill="#000000"> &#160;</text>
<polygon fill="#ffffff" stroke="transparent" points="564,-611.7 564,-630.7 606,-630.7 606,-611.7 564,-611.7"/>
<polygon fill="none" stroke="#000000" points="564,-611.7 564,-630.7 606,-630.7 606,-611.7 564,-611.7"/>
<text text-anchor="start" x="596.8862" y="-617.8" font-family="Helvetica,sans-Serif" font-size="11.00" fill="#000000"> &#160;</text>
</a>
</g>
</g>
<!-- reported_evidence&#45;&gt;reported_adjudications -->
<g id="edge8" class="edge">
<title>reported_evidence:w&#45;&gt;reported_adjudications:e</title>
<path fill="none" stroke="#000000" d="M427.2185,-639.255C398.4669,-637.2935 383.5833,-628.3015 363,-601.7 305.3391,-527.1799 416.2233,-393.7 322,-393.7"/>
<polygon fill="#000000" stroke="#000000" points="434.0036,-639.4592 441.8917,-643.2984 438.0018,-639.5796 442,-639.7 442,-639.7 442,-639.7 438.0018,-639.5796 442.1083,-636.1016 434.0036,-639.4592 434.0036,-639.4592"/>
<ellipse fill="none" stroke="#000000" cx="430.8051" cy="-639.3629" rx="3.2" ry="3.2"/>
</g>
<!-- reported_offence -->
<g id="node10" class="node">
<title>reported_offence</title>
<g id="a_node10"><a xlink:href="../../tables/reported_offence.html" xlink:title="reported_offence" target="_top">
<polygon fill="#ffffff" stroke="transparent" points="447,-530.2 447,-591.2 601,-591.2 601,-530.2 447,-530.2"/>
<polygon fill="#f5f5f5" stroke="transparent" points="447,-567.7 447,-590.7 601,-590.7 601,-567.7 447,-567.7"/>
<polygon fill="none" stroke="#000000" points="447,-567.7 447,-590.7 601,-590.7 601,-567.7 447,-567.7"/>
<text text-anchor="start" x="452" y="-576.3" font-family="Helvetica,sans-Serif" font-weight="bold" font-size="11.00" fill="#000000">reported_offence</text>
<text text-anchor="start" x="566.5219" y="-575.8" font-family="Helvetica,sans-Serif" font-size="11.00" fill="#000000">[table]</text>
<polygon fill="none" stroke="#000000" points="447,-548.7 447,-567.7 601,-567.7 601,-548.7 447,-548.7"/>
<text text-anchor="start" x="450" y="-554.8" font-family="Helvetica,sans-Serif" font-size="11.00" fill="#000000">...</text>
<polygon fill="#ffffff" stroke="transparent" points="447,-529.7 447,-548.7 518,-548.7 518,-529.7 447,-529.7"/>
<polygon fill="none" stroke="#000000" points="447,-529.7 447,-548.7 518,-548.7 518,-529.7 447,-529.7"/>
<text text-anchor="start" x="450" y="-535.8" font-family="Helvetica,sans-Serif" font-size="11.00" fill="#000000">&lt; 1</text>
<polygon fill="#ffffff" stroke="transparent" points="518,-529.7 518,-548.7 555,-548.7 555,-529.7 518,-529.7"/>
<polygon fill="none" stroke="#000000" points="518,-529.7 518,-548.7 555,-548.7 555,-529.7 518,-529.7"/>
<text text-anchor="start" x="545.8862" y="-535.8" font-family="Helvetica,sans-Serif" font-size="11.00" fill="#000000"> &#160;</text>
<polygon fill="#ffffff" stroke="transparent" points="555,-529.7 555,-548.7 601,-548.7 601,-529.7 555,-529.7"/>
<polygon fill="none" stroke="#000000" points="555,-529.7 555,-548.7 601,-548.7 601,-529.7 555,-529.7"/>
<text text-anchor="start" x="582.4053" y="-535.8" font-family="Helvetica,sans-Serif" font-size="11.00" fill="#000000">1 &gt;</text>
</a>
</g>
</g>
<!-- reported_offence&#45;&gt;reported_adjudications -->
<g id="edge9" class="edge">
<title>reported_offence:w&#45;&gt;reported_adjudications:e</title>
<path fill="none" stroke="#000000" d="M432.3353,-557.2941C401.7856,-555.3902 386.8104,-546.2914 363,-519.7 323.7158,-475.8275 380.8901,-393.7 322,-393.7"/>
<polygon fill="#000000" stroke="#000000" points="439.0031,-557.4786 446.9004,-561.2986 443.0015,-557.5893 447,-557.7 447,-557.7 447,-557.7 443.0015,-557.5893 447.0996,-554.1014 439.0031,-557.4786 439.0031,-557.4786"/>
<ellipse fill="none" stroke="#000000" cx="435.8043" cy="-557.39" rx="3.2" ry="3.2"/>
</g>
<!-- reported_witness -->
<g id="node11" class="node">
<title>reported_witness</title>
<g id="a_node11"><a xlink:href="../../tables/reported_witness.html" xlink:title="reported_witness" target="_top">
<polygon fill="#ffffff" stroke="transparent" points="446,-448.2 446,-509.2 602,-509.2 602,-448.2 446,-448.2"/>
<polygon fill="#f5f5f5" stroke="transparent" points="446,-485.7 446,-508.7 602,-508.7 602,-485.7 446,-485.7"/>
<polygon fill="none" stroke="#000000" points="446,-485.7 446,-508.7 602,-508.7 602,-485.7 446,-485.7"/>
<text text-anchor="start" x="451" y="-494.3" font-family="Helvetica,sans-Serif" font-weight="bold" font-size="11.00" fill="#000000">reported_witness</text>
<text text-anchor="start" x="567.5219" y="-493.8" font-family="Helvetica,sans-Serif" font-size="11.00" fill="#000000">[table]</text>
<polygon fill="none" stroke="#000000" points="446,-466.7 446,-485.7 602,-485.7 602,-466.7 446,-466.7"/>
<text text-anchor="start" x="449" y="-472.8" font-family="Helvetica,sans-Serif" font-size="11.00" fill="#000000">...</text>
<polygon fill="#ffffff" stroke="transparent" points="446,-447.7 446,-466.7 522,-466.7 522,-447.7 446,-447.7"/>
<polygon fill="none" stroke="#000000" points="446,-447.7 446,-466.7 522,-466.7 522,-447.7 446,-447.7"/>
<text text-anchor="start" x="449" y="-453.8" font-family="Helvetica,sans-Serif" font-size="11.00" fill="#000000">&lt; 1</text>
<polygon fill="#ffffff" stroke="transparent" points="522,-447.7 522,-466.7 562,-466.7 562,-447.7 522,-447.7"/>
<polygon fill="none" stroke="#000000" points="522,-447.7 522,-466.7 562,-466.7 562,-447.7 522,-447.7"/>
<text text-anchor="start" x="552.8862" y="-453.8" font-family="Helvetica,sans-Serif" font-size="11.00" fill="#000000"> &#160;</text>
<polygon fill="#ffffff" stroke="transparent" points="562,-447.7 562,-466.7 602,-466.7 602,-447.7 562,-447.7"/>
<polygon fill="none" stroke="#000000" points="562,-447.7 562,-466.7 602,-466.7 602,-447.7 562,-447.7"/>
<text text-anchor="start" x="592.8862" y="-453.8" font-family="Helvetica,sans-Serif" font-size="11.00" fill="#000000"> &#160;</text>
</a>
</g>
</g>
<!-- reported_witness&#45;&gt;reported_adjudications -->
<g id="edge10" class="edge">
<title>reported_witness:w&#45;&gt;reported_adjudications:e</title>
<path fill="none" stroke="#000000" d="M431.3502,-474.9565C402.4858,-471.7446 391.5317,-458.2858 363,-437.7 341.3235,-422.0603 348.7296,-393.7 322,-393.7"/>
<polygon fill="#000000" stroke="#000000" points="438.0103,-475.2945 445.8175,-479.2954 442.0051,-475.4972 446,-475.7 446,-475.7 446,-475.7 442.0051,-475.4972 446.1825,-472.1046 438.0103,-475.2945 438.0103,-475.2945"/>
<ellipse fill="none" stroke="#000000" cx="434.8144" cy="-475.1323" rx="3.2" ry="3.2"/>
</g>
</g>
</svg>
