<?xml version="1.0" encoding="UTF-8" standalone="no"?>
<!DOCTYPE svg PUBLIC "-//W3C//DTD SVG 1.1//EN"
 "http://www.w3.org/Graphics/SVG/1.1/DTD/svg11.dtd">
<!-- Generated by graphviz version 2.40.1 (20161225.0304)
 -->
<!-- Title: oneDegreeRelationshipsDiagram Pages: 1 -->
<svg width="693pt" height="501pt"
 viewBox="0.00 0.00 693.00 501.20" xmlns="http://www.w3.org/2000/svg" xmlns:xlink="http://www.w3.org/1999/xlink">
<g id="graph0" class="graph" transform="scale(1 1) rotate(0) translate(4 497.2)">
<title>oneDegreeRelationshipsDiagram</title>
<polygon fill="#ffffff" stroke="transparent" points="-4,4 -4,-497.2 689,-497.2 689,4 -4,4"/>
<text text-anchor="middle" x="72.4936" y="-7.3" font-family="Helvetica,sans-Serif" font-size="11.00" fill="#000000">Generated by SchemaSpy</text>
<!-- hearing -->
<g id="node1" class="node">
<title>hearing</title>
<g id="a_node1"><a xlink:href="../../tables/hearing.html" xlink:title="hearing" target="_top">
<polygon fill="#ffffff" stroke="transparent" points="371,-62.7 371,-460.7 677,-460.7 677,-62.7 371,-62.7"/>
<polygon fill="#f5f5f5" stroke="transparent" points="373,-435.7 373,-458.7 675,-458.7 675,-435.7 373,-435.7"/>
<polygon fill="none" stroke="#000000" points="373,-435.7 373,-458.7 675,-458.7 675,-435.7 373,-435.7"/>
<text text-anchor="start" x="378" y="-444.3" font-family="Helvetica,sans-Serif" font-weight="bold" font-size="11.00" fill="#000000">hearing</text>
<text text-anchor="start" x="640.0437" y="-443.8" font-family="Helvetica,sans-Serif" font-size="11.00" fill="#000000">[table]</text>
<polygon fill="none" stroke="#000000" points="373,-413.7 373,-435.7 581,-435.7 581,-413.7 373,-413.7"/>
<image xlink:href="../../images/primaryKeys.png" width="11px" height="12px" preserveAspectRatio="xMinYMin meet" x="378" y="-430.7"/>
<text text-anchor="start" x="393" y="-420.8" font-family="Helvetica,sans-Serif" font-size="11.00" fill="#000000">id</text>
<polygon fill="none" stroke="#000000" points="581,-413.7 581,-435.7 675,-435.7 675,-413.7 581,-413.7"/>
<text text-anchor="start" x="584" y="-421.4" font-family="Helvetica,sans-Serif" font-size="11.00" fill="#000000">serial[10]</text>
<polygon fill="#ffffff" stroke="transparent" points="373,-391.7 373,-413.7 581,-413.7 581,-391.7 373,-391.7"/>
<polygon fill="none" stroke="#000000" points="373,-391.7 373,-413.7 581,-413.7 581,-391.7 373,-391.7"/>
<image xlink:href="../../images/foreignKeys.png" width="11px" height="12px" preserveAspectRatio="xMinYMin meet" x="378" y="-408.7"/>
<text text-anchor="start" x="393" y="-398.8" font-family="Helvetica,sans-Serif" font-size="11.00" fill="#000000">reported_adjudication_fk_id</text>
<polygon fill="none" stroke="#000000" points="581,-391.7 581,-413.7 675,-413.7 675,-391.7 581,-391.7"/>
<text text-anchor="start" x="584" y="-399.4" font-family="Helvetica,sans-Serif" font-size="11.00" fill="#000000">int8[19]</text>
<polygon fill="#ffffff" stroke="transparent" points="373,-369.7 373,-391.7 581,-391.7 581,-369.7 373,-369.7"/>
<polygon fill="none" stroke="#000000" points="373,-369.7 373,-391.7 581,-391.7 581,-369.7 373,-369.7"/>
<text text-anchor="start" x="393" y="-376.8" font-family="Helvetica,sans-Serif" font-size="11.00" fill="#000000">agency_id</text>
<polygon fill="none" stroke="#000000" points="581,-369.7 581,-391.7 675,-391.7 675,-369.7 581,-369.7"/>
<text text-anchor="start" x="584" y="-377.4" font-family="Helvetica,sans-Serif" font-size="11.00" fill="#000000">varchar[6]</text>
<polygon fill="none" stroke="#000000" points="373,-347.7 373,-369.7 581,-369.7 581,-347.7 373,-347.7"/>
<text text-anchor="start" x="393" y="-354.8" font-family="Helvetica,sans-Serif" font-size="11.00" fill="#000000">location_id</text>
<polygon fill="none" stroke="#000000" points="581,-347.7 581,-369.7 675,-369.7 675,-347.7 581,-347.7"/>
<text text-anchor="start" x="584" y="-355.4" font-family="Helvetica,sans-Serif" font-size="11.00" fill="#000000">int8[19]</text>
<polygon fill="#ffffff" stroke="transparent" points="373,-325.7 373,-347.7 581,-347.7 581,-325.7 373,-325.7"/>
<polygon fill="none" stroke="#000000" points="373,-325.7 373,-347.7 581,-347.7 581,-325.7 373,-325.7"/>
<text text-anchor="start" x="393" y="-332.8" font-family="Helvetica,sans-Serif" font-size="11.00" fill="#000000">date_time_of_hearing</text>
<polygon fill="none" stroke="#000000" points="581,-325.7 581,-347.7 675,-347.7 675,-325.7 581,-325.7"/>
<text text-anchor="start" x="584" y="-333.4" font-family="Helvetica,sans-Serif" font-size="11.00" fill="#000000">timestamp[29,6]</text>
<polygon fill="none" stroke="#000000" points="373,-303.7 373,-325.7 581,-325.7 581,-303.7 373,-303.7"/>
<text text-anchor="start" x="393" y="-310.8" font-family="Helvetica,sans-Serif" font-size="11.00" fill="#000000">create_user_id</text>
<polygon fill="none" stroke="#000000" points="581,-303.7 581,-325.7 675,-325.7 675,-303.7 581,-303.7"/>
<text text-anchor="start" x="584" y="-311.4" font-family="Helvetica,sans-Serif" font-size="11.00" fill="#000000">varchar[32]</text>
<polygon fill="none" stroke="#000000" points="373,-281.7 373,-303.7 581,-303.7 581,-281.7 373,-281.7"/>
<text text-anchor="start" x="393" y="-288.8" font-family="Helvetica,sans-Serif" font-size="11.00" fill="#000000">create_datetime</text>
<polygon fill="none" stroke="#000000" points="581,-281.7 581,-303.7 675,-303.7 675,-281.7 581,-281.7"/>
<text text-anchor="start" x="584" y="-289.4" font-family="Helvetica,sans-Serif" font-size="11.00" fill="#000000">timestamp[29,6]</text>
<polygon fill="none" stroke="#000000" points="373,-259.7 373,-281.7 581,-281.7 581,-259.7 373,-259.7"/>
<text text-anchor="start" x="393" y="-266.8" font-family="Helvetica,sans-Serif" font-size="11.00" fill="#000000">modify_user_id</text>
<polygon fill="none" stroke="#000000" points="581,-259.7 581,-281.7 675,-281.7 675,-259.7 581,-259.7"/>
<text text-anchor="start" x="584" y="-267.4" font-family="Helvetica,sans-Serif" font-size="11.00" fill="#000000">varchar[32]</text>
<polygon fill="none" stroke="#000000" points="373,-237.7 373,-259.7 581,-259.7 581,-237.7 373,-237.7"/>
<text text-anchor="start" x="393" y="-244.8" font-family="Helvetica,sans-Serif" font-size="11.00" fill="#000000">modify_datetime</text>
<polygon fill="none" stroke="#000000" points="581,-237.7 581,-259.7 675,-259.7 675,-237.7 581,-237.7"/>
<text text-anchor="start" x="584" y="-245.4" font-family="Helvetica,sans-Serif" font-size="11.00" fill="#000000">timestamp[29,6]</text>
<polygon fill="#ffffff" stroke="transparent" points="373,-215.7 373,-237.7 581,-237.7 581,-215.7 373,-215.7"/>
<polygon fill="none" stroke="#000000" points="373,-215.7 373,-237.7 581,-237.7 581,-215.7 373,-215.7"/>
<text text-anchor="start" x="393" y="-222.8" font-family="Helvetica,sans-Serif" font-size="11.00" fill="#000000">charge_number</text>
<polygon fill="none" stroke="#000000" points="581,-215.7 581,-237.7 675,-237.7 675,-215.7 581,-215.7"/>
<text text-anchor="start" x="584" y="-223.4" font-family="Helvetica,sans-Serif" font-size="11.00" fill="#000000">varchar[16]</text>
<polygon fill="none" stroke="#000000" points="373,-193.7 373,-215.7 581,-215.7 581,-193.7 373,-193.7"/>
<text text-anchor="start" x="393" y="-200.8" font-family="Helvetica,sans-Serif" font-size="11.00" fill="#000000">oic_hearing_id</text>
<polygon fill="none" stroke="#000000" points="581,-193.7 581,-215.7 675,-215.7 675,-193.7 581,-193.7"/>
<text text-anchor="start" x="584" y="-201.4" font-family="Helvetica,sans-Serif" font-size="11.00" fill="#000000">int8[19]</text>
<polygon fill="none" stroke="#000000" points="373,-171.7 373,-193.7 581,-193.7 581,-171.7 373,-171.7"/>
<text text-anchor="start" x="393" y="-178.8" font-family="Helvetica,sans-Serif" font-size="11.00" fill="#000000">oic_hearing_type</text>
<polygon fill="none" stroke="#000000" points="581,-171.7 581,-193.7 675,-193.7 675,-171.7 581,-171.7"/>
<text text-anchor="start" x="584" y="-179.4" font-family="Helvetica,sans-Serif" font-size="11.00" fill="#000000">varchar[32]</text>
<polygon fill="#ffffff" stroke="transparent" points="373,-149.7 373,-171.7 581,-171.7 581,-149.7 373,-149.7"/>
<polygon fill="none" stroke="#000000" points="373,-149.7 373,-171.7 581,-171.7 581,-149.7 373,-149.7"/>
<image xlink:href="../../images/foreignKeys.png" width="11px" height="12px" preserveAspectRatio="xMinYMin meet" x="378" y="-166.7"/>
<text text-anchor="start" x="393" y="-156.8" font-family="Helvetica,sans-Serif" font-size="11.00" fill="#000000">outcome_id</text>
<polygon fill="none" stroke="#000000" points="581,-149.7 581,-171.7 675,-171.7 675,-149.7 581,-149.7"/>
<text text-anchor="start" x="584" y="-157.4" font-family="Helvetica,sans-Serif" font-size="11.00" fill="#000000">int4[10]</text>
<polygon fill="#ffffff" stroke="transparent" points="373,-127.7 373,-149.7 581,-149.7 581,-127.7 373,-127.7"/>
<polygon fill="none" stroke="#000000" points="373,-127.7 373,-149.7 581,-149.7 581,-127.7 373,-127.7"/>
<text text-anchor="start" x="393" y="-134.8" font-family="Helvetica,sans-Serif" font-size="11.00" fill="#000000">hearing_pre_migrate_id</text>
<polygon fill="none" stroke="#000000" points="581,-127.7 581,-149.7 675,-149.7 675,-127.7 581,-127.7"/>
<text text-anchor="start" x="584" y="-135.4" font-family="Helvetica,sans-Serif" font-size="11.00" fill="#000000">int4[10]</text>
<polygon fill="none" stroke="#000000" points="373,-105.7 373,-127.7 581,-127.7 581,-105.7 373,-105.7"/>
<text text-anchor="start" x="393" y="-112.8" font-family="Helvetica,sans-Serif" font-size="11.00" fill="#000000">representative</text>
<polygon fill="none" stroke="#000000" points="581,-105.7 581,-127.7 675,-127.7 675,-105.7 581,-105.7"/>
<text text-anchor="start" x="584" y="-113.4" font-family="Helvetica,sans-Serif" font-size="11.00" fill="#000000">varchar[240]</text>
<polygon fill="none" stroke="#000000" points="373,-83.7 373,-105.7 581,-105.7 581,-83.7 373,-83.7"/>
<text text-anchor="start" x="393" y="-90.8" font-family="Helvetica,sans-Serif" font-size="11.00" fill="#000000">location_uuid</text>
<polygon fill="none" stroke="#000000" points="581,-83.7 581,-105.7 675,-105.7 675,-83.7 581,-83.7"/>
<text text-anchor="start" x="583.9758" y="-91.4" font-family="Helvetica,sans-Serif" font-size="11.00" fill="#000000">uuid[2147483647]</text>
<polygon fill="#ffffff" stroke="transparent" points="373,-64.7 373,-83.7 481,-83.7 481,-64.7 373,-64.7"/>
<polygon fill="none" stroke="#000000" points="373,-64.7 373,-83.7 481,-83.7 481,-64.7 373,-64.7"/>
<text text-anchor="start" x="376" y="-70.8" font-family="Helvetica,sans-Serif" font-size="11.00" fill="#000000">&lt; 2</text>
<polygon fill="#ffffff" stroke="transparent" points="481,-64.7 481,-83.7 581,-83.7 581,-64.7 481,-64.7"/>
<polygon fill="none" stroke="#000000" points="481,-64.7 481,-83.7 581,-83.7 581,-64.7 481,-64.7"/>
<text text-anchor="start" x="571.8862" y="-70.8" font-family="Helvetica,sans-Serif" font-size="11.00" fill="#000000"> &#160;</text>
<polygon fill="#ffffff" stroke="transparent" points="581,-64.7 581,-83.7 675,-83.7 675,-64.7 581,-64.7"/>
<polygon fill="none" stroke="#000000" points="581,-64.7 581,-83.7 675,-83.7 675,-64.7 581,-64.7"/>
<text text-anchor="start" x="656.4053" y="-70.8" font-family="Helvetica,sans-Serif" font-size="11.00" fill="#000000">0 &gt;</text>
<polygon fill="none" stroke="#000000" stroke-width="2" points="372,-63.7 372,-459.7 676,-459.7 676,-63.7 372,-63.7"/>
</a>
</g>
</g>
<!-- hearing_outcome -->
<g id="node2" class="node">
<title>hearing_outcome</title>
<g id="a_node2"><a xlink:href="../../tables/hearing_outcome.html" xlink:title="hearing_outcome" target="_top">
<polygon fill="#ffffff" stroke="transparent" points="43.5,-38.2 43.5,-143.2 286.5,-143.2 286.5,-38.2 43.5,-38.2"/>
<polygon fill="#f5f5f5" stroke="transparent" points="44,-119.7 44,-142.7 287,-142.7 287,-119.7 44,-119.7"/>
<polygon fill="none" stroke="#000000" points="44,-119.7 44,-142.7 287,-142.7 287,-119.7 44,-119.7"/>
<text text-anchor="start" x="49" y="-128.3" font-family="Helvetica,sans-Serif" font-weight="bold" font-size="11.00" fill="#000000">hearing_outcome</text>
<text text-anchor="start" x="252.0437" y="-127.8" font-family="Helvetica,sans-Serif" font-size="11.00" fill="#000000">[table]</text>
<polygon fill="none" stroke="#000000" points="44,-97.7 44,-119.7 287,-119.7 287,-97.7 44,-97.7"/>
<image xlink:href="../../images/primaryKeys.png" width="11px" height="12px" preserveAspectRatio="xMinYMin meet" x="49" y="-114.7"/>
<text text-anchor="start" x="64" y="-104.8" font-family="Helvetica,sans-Serif" font-size="11.00" fill="#000000">id</text>
<polygon fill="#ffffff" stroke="transparent" points="44,-75.7 44,-97.7 287,-97.7 287,-75.7 44,-75.7"/>
<polygon fill="none" stroke="#000000" points="44,-75.7 44,-97.7 287,-97.7 287,-75.7 44,-75.7"/>
<text text-anchor="start" x="64" y="-82.8" font-family="Helvetica,sans-Serif" font-size="11.00" fill="#000000">hearing_outcome_pre_migrate_id</text>
<polygon fill="none" stroke="#000000" points="44,-56.7 44,-75.7 287,-75.7 287,-56.7 44,-56.7"/>
<text text-anchor="start" x="47" y="-62.8" font-family="Helvetica,sans-Serif" font-size="11.00" fill="#000000">...</text>
<polygon fill="#ffffff" stroke="transparent" points="44,-37.7 44,-56.7 155,-56.7 155,-37.7 44,-37.7"/>
<polygon fill="none" stroke="#000000" points="44,-37.7 44,-56.7 155,-56.7 155,-37.7 44,-37.7"/>
<text text-anchor="start" x="47" y="-43.8" font-family="Helvetica,sans-Serif" font-size="11.00" fill="#000000"> &#160;</text>
<polygon fill="#ffffff" stroke="transparent" points="155,-37.7 155,-56.7 216,-56.7 216,-37.7 155,-37.7"/>
<polygon fill="none" stroke="#000000" points="155,-37.7 155,-56.7 216,-56.7 216,-37.7 155,-37.7"/>
<text text-anchor="start" x="206.8862" y="-43.8" font-family="Helvetica,sans-Serif" font-size="11.00" fill="#000000"> &#160;</text>
<polygon fill="#ffffff" stroke="transparent" points="216,-37.7 216,-56.7 287,-56.7 287,-37.7 216,-37.7"/>
<polygon fill="none" stroke="#000000" points="216,-37.7 216,-56.7 287,-56.7 287,-37.7 216,-37.7"/>
<text text-anchor="start" x="268.4053" y="-43.8" font-family="Helvetica,sans-Serif" font-size="11.00" fill="#000000">1 &gt;</text>
</a>
</g>
</g>
<!-- hearing&#45;&gt;hearing_outcome -->
<g id="edge1" class="edge">
<title>hearing:w&#45;&gt;hearing_outcome:e</title>
<path fill="none" stroke="#000000" d="M358.7147,-158.5971C328.4371,-148.8688 326.2573,-108.7 287,-108.7"/>
<polygon fill="#000000" stroke="#000000" points="365.0853,-159.5349 372.4757,-164.2616 369.0426,-160.1174 373,-160.7 373,-160.7 373,-160.7 369.0426,-160.1174 373.5243,-157.1384 365.0853,-159.5349 365.0853,-159.5349"/>
<ellipse fill="none" stroke="#000000" cx="361.9194" cy="-159.0688" rx="3.2" ry="3.2"/>
</g>
<!-- reported_adjudications -->
<g id="node3" class="node">
<title>reported_adjudications</title>
<g id="a_node3"><a xlink:href="../../tables/reported_adjudications.html" xlink:title="reported_adjudications" target="_top">
<polygon fill="#ffffff" stroke="transparent" points="8,-164.2 8,-489.2 322,-489.2 322,-164.2 8,-164.2"/>
<polygon fill="#f5f5f5" stroke="transparent" points="8,-465.7 8,-488.7 322,-488.7 322,-465.7 8,-465.7"/>
<polygon fill="none" stroke="#000000" points="8,-465.7 8,-488.7 322,-488.7 322,-465.7 8,-465.7"/>
<text text-anchor="start" x="13" y="-474.3" font-family="Helvetica,sans-Serif" font-weight="bold" font-size="11.00" fill="#000000">reported_adjudications</text>
<text text-anchor="start" x="287.0437" y="-473.8" font-family="Helvetica,sans-Serif" font-size="11.00" fill="#000000">[table]</text>
<polygon fill="none" stroke="#000000" points="8,-443.7 8,-465.7 322,-465.7 322,-443.7 8,-443.7"/>
<image xlink:href="../../images/primaryKeys.png" width="11px" height="12px" preserveAspectRatio="xMinYMin meet" x="13" y="-460.7"/>
<text text-anchor="start" x="28" y="-450.8" font-family="Helvetica,sans-Serif" font-size="11.00" fill="#000000">id</text>
<polygon fill="#ffffff" stroke="transparent" points="8,-421.7 8,-443.7 322,-443.7 322,-421.7 8,-421.7"/>
<polygon fill="none" stroke="#000000" points="8,-421.7 8,-443.7 322,-443.7 322,-421.7 8,-421.7"/>
<text text-anchor="start" x="28" y="-428.8" font-family="Helvetica,sans-Serif" font-size="11.00" fill="#000000">prisoner_number</text>
<polygon fill="#ffffff" stroke="transparent" points="8,-399.7 8,-421.7 322,-421.7 322,-399.7 8,-399.7"/>
<polygon fill="none" stroke="#000000" points="8,-399.7 8,-421.7 322,-421.7 322,-399.7 8,-399.7"/>
<text text-anchor="start" x="28" y="-406.8" font-family="Helvetica,sans-Serif" font-size="11.00" fill="#000000">charge_number</text>
<polygon fill="#ffffff" stroke="transparent" points="8,-377.7 8,-399.7 322,-399.7 322,-377.7 8,-377.7"/>
<polygon fill="none" stroke="#000000" points="8,-377.7 8,-399.7 322,-399.7 322,-377.7 8,-377.7"/>
<text text-anchor="start" x="28" y="-384.8" font-family="Helvetica,sans-Serif" font-size="11.00" fill="#000000">originating_agency_id</text>
<polygon fill="#ffffff" stroke="transparent" points="8,-355.7 8,-377.7 322,-377.7 322,-355.7 8,-355.7"/>
<polygon fill="none" stroke="#000000" points="8,-355.7 8,-377.7 322,-377.7 322,-355.7 8,-355.7"/>
<text text-anchor="start" x="28" y="-362.8" font-family="Helvetica,sans-Serif" font-size="11.00" fill="#000000">create_user_id</text>
<polygon fill="#ffffff" stroke="transparent" points="8,-333.7 8,-355.7 322,-355.7 322,-333.7 8,-333.7"/>
<polygon fill="none" stroke="#000000" points="8,-333.7 8,-355.7 322,-355.7 322,-333.7 8,-333.7"/>
<text text-anchor="start" x="28" y="-340.8" font-family="Helvetica,sans-Serif" font-size="11.00" fill="#000000">incident_role_associated_prisoners_number</text>
<polygon fill="#ffffff" stroke="transparent" points="8,-311.7 8,-333.7 322,-333.7 322,-311.7 8,-311.7"/>
<polygon fill="none" stroke="#000000" points="8,-311.7 8,-333.7 322,-333.7 322,-311.7 8,-311.7"/>
<text text-anchor="start" x="28" y="-318.8" font-family="Helvetica,sans-Serif" font-size="11.00" fill="#000000">status</text>
<polygon fill="#ffffff" stroke="transparent" points="8,-289.7 8,-311.7 322,-311.7 322,-289.7 8,-289.7"/>
<polygon fill="none" stroke="#000000" points="8,-289.7 8,-311.7 322,-311.7 322,-289.7 8,-289.7"/>
<text text-anchor="start" x="28" y="-296.8" font-family="Helvetica,sans-Serif" font-size="11.00" fill="#000000">date_time_of_discovery</text>
<polygon fill="#ffffff" stroke="transparent" points="8,-267.7 8,-289.7 322,-289.7 322,-267.7 8,-267.7"/>
<polygon fill="none" stroke="#000000" points="8,-267.7 8,-289.7 322,-289.7 322,-267.7 8,-267.7"/>
<text text-anchor="start" x="28" y="-274.8" font-family="Helvetica,sans-Serif" font-size="11.00" fill="#000000">date_time_of_first_hearing</text>
<polygon fill="#ffffff" stroke="transparent" points="8,-245.7 8,-267.7 322,-267.7 322,-245.7 8,-245.7"/>
<polygon fill="none" stroke="#000000" points="8,-245.7 8,-267.7 322,-267.7 322,-245.7 8,-245.7"/>
<text text-anchor="start" x="28" y="-252.8" font-family="Helvetica,sans-Serif" font-size="11.00" fill="#000000">override_agency_id</text>
<polygon fill="#ffffff" stroke="transparent" points="8,-223.7 8,-245.7 322,-245.7 322,-223.7 8,-223.7"/>
<polygon fill="none" stroke="#000000" points="8,-223.7 8,-245.7 322,-245.7 322,-223.7 8,-223.7"/>
<text text-anchor="start" x="28" y="-230.8" font-family="Helvetica,sans-Serif" font-size="11.00" fill="#000000">migrated</text>
<polygon fill="#ffffff" stroke="transparent" points="8,-201.7 8,-223.7 322,-223.7 322,-201.7 8,-201.7"/>
<polygon fill="none" stroke="#000000" points="8,-201.7 8,-223.7 322,-223.7 322,-201.7 8,-201.7"/>
<text text-anchor="start" x="28" y="-208.8" font-family="Helvetica,sans-Serif" font-size="11.00" fill="#000000">offender_booking_id</text>
<polygon fill="none" stroke="#000000" points="8,-182.7 8,-201.7 322,-201.7 322,-182.7 8,-182.7"/>
<text text-anchor="start" x="11" y="-188.8" font-family="Helvetica,sans-Serif" font-size="11.00" fill="#000000">...</text>
<polygon fill="#ffffff" stroke="transparent" points="8,-163.7 8,-182.7 154,-182.7 154,-163.7 8,-163.7"/>
<polygon fill="none" stroke="#000000" points="8,-163.7 8,-182.7 154,-182.7 154,-163.7 8,-163.7"/>
<text text-anchor="start" x="11" y="-169.8" font-family="Helvetica,sans-Serif" font-size="11.00" fill="#000000"> &#160;</text>
<polygon fill="#ffffff" stroke="transparent" points="154,-163.7 154,-182.7 233,-182.7 233,-163.7 154,-163.7"/>
<polygon fill="none" stroke="#000000" points="154,-163.7 154,-182.7 233,-182.7 233,-163.7 154,-163.7"/>
<text text-anchor="start" x="223.8862" y="-169.8" font-family="Helvetica,sans-Serif" font-size="11.00" fill="#000000"> &#160;</text>
<polygon fill="#ffffff" stroke="transparent" points="233,-163.7 233,-182.7 322,-182.7 322,-163.7 233,-163.7"/>
<polygon fill="none" stroke="#000000" points="233,-163.7 233,-182.7 322,-182.7 322,-163.7 233,-163.7"/>
<text text-anchor="start" x="303.4053" y="-169.8" font-family="Helvetica,sans-Serif" font-size="11.00" fill="#000000">9 &gt;</text>
</a>
</g>
</g>
<!-- hearing&#45;&gt;reported_adjudications -->
<g id="edge2" class="edge">
<title>hearing:w&#45;&gt;reported_adjudications:e</title>
<path fill="none" stroke="#000000" d="M359.0468,-407.4988C344.161,-420.3719 348.3017,-454.7 322,-454.7"/>
<polygon fill="#000000" stroke="#000000" points="365.4349,-405.3018 374.1708,-406.1043 369.2175,-404.0009 373,-402.7 373,-402.7 373,-402.7 369.2175,-404.0009 371.8292,-399.2957 365.4349,-405.3018 365.4349,-405.3018"/>
<ellipse fill="none" stroke="#000000" cx="362.4089" cy="-406.3426" rx="3.2" ry="3.2"/>
</g>
</g>
</svg>
