<?xml version="1.0" encoding="UTF-8" standalone="no"?>
<!DOCTYPE svg PUBLIC "-//W3C//DTD SVG 1.1//EN"
 "http://www.w3.org/Graphics/SVG/1.1/DTD/svg11.dtd">
<!-- Generated by graphviz version 2.40.1 (20161225.0304)
 -->
<!-- Title: oneDegreeRelationshipsDiagram Pages: 1 -->
<svg width="564pt" height="359pt"
 viewBox="0.00 0.00 564.00 358.70" xmlns="http://www.w3.org/2000/svg" xmlns:xlink="http://www.w3.org/1999/xlink">
<g id="graph0" class="graph" transform="scale(1 1) rotate(0) translate(4 354.7)">
<title>oneDegreeRelationshipsDiagram</title>
<polygon fill="#ffffff" stroke="transparent" points="-4,4 -4,-354.7 560,-354.7 560,4 -4,4"/>
<text text-anchor="middle" x="72.4936" y="-7.3" font-family="Helvetica,sans-Serif" font-size="11.00" fill="#000000">Generated by SchemaSpy</text>
<!-- draft_adjudications -->
<g id="node1" class="node">
<title>draft_adjudications</title>
<g id="a_node1"><a xlink:href="../../tables/draft_adjudications.html" xlink:title="draft_adjudications" target="_top">
<polygon fill="#ffffff" stroke="transparent" points="333,-175.7 333,-346.7 548,-346.7 548,-175.7 333,-175.7"/>
<polygon fill="#f5f5f5" stroke="transparent" points="333.5,-323.2 333.5,-346.2 548.5,-346.2 548.5,-323.2 333.5,-323.2"/>
<polygon fill="none" stroke="#000000" points="333.5,-323.2 333.5,-346.2 548.5,-346.2 548.5,-323.2 333.5,-323.2"/>
<text text-anchor="start" x="338.5" y="-331.8" font-family="Helvetica,sans-Serif" font-weight="bold" font-size="11.00" fill="#000000">draft_adjudications</text>
<text text-anchor="start" x="513.5437" y="-331.3" font-family="Helvetica,sans-Serif" font-size="11.00" fill="#000000">[table]</text>
<polygon fill="none" stroke="#000000" points="333.5,-301.2 333.5,-323.2 548.5,-323.2 548.5,-301.2 333.5,-301.2"/>
<image xlink:href="../../images/primaryKeys.png" width="11px" height="12px" preserveAspectRatio="xMinYMin meet" x="338.5" y="-318.2"/>
<text text-anchor="start" x="353.5" y="-308.3" font-family="Helvetica,sans-Serif" font-size="11.00" fill="#000000">id</text>
<polygon fill="#ffffff" stroke="transparent" points="333.5,-279.2 333.5,-301.2 548.5,-301.2 548.5,-279.2 333.5,-279.2"/>
<polygon fill="none" stroke="#000000" points="333.5,-279.2 333.5,-301.2 548.5,-301.2 548.5,-279.2 333.5,-279.2"/>
<text text-anchor="start" x="353.5" y="-286.3" font-family="Helvetica,sans-Serif" font-size="11.00" fill="#000000">prisoner_number</text>
<polygon fill="#ffffff" stroke="transparent" points="333.5,-257.2 333.5,-279.2 548.5,-279.2 548.5,-257.2 333.5,-257.2"/>
<polygon fill="none" stroke="#000000" points="333.5,-257.2 333.5,-279.2 548.5,-279.2 548.5,-257.2 333.5,-257.2"/>
<image xlink:href="../../images/foreignKeys.png" width="11px" height="12px" preserveAspectRatio="xMinYMin meet" x="338.5" y="-274.2"/>
<text text-anchor="start" x="353.5" y="-264.3" font-family="Helvetica,sans-Serif" font-size="11.00" fill="#000000">incident_details_id</text>
<polygon fill="#ffffff" stroke="transparent" points="333.5,-235.2 333.5,-257.2 548.5,-257.2 548.5,-235.2 333.5,-235.2"/>
<polygon fill="none" stroke="#000000" points="333.5,-235.2 333.5,-257.2 548.5,-257.2 548.5,-235.2 333.5,-235.2"/>
<image xlink:href="../../images/foreignKeys.png" width="11px" height="12px" preserveAspectRatio="xMinYMin meet" x="338.5" y="-252.2"/>
<text text-anchor="start" x="353.5" y="-242.3" font-family="Helvetica,sans-Serif" font-size="11.00" fill="#000000">incident_statement_id</text>
<polygon fill="#ffffff" stroke="transparent" points="333.5,-213.2 333.5,-235.2 548.5,-235.2 548.5,-213.2 333.5,-213.2"/>
<polygon fill="none" stroke="#000000" points="333.5,-213.2 333.5,-235.2 548.5,-235.2 548.5,-213.2 333.5,-213.2"/>
<image xlink:href="../../images/foreignKeys.png" width="11px" height="12px" preserveAspectRatio="xMinYMin meet" x="338.5" y="-230.2"/>
<text text-anchor="start" x="353.5" y="-220.3" font-family="Helvetica,sans-Serif" font-size="11.00" fill="#000000">incident_role_id</text>
<polygon fill="none" stroke="#000000" points="333.5,-194.2 333.5,-213.2 548.5,-213.2 548.5,-194.2 333.5,-194.2"/>
<text text-anchor="start" x="336.5" y="-200.3" font-family="Helvetica,sans-Serif" font-size="11.00" fill="#000000">...</text>
<polygon fill="#ffffff" stroke="transparent" points="333.5,-175.2 333.5,-194.2 434.5,-194.2 434.5,-175.2 333.5,-175.2"/>
<polygon fill="none" stroke="#000000" points="333.5,-175.2 333.5,-194.2 434.5,-194.2 434.5,-175.2 333.5,-175.2"/>
<text text-anchor="start" x="336.5" y="-181.3" font-family="Helvetica,sans-Serif" font-size="11.00" fill="#000000">&lt; 3</text>
<polygon fill="#ffffff" stroke="transparent" points="434.5,-175.2 434.5,-194.2 486.5,-194.2 486.5,-175.2 434.5,-175.2"/>
<polygon fill="none" stroke="#000000" points="434.5,-175.2 434.5,-194.2 486.5,-194.2 486.5,-175.2 434.5,-175.2"/>
<text text-anchor="start" x="477.3862" y="-181.3" font-family="Helvetica,sans-Serif" font-size="11.00" fill="#000000"> &#160;</text>
<polygon fill="#ffffff" stroke="transparent" points="486.5,-175.2 486.5,-194.2 548.5,-194.2 548.5,-175.2 486.5,-175.2"/>
<polygon fill="none" stroke="#000000" points="486.5,-175.2 486.5,-194.2 548.5,-194.2 548.5,-175.2 486.5,-175.2"/>
<text text-anchor="start" x="529.9053" y="-181.3" font-family="Helvetica,sans-Serif" font-size="11.00" fill="#000000">4 &gt;</text>
</a>
</g>
</g>
<!-- incident_details -->
<g id="node2" class="node">
<title>incident_details</title>
<g id="a_node2"><a xlink:href="../../tables/incident_details.html" xlink:title="incident_details" target="_top">
<polygon fill="#ffffff" stroke="transparent" points="8,-38.2 8,-304.2 284,-304.2 284,-38.2 8,-38.2"/>
<polygon fill="#f5f5f5" stroke="transparent" points="10,-279.2 10,-302.2 282,-302.2 282,-279.2 10,-279.2"/>
<polygon fill="none" stroke="#000000" points="10,-279.2 10,-302.2 282,-302.2 282,-279.2 10,-279.2"/>
<text text-anchor="start" x="15" y="-287.8" font-family="Helvetica,sans-Serif" font-weight="bold" font-size="11.00" fill="#000000">incident_details</text>
<text text-anchor="start" x="247.0437" y="-287.3" font-family="Helvetica,sans-Serif" font-size="11.00" fill="#000000">[table]</text>
<polygon fill="none" stroke="#000000" points="10,-257.2 10,-279.2 188,-279.2 188,-257.2 10,-257.2"/>
<image xlink:href="../../images/primaryKeys.png" width="11px" height="12px" preserveAspectRatio="xMinYMin meet" x="15" y="-274.2"/>
<text text-anchor="start" x="30" y="-264.3" font-family="Helvetica,sans-Serif" font-size="11.00" fill="#000000">id</text>
<polygon fill="none" stroke="#000000" points="188,-257.2 188,-279.2 282,-279.2 282,-257.2 188,-257.2"/>
<text text-anchor="start" x="191" y="-264.9" font-family="Helvetica,sans-Serif" font-size="11.00" fill="#000000">serial[10]</text>
<polygon fill="none" stroke="#000000" points="10,-235.2 10,-257.2 188,-257.2 188,-235.2 10,-235.2"/>
<text text-anchor="start" x="30" y="-242.3" font-family="Helvetica,sans-Serif" font-size="11.00" fill="#000000">date_time_of_incident</text>
<polygon fill="none" stroke="#000000" points="188,-235.2 188,-257.2 282,-257.2 282,-235.2 188,-235.2"/>
<text text-anchor="start" x="191" y="-242.9" font-family="Helvetica,sans-Serif" font-size="11.00" fill="#000000">timestamp[29,6]</text>
<polygon fill="none" stroke="#000000" points="10,-213.2 10,-235.2 188,-235.2 188,-213.2 10,-213.2"/>
<text text-anchor="start" x="30" y="-220.3" font-family="Helvetica,sans-Serif" font-size="11.00" fill="#000000">location_id</text>
<polygon fill="none" stroke="#000000" points="188,-213.2 188,-235.2 282,-235.2 282,-213.2 188,-213.2"/>
<text text-anchor="start" x="191" y="-220.9" font-family="Helvetica,sans-Serif" font-size="11.00" fill="#000000">int8[19]</text>
<polygon fill="none" stroke="#000000" points="10,-191.2 10,-213.2 188,-213.2 188,-191.2 10,-191.2"/>
<text text-anchor="start" x="30" y="-198.3" font-family="Helvetica,sans-Serif" font-size="11.00" fill="#000000">create_user_id</text>
<polygon fill="none" stroke="#000000" points="188,-191.2 188,-213.2 282,-213.2 282,-191.2 188,-191.2"/>
<text text-anchor="start" x="191" y="-198.9" font-family="Helvetica,sans-Serif" font-size="11.00" fill="#000000">varchar[32]</text>
<polygon fill="none" stroke="#000000" points="10,-169.2 10,-191.2 188,-191.2 188,-169.2 10,-169.2"/>
<text text-anchor="start" x="30" y="-176.3" font-family="Helvetica,sans-Serif" font-size="11.00" fill="#000000">create_datetime</text>
<polygon fill="none" stroke="#000000" points="188,-169.2 188,-191.2 282,-191.2 282,-169.2 188,-169.2"/>
<text text-anchor="start" x="191" y="-176.9" font-family="Helvetica,sans-Serif" font-size="11.00" fill="#000000">timestamp[29,6]</text>
<polygon fill="none" stroke="#000000" points="10,-147.2 10,-169.2 188,-169.2 188,-147.2 10,-147.2"/>
<text text-anchor="start" x="30" y="-154.3" font-family="Helvetica,sans-Serif" font-size="11.00" fill="#000000">modify_user_id</text>
<polygon fill="none" stroke="#000000" points="188,-147.2 188,-169.2 282,-169.2 282,-147.2 188,-147.2"/>
<text text-anchor="start" x="191" y="-154.9" font-family="Helvetica,sans-Serif" font-size="11.00" fill="#000000">varchar[32]</text>
<polygon fill="none" stroke="#000000" points="10,-125.2 10,-147.2 188,-147.2 188,-125.2 10,-125.2"/>
<text text-anchor="start" x="30" y="-132.3" font-family="Helvetica,sans-Serif" font-size="11.00" fill="#000000">modify_datetime</text>
<polygon fill="none" stroke="#000000" points="188,-125.2 188,-147.2 282,-147.2 282,-125.2 188,-125.2"/>
<text text-anchor="start" x="191" y="-132.9" font-family="Helvetica,sans-Serif" font-size="11.00" fill="#000000">timestamp[29,6]</text>
<polygon fill="none" stroke="#000000" points="10,-103.2 10,-125.2 188,-125.2 188,-103.2 10,-103.2"/>
<text text-anchor="start" x="30" y="-110.3" font-family="Helvetica,sans-Serif" font-size="11.00" fill="#000000">handover_deadline</text>
<polygon fill="none" stroke="#000000" points="188,-103.2 188,-125.2 282,-125.2 282,-103.2 188,-103.2"/>
<text text-anchor="start" x="191" y="-110.9" font-family="Helvetica,sans-Serif" font-size="11.00" fill="#000000">timestamp[29,6]</text>
<polygon fill="none" stroke="#000000" points="10,-81.2 10,-103.2 188,-103.2 188,-81.2 10,-81.2"/>
<text text-anchor="start" x="30" y="-88.3" font-family="Helvetica,sans-Serif" font-size="11.00" fill="#000000">date_time_of_discovery</text>
<polygon fill="none" stroke="#000000" points="188,-81.2 188,-103.2 282,-103.2 282,-81.2 188,-81.2"/>
<text text-anchor="start" x="191" y="-88.9" font-family="Helvetica,sans-Serif" font-size="11.00" fill="#000000">timestamp[29,6]</text>
<polygon fill="none" stroke="#000000" points="10,-59.2 10,-81.2 188,-81.2 188,-59.2 10,-59.2"/>
<text text-anchor="start" x="30" y="-66.3" font-family="Helvetica,sans-Serif" font-size="11.00" fill="#000000">location_uuid</text>
<polygon fill="none" stroke="#000000" points="188,-59.2 188,-81.2 282,-81.2 282,-59.2 188,-59.2"/>
<text text-anchor="start" x="190.9758" y="-66.9" font-family="Helvetica,sans-Serif" font-size="11.00" fill="#000000">uuid[2147483647]</text>
<polygon fill="#ffffff" stroke="transparent" points="10,-40.2 10,-59.2 103,-59.2 103,-40.2 10,-40.2"/>
<polygon fill="none" stroke="#000000" points="10,-40.2 10,-59.2 103,-59.2 103,-40.2 10,-40.2"/>
<text text-anchor="start" x="13" y="-46.3" font-family="Helvetica,sans-Serif" font-size="11.00" fill="#000000">&lt; 0</text>
<polygon fill="#ffffff" stroke="transparent" points="103,-40.2 103,-59.2 188,-59.2 188,-40.2 103,-40.2"/>
<polygon fill="none" stroke="#000000" points="103,-40.2 103,-59.2 188,-59.2 188,-40.2 103,-40.2"/>
<text text-anchor="start" x="178.8862" y="-46.3" font-family="Helvetica,sans-Serif" font-size="11.00" fill="#000000"> &#160;</text>
<polygon fill="#ffffff" stroke="transparent" points="188,-40.2 188,-59.2 282,-59.2 282,-40.2 188,-40.2"/>
<polygon fill="none" stroke="#000000" points="188,-40.2 188,-59.2 282,-59.2 282,-40.2 188,-40.2"/>
<text text-anchor="start" x="263.4053" y="-46.3" font-family="Helvetica,sans-Serif" font-size="11.00" fill="#000000">1 &gt;</text>
<polygon fill="none" stroke="#000000" stroke-width="2" points="9,-39.2 9,-303.2 283,-303.2 283,-39.2 9,-39.2"/>
</a>
</g>
</g>
<!-- draft_adjudications&#45;&gt;incident_details -->
<g id="edge1" class="edge">
<title>draft_adjudications:w&#45;&gt;incident_details:e</title>
<path fill="none" stroke="#000000" d="M319.0156,-268.2C306.6771,-268.2 299.1667,-268.2 282,-268.2"/>
<polygon fill="#000000" stroke="#000000" points="325.5,-268.2001 333.5,-271.8 329.5,-268.2 333.5,-268.2 333.5,-268.2 333.5,-268.2 329.5,-268.2 333.5,-264.6 325.5,-268.2001 325.5,-268.2001"/>
<ellipse fill="none" stroke="#000000" cx="322.3" cy="-268.2001" rx="3.2" ry="3.2"/>
</g>
</g>
</svg>
