<?xml version="1.0" encoding="UTF-8" standalone="no"?>
<!DOCTYPE svg PUBLIC "-//W3C//DTD SVG 1.1//EN"
 "http://www.w3.org/Graphics/SVG/1.1/DTD/svg11.dtd">
<!-- Generated by graphviz version 2.40.1 (20161225.0304)
 -->
<!-- Title: oneDegreeRelationshipsDiagram Pages: 1 -->
<svg width="597pt" height="359pt"
 viewBox="0.00 0.00 597.00 358.70" xmlns="http://www.w3.org/2000/svg" xmlns:xlink="http://www.w3.org/1999/xlink">
<g id="graph0" class="graph" transform="scale(1 1) rotate(0) translate(4 354.7)">
<title>oneDegreeRelationshipsDiagram</title>
<polygon fill="#ffffff" stroke="transparent" points="-4,4 -4,-354.7 593,-354.7 593,4 -4,4"/>
<text text-anchor="middle" x="72.4936" y="-7.3" font-family="Helvetica,sans-Serif" font-size="11.00" fill="#000000">Generated by SchemaSpy</text>
<!-- draft_adjudications -->
<g id="node1" class="node">
<title>draft_adjudications</title>
<g id="a_node1"><a xlink:href="../../tables/draft_adjudications.html" xlink:title="draft_adjudications" target="_top">
<polygon fill="#ffffff" stroke="transparent" points="366,-175.7 366,-346.7 581,-346.7 581,-175.7 366,-175.7"/>
<polygon fill="#f5f5f5" stroke="transparent" points="366.5,-323.2 366.5,-346.2 581.5,-346.2 581.5,-323.2 366.5,-323.2"/>
<polygon fill="none" stroke="#000000" points="366.5,-323.2 366.5,-346.2 581.5,-346.2 581.5,-323.2 366.5,-323.2"/>
<text text-anchor="start" x="371.5" y="-331.8" font-family="Helvetica,sans-Serif" font-weight="bold" font-size="11.00" fill="#000000">draft_adjudications</text>
<text text-anchor="start" x="546.5437" y="-331.3" font-family="Helvetica,sans-Serif" font-size="11.00" fill="#000000">[table]</text>
<polygon fill="none" stroke="#000000" points="366.5,-301.2 366.5,-323.2 581.5,-323.2 581.5,-301.2 366.5,-301.2"/>
<image xlink:href="../../images/primaryKeys.png" width="11px" height="12px" preserveAspectRatio="xMinYMin meet" x="371.5" y="-318.2"/>
<text text-anchor="start" x="386.5" y="-308.3" font-family="Helvetica,sans-Serif" font-size="11.00" fill="#000000">id</text>
<polygon fill="#ffffff" stroke="transparent" points="366.5,-279.2 366.5,-301.2 581.5,-301.2 581.5,-279.2 366.5,-279.2"/>
<polygon fill="none" stroke="#000000" points="366.5,-279.2 366.5,-301.2 581.5,-301.2 581.5,-279.2 366.5,-279.2"/>
<text text-anchor="start" x="386.5" y="-286.3" font-family="Helvetica,sans-Serif" font-size="11.00" fill="#000000">prisoner_number</text>
<polygon fill="#ffffff" stroke="transparent" points="366.5,-257.2 366.5,-279.2 581.5,-279.2 581.5,-257.2 366.5,-257.2"/>
<polygon fill="none" stroke="#000000" points="366.5,-257.2 366.5,-279.2 581.5,-279.2 581.5,-257.2 366.5,-257.2"/>
<image xlink:href="../../images/foreignKeys.png" width="11px" height="12px" preserveAspectRatio="xMinYMin meet" x="371.5" y="-274.2"/>
<text text-anchor="start" x="386.5" y="-264.3" font-family="Helvetica,sans-Serif" font-size="11.00" fill="#000000">incident_details_id</text>
<polygon fill="#ffffff" stroke="transparent" points="366.5,-235.2 366.5,-257.2 581.5,-257.2 581.5,-235.2 366.5,-235.2"/>
<polygon fill="none" stroke="#000000" points="366.5,-235.2 366.5,-257.2 581.5,-257.2 581.5,-235.2 366.5,-235.2"/>
<image xlink:href="../../images/foreignKeys.png" width="11px" height="12px" preserveAspectRatio="xMinYMin meet" x="371.5" y="-252.2"/>
<text text-anchor="start" x="386.5" y="-242.3" font-family="Helvetica,sans-Serif" font-size="11.00" fill="#000000">incident_statement_id</text>
<polygon fill="#ffffff" stroke="transparent" points="366.5,-213.2 366.5,-235.2 581.5,-235.2 581.5,-213.2 366.5,-213.2"/>
<polygon fill="none" stroke="#000000" points="366.5,-213.2 366.5,-235.2 581.5,-235.2 581.5,-213.2 366.5,-213.2"/>
<image xlink:href="../../images/foreignKeys.png" width="11px" height="12px" preserveAspectRatio="xMinYMin meet" x="371.5" y="-230.2"/>
<text text-anchor="start" x="386.5" y="-220.3" font-family="Helvetica,sans-Serif" font-size="11.00" fill="#000000">incident_role_id</text>
<polygon fill="none" stroke="#000000" points="366.5,-194.2 366.5,-213.2 581.5,-213.2 581.5,-194.2 366.5,-194.2"/>
<text text-anchor="start" x="369.5" y="-200.3" font-family="Helvetica,sans-Serif" font-size="11.00" fill="#000000">...</text>
<polygon fill="#ffffff" stroke="transparent" points="366.5,-175.2 366.5,-194.2 467.5,-194.2 467.5,-175.2 366.5,-175.2"/>
<polygon fill="none" stroke="#000000" points="366.5,-175.2 366.5,-194.2 467.5,-194.2 467.5,-175.2 366.5,-175.2"/>
<text text-anchor="start" x="369.5" y="-181.3" font-family="Helvetica,sans-Serif" font-size="11.00" fill="#000000">&lt; 3</text>
<polygon fill="#ffffff" stroke="transparent" points="467.5,-175.2 467.5,-194.2 519.5,-194.2 519.5,-175.2 467.5,-175.2"/>
<polygon fill="none" stroke="#000000" points="467.5,-175.2 467.5,-194.2 519.5,-194.2 519.5,-175.2 467.5,-175.2"/>
<text text-anchor="start" x="510.3862" y="-181.3" font-family="Helvetica,sans-Serif" font-size="11.00" fill="#000000"> &#160;</text>
<polygon fill="#ffffff" stroke="transparent" points="519.5,-175.2 519.5,-194.2 581.5,-194.2 581.5,-175.2 519.5,-175.2"/>
<polygon fill="none" stroke="#000000" points="519.5,-175.2 519.5,-194.2 581.5,-194.2 581.5,-175.2 519.5,-175.2"/>
<text text-anchor="start" x="562.9053" y="-181.3" font-family="Helvetica,sans-Serif" font-size="11.00" fill="#000000">4 &gt;</text>
</a>
</g>
</g>
<!-- incident_role -->
<g id="node2" class="node">
<title>incident_role</title>
<g id="a_node2"><a xlink:href="../../tables/incident_role.html" xlink:title="incident_role" target="_top">
<polygon fill="#ffffff" stroke="transparent" points="8,-38.2 8,-260.2 317,-260.2 317,-38.2 8,-38.2"/>
<polygon fill="#f5f5f5" stroke="transparent" points="10.5,-235.2 10.5,-258.2 315.5,-258.2 315.5,-235.2 10.5,-235.2"/>
<polygon fill="none" stroke="#000000" points="10.5,-235.2 10.5,-258.2 315.5,-258.2 315.5,-235.2 10.5,-235.2"/>
<text text-anchor="start" x="15.5" y="-243.8" font-family="Helvetica,sans-Serif" font-weight="bold" font-size="11.00" fill="#000000">incident_role</text>
<text text-anchor="start" x="280.5437" y="-243.3" font-family="Helvetica,sans-Serif" font-size="11.00" fill="#000000">[table]</text>
<polygon fill="none" stroke="#000000" points="10.5,-213.2 10.5,-235.2 231.5,-235.2 231.5,-213.2 10.5,-213.2"/>
<image xlink:href="../../images/primaryKeys.png" width="11px" height="12px" preserveAspectRatio="xMinYMin meet" x="15.5" y="-230.2"/>
<text text-anchor="start" x="30.5" y="-220.3" font-family="Helvetica,sans-Serif" font-size="11.00" fill="#000000">id</text>
<polygon fill="none" stroke="#000000" points="231.5,-213.2 231.5,-235.2 315.5,-235.2 315.5,-213.2 231.5,-213.2"/>
<text text-anchor="start" x="234.5" y="-220.9" font-family="Helvetica,sans-Serif" font-size="11.00" fill="#000000">serial[10]</text>
<polygon fill="none" stroke="#000000" points="10.5,-191.2 10.5,-213.2 231.5,-213.2 231.5,-191.2 10.5,-191.2"/>
<text text-anchor="start" x="30.5" y="-198.3" font-family="Helvetica,sans-Serif" font-size="11.00" fill="#000000">role_code</text>
<polygon fill="none" stroke="#000000" points="231.5,-191.2 231.5,-213.2 315.5,-213.2 315.5,-191.2 231.5,-191.2"/>
<text text-anchor="start" x="234.5" y="-198.9" font-family="Helvetica,sans-Serif" font-size="11.00" fill="#000000">varchar[5]</text>
<polygon fill="#ffffff" stroke="transparent" points="10.5,-169.2 10.5,-191.2 231.5,-191.2 231.5,-169.2 10.5,-169.2"/>
<polygon fill="none" stroke="#000000" points="10.5,-169.2 10.5,-191.2 231.5,-191.2 231.5,-169.2 10.5,-169.2"/>
<text text-anchor="start" x="30.5" y="-176.3" font-family="Helvetica,sans-Serif" font-size="11.00" fill="#000000">associated_prisoners_number</text>
<polygon fill="none" stroke="#000000" points="231.5,-169.2 231.5,-191.2 315.5,-191.2 315.5,-169.2 231.5,-169.2"/>
<text text-anchor="start" x="234.5" y="-176.9" font-family="Helvetica,sans-Serif" font-size="11.00" fill="#000000">varchar[7]</text>
<polygon fill="none" stroke="#000000" points="10.5,-147.2 10.5,-169.2 231.5,-169.2 231.5,-147.2 10.5,-147.2"/>
<text text-anchor="start" x="30.5" y="-154.3" font-family="Helvetica,sans-Serif" font-size="11.00" fill="#000000">create_user_id</text>
<polygon fill="none" stroke="#000000" points="231.5,-147.2 231.5,-169.2 315.5,-169.2 315.5,-147.2 231.5,-147.2"/>
<text text-anchor="start" x="234.5" y="-154.9" font-family="Helvetica,sans-Serif" font-size="11.00" fill="#000000">varchar[32]</text>
<polygon fill="none" stroke="#000000" points="10.5,-125.2 10.5,-147.2 231.5,-147.2 231.5,-125.2 10.5,-125.2"/>
<text text-anchor="start" x="30.5" y="-132.3" font-family="Helvetica,sans-Serif" font-size="11.00" fill="#000000">create_datetime</text>
<polygon fill="none" stroke="#000000" points="231.5,-125.2 231.5,-147.2 315.5,-147.2 315.5,-125.2 231.5,-125.2"/>
<text text-anchor="start" x="234.3807" y="-132.9" font-family="Helvetica,sans-Serif" font-size="11.00" fill="#000000">timestamp[29,6]</text>
<polygon fill="none" stroke="#000000" points="10.5,-103.2 10.5,-125.2 231.5,-125.2 231.5,-103.2 10.5,-103.2"/>
<text text-anchor="start" x="30.5" y="-110.3" font-family="Helvetica,sans-Serif" font-size="11.00" fill="#000000">modify_user_id</text>
<polygon fill="none" stroke="#000000" points="231.5,-103.2 231.5,-125.2 315.5,-125.2 315.5,-103.2 231.5,-103.2"/>
<text text-anchor="start" x="234.5" y="-110.9" font-family="Helvetica,sans-Serif" font-size="11.00" fill="#000000">varchar[32]</text>
<polygon fill="none" stroke="#000000" points="10.5,-81.2 10.5,-103.2 231.5,-103.2 231.5,-81.2 10.5,-81.2"/>
<text text-anchor="start" x="30.5" y="-88.3" font-family="Helvetica,sans-Serif" font-size="11.00" fill="#000000">modify_datetime</text>
<polygon fill="none" stroke="#000000" points="231.5,-81.2 231.5,-103.2 315.5,-103.2 315.5,-81.2 231.5,-81.2"/>
<text text-anchor="start" x="234.3807" y="-88.9" font-family="Helvetica,sans-Serif" font-size="11.00" fill="#000000">timestamp[29,6]</text>
<polygon fill="none" stroke="#000000" points="10.5,-59.2 10.5,-81.2 231.5,-81.2 231.5,-59.2 10.5,-59.2"/>
<text text-anchor="start" x="30.5" y="-66.3" font-family="Helvetica,sans-Serif" font-size="11.00" fill="#000000">associated_prisoners_name</text>
<polygon fill="none" stroke="#000000" points="231.5,-59.2 231.5,-81.2 315.5,-81.2 315.5,-59.2 231.5,-59.2"/>
<text text-anchor="start" x="234.5" y="-66.9" font-family="Helvetica,sans-Serif" font-size="11.00" fill="#000000">varchar[100]</text>
<polygon fill="#ffffff" stroke="transparent" points="10.5,-40.2 10.5,-59.2 125.5,-59.2 125.5,-40.2 10.5,-40.2"/>
<polygon fill="none" stroke="#000000" points="10.5,-40.2 10.5,-59.2 125.5,-59.2 125.5,-40.2 10.5,-40.2"/>
<text text-anchor="start" x="13.5" y="-46.3" font-family="Helvetica,sans-Serif" font-size="11.00" fill="#000000">&lt; 0</text>
<polygon fill="#ffffff" stroke="transparent" points="125.5,-40.2 125.5,-59.2 231.5,-59.2 231.5,-40.2 125.5,-40.2"/>
<polygon fill="none" stroke="#000000" points="125.5,-40.2 125.5,-59.2 231.5,-59.2 231.5,-40.2 125.5,-40.2"/>
<text text-anchor="start" x="222.3862" y="-46.3" font-family="Helvetica,sans-Serif" font-size="11.00" fill="#000000"> &#160;</text>
<polygon fill="#ffffff" stroke="transparent" points="231.5,-40.2 231.5,-59.2 315.5,-59.2 315.5,-40.2 231.5,-40.2"/>
<polygon fill="none" stroke="#000000" points="231.5,-40.2 231.5,-59.2 315.5,-59.2 315.5,-40.2 231.5,-40.2"/>
<text text-anchor="start" x="296.9053" y="-46.3" font-family="Helvetica,sans-Serif" font-size="11.00" fill="#000000">1 &gt;</text>
<polygon fill="none" stroke="#000000" stroke-width="2" points="9,-39.2 9,-259.2 316,-259.2 316,-39.2 9,-39.2"/>
</a>
</g>
</g>
<!-- draft_adjudications&#45;&gt;incident_role -->
<g id="edge1" class="edge">
<title>draft_adjudications:w&#45;&gt;incident_role:e</title>
<path fill="none" stroke="#000000" d="M351.776,-224.2C339.7815,-224.2 332.3229,-224.2 315.5,-224.2"/>
<polygon fill="#000000" stroke="#000000" points="358.5,-224.2001 366.5,-227.8 362.5,-224.2 366.5,-224.2 366.5,-224.2 366.5,-224.2 362.5,-224.2 366.5,-220.6 358.5,-224.2001 358.5,-224.2001"/>
<ellipse fill="none" stroke="#000000" cx="355.3" cy="-224.2001" rx="3.2" ry="3.2"/>
</g>
</g>
</svg>
