<?xml version="1.0" encoding="UTF-8" standalone="no"?>
<!DOCTYPE svg PUBLIC "-//W3C//DTD SVG 1.1//EN"
 "http://www.w3.org/Graphics/SVG/1.1/DTD/svg11.dtd">
<!-- Generated by graphviz version 2.40.1 (20161225.0304)
 -->
<!-- Title: oneDegreeRelationshipsDiagram Pages: 1 -->
<svg width="527pt" height="315pt"
 viewBox="0.00 0.00 527.00 314.70" xmlns="http://www.w3.org/2000/svg" xmlns:xlink="http://www.w3.org/1999/xlink">
<g id="graph0" class="graph" transform="scale(1 1) rotate(0) translate(4 310.7)">
<title>oneDegreeRelationshipsDiagram</title>
<polygon fill="#ffffff" stroke="transparent" points="-4,4 -4,-310.7 523,-310.7 523,4 -4,4"/>
<text text-anchor="middle" x="72.4936" y="-7.3" font-family="Helvetica,sans-Serif" font-size="11.00" fill="#000000">Generated by SchemaSpy</text>
<!-- draft_adjudications -->
<g id="node1" class="node">
<title>draft_adjudications</title>
<g id="a_node1"><a xlink:href="../../tables/draft_adjudications.html" xlink:title="draft_adjudications" target="_top">
<polygon fill="#ffffff" stroke="transparent" points="296,-131.7 296,-302.7 511,-302.7 511,-131.7 296,-131.7"/>
<polygon fill="#f5f5f5" stroke="transparent" points="296.5,-279.2 296.5,-302.2 511.5,-302.2 511.5,-279.2 296.5,-279.2"/>
<polygon fill="none" stroke="#000000" points="296.5,-279.2 296.5,-302.2 511.5,-302.2 511.5,-279.2 296.5,-279.2"/>
<text text-anchor="start" x="301.5" y="-287.8" font-family="Helvetica,sans-Serif" font-weight="bold" font-size="11.00" fill="#000000">draft_adjudications</text>
<text text-anchor="start" x="476.5437" y="-287.3" font-family="Helvetica,sans-Serif" font-size="11.00" fill="#000000">[table]</text>
<polygon fill="none" stroke="#000000" points="296.5,-257.2 296.5,-279.2 511.5,-279.2 511.5,-257.2 296.5,-257.2"/>
<image xlink:href="../../images/primaryKeys.png" width="11px" height="12px" preserveAspectRatio="xMinYMin meet" x="301.5" y="-274.2"/>
<text text-anchor="start" x="316.5" y="-264.3" font-family="Helvetica,sans-Serif" font-size="11.00" fill="#000000">id</text>
<polygon fill="#ffffff" stroke="transparent" points="296.5,-235.2 296.5,-257.2 511.5,-257.2 511.5,-235.2 296.5,-235.2"/>
<polygon fill="none" stroke="#000000" points="296.5,-235.2 296.5,-257.2 511.5,-257.2 511.5,-235.2 296.5,-235.2"/>
<text text-anchor="start" x="316.5" y="-242.3" font-family="Helvetica,sans-Serif" font-size="11.00" fill="#000000">prisoner_number</text>
<polygon fill="#ffffff" stroke="transparent" points="296.5,-213.2 296.5,-235.2 511.5,-235.2 511.5,-213.2 296.5,-213.2"/>
<polygon fill="none" stroke="#000000" points="296.5,-213.2 296.5,-235.2 511.5,-235.2 511.5,-213.2 296.5,-213.2"/>
<image xlink:href="../../images/foreignKeys.png" width="11px" height="12px" preserveAspectRatio="xMinYMin meet" x="301.5" y="-230.2"/>
<text text-anchor="start" x="316.5" y="-220.3" font-family="Helvetica,sans-Serif" font-size="11.00" fill="#000000">incident_details_id</text>
<polygon fill="#ffffff" stroke="transparent" points="296.5,-191.2 296.5,-213.2 511.5,-213.2 511.5,-191.2 296.5,-191.2"/>
<polygon fill="none" stroke="#000000" points="296.5,-191.2 296.5,-213.2 511.5,-213.2 511.5,-191.2 296.5,-191.2"/>
<image xlink:href="../../images/foreignKeys.png" width="11px" height="12px" preserveAspectRatio="xMinYMin meet" x="301.5" y="-208.2"/>
<text text-anchor="start" x="316.5" y="-198.3" font-family="Helvetica,sans-Serif" font-size="11.00" fill="#000000">incident_statement_id</text>
<polygon fill="#ffffff" stroke="transparent" points="296.5,-169.2 296.5,-191.2 511.5,-191.2 511.5,-169.2 296.5,-169.2"/>
<polygon fill="none" stroke="#000000" points="296.5,-169.2 296.5,-191.2 511.5,-191.2 511.5,-169.2 296.5,-169.2"/>
<image xlink:href="../../images/foreignKeys.png" width="11px" height="12px" preserveAspectRatio="xMinYMin meet" x="301.5" y="-186.2"/>
<text text-anchor="start" x="316.5" y="-176.3" font-family="Helvetica,sans-Serif" font-size="11.00" fill="#000000">incident_role_id</text>
<polygon fill="none" stroke="#000000" points="296.5,-150.2 296.5,-169.2 511.5,-169.2 511.5,-150.2 296.5,-150.2"/>
<text text-anchor="start" x="299.5" y="-156.3" font-family="Helvetica,sans-Serif" font-size="11.00" fill="#000000">...</text>
<polygon fill="#ffffff" stroke="transparent" points="296.5,-131.2 296.5,-150.2 397.5,-150.2 397.5,-131.2 296.5,-131.2"/>
<polygon fill="none" stroke="#000000" points="296.5,-131.2 296.5,-150.2 397.5,-150.2 397.5,-131.2 296.5,-131.2"/>
<text text-anchor="start" x="299.5" y="-137.3" font-family="Helvetica,sans-Serif" font-size="11.00" fill="#000000">&lt; 3</text>
<polygon fill="#ffffff" stroke="transparent" points="397.5,-131.2 397.5,-150.2 449.5,-150.2 449.5,-131.2 397.5,-131.2"/>
<polygon fill="none" stroke="#000000" points="397.5,-131.2 397.5,-150.2 449.5,-150.2 449.5,-131.2 397.5,-131.2"/>
<text text-anchor="start" x="440.3862" y="-137.3" font-family="Helvetica,sans-Serif" font-size="11.00" fill="#000000"> &#160;</text>
<polygon fill="#ffffff" stroke="transparent" points="449.5,-131.2 449.5,-150.2 511.5,-150.2 511.5,-131.2 449.5,-131.2"/>
<polygon fill="none" stroke="#000000" points="449.5,-131.2 449.5,-150.2 511.5,-150.2 511.5,-131.2 449.5,-131.2"/>
<text text-anchor="start" x="492.9053" y="-137.3" font-family="Helvetica,sans-Serif" font-size="11.00" fill="#000000">4 &gt;</text>
</a>
</g>
</g>
<!-- incident_statement -->
<g id="node2" class="node">
<title>incident_statement</title>
<g id="a_node2"><a xlink:href="../../tables/incident_statement.html" xlink:title="incident_statement" target="_top">
<polygon fill="#ffffff" stroke="transparent" points="8,-38.2 8,-238.2 247,-238.2 247,-38.2 8,-38.2"/>
<polygon fill="#f5f5f5" stroke="transparent" points="10.5,-213.2 10.5,-236.2 245.5,-236.2 245.5,-213.2 10.5,-213.2"/>
<polygon fill="none" stroke="#000000" points="10.5,-213.2 10.5,-236.2 245.5,-236.2 245.5,-213.2 10.5,-213.2"/>
<text text-anchor="start" x="15.5" y="-221.8" font-family="Helvetica,sans-Serif" font-weight="bold" font-size="11.00" fill="#000000">incident_statement</text>
<text text-anchor="start" x="210.5437" y="-221.3" font-family="Helvetica,sans-Serif" font-size="11.00" fill="#000000">[table]</text>
<polygon fill="none" stroke="#000000" points="10.5,-191.2 10.5,-213.2 161.5,-213.2 161.5,-191.2 10.5,-191.2"/>
<image xlink:href="../../images/primaryKeys.png" width="11px" height="12px" preserveAspectRatio="xMinYMin meet" x="15.5" y="-208.2"/>
<text text-anchor="start" x="30.5" y="-198.3" font-family="Helvetica,sans-Serif" font-size="11.00" fill="#000000">id</text>
<polygon fill="none" stroke="#000000" points="161.5,-191.2 161.5,-213.2 245.5,-213.2 245.5,-191.2 161.5,-191.2"/>
<text text-anchor="start" x="164.5" y="-198.9" font-family="Helvetica,sans-Serif" font-size="11.00" fill="#000000">serial[10]</text>
<polygon fill="none" stroke="#000000" points="10.5,-169.2 10.5,-191.2 161.5,-191.2 161.5,-169.2 10.5,-169.2"/>
<text text-anchor="start" x="30.5" y="-176.3" font-family="Helvetica,sans-Serif" font-size="11.00" fill="#000000">statement</text>
<polygon fill="none" stroke="#000000" points="161.5,-169.2 161.5,-191.2 245.5,-191.2 245.5,-169.2 161.5,-169.2"/>
<text text-anchor="start" x="164.5" y="-176.9" font-family="Helvetica,sans-Serif" font-size="11.00" fill="#000000">varchar[4000]</text>
<polygon fill="none" stroke="#000000" points="10.5,-147.2 10.5,-169.2 161.5,-169.2 161.5,-147.2 10.5,-147.2"/>
<text text-anchor="start" x="30.5" y="-154.3" font-family="Helvetica,sans-Serif" font-size="11.00" fill="#000000">create_user_id</text>
<polygon fill="none" stroke="#000000" points="161.5,-147.2 161.5,-169.2 245.5,-169.2 245.5,-147.2 161.5,-147.2"/>
<text text-anchor="start" x="164.5" y="-154.9" font-family="Helvetica,sans-Serif" font-size="11.00" fill="#000000">varchar[32]</text>
<polygon fill="none" stroke="#000000" points="10.5,-125.2 10.5,-147.2 161.5,-147.2 161.5,-125.2 10.5,-125.2"/>
<text text-anchor="start" x="30.5" y="-132.3" font-family="Helvetica,sans-Serif" font-size="11.00" fill="#000000">create_datetime</text>
<polygon fill="none" stroke="#000000" points="161.5,-125.2 161.5,-147.2 245.5,-147.2 245.5,-125.2 161.5,-125.2"/>
<text text-anchor="start" x="164.3807" y="-132.9" font-family="Helvetica,sans-Serif" font-size="11.00" fill="#000000">timestamp[29,6]</text>
<polygon fill="none" stroke="#000000" points="10.5,-103.2 10.5,-125.2 161.5,-125.2 161.5,-103.2 10.5,-103.2"/>
<text text-anchor="start" x="30.5" y="-110.3" font-family="Helvetica,sans-Serif" font-size="11.00" fill="#000000">modify_user_id</text>
<polygon fill="none" stroke="#000000" points="161.5,-103.2 161.5,-125.2 245.5,-125.2 245.5,-103.2 161.5,-103.2"/>
<text text-anchor="start" x="164.5" y="-110.9" font-family="Helvetica,sans-Serif" font-size="11.00" fill="#000000">varchar[32]</text>
<polygon fill="none" stroke="#000000" points="10.5,-81.2 10.5,-103.2 161.5,-103.2 161.5,-81.2 10.5,-81.2"/>
<text text-anchor="start" x="30.5" y="-88.3" font-family="Helvetica,sans-Serif" font-size="11.00" fill="#000000">modify_datetime</text>
<polygon fill="none" stroke="#000000" points="161.5,-81.2 161.5,-103.2 245.5,-103.2 245.5,-81.2 161.5,-81.2"/>
<text text-anchor="start" x="164.3807" y="-88.9" font-family="Helvetica,sans-Serif" font-size="11.00" fill="#000000">timestamp[29,6]</text>
<polygon fill="none" stroke="#000000" points="10.5,-59.2 10.5,-81.2 161.5,-81.2 161.5,-59.2 10.5,-59.2"/>
<text text-anchor="start" x="30.5" y="-66.3" font-family="Helvetica,sans-Serif" font-size="11.00" fill="#000000">completed</text>
<polygon fill="none" stroke="#000000" points="161.5,-59.2 161.5,-81.2 245.5,-81.2 245.5,-59.2 161.5,-59.2"/>
<text text-anchor="start" x="164.5" y="-66.9" font-family="Helvetica,sans-Serif" font-size="11.00" fill="#000000">bool[1]</text>
<polygon fill="#ffffff" stroke="transparent" points="10.5,-40.2 10.5,-59.2 90.5,-59.2 90.5,-40.2 10.5,-40.2"/>
<polygon fill="none" stroke="#000000" points="10.5,-40.2 10.5,-59.2 90.5,-59.2 90.5,-40.2 10.5,-40.2"/>
<text text-anchor="start" x="13.5" y="-46.3" font-family="Helvetica,sans-Serif" font-size="11.00" fill="#000000">&lt; 0</text>
<polygon fill="#ffffff" stroke="transparent" points="90.5,-40.2 90.5,-59.2 161.5,-59.2 161.5,-40.2 90.5,-40.2"/>
<polygon fill="none" stroke="#000000" points="90.5,-40.2 90.5,-59.2 161.5,-59.2 161.5,-40.2 90.5,-40.2"/>
<text text-anchor="start" x="152.3862" y="-46.3" font-family="Helvetica,sans-Serif" font-size="11.00" fill="#000000"> &#160;</text>
<polygon fill="#ffffff" stroke="transparent" points="161.5,-40.2 161.5,-59.2 245.5,-59.2 245.5,-40.2 161.5,-40.2"/>
<polygon fill="none" stroke="#000000" points="161.5,-40.2 161.5,-59.2 245.5,-59.2 245.5,-40.2 161.5,-40.2"/>
<text text-anchor="start" x="226.9053" y="-46.3" font-family="Helvetica,sans-Serif" font-size="11.00" fill="#000000">1 &gt;</text>
<polygon fill="none" stroke="#000000" stroke-width="2" points="9,-39.2 9,-237.2 246,-237.2 246,-39.2 9,-39.2"/>
</a>
</g>
</g>
<!-- draft_adjudications&#45;&gt;incident_statement -->
<g id="edge1" class="edge">
<title>draft_adjudications:w&#45;&gt;incident_statement:e</title>
<path fill="none" stroke="#000000" d="M281.776,-202.2C269.7815,-202.2 262.3229,-202.2 245.5,-202.2"/>
<polygon fill="#000000" stroke="#000000" points="288.5,-202.2001 296.5,-205.8 292.5,-202.2 296.5,-202.2 296.5,-202.2 296.5,-202.2 292.5,-202.2 296.5,-198.6 288.5,-202.2001 288.5,-202.2001"/>
<ellipse fill="none" stroke="#000000" cx="285.3" cy="-202.2001" rx="3.2" ry="3.2"/>
</g>
</g>
</svg>
