<?xml version="1.0" encoding="UTF-8" standalone="no"?>
<!DOCTYPE svg PUBLIC "-//W3C//DTD SVG 1.1//EN"
 "http://www.w3.org/Graphics/SVG/1.1/DTD/svg11.dtd">
<!-- Generated by graphviz version 2.40.1 (20161225.0304)
 -->
<!-- Title: twoDegreesRelationshipsDiagram Pages: 1 -->
<svg width="746pt" height="544pt"
 viewBox="0.00 0.00 746.00 543.70" xmlns="http://www.w3.org/2000/svg" xmlns:xlink="http://www.w3.org/1999/xlink">
<g id="graph0" class="graph" transform="scale(1 1) rotate(0) translate(4 539.7)">
<title>twoDegreesRelationshipsDiagram</title>
<polygon fill="#ffffff" stroke="transparent" points="-4,4 -4,-539.7 742,-539.7 742,4 -4,4"/>
<text text-anchor="middle" x="72.4936" y="-7.3" font-family="Helvetica,sans-Serif" font-size="11.00" fill="#000000">Generated by SchemaSpy</text>
<!-- damages -->
<g id="node1" class="node">
<title>damages</title>
<g id="a_node1"><a xlink:href="../../tables/damages.html" xlink:title="damages" target="_top">
<polygon fill="#ffffff" stroke="transparent" points="630,-470.7 630,-531.7 730,-531.7 730,-470.7 630,-470.7"/>
<polygon fill="#f5f5f5" stroke="transparent" points="630,-508.2 630,-531.2 730,-531.2 730,-508.2 630,-508.2"/>
<polygon fill="none" stroke="#000000" points="630,-508.2 630,-531.2 730,-531.2 730,-508.2 630,-508.2"/>
<text text-anchor="start" x="635" y="-516.8" font-family="Helvetica,sans-Serif" font-weight="bold" font-size="11.00" fill="#000000">damages</text>
<text text-anchor="start" x="695.5219" y="-516.3" font-family="Helvetica,sans-Serif" font-size="11.00" fill="#000000">[table]</text>
<polygon fill="none" stroke="#000000" points="630,-489.2 630,-508.2 730,-508.2 730,-489.2 630,-489.2"/>
<text text-anchor="start" x="633" y="-495.3" font-family="Helvetica,sans-Serif" font-size="11.00" fill="#000000">...</text>
<polygon fill="#ffffff" stroke="transparent" points="630,-470.2 630,-489.2 678,-489.2 678,-470.2 630,-470.2"/>
<polygon fill="none" stroke="#000000" points="630,-470.2 630,-489.2 678,-489.2 678,-470.2 630,-470.2"/>
<text text-anchor="start" x="633" y="-476.3" font-family="Helvetica,sans-Serif" font-size="11.00" fill="#000000">&lt; 1</text>
<polygon fill="#ffffff" stroke="transparent" points="678,-470.2 678,-489.2 704,-489.2 704,-470.2 678,-470.2"/>
<polygon fill="none" stroke="#000000" points="678,-470.2 678,-489.2 704,-489.2 704,-470.2 678,-470.2"/>
<text text-anchor="start" x="694.8862" y="-476.3" font-family="Helvetica,sans-Serif" font-size="11.00" fill="#000000"> &#160;</text>
<polygon fill="#ffffff" stroke="transparent" points="704,-470.2 704,-489.2 730,-489.2 730,-470.2 704,-470.2"/>
<polygon fill="none" stroke="#000000" points="704,-470.2 704,-489.2 730,-489.2 730,-470.2 704,-470.2"/>
<text text-anchor="start" x="720.8862" y="-476.3" font-family="Helvetica,sans-Serif" font-size="11.00" fill="#000000"> &#160;</text>
</a>
</g>
</g>
<!-- draft_adjudications -->
<g id="node2" class="node">
<title>draft_adjudications</title>
<g id="a_node2"><a xlink:href="../../tables/draft_adjudications.html" xlink:title="draft_adjudications" target="_top">
<polygon fill="#ffffff" stroke="transparent" points="366,-238.7 366,-409.7 581,-409.7 581,-238.7 366,-238.7"/>
<polygon fill="#f5f5f5" stroke="transparent" points="366.5,-386.2 366.5,-409.2 581.5,-409.2 581.5,-386.2 366.5,-386.2"/>
<polygon fill="none" stroke="#000000" points="366.5,-386.2 366.5,-409.2 581.5,-409.2 581.5,-386.2 366.5,-386.2"/>
<text text-anchor="start" x="371.5" y="-394.8" font-family="Helvetica,sans-Serif" font-weight="bold" font-size="11.00" fill="#000000">draft_adjudications</text>
<text text-anchor="start" x="546.5437" y="-394.3" font-family="Helvetica,sans-Serif" font-size="11.00" fill="#000000">[table]</text>
<polygon fill="none" stroke="#000000" points="366.5,-364.2 366.5,-386.2 581.5,-386.2 581.5,-364.2 366.5,-364.2"/>
<image xlink:href="../../images/primaryKeys.png" width="11px" height="12px" preserveAspectRatio="xMinYMin meet" x="371.5" y="-381.2"/>
<text text-anchor="start" x="386.5" y="-371.3" font-family="Helvetica,sans-Serif" font-size="11.00" fill="#000000">id</text>
<polygon fill="#ffffff" stroke="transparent" points="366.5,-342.2 366.5,-364.2 581.5,-364.2 581.5,-342.2 366.5,-342.2"/>
<polygon fill="none" stroke="#000000" points="366.5,-342.2 366.5,-364.2 581.5,-364.2 581.5,-342.2 366.5,-342.2"/>
<text text-anchor="start" x="386.5" y="-349.3" font-family="Helvetica,sans-Serif" font-size="11.00" fill="#000000">prisoner_number</text>
<polygon fill="#ffffff" stroke="transparent" points="366.5,-320.2 366.5,-342.2 581.5,-342.2 581.5,-320.2 366.5,-320.2"/>
<polygon fill="none" stroke="#000000" points="366.5,-320.2 366.5,-342.2 581.5,-342.2 581.5,-320.2 366.5,-320.2"/>
<image xlink:href="../../images/foreignKeys.png" width="11px" height="12px" preserveAspectRatio="xMinYMin meet" x="371.5" y="-337.2"/>
<text text-anchor="start" x="386.5" y="-327.3" font-family="Helvetica,sans-Serif" font-size="11.00" fill="#000000">incident_details_id</text>
<polygon fill="#ffffff" stroke="transparent" points="366.5,-298.2 366.5,-320.2 581.5,-320.2 581.5,-298.2 366.5,-298.2"/>
<polygon fill="none" stroke="#000000" points="366.5,-298.2 366.5,-320.2 581.5,-320.2 581.5,-298.2 366.5,-298.2"/>
<image xlink:href="../../images/foreignKeys.png" width="11px" height="12px" preserveAspectRatio="xMinYMin meet" x="371.5" y="-315.2"/>
<text text-anchor="start" x="386.5" y="-305.3" font-family="Helvetica,sans-Serif" font-size="11.00" fill="#000000">incident_statement_id</text>
<polygon fill="#ffffff" stroke="transparent" points="366.5,-276.2 366.5,-298.2 581.5,-298.2 581.5,-276.2 366.5,-276.2"/>
<polygon fill="none" stroke="#000000" points="366.5,-276.2 366.5,-298.2 581.5,-298.2 581.5,-276.2 366.5,-276.2"/>
<image xlink:href="../../images/foreignKeys.png" width="11px" height="12px" preserveAspectRatio="xMinYMin meet" x="371.5" y="-293.2"/>
<text text-anchor="start" x="386.5" y="-283.3" font-family="Helvetica,sans-Serif" font-size="11.00" fill="#000000">incident_role_id</text>
<polygon fill="none" stroke="#000000" points="366.5,-257.2 366.5,-276.2 581.5,-276.2 581.5,-257.2 366.5,-257.2"/>
<text text-anchor="start" x="369.5" y="-263.3" font-family="Helvetica,sans-Serif" font-size="11.00" fill="#000000">...</text>
<polygon fill="#ffffff" stroke="transparent" points="366.5,-238.2 366.5,-257.2 467.5,-257.2 467.5,-238.2 366.5,-238.2"/>
<polygon fill="none" stroke="#000000" points="366.5,-238.2 366.5,-257.2 467.5,-257.2 467.5,-238.2 366.5,-238.2"/>
<text text-anchor="start" x="369.5" y="-244.3" font-family="Helvetica,sans-Serif" font-size="11.00" fill="#000000">&lt; 3</text>
<polygon fill="#ffffff" stroke="transparent" points="467.5,-238.2 467.5,-257.2 519.5,-257.2 519.5,-238.2 467.5,-238.2"/>
<polygon fill="none" stroke="#000000" points="467.5,-238.2 467.5,-257.2 519.5,-257.2 519.5,-238.2 467.5,-238.2"/>
<text text-anchor="start" x="510.3862" y="-244.3" font-family="Helvetica,sans-Serif" font-size="11.00" fill="#000000"> &#160;</text>
<polygon fill="#ffffff" stroke="transparent" points="519.5,-238.2 519.5,-257.2 581.5,-257.2 581.5,-238.2 519.5,-238.2"/>
<polygon fill="none" stroke="#000000" points="519.5,-238.2 519.5,-257.2 581.5,-257.2 581.5,-238.2 519.5,-238.2"/>
<text text-anchor="start" x="562.9053" y="-244.3" font-family="Helvetica,sans-Serif" font-size="11.00" fill="#000000">4 &gt;</text>
</a>
</g>
</g>
<!-- damages&#45;&gt;draft_adjudications -->
<g id="edge1" class="edge">
<title>damages:w&#45;&gt;draft_adjudications:e</title>
<path fill="none" stroke="#000000" d="M615.7823,-494.6515C583.9398,-474.4844 634.2949,-375.2 581.5,-375.2"/>
<polygon fill="#000000" stroke="#000000" points="622.2381,-496.2627 629.1282,-501.6929 626.119,-497.2314 630,-498.2 630,-498.2 630,-498.2 626.119,-497.2314 630.8718,-494.7071 622.2381,-496.2627 622.2381,-496.2627"/>
<ellipse fill="none" stroke="#000000" cx="619.1333" cy="-495.4878" rx="3.2" ry="3.2"/>
</g>
<!-- incident_details -->
<g id="node3" class="node">
<title>incident_details</title>
<g id="a_node3"><a xlink:href="../../tables/incident_details.html" xlink:title="incident_details" target="_top">
<polygon fill="#ffffff" stroke="transparent" points="90,-363.7 90,-424.7 235,-424.7 235,-363.7 90,-363.7"/>
<polygon fill="#f5f5f5" stroke="transparent" points="90.5,-401.2 90.5,-424.2 235.5,-424.2 235.5,-401.2 90.5,-401.2"/>
<polygon fill="none" stroke="#000000" points="90.5,-401.2 90.5,-424.2 235.5,-424.2 235.5,-401.2 90.5,-401.2"/>
<text text-anchor="start" x="95.5" y="-409.8" font-family="Helvetica,sans-Serif" font-weight="bold" font-size="11.00" fill="#000000">incident_details</text>
<text text-anchor="start" x="201.0219" y="-409.3" font-family="Helvetica,sans-Serif" font-size="11.00" fill="#000000">[table]</text>
<polygon fill="none" stroke="#000000" points="90.5,-382.2 90.5,-401.2 235.5,-401.2 235.5,-382.2 90.5,-382.2"/>
<text text-anchor="start" x="93.5" y="-388.3" font-family="Helvetica,sans-Serif" font-size="11.00" fill="#000000">...</text>
<polygon fill="#ffffff" stroke="transparent" points="90.5,-363.2 90.5,-382.2 152.5,-382.2 152.5,-363.2 90.5,-363.2"/>
<polygon fill="none" stroke="#000000" points="90.5,-363.2 90.5,-382.2 152.5,-382.2 152.5,-363.2 90.5,-363.2"/>
<text text-anchor="start" x="93.5" y="-369.3" font-family="Helvetica,sans-Serif" font-size="11.00" fill="#000000"> &#160;</text>
<polygon fill="#ffffff" stroke="transparent" points="152.5,-363.2 152.5,-382.2 189.5,-382.2 189.5,-363.2 152.5,-363.2"/>
<polygon fill="none" stroke="#000000" points="152.5,-363.2 152.5,-382.2 189.5,-382.2 189.5,-363.2 152.5,-363.2"/>
<text text-anchor="start" x="180.3862" y="-369.3" font-family="Helvetica,sans-Serif" font-size="11.00" fill="#000000"> &#160;</text>
<polygon fill="#ffffff" stroke="transparent" points="189.5,-363.2 189.5,-382.2 235.5,-382.2 235.5,-363.2 189.5,-363.2"/>
<polygon fill="none" stroke="#000000" points="189.5,-363.2 189.5,-382.2 235.5,-382.2 235.5,-363.2 189.5,-363.2"/>
<text text-anchor="start" x="216.9053" y="-369.3" font-family="Helvetica,sans-Serif" font-size="11.00" fill="#000000">1 &gt;</text>
</a>
</g>
</g>
<!-- draft_adjudications&#45;&gt;incident_details -->
<g id="edge2" class="edge">
<title>draft_adjudications:w&#45;&gt;incident_details:e</title>
<path fill="none" stroke="#000000" d="M352.3107,-334.0523C343.1706,-338.3911 338.3993,-346.8183 325,-353.2 285.9844,-371.782 278.7147,-391.2 235.5,-391.2"/>
<polygon fill="#000000" stroke="#000000" points="358.6569,-332.7767 367.2095,-334.7294 362.5784,-331.9883 366.5,-331.2 366.5,-331.2 366.5,-331.2 362.5784,-331.9883 365.7905,-327.6706 358.6569,-332.7767 358.6569,-332.7767"/>
<ellipse fill="none" stroke="#000000" cx="355.5197" cy="-333.4073" rx="3.2" ry="3.2"/>
</g>
<!-- incident_role -->
<g id="node4" class="node">
<title>incident_role</title>
<g id="a_node4"><a xlink:href="../../tables/incident_role.html" xlink:title="incident_role" target="_top">
<polygon fill="#ffffff" stroke="transparent" points="8,-38.2 8,-260.2 317,-260.2 317,-38.2 8,-38.2"/>
<polygon fill="#f5f5f5" stroke="transparent" points="10.5,-235.2 10.5,-258.2 315.5,-258.2 315.5,-235.2 10.5,-235.2"/>
<polygon fill="none" stroke="#000000" points="10.5,-235.2 10.5,-258.2 315.5,-258.2 315.5,-235.2 10.5,-235.2"/>
<text text-anchor="start" x="15.5" y="-243.8" font-family="Helvetica,sans-Serif" font-weight="bold" font-size="11.00" fill="#000000">incident_role</text>
<text text-anchor="start" x="280.5437" y="-243.3" font-family="Helvetica,sans-Serif" font-size="11.00" fill="#000000">[table]</text>
<polygon fill="none" stroke="#000000" points="10.5,-213.2 10.5,-235.2 231.5,-235.2 231.5,-213.2 10.5,-213.2"/>
<image xlink:href="../../images/primaryKeys.png" width="11px" height="12px" preserveAspectRatio="xMinYMin meet" x="15.5" y="-230.2"/>
<text text-anchor="start" x="30.5" y="-220.3" font-family="Helvetica,sans-Serif" font-size="11.00" fill="#000000">id</text>
<polygon fill="none" stroke="#000000" points="231.5,-213.2 231.5,-235.2 315.5,-235.2 315.5,-213.2 231.5,-213.2"/>
<text text-anchor="start" x="234.5" y="-220.9" font-family="Helvetica,sans-Serif" font-size="11.00" fill="#000000">serial[10]</text>
<polygon fill="none" stroke="#000000" points="10.5,-191.2 10.5,-213.2 231.5,-213.2 231.5,-191.2 10.5,-191.2"/>
<text text-anchor="start" x="30.5" y="-198.3" font-family="Helvetica,sans-Serif" font-size="11.00" fill="#000000">role_code</text>
<polygon fill="none" stroke="#000000" points="231.5,-191.2 231.5,-213.2 315.5,-213.2 315.5,-191.2 231.5,-191.2"/>
<text text-anchor="start" x="234.5" y="-198.9" font-family="Helvetica,sans-Serif" font-size="11.00" fill="#000000">varchar[5]</text>
<polygon fill="#ffffff" stroke="transparent" points="10.5,-169.2 10.5,-191.2 231.5,-191.2 231.5,-169.2 10.5,-169.2"/>
<polygon fill="none" stroke="#000000" points="10.5,-169.2 10.5,-191.2 231.5,-191.2 231.5,-169.2 10.5,-169.2"/>
<text text-anchor="start" x="30.5" y="-176.3" font-family="Helvetica,sans-Serif" font-size="11.00" fill="#000000">associated_prisoners_number</text>
<polygon fill="none" stroke="#000000" points="231.5,-169.2 231.5,-191.2 315.5,-191.2 315.5,-169.2 231.5,-169.2"/>
<text text-anchor="start" x="234.5" y="-176.9" font-family="Helvetica,sans-Serif" font-size="11.00" fill="#000000">varchar[7]</text>
<polygon fill="none" stroke="#000000" points="10.5,-147.2 10.5,-169.2 231.5,-169.2 231.5,-147.2 10.5,-147.2"/>
<text text-anchor="start" x="30.5" y="-154.3" font-family="Helvetica,sans-Serif" font-size="11.00" fill="#000000">create_user_id</text>
<polygon fill="none" stroke="#000000" points="231.5,-147.2 231.5,-169.2 315.5,-169.2 315.5,-147.2 231.5,-147.2"/>
<text text-anchor="start" x="234.5" y="-154.9" font-family="Helvetica,sans-Serif" font-size="11.00" fill="#000000">varchar[32]</text>
<polygon fill="none" stroke="#000000" points="10.5,-125.2 10.5,-147.2 231.5,-147.2 231.5,-125.2 10.5,-125.2"/>
<text text-anchor="start" x="30.5" y="-132.3" font-family="Helvetica,sans-Serif" font-size="11.00" fill="#000000">create_datetime</text>
<polygon fill="none" stroke="#000000" points="231.5,-125.2 231.5,-147.2 315.5,-147.2 315.5,-125.2 231.5,-125.2"/>
<text text-anchor="start" x="234.3807" y="-132.9" font-family="Helvetica,sans-Serif" font-size="11.00" fill="#000000">timestamp[29,6]</text>
<polygon fill="none" stroke="#000000" points="10.5,-103.2 10.5,-125.2 231.5,-125.2 231.5,-103.2 10.5,-103.2"/>
<text text-anchor="start" x="30.5" y="-110.3" font-family="Helvetica,sans-Serif" font-size="11.00" fill="#000000">modify_user_id</text>
<polygon fill="none" stroke="#000000" points="231.5,-103.2 231.5,-125.2 315.5,-125.2 315.5,-103.2 231.5,-103.2"/>
<text text-anchor="start" x="234.5" y="-110.9" font-family="Helvetica,sans-Serif" font-size="11.00" fill="#000000">varchar[32]</text>
<polygon fill="none" stroke="#000000" points="10.5,-81.2 10.5,-103.2 231.5,-103.2 231.5,-81.2 10.5,-81.2"/>
<text text-anchor="start" x="30.5" y="-88.3" font-family="Helvetica,sans-Serif" font-size="11.00" fill="#000000">modify_datetime</text>
<polygon fill="none" stroke="#000000" points="231.5,-81.2 231.5,-103.2 315.5,-103.2 315.5,-81.2 231.5,-81.2"/>
<text text-anchor="start" x="234.3807" y="-88.9" font-family="Helvetica,sans-Serif" font-size="11.00" fill="#000000">timestamp[29,6]</text>
<polygon fill="none" stroke="#000000" points="10.5,-59.2 10.5,-81.2 231.5,-81.2 231.5,-59.2 10.5,-59.2"/>
<text text-anchor="start" x="30.5" y="-66.3" font-family="Helvetica,sans-Serif" font-size="11.00" fill="#000000">associated_prisoners_name</text>
<polygon fill="none" stroke="#000000" points="231.5,-59.2 231.5,-81.2 315.5,-81.2 315.5,-59.2 231.5,-59.2"/>
<text text-anchor="start" x="234.5" y="-66.9" font-family="Helvetica,sans-Serif" font-size="11.00" fill="#000000">varchar[100]</text>
<polygon fill="#ffffff" stroke="transparent" points="10.5,-40.2 10.5,-59.2 125.5,-59.2 125.5,-40.2 10.5,-40.2"/>
<polygon fill="none" stroke="#000000" points="10.5,-40.2 10.5,-59.2 125.5,-59.2 125.5,-40.2 10.5,-40.2"/>
<text text-anchor="start" x="13.5" y="-46.3" font-family="Helvetica,sans-Serif" font-size="11.00" fill="#000000">&lt; 0</text>
<polygon fill="#ffffff" stroke="transparent" points="125.5,-40.2 125.5,-59.2 231.5,-59.2 231.5,-40.2 125.5,-40.2"/>
<polygon fill="none" stroke="#000000" points="125.5,-40.2 125.5,-59.2 231.5,-59.2 231.5,-40.2 125.5,-40.2"/>
<text text-anchor="start" x="222.3862" y="-46.3" font-family="Helvetica,sans-Serif" font-size="11.00" fill="#000000"> &#160;</text>
<polygon fill="#ffffff" stroke="transparent" points="231.5,-40.2 231.5,-59.2 315.5,-59.2 315.5,-40.2 231.5,-40.2"/>
<polygon fill="none" stroke="#000000" points="231.5,-40.2 231.5,-59.2 315.5,-59.2 315.5,-40.2 231.5,-40.2"/>
<text text-anchor="start" x="296.9053" y="-46.3" font-family="Helvetica,sans-Serif" font-size="11.00" fill="#000000">1 &gt;</text>
<polygon fill="none" stroke="#000000" stroke-width="2" points="9,-39.2 9,-259.2 316,-259.2 316,-39.2 9,-39.2"/>
</a>
</g>
</g>
<!-- draft_adjudications&#45;&gt;incident_role -->
<g id="edge3" class="edge">
<title>draft_adjudications:w&#45;&gt;incident_role:e</title>
<path fill="none" stroke="#000000" d="M352.4033,-282.2565C336.025,-267.4048 345.3329,-224.2 315.5,-224.2"/>
<polygon fill="#000000" stroke="#000000" points="358.9507,-284.5526 365.3087,-290.5972 362.7254,-285.8763 366.5,-287.2 366.5,-287.2 366.5,-287.2 362.7254,-285.8763 367.6913,-283.8028 358.9507,-284.5526 358.9507,-284.5526"/>
<ellipse fill="none" stroke="#000000" cx="355.931" cy="-283.4936" rx="3.2" ry="3.2"/>
</g>
<!-- incident_statement -->
<g id="node5" class="node">
<title>incident_statement</title>
<g id="a_node5"><a xlink:href="../../tables/incident_statement.html" xlink:title="incident_statement" target="_top">
<polygon fill="#ffffff" stroke="transparent" points="78,-281.7 78,-342.7 247,-342.7 247,-281.7 78,-281.7"/>
<polygon fill="#f5f5f5" stroke="transparent" points="78.5,-319.2 78.5,-342.2 247.5,-342.2 247.5,-319.2 78.5,-319.2"/>
<polygon fill="none" stroke="#000000" points="78.5,-319.2 78.5,-342.2 247.5,-342.2 247.5,-319.2 78.5,-319.2"/>
<text text-anchor="start" x="83.5" y="-327.8" font-family="Helvetica,sans-Serif" font-weight="bold" font-size="11.00" fill="#000000">incident_statement</text>
<text text-anchor="start" x="213.0219" y="-327.3" font-family="Helvetica,sans-Serif" font-size="11.00" fill="#000000">[table]</text>
<polygon fill="none" stroke="#000000" points="78.5,-300.2 78.5,-319.2 247.5,-319.2 247.5,-300.2 78.5,-300.2"/>
<text text-anchor="start" x="81.5" y="-306.3" font-family="Helvetica,sans-Serif" font-size="11.00" fill="#000000">...</text>
<polygon fill="#ffffff" stroke="transparent" points="78.5,-281.2 78.5,-300.2 152.5,-300.2 152.5,-281.2 78.5,-281.2"/>
<polygon fill="none" stroke="#000000" points="78.5,-281.2 78.5,-300.2 152.5,-300.2 152.5,-281.2 78.5,-281.2"/>
<text text-anchor="start" x="81.5" y="-287.3" font-family="Helvetica,sans-Serif" font-size="11.00" fill="#000000"> &#160;</text>
<polygon fill="#ffffff" stroke="transparent" points="152.5,-281.2 152.5,-300.2 195.5,-300.2 195.5,-281.2 152.5,-281.2"/>
<polygon fill="none" stroke="#000000" points="152.5,-281.2 152.5,-300.2 195.5,-300.2 195.5,-281.2 152.5,-281.2"/>
<text text-anchor="start" x="186.3862" y="-287.3" font-family="Helvetica,sans-Serif" font-size="11.00" fill="#000000"> &#160;</text>
<polygon fill="#ffffff" stroke="transparent" points="195.5,-281.2 195.5,-300.2 247.5,-300.2 247.5,-281.2 195.5,-281.2"/>
<polygon fill="none" stroke="#000000" points="195.5,-281.2 195.5,-300.2 247.5,-300.2 247.5,-281.2 195.5,-281.2"/>
<text text-anchor="start" x="228.9053" y="-287.3" font-family="Helvetica,sans-Serif" font-size="11.00" fill="#000000">1 &gt;</text>
</a>
</g>
</g>
<!-- draft_adjudications&#45;&gt;incident_statement -->
<g id="edge4" class="edge">
<title>draft_adjudications:w&#45;&gt;incident_statement:e</title>
<path fill="none" stroke="#000000" d="M352.0662,-309.2C310.6504,-309.2 295.224,-309.2 247.5,-309.2"/>
<polygon fill="#000000" stroke="#000000" points="358.5,-309.2001 366.5,-312.8 362.5,-309.2 366.5,-309.2 366.5,-309.2 366.5,-309.2 362.5,-309.2 366.5,-305.6 358.5,-309.2001 358.5,-309.2001"/>
<ellipse fill="none" stroke="#000000" cx="355.3" cy="-309.2001" rx="3.2" ry="3.2"/>
</g>
<!-- evidence -->
<g id="node6" class="node">
<title>evidence</title>
<g id="a_node6"><a xlink:href="../../tables/evidence.html" xlink:title="evidence" target="_top">
<polygon fill="#ffffff" stroke="transparent" points="630.5,-388.7 630.5,-449.7 729.5,-449.7 729.5,-388.7 630.5,-388.7"/>
<polygon fill="#f5f5f5" stroke="transparent" points="631,-426.2 631,-449.2 730,-449.2 730,-426.2 631,-426.2"/>
<polygon fill="none" stroke="#000000" points="631,-426.2 631,-449.2 730,-449.2 730,-426.2 631,-426.2"/>
<text text-anchor="start" x="636" y="-434.8" font-family="Helvetica,sans-Serif" font-weight="bold" font-size="11.00" fill="#000000">evidence</text>
<text text-anchor="start" x="695.5219" y="-434.3" font-family="Helvetica,sans-Serif" font-size="11.00" fill="#000000">[table]</text>
<polygon fill="none" stroke="#000000" points="631,-407.2 631,-426.2 730,-426.2 730,-407.2 631,-407.2"/>
<text text-anchor="start" x="634" y="-413.3" font-family="Helvetica,sans-Serif" font-size="11.00" fill="#000000">...</text>
<polygon fill="#ffffff" stroke="transparent" points="631,-388.2 631,-407.2 679,-407.2 679,-388.2 631,-388.2"/>
<polygon fill="none" stroke="#000000" points="631,-388.2 631,-407.2 679,-407.2 679,-388.2 631,-388.2"/>
<text text-anchor="start" x="634" y="-394.3" font-family="Helvetica,sans-Serif" font-size="11.00" fill="#000000">&lt; 1</text>
<polygon fill="#ffffff" stroke="transparent" points="679,-388.2 679,-407.2 704,-407.2 704,-388.2 679,-388.2"/>
<polygon fill="none" stroke="#000000" points="679,-388.2 679,-407.2 704,-407.2 704,-388.2 679,-388.2"/>
<text text-anchor="start" x="694.8862" y="-394.3" font-family="Helvetica,sans-Serif" font-size="11.00" fill="#000000"> &#160;</text>
<polygon fill="#ffffff" stroke="transparent" points="704,-388.2 704,-407.2 730,-407.2 730,-388.2 704,-388.2"/>
<polygon fill="none" stroke="#000000" points="704,-388.2 704,-407.2 730,-407.2 730,-388.2 704,-388.2"/>
<text text-anchor="start" x="720.8862" y="-394.3" font-family="Helvetica,sans-Serif" font-size="11.00" fill="#000000"> &#160;</text>
</a>
</g>
</g>
<!-- evidence&#45;&gt;draft_adjudications -->
<g id="edge5" class="edge">
<title>evidence:w&#45;&gt;draft_adjudications:e</title>
<path fill="none" stroke="#000000" d="M617.0753,-411.4968C604.043,-400.7274 604.0408,-375.2 581.5,-375.2"/>
<polygon fill="#000000" stroke="#000000" points="623.4207,-413.64 629.848,-419.6107 627.2103,-414.92 631,-416.2 631,-416.2 631,-416.2 627.2103,-414.92 632.152,-412.7893 623.4207,-413.64 623.4207,-413.64"/>
<ellipse fill="none" stroke="#000000" cx="620.3889" cy="-412.6159" rx="3.2" ry="3.2"/>
</g>
<!-- offence -->
<g id="node7" class="node">
<title>offence</title>
<g id="a_node7"><a xlink:href="../../tables/offence.html" xlink:title="offence" target="_top">
<polygon fill="#ffffff" stroke="transparent" points="635.5,-306.7 635.5,-367.7 724.5,-367.7 724.5,-306.7 635.5,-306.7"/>
<polygon fill="#f5f5f5" stroke="transparent" points="636,-344.2 636,-367.2 725,-367.2 725,-344.2 636,-344.2"/>
<polygon fill="none" stroke="#000000" points="636,-344.2 636,-367.2 725,-367.2 725,-344.2 636,-344.2"/>
<text text-anchor="start" x="641" y="-352.8" font-family="Helvetica,sans-Serif" font-weight="bold" font-size="11.00" fill="#000000">offence</text>
<text text-anchor="start" x="690.5219" y="-352.3" font-family="Helvetica,sans-Serif" font-size="11.00" fill="#000000">[table]</text>
<polygon fill="none" stroke="#000000" points="636,-325.2 636,-344.2 725,-344.2 725,-325.2 636,-325.2"/>
<text text-anchor="start" x="639" y="-331.3" font-family="Helvetica,sans-Serif" font-size="11.00" fill="#000000">...</text>
<polygon fill="#ffffff" stroke="transparent" points="636,-306.2 636,-325.2 674,-325.2 674,-306.2 636,-306.2"/>
<polygon fill="none" stroke="#000000" points="636,-306.2 636,-325.2 674,-325.2 674,-306.2 636,-306.2"/>
<text text-anchor="start" x="639" y="-312.3" font-family="Helvetica,sans-Serif" font-size="11.00" fill="#000000">&lt; 1</text>
<polygon fill="#ffffff" stroke="transparent" points="674,-306.2 674,-325.2 695,-325.2 695,-306.2 674,-306.2"/>
<polygon fill="none" stroke="#000000" points="674,-306.2 674,-325.2 695,-325.2 695,-306.2 674,-306.2"/>
<text text-anchor="start" x="685.8862" y="-312.3" font-family="Helvetica,sans-Serif" font-size="11.00" fill="#000000"> &#160;</text>
<polygon fill="#ffffff" stroke="transparent" points="695,-306.2 695,-325.2 725,-325.2 725,-306.2 695,-306.2"/>
<polygon fill="none" stroke="#000000" points="695,-306.2 695,-325.2 725,-325.2 725,-306.2 695,-306.2"/>
<text text-anchor="start" x="706.4053" y="-312.3" font-family="Helvetica,sans-Serif" font-size="11.00" fill="#000000">1 &gt;</text>
</a>
</g>
</g>
<!-- offence&#45;&gt;draft_adjudications -->
<g id="edge6" class="edge">
<title>offence:w&#45;&gt;draft_adjudications:e</title>
<path fill="none" stroke="#000000" d="M621.8661,-338.2811C606.6905,-348.6516 605.891,-375.2 581.5,-375.2"/>
<polygon fill="#000000" stroke="#000000" points="628.314,-336.4194 636.9987,-337.6587 632.157,-335.3097 636,-334.2 636,-334.2 636,-334.2 632.157,-335.3097 635.0013,-330.7413 628.314,-336.4194 628.314,-336.4194"/>
<ellipse fill="none" stroke="#000000" cx="625.2396" cy="-337.3071" rx="3.2" ry="3.2"/>
</g>
<!-- witness -->
<g id="node8" class="node">
<title>witness</title>
<g id="a_node8"><a xlink:href="../../tables/witness.html" xlink:title="witness" target="_top">
<polygon fill="#ffffff" stroke="transparent" points="635,-224.7 635,-285.7 725,-285.7 725,-224.7 635,-224.7"/>
<polygon fill="#f5f5f5" stroke="transparent" points="635,-262.2 635,-285.2 725,-285.2 725,-262.2 635,-262.2"/>
<polygon fill="none" stroke="#000000" points="635,-262.2 635,-285.2 725,-285.2 725,-262.2 635,-262.2"/>
<text text-anchor="start" x="640" y="-270.8" font-family="Helvetica,sans-Serif" font-weight="bold" font-size="11.00" fill="#000000">witness</text>
<text text-anchor="start" x="690.5219" y="-270.3" font-family="Helvetica,sans-Serif" font-size="11.00" fill="#000000">[table]</text>
<polygon fill="none" stroke="#000000" points="635,-243.2 635,-262.2 725,-262.2 725,-243.2 635,-243.2"/>
<text text-anchor="start" x="638" y="-249.3" font-family="Helvetica,sans-Serif" font-size="11.00" fill="#000000">...</text>
<polygon fill="#ffffff" stroke="transparent" points="635,-224.2 635,-243.2 678,-243.2 678,-224.2 635,-224.2"/>
<polygon fill="none" stroke="#000000" points="635,-224.2 635,-243.2 678,-243.2 678,-224.2 635,-224.2"/>
<text text-anchor="start" x="638" y="-230.3" font-family="Helvetica,sans-Serif" font-size="11.00" fill="#000000">&lt; 1</text>
<polygon fill="#ffffff" stroke="transparent" points="678,-224.2 678,-243.2 701,-243.2 701,-224.2 678,-224.2"/>
<polygon fill="none" stroke="#000000" points="678,-224.2 678,-243.2 701,-243.2 701,-224.2 678,-224.2"/>
<text text-anchor="start" x="691.8862" y="-230.3" font-family="Helvetica,sans-Serif" font-size="11.00" fill="#000000"> &#160;</text>
<polygon fill="#ffffff" stroke="transparent" points="701,-224.2 701,-243.2 725,-243.2 725,-224.2 701,-224.2"/>
<polygon fill="none" stroke="#000000" points="701,-224.2 701,-243.2 725,-243.2 725,-224.2 701,-224.2"/>
<text text-anchor="start" x="715.8862" y="-230.3" font-family="Helvetica,sans-Serif" font-size="11.00" fill="#000000"> &#160;</text>
</a>
</g>
</g>
<!-- witness&#45;&gt;draft_adjudications -->
<g id="edge7" class="edge">
<title>witness:w&#45;&gt;draft_adjudications:e</title>
<path fill="none" stroke="#000000" d="M620.8876,-255.49C587.0282,-275.0504 635.2923,-375.2 581.5,-375.2"/>
<polygon fill="#000000" stroke="#000000" points="627.2089,-254.0163 635.8174,-255.706 631.1045,-253.1082 635,-252.2 635,-252.2 635,-252.2 631.1045,-253.1082 634.1826,-248.694 627.2089,-254.0163 627.2089,-254.0163"/>
<ellipse fill="none" stroke="#000000" cx="624.0925" cy="-254.7429" rx="3.2" ry="3.2"/>
</g>
</g>
</svg>
