<?xml version="1.0" encoding="UTF-8" standalone="no"?>
<!DOCTYPE svg PUBLIC "-//W3C//DTD SVG 1.1//EN"
 "http://www.w3.org/Graphics/SVG/1.1/DTD/svg11.dtd">
<!-- Generated by graphviz version 2.40.1 (20161225.0304)
 -->
<!-- Title: twoDegreesRelationshipsDiagram Pages: 1 -->
<svg width="676pt" height="519pt"
 viewBox="0.00 0.00 676.00 519.20" xmlns="http://www.w3.org/2000/svg" xmlns:xlink="http://www.w3.org/1999/xlink">
<g id="graph0" class="graph" transform="scale(1 1) rotate(0) translate(4 515.2)">
<title>twoDegreesRelationshipsDiagram</title>
<polygon fill="#ffffff" stroke="transparent" points="-4,4 -4,-515.2 672,-515.2 672,4 -4,4"/>
<text text-anchor="middle" x="72.4936" y="-7.3" font-family="Helvetica,sans-Serif" font-size="11.00" fill="#000000">Generated by SchemaSpy</text>
<!-- damages -->
<g id="node1" class="node">
<title>damages</title>
<g id="a_node1"><a xlink:href="../../tables/damages.html" xlink:title="damages" target="_top">
<polygon fill="#ffffff" stroke="transparent" points="560,-446.2 560,-507.2 660,-507.2 660,-446.2 560,-446.2"/>
<polygon fill="#f5f5f5" stroke="transparent" points="560,-483.7 560,-506.7 660,-506.7 660,-483.7 560,-483.7"/>
<polygon fill="none" stroke="#000000" points="560,-483.7 560,-506.7 660,-506.7 660,-483.7 560,-483.7"/>
<text text-anchor="start" x="565" y="-492.3" font-family="Helvetica,sans-Serif" font-weight="bold" font-size="11.00" fill="#000000">damages</text>
<text text-anchor="start" x="625.5219" y="-491.8" font-family="Helvetica,sans-Serif" font-size="11.00" fill="#000000">[table]</text>
<polygon fill="none" stroke="#000000" points="560,-464.7 560,-483.7 660,-483.7 660,-464.7 560,-464.7"/>
<text text-anchor="start" x="563" y="-470.8" font-family="Helvetica,sans-Serif" font-size="11.00" fill="#000000">...</text>
<polygon fill="#ffffff" stroke="transparent" points="560,-445.7 560,-464.7 608,-464.7 608,-445.7 560,-445.7"/>
<polygon fill="none" stroke="#000000" points="560,-445.7 560,-464.7 608,-464.7 608,-445.7 560,-445.7"/>
<text text-anchor="start" x="563" y="-451.8" font-family="Helvetica,sans-Serif" font-size="11.00" fill="#000000">&lt; 1</text>
<polygon fill="#ffffff" stroke="transparent" points="608,-445.7 608,-464.7 634,-464.7 634,-445.7 608,-445.7"/>
<polygon fill="none" stroke="#000000" points="608,-445.7 608,-464.7 634,-464.7 634,-445.7 608,-445.7"/>
<text text-anchor="start" x="624.8862" y="-451.8" font-family="Helvetica,sans-Serif" font-size="11.00" fill="#000000"> &#160;</text>
<polygon fill="#ffffff" stroke="transparent" points="634,-445.7 634,-464.7 660,-464.7 660,-445.7 634,-445.7"/>
<polygon fill="none" stroke="#000000" points="634,-445.7 634,-464.7 660,-464.7 660,-445.7 634,-445.7"/>
<text text-anchor="start" x="650.8862" y="-451.8" font-family="Helvetica,sans-Serif" font-size="11.00" fill="#000000"> &#160;</text>
</a>
</g>
</g>
<!-- draft_adjudications -->
<g id="node2" class="node">
<title>draft_adjudications</title>
<g id="a_node2"><a xlink:href="../../tables/draft_adjudications.html" xlink:title="draft_adjudications" target="_top">
<polygon fill="#ffffff" stroke="transparent" points="296,-214.2 296,-385.2 511,-385.2 511,-214.2 296,-214.2"/>
<polygon fill="#f5f5f5" stroke="transparent" points="296.5,-361.7 296.5,-384.7 511.5,-384.7 511.5,-361.7 296.5,-361.7"/>
<polygon fill="none" stroke="#000000" points="296.5,-361.7 296.5,-384.7 511.5,-384.7 511.5,-361.7 296.5,-361.7"/>
<text text-anchor="start" x="301.5" y="-370.3" font-family="Helvetica,sans-Serif" font-weight="bold" font-size="11.00" fill="#000000">draft_adjudications</text>
<text text-anchor="start" x="476.5437" y="-369.8" font-family="Helvetica,sans-Serif" font-size="11.00" fill="#000000">[table]</text>
<polygon fill="none" stroke="#000000" points="296.5,-339.7 296.5,-361.7 511.5,-361.7 511.5,-339.7 296.5,-339.7"/>
<image xlink:href="../../images/primaryKeys.png" width="11px" height="12px" preserveAspectRatio="xMinYMin meet" x="301.5" y="-356.7"/>
<text text-anchor="start" x="316.5" y="-346.8" font-family="Helvetica,sans-Serif" font-size="11.00" fill="#000000">id</text>
<polygon fill="#ffffff" stroke="transparent" points="296.5,-317.7 296.5,-339.7 511.5,-339.7 511.5,-317.7 296.5,-317.7"/>
<polygon fill="none" stroke="#000000" points="296.5,-317.7 296.5,-339.7 511.5,-339.7 511.5,-317.7 296.5,-317.7"/>
<text text-anchor="start" x="316.5" y="-324.8" font-family="Helvetica,sans-Serif" font-size="11.00" fill="#000000">prisoner_number</text>
<polygon fill="#ffffff" stroke="transparent" points="296.5,-295.7 296.5,-317.7 511.5,-317.7 511.5,-295.7 296.5,-295.7"/>
<polygon fill="none" stroke="#000000" points="296.5,-295.7 296.5,-317.7 511.5,-317.7 511.5,-295.7 296.5,-295.7"/>
<image xlink:href="../../images/foreignKeys.png" width="11px" height="12px" preserveAspectRatio="xMinYMin meet" x="301.5" y="-312.7"/>
<text text-anchor="start" x="316.5" y="-302.8" font-family="Helvetica,sans-Serif" font-size="11.00" fill="#000000">incident_details_id</text>
<polygon fill="#ffffff" stroke="transparent" points="296.5,-273.7 296.5,-295.7 511.5,-295.7 511.5,-273.7 296.5,-273.7"/>
<polygon fill="none" stroke="#000000" points="296.5,-273.7 296.5,-295.7 511.5,-295.7 511.5,-273.7 296.5,-273.7"/>
<image xlink:href="../../images/foreignKeys.png" width="11px" height="12px" preserveAspectRatio="xMinYMin meet" x="301.5" y="-290.7"/>
<text text-anchor="start" x="316.5" y="-280.8" font-family="Helvetica,sans-Serif" font-size="11.00" fill="#000000">incident_statement_id</text>
<polygon fill="#ffffff" stroke="transparent" points="296.5,-251.7 296.5,-273.7 511.5,-273.7 511.5,-251.7 296.5,-251.7"/>
<polygon fill="none" stroke="#000000" points="296.5,-251.7 296.5,-273.7 511.5,-273.7 511.5,-251.7 296.5,-251.7"/>
<image xlink:href="../../images/foreignKeys.png" width="11px" height="12px" preserveAspectRatio="xMinYMin meet" x="301.5" y="-268.7"/>
<text text-anchor="start" x="316.5" y="-258.8" font-family="Helvetica,sans-Serif" font-size="11.00" fill="#000000">incident_role_id</text>
<polygon fill="none" stroke="#000000" points="296.5,-232.7 296.5,-251.7 511.5,-251.7 511.5,-232.7 296.5,-232.7"/>
<text text-anchor="start" x="299.5" y="-238.8" font-family="Helvetica,sans-Serif" font-size="11.00" fill="#000000">...</text>
<polygon fill="#ffffff" stroke="transparent" points="296.5,-213.7 296.5,-232.7 397.5,-232.7 397.5,-213.7 296.5,-213.7"/>
<polygon fill="none" stroke="#000000" points="296.5,-213.7 296.5,-232.7 397.5,-232.7 397.5,-213.7 296.5,-213.7"/>
<text text-anchor="start" x="299.5" y="-219.8" font-family="Helvetica,sans-Serif" font-size="11.00" fill="#000000">&lt; 3</text>
<polygon fill="#ffffff" stroke="transparent" points="397.5,-213.7 397.5,-232.7 449.5,-232.7 449.5,-213.7 397.5,-213.7"/>
<polygon fill="none" stroke="#000000" points="397.5,-213.7 397.5,-232.7 449.5,-232.7 449.5,-213.7 397.5,-213.7"/>
<text text-anchor="start" x="440.3862" y="-219.8" font-family="Helvetica,sans-Serif" font-size="11.00" fill="#000000"> &#160;</text>
<polygon fill="#ffffff" stroke="transparent" points="449.5,-213.7 449.5,-232.7 511.5,-232.7 511.5,-213.7 449.5,-213.7"/>
<polygon fill="none" stroke="#000000" points="449.5,-213.7 449.5,-232.7 511.5,-232.7 511.5,-213.7 449.5,-213.7"/>
<text text-anchor="start" x="492.9053" y="-219.8" font-family="Helvetica,sans-Serif" font-size="11.00" fill="#000000">4 &gt;</text>
</a>
</g>
</g>
<!-- damages&#45;&gt;draft_adjudications -->
<g id="edge1" class="edge">
<title>damages:w&#45;&gt;draft_adjudications:e</title>
<path fill="none" stroke="#000000" d="M545.7823,-470.1515C513.9398,-449.9844 564.2949,-350.7 511.5,-350.7"/>
<polygon fill="#000000" stroke="#000000" points="552.2381,-471.7627 559.1282,-477.1929 556.119,-472.7314 560,-473.7 560,-473.7 560,-473.7 556.119,-472.7314 560.8718,-470.2071 552.2381,-471.7627 552.2381,-471.7627"/>
<ellipse fill="none" stroke="#000000" cx="549.1333" cy="-470.9878" rx="3.2" ry="3.2"/>
</g>
<!-- incident_details -->
<g id="node3" class="node">
<title>incident_details</title>
<g id="a_node3"><a xlink:href="../../tables/incident_details.html" xlink:title="incident_details" target="_top">
<polygon fill="#ffffff" stroke="transparent" points="55,-342.2 55,-403.2 200,-403.2 200,-342.2 55,-342.2"/>
<polygon fill="#f5f5f5" stroke="transparent" points="55.5,-379.7 55.5,-402.7 200.5,-402.7 200.5,-379.7 55.5,-379.7"/>
<polygon fill="none" stroke="#000000" points="55.5,-379.7 55.5,-402.7 200.5,-402.7 200.5,-379.7 55.5,-379.7"/>
<text text-anchor="start" x="60.5" y="-388.3" font-family="Helvetica,sans-Serif" font-weight="bold" font-size="11.00" fill="#000000">incident_details</text>
<text text-anchor="start" x="166.0219" y="-387.8" font-family="Helvetica,sans-Serif" font-size="11.00" fill="#000000">[table]</text>
<polygon fill="none" stroke="#000000" points="55.5,-360.7 55.5,-379.7 200.5,-379.7 200.5,-360.7 55.5,-360.7"/>
<text text-anchor="start" x="58.5" y="-366.8" font-family="Helvetica,sans-Serif" font-size="11.00" fill="#000000">...</text>
<polygon fill="#ffffff" stroke="transparent" points="55.5,-341.7 55.5,-360.7 117.5,-360.7 117.5,-341.7 55.5,-341.7"/>
<polygon fill="none" stroke="#000000" points="55.5,-341.7 55.5,-360.7 117.5,-360.7 117.5,-341.7 55.5,-341.7"/>
<text text-anchor="start" x="58.5" y="-347.8" font-family="Helvetica,sans-Serif" font-size="11.00" fill="#000000"> &#160;</text>
<polygon fill="#ffffff" stroke="transparent" points="117.5,-341.7 117.5,-360.7 154.5,-360.7 154.5,-341.7 117.5,-341.7"/>
<polygon fill="none" stroke="#000000" points="117.5,-341.7 117.5,-360.7 154.5,-360.7 154.5,-341.7 117.5,-341.7"/>
<text text-anchor="start" x="145.3862" y="-347.8" font-family="Helvetica,sans-Serif" font-size="11.00" fill="#000000"> &#160;</text>
<polygon fill="#ffffff" stroke="transparent" points="154.5,-341.7 154.5,-360.7 200.5,-360.7 200.5,-341.7 154.5,-341.7"/>
<polygon fill="none" stroke="#000000" points="154.5,-341.7 154.5,-360.7 200.5,-360.7 200.5,-341.7 154.5,-341.7"/>
<text text-anchor="start" x="181.9053" y="-347.8" font-family="Helvetica,sans-Serif" font-size="11.00" fill="#000000">1 &gt;</text>
</a>
</g>
</g>
<!-- draft_adjudications&#45;&gt;incident_details -->
<g id="edge2" class="edge">
<title>draft_adjudications:w&#45;&gt;incident_details:e</title>
<path fill="none" stroke="#000000" d="M282.5422,-311.2308C256.7521,-325.6761 221.8305,-369.7 200.5,-369.7"/>
<polygon fill="#000000" stroke="#000000" points="288.8908,-309.17 297.6115,-310.1241 292.6954,-307.935 296.5,-306.7 296.5,-306.7 296.5,-306.7 292.6954,-307.935 295.3885,-303.2759 288.8908,-309.17 288.8908,-309.17"/>
<ellipse fill="none" stroke="#000000" cx="285.8472" cy="-310.158" rx="3.2" ry="3.2"/>
</g>
<!-- incident_role -->
<g id="node4" class="node">
<title>incident_role</title>
<g id="a_node4"><a xlink:href="../../tables/incident_role.html" xlink:title="incident_role" target="_top">
<polygon fill="#ffffff" stroke="transparent" points="64.5,-38.2 64.5,-99.2 190.5,-99.2 190.5,-38.2 64.5,-38.2"/>
<polygon fill="#f5f5f5" stroke="transparent" points="64.5,-75.7 64.5,-98.7 190.5,-98.7 190.5,-75.7 64.5,-75.7"/>
<polygon fill="none" stroke="#000000" points="64.5,-75.7 64.5,-98.7 190.5,-98.7 190.5,-75.7 64.5,-75.7"/>
<text text-anchor="start" x="69.5" y="-84.3" font-family="Helvetica,sans-Serif" font-weight="bold" font-size="11.00" fill="#000000">incident_role</text>
<text text-anchor="start" x="156.0219" y="-83.8" font-family="Helvetica,sans-Serif" font-size="11.00" fill="#000000">[table]</text>
<polygon fill="none" stroke="#000000" points="64.5,-56.7 64.5,-75.7 190.5,-75.7 190.5,-56.7 64.5,-56.7"/>
<text text-anchor="start" x="67.5" y="-62.8" font-family="Helvetica,sans-Serif" font-size="11.00" fill="#000000">...</text>
<polygon fill="#ffffff" stroke="transparent" points="64.5,-37.7 64.5,-56.7 116.5,-56.7 116.5,-37.7 64.5,-37.7"/>
<polygon fill="none" stroke="#000000" points="64.5,-37.7 64.5,-56.7 116.5,-56.7 116.5,-37.7 64.5,-37.7"/>
<text text-anchor="start" x="67.5" y="-43.8" font-family="Helvetica,sans-Serif" font-size="11.00" fill="#000000"> &#160;</text>
<polygon fill="#ffffff" stroke="transparent" points="116.5,-37.7 116.5,-56.7 148.5,-56.7 148.5,-37.7 116.5,-37.7"/>
<polygon fill="none" stroke="#000000" points="116.5,-37.7 116.5,-56.7 148.5,-56.7 148.5,-37.7 116.5,-37.7"/>
<text text-anchor="start" x="139.3862" y="-43.8" font-family="Helvetica,sans-Serif" font-size="11.00" fill="#000000"> &#160;</text>
<polygon fill="#ffffff" stroke="transparent" points="148.5,-37.7 148.5,-56.7 190.5,-56.7 190.5,-37.7 148.5,-37.7"/>
<polygon fill="none" stroke="#000000" points="148.5,-37.7 148.5,-56.7 190.5,-56.7 190.5,-37.7 148.5,-37.7"/>
<text text-anchor="start" x="171.9053" y="-43.8" font-family="Helvetica,sans-Serif" font-size="11.00" fill="#000000">1 &gt;</text>
</a>
</g>
</g>
<!-- draft_adjudications&#45;&gt;incident_role -->
<g id="edge3" class="edge">
<title>draft_adjudications:w&#45;&gt;incident_role:e</title>
<path fill="none" stroke="#000000" d="M282.1433,-260.9297C236.5137,-247.6347 292.5808,-162.5078 255,-109.7 234.8795,-81.427 225.2015,-65.7 190.5,-65.7"/>
<polygon fill="#000000" stroke="#000000" points="288.5601,-261.7209 296.0594,-266.2729 292.5301,-262.2104 296.5,-262.7 296.5,-262.7 296.5,-262.7 292.5301,-262.2104 296.9406,-259.1271 288.5601,-261.7209 288.5601,-261.7209"/>
<ellipse fill="none" stroke="#000000" cx="285.3842" cy="-261.3292" rx="3.2" ry="3.2"/>
</g>
<!-- incident_statement -->
<g id="node5" class="node">
<title>incident_statement</title>
<g id="a_node5"><a xlink:href="../../tables/incident_statement.html" xlink:title="incident_statement" target="_top">
<polygon fill="#ffffff" stroke="transparent" points="8,-120.7 8,-320.7 247,-320.7 247,-120.7 8,-120.7"/>
<polygon fill="#f5f5f5" stroke="transparent" points="10.5,-295.7 10.5,-318.7 245.5,-318.7 245.5,-295.7 10.5,-295.7"/>
<polygon fill="none" stroke="#000000" points="10.5,-295.7 10.5,-318.7 245.5,-318.7 245.5,-295.7 10.5,-295.7"/>
<text text-anchor="start" x="15.5" y="-304.3" font-family="Helvetica,sans-Serif" font-weight="bold" font-size="11.00" fill="#000000">incident_statement</text>
<text text-anchor="start" x="210.5437" y="-303.8" font-family="Helvetica,sans-Serif" font-size="11.00" fill="#000000">[table]</text>
<polygon fill="none" stroke="#000000" points="10.5,-273.7 10.5,-295.7 161.5,-295.7 161.5,-273.7 10.5,-273.7"/>
<image xlink:href="../../images/primaryKeys.png" width="11px" height="12px" preserveAspectRatio="xMinYMin meet" x="15.5" y="-290.7"/>
<text text-anchor="start" x="30.5" y="-280.8" font-family="Helvetica,sans-Serif" font-size="11.00" fill="#000000">id</text>
<polygon fill="none" stroke="#000000" points="161.5,-273.7 161.5,-295.7 245.5,-295.7 245.5,-273.7 161.5,-273.7"/>
<text text-anchor="start" x="164.5" y="-281.4" font-family="Helvetica,sans-Serif" font-size="11.00" fill="#000000">serial[10]</text>
<polygon fill="none" stroke="#000000" points="10.5,-251.7 10.5,-273.7 161.5,-273.7 161.5,-251.7 10.5,-251.7"/>
<text text-anchor="start" x="30.5" y="-258.8" font-family="Helvetica,sans-Serif" font-size="11.00" fill="#000000">statement</text>
<polygon fill="none" stroke="#000000" points="161.5,-251.7 161.5,-273.7 245.5,-273.7 245.5,-251.7 161.5,-251.7"/>
<text text-anchor="start" x="164.5" y="-259.4" font-family="Helvetica,sans-Serif" font-size="11.00" fill="#000000">varchar[4000]</text>
<polygon fill="none" stroke="#000000" points="10.5,-229.7 10.5,-251.7 161.5,-251.7 161.5,-229.7 10.5,-229.7"/>
<text text-anchor="start" x="30.5" y="-236.8" font-family="Helvetica,sans-Serif" font-size="11.00" fill="#000000">create_user_id</text>
<polygon fill="none" stroke="#000000" points="161.5,-229.7 161.5,-251.7 245.5,-251.7 245.5,-229.7 161.5,-229.7"/>
<text text-anchor="start" x="164.5" y="-237.4" font-family="Helvetica,sans-Serif" font-size="11.00" fill="#000000">varchar[32]</text>
<polygon fill="none" stroke="#000000" points="10.5,-207.7 10.5,-229.7 161.5,-229.7 161.5,-207.7 10.5,-207.7"/>
<text text-anchor="start" x="30.5" y="-214.8" font-family="Helvetica,sans-Serif" font-size="11.00" fill="#000000">create_datetime</text>
<polygon fill="none" stroke="#000000" points="161.5,-207.7 161.5,-229.7 245.5,-229.7 245.5,-207.7 161.5,-207.7"/>
<text text-anchor="start" x="164.3807" y="-215.4" font-family="Helvetica,sans-Serif" font-size="11.00" fill="#000000">timestamp[29,6]</text>
<polygon fill="none" stroke="#000000" points="10.5,-185.7 10.5,-207.7 161.5,-207.7 161.5,-185.7 10.5,-185.7"/>
<text text-anchor="start" x="30.5" y="-192.8" font-family="Helvetica,sans-Serif" font-size="11.00" fill="#000000">modify_user_id</text>
<polygon fill="none" stroke="#000000" points="161.5,-185.7 161.5,-207.7 245.5,-207.7 245.5,-185.7 161.5,-185.7"/>
<text text-anchor="start" x="164.5" y="-193.4" font-family="Helvetica,sans-Serif" font-size="11.00" fill="#000000">varchar[32]</text>
<polygon fill="none" stroke="#000000" points="10.5,-163.7 10.5,-185.7 161.5,-185.7 161.5,-163.7 10.5,-163.7"/>
<text text-anchor="start" x="30.5" y="-170.8" font-family="Helvetica,sans-Serif" font-size="11.00" fill="#000000">modify_datetime</text>
<polygon fill="none" stroke="#000000" points="161.5,-163.7 161.5,-185.7 245.5,-185.7 245.5,-163.7 161.5,-163.7"/>
<text text-anchor="start" x="164.3807" y="-171.4" font-family="Helvetica,sans-Serif" font-size="11.00" fill="#000000">timestamp[29,6]</text>
<polygon fill="none" stroke="#000000" points="10.5,-141.7 10.5,-163.7 161.5,-163.7 161.5,-141.7 10.5,-141.7"/>
<text text-anchor="start" x="30.5" y="-148.8" font-family="Helvetica,sans-Serif" font-size="11.00" fill="#000000">completed</text>
<polygon fill="none" stroke="#000000" points="161.5,-141.7 161.5,-163.7 245.5,-163.7 245.5,-141.7 161.5,-141.7"/>
<text text-anchor="start" x="164.5" y="-149.4" font-family="Helvetica,sans-Serif" font-size="11.00" fill="#000000">bool[1]</text>
<polygon fill="#ffffff" stroke="transparent" points="10.5,-122.7 10.5,-141.7 90.5,-141.7 90.5,-122.7 10.5,-122.7"/>
<polygon fill="none" stroke="#000000" points="10.5,-122.7 10.5,-141.7 90.5,-141.7 90.5,-122.7 10.5,-122.7"/>
<text text-anchor="start" x="13.5" y="-128.8" font-family="Helvetica,sans-Serif" font-size="11.00" fill="#000000">&lt; 0</text>
<polygon fill="#ffffff" stroke="transparent" points="90.5,-122.7 90.5,-141.7 161.5,-141.7 161.5,-122.7 90.5,-122.7"/>
<polygon fill="none" stroke="#000000" points="90.5,-122.7 90.5,-141.7 161.5,-141.7 161.5,-122.7 90.5,-122.7"/>
<text text-anchor="start" x="152.3862" y="-128.8" font-family="Helvetica,sans-Serif" font-size="11.00" fill="#000000"> &#160;</text>
<polygon fill="#ffffff" stroke="transparent" points="161.5,-122.7 161.5,-141.7 245.5,-141.7 245.5,-122.7 161.5,-122.7"/>
<polygon fill="none" stroke="#000000" points="161.5,-122.7 161.5,-141.7 245.5,-141.7 245.5,-122.7 161.5,-122.7"/>
<text text-anchor="start" x="226.9053" y="-128.8" font-family="Helvetica,sans-Serif" font-size="11.00" fill="#000000">1 &gt;</text>
<polygon fill="none" stroke="#000000" stroke-width="2" points="9,-121.7 9,-319.7 246,-319.7 246,-121.7 9,-121.7"/>
</a>
</g>
</g>
<!-- draft_adjudications&#45;&gt;incident_statement -->
<g id="edge4" class="edge">
<title>draft_adjudications:w&#45;&gt;incident_statement:e</title>
<path fill="none" stroke="#000000" d="M281.776,-284.7C269.7815,-284.7 262.3229,-284.7 245.5,-284.7"/>
<polygon fill="#000000" stroke="#000000" points="288.5,-284.7001 296.5,-288.3 292.5,-284.7 296.5,-284.7 296.5,-284.7 296.5,-284.7 292.5,-284.7 296.5,-281.1 288.5,-284.7001 288.5,-284.7001"/>
<ellipse fill="none" stroke="#000000" cx="285.3" cy="-284.7001" rx="3.2" ry="3.2"/>
</g>
<!-- evidence -->
<g id="node6" class="node">
<title>evidence</title>
<g id="a_node6"><a xlink:href="../../tables/evidence.html" xlink:title="evidence" target="_top">
<polygon fill="#ffffff" stroke="transparent" points="560.5,-364.2 560.5,-425.2 659.5,-425.2 659.5,-364.2 560.5,-364.2"/>
<polygon fill="#f5f5f5" stroke="transparent" points="561,-401.7 561,-424.7 660,-424.7 660,-401.7 561,-401.7"/>
<polygon fill="none" stroke="#000000" points="561,-401.7 561,-424.7 660,-424.7 660,-401.7 561,-401.7"/>
<text text-anchor="start" x="566" y="-410.3" font-family="Helvetica,sans-Serif" font-weight="bold" font-size="11.00" fill="#000000">evidence</text>
<text text-anchor="start" x="625.5219" y="-409.8" font-family="Helvetica,sans-Serif" font-size="11.00" fill="#000000">[table]</text>
<polygon fill="none" stroke="#000000" points="561,-382.7 561,-401.7 660,-401.7 660,-382.7 561,-382.7"/>
<text text-anchor="start" x="564" y="-388.8" font-family="Helvetica,sans-Serif" font-size="11.00" fill="#000000">...</text>
<polygon fill="#ffffff" stroke="transparent" points="561,-363.7 561,-382.7 609,-382.7 609,-363.7 561,-363.7"/>
<polygon fill="none" stroke="#000000" points="561,-363.7 561,-382.7 609,-382.7 609,-363.7 561,-363.7"/>
<text text-anchor="start" x="564" y="-369.8" font-family="Helvetica,sans-Serif" font-size="11.00" fill="#000000">&lt; 1</text>
<polygon fill="#ffffff" stroke="transparent" points="609,-363.7 609,-382.7 634,-382.7 634,-363.7 609,-363.7"/>
<polygon fill="none" stroke="#000000" points="609,-363.7 609,-382.7 634,-382.7 634,-363.7 609,-363.7"/>
<text text-anchor="start" x="624.8862" y="-369.8" font-family="Helvetica,sans-Serif" font-size="11.00" fill="#000000"> &#160;</text>
<polygon fill="#ffffff" stroke="transparent" points="634,-363.7 634,-382.7 660,-382.7 660,-363.7 634,-363.7"/>
<polygon fill="none" stroke="#000000" points="634,-363.7 634,-382.7 660,-382.7 660,-363.7 634,-363.7"/>
<text text-anchor="start" x="650.8862" y="-369.8" font-family="Helvetica,sans-Serif" font-size="11.00" fill="#000000"> &#160;</text>
</a>
</g>
</g>
<!-- evidence&#45;&gt;draft_adjudications -->
<g id="edge5" class="edge">
<title>evidence:w&#45;&gt;draft_adjudications:e</title>
<path fill="none" stroke="#000000" d="M547.0753,-386.9968C534.043,-376.2274 534.0408,-350.7 511.5,-350.7"/>
<polygon fill="#000000" stroke="#000000" points="553.4207,-389.14 559.848,-395.1107 557.2103,-390.42 561,-391.7 561,-391.7 561,-391.7 557.2103,-390.42 562.152,-388.2893 553.4207,-389.14 553.4207,-389.14"/>
<ellipse fill="none" stroke="#000000" cx="550.3889" cy="-388.1159" rx="3.2" ry="3.2"/>
</g>
<!-- offence -->
<g id="node7" class="node">
<title>offence</title>
<g id="a_node7"><a xlink:href="../../tables/offence.html" xlink:title="offence" target="_top">
<polygon fill="#ffffff" stroke="transparent" points="565.5,-282.2 565.5,-343.2 654.5,-343.2 654.5,-282.2 565.5,-282.2"/>
<polygon fill="#f5f5f5" stroke="transparent" points="566,-319.7 566,-342.7 655,-342.7 655,-319.7 566,-319.7"/>
<polygon fill="none" stroke="#000000" points="566,-319.7 566,-342.7 655,-342.7 655,-319.7 566,-319.7"/>
<text text-anchor="start" x="571" y="-328.3" font-family="Helvetica,sans-Serif" font-weight="bold" font-size="11.00" fill="#000000">offence</text>
<text text-anchor="start" x="620.5219" y="-327.8" font-family="Helvetica,sans-Serif" font-size="11.00" fill="#000000">[table]</text>
<polygon fill="none" stroke="#000000" points="566,-300.7 566,-319.7 655,-319.7 655,-300.7 566,-300.7"/>
<text text-anchor="start" x="569" y="-306.8" font-family="Helvetica,sans-Serif" font-size="11.00" fill="#000000">...</text>
<polygon fill="#ffffff" stroke="transparent" points="566,-281.7 566,-300.7 604,-300.7 604,-281.7 566,-281.7"/>
<polygon fill="none" stroke="#000000" points="566,-281.7 566,-300.7 604,-300.7 604,-281.7 566,-281.7"/>
<text text-anchor="start" x="569" y="-287.8" font-family="Helvetica,sans-Serif" font-size="11.00" fill="#000000">&lt; 1</text>
<polygon fill="#ffffff" stroke="transparent" points="604,-281.7 604,-300.7 625,-300.7 625,-281.7 604,-281.7"/>
<polygon fill="none" stroke="#000000" points="604,-281.7 604,-300.7 625,-300.7 625,-281.7 604,-281.7"/>
<text text-anchor="start" x="615.8862" y="-287.8" font-family="Helvetica,sans-Serif" font-size="11.00" fill="#000000"> &#160;</text>
<polygon fill="#ffffff" stroke="transparent" points="625,-281.7 625,-300.7 655,-300.7 655,-281.7 625,-281.7"/>
<polygon fill="none" stroke="#000000" points="625,-281.7 625,-300.7 655,-300.7 655,-281.7 625,-281.7"/>
<text text-anchor="start" x="636.4053" y="-287.8" font-family="Helvetica,sans-Serif" font-size="11.00" fill="#000000">1 &gt;</text>
</a>
</g>
</g>
<!-- offence&#45;&gt;draft_adjudications -->
<g id="edge6" class="edge">
<title>offence:w&#45;&gt;draft_adjudications:e</title>
<path fill="none" stroke="#000000" d="M551.8661,-313.7811C536.6905,-324.1516 535.891,-350.7 511.5,-350.7"/>
<polygon fill="#000000" stroke="#000000" points="558.314,-311.9194 566.9987,-313.1587 562.157,-310.8097 566,-309.7 566,-309.7 566,-309.7 562.157,-310.8097 565.0013,-306.2413 558.314,-311.9194 558.314,-311.9194"/>
<ellipse fill="none" stroke="#000000" cx="555.2396" cy="-312.8071" rx="3.2" ry="3.2"/>
</g>
<!-- witness -->
<g id="node8" class="node">
<title>witness</title>
<g id="a_node8"><a xlink:href="../../tables/witness.html" xlink:title="witness" target="_top">
<polygon fill="#ffffff" stroke="transparent" points="565,-200.2 565,-261.2 655,-261.2 655,-200.2 565,-200.2"/>
<polygon fill="#f5f5f5" stroke="transparent" points="565,-237.7 565,-260.7 655,-260.7 655,-237.7 565,-237.7"/>
<polygon fill="none" stroke="#000000" points="565,-237.7 565,-260.7 655,-260.7 655,-237.7 565,-237.7"/>
<text text-anchor="start" x="570" y="-246.3" font-family="Helvetica,sans-Serif" font-weight="bold" font-size="11.00" fill="#000000">witness</text>
<text text-anchor="start" x="620.5219" y="-245.8" font-family="Helvetica,sans-Serif" font-size="11.00" fill="#000000">[table]</text>
<polygon fill="none" stroke="#000000" points="565,-218.7 565,-237.7 655,-237.7 655,-218.7 565,-218.7"/>
<text text-anchor="start" x="568" y="-224.8" font-family="Helvetica,sans-Serif" font-size="11.00" fill="#000000">...</text>
<polygon fill="#ffffff" stroke="transparent" points="565,-199.7 565,-218.7 608,-218.7 608,-199.7 565,-199.7"/>
<polygon fill="none" stroke="#000000" points="565,-199.7 565,-218.7 608,-218.7 608,-199.7 565,-199.7"/>
<text text-anchor="start" x="568" y="-205.8" font-family="Helvetica,sans-Serif" font-size="11.00" fill="#000000">&lt; 1</text>
<polygon fill="#ffffff" stroke="transparent" points="608,-199.7 608,-218.7 631,-218.7 631,-199.7 608,-199.7"/>
<polygon fill="none" stroke="#000000" points="608,-199.7 608,-218.7 631,-218.7 631,-199.7 608,-199.7"/>
<text text-anchor="start" x="621.8862" y="-205.8" font-family="Helvetica,sans-Serif" font-size="11.00" fill="#000000"> &#160;</text>
<polygon fill="#ffffff" stroke="transparent" points="631,-199.7 631,-218.7 655,-218.7 655,-199.7 631,-199.7"/>
<polygon fill="none" stroke="#000000" points="631,-199.7 631,-218.7 655,-218.7 655,-199.7 631,-199.7"/>
<text text-anchor="start" x="645.8862" y="-205.8" font-family="Helvetica,sans-Serif" font-size="11.00" fill="#000000"> &#160;</text>
</a>
</g>
</g>
<!-- witness&#45;&gt;draft_adjudications -->
<g id="edge7" class="edge">
<title>witness:w&#45;&gt;draft_adjudications:e</title>
<path fill="none" stroke="#000000" d="M550.8876,-230.99C517.0282,-250.5504 565.2923,-350.7 511.5,-350.7"/>
<polygon fill="#000000" stroke="#000000" points="557.2089,-229.5163 565.8174,-231.206 561.1045,-228.6082 565,-227.7 565,-227.7 565,-227.7 561.1045,-228.6082 564.1826,-224.194 557.2089,-229.5163 557.2089,-229.5163"/>
<ellipse fill="none" stroke="#000000" cx="554.0925" cy="-230.2429" rx="3.2" ry="3.2"/>
</g>
</g>
</svg>
