<?xml version="1.0" encoding="UTF-8" standalone="no"?>
<!DOCTYPE svg PUBLIC "-//W3C//DTD SVG 1.1//EN"
 "http://www.w3.org/Graphics/SVG/1.1/DTD/svg11.dtd">
<!-- Generated by graphviz version 2.40.1 (20161225.0304)
 -->
<!-- Title: twoDegreesRelationshipsDiagram Pages: 1 -->
<svg width="713pt" height="481pt"
 viewBox="0.00 0.00 713.00 480.70" xmlns="http://www.w3.org/2000/svg" xmlns:xlink="http://www.w3.org/1999/xlink">
<g id="graph0" class="graph" transform="scale(1 1) rotate(0) translate(4 476.7)">
<title>twoDegreesRelationshipsDiagram</title>
<polygon fill="#ffffff" stroke="transparent" points="-4,4 -4,-476.7 709,-476.7 709,4 -4,4"/>
<text text-anchor="middle" x="72.4936" y="-7.3" font-family="Helvetica,sans-Serif" font-size="11.00" fill="#000000">Generated by SchemaSpy</text>
<!-- damages -->
<g id="node1" class="node">
<title>damages</title>
<g id="a_node1"><a xlink:href="../../tables/damages.html" xlink:title="damages" target="_top">
<polygon fill="#ffffff" stroke="transparent" points="597,-309.2 597,-370.2 697,-370.2 697,-309.2 597,-309.2"/>
<polygon fill="#f5f5f5" stroke="transparent" points="597,-346.7 597,-369.7 697,-369.7 697,-346.7 597,-346.7"/>
<polygon fill="none" stroke="#000000" points="597,-346.7 597,-369.7 697,-369.7 697,-346.7 597,-346.7"/>
<text text-anchor="start" x="602" y="-355.3" font-family="Helvetica,sans-Serif" font-weight="bold" font-size="11.00" fill="#000000">damages</text>
<text text-anchor="start" x="662.5219" y="-354.8" font-family="Helvetica,sans-Serif" font-size="11.00" fill="#000000">[table]</text>
<polygon fill="none" stroke="#000000" points="597,-327.7 597,-346.7 697,-346.7 697,-327.7 597,-327.7"/>
<text text-anchor="start" x="600" y="-333.8" font-family="Helvetica,sans-Serif" font-size="11.00" fill="#000000">...</text>
<polygon fill="#ffffff" stroke="transparent" points="597,-308.7 597,-327.7 645,-327.7 645,-308.7 597,-308.7"/>
<polygon fill="none" stroke="#000000" points="597,-308.7 597,-327.7 645,-327.7 645,-308.7 597,-308.7"/>
<text text-anchor="start" x="600" y="-314.8" font-family="Helvetica,sans-Serif" font-size="11.00" fill="#000000">&lt; 1</text>
<polygon fill="#ffffff" stroke="transparent" points="645,-308.7 645,-327.7 671,-327.7 671,-308.7 645,-308.7"/>
<polygon fill="none" stroke="#000000" points="645,-308.7 645,-327.7 671,-327.7 671,-308.7 645,-308.7"/>
<text text-anchor="start" x="661.8862" y="-314.8" font-family="Helvetica,sans-Serif" font-size="11.00" fill="#000000"> &#160;</text>
<polygon fill="#ffffff" stroke="transparent" points="671,-308.7 671,-327.7 697,-327.7 697,-308.7 671,-308.7"/>
<polygon fill="none" stroke="#000000" points="671,-308.7 671,-327.7 697,-327.7 697,-308.7 671,-308.7"/>
<text text-anchor="start" x="687.8862" y="-314.8" font-family="Helvetica,sans-Serif" font-size="11.00" fill="#000000"> &#160;</text>
</a>
</g>
</g>
<!-- draft_adjudications -->
<g id="node2" class="node">
<title>draft_adjudications</title>
<g id="a_node2"><a xlink:href="../../tables/draft_adjudications.html" xlink:title="draft_adjudications" target="_top">
<polygon fill="#ffffff" stroke="transparent" points="333,-77.2 333,-248.2 548,-248.2 548,-77.2 333,-77.2"/>
<polygon fill="#f5f5f5" stroke="transparent" points="333.5,-224.7 333.5,-247.7 548.5,-247.7 548.5,-224.7 333.5,-224.7"/>
<polygon fill="none" stroke="#000000" points="333.5,-224.7 333.5,-247.7 548.5,-247.7 548.5,-224.7 333.5,-224.7"/>
<text text-anchor="start" x="338.5" y="-233.3" font-family="Helvetica,sans-Serif" font-weight="bold" font-size="11.00" fill="#000000">draft_adjudications</text>
<text text-anchor="start" x="513.5437" y="-232.8" font-family="Helvetica,sans-Serif" font-size="11.00" fill="#000000">[table]</text>
<polygon fill="none" stroke="#000000" points="333.5,-202.7 333.5,-224.7 548.5,-224.7 548.5,-202.7 333.5,-202.7"/>
<image xlink:href="../../images/primaryKeys.png" width="11px" height="12px" preserveAspectRatio="xMinYMin meet" x="338.5" y="-219.7"/>
<text text-anchor="start" x="353.5" y="-209.8" font-family="Helvetica,sans-Serif" font-size="11.00" fill="#000000">id</text>
<polygon fill="#ffffff" stroke="transparent" points="333.5,-180.7 333.5,-202.7 548.5,-202.7 548.5,-180.7 333.5,-180.7"/>
<polygon fill="none" stroke="#000000" points="333.5,-180.7 333.5,-202.7 548.5,-202.7 548.5,-180.7 333.5,-180.7"/>
<text text-anchor="start" x="353.5" y="-187.8" font-family="Helvetica,sans-Serif" font-size="11.00" fill="#000000">prisoner_number</text>
<polygon fill="#ffffff" stroke="transparent" points="333.5,-158.7 333.5,-180.7 548.5,-180.7 548.5,-158.7 333.5,-158.7"/>
<polygon fill="none" stroke="#000000" points="333.5,-158.7 333.5,-180.7 548.5,-180.7 548.5,-158.7 333.5,-158.7"/>
<image xlink:href="../../images/foreignKeys.png" width="11px" height="12px" preserveAspectRatio="xMinYMin meet" x="338.5" y="-175.7"/>
<text text-anchor="start" x="353.5" y="-165.8" font-family="Helvetica,sans-Serif" font-size="11.00" fill="#000000">incident_details_id</text>
<polygon fill="#ffffff" stroke="transparent" points="333.5,-136.7 333.5,-158.7 548.5,-158.7 548.5,-136.7 333.5,-136.7"/>
<polygon fill="none" stroke="#000000" points="333.5,-136.7 333.5,-158.7 548.5,-158.7 548.5,-136.7 333.5,-136.7"/>
<image xlink:href="../../images/foreignKeys.png" width="11px" height="12px" preserveAspectRatio="xMinYMin meet" x="338.5" y="-153.7"/>
<text text-anchor="start" x="353.5" y="-143.8" font-family="Helvetica,sans-Serif" font-size="11.00" fill="#000000">incident_statement_id</text>
<polygon fill="#ffffff" stroke="transparent" points="333.5,-114.7 333.5,-136.7 548.5,-136.7 548.5,-114.7 333.5,-114.7"/>
<polygon fill="none" stroke="#000000" points="333.5,-114.7 333.5,-136.7 548.5,-136.7 548.5,-114.7 333.5,-114.7"/>
<image xlink:href="../../images/foreignKeys.png" width="11px" height="12px" preserveAspectRatio="xMinYMin meet" x="338.5" y="-131.7"/>
<text text-anchor="start" x="353.5" y="-121.8" font-family="Helvetica,sans-Serif" font-size="11.00" fill="#000000">incident_role_id</text>
<polygon fill="none" stroke="#000000" points="333.5,-95.7 333.5,-114.7 548.5,-114.7 548.5,-95.7 333.5,-95.7"/>
<text text-anchor="start" x="336.5" y="-101.8" font-family="Helvetica,sans-Serif" font-size="11.00" fill="#000000">...</text>
<polygon fill="#ffffff" stroke="transparent" points="333.5,-76.7 333.5,-95.7 434.5,-95.7 434.5,-76.7 333.5,-76.7"/>
<polygon fill="none" stroke="#000000" points="333.5,-76.7 333.5,-95.7 434.5,-95.7 434.5,-76.7 333.5,-76.7"/>
<text text-anchor="start" x="336.5" y="-82.8" font-family="Helvetica,sans-Serif" font-size="11.00" fill="#000000">&lt; 3</text>
<polygon fill="#ffffff" stroke="transparent" points="434.5,-76.7 434.5,-95.7 486.5,-95.7 486.5,-76.7 434.5,-76.7"/>
<polygon fill="none" stroke="#000000" points="434.5,-76.7 434.5,-95.7 486.5,-95.7 486.5,-76.7 434.5,-76.7"/>
<text text-anchor="start" x="477.3862" y="-82.8" font-family="Helvetica,sans-Serif" font-size="11.00" fill="#000000"> &#160;</text>
<polygon fill="#ffffff" stroke="transparent" points="486.5,-76.7 486.5,-95.7 548.5,-95.7 548.5,-76.7 486.5,-76.7"/>
<polygon fill="none" stroke="#000000" points="486.5,-76.7 486.5,-95.7 548.5,-95.7 548.5,-76.7 486.5,-76.7"/>
<text text-anchor="start" x="529.9053" y="-82.8" font-family="Helvetica,sans-Serif" font-size="11.00" fill="#000000">4 &gt;</text>
</a>
</g>
</g>
<!-- damages&#45;&gt;draft_adjudications -->
<g id="edge1" class="edge">
<title>damages:w&#45;&gt;draft_adjudications:e</title>
<path fill="none" stroke="#000000" d="M582.7823,-333.1515C550.9398,-312.9844 601.2949,-213.7 548.5,-213.7"/>
<polygon fill="#000000" stroke="#000000" points="589.2381,-334.7627 596.1282,-340.1929 593.119,-335.7314 597,-336.7 597,-336.7 597,-336.7 593.119,-335.7314 597.8718,-333.2071 589.2381,-334.7627 589.2381,-334.7627"/>
<ellipse fill="none" stroke="#000000" cx="586.1333" cy="-333.9878" rx="3.2" ry="3.2"/>
</g>
<!-- incident_details -->
<g id="node3" class="node">
<title>incident_details</title>
<g id="a_node3"><a xlink:href="../../tables/incident_details.html" xlink:title="incident_details" target="_top">
<polygon fill="#ffffff" stroke="transparent" points="8,-202.7 8,-468.7 284,-468.7 284,-202.7 8,-202.7"/>
<polygon fill="#f5f5f5" stroke="transparent" points="10,-443.7 10,-466.7 282,-466.7 282,-443.7 10,-443.7"/>
<polygon fill="none" stroke="#000000" points="10,-443.7 10,-466.7 282,-466.7 282,-443.7 10,-443.7"/>
<text text-anchor="start" x="15" y="-452.3" font-family="Helvetica,sans-Serif" font-weight="bold" font-size="11.00" fill="#000000">incident_details</text>
<text text-anchor="start" x="247.0437" y="-451.8" font-family="Helvetica,sans-Serif" font-size="11.00" fill="#000000">[table]</text>
<polygon fill="none" stroke="#000000" points="10,-421.7 10,-443.7 188,-443.7 188,-421.7 10,-421.7"/>
<image xlink:href="../../images/primaryKeys.png" width="11px" height="12px" preserveAspectRatio="xMinYMin meet" x="15" y="-438.7"/>
<text text-anchor="start" x="30" y="-428.8" font-family="Helvetica,sans-Serif" font-size="11.00" fill="#000000">id</text>
<polygon fill="none" stroke="#000000" points="188,-421.7 188,-443.7 282,-443.7 282,-421.7 188,-421.7"/>
<text text-anchor="start" x="191" y="-429.4" font-family="Helvetica,sans-Serif" font-size="11.00" fill="#000000">serial[10]</text>
<polygon fill="none" stroke="#000000" points="10,-399.7 10,-421.7 188,-421.7 188,-399.7 10,-399.7"/>
<text text-anchor="start" x="30" y="-406.8" font-family="Helvetica,sans-Serif" font-size="11.00" fill="#000000">date_time_of_incident</text>
<polygon fill="none" stroke="#000000" points="188,-399.7 188,-421.7 282,-421.7 282,-399.7 188,-399.7"/>
<text text-anchor="start" x="191" y="-407.4" font-family="Helvetica,sans-Serif" font-size="11.00" fill="#000000">timestamp[29,6]</text>
<polygon fill="none" stroke="#000000" points="10,-377.7 10,-399.7 188,-399.7 188,-377.7 10,-377.7"/>
<text text-anchor="start" x="30" y="-384.8" font-family="Helvetica,sans-Serif" font-size="11.00" fill="#000000">location_id</text>
<polygon fill="none" stroke="#000000" points="188,-377.7 188,-399.7 282,-399.7 282,-377.7 188,-377.7"/>
<text text-anchor="start" x="191" y="-385.4" font-family="Helvetica,sans-Serif" font-size="11.00" fill="#000000">int8[19]</text>
<polygon fill="none" stroke="#000000" points="10,-355.7 10,-377.7 188,-377.7 188,-355.7 10,-355.7"/>
<text text-anchor="start" x="30" y="-362.8" font-family="Helvetica,sans-Serif" font-size="11.00" fill="#000000">create_user_id</text>
<polygon fill="none" stroke="#000000" points="188,-355.7 188,-377.7 282,-377.7 282,-355.7 188,-355.7"/>
<text text-anchor="start" x="191" y="-363.4" font-family="Helvetica,sans-Serif" font-size="11.00" fill="#000000">varchar[32]</text>
<polygon fill="none" stroke="#000000" points="10,-333.7 10,-355.7 188,-355.7 188,-333.7 10,-333.7"/>
<text text-anchor="start" x="30" y="-340.8" font-family="Helvetica,sans-Serif" font-size="11.00" fill="#000000">create_datetime</text>
<polygon fill="none" stroke="#000000" points="188,-333.7 188,-355.7 282,-355.7 282,-333.7 188,-333.7"/>
<text text-anchor="start" x="191" y="-341.4" font-family="Helvetica,sans-Serif" font-size="11.00" fill="#000000">timestamp[29,6]</text>
<polygon fill="none" stroke="#000000" points="10,-311.7 10,-333.7 188,-333.7 188,-311.7 10,-311.7"/>
<text text-anchor="start" x="30" y="-318.8" font-family="Helvetica,sans-Serif" font-size="11.00" fill="#000000">modify_user_id</text>
<polygon fill="none" stroke="#000000" points="188,-311.7 188,-333.7 282,-333.7 282,-311.7 188,-311.7"/>
<text text-anchor="start" x="191" y="-319.4" font-family="Helvetica,sans-Serif" font-size="11.00" fill="#000000">varchar[32]</text>
<polygon fill="none" stroke="#000000" points="10,-289.7 10,-311.7 188,-311.7 188,-289.7 10,-289.7"/>
<text text-anchor="start" x="30" y="-296.8" font-family="Helvetica,sans-Serif" font-size="11.00" fill="#000000">modify_datetime</text>
<polygon fill="none" stroke="#000000" points="188,-289.7 188,-311.7 282,-311.7 282,-289.7 188,-289.7"/>
<text text-anchor="start" x="191" y="-297.4" font-family="Helvetica,sans-Serif" font-size="11.00" fill="#000000">timestamp[29,6]</text>
<polygon fill="none" stroke="#000000" points="10,-267.7 10,-289.7 188,-289.7 188,-267.7 10,-267.7"/>
<text text-anchor="start" x="30" y="-274.8" font-family="Helvetica,sans-Serif" font-size="11.00" fill="#000000">handover_deadline</text>
<polygon fill="none" stroke="#000000" points="188,-267.7 188,-289.7 282,-289.7 282,-267.7 188,-267.7"/>
<text text-anchor="start" x="191" y="-275.4" font-family="Helvetica,sans-Serif" font-size="11.00" fill="#000000">timestamp[29,6]</text>
<polygon fill="none" stroke="#000000" points="10,-245.7 10,-267.7 188,-267.7 188,-245.7 10,-245.7"/>
<text text-anchor="start" x="30" y="-252.8" font-family="Helvetica,sans-Serif" font-size="11.00" fill="#000000">date_time_of_discovery</text>
<polygon fill="none" stroke="#000000" points="188,-245.7 188,-267.7 282,-267.7 282,-245.7 188,-245.7"/>
<text text-anchor="start" x="191" y="-253.4" font-family="Helvetica,sans-Serif" font-size="11.00" fill="#000000">timestamp[29,6]</text>
<polygon fill="none" stroke="#000000" points="10,-223.7 10,-245.7 188,-245.7 188,-223.7 10,-223.7"/>
<text text-anchor="start" x="30" y="-230.8" font-family="Helvetica,sans-Serif" font-size="11.00" fill="#000000">location_uuid</text>
<polygon fill="none" stroke="#000000" points="188,-223.7 188,-245.7 282,-245.7 282,-223.7 188,-223.7"/>
<text text-anchor="start" x="190.9758" y="-231.4" font-family="Helvetica,sans-Serif" font-size="11.00" fill="#000000">uuid[2147483647]</text>
<polygon fill="#ffffff" stroke="transparent" points="10,-204.7 10,-223.7 103,-223.7 103,-204.7 10,-204.7"/>
<polygon fill="none" stroke="#000000" points="10,-204.7 10,-223.7 103,-223.7 103,-204.7 10,-204.7"/>
<text text-anchor="start" x="13" y="-210.8" font-family="Helvetica,sans-Serif" font-size="11.00" fill="#000000">&lt; 0</text>
<polygon fill="#ffffff" stroke="transparent" points="103,-204.7 103,-223.7 188,-223.7 188,-204.7 103,-204.7"/>
<polygon fill="none" stroke="#000000" points="103,-204.7 103,-223.7 188,-223.7 188,-204.7 103,-204.7"/>
<text text-anchor="start" x="178.8862" y="-210.8" font-family="Helvetica,sans-Serif" font-size="11.00" fill="#000000"> &#160;</text>
<polygon fill="#ffffff" stroke="transparent" points="188,-204.7 188,-223.7 282,-223.7 282,-204.7 188,-204.7"/>
<polygon fill="none" stroke="#000000" points="188,-204.7 188,-223.7 282,-223.7 282,-204.7 188,-204.7"/>
<text text-anchor="start" x="263.4053" y="-210.8" font-family="Helvetica,sans-Serif" font-size="11.00" fill="#000000">1 &gt;</text>
<polygon fill="none" stroke="#000000" stroke-width="2" points="9,-203.7 9,-467.7 283,-467.7 283,-203.7 9,-203.7"/>
</a>
</g>
</g>
<!-- draft_adjudications&#45;&gt;incident_details -->
<g id="edge2" class="edge">
<title>draft_adjudications:w&#45;&gt;incident_details:e</title>
<path fill="none" stroke="#000000" d="M318.973,-171.3113C230.887,-193.2885 395.6419,-432.7 282,-432.7"/>
<polygon fill="#000000" stroke="#000000" points="325.5488,-170.582 333.8969,-173.2781 329.5244,-170.141 333.5,-169.7 333.5,-169.7 333.5,-169.7 329.5244,-170.141 333.1031,-166.1219 325.5488,-170.582 325.5488,-170.582"/>
<ellipse fill="none" stroke="#000000" cx="322.3683" cy="-170.9348" rx="3.2" ry="3.2"/>
</g>
<!-- incident_role -->
<g id="node4" class="node">
<title>incident_role</title>
<g id="a_node4"><a xlink:href="../../tables/incident_role.html" xlink:title="incident_role" target="_top">
<polygon fill="#ffffff" stroke="transparent" points="83,-38.2 83,-99.2 209,-99.2 209,-38.2 83,-38.2"/>
<polygon fill="#f5f5f5" stroke="transparent" points="83,-75.7 83,-98.7 209,-98.7 209,-75.7 83,-75.7"/>
<polygon fill="none" stroke="#000000" points="83,-75.7 83,-98.7 209,-98.7 209,-75.7 83,-75.7"/>
<text text-anchor="start" x="88" y="-84.3" font-family="Helvetica,sans-Serif" font-weight="bold" font-size="11.00" fill="#000000">incident_role</text>
<text text-anchor="start" x="174.5219" y="-83.8" font-family="Helvetica,sans-Serif" font-size="11.00" fill="#000000">[table]</text>
<polygon fill="none" stroke="#000000" points="83,-56.7 83,-75.7 209,-75.7 209,-56.7 83,-56.7"/>
<text text-anchor="start" x="86" y="-62.8" font-family="Helvetica,sans-Serif" font-size="11.00" fill="#000000">...</text>
<polygon fill="#ffffff" stroke="transparent" points="83,-37.7 83,-56.7 135,-56.7 135,-37.7 83,-37.7"/>
<polygon fill="none" stroke="#000000" points="83,-37.7 83,-56.7 135,-56.7 135,-37.7 83,-37.7"/>
<text text-anchor="start" x="86" y="-43.8" font-family="Helvetica,sans-Serif" font-size="11.00" fill="#000000"> &#160;</text>
<polygon fill="#ffffff" stroke="transparent" points="135,-37.7 135,-56.7 167,-56.7 167,-37.7 135,-37.7"/>
<polygon fill="none" stroke="#000000" points="135,-37.7 135,-56.7 167,-56.7 167,-37.7 135,-37.7"/>
<text text-anchor="start" x="157.8862" y="-43.8" font-family="Helvetica,sans-Serif" font-size="11.00" fill="#000000"> &#160;</text>
<polygon fill="#ffffff" stroke="transparent" points="167,-37.7 167,-56.7 209,-56.7 209,-37.7 167,-37.7"/>
<polygon fill="none" stroke="#000000" points="167,-37.7 167,-56.7 209,-56.7 209,-37.7 167,-37.7"/>
<text text-anchor="start" x="190.4053" y="-43.8" font-family="Helvetica,sans-Serif" font-size="11.00" fill="#000000">1 &gt;</text>
</a>
</g>
</g>
<!-- draft_adjudications&#45;&gt;incident_role -->
<g id="edge3" class="edge">
<title>draft_adjudications:w&#45;&gt;incident_role:e</title>
<path fill="none" stroke="#000000" d="M319.2539,-122.6421C286.1456,-110.4153 235.513,-65.7 209,-65.7"/>
<polygon fill="#000000" stroke="#000000" points="325.6782,-124.021 332.7445,-129.2198 329.5891,-124.8605 333.5,-125.7 333.5,-125.7 333.5,-125.7 329.5891,-124.8605 334.2555,-122.1802 325.6782,-124.021 325.6782,-124.021"/>
<ellipse fill="none" stroke="#000000" cx="322.5494" cy="-123.3494" rx="3.2" ry="3.2"/>
</g>
<!-- incident_statement -->
<g id="node5" class="node">
<title>incident_statement</title>
<g id="a_node5"><a xlink:href="../../tables/incident_statement.html" xlink:title="incident_statement" target="_top">
<polygon fill="#ffffff" stroke="transparent" points="61.5,-120.2 61.5,-181.2 230.5,-181.2 230.5,-120.2 61.5,-120.2"/>
<polygon fill="#f5f5f5" stroke="transparent" points="62,-157.7 62,-180.7 231,-180.7 231,-157.7 62,-157.7"/>
<polygon fill="none" stroke="#000000" points="62,-157.7 62,-180.7 231,-180.7 231,-157.7 62,-157.7"/>
<text text-anchor="start" x="67" y="-166.3" font-family="Helvetica,sans-Serif" font-weight="bold" font-size="11.00" fill="#000000">incident_statement</text>
<text text-anchor="start" x="196.5219" y="-165.8" font-family="Helvetica,sans-Serif" font-size="11.00" fill="#000000">[table]</text>
<polygon fill="none" stroke="#000000" points="62,-138.7 62,-157.7 231,-157.7 231,-138.7 62,-138.7"/>
<text text-anchor="start" x="65" y="-144.8" font-family="Helvetica,sans-Serif" font-size="11.00" fill="#000000">...</text>
<polygon fill="#ffffff" stroke="transparent" points="62,-119.7 62,-138.7 136,-138.7 136,-119.7 62,-119.7"/>
<polygon fill="none" stroke="#000000" points="62,-119.7 62,-138.7 136,-138.7 136,-119.7 62,-119.7"/>
<text text-anchor="start" x="65" y="-125.8" font-family="Helvetica,sans-Serif" font-size="11.00" fill="#000000"> &#160;</text>
<polygon fill="#ffffff" stroke="transparent" points="136,-119.7 136,-138.7 179,-138.7 179,-119.7 136,-119.7"/>
<polygon fill="none" stroke="#000000" points="136,-119.7 136,-138.7 179,-138.7 179,-119.7 136,-119.7"/>
<text text-anchor="start" x="169.8862" y="-125.8" font-family="Helvetica,sans-Serif" font-size="11.00" fill="#000000"> &#160;</text>
<polygon fill="#ffffff" stroke="transparent" points="179,-119.7 179,-138.7 231,-138.7 231,-119.7 179,-119.7"/>
<polygon fill="none" stroke="#000000" points="179,-119.7 179,-138.7 231,-138.7 231,-119.7 179,-119.7"/>
<text text-anchor="start" x="212.4053" y="-125.8" font-family="Helvetica,sans-Serif" font-size="11.00" fill="#000000">1 &gt;</text>
</a>
</g>
</g>
<!-- draft_adjudications&#45;&gt;incident_statement -->
<g id="edge4" class="edge">
<title>draft_adjudications:w&#45;&gt;incident_statement:e</title>
<path fill="none" stroke="#000000" d="M318.782,-147.7C284.806,-147.7 271.217,-147.7 231,-147.7"/>
<polygon fill="#000000" stroke="#000000" points="325.5,-147.7001 333.5,-151.3 329.5,-147.7 333.5,-147.7 333.5,-147.7 333.5,-147.7 329.5,-147.7 333.5,-144.1 325.5,-147.7001 325.5,-147.7001"/>
<ellipse fill="none" stroke="#000000" cx="322.3" cy="-147.7001" rx="3.2" ry="3.2"/>
</g>
<!-- evidence -->
<g id="node6" class="node">
<title>evidence</title>
<g id="a_node6"><a xlink:href="../../tables/evidence.html" xlink:title="evidence" target="_top">
<polygon fill="#ffffff" stroke="transparent" points="597.5,-227.2 597.5,-288.2 696.5,-288.2 696.5,-227.2 597.5,-227.2"/>
<polygon fill="#f5f5f5" stroke="transparent" points="598,-264.7 598,-287.7 697,-287.7 697,-264.7 598,-264.7"/>
<polygon fill="none" stroke="#000000" points="598,-264.7 598,-287.7 697,-287.7 697,-264.7 598,-264.7"/>
<text text-anchor="start" x="603" y="-273.3" font-family="Helvetica,sans-Serif" font-weight="bold" font-size="11.00" fill="#000000">evidence</text>
<text text-anchor="start" x="662.5219" y="-272.8" font-family="Helvetica,sans-Serif" font-size="11.00" fill="#000000">[table]</text>
<polygon fill="none" stroke="#000000" points="598,-245.7 598,-264.7 697,-264.7 697,-245.7 598,-245.7"/>
<text text-anchor="start" x="601" y="-251.8" font-family="Helvetica,sans-Serif" font-size="11.00" fill="#000000">...</text>
<polygon fill="#ffffff" stroke="transparent" points="598,-226.7 598,-245.7 646,-245.7 646,-226.7 598,-226.7"/>
<polygon fill="none" stroke="#000000" points="598,-226.7 598,-245.7 646,-245.7 646,-226.7 598,-226.7"/>
<text text-anchor="start" x="601" y="-232.8" font-family="Helvetica,sans-Serif" font-size="11.00" fill="#000000">&lt; 1</text>
<polygon fill="#ffffff" stroke="transparent" points="646,-226.7 646,-245.7 671,-245.7 671,-226.7 646,-226.7"/>
<polygon fill="none" stroke="#000000" points="646,-226.7 646,-245.7 671,-245.7 671,-226.7 646,-226.7"/>
<text text-anchor="start" x="661.8862" y="-232.8" font-family="Helvetica,sans-Serif" font-size="11.00" fill="#000000"> &#160;</text>
<polygon fill="#ffffff" stroke="transparent" points="671,-226.7 671,-245.7 697,-245.7 697,-226.7 671,-226.7"/>
<polygon fill="none" stroke="#000000" points="671,-226.7 671,-245.7 697,-245.7 697,-226.7 671,-226.7"/>
<text text-anchor="start" x="687.8862" y="-232.8" font-family="Helvetica,sans-Serif" font-size="11.00" fill="#000000"> &#160;</text>
</a>
</g>
</g>
<!-- evidence&#45;&gt;draft_adjudications -->
<g id="edge5" class="edge">
<title>evidence:w&#45;&gt;draft_adjudications:e</title>
<path fill="none" stroke="#000000" d="M584.0753,-249.9968C571.043,-239.2274 571.0408,-213.7 548.5,-213.7"/>
<polygon fill="#000000" stroke="#000000" points="590.4207,-252.14 596.848,-258.1107 594.2103,-253.42 598,-254.7 598,-254.7 598,-254.7 594.2103,-253.42 599.152,-251.2893 590.4207,-252.14 590.4207,-252.14"/>
<ellipse fill="none" stroke="#000000" cx="587.3889" cy="-251.1159" rx="3.2" ry="3.2"/>
</g>
<!-- offence -->
<g id="node7" class="node">
<title>offence</title>
<g id="a_node7"><a xlink:href="../../tables/offence.html" xlink:title="offence" target="_top">
<polygon fill="#ffffff" stroke="transparent" points="602.5,-145.2 602.5,-206.2 691.5,-206.2 691.5,-145.2 602.5,-145.2"/>
<polygon fill="#f5f5f5" stroke="transparent" points="603,-182.7 603,-205.7 692,-205.7 692,-182.7 603,-182.7"/>
<polygon fill="none" stroke="#000000" points="603,-182.7 603,-205.7 692,-205.7 692,-182.7 603,-182.7"/>
<text text-anchor="start" x="608" y="-191.3" font-family="Helvetica,sans-Serif" font-weight="bold" font-size="11.00" fill="#000000">offence</text>
<text text-anchor="start" x="657.5219" y="-190.8" font-family="Helvetica,sans-Serif" font-size="11.00" fill="#000000">[table]</text>
<polygon fill="none" stroke="#000000" points="603,-163.7 603,-182.7 692,-182.7 692,-163.7 603,-163.7"/>
<text text-anchor="start" x="606" y="-169.8" font-family="Helvetica,sans-Serif" font-size="11.00" fill="#000000">...</text>
<polygon fill="#ffffff" stroke="transparent" points="603,-144.7 603,-163.7 641,-163.7 641,-144.7 603,-144.7"/>
<polygon fill="none" stroke="#000000" points="603,-144.7 603,-163.7 641,-163.7 641,-144.7 603,-144.7"/>
<text text-anchor="start" x="606" y="-150.8" font-family="Helvetica,sans-Serif" font-size="11.00" fill="#000000">&lt; 1</text>
<polygon fill="#ffffff" stroke="transparent" points="641,-144.7 641,-163.7 662,-163.7 662,-144.7 641,-144.7"/>
<polygon fill="none" stroke="#000000" points="641,-144.7 641,-163.7 662,-163.7 662,-144.7 641,-144.7"/>
<text text-anchor="start" x="652.8862" y="-150.8" font-family="Helvetica,sans-Serif" font-size="11.00" fill="#000000"> &#160;</text>
<polygon fill="#ffffff" stroke="transparent" points="662,-144.7 662,-163.7 692,-163.7 692,-144.7 662,-144.7"/>
<polygon fill="none" stroke="#000000" points="662,-144.7 662,-163.7 692,-163.7 692,-144.7 662,-144.7"/>
<text text-anchor="start" x="673.4053" y="-150.8" font-family="Helvetica,sans-Serif" font-size="11.00" fill="#000000">1 &gt;</text>
</a>
</g>
</g>
<!-- offence&#45;&gt;draft_adjudications -->
<g id="edge6" class="edge">
<title>offence:w&#45;&gt;draft_adjudications:e</title>
<path fill="none" stroke="#000000" d="M588.8661,-176.7811C573.6905,-187.1516 572.891,-213.7 548.5,-213.7"/>
<polygon fill="#000000" stroke="#000000" points="595.314,-174.9194 603.9987,-176.1587 599.157,-173.8097 603,-172.7 603,-172.7 603,-172.7 599.157,-173.8097 602.0013,-169.2413 595.314,-174.9194 595.314,-174.9194"/>
<ellipse fill="none" stroke="#000000" cx="592.2396" cy="-175.8071" rx="3.2" ry="3.2"/>
</g>
<!-- witness -->
<g id="node8" class="node">
<title>witness</title>
<g id="a_node8"><a xlink:href="../../tables/witness.html" xlink:title="witness" target="_top">
<polygon fill="#ffffff" stroke="transparent" points="602,-63.2 602,-124.2 692,-124.2 692,-63.2 602,-63.2"/>
<polygon fill="#f5f5f5" stroke="transparent" points="602,-100.7 602,-123.7 692,-123.7 692,-100.7 602,-100.7"/>
<polygon fill="none" stroke="#000000" points="602,-100.7 602,-123.7 692,-123.7 692,-100.7 602,-100.7"/>
<text text-anchor="start" x="607" y="-109.3" font-family="Helvetica,sans-Serif" font-weight="bold" font-size="11.00" fill="#000000">witness</text>
<text text-anchor="start" x="657.5219" y="-108.8" font-family="Helvetica,sans-Serif" font-size="11.00" fill="#000000">[table]</text>
<polygon fill="none" stroke="#000000" points="602,-81.7 602,-100.7 692,-100.7 692,-81.7 602,-81.7"/>
<text text-anchor="start" x="605" y="-87.8" font-family="Helvetica,sans-Serif" font-size="11.00" fill="#000000">...</text>
<polygon fill="#ffffff" stroke="transparent" points="602,-62.7 602,-81.7 645,-81.7 645,-62.7 602,-62.7"/>
<polygon fill="none" stroke="#000000" points="602,-62.7 602,-81.7 645,-81.7 645,-62.7 602,-62.7"/>
<text text-anchor="start" x="605" y="-68.8" font-family="Helvetica,sans-Serif" font-size="11.00" fill="#000000">&lt; 1</text>
<polygon fill="#ffffff" stroke="transparent" points="645,-62.7 645,-81.7 668,-81.7 668,-62.7 645,-62.7"/>
<polygon fill="none" stroke="#000000" points="645,-62.7 645,-81.7 668,-81.7 668,-62.7 645,-62.7"/>
<text text-anchor="start" x="658.8862" y="-68.8" font-family="Helvetica,sans-Serif" font-size="11.00" fill="#000000"> &#160;</text>
<polygon fill="#ffffff" stroke="transparent" points="668,-62.7 668,-81.7 692,-81.7 692,-62.7 668,-62.7"/>
<polygon fill="none" stroke="#000000" points="668,-62.7 668,-81.7 692,-81.7 692,-62.7 668,-62.7"/>
<text text-anchor="start" x="682.8862" y="-68.8" font-family="Helvetica,sans-Serif" font-size="11.00" fill="#000000"> &#160;</text>
</a>
</g>
</g>
<!-- witness&#45;&gt;draft_adjudications -->
<g id="edge7" class="edge">
<title>witness:w&#45;&gt;draft_adjudications:e</title>
<path fill="none" stroke="#000000" d="M587.8876,-93.99C554.0282,-113.5504 602.2923,-213.7 548.5,-213.7"/>
<polygon fill="#000000" stroke="#000000" points="594.2089,-92.5163 602.8174,-94.206 598.1045,-91.6082 602,-90.7 602,-90.7 602,-90.7 598.1045,-91.6082 601.1826,-87.194 594.2089,-92.5163 594.2089,-92.5163"/>
<ellipse fill="none" stroke="#000000" cx="591.0925" cy="-93.2429" rx="3.2" ry="3.2"/>
</g>
</g>
</svg>
