<?xml version="1.0" encoding="UTF-8" standalone="no"?>
<!DOCTYPE svg PUBLIC "-//W3C//DTD SVG 1.1//EN"
 "http://www.w3.org/Graphics/SVG/1.1/DTD/svg11.dtd">
<!-- Generated by graphviz version 2.40.1 (20161225.0304)
 -->
<!-- Title: twoDegreesRelationshipsDiagram Pages: 1 -->
<svg width="1100pt" height="563pt"
 viewBox="0.00 0.00 1100.00 563.20" xmlns="http://www.w3.org/2000/svg" xmlns:xlink="http://www.w3.org/1999/xlink">
<g id="graph0" class="graph" transform="scale(1 1) rotate(0) translate(4 559.2)">
<title>twoDegreesRelationshipsDiagram</title>
<polygon fill="#ffffff" stroke="transparent" points="-4,4 -4,-559.2 1096,-559.2 1096,4 -4,4"/>
<text text-anchor="middle" x="72.4936" y="-7.3" font-family="Helvetica,sans-Serif" font-size="11.00" fill="#000000">Generated by SchemaSpy</text>
<!-- damages -->
<g id="node1" class="node">
<title>damages</title>
<g id="a_node1"><a xlink:href="../../tables/damages.html" xlink:title="damages" target="_top">
<polygon fill="#ffffff" stroke="transparent" points="587.5,-490.2 587.5,-551.2 687.5,-551.2 687.5,-490.2 587.5,-490.2"/>
<polygon fill="#f5f5f5" stroke="transparent" points="587.5,-527.7 587.5,-550.7 687.5,-550.7 687.5,-527.7 587.5,-527.7"/>
<polygon fill="none" stroke="#000000" points="587.5,-527.7 587.5,-550.7 687.5,-550.7 687.5,-527.7 587.5,-527.7"/>
<text text-anchor="start" x="592.5" y="-536.3" font-family="Helvetica,sans-Serif" font-weight="bold" font-size="11.00" fill="#000000">damages</text>
<text text-anchor="start" x="653.0219" y="-535.8" font-family="Helvetica,sans-Serif" font-size="11.00" fill="#000000">[table]</text>
<polygon fill="none" stroke="#000000" points="587.5,-508.7 587.5,-527.7 687.5,-527.7 687.5,-508.7 587.5,-508.7"/>
<text text-anchor="start" x="590.5" y="-514.8" font-family="Helvetica,sans-Serif" font-size="11.00" fill="#000000">...</text>
<polygon fill="#ffffff" stroke="transparent" points="587.5,-489.7 587.5,-508.7 635.5,-508.7 635.5,-489.7 587.5,-489.7"/>
<polygon fill="none" stroke="#000000" points="587.5,-489.7 587.5,-508.7 635.5,-508.7 635.5,-489.7 587.5,-489.7"/>
<text text-anchor="start" x="590.5" y="-495.8" font-family="Helvetica,sans-Serif" font-size="11.00" fill="#000000">&lt; 1</text>
<polygon fill="#ffffff" stroke="transparent" points="635.5,-489.7 635.5,-508.7 661.5,-508.7 661.5,-489.7 635.5,-489.7"/>
<polygon fill="none" stroke="#000000" points="635.5,-489.7 635.5,-508.7 661.5,-508.7 661.5,-489.7 635.5,-489.7"/>
<text text-anchor="start" x="652.3862" y="-495.8" font-family="Helvetica,sans-Serif" font-size="11.00" fill="#000000"> &#160;</text>
<polygon fill="#ffffff" stroke="transparent" points="661.5,-489.7 661.5,-508.7 687.5,-508.7 687.5,-489.7 661.5,-489.7"/>
<polygon fill="none" stroke="#000000" points="661.5,-489.7 661.5,-508.7 687.5,-508.7 687.5,-489.7 661.5,-489.7"/>
<text text-anchor="start" x="678.3862" y="-495.8" font-family="Helvetica,sans-Serif" font-size="11.00" fill="#000000"> &#160;</text>
</a>
</g>
</g>
<!-- draft_adjudications -->
<g id="node2" class="node">
<title>draft_adjudications</title>
<g id="a_node2"><a xlink:href="../../tables/draft_adjudications.html" xlink:title="draft_adjudications" target="_top">
<polygon fill="#ffffff" stroke="transparent" points="226,-142.2 226,-313.2 441,-313.2 441,-142.2 226,-142.2"/>
<polygon fill="#f5f5f5" stroke="transparent" points="226.5,-289.7 226.5,-312.7 441.5,-312.7 441.5,-289.7 226.5,-289.7"/>
<polygon fill="none" stroke="#000000" points="226.5,-289.7 226.5,-312.7 441.5,-312.7 441.5,-289.7 226.5,-289.7"/>
<text text-anchor="start" x="231.5" y="-298.3" font-family="Helvetica,sans-Serif" font-weight="bold" font-size="11.00" fill="#000000">draft_adjudications</text>
<text text-anchor="start" x="406.5437" y="-297.8" font-family="Helvetica,sans-Serif" font-size="11.00" fill="#000000">[table]</text>
<polygon fill="none" stroke="#000000" points="226.5,-267.7 226.5,-289.7 441.5,-289.7 441.5,-267.7 226.5,-267.7"/>
<image xlink:href="../../images/primaryKeys.png" width="11px" height="12px" preserveAspectRatio="xMinYMin meet" x="231.5" y="-284.7"/>
<text text-anchor="start" x="246.5" y="-274.8" font-family="Helvetica,sans-Serif" font-size="11.00" fill="#000000">id</text>
<polygon fill="#ffffff" stroke="transparent" points="226.5,-245.7 226.5,-267.7 441.5,-267.7 441.5,-245.7 226.5,-245.7"/>
<polygon fill="none" stroke="#000000" points="226.5,-245.7 226.5,-267.7 441.5,-267.7 441.5,-245.7 226.5,-245.7"/>
<text text-anchor="start" x="246.5" y="-252.8" font-family="Helvetica,sans-Serif" font-size="11.00" fill="#000000">prisoner_number</text>
<polygon fill="#ffffff" stroke="transparent" points="226.5,-223.7 226.5,-245.7 441.5,-245.7 441.5,-223.7 226.5,-223.7"/>
<polygon fill="none" stroke="#000000" points="226.5,-223.7 226.5,-245.7 441.5,-245.7 441.5,-223.7 226.5,-223.7"/>
<image xlink:href="../../images/foreignKeys.png" width="11px" height="12px" preserveAspectRatio="xMinYMin meet" x="231.5" y="-240.7"/>
<text text-anchor="start" x="246.5" y="-230.8" font-family="Helvetica,sans-Serif" font-size="11.00" fill="#000000">incident_details_id</text>
<polygon fill="#ffffff" stroke="transparent" points="226.5,-201.7 226.5,-223.7 441.5,-223.7 441.5,-201.7 226.5,-201.7"/>
<polygon fill="none" stroke="#000000" points="226.5,-201.7 226.5,-223.7 441.5,-223.7 441.5,-201.7 226.5,-201.7"/>
<image xlink:href="../../images/foreignKeys.png" width="11px" height="12px" preserveAspectRatio="xMinYMin meet" x="231.5" y="-218.7"/>
<text text-anchor="start" x="246.5" y="-208.8" font-family="Helvetica,sans-Serif" font-size="11.00" fill="#000000">incident_statement_id</text>
<polygon fill="#ffffff" stroke="transparent" points="226.5,-179.7 226.5,-201.7 441.5,-201.7 441.5,-179.7 226.5,-179.7"/>
<polygon fill="none" stroke="#000000" points="226.5,-179.7 226.5,-201.7 441.5,-201.7 441.5,-179.7 226.5,-179.7"/>
<image xlink:href="../../images/foreignKeys.png" width="11px" height="12px" preserveAspectRatio="xMinYMin meet" x="231.5" y="-196.7"/>
<text text-anchor="start" x="246.5" y="-186.8" font-family="Helvetica,sans-Serif" font-size="11.00" fill="#000000">incident_role_id</text>
<polygon fill="none" stroke="#000000" points="226.5,-160.7 226.5,-179.7 441.5,-179.7 441.5,-160.7 226.5,-160.7"/>
<text text-anchor="start" x="229.5" y="-166.8" font-family="Helvetica,sans-Serif" font-size="11.00" fill="#000000">...</text>
<polygon fill="#ffffff" stroke="transparent" points="226.5,-141.7 226.5,-160.7 327.5,-160.7 327.5,-141.7 226.5,-141.7"/>
<polygon fill="none" stroke="#000000" points="226.5,-141.7 226.5,-160.7 327.5,-160.7 327.5,-141.7 226.5,-141.7"/>
<text text-anchor="start" x="229.5" y="-147.8" font-family="Helvetica,sans-Serif" font-size="11.00" fill="#000000">&lt; 3</text>
<polygon fill="#ffffff" stroke="transparent" points="327.5,-141.7 327.5,-160.7 379.5,-160.7 379.5,-141.7 327.5,-141.7"/>
<polygon fill="none" stroke="#000000" points="327.5,-141.7 327.5,-160.7 379.5,-160.7 379.5,-141.7 327.5,-141.7"/>
<text text-anchor="start" x="370.3862" y="-147.8" font-family="Helvetica,sans-Serif" font-size="11.00" fill="#000000"> &#160;</text>
<polygon fill="#ffffff" stroke="transparent" points="379.5,-141.7 379.5,-160.7 441.5,-160.7 441.5,-141.7 379.5,-141.7"/>
<polygon fill="none" stroke="#000000" points="379.5,-141.7 379.5,-160.7 441.5,-160.7 441.5,-141.7 379.5,-141.7"/>
<text text-anchor="start" x="422.9053" y="-147.8" font-family="Helvetica,sans-Serif" font-size="11.00" fill="#000000">4 &gt;</text>
</a>
</g>
</g>
<!-- damages&#45;&gt;draft_adjudications -->
<g id="edge1" class="edge">
<title>damages:w&#45;&gt;draft_adjudications:e</title>
<path fill="none" stroke="#000000" d="M572.8423,-517.6501C532.7779,-517.243 511.1892,-513.5258 482,-479.7 422.4645,-410.7075 532.6287,-278.7 441.5,-278.7"/>
<polygon fill="#000000" stroke="#000000" points="579.5,-517.6727 587.4877,-521.3 583.5,-517.6864 587.5,-517.7 587.5,-517.7 587.5,-517.7 583.5,-517.6864 587.5123,-514.1 579.5,-517.6727 579.5,-517.6727"/>
<ellipse fill="none" stroke="#000000" cx="576.3001" cy="-517.6618" rx="3.2" ry="3.2"/>
</g>
<!-- incident_details -->
<g id="node3" class="node">
<title>incident_details</title>
<g id="a_node3"><a xlink:href="../../tables/incident_details.html" xlink:title="incident_details" target="_top">
<polygon fill="#ffffff" stroke="transparent" points="20,-267.2 20,-328.2 165,-328.2 165,-267.2 20,-267.2"/>
<polygon fill="#f5f5f5" stroke="transparent" points="20.5,-304.7 20.5,-327.7 165.5,-327.7 165.5,-304.7 20.5,-304.7"/>
<polygon fill="none" stroke="#000000" points="20.5,-304.7 20.5,-327.7 165.5,-327.7 165.5,-304.7 20.5,-304.7"/>
<text text-anchor="start" x="25.5" y="-313.3" font-family="Helvetica,sans-Serif" font-weight="bold" font-size="11.00" fill="#000000">incident_details</text>
<text text-anchor="start" x="131.0219" y="-312.8" font-family="Helvetica,sans-Serif" font-size="11.00" fill="#000000">[table]</text>
<polygon fill="none" stroke="#000000" points="20.5,-285.7 20.5,-304.7 165.5,-304.7 165.5,-285.7 20.5,-285.7"/>
<text text-anchor="start" x="23.5" y="-291.8" font-family="Helvetica,sans-Serif" font-size="11.00" fill="#000000">...</text>
<polygon fill="#ffffff" stroke="transparent" points="20.5,-266.7 20.5,-285.7 82.5,-285.7 82.5,-266.7 20.5,-266.7"/>
<polygon fill="none" stroke="#000000" points="20.5,-266.7 20.5,-285.7 82.5,-285.7 82.5,-266.7 20.5,-266.7"/>
<text text-anchor="start" x="23.5" y="-272.8" font-family="Helvetica,sans-Serif" font-size="11.00" fill="#000000"> &#160;</text>
<polygon fill="#ffffff" stroke="transparent" points="82.5,-266.7 82.5,-285.7 119.5,-285.7 119.5,-266.7 82.5,-266.7"/>
<polygon fill="none" stroke="#000000" points="82.5,-266.7 82.5,-285.7 119.5,-285.7 119.5,-266.7 82.5,-266.7"/>
<text text-anchor="start" x="110.3862" y="-272.8" font-family="Helvetica,sans-Serif" font-size="11.00" fill="#000000"> &#160;</text>
<polygon fill="#ffffff" stroke="transparent" points="119.5,-266.7 119.5,-285.7 165.5,-285.7 165.5,-266.7 119.5,-266.7"/>
<polygon fill="none" stroke="#000000" points="119.5,-266.7 119.5,-285.7 165.5,-285.7 165.5,-266.7 119.5,-266.7"/>
<text text-anchor="start" x="146.9053" y="-272.8" font-family="Helvetica,sans-Serif" font-size="11.00" fill="#000000">1 &gt;</text>
</a>
</g>
</g>
<!-- draft_adjudications&#45;&gt;incident_details -->
<g id="edge2" class="edge">
<title>draft_adjudications:w&#45;&gt;incident_details:e</title>
<path fill="none" stroke="#000000" d="M212.4407,-238.4533C191.8274,-251.5887 197.7346,-294.7 165.5,-294.7"/>
<polygon fill="#000000" stroke="#000000" points="218.7707,-236.7635 227.4286,-238.1782 222.6353,-235.7317 226.5,-234.7 226.5,-234.7 226.5,-234.7 222.6353,-235.7317 225.5714,-231.2218 218.7707,-236.7635 218.7707,-236.7635"/>
<ellipse fill="none" stroke="#000000" cx="215.679" cy="-237.5888" rx="3.2" ry="3.2"/>
</g>
<!-- incident_role -->
<g id="node4" class="node">
<title>incident_role</title>
<g id="a_node4"><a xlink:href="../../tables/incident_role.html" xlink:title="incident_role" target="_top">
<polygon fill="#ffffff" stroke="transparent" points="29.5,-103.2 29.5,-164.2 155.5,-164.2 155.5,-103.2 29.5,-103.2"/>
<polygon fill="#f5f5f5" stroke="transparent" points="29.5,-140.7 29.5,-163.7 155.5,-163.7 155.5,-140.7 29.5,-140.7"/>
<polygon fill="none" stroke="#000000" points="29.5,-140.7 29.5,-163.7 155.5,-163.7 155.5,-140.7 29.5,-140.7"/>
<text text-anchor="start" x="34.5" y="-149.3" font-family="Helvetica,sans-Serif" font-weight="bold" font-size="11.00" fill="#000000">incident_role</text>
<text text-anchor="start" x="121.0219" y="-148.8" font-family="Helvetica,sans-Serif" font-size="11.00" fill="#000000">[table]</text>
<polygon fill="none" stroke="#000000" points="29.5,-121.7 29.5,-140.7 155.5,-140.7 155.5,-121.7 29.5,-121.7"/>
<text text-anchor="start" x="32.5" y="-127.8" font-family="Helvetica,sans-Serif" font-size="11.00" fill="#000000">...</text>
<polygon fill="#ffffff" stroke="transparent" points="29.5,-102.7 29.5,-121.7 81.5,-121.7 81.5,-102.7 29.5,-102.7"/>
<polygon fill="none" stroke="#000000" points="29.5,-102.7 29.5,-121.7 81.5,-121.7 81.5,-102.7 29.5,-102.7"/>
<text text-anchor="start" x="32.5" y="-108.8" font-family="Helvetica,sans-Serif" font-size="11.00" fill="#000000"> &#160;</text>
<polygon fill="#ffffff" stroke="transparent" points="81.5,-102.7 81.5,-121.7 113.5,-121.7 113.5,-102.7 81.5,-102.7"/>
<polygon fill="none" stroke="#000000" points="81.5,-102.7 81.5,-121.7 113.5,-121.7 113.5,-102.7 81.5,-102.7"/>
<text text-anchor="start" x="104.3862" y="-108.8" font-family="Helvetica,sans-Serif" font-size="11.00" fill="#000000"> &#160;</text>
<polygon fill="#ffffff" stroke="transparent" points="113.5,-102.7 113.5,-121.7 155.5,-121.7 155.5,-102.7 113.5,-102.7"/>
<polygon fill="none" stroke="#000000" points="113.5,-102.7 113.5,-121.7 155.5,-121.7 155.5,-102.7 113.5,-102.7"/>
<text text-anchor="start" x="136.9053" y="-108.8" font-family="Helvetica,sans-Serif" font-size="11.00" fill="#000000">1 &gt;</text>
</a>
</g>
</g>
<!-- draft_adjudications&#45;&gt;incident_role -->
<g id="edge3" class="edge">
<title>draft_adjudications:w&#45;&gt;incident_role:e</title>
<path fill="none" stroke="#000000" d="M212.2529,-187.6421C187.3758,-175.4153 191.1658,-130.7 155.5,-130.7"/>
<polygon fill="#000000" stroke="#000000" points="218.6781,-189.0211 225.7445,-194.2198 222.5891,-189.8606 226.5,-190.7 226.5,-190.7 226.5,-190.7 222.5891,-189.8606 227.2555,-187.1802 218.6781,-189.0211 218.6781,-189.0211"/>
<ellipse fill="none" stroke="#000000" cx="215.5494" cy="-188.3496" rx="3.2" ry="3.2"/>
</g>
<!-- incident_statement -->
<g id="node5" class="node">
<title>incident_statement</title>
<g id="a_node5"><a xlink:href="../../tables/incident_statement.html" xlink:title="incident_statement" target="_top">
<polygon fill="#ffffff" stroke="transparent" points="8,-185.2 8,-246.2 177,-246.2 177,-185.2 8,-185.2"/>
<polygon fill="#f5f5f5" stroke="transparent" points="8.5,-222.7 8.5,-245.7 177.5,-245.7 177.5,-222.7 8.5,-222.7"/>
<polygon fill="none" stroke="#000000" points="8.5,-222.7 8.5,-245.7 177.5,-245.7 177.5,-222.7 8.5,-222.7"/>
<text text-anchor="start" x="13.5" y="-231.3" font-family="Helvetica,sans-Serif" font-weight="bold" font-size="11.00" fill="#000000">incident_statement</text>
<text text-anchor="start" x="143.0219" y="-230.8" font-family="Helvetica,sans-Serif" font-size="11.00" fill="#000000">[table]</text>
<polygon fill="none" stroke="#000000" points="8.5,-203.7 8.5,-222.7 177.5,-222.7 177.5,-203.7 8.5,-203.7"/>
<text text-anchor="start" x="11.5" y="-209.8" font-family="Helvetica,sans-Serif" font-size="11.00" fill="#000000">...</text>
<polygon fill="#ffffff" stroke="transparent" points="8.5,-184.7 8.5,-203.7 82.5,-203.7 82.5,-184.7 8.5,-184.7"/>
<polygon fill="none" stroke="#000000" points="8.5,-184.7 8.5,-203.7 82.5,-203.7 82.5,-184.7 8.5,-184.7"/>
<text text-anchor="start" x="11.5" y="-190.8" font-family="Helvetica,sans-Serif" font-size="11.00" fill="#000000"> &#160;</text>
<polygon fill="#ffffff" stroke="transparent" points="82.5,-184.7 82.5,-203.7 125.5,-203.7 125.5,-184.7 82.5,-184.7"/>
<polygon fill="none" stroke="#000000" points="82.5,-184.7 82.5,-203.7 125.5,-203.7 125.5,-184.7 82.5,-184.7"/>
<text text-anchor="start" x="116.3862" y="-190.8" font-family="Helvetica,sans-Serif" font-size="11.00" fill="#000000"> &#160;</text>
<polygon fill="#ffffff" stroke="transparent" points="125.5,-184.7 125.5,-203.7 177.5,-203.7 177.5,-184.7 125.5,-184.7"/>
<polygon fill="none" stroke="#000000" points="125.5,-184.7 125.5,-203.7 177.5,-203.7 177.5,-184.7 125.5,-184.7"/>
<text text-anchor="start" x="158.9053" y="-190.8" font-family="Helvetica,sans-Serif" font-size="11.00" fill="#000000">1 &gt;</text>
</a>
</g>
</g>
<!-- draft_adjudications&#45;&gt;incident_statement -->
<g id="edge4" class="edge">
<title>draft_adjudications:w&#45;&gt;incident_statement:e</title>
<path fill="none" stroke="#000000" d="M211.9909,-212.7C200.6774,-212.7 193.4931,-212.7 177.5,-212.7"/>
<polygon fill="#000000" stroke="#000000" points="218.5,-212.7001 226.5,-216.3 222.5,-212.7 226.5,-212.7 226.5,-212.7 226.5,-212.7 222.5,-212.7 226.5,-209.1 218.5,-212.7001 218.5,-212.7001"/>
<ellipse fill="none" stroke="#000000" cx="215.3" cy="-212.7001" rx="3.2" ry="3.2"/>
</g>
<!-- draft_protected_characteristics -->
<g id="node6" class="node">
<title>draft_protected_characteristics</title>
<g id="a_node6"><a xlink:href="../../tables/draft_protected_characteristics.html" xlink:title="draft_protected_characteristics" target="_top">
<polygon fill="#ffffff" stroke="transparent" points="834,-384.2 834,-489.2 1084,-489.2 1084,-384.2 834,-384.2"/>
<polygon fill="#f5f5f5" stroke="transparent" points="834,-465.7 834,-488.7 1084,-488.7 1084,-465.7 834,-465.7"/>
<polygon fill="none" stroke="#000000" points="834,-465.7 834,-488.7 1084,-488.7 1084,-465.7 834,-465.7"/>
<text text-anchor="start" x="839" y="-474.3" font-family="Helvetica,sans-Serif" font-weight="bold" font-size="11.00" fill="#000000">draft_protected_characteristics</text>
<text text-anchor="start" x="1049.5219" y="-473.8" font-family="Helvetica,sans-Serif" font-size="11.00" fill="#000000">[table]</text>
<polygon fill="none" stroke="#000000" points="834,-443.7 834,-465.7 1084,-465.7 1084,-443.7 834,-443.7"/>
<image xlink:href="../../images/primaryKeys.png" width="11px" height="12px" preserveAspectRatio="xMinYMin meet" x="839" y="-460.7"/>
<text text-anchor="start" x="863" y="-450.8" font-family="Helvetica,sans-Serif" font-size="11.00" fill="#000000">id</text>
<polygon fill="#ffffff" stroke="transparent" points="834,-421.7 834,-443.7 1084,-443.7 1084,-421.7 834,-421.7"/>
<polygon fill="none" stroke="#000000" points="834,-421.7 834,-443.7 1084,-443.7 1084,-421.7 834,-421.7"/>
<image xlink:href="../../images/foreignKeys.png" width="11px" height="12px" preserveAspectRatio="xMinYMin meet" x="839" y="-438.7"/>
<text text-anchor="start" x="863" y="-428.8" font-family="Helvetica,sans-Serif" font-size="11.00" fill="#000000">offence_fk_id</text>
<polygon fill="none" stroke="#000000" points="834,-402.7 834,-421.7 1084,-421.7 1084,-402.7 834,-402.7"/>
<text text-anchor="start" x="837" y="-408.8" font-family="Helvetica,sans-Serif" font-size="11.00" fill="#000000">...</text>
<polygon fill="#ffffff" stroke="transparent" points="834,-383.7 834,-402.7 957,-402.7 957,-383.7 834,-383.7"/>
<polygon fill="none" stroke="#000000" points="834,-383.7 834,-402.7 957,-402.7 957,-383.7 834,-383.7"/>
<text text-anchor="start" x="837" y="-389.8" font-family="Helvetica,sans-Serif" font-size="11.00" fill="#000000">&lt; 1</text>
<polygon fill="#ffffff" stroke="transparent" points="957,-383.7 957,-402.7 1020,-402.7 1020,-383.7 957,-383.7"/>
<polygon fill="none" stroke="#000000" points="957,-383.7 957,-402.7 1020,-402.7 1020,-383.7 957,-383.7"/>
<text text-anchor="start" x="1010.8862" y="-389.8" font-family="Helvetica,sans-Serif" font-size="11.00" fill="#000000"> &#160;</text>
<polygon fill="#ffffff" stroke="transparent" points="1020,-383.7 1020,-402.7 1084,-402.7 1084,-383.7 1020,-383.7"/>
<polygon fill="none" stroke="#000000" points="1020,-383.7 1020,-402.7 1084,-402.7 1084,-383.7 1020,-383.7"/>
<text text-anchor="start" x="1074.8862" y="-389.8" font-family="Helvetica,sans-Serif" font-size="11.00" fill="#000000"> &#160;</text>
</a>
</g>
</g>
<!-- offence -->
<g id="node7" class="node">
<title>offence</title>
<g id="a_node7"><a xlink:href="../../tables/offence.html" xlink:title="offence" target="_top">
<polygon fill="#ffffff" stroke="transparent" points="490,-202.7 490,-468.7 785,-468.7 785,-202.7 490,-202.7"/>
<polygon fill="#f5f5f5" stroke="transparent" points="492.5,-443.7 492.5,-466.7 783.5,-466.7 783.5,-443.7 492.5,-443.7"/>
<polygon fill="none" stroke="#000000" points="492.5,-443.7 492.5,-466.7 783.5,-466.7 783.5,-443.7 492.5,-443.7"/>
<text text-anchor="start" x="497.5" y="-452.3" font-family="Helvetica,sans-Serif" font-weight="bold" font-size="11.00" fill="#000000">offence</text>
<text text-anchor="start" x="748.5437" y="-451.8" font-family="Helvetica,sans-Serif" font-size="11.00" fill="#000000">[table]</text>
<polygon fill="none" stroke="#000000" points="492.5,-421.7 492.5,-443.7 699.5,-443.7 699.5,-421.7 492.5,-421.7"/>
<image xlink:href="../../images/primaryKeys.png" width="11px" height="12px" preserveAspectRatio="xMinYMin meet" x="497.5" y="-438.7"/>
<text text-anchor="start" x="512.5" y="-428.8" font-family="Helvetica,sans-Serif" font-size="11.00" fill="#000000">id</text>
<polygon fill="none" stroke="#000000" points="699.5,-421.7 699.5,-443.7 783.5,-443.7 783.5,-421.7 699.5,-421.7"/>
<text text-anchor="start" x="702.5" y="-429.4" font-family="Helvetica,sans-Serif" font-size="11.00" fill="#000000">serial[10]</text>
<polygon fill="#ffffff" stroke="transparent" points="492.5,-399.7 492.5,-421.7 699.5,-421.7 699.5,-399.7 492.5,-399.7"/>
<polygon fill="none" stroke="#000000" points="492.5,-399.7 492.5,-421.7 699.5,-421.7 699.5,-399.7 492.5,-399.7"/>
<image xlink:href="../../images/foreignKeys.png" width="11px" height="12px" preserveAspectRatio="xMinYMin meet" x="497.5" y="-416.7"/>
<text text-anchor="start" x="512.5" y="-406.8" font-family="Helvetica,sans-Serif" font-size="11.00" fill="#000000">draft_adjudication_fk_id</text>
<polygon fill="none" stroke="#000000" points="699.5,-399.7 699.5,-421.7 783.5,-421.7 783.5,-399.7 699.5,-399.7"/>
<text text-anchor="start" x="702.5" y="-407.4" font-family="Helvetica,sans-Serif" font-size="11.00" fill="#000000">int8[19]</text>
<polygon fill="none" stroke="#000000" points="492.5,-377.7 492.5,-399.7 699.5,-399.7 699.5,-377.7 492.5,-377.7"/>
<text text-anchor="start" x="512.5" y="-384.8" font-family="Helvetica,sans-Serif" font-size="11.00" fill="#000000">offence_code</text>
<polygon fill="none" stroke="#000000" points="699.5,-377.7 699.5,-399.7 783.5,-399.7 783.5,-377.7 699.5,-377.7"/>
<text text-anchor="start" x="702.5" y="-385.4" font-family="Helvetica,sans-Serif" font-size="11.00" fill="#000000">int4[10]</text>
<polygon fill="#ffffff" stroke="transparent" points="492.5,-355.7 492.5,-377.7 699.5,-377.7 699.5,-355.7 492.5,-355.7"/>
<polygon fill="none" stroke="#000000" points="492.5,-355.7 492.5,-377.7 699.5,-377.7 699.5,-355.7 492.5,-355.7"/>
<text text-anchor="start" x="512.5" y="-362.8" font-family="Helvetica,sans-Serif" font-size="11.00" fill="#000000">victim_prisoners_number</text>
<polygon fill="none" stroke="#000000" points="699.5,-355.7 699.5,-377.7 783.5,-377.7 783.5,-355.7 699.5,-355.7"/>
<text text-anchor="start" x="702.5" y="-363.4" font-family="Helvetica,sans-Serif" font-size="11.00" fill="#000000">varchar[7]</text>
<polygon fill="none" stroke="#000000" points="492.5,-333.7 492.5,-355.7 699.5,-355.7 699.5,-333.7 492.5,-333.7"/>
<text text-anchor="start" x="512.5" y="-340.8" font-family="Helvetica,sans-Serif" font-size="11.00" fill="#000000">create_user_id</text>
<polygon fill="none" stroke="#000000" points="699.5,-333.7 699.5,-355.7 783.5,-355.7 783.5,-333.7 699.5,-333.7"/>
<text text-anchor="start" x="702.5" y="-341.4" font-family="Helvetica,sans-Serif" font-size="11.00" fill="#000000">varchar[32]</text>
<polygon fill="none" stroke="#000000" points="492.5,-311.7 492.5,-333.7 699.5,-333.7 699.5,-311.7 492.5,-311.7"/>
<text text-anchor="start" x="512.5" y="-318.8" font-family="Helvetica,sans-Serif" font-size="11.00" fill="#000000">create_datetime</text>
<polygon fill="none" stroke="#000000" points="699.5,-311.7 699.5,-333.7 783.5,-333.7 783.5,-311.7 699.5,-311.7"/>
<text text-anchor="start" x="702.3807" y="-319.4" font-family="Helvetica,sans-Serif" font-size="11.00" fill="#000000">timestamp[29,6]</text>
<polygon fill="none" stroke="#000000" points="492.5,-289.7 492.5,-311.7 699.5,-311.7 699.5,-289.7 492.5,-289.7"/>
<text text-anchor="start" x="512.5" y="-296.8" font-family="Helvetica,sans-Serif" font-size="11.00" fill="#000000">modify_user_id</text>
<polygon fill="none" stroke="#000000" points="699.5,-289.7 699.5,-311.7 783.5,-311.7 783.5,-289.7 699.5,-289.7"/>
<text text-anchor="start" x="702.5" y="-297.4" font-family="Helvetica,sans-Serif" font-size="11.00" fill="#000000">varchar[32]</text>
<polygon fill="none" stroke="#000000" points="492.5,-267.7 492.5,-289.7 699.5,-289.7 699.5,-267.7 492.5,-267.7"/>
<text text-anchor="start" x="512.5" y="-274.8" font-family="Helvetica,sans-Serif" font-size="11.00" fill="#000000">modify_datetime</text>
<polygon fill="none" stroke="#000000" points="699.5,-267.7 699.5,-289.7 783.5,-289.7 783.5,-267.7 699.5,-267.7"/>
<text text-anchor="start" x="702.3807" y="-275.4" font-family="Helvetica,sans-Serif" font-size="11.00" fill="#000000">timestamp[29,6]</text>
<polygon fill="none" stroke="#000000" points="492.5,-245.7 492.5,-267.7 699.5,-267.7 699.5,-245.7 492.5,-245.7"/>
<text text-anchor="start" x="512.5" y="-252.8" font-family="Helvetica,sans-Serif" font-size="11.00" fill="#000000">victim_staff_username</text>
<polygon fill="none" stroke="#000000" points="699.5,-245.7 699.5,-267.7 783.5,-267.7 783.5,-245.7 699.5,-245.7"/>
<text text-anchor="start" x="702.5" y="-253.4" font-family="Helvetica,sans-Serif" font-size="11.00" fill="#000000">varchar[30]</text>
<polygon fill="none" stroke="#000000" points="492.5,-223.7 492.5,-245.7 699.5,-245.7 699.5,-223.7 492.5,-223.7"/>
<text text-anchor="start" x="512.5" y="-230.8" font-family="Helvetica,sans-Serif" font-size="11.00" fill="#000000">victim_other_persons_name</text>
<polygon fill="none" stroke="#000000" points="699.5,-223.7 699.5,-245.7 783.5,-245.7 783.5,-223.7 699.5,-223.7"/>
<text text-anchor="start" x="702.5" y="-231.4" font-family="Helvetica,sans-Serif" font-size="11.00" fill="#000000">varchar[100]</text>
<polygon fill="#ffffff" stroke="transparent" points="492.5,-204.7 492.5,-223.7 600.5,-223.7 600.5,-204.7 492.5,-204.7"/>
<polygon fill="none" stroke="#000000" points="492.5,-204.7 492.5,-223.7 600.5,-223.7 600.5,-204.7 492.5,-204.7"/>
<text text-anchor="start" x="495.5" y="-210.8" font-family="Helvetica,sans-Serif" font-size="11.00" fill="#000000">&lt; 1</text>
<polygon fill="#ffffff" stroke="transparent" points="600.5,-204.7 600.5,-223.7 699.5,-223.7 699.5,-204.7 600.5,-204.7"/>
<polygon fill="none" stroke="#000000" points="600.5,-204.7 600.5,-223.7 699.5,-223.7 699.5,-204.7 600.5,-204.7"/>
<text text-anchor="start" x="690.3862" y="-210.8" font-family="Helvetica,sans-Serif" font-size="11.00" fill="#000000"> &#160;</text>
<polygon fill="#ffffff" stroke="transparent" points="699.5,-204.7 699.5,-223.7 783.5,-223.7 783.5,-204.7 699.5,-204.7"/>
<polygon fill="none" stroke="#000000" points="699.5,-204.7 699.5,-223.7 783.5,-223.7 783.5,-204.7 699.5,-204.7"/>
<text text-anchor="start" x="764.9053" y="-210.8" font-family="Helvetica,sans-Serif" font-size="11.00" fill="#000000">1 &gt;</text>
<polygon fill="none" stroke="#000000" stroke-width="2" points="491,-203.7 491,-467.7 784,-467.7 784,-203.7 491,-203.7"/>
</a>
</g>
</g>
<!-- draft_protected_characteristics&#45;&gt;offence -->
<g id="edge5" class="edge">
<title>draft_protected_characteristics:w&#45;&gt;offence:e</title>
<path fill="none" stroke="#000000" d="M819.4203,-432.7C807.5435,-432.7 800.158,-432.7 783.5,-432.7"/>
<polygon fill="#000000" stroke="#000000" points="826,-432.7001 834,-436.3 830,-432.7 834,-432.7 834,-432.7 834,-432.7 830,-432.7 834,-429.1 826,-432.7001 826,-432.7001"/>
<ellipse fill="none" stroke="#000000" cx="822.8" cy="-432.7001" rx="3.2" ry="3.2"/>
</g>
<!-- offence&#45;&gt;draft_adjudications -->
<g id="edge7" class="edge">
<title>offence:w&#45;&gt;draft_adjudications:e</title>
<path fill="none" stroke="#000000" d="M478.2146,-407.4371C442.4192,-387.1102 498.497,-278.7 441.5,-278.7"/>
<polygon fill="#000000" stroke="#000000" points="484.7009,-408.9185 491.6983,-414.2096 488.6004,-409.8093 492.5,-410.7 492.5,-410.7 492.5,-410.7 488.6004,-409.8093 493.3017,-407.1904 484.7009,-408.9185 484.7009,-408.9185"/>
<ellipse fill="none" stroke="#000000" cx="481.5812" cy="-408.206" rx="3.2" ry="3.2"/>
</g>
<!-- evidence -->
<g id="node8" class="node">
<title>evidence</title>
<g id="a_node8"><a xlink:href="../../tables/evidence.html" xlink:title="evidence" target="_top">
<polygon fill="#ffffff" stroke="transparent" points="588,-120.2 588,-181.2 687,-181.2 687,-120.2 588,-120.2"/>
<polygon fill="#f5f5f5" stroke="transparent" points="588.5,-157.7 588.5,-180.7 687.5,-180.7 687.5,-157.7 588.5,-157.7"/>
<polygon fill="none" stroke="#000000" points="588.5,-157.7 588.5,-180.7 687.5,-180.7 687.5,-157.7 588.5,-157.7"/>
<text text-anchor="start" x="593.5" y="-166.3" font-family="Helvetica,sans-Serif" font-weight="bold" font-size="11.00" fill="#000000">evidence</text>
<text text-anchor="start" x="653.0219" y="-165.8" font-family="Helvetica,sans-Serif" font-size="11.00" fill="#000000">[table]</text>
<polygon fill="none" stroke="#000000" points="588.5,-138.7 588.5,-157.7 687.5,-157.7 687.5,-138.7 588.5,-138.7"/>
<text text-anchor="start" x="591.5" y="-144.8" font-family="Helvetica,sans-Serif" font-size="11.00" fill="#000000">...</text>
<polygon fill="#ffffff" stroke="transparent" points="588.5,-119.7 588.5,-138.7 636.5,-138.7 636.5,-119.7 588.5,-119.7"/>
<polygon fill="none" stroke="#000000" points="588.5,-119.7 588.5,-138.7 636.5,-138.7 636.5,-119.7 588.5,-119.7"/>
<text text-anchor="start" x="591.5" y="-125.8" font-family="Helvetica,sans-Serif" font-size="11.00" fill="#000000">&lt; 1</text>
<polygon fill="#ffffff" stroke="transparent" points="636.5,-119.7 636.5,-138.7 661.5,-138.7 661.5,-119.7 636.5,-119.7"/>
<polygon fill="none" stroke="#000000" points="636.5,-119.7 636.5,-138.7 661.5,-138.7 661.5,-119.7 636.5,-119.7"/>
<text text-anchor="start" x="652.3862" y="-125.8" font-family="Helvetica,sans-Serif" font-size="11.00" fill="#000000"> &#160;</text>
<polygon fill="#ffffff" stroke="transparent" points="661.5,-119.7 661.5,-138.7 687.5,-138.7 687.5,-119.7 661.5,-119.7"/>
<polygon fill="none" stroke="#000000" points="661.5,-119.7 661.5,-138.7 687.5,-138.7 687.5,-119.7 661.5,-119.7"/>
<text text-anchor="start" x="678.3862" y="-125.8" font-family="Helvetica,sans-Serif" font-size="11.00" fill="#000000"> &#160;</text>
</a>
</g>
</g>
<!-- evidence&#45;&gt;draft_adjudications -->
<g id="edge6" class="edge">
<title>evidence:w&#45;&gt;draft_adjudications:e</title>
<path fill="none" stroke="#000000" d="M574.085,-147.9965C533.3294,-149.8336 515.3688,-160.6509 482,-192.7 451.5293,-221.9656 483.7485,-278.7 441.5,-278.7"/>
<polygon fill="#000000" stroke="#000000" points="580.5017,-147.8646 588.5741,-151.2992 584.5008,-147.7823 588.5,-147.7 588.5,-147.7 588.5,-147.7 584.5008,-147.7823 588.4259,-144.1008 580.5017,-147.8646 580.5017,-147.8646"/>
<ellipse fill="none" stroke="#000000" cx="577.3024" cy="-147.9304" rx="3.2" ry="3.2"/>
</g>
<!-- witness -->
<g id="node9" class="node">
<title>witness</title>
<g id="a_node9"><a xlink:href="../../tables/witness.html" xlink:title="witness" target="_top">
<polygon fill="#ffffff" stroke="transparent" points="592.5,-38.2 592.5,-99.2 682.5,-99.2 682.5,-38.2 592.5,-38.2"/>
<polygon fill="#f5f5f5" stroke="transparent" points="592.5,-75.7 592.5,-98.7 682.5,-98.7 682.5,-75.7 592.5,-75.7"/>
<polygon fill="none" stroke="#000000" points="592.5,-75.7 592.5,-98.7 682.5,-98.7 682.5,-75.7 592.5,-75.7"/>
<text text-anchor="start" x="597.5" y="-84.3" font-family="Helvetica,sans-Serif" font-weight="bold" font-size="11.00" fill="#000000">witness</text>
<text text-anchor="start" x="648.0219" y="-83.8" font-family="Helvetica,sans-Serif" font-size="11.00" fill="#000000">[table]</text>
<polygon fill="none" stroke="#000000" points="592.5,-56.7 592.5,-75.7 682.5,-75.7 682.5,-56.7 592.5,-56.7"/>
<text text-anchor="start" x="595.5" y="-62.8" font-family="Helvetica,sans-Serif" font-size="11.00" fill="#000000">...</text>
<polygon fill="#ffffff" stroke="transparent" points="592.5,-37.7 592.5,-56.7 635.5,-56.7 635.5,-37.7 592.5,-37.7"/>
<polygon fill="none" stroke="#000000" points="592.5,-37.7 592.5,-56.7 635.5,-56.7 635.5,-37.7 592.5,-37.7"/>
<text text-anchor="start" x="595.5" y="-43.8" font-family="Helvetica,sans-Serif" font-size="11.00" fill="#000000">&lt; 1</text>
<polygon fill="#ffffff" stroke="transparent" points="635.5,-37.7 635.5,-56.7 658.5,-56.7 658.5,-37.7 635.5,-37.7"/>
<polygon fill="none" stroke="#000000" points="635.5,-37.7 635.5,-56.7 658.5,-56.7 658.5,-37.7 635.5,-37.7"/>
<text text-anchor="start" x="649.3862" y="-43.8" font-family="Helvetica,sans-Serif" font-size="11.00" fill="#000000"> &#160;</text>
<polygon fill="#ffffff" stroke="transparent" points="658.5,-37.7 658.5,-56.7 682.5,-56.7 682.5,-37.7 658.5,-37.7"/>
<polygon fill="none" stroke="#000000" points="658.5,-37.7 658.5,-56.7 682.5,-56.7 682.5,-37.7 658.5,-37.7"/>
<text text-anchor="start" x="673.3862" y="-43.8" font-family="Helvetica,sans-Serif" font-size="11.00" fill="#000000"> &#160;</text>
</a>
</g>
</g>
<!-- witness&#45;&gt;draft_adjudications -->
<g id="edge8" class="edge">
<title>witness:w&#45;&gt;draft_adjudications:e</title>
<path fill="none" stroke="#000000" d="M577.8279,-65.8451C535.0283,-66.8305 513.2194,-73.6368 482,-109.7 431.4473,-168.0961 518.7378,-278.7 441.5,-278.7"/>
<polygon fill="#000000" stroke="#000000" points="584.5004,-65.7792 592.5356,-69.2998 588.5002,-65.7396 592.5,-65.7 592.5,-65.7 592.5,-65.7 588.5002,-65.7396 592.4644,-62.1002 584.5004,-65.7792 584.5004,-65.7792"/>
<ellipse fill="none" stroke="#000000" cx="581.3005" cy="-65.8108" rx="3.2" ry="3.2"/>
</g>
</g>
</svg>
