<?xml version="1.0" encoding="UTF-8" standalone="no"?>
<!DOCTYPE svg PUBLIC "-//W3C//DTD SVG 1.1//EN"
 "http://www.w3.org/Graphics/SVG/1.1/DTD/svg11.dtd">
<!-- Generated by graphviz version 2.40.1 (20161225.0304)
 -->
<!-- Title: oneDegreeRelationshipsDiagram Pages: 1 -->
<svg width="882pt" height="337pt"
 viewBox="0.00 0.00 882.00 336.70" xmlns="http://www.w3.org/2000/svg" xmlns:xlink="http://www.w3.org/1999/xlink">
<g id="graph0" class="graph" transform="scale(1 1) rotate(0) translate(4 332.7)">
<title>oneDegreeRelationshipsDiagram</title>
<polygon fill="#ffffff" stroke="transparent" points="-4,4 -4,-332.7 878,-332.7 878,4 -4,4"/>
<text text-anchor="middle" x="72.4936" y="-7.3" font-family="Helvetica,sans-Serif" font-size="11.00" fill="#000000">Generated by SchemaSpy</text>
<!-- draft_protected_characteristics -->
<g id="node1" class="node">
<title>draft_protected_characteristics</title>
<g id="a_node1"><a xlink:href="../../tables/draft_protected_characteristics.html" xlink:title="draft_protected_characteristics" target="_top">
<polygon fill="#ffffff" stroke="transparent" points="616,-219.7 616,-324.7 866,-324.7 866,-219.7 616,-219.7"/>
<polygon fill="#f5f5f5" stroke="transparent" points="616,-301.2 616,-324.2 866,-324.2 866,-301.2 616,-301.2"/>
<polygon fill="none" stroke="#000000" points="616,-301.2 616,-324.2 866,-324.2 866,-301.2 616,-301.2"/>
<text text-anchor="start" x="621" y="-309.8" font-family="Helvetica,sans-Serif" font-weight="bold" font-size="11.00" fill="#000000">draft_protected_characteristics</text>
<text text-anchor="start" x="831.5219" y="-309.3" font-family="Helvetica,sans-Serif" font-size="11.00" fill="#000000">[table]</text>
<polygon fill="none" stroke="#000000" points="616,-279.2 616,-301.2 866,-301.2 866,-279.2 616,-279.2"/>
<image xlink:href="../../images/primaryKeys.png" width="11px" height="12px" preserveAspectRatio="xMinYMin meet" x="621" y="-296.2"/>
<text text-anchor="start" x="645" y="-286.3" font-family="Helvetica,sans-Serif" font-size="11.00" fill="#000000">id</text>
<polygon fill="#ffffff" stroke="transparent" points="616,-257.2 616,-279.2 866,-279.2 866,-257.2 616,-257.2"/>
<polygon fill="none" stroke="#000000" points="616,-257.2 616,-279.2 866,-279.2 866,-257.2 616,-257.2"/>
<image xlink:href="../../images/foreignKeys.png" width="11px" height="12px" preserveAspectRatio="xMinYMin meet" x="621" y="-274.2"/>
<text text-anchor="start" x="645" y="-264.3" font-family="Helvetica,sans-Serif" font-size="11.00" fill="#000000">offence_fk_id</text>
<polygon fill="none" stroke="#000000" points="616,-238.2 616,-257.2 866,-257.2 866,-238.2 616,-238.2"/>
<text text-anchor="start" x="619" y="-244.3" font-family="Helvetica,sans-Serif" font-size="11.00" fill="#000000">...</text>
<polygon fill="#ffffff" stroke="transparent" points="616,-219.2 616,-238.2 739,-238.2 739,-219.2 616,-219.2"/>
<polygon fill="none" stroke="#000000" points="616,-219.2 616,-238.2 739,-238.2 739,-219.2 616,-219.2"/>
<text text-anchor="start" x="619" y="-225.3" font-family="Helvetica,sans-Serif" font-size="11.00" fill="#000000">&lt; 1</text>
<polygon fill="#ffffff" stroke="transparent" points="739,-219.2 739,-238.2 802,-238.2 802,-219.2 739,-219.2"/>
<polygon fill="none" stroke="#000000" points="739,-219.2 739,-238.2 802,-238.2 802,-219.2 739,-219.2"/>
<text text-anchor="start" x="792.8862" y="-225.3" font-family="Helvetica,sans-Serif" font-size="11.00" fill="#000000"> &#160;</text>
<polygon fill="#ffffff" stroke="transparent" points="802,-219.2 802,-238.2 866,-238.2 866,-219.2 802,-219.2"/>
<polygon fill="none" stroke="#000000" points="802,-219.2 802,-238.2 866,-238.2 866,-219.2 802,-219.2"/>
<text text-anchor="start" x="856.8862" y="-225.3" font-family="Helvetica,sans-Serif" font-size="11.00" fill="#000000"> &#160;</text>
</a>
</g>
</g>
<!-- offence -->
<g id="node2" class="node">
<title>offence</title>
<g id="a_node2"><a xlink:href="../../tables/offence.html" xlink:title="offence" target="_top">
<polygon fill="#ffffff" stroke="transparent" points="272,-38.2 272,-304.2 567,-304.2 567,-38.2 272,-38.2"/>
<polygon fill="#f5f5f5" stroke="transparent" points="274.5,-279.2 274.5,-302.2 565.5,-302.2 565.5,-279.2 274.5,-279.2"/>
<polygon fill="none" stroke="#000000" points="274.5,-279.2 274.5,-302.2 565.5,-302.2 565.5,-279.2 274.5,-279.2"/>
<text text-anchor="start" x="279.5" y="-287.8" font-family="Helvetica,sans-Serif" font-weight="bold" font-size="11.00" fill="#000000">offence</text>
<text text-anchor="start" x="530.5437" y="-287.3" font-family="Helvetica,sans-Serif" font-size="11.00" fill="#000000">[table]</text>
<polygon fill="none" stroke="#000000" points="274.5,-257.2 274.5,-279.2 481.5,-279.2 481.5,-257.2 274.5,-257.2"/>
<image xlink:href="../../images/primaryKeys.png" width="11px" height="12px" preserveAspectRatio="xMinYMin meet" x="279.5" y="-274.2"/>
<text text-anchor="start" x="294.5" y="-264.3" font-family="Helvetica,sans-Serif" font-size="11.00" fill="#000000">id</text>
<polygon fill="none" stroke="#000000" points="481.5,-257.2 481.5,-279.2 565.5,-279.2 565.5,-257.2 481.5,-257.2"/>
<text text-anchor="start" x="484.5" y="-264.9" font-family="Helvetica,sans-Serif" font-size="11.00" fill="#000000">serial[10]</text>
<polygon fill="#ffffff" stroke="transparent" points="274.5,-235.2 274.5,-257.2 481.5,-257.2 481.5,-235.2 274.5,-235.2"/>
<polygon fill="none" stroke="#000000" points="274.5,-235.2 274.5,-257.2 481.5,-257.2 481.5,-235.2 274.5,-235.2"/>
<image xlink:href="../../images/foreignKeys.png" width="11px" height="12px" preserveAspectRatio="xMinYMin meet" x="279.5" y="-252.2"/>
<text text-anchor="start" x="294.5" y="-242.3" font-family="Helvetica,sans-Serif" font-size="11.00" fill="#000000">draft_adjudication_fk_id</text>
<polygon fill="none" stroke="#000000" points="481.5,-235.2 481.5,-257.2 565.5,-257.2 565.5,-235.2 481.5,-235.2"/>
<text text-anchor="start" x="484.5" y="-242.9" font-family="Helvetica,sans-Serif" font-size="11.00" fill="#000000">int8[19]</text>
<polygon fill="none" stroke="#000000" points="274.5,-213.2 274.5,-235.2 481.5,-235.2 481.5,-213.2 274.5,-213.2"/>
<text text-anchor="start" x="294.5" y="-220.3" font-family="Helvetica,sans-Serif" font-size="11.00" fill="#000000">offence_code</text>
<polygon fill="none" stroke="#000000" points="481.5,-213.2 481.5,-235.2 565.5,-235.2 565.5,-213.2 481.5,-213.2"/>
<text text-anchor="start" x="484.5" y="-220.9" font-family="Helvetica,sans-Serif" font-size="11.00" fill="#000000">int4[10]</text>
<polygon fill="#ffffff" stroke="transparent" points="274.5,-191.2 274.5,-213.2 481.5,-213.2 481.5,-191.2 274.5,-191.2"/>
<polygon fill="none" stroke="#000000" points="274.5,-191.2 274.5,-213.2 481.5,-213.2 481.5,-191.2 274.5,-191.2"/>
<text text-anchor="start" x="294.5" y="-198.3" font-family="Helvetica,sans-Serif" font-size="11.00" fill="#000000">victim_prisoners_number</text>
<polygon fill="none" stroke="#000000" points="481.5,-191.2 481.5,-213.2 565.5,-213.2 565.5,-191.2 481.5,-191.2"/>
<text text-anchor="start" x="484.5" y="-198.9" font-family="Helvetica,sans-Serif" font-size="11.00" fill="#000000">varchar[7]</text>
<polygon fill="none" stroke="#000000" points="274.5,-169.2 274.5,-191.2 481.5,-191.2 481.5,-169.2 274.5,-169.2"/>
<text text-anchor="start" x="294.5" y="-176.3" font-family="Helvetica,sans-Serif" font-size="11.00" fill="#000000">create_user_id</text>
<polygon fill="none" stroke="#000000" points="481.5,-169.2 481.5,-191.2 565.5,-191.2 565.5,-169.2 481.5,-169.2"/>
<text text-anchor="start" x="484.5" y="-176.9" font-family="Helvetica,sans-Serif" font-size="11.00" fill="#000000">varchar[32]</text>
<polygon fill="none" stroke="#000000" points="274.5,-147.2 274.5,-169.2 481.5,-169.2 481.5,-147.2 274.5,-147.2"/>
<text text-anchor="start" x="294.5" y="-154.3" font-family="Helvetica,sans-Serif" font-size="11.00" fill="#000000">create_datetime</text>
<polygon fill="none" stroke="#000000" points="481.5,-147.2 481.5,-169.2 565.5,-169.2 565.5,-147.2 481.5,-147.2"/>
<text text-anchor="start" x="484.3807" y="-154.9" font-family="Helvetica,sans-Serif" font-size="11.00" fill="#000000">timestamp[29,6]</text>
<polygon fill="none" stroke="#000000" points="274.5,-125.2 274.5,-147.2 481.5,-147.2 481.5,-125.2 274.5,-125.2"/>
<text text-anchor="start" x="294.5" y="-132.3" font-family="Helvetica,sans-Serif" font-size="11.00" fill="#000000">modify_user_id</text>
<polygon fill="none" stroke="#000000" points="481.5,-125.2 481.5,-147.2 565.5,-147.2 565.5,-125.2 481.5,-125.2"/>
<text text-anchor="start" x="484.5" y="-132.9" font-family="Helvetica,sans-Serif" font-size="11.00" fill="#000000">varchar[32]</text>
<polygon fill="none" stroke="#000000" points="274.5,-103.2 274.5,-125.2 481.5,-125.2 481.5,-103.2 274.5,-103.2"/>
<text text-anchor="start" x="294.5" y="-110.3" font-family="Helvetica,sans-Serif" font-size="11.00" fill="#000000">modify_datetime</text>
<polygon fill="none" stroke="#000000" points="481.5,-103.2 481.5,-125.2 565.5,-125.2 565.5,-103.2 481.5,-103.2"/>
<text text-anchor="start" x="484.3807" y="-110.9" font-family="Helvetica,sans-Serif" font-size="11.00" fill="#000000">timestamp[29,6]</text>
<polygon fill="none" stroke="#000000" points="274.5,-81.2 274.5,-103.2 481.5,-103.2 481.5,-81.2 274.5,-81.2"/>
<text text-anchor="start" x="294.5" y="-88.3" font-family="Helvetica,sans-Serif" font-size="11.00" fill="#000000">victim_staff_username</text>
<polygon fill="none" stroke="#000000" points="481.5,-81.2 481.5,-103.2 565.5,-103.2 565.5,-81.2 481.5,-81.2"/>
<text text-anchor="start" x="484.5" y="-88.9" font-family="Helvetica,sans-Serif" font-size="11.00" fill="#000000">varchar[30]</text>
<polygon fill="none" stroke="#000000" points="274.5,-59.2 274.5,-81.2 481.5,-81.2 481.5,-59.2 274.5,-59.2"/>
<text text-anchor="start" x="294.5" y="-66.3" font-family="Helvetica,sans-Serif" font-size="11.00" fill="#000000">victim_other_persons_name</text>
<polygon fill="none" stroke="#000000" points="481.5,-59.2 481.5,-81.2 565.5,-81.2 565.5,-59.2 481.5,-59.2"/>
<text text-anchor="start" x="484.5" y="-66.9" font-family="Helvetica,sans-Serif" font-size="11.00" fill="#000000">varchar[100]</text>
<polygon fill="#ffffff" stroke="transparent" points="274.5,-40.2 274.5,-59.2 382.5,-59.2 382.5,-40.2 274.5,-40.2"/>
<polygon fill="none" stroke="#000000" points="274.5,-40.2 274.5,-59.2 382.5,-59.2 382.5,-40.2 274.5,-40.2"/>
<text text-anchor="start" x="277.5" y="-46.3" font-family="Helvetica,sans-Serif" font-size="11.00" fill="#000000">&lt; 1</text>
<polygon fill="#ffffff" stroke="transparent" points="382.5,-40.2 382.5,-59.2 481.5,-59.2 481.5,-40.2 382.5,-40.2"/>
<polygon fill="none" stroke="#000000" points="382.5,-40.2 382.5,-59.2 481.5,-59.2 481.5,-40.2 382.5,-40.2"/>
<text text-anchor="start" x="472.3862" y="-46.3" font-family="Helvetica,sans-Serif" font-size="11.00" fill="#000000"> &#160;</text>
<polygon fill="#ffffff" stroke="transparent" points="481.5,-40.2 481.5,-59.2 565.5,-59.2 565.5,-40.2 481.5,-40.2"/>
<polygon fill="none" stroke="#000000" points="481.5,-40.2 481.5,-59.2 565.5,-59.2 565.5,-40.2 481.5,-40.2"/>
<text text-anchor="start" x="546.9053" y="-46.3" font-family="Helvetica,sans-Serif" font-size="11.00" fill="#000000">1 &gt;</text>
<polygon fill="none" stroke="#000000" stroke-width="2" points="273,-39.2 273,-303.2 566,-303.2 566,-39.2 273,-39.2"/>
</a>
</g>
</g>
<!-- draft_protected_characteristics&#45;&gt;offence -->
<g id="edge1" class="edge">
<title>draft_protected_characteristics:w&#45;&gt;offence:e</title>
<path fill="none" stroke="#000000" d="M601.4203,-268.2C589.5435,-268.2 582.158,-268.2 565.5,-268.2"/>
<polygon fill="#000000" stroke="#000000" points="608,-268.2001 616,-271.8 612,-268.2 616,-268.2 616,-268.2 616,-268.2 612,-268.2 616,-264.6 608,-268.2001 608,-268.2001"/>
<ellipse fill="none" stroke="#000000" cx="604.8" cy="-268.2001" rx="3.2" ry="3.2"/>
</g>
<!-- draft_adjudications -->
<g id="node3" class="node">
<title>draft_adjudications</title>
<g id="a_node3"><a xlink:href="../../tables/draft_adjudications.html" xlink:title="draft_adjudications" target="_top">
<polygon fill="#ffffff" stroke="transparent" points="8,-109.7 8,-280.7 223,-280.7 223,-109.7 8,-109.7"/>
<polygon fill="#f5f5f5" stroke="transparent" points="8.5,-257.2 8.5,-280.2 223.5,-280.2 223.5,-257.2 8.5,-257.2"/>
<polygon fill="none" stroke="#000000" points="8.5,-257.2 8.5,-280.2 223.5,-280.2 223.5,-257.2 8.5,-257.2"/>
<text text-anchor="start" x="13.5" y="-265.8" font-family="Helvetica,sans-Serif" font-weight="bold" font-size="11.00" fill="#000000">draft_adjudications</text>
<text text-anchor="start" x="188.5437" y="-265.3" font-family="Helvetica,sans-Serif" font-size="11.00" fill="#000000">[table]</text>
<polygon fill="none" stroke="#000000" points="8.5,-235.2 8.5,-257.2 223.5,-257.2 223.5,-235.2 8.5,-235.2"/>
<image xlink:href="../../images/primaryKeys.png" width="11px" height="12px" preserveAspectRatio="xMinYMin meet" x="13.5" y="-252.2"/>
<text text-anchor="start" x="28.5" y="-242.3" font-family="Helvetica,sans-Serif" font-size="11.00" fill="#000000">id</text>
<polygon fill="#ffffff" stroke="transparent" points="8.5,-213.2 8.5,-235.2 223.5,-235.2 223.5,-213.2 8.5,-213.2"/>
<polygon fill="none" stroke="#000000" points="8.5,-213.2 8.5,-235.2 223.5,-235.2 223.5,-213.2 8.5,-213.2"/>
<text text-anchor="start" x="28.5" y="-220.3" font-family="Helvetica,sans-Serif" font-size="11.00" fill="#000000">prisoner_number</text>
<polygon fill="#ffffff" stroke="transparent" points="8.5,-191.2 8.5,-213.2 223.5,-213.2 223.5,-191.2 8.5,-191.2"/>
<polygon fill="none" stroke="#000000" points="8.5,-191.2 8.5,-213.2 223.5,-213.2 223.5,-191.2 8.5,-191.2"/>
<image xlink:href="../../images/foreignKeys.png" width="11px" height="12px" preserveAspectRatio="xMinYMin meet" x="13.5" y="-208.2"/>
<text text-anchor="start" x="28.5" y="-198.3" font-family="Helvetica,sans-Serif" font-size="11.00" fill="#000000">incident_details_id</text>
<polygon fill="#ffffff" stroke="transparent" points="8.5,-169.2 8.5,-191.2 223.5,-191.2 223.5,-169.2 8.5,-169.2"/>
<polygon fill="none" stroke="#000000" points="8.5,-169.2 8.5,-191.2 223.5,-191.2 223.5,-169.2 8.5,-169.2"/>
<image xlink:href="../../images/foreignKeys.png" width="11px" height="12px" preserveAspectRatio="xMinYMin meet" x="13.5" y="-186.2"/>
<text text-anchor="start" x="28.5" y="-176.3" font-family="Helvetica,sans-Serif" font-size="11.00" fill="#000000">incident_statement_id</text>
<polygon fill="#ffffff" stroke="transparent" points="8.5,-147.2 8.5,-169.2 223.5,-169.2 223.5,-147.2 8.5,-147.2"/>
<polygon fill="none" stroke="#000000" points="8.5,-147.2 8.5,-169.2 223.5,-169.2 223.5,-147.2 8.5,-147.2"/>
<image xlink:href="../../images/foreignKeys.png" width="11px" height="12px" preserveAspectRatio="xMinYMin meet" x="13.5" y="-164.2"/>
<text text-anchor="start" x="28.5" y="-154.3" font-family="Helvetica,sans-Serif" font-size="11.00" fill="#000000">incident_role_id</text>
<polygon fill="none" stroke="#000000" points="8.5,-128.2 8.5,-147.2 223.5,-147.2 223.5,-128.2 8.5,-128.2"/>
<text text-anchor="start" x="11.5" y="-134.3" font-family="Helvetica,sans-Serif" font-size="11.00" fill="#000000">...</text>
<polygon fill="#ffffff" stroke="transparent" points="8.5,-109.2 8.5,-128.2 109.5,-128.2 109.5,-109.2 8.5,-109.2"/>
<polygon fill="none" stroke="#000000" points="8.5,-109.2 8.5,-128.2 109.5,-128.2 109.5,-109.2 8.5,-109.2"/>
<text text-anchor="start" x="11.5" y="-115.3" font-family="Helvetica,sans-Serif" font-size="11.00" fill="#000000">&lt; 3</text>
<polygon fill="#ffffff" stroke="transparent" points="109.5,-109.2 109.5,-128.2 161.5,-128.2 161.5,-109.2 109.5,-109.2"/>
<polygon fill="none" stroke="#000000" points="109.5,-109.2 109.5,-128.2 161.5,-128.2 161.5,-109.2 109.5,-109.2"/>
<text text-anchor="start" x="152.3862" y="-115.3" font-family="Helvetica,sans-Serif" font-size="11.00" fill="#000000"> &#160;</text>
<polygon fill="#ffffff" stroke="transparent" points="161.5,-109.2 161.5,-128.2 223.5,-128.2 223.5,-109.2 161.5,-109.2"/>
<polygon fill="none" stroke="#000000" points="161.5,-109.2 161.5,-128.2 223.5,-128.2 223.5,-109.2 161.5,-109.2"/>
<text text-anchor="start" x="204.9053" y="-115.3" font-family="Helvetica,sans-Serif" font-size="11.00" fill="#000000">4 &gt;</text>
</a>
</g>
</g>
<!-- offence&#45;&gt;draft_adjudications -->
<g id="edge2" class="edge">
<title>offence:w&#45;&gt;draft_adjudications:e</title>
<path fill="none" stroke="#000000" d="M259.776,-246.2C247.7815,-246.2 240.3229,-246.2 223.5,-246.2"/>
<polygon fill="#000000" stroke="#000000" points="266.5,-246.2001 274.5,-249.8 270.5,-246.2 274.5,-246.2 274.5,-246.2 274.5,-246.2 270.5,-246.2 274.5,-242.6 266.5,-246.2001 266.5,-246.2001"/>
<ellipse fill="none" stroke="#000000" cx="263.3" cy="-246.2001" rx="3.2" ry="3.2"/>
</g>
</g>
</svg>
