<?xml version="1.0" encoding="UTF-8" standalone="no"?>
<!DOCTYPE svg PUBLIC "-//W3C//DTD SVG 1.1//EN"
 "http://www.w3.org/Graphics/SVG/1.1/DTD/svg11.dtd">
<!-- Generated by graphviz version 2.40.1 (20161225.0304)
 -->
<!-- Title: twoDegreesRelationshipsDiagram Pages: 1 -->
<svg width="683pt" height="1083pt"
 viewBox="0.00 0.00 683.00 1083.20" xmlns="http://www.w3.org/2000/svg" xmlns:xlink="http://www.w3.org/1999/xlink">
<g id="graph0" class="graph" transform="scale(1 1) rotate(0) translate(4 1079.2)">
<title>twoDegreesRelationshipsDiagram</title>
<polygon fill="#ffffff" stroke="transparent" points="-4,4 -4,-1079.2 679,-1079.2 679,4 -4,4"/>
<text text-anchor="middle" x="72.4936" y="-7.3" font-family="Helvetica,sans-Serif" font-size="11.00" fill="#000000">Generated by SchemaSpy</text>
<!-- dis_issue_history -->
<g id="node1" class="node">
<title>dis_issue_history</title>
<g id="a_node1"><a xlink:href="../../tables/dis_issue_history.html" xlink:title="dis_issue_history" target="_top">
<polygon fill="#ffffff" stroke="transparent" points="442.5,-1010.2 442.5,-1071.2 595.5,-1071.2 595.5,-1010.2 442.5,-1010.2"/>
<polygon fill="#f5f5f5" stroke="transparent" points="443,-1047.7 443,-1070.7 596,-1070.7 596,-1047.7 443,-1047.7"/>
<polygon fill="none" stroke="#000000" points="443,-1047.7 443,-1070.7 596,-1070.7 596,-1047.7 443,-1047.7"/>
<text text-anchor="start" x="448" y="-1056.3" font-family="Helvetica,sans-Serif" font-weight="bold" font-size="11.00" fill="#000000">dis_issue_history</text>
<text text-anchor="start" x="561.5219" y="-1055.8" font-family="Helvetica,sans-Serif" font-size="11.00" fill="#000000">[table]</text>
<polygon fill="none" stroke="#000000" points="443,-1028.7 443,-1047.7 596,-1047.7 596,-1028.7 443,-1028.7"/>
<text text-anchor="start" x="446" y="-1034.8" font-family="Helvetica,sans-Serif" font-size="11.00" fill="#000000">...</text>
<polygon fill="#ffffff" stroke="transparent" points="443,-1009.7 443,-1028.7 518,-1028.7 518,-1009.7 443,-1009.7"/>
<polygon fill="none" stroke="#000000" points="443,-1009.7 443,-1028.7 518,-1028.7 518,-1009.7 443,-1009.7"/>
<text text-anchor="start" x="446" y="-1015.8" font-family="Helvetica,sans-Serif" font-size="11.00" fill="#000000">&lt; 1</text>
<polygon fill="#ffffff" stroke="transparent" points="518,-1009.7 518,-1028.7 557,-1028.7 557,-1009.7 518,-1009.7"/>
<polygon fill="none" stroke="#000000" points="518,-1009.7 518,-1028.7 557,-1028.7 557,-1009.7 518,-1009.7"/>
<text text-anchor="start" x="547.8862" y="-1015.8" font-family="Helvetica,sans-Serif" font-size="11.00" fill="#000000"> &#160;</text>
<polygon fill="#ffffff" stroke="transparent" points="557,-1009.7 557,-1028.7 596,-1028.7 596,-1009.7 557,-1009.7"/>
<polygon fill="none" stroke="#000000" points="557,-1009.7 557,-1028.7 596,-1028.7 596,-1009.7 557,-1009.7"/>
<text text-anchor="start" x="586.8862" y="-1015.8" font-family="Helvetica,sans-Serif" font-size="11.00" fill="#000000"> &#160;</text>
</a>
</g>
</g>
<!-- reported_adjudications -->
<g id="node2" class="node">
<title>reported_adjudications</title>
<g id="a_node2"><a xlink:href="../../tables/reported_adjudications.html" xlink:title="reported_adjudications" target="_top">
<polygon fill="#ffffff" stroke="transparent" points="8,-103.2 8,-428.2 322,-428.2 322,-103.2 8,-103.2"/>
<polygon fill="#f5f5f5" stroke="transparent" points="8,-404.7 8,-427.7 322,-427.7 322,-404.7 8,-404.7"/>
<polygon fill="none" stroke="#000000" points="8,-404.7 8,-427.7 322,-427.7 322,-404.7 8,-404.7"/>
<text text-anchor="start" x="13" y="-413.3" font-family="Helvetica,sans-Serif" font-weight="bold" font-size="11.00" fill="#000000">reported_adjudications</text>
<text text-anchor="start" x="287.0437" y="-412.8" font-family="Helvetica,sans-Serif" font-size="11.00" fill="#000000">[table]</text>
<polygon fill="none" stroke="#000000" points="8,-382.7 8,-404.7 322,-404.7 322,-382.7 8,-382.7"/>
<image xlink:href="../../images/primaryKeys.png" width="11px" height="12px" preserveAspectRatio="xMinYMin meet" x="13" y="-399.7"/>
<text text-anchor="start" x="28" y="-389.8" font-family="Helvetica,sans-Serif" font-size="11.00" fill="#000000">id</text>
<polygon fill="#ffffff" stroke="transparent" points="8,-360.7 8,-382.7 322,-382.7 322,-360.7 8,-360.7"/>
<polygon fill="none" stroke="#000000" points="8,-360.7 8,-382.7 322,-382.7 322,-360.7 8,-360.7"/>
<text text-anchor="start" x="28" y="-367.8" font-family="Helvetica,sans-Serif" font-size="11.00" fill="#000000">prisoner_number</text>
<polygon fill="#ffffff" stroke="transparent" points="8,-338.7 8,-360.7 322,-360.7 322,-338.7 8,-338.7"/>
<polygon fill="none" stroke="#000000" points="8,-338.7 8,-360.7 322,-360.7 322,-338.7 8,-338.7"/>
<text text-anchor="start" x="28" y="-345.8" font-family="Helvetica,sans-Serif" font-size="11.00" fill="#000000">charge_number</text>
<polygon fill="#ffffff" stroke="transparent" points="8,-316.7 8,-338.7 322,-338.7 322,-316.7 8,-316.7"/>
<polygon fill="none" stroke="#000000" points="8,-316.7 8,-338.7 322,-338.7 322,-316.7 8,-316.7"/>
<text text-anchor="start" x="28" y="-323.8" font-family="Helvetica,sans-Serif" font-size="11.00" fill="#000000">originating_agency_id</text>
<polygon fill="#ffffff" stroke="transparent" points="8,-294.7 8,-316.7 322,-316.7 322,-294.7 8,-294.7"/>
<polygon fill="none" stroke="#000000" points="8,-294.7 8,-316.7 322,-316.7 322,-294.7 8,-294.7"/>
<text text-anchor="start" x="28" y="-301.8" font-family="Helvetica,sans-Serif" font-size="11.00" fill="#000000">create_user_id</text>
<polygon fill="#ffffff" stroke="transparent" points="8,-272.7 8,-294.7 322,-294.7 322,-272.7 8,-272.7"/>
<polygon fill="none" stroke="#000000" points="8,-272.7 8,-294.7 322,-294.7 322,-272.7 8,-272.7"/>
<text text-anchor="start" x="28" y="-279.8" font-family="Helvetica,sans-Serif" font-size="11.00" fill="#000000">incident_role_associated_prisoners_number</text>
<polygon fill="#ffffff" stroke="transparent" points="8,-250.7 8,-272.7 322,-272.7 322,-250.7 8,-250.7"/>
<polygon fill="none" stroke="#000000" points="8,-250.7 8,-272.7 322,-272.7 322,-250.7 8,-250.7"/>
<text text-anchor="start" x="28" y="-257.8" font-family="Helvetica,sans-Serif" font-size="11.00" fill="#000000">status</text>
<polygon fill="#ffffff" stroke="transparent" points="8,-228.7 8,-250.7 322,-250.7 322,-228.7 8,-228.7"/>
<polygon fill="none" stroke="#000000" points="8,-228.7 8,-250.7 322,-250.7 322,-228.7 8,-228.7"/>
<text text-anchor="start" x="28" y="-235.8" font-family="Helvetica,sans-Serif" font-size="11.00" fill="#000000">date_time_of_discovery</text>
<polygon fill="#ffffff" stroke="transparent" points="8,-206.7 8,-228.7 322,-228.7 322,-206.7 8,-206.7"/>
<polygon fill="none" stroke="#000000" points="8,-206.7 8,-228.7 322,-228.7 322,-206.7 8,-206.7"/>
<text text-anchor="start" x="28" y="-213.8" font-family="Helvetica,sans-Serif" font-size="11.00" fill="#000000">date_time_of_first_hearing</text>
<polygon fill="#ffffff" stroke="transparent" points="8,-184.7 8,-206.7 322,-206.7 322,-184.7 8,-184.7"/>
<polygon fill="none" stroke="#000000" points="8,-184.7 8,-206.7 322,-206.7 322,-184.7 8,-184.7"/>
<text text-anchor="start" x="28" y="-191.8" font-family="Helvetica,sans-Serif" font-size="11.00" fill="#000000">override_agency_id</text>
<polygon fill="#ffffff" stroke="transparent" points="8,-162.7 8,-184.7 322,-184.7 322,-162.7 8,-162.7"/>
<polygon fill="none" stroke="#000000" points="8,-162.7 8,-184.7 322,-184.7 322,-162.7 8,-162.7"/>
<text text-anchor="start" x="28" y="-169.8" font-family="Helvetica,sans-Serif" font-size="11.00" fill="#000000">migrated</text>
<polygon fill="#ffffff" stroke="transparent" points="8,-140.7 8,-162.7 322,-162.7 322,-140.7 8,-140.7"/>
<polygon fill="none" stroke="#000000" points="8,-140.7 8,-162.7 322,-162.7 322,-140.7 8,-140.7"/>
<text text-anchor="start" x="28" y="-147.8" font-family="Helvetica,sans-Serif" font-size="11.00" fill="#000000">offender_booking_id</text>
<polygon fill="none" stroke="#000000" points="8,-121.7 8,-140.7 322,-140.7 322,-121.7 8,-121.7"/>
<text text-anchor="start" x="11" y="-127.8" font-family="Helvetica,sans-Serif" font-size="11.00" fill="#000000">...</text>
<polygon fill="#ffffff" stroke="transparent" points="8,-102.7 8,-121.7 154,-121.7 154,-102.7 8,-102.7"/>
<polygon fill="none" stroke="#000000" points="8,-102.7 8,-121.7 154,-121.7 154,-102.7 8,-102.7"/>
<text text-anchor="start" x="11" y="-108.8" font-family="Helvetica,sans-Serif" font-size="11.00" fill="#000000"> &#160;</text>
<polygon fill="#ffffff" stroke="transparent" points="154,-102.7 154,-121.7 233,-121.7 233,-102.7 154,-102.7"/>
<polygon fill="none" stroke="#000000" points="154,-102.7 154,-121.7 233,-121.7 233,-102.7 154,-102.7"/>
<text text-anchor="start" x="223.8862" y="-108.8" font-family="Helvetica,sans-Serif" font-size="11.00" fill="#000000"> &#160;</text>
<polygon fill="#ffffff" stroke="transparent" points="233,-102.7 233,-121.7 322,-121.7 322,-102.7 233,-102.7"/>
<polygon fill="none" stroke="#000000" points="233,-102.7 233,-121.7 322,-121.7 322,-102.7 233,-102.7"/>
<text text-anchor="start" x="303.4053" y="-108.8" font-family="Helvetica,sans-Serif" font-size="11.00" fill="#000000">9 &gt;</text>
</a>
</g>
</g>
<!-- dis_issue_history&#45;&gt;reported_adjudications -->
<g id="edge1" class="edge">
<title>dis_issue_history:w&#45;&gt;reported_adjudications:e</title>
<path fill="none" stroke="#000000" d="M428.3633,-1037.3606C398.6603,-1035.773 382.2022,-1027.9218 363,-999.7 325.0359,-943.9034 389.4873,-393.7 322,-393.7"/>
<polygon fill="#000000" stroke="#000000" points="435.0021,-1037.5145 442.9165,-1041.299 439.0011,-1037.6072 443,-1037.7 443,-1037.7 443,-1037.7 439.0011,-1037.6072 443.0835,-1034.101 435.0021,-1037.5145 435.0021,-1037.5145"/>
<ellipse fill="none" stroke="#000000" cx="431.803" cy="-1037.4403" rx="3.2" ry="3.2"/>
</g>
<!-- hearing -->
<g id="node3" class="node">
<title>hearing</title>
<g id="a_node3"><a xlink:href="../../tables/hearing.html" xlink:title="hearing" target="_top">
<polygon fill="#ffffff" stroke="transparent" points="474,-928.2 474,-989.2 564,-989.2 564,-928.2 474,-928.2"/>
<polygon fill="#f5f5f5" stroke="transparent" points="474,-965.7 474,-988.7 564,-988.7 564,-965.7 474,-965.7"/>
<polygon fill="none" stroke="#000000" points="474,-965.7 474,-988.7 564,-988.7 564,-965.7 474,-965.7"/>
<text text-anchor="start" x="479" y="-974.3" font-family="Helvetica,sans-Serif" font-weight="bold" font-size="11.00" fill="#000000">hearing</text>
<text text-anchor="start" x="529.5219" y="-973.8" font-family="Helvetica,sans-Serif" font-size="11.00" fill="#000000">[table]</text>
<polygon fill="none" stroke="#000000" points="474,-946.7 474,-965.7 564,-965.7 564,-946.7 474,-946.7"/>
<text text-anchor="start" x="477" y="-952.8" font-family="Helvetica,sans-Serif" font-size="11.00" fill="#000000">...</text>
<polygon fill="#ffffff" stroke="transparent" points="474,-927.7 474,-946.7 517,-946.7 517,-927.7 474,-927.7"/>
<polygon fill="none" stroke="#000000" points="474,-927.7 474,-946.7 517,-946.7 517,-927.7 474,-927.7"/>
<text text-anchor="start" x="477" y="-933.8" font-family="Helvetica,sans-Serif" font-size="11.00" fill="#000000">&lt; 2</text>
<polygon fill="#ffffff" stroke="transparent" points="517,-927.7 517,-946.7 540,-946.7 540,-927.7 517,-927.7"/>
<polygon fill="none" stroke="#000000" points="517,-927.7 517,-946.7 540,-946.7 540,-927.7 517,-927.7"/>
<text text-anchor="start" x="530.8862" y="-933.8" font-family="Helvetica,sans-Serif" font-size="11.00" fill="#000000"> &#160;</text>
<polygon fill="#ffffff" stroke="transparent" points="540,-927.7 540,-946.7 564,-946.7 564,-927.7 540,-927.7"/>
<polygon fill="none" stroke="#000000" points="540,-927.7 540,-946.7 564,-946.7 564,-927.7 540,-927.7"/>
<text text-anchor="start" x="554.8862" y="-933.8" font-family="Helvetica,sans-Serif" font-size="11.00" fill="#000000"> &#160;</text>
</a>
</g>
</g>
<!-- hearing&#45;&gt;reported_adjudications -->
<g id="edge2" class="edge">
<title>hearing:w&#45;&gt;reported_adjudications:e</title>
<path fill="none" stroke="#000000" d="M459.4173,-955.7474C416.5528,-955.9031 391.8306,-954.8844 363,-917.7 327.2159,-871.5472 380.4002,-393.7 322,-393.7"/>
<polygon fill="#000000" stroke="#000000" points="466,-955.7261 474.0117,-959.3 470,-955.713 474,-955.7 474,-955.7 474,-955.7 470,-955.713 473.9883,-952.1 466,-955.7261 466,-955.7261"/>
<ellipse fill="none" stroke="#000000" cx="462.8001" cy="-955.7365" rx="3.2" ry="3.2"/>
</g>
<!-- outcome -->
<g id="node4" class="node">
<title>outcome</title>
<g id="a_node4"><a xlink:href="../../tables/outcome.html" xlink:title="outcome" target="_top">
<polygon fill="#ffffff" stroke="transparent" points="371,-530.7 371,-906.7 667,-906.7 667,-530.7 371,-530.7"/>
<polygon fill="#f5f5f5" stroke="transparent" points="373,-881.7 373,-904.7 665,-904.7 665,-881.7 373,-881.7"/>
<polygon fill="none" stroke="#000000" points="373,-881.7 373,-904.7 665,-904.7 665,-881.7 373,-881.7"/>
<text text-anchor="start" x="378" y="-890.3" font-family="Helvetica,sans-Serif" font-weight="bold" font-size="11.00" fill="#000000">outcome</text>
<text text-anchor="start" x="630.0437" y="-889.8" font-family="Helvetica,sans-Serif" font-size="11.00" fill="#000000">[table]</text>
<polygon fill="none" stroke="#000000" points="373,-859.7 373,-881.7 581,-881.7 581,-859.7 373,-859.7"/>
<image xlink:href="../../images/primaryKeys.png" width="11px" height="12px" preserveAspectRatio="xMinYMin meet" x="378" y="-876.7"/>
<text text-anchor="start" x="393" y="-866.8" font-family="Helvetica,sans-Serif" font-size="11.00" fill="#000000">id</text>
<polygon fill="none" stroke="#000000" points="581,-859.7 581,-881.7 665,-881.7 665,-859.7 581,-859.7"/>
<text text-anchor="start" x="584" y="-867.4" font-family="Helvetica,sans-Serif" font-size="11.00" fill="#000000">serial[10]</text>
<polygon fill="none" stroke="#000000" points="373,-837.7 373,-859.7 581,-859.7 581,-837.7 373,-837.7"/>
<text text-anchor="start" x="393" y="-844.8" font-family="Helvetica,sans-Serif" font-size="11.00" fill="#000000">code</text>
<polygon fill="none" stroke="#000000" points="581,-837.7 581,-859.7 665,-859.7 665,-837.7 581,-837.7"/>
<text text-anchor="start" x="584" y="-845.4" font-family="Helvetica,sans-Serif" font-size="11.00" fill="#000000">varchar[32]</text>
<polygon fill="none" stroke="#000000" points="373,-815.7 373,-837.7 581,-837.7 581,-815.7 373,-815.7"/>
<text text-anchor="start" x="393" y="-822.8" font-family="Helvetica,sans-Serif" font-size="11.00" fill="#000000">not_proceed_reason</text>
<polygon fill="none" stroke="#000000" points="581,-815.7 581,-837.7 665,-837.7 665,-815.7 581,-815.7"/>
<text text-anchor="start" x="584" y="-823.4" font-family="Helvetica,sans-Serif" font-size="11.00" fill="#000000">varchar[32]</text>
<polygon fill="none" stroke="#000000" points="373,-793.7 373,-815.7 581,-815.7 581,-793.7 373,-793.7"/>
<text text-anchor="start" x="393" y="-800.8" font-family="Helvetica,sans-Serif" font-size="11.00" fill="#000000">details</text>
<polygon fill="none" stroke="#000000" points="581,-793.7 581,-815.7 665,-815.7 665,-793.7 581,-793.7"/>
<text text-anchor="start" x="584" y="-801.4" font-family="Helvetica,sans-Serif" font-size="11.00" fill="#000000">varchar[4000]</text>
<polygon fill="none" stroke="#000000" points="373,-771.7 373,-793.7 581,-793.7 581,-771.7 373,-771.7"/>
<text text-anchor="start" x="393" y="-778.8" font-family="Helvetica,sans-Serif" font-size="11.00" fill="#000000">create_user_id</text>
<polygon fill="none" stroke="#000000" points="581,-771.7 581,-793.7 665,-793.7 665,-771.7 581,-771.7"/>
<text text-anchor="start" x="584" y="-779.4" font-family="Helvetica,sans-Serif" font-size="11.00" fill="#000000">varchar[32]</text>
<polygon fill="none" stroke="#000000" points="373,-749.7 373,-771.7 581,-771.7 581,-749.7 373,-749.7"/>
<text text-anchor="start" x="393" y="-756.8" font-family="Helvetica,sans-Serif" font-size="11.00" fill="#000000">create_datetime</text>
<polygon fill="none" stroke="#000000" points="581,-749.7 581,-771.7 665,-771.7 665,-749.7 581,-749.7"/>
<text text-anchor="start" x="583.8807" y="-757.4" font-family="Helvetica,sans-Serif" font-size="11.00" fill="#000000">timestamp[29,6]</text>
<polygon fill="none" stroke="#000000" points="373,-727.7 373,-749.7 581,-749.7 581,-727.7 373,-727.7"/>
<text text-anchor="start" x="393" y="-734.8" font-family="Helvetica,sans-Serif" font-size="11.00" fill="#000000">modify_user_id</text>
<polygon fill="none" stroke="#000000" points="581,-727.7 581,-749.7 665,-749.7 665,-727.7 581,-727.7"/>
<text text-anchor="start" x="584" y="-735.4" font-family="Helvetica,sans-Serif" font-size="11.00" fill="#000000">varchar[32]</text>
<polygon fill="none" stroke="#000000" points="373,-705.7 373,-727.7 581,-727.7 581,-705.7 373,-705.7"/>
<text text-anchor="start" x="393" y="-712.8" font-family="Helvetica,sans-Serif" font-size="11.00" fill="#000000">modify_datetime</text>
<polygon fill="none" stroke="#000000" points="581,-705.7 581,-727.7 665,-727.7 665,-705.7 581,-705.7"/>
<text text-anchor="start" x="583.8807" y="-713.4" font-family="Helvetica,sans-Serif" font-size="11.00" fill="#000000">timestamp[29,6]</text>
<polygon fill="#ffffff" stroke="transparent" points="373,-683.7 373,-705.7 581,-705.7 581,-683.7 373,-683.7"/>
<polygon fill="none" stroke="#000000" points="373,-683.7 373,-705.7 581,-705.7 581,-683.7 373,-683.7"/>
<image xlink:href="../../images/foreignKeys.png" width="11px" height="12px" preserveAspectRatio="xMinYMin meet" x="378" y="-700.7"/>
<text text-anchor="start" x="393" y="-690.8" font-family="Helvetica,sans-Serif" font-size="11.00" fill="#000000">reported_adjudication_fk_id</text>
<polygon fill="none" stroke="#000000" points="581,-683.7 581,-705.7 665,-705.7 665,-683.7 581,-683.7"/>
<text text-anchor="start" x="584" y="-691.4" font-family="Helvetica,sans-Serif" font-size="11.00" fill="#000000">int8[19]</text>
<polygon fill="none" stroke="#000000" points="373,-661.7 373,-683.7 581,-683.7 581,-661.7 373,-661.7"/>
<text text-anchor="start" x="393" y="-668.8" font-family="Helvetica,sans-Serif" font-size="11.00" fill="#000000">quashed_reason</text>
<polygon fill="none" stroke="#000000" points="581,-661.7 581,-683.7 665,-683.7 665,-661.7 581,-661.7"/>
<text text-anchor="start" x="584" y="-669.4" font-family="Helvetica,sans-Serif" font-size="11.00" fill="#000000">varchar[32]</text>
<polygon fill="none" stroke="#000000" points="373,-639.7 373,-661.7 581,-661.7 581,-639.7 373,-639.7"/>
<text text-anchor="start" x="393" y="-646.8" font-family="Helvetica,sans-Serif" font-size="11.00" fill="#000000">oic_hearing_id</text>
<polygon fill="none" stroke="#000000" points="581,-639.7 581,-661.7 665,-661.7 665,-639.7 581,-639.7"/>
<text text-anchor="start" x="584" y="-647.4" font-family="Helvetica,sans-Serif" font-size="11.00" fill="#000000">int8[19]</text>
<polygon fill="none" stroke="#000000" points="373,-617.7 373,-639.7 581,-639.7 581,-617.7 373,-617.7"/>
<text text-anchor="start" x="393" y="-624.8" font-family="Helvetica,sans-Serif" font-size="11.00" fill="#000000">deleted</text>
<polygon fill="none" stroke="#000000" points="581,-617.7 581,-639.7 665,-639.7 665,-617.7 581,-617.7"/>
<text text-anchor="start" x="584" y="-625.4" font-family="Helvetica,sans-Serif" font-size="11.00" fill="#000000">bool[1]</text>
<polygon fill="none" stroke="#000000" points="373,-595.7 373,-617.7 581,-617.7 581,-595.7 373,-595.7"/>
<text text-anchor="start" x="393" y="-602.8" font-family="Helvetica,sans-Serif" font-size="11.00" fill="#000000">actual_created_date</text>
<polygon fill="none" stroke="#000000" points="581,-595.7 581,-617.7 665,-617.7 665,-595.7 581,-595.7"/>
<text text-anchor="start" x="583.8807" y="-603.4" font-family="Helvetica,sans-Serif" font-size="11.00" fill="#000000">timestamp[29,6]</text>
<polygon fill="none" stroke="#000000" points="373,-573.7 373,-595.7 581,-595.7 581,-573.7 373,-573.7"/>
<text text-anchor="start" x="393" y="-580.8" font-family="Helvetica,sans-Serif" font-size="11.00" fill="#000000">migrated</text>
<polygon fill="none" stroke="#000000" points="581,-573.7 581,-595.7 665,-595.7 665,-573.7 581,-573.7"/>
<text text-anchor="start" x="584" y="-581.4" font-family="Helvetica,sans-Serif" font-size="11.00" fill="#000000">bool[1]</text>
<polygon fill="none" stroke="#000000" points="373,-551.7 373,-573.7 581,-573.7 581,-551.7 373,-551.7"/>
<text text-anchor="start" x="393" y="-558.8" font-family="Helvetica,sans-Serif" font-size="11.00" fill="#000000">refer_gov_reason</text>
<polygon fill="none" stroke="#000000" points="581,-551.7 581,-573.7 665,-573.7 665,-551.7 581,-551.7"/>
<text text-anchor="start" x="584" y="-559.4" font-family="Helvetica,sans-Serif" font-size="11.00" fill="#000000">varchar[32]</text>
<polygon fill="#ffffff" stroke="transparent" points="373,-532.7 373,-551.7 481,-551.7 481,-532.7 373,-532.7"/>
<polygon fill="none" stroke="#000000" points="373,-532.7 373,-551.7 481,-551.7 481,-532.7 373,-532.7"/>
<text text-anchor="start" x="376" y="-538.8" font-family="Helvetica,sans-Serif" font-size="11.00" fill="#000000">&lt; 1</text>
<polygon fill="#ffffff" stroke="transparent" points="481,-532.7 481,-551.7 581,-551.7 581,-532.7 481,-532.7"/>
<polygon fill="none" stroke="#000000" points="481,-532.7 481,-551.7 581,-551.7 581,-532.7 481,-532.7"/>
<text text-anchor="start" x="571.8862" y="-538.8" font-family="Helvetica,sans-Serif" font-size="11.00" fill="#000000"> &#160;</text>
<polygon fill="#ffffff" stroke="transparent" points="581,-532.7 581,-551.7 665,-551.7 665,-532.7 581,-532.7"/>
<polygon fill="none" stroke="#000000" points="581,-532.7 581,-551.7 665,-551.7 665,-532.7 581,-532.7"/>
<text text-anchor="start" x="646.4053" y="-538.8" font-family="Helvetica,sans-Serif" font-size="11.00" fill="#000000">0 &gt;</text>
<polygon fill="none" stroke="#000000" stroke-width="2" points="372,-531.7 372,-905.7 666,-905.7 666,-531.7 372,-531.7"/>
</a>
</g>
</g>
<!-- outcome&#45;&gt;reported_adjudications -->
<g id="edge3" class="edge">
<title>outcome:w&#45;&gt;reported_adjudications:e</title>
<path fill="none" stroke="#000000" d="M359.4796,-689.2186C317.7424,-648.4231 384.4095,-393.7 322,-393.7"/>
<polygon fill="#000000" stroke="#000000" points="365.5861,-691.6943 371.6474,-698.0363 369.2931,-693.1971 373,-694.7 373,-694.7 373,-694.7 369.2931,-693.1971 374.3526,-691.3637 365.5861,-691.6943 365.5861,-691.6943"/>
<ellipse fill="none" stroke="#000000" cx="362.6205" cy="-690.492" rx="3.2" ry="3.2"/>
</g>
<!-- punishment -->
<g id="node5" class="node">
<title>punishment</title>
<g id="a_node5"><a xlink:href="../../tables/punishment.html" xlink:title="punishment" target="_top">
<polygon fill="#ffffff" stroke="transparent" points="459.5,-448.2 459.5,-509.2 578.5,-509.2 578.5,-448.2 459.5,-448.2"/>
<polygon fill="#f5f5f5" stroke="transparent" points="460,-485.7 460,-508.7 579,-508.7 579,-485.7 460,-485.7"/>
<polygon fill="none" stroke="#000000" points="460,-485.7 460,-508.7 579,-508.7 579,-485.7 460,-485.7"/>
<text text-anchor="start" x="465" y="-494.3" font-family="Helvetica,sans-Serif" font-weight="bold" font-size="11.00" fill="#000000">punishment</text>
<text text-anchor="start" x="544.5219" y="-493.8" font-family="Helvetica,sans-Serif" font-size="11.00" fill="#000000">[table]</text>
<polygon fill="none" stroke="#000000" points="460,-466.7 460,-485.7 579,-485.7 579,-466.7 460,-466.7"/>
<text text-anchor="start" x="463" y="-472.8" font-family="Helvetica,sans-Serif" font-size="11.00" fill="#000000">...</text>
<polygon fill="#ffffff" stroke="transparent" points="460,-447.7 460,-466.7 513,-466.7 513,-447.7 460,-447.7"/>
<polygon fill="none" stroke="#000000" points="460,-447.7 460,-466.7 513,-466.7 513,-447.7 460,-447.7"/>
<text text-anchor="start" x="463" y="-453.8" font-family="Helvetica,sans-Serif" font-size="11.00" fill="#000000">&lt; 1</text>
<polygon fill="#ffffff" stroke="transparent" points="513,-447.7 513,-466.7 541,-466.7 541,-447.7 513,-447.7"/>
<polygon fill="none" stroke="#000000" points="513,-447.7 513,-466.7 541,-466.7 541,-447.7 513,-447.7"/>
<text text-anchor="start" x="531.8862" y="-453.8" font-family="Helvetica,sans-Serif" font-size="11.00" fill="#000000"> &#160;</text>
<polygon fill="#ffffff" stroke="transparent" points="541,-447.7 541,-466.7 579,-466.7 579,-447.7 541,-447.7"/>
<polygon fill="none" stroke="#000000" points="541,-447.7 541,-466.7 579,-466.7 579,-447.7 541,-447.7"/>
<text text-anchor="start" x="560.4053" y="-453.8" font-family="Helvetica,sans-Serif" font-size="11.00" fill="#000000">2 &gt;</text>
</a>
</g>
</g>
<!-- punishment&#45;&gt;reported_adjudications -->
<g id="edge4" class="edge">
<title>punishment:w&#45;&gt;reported_adjudications:e</title>
<path fill="none" stroke="#000000" d="M445.4828,-475.2361C410.5556,-472.8076 396.9539,-460.7812 363,-437.7 340.8944,-422.673 348.7296,-393.7 322,-393.7"/>
<polygon fill="#000000" stroke="#000000" points="452.0041,-475.4445 459.885,-479.2982 456.002,-475.5722 460,-475.7 460,-475.7 460,-475.7 456.002,-475.5722 460.115,-472.1018 452.0041,-475.4445 452.0041,-475.4445"/>
<ellipse fill="none" stroke="#000000" cx="448.8057" cy="-475.3422" rx="3.2" ry="3.2"/>
</g>
<!-- punishment_comments -->
<g id="node6" class="node">
<title>punishment_comments</title>
<g id="a_node6"><a xlink:href="../../tables/punishment_comments.html" xlink:title="punishment_comments" target="_top">
<polygon fill="#ffffff" stroke="transparent" points="421.5,-366.2 421.5,-427.2 616.5,-427.2 616.5,-366.2 421.5,-366.2"/>
<polygon fill="#f5f5f5" stroke="transparent" points="422,-403.7 422,-426.7 617,-426.7 617,-403.7 422,-403.7"/>
<polygon fill="none" stroke="#000000" points="422,-403.7 422,-426.7 617,-426.7 617,-403.7 422,-403.7"/>
<text text-anchor="start" x="427" y="-412.3" font-family="Helvetica,sans-Serif" font-weight="bold" font-size="11.00" fill="#000000">punishment_comments</text>
<text text-anchor="start" x="582.5219" y="-411.8" font-family="Helvetica,sans-Serif" font-size="11.00" fill="#000000">[table]</text>
<polygon fill="none" stroke="#000000" points="422,-384.7 422,-403.7 617,-403.7 617,-384.7 422,-384.7"/>
<text text-anchor="start" x="425" y="-390.8" font-family="Helvetica,sans-Serif" font-size="11.00" fill="#000000">...</text>
<polygon fill="#ffffff" stroke="transparent" points="422,-365.7 422,-384.7 518,-384.7 518,-365.7 422,-365.7"/>
<polygon fill="none" stroke="#000000" points="422,-365.7 422,-384.7 518,-384.7 518,-365.7 422,-365.7"/>
<text text-anchor="start" x="425" y="-371.8" font-family="Helvetica,sans-Serif" font-size="11.00" fill="#000000">&lt; 1</text>
<polygon fill="#ffffff" stroke="transparent" points="518,-365.7 518,-384.7 567,-384.7 567,-365.7 518,-365.7"/>
<polygon fill="none" stroke="#000000" points="518,-365.7 518,-384.7 567,-384.7 567,-365.7 518,-365.7"/>
<text text-anchor="start" x="557.8862" y="-371.8" font-family="Helvetica,sans-Serif" font-size="11.00" fill="#000000"> &#160;</text>
<polygon fill="#ffffff" stroke="transparent" points="567,-365.7 567,-384.7 617,-384.7 617,-365.7 567,-365.7"/>
<polygon fill="none" stroke="#000000" points="567,-365.7 567,-384.7 617,-384.7 617,-365.7 567,-365.7"/>
<text text-anchor="start" x="607.8862" y="-371.8" font-family="Helvetica,sans-Serif" font-size="11.00" fill="#000000"> &#160;</text>
</a>
</g>
</g>
<!-- punishment_comments&#45;&gt;reported_adjudications -->
<g id="edge5" class="edge">
<title>punishment_comments:w&#45;&gt;reported_adjudications:e</title>
<path fill="none" stroke="#000000" d="M407.2022,-393.7C374.3758,-393.7 361.0625,-393.7 322,-393.7"/>
<polygon fill="#000000" stroke="#000000" points="414,-393.7001 422,-397.3 418,-393.7 422,-393.7 422,-393.7 422,-393.7 418,-393.7 422,-390.1 414,-393.7001 414,-393.7001"/>
<ellipse fill="none" stroke="#000000" cx="410.8" cy="-393.7001" rx="3.2" ry="3.2"/>
</g>
<!-- reported_damages -->
<g id="node7" class="node">
<title>reported_damages</title>
<g id="a_node7"><a xlink:href="../../tables/reported_damages.html" xlink:title="reported_damages" target="_top">
<polygon fill="#ffffff" stroke="transparent" points="436.5,-284.2 436.5,-345.2 601.5,-345.2 601.5,-284.2 436.5,-284.2"/>
<polygon fill="#f5f5f5" stroke="transparent" points="437,-321.7 437,-344.7 602,-344.7 602,-321.7 437,-321.7"/>
<polygon fill="none" stroke="#000000" points="437,-321.7 437,-344.7 602,-344.7 602,-321.7 437,-321.7"/>
<text text-anchor="start" x="442" y="-330.3" font-family="Helvetica,sans-Serif" font-weight="bold" font-size="11.00" fill="#000000">reported_damages</text>
<text text-anchor="start" x="567.5219" y="-329.8" font-family="Helvetica,sans-Serif" font-size="11.00" fill="#000000">[table]</text>
<polygon fill="none" stroke="#000000" points="437,-302.7 437,-321.7 602,-321.7 602,-302.7 437,-302.7"/>
<text text-anchor="start" x="440" y="-308.8" font-family="Helvetica,sans-Serif" font-size="11.00" fill="#000000">...</text>
<polygon fill="#ffffff" stroke="transparent" points="437,-283.7 437,-302.7 518,-302.7 518,-283.7 437,-283.7"/>
<polygon fill="none" stroke="#000000" points="437,-283.7 437,-302.7 518,-302.7 518,-283.7 437,-283.7"/>
<text text-anchor="start" x="440" y="-289.8" font-family="Helvetica,sans-Serif" font-size="11.00" fill="#000000">&lt; 1</text>
<polygon fill="#ffffff" stroke="transparent" points="518,-283.7 518,-302.7 560,-302.7 560,-283.7 518,-283.7"/>
<polygon fill="none" stroke="#000000" points="518,-283.7 518,-302.7 560,-302.7 560,-283.7 518,-283.7"/>
<text text-anchor="start" x="550.8862" y="-289.8" font-family="Helvetica,sans-Serif" font-size="11.00" fill="#000000"> &#160;</text>
<polygon fill="#ffffff" stroke="transparent" points="560,-283.7 560,-302.7 602,-302.7 602,-283.7 560,-283.7"/>
<polygon fill="none" stroke="#000000" points="560,-283.7 560,-302.7 602,-302.7 602,-283.7 560,-283.7"/>
<text text-anchor="start" x="592.8862" y="-289.8" font-family="Helvetica,sans-Serif" font-size="11.00" fill="#000000"> &#160;</text>
</a>
</g>
</g>
<!-- reported_damages&#45;&gt;reported_adjudications -->
<g id="edge6" class="edge">
<title>reported_damages:w&#45;&gt;reported_adjudications:e</title>
<path fill="none" stroke="#000000" d="M422.3108,-312.9635C396.7313,-317.8343 389.2173,-336.101 363,-355.7 343.1006,-370.576 346.8452,-393.7 322,-393.7"/>
<polygon fill="#000000" stroke="#000000" points="429.0294,-312.3856 437.3085,-315.2868 433.0147,-312.0428 437,-311.7 437,-311.7 437,-311.7 433.0147,-312.0428 436.6915,-308.1132 429.0294,-312.3856 429.0294,-312.3856"/>
<ellipse fill="none" stroke="#000000" cx="425.8412" cy="-312.6599" rx="3.2" ry="3.2"/>
</g>
<!-- reported_evidence -->
<g id="node8" class="node">
<title>reported_evidence</title>
<g id="a_node8"><a xlink:href="../../tables/reported_evidence.html" xlink:title="reported_evidence" target="_top">
<polygon fill="#ffffff" stroke="transparent" points="437,-202.2 437,-263.2 601,-263.2 601,-202.2 437,-202.2"/>
<polygon fill="#f5f5f5" stroke="transparent" points="437,-239.7 437,-262.7 601,-262.7 601,-239.7 437,-239.7"/>
<polygon fill="none" stroke="#000000" points="437,-239.7 437,-262.7 601,-262.7 601,-239.7 437,-239.7"/>
<text text-anchor="start" x="442" y="-248.3" font-family="Helvetica,sans-Serif" font-weight="bold" font-size="11.00" fill="#000000">reported_evidence</text>
<text text-anchor="start" x="566.5219" y="-247.8" font-family="Helvetica,sans-Serif" font-size="11.00" fill="#000000">[table]</text>
<polygon fill="none" stroke="#000000" points="437,-220.7 437,-239.7 601,-239.7 601,-220.7 437,-220.7"/>
<text text-anchor="start" x="440" y="-226.8" font-family="Helvetica,sans-Serif" font-size="11.00" fill="#000000">...</text>
<polygon fill="#ffffff" stroke="transparent" points="437,-201.7 437,-220.7 517,-220.7 517,-201.7 437,-201.7"/>
<polygon fill="none" stroke="#000000" points="437,-201.7 437,-220.7 517,-220.7 517,-201.7 437,-201.7"/>
<text text-anchor="start" x="440" y="-207.8" font-family="Helvetica,sans-Serif" font-size="11.00" fill="#000000">&lt; 1</text>
<polygon fill="#ffffff" stroke="transparent" points="517,-201.7 517,-220.7 559,-220.7 559,-201.7 517,-201.7"/>
<polygon fill="none" stroke="#000000" points="517,-201.7 517,-220.7 559,-220.7 559,-201.7 517,-201.7"/>
<text text-anchor="start" x="549.8862" y="-207.8" font-family="Helvetica,sans-Serif" font-size="11.00" fill="#000000"> &#160;</text>
<polygon fill="#ffffff" stroke="transparent" points="559,-201.7 559,-220.7 601,-220.7 601,-201.7 559,-201.7"/>
<polygon fill="none" stroke="#000000" points="559,-201.7 559,-220.7 601,-220.7 601,-201.7 559,-201.7"/>
<text text-anchor="start" x="591.8862" y="-207.8" font-family="Helvetica,sans-Serif" font-size="11.00" fill="#000000"> &#160;</text>
</a>
</g>
</g>
<!-- reported_evidence&#45;&gt;reported_adjudications -->
<g id="edge7" class="edge">
<title>reported_evidence:w&#45;&gt;reported_adjudications:e</title>
<path fill="none" stroke="#000000" d="M422.3292,-230.5509C395.2204,-234.0241 383.7223,-248.1685 363,-273.7 327.4823,-317.4606 378.3604,-393.7 322,-393.7"/>
<polygon fill="#000000" stroke="#000000" points="429.0134,-230.1633 437.2085,-233.294 433.0067,-229.9316 437,-229.7 437,-229.7 437,-229.7 433.0067,-229.9316 436.7915,-226.106 429.0134,-230.1633 429.0134,-230.1633"/>
<ellipse fill="none" stroke="#000000" cx="425.8188" cy="-230.3486" rx="3.2" ry="3.2"/>
</g>
<!-- reported_offence -->
<g id="node9" class="node">
<title>reported_offence</title>
<g id="a_node9"><a xlink:href="../../tables/reported_offence.html" xlink:title="reported_offence" target="_top">
<polygon fill="#ffffff" stroke="transparent" points="442,-120.2 442,-181.2 596,-181.2 596,-120.2 442,-120.2"/>
<polygon fill="#f5f5f5" stroke="transparent" points="442,-157.7 442,-180.7 596,-180.7 596,-157.7 442,-157.7"/>
<polygon fill="none" stroke="#000000" points="442,-157.7 442,-180.7 596,-180.7 596,-157.7 442,-157.7"/>
<text text-anchor="start" x="447" y="-166.3" font-family="Helvetica,sans-Serif" font-weight="bold" font-size="11.00" fill="#000000">reported_offence</text>
<text text-anchor="start" x="561.5219" y="-165.8" font-family="Helvetica,sans-Serif" font-size="11.00" fill="#000000">[table]</text>
<polygon fill="none" stroke="#000000" points="442,-138.7 442,-157.7 596,-157.7 596,-138.7 442,-138.7"/>
<text text-anchor="start" x="445" y="-144.8" font-family="Helvetica,sans-Serif" font-size="11.00" fill="#000000">...</text>
<polygon fill="#ffffff" stroke="transparent" points="442,-119.7 442,-138.7 513,-138.7 513,-119.7 442,-119.7"/>
<polygon fill="none" stroke="#000000" points="442,-119.7 442,-138.7 513,-138.7 513,-119.7 442,-119.7"/>
<text text-anchor="start" x="445" y="-125.8" font-family="Helvetica,sans-Serif" font-size="11.00" fill="#000000">&lt; 1</text>
<polygon fill="#ffffff" stroke="transparent" points="513,-119.7 513,-138.7 550,-138.7 550,-119.7 513,-119.7"/>
<polygon fill="none" stroke="#000000" points="513,-119.7 513,-138.7 550,-138.7 550,-119.7 513,-119.7"/>
<text text-anchor="start" x="540.8862" y="-125.8" font-family="Helvetica,sans-Serif" font-size="11.00" fill="#000000"> &#160;</text>
<polygon fill="#ffffff" stroke="transparent" points="550,-119.7 550,-138.7 596,-138.7 596,-119.7 550,-119.7"/>
<polygon fill="none" stroke="#000000" points="550,-119.7 550,-138.7 596,-138.7 596,-119.7 550,-119.7"/>
<text text-anchor="start" x="577.4053" y="-125.8" font-family="Helvetica,sans-Serif" font-size="11.00" fill="#000000">1 &gt;</text>
</a>
</g>
</g>
<!-- reported_offence&#45;&gt;reported_adjudications -->
<g id="edge8" class="edge">
<title>reported_offence:w&#45;&gt;reported_adjudications:e</title>
<path fill="none" stroke="#000000" d="M427.2363,-148.3335C397.6507,-151.1389 383.5733,-163.5682 363,-191.7 308.9231,-265.6445 413.6084,-393.7 322,-393.7"/>
<polygon fill="#000000" stroke="#000000" points="434.0074,-148.043 442.1544,-151.2967 438.0037,-147.8715 442,-147.7 442,-147.7 442,-147.7 438.0037,-147.8715 441.8456,-144.1033 434.0074,-148.043 434.0074,-148.043"/>
<ellipse fill="none" stroke="#000000" cx="430.8103" cy="-148.1802" rx="3.2" ry="3.2"/>
</g>
<!-- reported_witness -->
<g id="node10" class="node">
<title>reported_witness</title>
<g id="a_node10"><a xlink:href="../../tables/reported_witness.html" xlink:title="reported_witness" target="_top">
<polygon fill="#ffffff" stroke="transparent" points="441,-38.2 441,-99.2 597,-99.2 597,-38.2 441,-38.2"/>
<polygon fill="#f5f5f5" stroke="transparent" points="441,-75.7 441,-98.7 597,-98.7 597,-75.7 441,-75.7"/>
<polygon fill="none" stroke="#000000" points="441,-75.7 441,-98.7 597,-98.7 597,-75.7 441,-75.7"/>
<text text-anchor="start" x="446" y="-84.3" font-family="Helvetica,sans-Serif" font-weight="bold" font-size="11.00" fill="#000000">reported_witness</text>
<text text-anchor="start" x="562.5219" y="-83.8" font-family="Helvetica,sans-Serif" font-size="11.00" fill="#000000">[table]</text>
<polygon fill="none" stroke="#000000" points="441,-56.7 441,-75.7 597,-75.7 597,-56.7 441,-56.7"/>
<text text-anchor="start" x="444" y="-62.8" font-family="Helvetica,sans-Serif" font-size="11.00" fill="#000000">...</text>
<polygon fill="#ffffff" stroke="transparent" points="441,-37.7 441,-56.7 517,-56.7 517,-37.7 441,-37.7"/>
<polygon fill="none" stroke="#000000" points="441,-37.7 441,-56.7 517,-56.7 517,-37.7 441,-37.7"/>
<text text-anchor="start" x="444" y="-43.8" font-family="Helvetica,sans-Serif" font-size="11.00" fill="#000000">&lt; 1</text>
<polygon fill="#ffffff" stroke="transparent" points="517,-37.7 517,-56.7 557,-56.7 557,-37.7 517,-37.7"/>
<polygon fill="none" stroke="#000000" points="517,-37.7 517,-56.7 557,-56.7 557,-37.7 517,-37.7"/>
<text text-anchor="start" x="547.8862" y="-43.8" font-family="Helvetica,sans-Serif" font-size="11.00" fill="#000000"> &#160;</text>
<polygon fill="#ffffff" stroke="transparent" points="557,-37.7 557,-56.7 597,-56.7 597,-37.7 557,-37.7"/>
<polygon fill="none" stroke="#000000" points="557,-37.7 557,-56.7 597,-56.7 597,-37.7 557,-37.7"/>
<text text-anchor="start" x="587.8862" y="-43.8" font-family="Helvetica,sans-Serif" font-size="11.00" fill="#000000"> &#160;</text>
</a>
</g>
</g>
<!-- reported_witness&#45;&gt;reported_adjudications -->
<g id="edge9" class="edge">
<title>reported_witness:w&#45;&gt;reported_adjudications:e</title>
<path fill="none" stroke="#000000" d="M426.3437,-66.315C396.9044,-69.046 382.4971,-81.2184 363,-109.7 326.9805,-162.3177 385.7654,-393.7 322,-393.7"/>
<polygon fill="#000000" stroke="#000000" points="433.007,-66.0355 441.151,-69.2968 437.0035,-65.8677 441,-65.7 441,-65.7 441,-65.7 437.0035,-65.8677 440.849,-62.1032 433.007,-66.0355 433.007,-66.0355"/>
<ellipse fill="none" stroke="#000000" cx="429.8098" cy="-66.1697" rx="3.2" ry="3.2"/>
</g>
</g>
</svg>
