<?xml version="1.0" encoding="UTF-8" standalone="no"?>
<!DOCTYPE svg PUBLIC "-//W3C//DTD SVG 1.1//EN"
 "http://www.w3.org/Graphics/SVG/1.1/DTD/svg11.dtd">
<!-- Generated by graphviz version 2.40.1 (20161225.0304)
 -->
<!-- Title: oneDegreeRelationshipsDiagram Pages: 1 -->
<svg width="562pt" height="250pt"
 viewBox="0.00 0.00 562.00 250.20" xmlns="http://www.w3.org/2000/svg" xmlns:xlink="http://www.w3.org/1999/xlink">
<g id="graph0" class="graph" transform="scale(1 1) rotate(0) translate(4 246.2)">
<title>oneDegreeRelationshipsDiagram</title>
<polygon fill="#ffffff" stroke="transparent" points="-4,4 -4,-246.2 558,-246.2 558,4 -4,4"/>
<text text-anchor="middle" x="72.4936" y="-7.3" font-family="Helvetica,sans-Serif" font-size="11.00" fill="#000000">Generated by SchemaSpy</text>
<!-- protected_characteristics -->
<g id="node1" class="node">
<title>protected_characteristics</title>
<g id="a_node1"><a xlink:href="../../tables/protected_characteristics.html" xlink:title="protected_characteristics" target="_top">
<polygon fill="#ffffff" stroke="transparent" points="265,-38.2 265,-238.2 546,-238.2 546,-38.2 265,-38.2"/>
<polygon fill="#f5f5f5" stroke="transparent" points="267.5,-213.2 267.5,-236.2 544.5,-236.2 544.5,-213.2 267.5,-213.2"/>
<polygon fill="none" stroke="#000000" points="267.5,-213.2 267.5,-236.2 544.5,-236.2 544.5,-213.2 267.5,-213.2"/>
<text text-anchor="start" x="272.5" y="-221.8" font-family="Helvetica,sans-Serif" font-weight="bold" font-size="11.00" fill="#000000">protected_characteristics</text>
<text text-anchor="start" x="509.5437" y="-221.3" font-family="Helvetica,sans-Serif" font-size="11.00" fill="#000000">[table]</text>
<polygon fill="none" stroke="#000000" points="267.5,-191.2 267.5,-213.2 460.5,-213.2 460.5,-191.2 267.5,-191.2"/>
<image xlink:href="../../images/primaryKeys.png" width="11px" height="12px" preserveAspectRatio="xMinYMin meet" x="272.5" y="-208.2"/>
<text text-anchor="start" x="287.5" y="-198.3" font-family="Helvetica,sans-Serif" font-size="11.00" fill="#000000">id</text>
<polygon fill="none" stroke="#000000" points="460.5,-191.2 460.5,-213.2 544.5,-213.2 544.5,-191.2 460.5,-191.2"/>
<text text-anchor="start" x="463.5" y="-198.9" font-family="Helvetica,sans-Serif" font-size="11.00" fill="#000000">serial[10]</text>
<polygon fill="#ffffff" stroke="transparent" points="267.5,-169.2 267.5,-191.2 460.5,-191.2 460.5,-169.2 267.5,-169.2"/>
<polygon fill="none" stroke="#000000" points="267.5,-169.2 267.5,-191.2 460.5,-191.2 460.5,-169.2 267.5,-169.2"/>
<image xlink:href="../../images/foreignKeys.png" width="11px" height="12px" preserveAspectRatio="xMinYMin meet" x="272.5" y="-186.2"/>
<text text-anchor="start" x="287.5" y="-176.3" font-family="Helvetica,sans-Serif" font-size="11.00" fill="#000000">reported_offence_fk_id</text>
<polygon fill="none" stroke="#000000" points="460.5,-169.2 460.5,-191.2 544.5,-191.2 544.5,-169.2 460.5,-169.2"/>
<text text-anchor="start" x="463.5" y="-176.9" font-family="Helvetica,sans-Serif" font-size="11.00" fill="#000000">int8[19]</text>
<polygon fill="none" stroke="#000000" points="267.5,-147.2 267.5,-169.2 460.5,-169.2 460.5,-147.2 267.5,-147.2"/>
<text text-anchor="start" x="287.5" y="-154.3" font-family="Helvetica,sans-Serif" font-size="11.00" fill="#000000">characteristic</text>
<polygon fill="none" stroke="#000000" points="460.5,-147.2 460.5,-169.2 544.5,-169.2 544.5,-147.2 460.5,-147.2"/>
<text text-anchor="start" x="463.5" y="-154.9" font-family="Helvetica,sans-Serif" font-size="11.00" fill="#000000">varchar[20]</text>
<polygon fill="none" stroke="#000000" points="267.5,-125.2 267.5,-147.2 460.5,-147.2 460.5,-125.2 267.5,-125.2"/>
<text text-anchor="start" x="287.5" y="-132.3" font-family="Helvetica,sans-Serif" font-size="11.00" fill="#000000">create_user_id</text>
<polygon fill="none" stroke="#000000" points="460.5,-125.2 460.5,-147.2 544.5,-147.2 544.5,-125.2 460.5,-125.2"/>
<text text-anchor="start" x="463.5" y="-132.9" font-family="Helvetica,sans-Serif" font-size="11.00" fill="#000000">varchar[32]</text>
<polygon fill="none" stroke="#000000" points="267.5,-103.2 267.5,-125.2 460.5,-125.2 460.5,-103.2 267.5,-103.2"/>
<text text-anchor="start" x="287.5" y="-110.3" font-family="Helvetica,sans-Serif" font-size="11.00" fill="#000000">create_datetime</text>
<polygon fill="none" stroke="#000000" points="460.5,-103.2 460.5,-125.2 544.5,-125.2 544.5,-103.2 460.5,-103.2"/>
<text text-anchor="start" x="463.3807" y="-110.9" font-family="Helvetica,sans-Serif" font-size="11.00" fill="#000000">timestamp[29,6]</text>
<polygon fill="none" stroke="#000000" points="267.5,-81.2 267.5,-103.2 460.5,-103.2 460.5,-81.2 267.5,-81.2"/>
<text text-anchor="start" x="287.5" y="-88.3" font-family="Helvetica,sans-Serif" font-size="11.00" fill="#000000">modify_user_id</text>
<polygon fill="none" stroke="#000000" points="460.5,-81.2 460.5,-103.2 544.5,-103.2 544.5,-81.2 460.5,-81.2"/>
<text text-anchor="start" x="463.5" y="-88.9" font-family="Helvetica,sans-Serif" font-size="11.00" fill="#000000">varchar[32]</text>
<polygon fill="none" stroke="#000000" points="267.5,-59.2 267.5,-81.2 460.5,-81.2 460.5,-59.2 267.5,-59.2"/>
<text text-anchor="start" x="287.5" y="-66.3" font-family="Helvetica,sans-Serif" font-size="11.00" fill="#000000">modify_datetime</text>
<polygon fill="none" stroke="#000000" points="460.5,-59.2 460.5,-81.2 544.5,-81.2 544.5,-59.2 460.5,-59.2"/>
<text text-anchor="start" x="463.3807" y="-66.9" font-family="Helvetica,sans-Serif" font-size="11.00" fill="#000000">timestamp[29,6]</text>
<polygon fill="#ffffff" stroke="transparent" points="267.5,-40.2 267.5,-59.2 368.5,-59.2 368.5,-40.2 267.5,-40.2"/>
<polygon fill="none" stroke="#000000" points="267.5,-40.2 267.5,-59.2 368.5,-59.2 368.5,-40.2 267.5,-40.2"/>
<text text-anchor="start" x="270.5" y="-46.3" font-family="Helvetica,sans-Serif" font-size="11.00" fill="#000000">&lt; 1</text>
<polygon fill="#ffffff" stroke="transparent" points="368.5,-40.2 368.5,-59.2 460.5,-59.2 460.5,-40.2 368.5,-40.2"/>
<polygon fill="none" stroke="#000000" points="368.5,-40.2 368.5,-59.2 460.5,-59.2 460.5,-40.2 368.5,-40.2"/>
<text text-anchor="start" x="451.3862" y="-46.3" font-family="Helvetica,sans-Serif" font-size="11.00" fill="#000000"> &#160;</text>
<polygon fill="#ffffff" stroke="transparent" points="460.5,-40.2 460.5,-59.2 544.5,-59.2 544.5,-40.2 460.5,-40.2"/>
<polygon fill="none" stroke="#000000" points="460.5,-40.2 460.5,-59.2 544.5,-59.2 544.5,-40.2 460.5,-40.2"/>
<text text-anchor="start" x="525.9053" y="-46.3" font-family="Helvetica,sans-Serif" font-size="11.00" fill="#000000">0 &gt;</text>
<polygon fill="none" stroke="#000000" stroke-width="2" points="266,-39.2 266,-237.2 545,-237.2 545,-39.2 266,-39.2"/>
</a>
</g>
</g>
<!-- reported_offence -->
<g id="node2" class="node">
<title>reported_offence</title>
<g id="a_node2"><a xlink:href="../../tables/reported_offence.html" xlink:title="reported_offence" target="_top">
<polygon fill="#ffffff" stroke="transparent" points="8,-87.7 8,-214.7 216,-214.7 216,-87.7 8,-87.7"/>
<polygon fill="#f5f5f5" stroke="transparent" points="8,-191.2 8,-214.2 216,-214.2 216,-191.2 8,-191.2"/>
<polygon fill="none" stroke="#000000" points="8,-191.2 8,-214.2 216,-214.2 216,-191.2 8,-191.2"/>
<text text-anchor="start" x="13" y="-199.8" font-family="Helvetica,sans-Serif" font-weight="bold" font-size="11.00" fill="#000000">reported_offence</text>
<text text-anchor="start" x="181.0437" y="-199.3" font-family="Helvetica,sans-Serif" font-size="11.00" fill="#000000">[table]</text>
<polygon fill="none" stroke="#000000" points="8,-169.2 8,-191.2 216,-191.2 216,-169.2 8,-169.2"/>
<image xlink:href="../../images/primaryKeys.png" width="11px" height="12px" preserveAspectRatio="xMinYMin meet" x="13" y="-186.2"/>
<text text-anchor="start" x="28" y="-176.3" font-family="Helvetica,sans-Serif" font-size="11.00" fill="#000000">id</text>
<polygon fill="#ffffff" stroke="transparent" points="8,-147.2 8,-169.2 216,-169.2 216,-147.2 8,-147.2"/>
<polygon fill="none" stroke="#000000" points="8,-147.2 8,-169.2 216,-169.2 216,-147.2 8,-147.2"/>
<image xlink:href="../../images/foreignKeys.png" width="11px" height="12px" preserveAspectRatio="xMinYMin meet" x="13" y="-164.2"/>
<text text-anchor="start" x="28" y="-154.3" font-family="Helvetica,sans-Serif" font-size="11.00" fill="#000000">reported_adjudication_fk_id</text>
<polygon fill="#ffffff" stroke="transparent" points="8,-125.2 8,-147.2 216,-147.2 216,-125.2 8,-125.2"/>
<polygon fill="none" stroke="#000000" points="8,-125.2 8,-147.2 216,-147.2 216,-125.2 8,-125.2"/>
<text text-anchor="start" x="28" y="-132.3" font-family="Helvetica,sans-Serif" font-size="11.00" fill="#000000">victim_prisoners_number</text>
<polygon fill="none" stroke="#000000" points="8,-106.2 8,-125.2 216,-125.2 216,-106.2 8,-106.2"/>
<text text-anchor="start" x="11" y="-112.3" font-family="Helvetica,sans-Serif" font-size="11.00" fill="#000000">...</text>
<polygon fill="#ffffff" stroke="transparent" points="8,-87.2 8,-106.2 106,-106.2 106,-87.2 8,-87.2"/>
<polygon fill="none" stroke="#000000" points="8,-87.2 8,-106.2 106,-106.2 106,-87.2 8,-87.2"/>
<text text-anchor="start" x="11" y="-93.3" font-family="Helvetica,sans-Serif" font-size="11.00" fill="#000000">&lt; 1</text>
<polygon fill="#ffffff" stroke="transparent" points="106,-87.2 106,-106.2 156,-106.2 156,-87.2 106,-87.2"/>
<polygon fill="none" stroke="#000000" points="106,-87.2 106,-106.2 156,-106.2 156,-87.2 106,-87.2"/>
<text text-anchor="start" x="146.8862" y="-93.3" font-family="Helvetica,sans-Serif" font-size="11.00" fill="#000000"> &#160;</text>
<polygon fill="#ffffff" stroke="transparent" points="156,-87.2 156,-106.2 216,-106.2 216,-87.2 156,-87.2"/>
<polygon fill="none" stroke="#000000" points="156,-87.2 156,-106.2 216,-106.2 216,-87.2 156,-87.2"/>
<text text-anchor="start" x="197.4053" y="-93.3" font-family="Helvetica,sans-Serif" font-size="11.00" fill="#000000">1 &gt;</text>
</a>
</g>
</g>
<!-- protected_characteristics&#45;&gt;reported_offence -->
<g id="edge1" class="edge">
<title>protected_characteristics:w&#45;&gt;reported_offence:e</title>
<path fill="none" stroke="#000000" d="M253.0156,-180.2C240.6771,-180.2 233.1667,-180.2 216,-180.2"/>
<polygon fill="#000000" stroke="#000000" points="259.5,-180.2001 267.5,-183.8 263.5,-180.2 267.5,-180.2 267.5,-180.2 267.5,-180.2 263.5,-180.2 267.5,-176.6 259.5,-180.2001 259.5,-180.2001"/>
<ellipse fill="none" stroke="#000000" cx="256.3" cy="-180.2001" rx="3.2" ry="3.2"/>
</g>
</g>
</svg>
