<?xml version="1.0" encoding="UTF-8" standalone="no"?>
<!DOCTYPE svg PUBLIC "-//W3C//DTD SVG 1.1//EN"
 "http://www.w3.org/Graphics/SVG/1.1/DTD/svg11.dtd">
<!-- Generated by graphviz version 2.40.1 (20161225.0304)
 -->
<!-- Title: twoDegreesRelationshipsDiagram Pages: 1 -->
<svg width="806pt" height="250pt"
 viewBox="0.00 0.00 806.00 250.20" xmlns="http://www.w3.org/2000/svg" xmlns:xlink="http://www.w3.org/1999/xlink">
<g id="graph0" class="graph" transform="scale(1 1) rotate(0) translate(4 246.2)">
<title>twoDegreesRelationshipsDiagram</title>
<polygon fill="#ffffff" stroke="transparent" points="-4,4 -4,-246.2 802,-246.2 802,4 -4,4"/>
<text text-anchor="middle" x="72.4936" y="-7.3" font-family="Helvetica,sans-Serif" font-size="11.00" fill="#000000">Generated by SchemaSpy</text>
<!-- protected_characteristics -->
<g id="node1" class="node">
<title>protected_characteristics</title>
<g id="a_node1"><a xlink:href="../../tables/protected_characteristics.html" xlink:title="protected_characteristics" target="_top">
<polygon fill="#ffffff" stroke="transparent" points="509,-38.2 509,-238.2 790,-238.2 790,-38.2 509,-38.2"/>
<polygon fill="#f5f5f5" stroke="transparent" points="511.5,-213.2 511.5,-236.2 788.5,-236.2 788.5,-213.2 511.5,-213.2"/>
<polygon fill="none" stroke="#000000" points="511.5,-213.2 511.5,-236.2 788.5,-236.2 788.5,-213.2 511.5,-213.2"/>
<text text-anchor="start" x="516.5" y="-221.8" font-family="Helvetica,sans-Serif" font-weight="bold" font-size="11.00" fill="#000000">protected_characteristics</text>
<text text-anchor="start" x="753.5437" y="-221.3" font-family="Helvetica,sans-Serif" font-size="11.00" fill="#000000">[table]</text>
<polygon fill="none" stroke="#000000" points="511.5,-191.2 511.5,-213.2 704.5,-213.2 704.5,-191.2 511.5,-191.2"/>
<image xlink:href="../../images/primaryKeys.png" width="11px" height="12px" preserveAspectRatio="xMinYMin meet" x="516.5" y="-208.2"/>
<text text-anchor="start" x="531.5" y="-198.3" font-family="Helvetica,sans-Serif" font-size="11.00" fill="#000000">id</text>
<polygon fill="none" stroke="#000000" points="704.5,-191.2 704.5,-213.2 788.5,-213.2 788.5,-191.2 704.5,-191.2"/>
<text text-anchor="start" x="707.5" y="-198.9" font-family="Helvetica,sans-Serif" font-size="11.00" fill="#000000">serial[10]</text>
<polygon fill="#ffffff" stroke="transparent" points="511.5,-169.2 511.5,-191.2 704.5,-191.2 704.5,-169.2 511.5,-169.2"/>
<polygon fill="none" stroke="#000000" points="511.5,-169.2 511.5,-191.2 704.5,-191.2 704.5,-169.2 511.5,-169.2"/>
<image xlink:href="../../images/foreignKeys.png" width="11px" height="12px" preserveAspectRatio="xMinYMin meet" x="516.5" y="-186.2"/>
<text text-anchor="start" x="531.5" y="-176.3" font-family="Helvetica,sans-Serif" font-size="11.00" fill="#000000">reported_offence_fk_id</text>
<polygon fill="none" stroke="#000000" points="704.5,-169.2 704.5,-191.2 788.5,-191.2 788.5,-169.2 704.5,-169.2"/>
<text text-anchor="start" x="707.5" y="-176.9" font-family="Helvetica,sans-Serif" font-size="11.00" fill="#000000">int8[19]</text>
<polygon fill="none" stroke="#000000" points="511.5,-147.2 511.5,-169.2 704.5,-169.2 704.5,-147.2 511.5,-147.2"/>
<text text-anchor="start" x="531.5" y="-154.3" font-family="Helvetica,sans-Serif" font-size="11.00" fill="#000000">characteristic</text>
<polygon fill="none" stroke="#000000" points="704.5,-147.2 704.5,-169.2 788.5,-169.2 788.5,-147.2 704.5,-147.2"/>
<text text-anchor="start" x="707.5" y="-154.9" font-family="Helvetica,sans-Serif" font-size="11.00" fill="#000000">varchar[20]</text>
<polygon fill="none" stroke="#000000" points="511.5,-125.2 511.5,-147.2 704.5,-147.2 704.5,-125.2 511.5,-125.2"/>
<text text-anchor="start" x="531.5" y="-132.3" font-family="Helvetica,sans-Serif" font-size="11.00" fill="#000000">create_user_id</text>
<polygon fill="none" stroke="#000000" points="704.5,-125.2 704.5,-147.2 788.5,-147.2 788.5,-125.2 704.5,-125.2"/>
<text text-anchor="start" x="707.5" y="-132.9" font-family="Helvetica,sans-Serif" font-size="11.00" fill="#000000">varchar[32]</text>
<polygon fill="none" stroke="#000000" points="511.5,-103.2 511.5,-125.2 704.5,-125.2 704.5,-103.2 511.5,-103.2"/>
<text text-anchor="start" x="531.5" y="-110.3" font-family="Helvetica,sans-Serif" font-size="11.00" fill="#000000">create_datetime</text>
<polygon fill="none" stroke="#000000" points="704.5,-103.2 704.5,-125.2 788.5,-125.2 788.5,-103.2 704.5,-103.2"/>
<text text-anchor="start" x="707.3807" y="-110.9" font-family="Helvetica,sans-Serif" font-size="11.00" fill="#000000">timestamp[29,6]</text>
<polygon fill="none" stroke="#000000" points="511.5,-81.2 511.5,-103.2 704.5,-103.2 704.5,-81.2 511.5,-81.2"/>
<text text-anchor="start" x="531.5" y="-88.3" font-family="Helvetica,sans-Serif" font-size="11.00" fill="#000000">modify_user_id</text>
<polygon fill="none" stroke="#000000" points="704.5,-81.2 704.5,-103.2 788.5,-103.2 788.5,-81.2 704.5,-81.2"/>
<text text-anchor="start" x="707.5" y="-88.9" font-family="Helvetica,sans-Serif" font-size="11.00" fill="#000000">varchar[32]</text>
<polygon fill="none" stroke="#000000" points="511.5,-59.2 511.5,-81.2 704.5,-81.2 704.5,-59.2 511.5,-59.2"/>
<text text-anchor="start" x="531.5" y="-66.3" font-family="Helvetica,sans-Serif" font-size="11.00" fill="#000000">modify_datetime</text>
<polygon fill="none" stroke="#000000" points="704.5,-59.2 704.5,-81.2 788.5,-81.2 788.5,-59.2 704.5,-59.2"/>
<text text-anchor="start" x="707.3807" y="-66.9" font-family="Helvetica,sans-Serif" font-size="11.00" fill="#000000">timestamp[29,6]</text>
<polygon fill="#ffffff" stroke="transparent" points="511.5,-40.2 511.5,-59.2 612.5,-59.2 612.5,-40.2 511.5,-40.2"/>
<polygon fill="none" stroke="#000000" points="511.5,-40.2 511.5,-59.2 612.5,-59.2 612.5,-40.2 511.5,-40.2"/>
<text text-anchor="start" x="514.5" y="-46.3" font-family="Helvetica,sans-Serif" font-size="11.00" fill="#000000">&lt; 1</text>
<polygon fill="#ffffff" stroke="transparent" points="612.5,-40.2 612.5,-59.2 704.5,-59.2 704.5,-40.2 612.5,-40.2"/>
<polygon fill="none" stroke="#000000" points="612.5,-40.2 612.5,-59.2 704.5,-59.2 704.5,-40.2 612.5,-40.2"/>
<text text-anchor="start" x="695.3862" y="-46.3" font-family="Helvetica,sans-Serif" font-size="11.00" fill="#000000"> &#160;</text>
<polygon fill="#ffffff" stroke="transparent" points="704.5,-40.2 704.5,-59.2 788.5,-59.2 788.5,-40.2 704.5,-40.2"/>
<polygon fill="none" stroke="#000000" points="704.5,-40.2 704.5,-59.2 788.5,-59.2 788.5,-40.2 704.5,-40.2"/>
<text text-anchor="start" x="769.9053" y="-46.3" font-family="Helvetica,sans-Serif" font-size="11.00" fill="#000000">0 &gt;</text>
<polygon fill="none" stroke="#000000" stroke-width="2" points="510,-39.2 510,-237.2 789,-237.2 789,-39.2 510,-39.2"/>
</a>
</g>
</g>
<!-- reported_offence -->
<g id="node2" class="node">
<title>reported_offence</title>
<g id="a_node2"><a xlink:href="../../tables/reported_offence.html" xlink:title="reported_offence" target="_top">
<polygon fill="#ffffff" stroke="transparent" points="252,-87.7 252,-214.7 460,-214.7 460,-87.7 252,-87.7"/>
<polygon fill="#f5f5f5" stroke="transparent" points="252,-191.2 252,-214.2 460,-214.2 460,-191.2 252,-191.2"/>
<polygon fill="none" stroke="#000000" points="252,-191.2 252,-214.2 460,-214.2 460,-191.2 252,-191.2"/>
<text text-anchor="start" x="257" y="-199.8" font-family="Helvetica,sans-Serif" font-weight="bold" font-size="11.00" fill="#000000">reported_offence</text>
<text text-anchor="start" x="425.0437" y="-199.3" font-family="Helvetica,sans-Serif" font-size="11.00" fill="#000000">[table]</text>
<polygon fill="none" stroke="#000000" points="252,-169.2 252,-191.2 460,-191.2 460,-169.2 252,-169.2"/>
<image xlink:href="../../images/primaryKeys.png" width="11px" height="12px" preserveAspectRatio="xMinYMin meet" x="257" y="-186.2"/>
<text text-anchor="start" x="272" y="-176.3" font-family="Helvetica,sans-Serif" font-size="11.00" fill="#000000">id</text>
<polygon fill="#ffffff" stroke="transparent" points="252,-147.2 252,-169.2 460,-169.2 460,-147.2 252,-147.2"/>
<polygon fill="none" stroke="#000000" points="252,-147.2 252,-169.2 460,-169.2 460,-147.2 252,-147.2"/>
<image xlink:href="../../images/foreignKeys.png" width="11px" height="12px" preserveAspectRatio="xMinYMin meet" x="257" y="-164.2"/>
<text text-anchor="start" x="272" y="-154.3" font-family="Helvetica,sans-Serif" font-size="11.00" fill="#000000">reported_adjudication_fk_id</text>
<polygon fill="#ffffff" stroke="transparent" points="252,-125.2 252,-147.2 460,-147.2 460,-125.2 252,-125.2"/>
<polygon fill="none" stroke="#000000" points="252,-125.2 252,-147.2 460,-147.2 460,-125.2 252,-125.2"/>
<text text-anchor="start" x="272" y="-132.3" font-family="Helvetica,sans-Serif" font-size="11.00" fill="#000000">victim_prisoners_number</text>
<polygon fill="none" stroke="#000000" points="252,-106.2 252,-125.2 460,-125.2 460,-106.2 252,-106.2"/>
<text text-anchor="start" x="255" y="-112.3" font-family="Helvetica,sans-Serif" font-size="11.00" fill="#000000">...</text>
<polygon fill="#ffffff" stroke="transparent" points="252,-87.2 252,-106.2 350,-106.2 350,-87.2 252,-87.2"/>
<polygon fill="none" stroke="#000000" points="252,-87.2 252,-106.2 350,-106.2 350,-87.2 252,-87.2"/>
<text text-anchor="start" x="255" y="-93.3" font-family="Helvetica,sans-Serif" font-size="11.00" fill="#000000">&lt; 1</text>
<polygon fill="#ffffff" stroke="transparent" points="350,-87.2 350,-106.2 400,-106.2 400,-87.2 350,-87.2"/>
<polygon fill="none" stroke="#000000" points="350,-87.2 350,-106.2 400,-106.2 400,-87.2 350,-87.2"/>
<text text-anchor="start" x="390.8862" y="-93.3" font-family="Helvetica,sans-Serif" font-size="11.00" fill="#000000"> &#160;</text>
<polygon fill="#ffffff" stroke="transparent" points="400,-87.2 400,-106.2 460,-106.2 460,-87.2 400,-87.2"/>
<polygon fill="none" stroke="#000000" points="400,-87.2 400,-106.2 460,-106.2 460,-87.2 400,-87.2"/>
<text text-anchor="start" x="441.4053" y="-93.3" font-family="Helvetica,sans-Serif" font-size="11.00" fill="#000000">1 &gt;</text>
</a>
</g>
</g>
<!-- protected_characteristics&#45;&gt;reported_offence -->
<g id="edge1" class="edge">
<title>protected_characteristics:w&#45;&gt;reported_offence:e</title>
<path fill="none" stroke="#000000" d="M497.0156,-180.2C484.6771,-180.2 477.1667,-180.2 460,-180.2"/>
<polygon fill="#000000" stroke="#000000" points="503.5,-180.2001 511.5,-183.8 507.5,-180.2 511.5,-180.2 511.5,-180.2 511.5,-180.2 507.5,-180.2 511.5,-176.6 503.5,-180.2001 503.5,-180.2001"/>
<ellipse fill="none" stroke="#000000" cx="500.3" cy="-180.2001" rx="3.2" ry="3.2"/>
</g>
<!-- reported_adjudications -->
<g id="node3" class="node">
<title>reported_adjudications</title>
<g id="a_node3"><a xlink:href="../../tables/reported_adjudications.html" xlink:title="reported_adjudications" target="_top">
<polygon fill="#ffffff" stroke="transparent" points="8,-130.7 8,-191.7 203,-191.7 203,-130.7 8,-130.7"/>
<polygon fill="#f5f5f5" stroke="transparent" points="8.5,-168.2 8.5,-191.2 203.5,-191.2 203.5,-168.2 8.5,-168.2"/>
<polygon fill="none" stroke="#000000" points="8.5,-168.2 8.5,-191.2 203.5,-191.2 203.5,-168.2 8.5,-168.2"/>
<text text-anchor="start" x="13.5" y="-176.8" font-family="Helvetica,sans-Serif" font-weight="bold" font-size="11.00" fill="#000000">reported_adjudications</text>
<text text-anchor="start" x="169.0219" y="-176.3" font-family="Helvetica,sans-Serif" font-size="11.00" fill="#000000">[table]</text>
<polygon fill="none" stroke="#000000" points="8.5,-149.2 8.5,-168.2 203.5,-168.2 203.5,-149.2 8.5,-149.2"/>
<text text-anchor="start" x="11.5" y="-155.3" font-family="Helvetica,sans-Serif" font-size="11.00" fill="#000000">...</text>
<polygon fill="#ffffff" stroke="transparent" points="8.5,-130.2 8.5,-149.2 95.5,-149.2 95.5,-130.2 8.5,-130.2"/>
<polygon fill="none" stroke="#000000" points="8.5,-130.2 8.5,-149.2 95.5,-149.2 95.5,-130.2 8.5,-130.2"/>
<text text-anchor="start" x="11.5" y="-136.3" font-family="Helvetica,sans-Serif" font-size="11.00" fill="#000000"> &#160;</text>
<polygon fill="#ffffff" stroke="transparent" points="95.5,-130.2 95.5,-149.2 144.5,-149.2 144.5,-130.2 95.5,-130.2"/>
<polygon fill="none" stroke="#000000" points="95.5,-130.2 95.5,-149.2 144.5,-149.2 144.5,-130.2 95.5,-130.2"/>
<text text-anchor="start" x="135.3862" y="-136.3" font-family="Helvetica,sans-Serif" font-size="11.00" fill="#000000"> &#160;</text>
<polygon fill="#ffffff" stroke="transparent" points="144.5,-130.2 144.5,-149.2 203.5,-149.2 203.5,-130.2 144.5,-130.2"/>
<polygon fill="none" stroke="#000000" points="144.5,-130.2 144.5,-149.2 203.5,-149.2 203.5,-130.2 144.5,-130.2"/>
<text text-anchor="start" x="184.9053" y="-136.3" font-family="Helvetica,sans-Serif" font-size="11.00" fill="#000000">9 &gt;</text>
</a>
</g>
</g>
<!-- reported_offence&#45;&gt;reported_adjudications -->
<g id="edge2" class="edge">
<title>reported_offence:w&#45;&gt;reported_adjudications:e</title>
<path fill="none" stroke="#000000" d="M237.2829,-158.2C226.2886,-158.2 219.1615,-158.2 203.5,-158.2"/>
<polygon fill="#000000" stroke="#000000" points="244,-158.2001 252,-161.8 248,-158.2 252,-158.2 252,-158.2 252,-158.2 248,-158.2 252,-154.6 244,-158.2001 244,-158.2001"/>
<ellipse fill="none" stroke="#000000" cx="240.8" cy="-158.2001" rx="3.2" ry="3.2"/>
</g>
</g>
</svg>
