<?xml version="1.0" encoding="UTF-8" standalone="no"?>
<!DOCTYPE svg PUBLIC "-//W3C//DTD SVG 1.1//EN"
 "http://www.w3.org/Graphics/SVG/1.1/DTD/svg11.dtd">
<!-- Generated by graphviz version 2.40.1 (20161225.0304)
 -->
<!-- Title: oneDegreeRelationshipsDiagram Pages: 1 -->
<svg width="560pt" height="338pt"
 viewBox="0.00 0.00 560.00 338.20" xmlns="http://www.w3.org/2000/svg" xmlns:xlink="http://www.w3.org/1999/xlink">
<g id="graph0" class="graph" transform="scale(1 1) rotate(0) translate(4 334.2)">
<title>oneDegreeRelationshipsDiagram</title>
<polygon fill="#ffffff" stroke="transparent" points="-4,4 -4,-334.2 556,-334.2 556,4 -4,4"/>
<text text-anchor="middle" x="72.4936" y="-7.3" font-family="Helvetica,sans-Serif" font-size="11.00" fill="#000000">Generated by SchemaSpy</text>
<!-- punishment_schedule -->
<g id="node1" class="node">
<title>punishment_schedule</title>
<g id="a_node1"><a xlink:href="../../tables/punishment_schedule.html" xlink:title="punishment_schedule" target="_top">
<polygon fill="#ffffff" stroke="transparent" points="289,-38.2 289,-326.2 544,-326.2 544,-38.2 289,-38.2"/>
<polygon fill="#f5f5f5" stroke="transparent" points="291.5,-301.2 291.5,-324.2 542.5,-324.2 542.5,-301.2 291.5,-301.2"/>
<polygon fill="none" stroke="#000000" points="291.5,-301.2 291.5,-324.2 542.5,-324.2 542.5,-301.2 291.5,-301.2"/>
<text text-anchor="start" x="296.5" y="-309.8" font-family="Helvetica,sans-Serif" font-weight="bold" font-size="11.00" fill="#000000">punishment_schedule</text>
<text text-anchor="start" x="507.5437" y="-309.3" font-family="Helvetica,sans-Serif" font-size="11.00" fill="#000000">[table]</text>
<polygon fill="none" stroke="#000000" points="291.5,-279.2 291.5,-301.2 458.5,-301.2 458.5,-279.2 291.5,-279.2"/>
<image xlink:href="../../images/primaryKeys.png" width="11px" height="12px" preserveAspectRatio="xMinYMin meet" x="296.5" y="-296.2"/>
<text text-anchor="start" x="311.5" y="-286.3" font-family="Helvetica,sans-Serif" font-size="11.00" fill="#000000">id</text>
<polygon fill="none" stroke="#000000" points="458.5,-279.2 458.5,-301.2 542.5,-301.2 542.5,-279.2 458.5,-279.2"/>
<text text-anchor="start" x="461.5" y="-286.9" font-family="Helvetica,sans-Serif" font-size="11.00" fill="#000000">serial[10]</text>
<polygon fill="#ffffff" stroke="transparent" points="291.5,-257.2 291.5,-279.2 458.5,-279.2 458.5,-257.2 291.5,-257.2"/>
<polygon fill="none" stroke="#000000" points="291.5,-257.2 291.5,-279.2 458.5,-279.2 458.5,-257.2 291.5,-257.2"/>
<image xlink:href="../../images/foreignKeys.png" width="11px" height="12px" preserveAspectRatio="xMinYMin meet" x="296.5" y="-274.2"/>
<text text-anchor="start" x="311.5" y="-264.3" font-family="Helvetica,sans-Serif" font-size="11.00" fill="#000000">punishment_fk_id</text>
<polygon fill="none" stroke="#000000" points="458.5,-257.2 458.5,-279.2 542.5,-279.2 542.5,-257.2 458.5,-257.2"/>
<text text-anchor="start" x="461.5" y="-264.9" font-family="Helvetica,sans-Serif" font-size="11.00" fill="#000000">int8[19]</text>
<polygon fill="none" stroke="#000000" points="291.5,-235.2 291.5,-257.2 458.5,-257.2 458.5,-235.2 291.5,-235.2"/>
<text text-anchor="start" x="311.5" y="-242.3" font-family="Helvetica,sans-Serif" font-size="11.00" fill="#000000">duration</text>
<polygon fill="none" stroke="#000000" points="458.5,-235.2 458.5,-257.2 542.5,-257.2 542.5,-235.2 458.5,-235.2"/>
<text text-anchor="start" x="461.5" y="-242.9" font-family="Helvetica,sans-Serif" font-size="11.00" fill="#000000">int4[10]</text>
<polygon fill="none" stroke="#000000" points="291.5,-213.2 291.5,-235.2 458.5,-235.2 458.5,-213.2 291.5,-213.2"/>
<text text-anchor="start" x="311.5" y="-220.3" font-family="Helvetica,sans-Serif" font-size="11.00" fill="#000000">start_date</text>
<polygon fill="none" stroke="#000000" points="458.5,-213.2 458.5,-235.2 542.5,-235.2 542.5,-213.2 458.5,-213.2"/>
<text text-anchor="start" x="461.5" y="-220.9" font-family="Helvetica,sans-Serif" font-size="11.00" fill="#000000">date[13]</text>
<polygon fill="#ffffff" stroke="transparent" points="291.5,-191.2 291.5,-213.2 458.5,-213.2 458.5,-191.2 291.5,-191.2"/>
<polygon fill="none" stroke="#000000" points="291.5,-191.2 291.5,-213.2 458.5,-213.2 458.5,-191.2 291.5,-191.2"/>
<text text-anchor="start" x="311.5" y="-198.3" font-family="Helvetica,sans-Serif" font-size="11.00" fill="#000000">end_date</text>
<polygon fill="none" stroke="#000000" points="458.5,-191.2 458.5,-213.2 542.5,-213.2 542.5,-191.2 458.5,-191.2"/>
<text text-anchor="start" x="461.5" y="-198.9" font-family="Helvetica,sans-Serif" font-size="11.00" fill="#000000">date[13]</text>
<polygon fill="none" stroke="#000000" points="291.5,-169.2 291.5,-191.2 458.5,-191.2 458.5,-169.2 291.5,-169.2"/>
<text text-anchor="start" x="311.5" y="-176.3" font-family="Helvetica,sans-Serif" font-size="11.00" fill="#000000">suspended_until</text>
<polygon fill="none" stroke="#000000" points="458.5,-169.2 458.5,-191.2 542.5,-191.2 542.5,-169.2 458.5,-169.2"/>
<text text-anchor="start" x="461.5" y="-176.9" font-family="Helvetica,sans-Serif" font-size="11.00" fill="#000000">date[13]</text>
<polygon fill="none" stroke="#000000" points="291.5,-147.2 291.5,-169.2 458.5,-169.2 458.5,-147.2 291.5,-147.2"/>
<text text-anchor="start" x="311.5" y="-154.3" font-family="Helvetica,sans-Serif" font-size="11.00" fill="#000000">create_user_id</text>
<polygon fill="none" stroke="#000000" points="458.5,-147.2 458.5,-169.2 542.5,-169.2 542.5,-147.2 458.5,-147.2"/>
<text text-anchor="start" x="461.5" y="-154.9" font-family="Helvetica,sans-Serif" font-size="11.00" fill="#000000">varchar[32]</text>
<polygon fill="none" stroke="#000000" points="291.5,-125.2 291.5,-147.2 458.5,-147.2 458.5,-125.2 291.5,-125.2"/>
<text text-anchor="start" x="311.5" y="-132.3" font-family="Helvetica,sans-Serif" font-size="11.00" fill="#000000">create_datetime</text>
<polygon fill="none" stroke="#000000" points="458.5,-125.2 458.5,-147.2 542.5,-147.2 542.5,-125.2 458.5,-125.2"/>
<text text-anchor="start" x="461.3807" y="-132.9" font-family="Helvetica,sans-Serif" font-size="11.00" fill="#000000">timestamp[29,6]</text>
<polygon fill="none" stroke="#000000" points="291.5,-103.2 291.5,-125.2 458.5,-125.2 458.5,-103.2 291.5,-103.2"/>
<text text-anchor="start" x="311.5" y="-110.3" font-family="Helvetica,sans-Serif" font-size="11.00" fill="#000000">modify_user_id</text>
<polygon fill="none" stroke="#000000" points="458.5,-103.2 458.5,-125.2 542.5,-125.2 542.5,-103.2 458.5,-103.2"/>
<text text-anchor="start" x="461.5" y="-110.9" font-family="Helvetica,sans-Serif" font-size="11.00" fill="#000000">varchar[32]</text>
<polygon fill="none" stroke="#000000" points="291.5,-81.2 291.5,-103.2 458.5,-103.2 458.5,-81.2 291.5,-81.2"/>
<text text-anchor="start" x="311.5" y="-88.3" font-family="Helvetica,sans-Serif" font-size="11.00" fill="#000000">modify_datetime</text>
<polygon fill="none" stroke="#000000" points="458.5,-81.2 458.5,-103.2 542.5,-103.2 542.5,-81.2 458.5,-81.2"/>
<text text-anchor="start" x="461.3807" y="-88.9" font-family="Helvetica,sans-Serif" font-size="11.00" fill="#000000">timestamp[29,6]</text>
<polygon fill="none" stroke="#000000" points="291.5,-59.2 291.5,-81.2 458.5,-81.2 458.5,-59.2 291.5,-59.2"/>
<text text-anchor="start" x="311.5" y="-66.3" font-family="Helvetica,sans-Serif" font-size="11.00" fill="#000000">measurement</text>
<polygon fill="none" stroke="#000000" points="458.5,-59.2 458.5,-81.2 542.5,-81.2 542.5,-59.2 458.5,-59.2"/>
<text text-anchor="start" x="461.5" y="-66.9" font-family="Helvetica,sans-Serif" font-size="11.00" fill="#000000">varchar[16]</text>
<polygon fill="#ffffff" stroke="transparent" points="291.5,-40.2 291.5,-59.2 379.5,-59.2 379.5,-40.2 291.5,-40.2"/>
<polygon fill="none" stroke="#000000" points="291.5,-40.2 291.5,-59.2 379.5,-59.2 379.5,-40.2 291.5,-40.2"/>
<text text-anchor="start" x="294.5" y="-46.3" font-family="Helvetica,sans-Serif" font-size="11.00" fill="#000000">&lt; 1</text>
<polygon fill="#ffffff" stroke="transparent" points="379.5,-40.2 379.5,-59.2 458.5,-59.2 458.5,-40.2 379.5,-40.2"/>
<polygon fill="none" stroke="#000000" points="379.5,-40.2 379.5,-59.2 458.5,-59.2 458.5,-40.2 379.5,-40.2"/>
<text text-anchor="start" x="449.3862" y="-46.3" font-family="Helvetica,sans-Serif" font-size="11.00" fill="#000000"> &#160;</text>
<polygon fill="#ffffff" stroke="transparent" points="458.5,-40.2 458.5,-59.2 542.5,-59.2 542.5,-40.2 458.5,-40.2"/>
<polygon fill="none" stroke="#000000" points="458.5,-40.2 458.5,-59.2 542.5,-59.2 542.5,-40.2 458.5,-40.2"/>
<text text-anchor="start" x="523.9053" y="-46.3" font-family="Helvetica,sans-Serif" font-size="11.00" fill="#000000">0 &gt;</text>
<polygon fill="none" stroke="#000000" stroke-width="2" points="290,-39.2 290,-325.2 543,-325.2 543,-39.2 290,-39.2"/>
</a>
</g>
</g>
<!-- punishment -->
<g id="node2" class="node">
<title>punishment</title>
<g id="a_node2"><a xlink:href="../../tables/punishment.html" xlink:title="punishment" target="_top">
<polygon fill="#ffffff" stroke="transparent" points="8,-87.7 8,-302.7 240,-302.7 240,-87.7 8,-87.7"/>
<polygon fill="#f5f5f5" stroke="transparent" points="8,-279.2 8,-302.2 240,-302.2 240,-279.2 8,-279.2"/>
<polygon fill="none" stroke="#000000" points="8,-279.2 8,-302.2 240,-302.2 240,-279.2 8,-279.2"/>
<text text-anchor="start" x="13" y="-287.8" font-family="Helvetica,sans-Serif" font-weight="bold" font-size="11.00" fill="#000000">punishment</text>
<text text-anchor="start" x="205.0437" y="-287.3" font-family="Helvetica,sans-Serif" font-size="11.00" fill="#000000">[table]</text>
<polygon fill="none" stroke="#000000" points="8,-257.2 8,-279.2 240,-279.2 240,-257.2 8,-257.2"/>
<image xlink:href="../../images/primaryKeys.png" width="11px" height="12px" preserveAspectRatio="xMinYMin meet" x="13" y="-274.2"/>
<text text-anchor="start" x="28" y="-264.3" font-family="Helvetica,sans-Serif" font-size="11.00" fill="#000000">id</text>
<polygon fill="#ffffff" stroke="transparent" points="8,-235.2 8,-257.2 240,-257.2 240,-235.2 8,-235.2"/>
<polygon fill="none" stroke="#000000" points="8,-235.2 8,-257.2 240,-257.2 240,-235.2 8,-235.2"/>
<image xlink:href="../../images/foreignKeys.png" width="11px" height="12px" preserveAspectRatio="xMinYMin meet" x="13" y="-252.2"/>
<text text-anchor="start" x="28" y="-242.3" font-family="Helvetica,sans-Serif" font-size="11.00" fill="#000000">reported_adjudication_fk_id</text>
<polygon fill="#ffffff" stroke="transparent" points="8,-213.2 8,-235.2 240,-235.2 240,-213.2 8,-213.2"/>
<polygon fill="none" stroke="#000000" points="8,-213.2 8,-235.2 240,-235.2 240,-213.2 8,-213.2"/>
<text text-anchor="start" x="28" y="-220.3" font-family="Helvetica,sans-Serif" font-size="11.00" fill="#000000">type</text>
<polygon fill="#ffffff" stroke="transparent" points="8,-191.2 8,-213.2 240,-213.2 240,-191.2 8,-191.2"/>
<polygon fill="none" stroke="#000000" points="8,-191.2 8,-213.2 240,-213.2 240,-191.2 8,-191.2"/>
<text text-anchor="start" x="28" y="-198.3" font-family="Helvetica,sans-Serif" font-size="11.00" fill="#000000">activated_by_charge_number</text>
<polygon fill="#ffffff" stroke="transparent" points="8,-169.2 8,-191.2 240,-191.2 240,-169.2 8,-169.2"/>
<polygon fill="none" stroke="#000000" points="8,-169.2 8,-191.2 240,-191.2 240,-169.2 8,-169.2"/>
<text text-anchor="start" x="28" y="-176.3" font-family="Helvetica,sans-Serif" font-size="11.00" fill="#000000">suspended_until</text>
<polygon fill="#ffffff" stroke="transparent" points="8,-147.2 8,-169.2 240,-169.2 240,-147.2 8,-147.2"/>
<polygon fill="none" stroke="#000000" points="8,-147.2 8,-169.2 240,-169.2 240,-147.2 8,-147.2"/>
<text text-anchor="start" x="28" y="-154.3" font-family="Helvetica,sans-Serif" font-size="11.00" fill="#000000">consecutive_to_charge_number</text>
<polygon fill="#ffffff" stroke="transparent" points="8,-125.2 8,-147.2 240,-147.2 240,-125.2 8,-125.2"/>
<polygon fill="none" stroke="#000000" points="8,-125.2 8,-147.2 240,-147.2 240,-125.2 8,-125.2"/>
<text text-anchor="start" x="28" y="-132.3" font-family="Helvetica,sans-Serif" font-size="11.00" fill="#000000">punishment_pre_migrate_id</text>
<polygon fill="none" stroke="#000000" points="8,-106.2 8,-125.2 240,-125.2 240,-106.2 8,-106.2"/>
<text text-anchor="start" x="11" y="-112.3" font-family="Helvetica,sans-Serif" font-size="11.00" fill="#000000">...</text>
<polygon fill="#ffffff" stroke="transparent" points="8,-87.2 8,-106.2 118,-106.2 118,-87.2 8,-87.2"/>
<polygon fill="none" stroke="#000000" points="8,-87.2 8,-106.2 118,-106.2 118,-87.2 8,-87.2"/>
<text text-anchor="start" x="11" y="-93.3" font-family="Helvetica,sans-Serif" font-size="11.00" fill="#000000">&lt; 1</text>
<polygon fill="#ffffff" stroke="transparent" points="118,-87.2 118,-106.2 174,-106.2 174,-87.2 118,-87.2"/>
<polygon fill="none" stroke="#000000" points="118,-87.2 118,-106.2 174,-106.2 174,-87.2 118,-87.2"/>
<text text-anchor="start" x="164.8862" y="-93.3" font-family="Helvetica,sans-Serif" font-size="11.00" fill="#000000"> &#160;</text>
<polygon fill="#ffffff" stroke="transparent" points="174,-87.2 174,-106.2 240,-106.2 240,-87.2 174,-87.2"/>
<polygon fill="none" stroke="#000000" points="174,-87.2 174,-106.2 240,-106.2 240,-87.2 174,-87.2"/>
<text text-anchor="start" x="221.4053" y="-93.3" font-family="Helvetica,sans-Serif" font-size="11.00" fill="#000000">2 &gt;</text>
</a>
</g>
</g>
<!-- punishment_schedule&#45;&gt;punishment -->
<g id="edge1" class="edge">
<title>punishment_schedule:w&#45;&gt;punishment:e</title>
<path fill="none" stroke="#000000" d="M277.0156,-268.2C264.6771,-268.2 257.1667,-268.2 240,-268.2"/>
<polygon fill="#000000" stroke="#000000" points="283.5,-268.2001 291.5,-271.8 287.5,-268.2 291.5,-268.2 291.5,-268.2 291.5,-268.2 287.5,-268.2 291.5,-264.6 283.5,-268.2001 283.5,-268.2001"/>
<ellipse fill="none" stroke="#000000" cx="280.3" cy="-268.2001" rx="3.2" ry="3.2"/>
</g>
</g>
</svg>
