<?xml version="1.0" encoding="UTF-8" standalone="no"?>
<!DOCTYPE svg PUBLIC "-//W3C//DTD SVG 1.1//EN"
 "http://www.w3.org/Graphics/SVG/1.1/DTD/svg11.dtd">
<!-- Generated by graphviz version 2.40.1 (20161225.0304)
 -->
<!-- Title: twoDegreesRelationshipsDiagram Pages: 1 -->
<svg width="683pt" height="973pt"
 viewBox="0.00 0.00 683.00 973.20" xmlns="http://www.w3.org/2000/svg" xmlns:xlink="http://www.w3.org/1999/xlink">
<g id="graph0" class="graph" transform="scale(1 1) rotate(0) translate(4 969.2)">
<title>twoDegreesRelationshipsDiagram</title>
<polygon fill="#ffffff" stroke="transparent" points="-4,4 -4,-969.2 679,-969.2 679,4 -4,4"/>
<text text-anchor="middle" x="72.4936" y="-7.3" font-family="Helvetica,sans-Serif" font-size="11.00" fill="#000000">Generated by SchemaSpy</text>
<!-- dis_issue_history -->
<g id="node1" class="node">
<title>dis_issue_history</title>
<g id="a_node1"><a xlink:href="../../tables/dis_issue_history.html" xlink:title="dis_issue_history" target="_top">
<polygon fill="#ffffff" stroke="transparent" points="442.5,-900.2 442.5,-961.2 595.5,-961.2 595.5,-900.2 442.5,-900.2"/>
<polygon fill="#f5f5f5" stroke="transparent" points="443,-937.7 443,-960.7 596,-960.7 596,-937.7 443,-937.7"/>
<polygon fill="none" stroke="#000000" points="443,-937.7 443,-960.7 596,-960.7 596,-937.7 443,-937.7"/>
<text text-anchor="start" x="448" y="-946.3" font-family="Helvetica,sans-Serif" font-weight="bold" font-size="11.00" fill="#000000">dis_issue_history</text>
<text text-anchor="start" x="561.5219" y="-945.8" font-family="Helvetica,sans-Serif" font-size="11.00" fill="#000000">[table]</text>
<polygon fill="none" stroke="#000000" points="443,-918.7 443,-937.7 596,-937.7 596,-918.7 443,-918.7"/>
<text text-anchor="start" x="446" y="-924.8" font-family="Helvetica,sans-Serif" font-size="11.00" fill="#000000">...</text>
<polygon fill="#ffffff" stroke="transparent" points="443,-899.7 443,-918.7 518,-918.7 518,-899.7 443,-899.7"/>
<polygon fill="none" stroke="#000000" points="443,-899.7 443,-918.7 518,-918.7 518,-899.7 443,-899.7"/>
<text text-anchor="start" x="446" y="-905.8" font-family="Helvetica,sans-Serif" font-size="11.00" fill="#000000">&lt; 1</text>
<polygon fill="#ffffff" stroke="transparent" points="518,-899.7 518,-918.7 557,-918.7 557,-899.7 518,-899.7"/>
<polygon fill="none" stroke="#000000" points="518,-899.7 518,-918.7 557,-918.7 557,-899.7 518,-899.7"/>
<text text-anchor="start" x="547.8862" y="-905.8" font-family="Helvetica,sans-Serif" font-size="11.00" fill="#000000"> &#160;</text>
<polygon fill="#ffffff" stroke="transparent" points="557,-899.7 557,-918.7 596,-918.7 596,-899.7 557,-899.7"/>
<polygon fill="none" stroke="#000000" points="557,-899.7 557,-918.7 596,-918.7 596,-899.7 557,-899.7"/>
<text text-anchor="start" x="586.8862" y="-905.8" font-family="Helvetica,sans-Serif" font-size="11.00" fill="#000000"> &#160;</text>
</a>
</g>
</g>
<!-- reported_adjudications -->
<g id="node2" class="node">
<title>reported_adjudications</title>
<g id="a_node2"><a xlink:href="../../tables/reported_adjudications.html" xlink:title="reported_adjudications" target="_top">
<polygon fill="#ffffff" stroke="transparent" points="8,-284.2 8,-609.2 322,-609.2 322,-284.2 8,-284.2"/>
<polygon fill="#f5f5f5" stroke="transparent" points="8,-585.7 8,-608.7 322,-608.7 322,-585.7 8,-585.7"/>
<polygon fill="none" stroke="#000000" points="8,-585.7 8,-608.7 322,-608.7 322,-585.7 8,-585.7"/>
<text text-anchor="start" x="13" y="-594.3" font-family="Helvetica,sans-Serif" font-weight="bold" font-size="11.00" fill="#000000">reported_adjudications</text>
<text text-anchor="start" x="287.0437" y="-593.8" font-family="Helvetica,sans-Serif" font-size="11.00" fill="#000000">[table]</text>
<polygon fill="none" stroke="#000000" points="8,-563.7 8,-585.7 322,-585.7 322,-563.7 8,-563.7"/>
<image xlink:href="../../images/primaryKeys.png" width="11px" height="12px" preserveAspectRatio="xMinYMin meet" x="13" y="-580.7"/>
<text text-anchor="start" x="28" y="-570.8" font-family="Helvetica,sans-Serif" font-size="11.00" fill="#000000">id</text>
<polygon fill="#ffffff" stroke="transparent" points="8,-541.7 8,-563.7 322,-563.7 322,-541.7 8,-541.7"/>
<polygon fill="none" stroke="#000000" points="8,-541.7 8,-563.7 322,-563.7 322,-541.7 8,-541.7"/>
<text text-anchor="start" x="28" y="-548.8" font-family="Helvetica,sans-Serif" font-size="11.00" fill="#000000">prisoner_number</text>
<polygon fill="#ffffff" stroke="transparent" points="8,-519.7 8,-541.7 322,-541.7 322,-519.7 8,-519.7"/>
<polygon fill="none" stroke="#000000" points="8,-519.7 8,-541.7 322,-541.7 322,-519.7 8,-519.7"/>
<text text-anchor="start" x="28" y="-526.8" font-family="Helvetica,sans-Serif" font-size="11.00" fill="#000000">charge_number</text>
<polygon fill="#ffffff" stroke="transparent" points="8,-497.7 8,-519.7 322,-519.7 322,-497.7 8,-497.7"/>
<polygon fill="none" stroke="#000000" points="8,-497.7 8,-519.7 322,-519.7 322,-497.7 8,-497.7"/>
<text text-anchor="start" x="28" y="-504.8" font-family="Helvetica,sans-Serif" font-size="11.00" fill="#000000">originating_agency_id</text>
<polygon fill="#ffffff" stroke="transparent" points="8,-475.7 8,-497.7 322,-497.7 322,-475.7 8,-475.7"/>
<polygon fill="none" stroke="#000000" points="8,-475.7 8,-497.7 322,-497.7 322,-475.7 8,-475.7"/>
<text text-anchor="start" x="28" y="-482.8" font-family="Helvetica,sans-Serif" font-size="11.00" fill="#000000">create_user_id</text>
<polygon fill="#ffffff" stroke="transparent" points="8,-453.7 8,-475.7 322,-475.7 322,-453.7 8,-453.7"/>
<polygon fill="none" stroke="#000000" points="8,-453.7 8,-475.7 322,-475.7 322,-453.7 8,-453.7"/>
<text text-anchor="start" x="28" y="-460.8" font-family="Helvetica,sans-Serif" font-size="11.00" fill="#000000">incident_role_associated_prisoners_number</text>
<polygon fill="#ffffff" stroke="transparent" points="8,-431.7 8,-453.7 322,-453.7 322,-431.7 8,-431.7"/>
<polygon fill="none" stroke="#000000" points="8,-431.7 8,-453.7 322,-453.7 322,-431.7 8,-431.7"/>
<text text-anchor="start" x="28" y="-438.8" font-family="Helvetica,sans-Serif" font-size="11.00" fill="#000000">status</text>
<polygon fill="#ffffff" stroke="transparent" points="8,-409.7 8,-431.7 322,-431.7 322,-409.7 8,-409.7"/>
<polygon fill="none" stroke="#000000" points="8,-409.7 8,-431.7 322,-431.7 322,-409.7 8,-409.7"/>
<text text-anchor="start" x="28" y="-416.8" font-family="Helvetica,sans-Serif" font-size="11.00" fill="#000000">date_time_of_discovery</text>
<polygon fill="#ffffff" stroke="transparent" points="8,-387.7 8,-409.7 322,-409.7 322,-387.7 8,-387.7"/>
<polygon fill="none" stroke="#000000" points="8,-387.7 8,-409.7 322,-409.7 322,-387.7 8,-387.7"/>
<text text-anchor="start" x="28" y="-394.8" font-family="Helvetica,sans-Serif" font-size="11.00" fill="#000000">date_time_of_first_hearing</text>
<polygon fill="#ffffff" stroke="transparent" points="8,-365.7 8,-387.7 322,-387.7 322,-365.7 8,-365.7"/>
<polygon fill="none" stroke="#000000" points="8,-365.7 8,-387.7 322,-387.7 322,-365.7 8,-365.7"/>
<text text-anchor="start" x="28" y="-372.8" font-family="Helvetica,sans-Serif" font-size="11.00" fill="#000000">override_agency_id</text>
<polygon fill="#ffffff" stroke="transparent" points="8,-343.7 8,-365.7 322,-365.7 322,-343.7 8,-343.7"/>
<polygon fill="none" stroke="#000000" points="8,-343.7 8,-365.7 322,-365.7 322,-343.7 8,-343.7"/>
<text text-anchor="start" x="28" y="-350.8" font-family="Helvetica,sans-Serif" font-size="11.00" fill="#000000">migrated</text>
<polygon fill="#ffffff" stroke="transparent" points="8,-321.7 8,-343.7 322,-343.7 322,-321.7 8,-321.7"/>
<polygon fill="none" stroke="#000000" points="8,-321.7 8,-343.7 322,-343.7 322,-321.7 8,-321.7"/>
<text text-anchor="start" x="28" y="-328.8" font-family="Helvetica,sans-Serif" font-size="11.00" fill="#000000">offender_booking_id</text>
<polygon fill="none" stroke="#000000" points="8,-302.7 8,-321.7 322,-321.7 322,-302.7 8,-302.7"/>
<text text-anchor="start" x="11" y="-308.8" font-family="Helvetica,sans-Serif" font-size="11.00" fill="#000000">...</text>
<polygon fill="#ffffff" stroke="transparent" points="8,-283.7 8,-302.7 154,-302.7 154,-283.7 8,-283.7"/>
<polygon fill="none" stroke="#000000" points="8,-283.7 8,-302.7 154,-302.7 154,-283.7 8,-283.7"/>
<text text-anchor="start" x="11" y="-289.8" font-family="Helvetica,sans-Serif" font-size="11.00" fill="#000000"> &#160;</text>
<polygon fill="#ffffff" stroke="transparent" points="154,-283.7 154,-302.7 233,-302.7 233,-283.7 154,-283.7"/>
<polygon fill="none" stroke="#000000" points="154,-283.7 154,-302.7 233,-302.7 233,-283.7 154,-283.7"/>
<text text-anchor="start" x="223.8862" y="-289.8" font-family="Helvetica,sans-Serif" font-size="11.00" fill="#000000"> &#160;</text>
<polygon fill="#ffffff" stroke="transparent" points="233,-283.7 233,-302.7 322,-302.7 322,-283.7 233,-283.7"/>
<polygon fill="none" stroke="#000000" points="233,-283.7 233,-302.7 322,-302.7 322,-283.7 233,-283.7"/>
<text text-anchor="start" x="303.4053" y="-289.8" font-family="Helvetica,sans-Serif" font-size="11.00" fill="#000000">9 &gt;</text>
</a>
</g>
</g>
<!-- dis_issue_history&#45;&gt;reported_adjudications -->
<g id="edge1" class="edge">
<title>dis_issue_history:w&#45;&gt;reported_adjudications:e</title>
<path fill="none" stroke="#000000" d="M428.409,-927.3285C398.8898,-925.6116 383.066,-917.3143 363,-889.7 321.5039,-832.5941 392.5905,-574.7 322,-574.7"/>
<polygon fill="#000000" stroke="#000000" points="435.0026,-927.4963 442.9083,-931.2988 439.0013,-927.5982 443,-927.7 443,-927.7 443,-927.7 439.0013,-927.5982 443.0917,-924.1012 435.0026,-927.4963 435.0026,-927.4963"/>
<ellipse fill="none" stroke="#000000" cx="431.8036" cy="-927.4148" rx="3.2" ry="3.2"/>
</g>
<!-- hearing -->
<g id="node3" class="node">
<title>hearing</title>
<g id="a_node3"><a xlink:href="../../tables/hearing.html" xlink:title="hearing" target="_top">
<polygon fill="#ffffff" stroke="transparent" points="474,-818.2 474,-879.2 564,-879.2 564,-818.2 474,-818.2"/>
<polygon fill="#f5f5f5" stroke="transparent" points="474,-855.7 474,-878.7 564,-878.7 564,-855.7 474,-855.7"/>
<polygon fill="none" stroke="#000000" points="474,-855.7 474,-878.7 564,-878.7 564,-855.7 474,-855.7"/>
<text text-anchor="start" x="479" y="-864.3" font-family="Helvetica,sans-Serif" font-weight="bold" font-size="11.00" fill="#000000">hearing</text>
<text text-anchor="start" x="529.5219" y="-863.8" font-family="Helvetica,sans-Serif" font-size="11.00" fill="#000000">[table]</text>
<polygon fill="none" stroke="#000000" points="474,-836.7 474,-855.7 564,-855.7 564,-836.7 474,-836.7"/>
<text text-anchor="start" x="477" y="-842.8" font-family="Helvetica,sans-Serif" font-size="11.00" fill="#000000">...</text>
<polygon fill="#ffffff" stroke="transparent" points="474,-817.7 474,-836.7 517,-836.7 517,-817.7 474,-817.7"/>
<polygon fill="none" stroke="#000000" points="474,-817.7 474,-836.7 517,-836.7 517,-817.7 474,-817.7"/>
<text text-anchor="start" x="477" y="-823.8" font-family="Helvetica,sans-Serif" font-size="11.00" fill="#000000">&lt; 2</text>
<polygon fill="#ffffff" stroke="transparent" points="517,-817.7 517,-836.7 540,-836.7 540,-817.7 517,-817.7"/>
<polygon fill="none" stroke="#000000" points="517,-817.7 517,-836.7 540,-836.7 540,-817.7 517,-817.7"/>
<text text-anchor="start" x="530.8862" y="-823.8" font-family="Helvetica,sans-Serif" font-size="11.00" fill="#000000"> &#160;</text>
<polygon fill="#ffffff" stroke="transparent" points="540,-817.7 540,-836.7 564,-836.7 564,-817.7 540,-817.7"/>
<polygon fill="none" stroke="#000000" points="540,-817.7 540,-836.7 564,-836.7 564,-817.7 540,-817.7"/>
<text text-anchor="start" x="554.8862" y="-823.8" font-family="Helvetica,sans-Serif" font-size="11.00" fill="#000000"> &#160;</text>
</a>
</g>
</g>
<!-- hearing&#45;&gt;reported_adjudications -->
<g id="edge2" class="edge">
<title>hearing:w&#45;&gt;reported_adjudications:e</title>
<path fill="none" stroke="#000000" d="M459.4674,-845.7066C416.8952,-845.6243 393.5833,-843.4568 363,-807.7 328.8279,-767.7473 374.5733,-574.7 322,-574.7"/>
<polygon fill="#000000" stroke="#000000" points="466,-845.7037 474.0017,-849.3 470,-845.7018 474,-845.7 474,-845.7 474,-845.7 470,-845.7018 473.9983,-842.1 466,-845.7037 466,-845.7037"/>
<ellipse fill="none" stroke="#000000" cx="462.8" cy="-845.7052" rx="3.2" ry="3.2"/>
</g>
<!-- outcome -->
<g id="node4" class="node">
<title>outcome</title>
<g id="a_node4"><a xlink:href="../../tables/outcome.html" xlink:title="outcome" target="_top">
<polygon fill="#ffffff" stroke="transparent" points="470.5,-736.2 470.5,-797.2 567.5,-797.2 567.5,-736.2 470.5,-736.2"/>
<polygon fill="#f5f5f5" stroke="transparent" points="471,-773.7 471,-796.7 568,-796.7 568,-773.7 471,-773.7"/>
<polygon fill="none" stroke="#000000" points="471,-773.7 471,-796.7 568,-796.7 568,-773.7 471,-773.7"/>
<text text-anchor="start" x="476" y="-782.3" font-family="Helvetica,sans-Serif" font-weight="bold" font-size="11.00" fill="#000000">outcome</text>
<text text-anchor="start" x="533.5219" y="-781.8" font-family="Helvetica,sans-Serif" font-size="11.00" fill="#000000">[table]</text>
<polygon fill="none" stroke="#000000" points="471,-754.7 471,-773.7 568,-773.7 568,-754.7 471,-754.7"/>
<text text-anchor="start" x="474" y="-760.8" font-family="Helvetica,sans-Serif" font-size="11.00" fill="#000000">...</text>
<polygon fill="#ffffff" stroke="transparent" points="471,-735.7 471,-754.7 518,-754.7 518,-735.7 471,-735.7"/>
<polygon fill="none" stroke="#000000" points="471,-735.7 471,-754.7 518,-754.7 518,-735.7 471,-735.7"/>
<text text-anchor="start" x="474" y="-741.8" font-family="Helvetica,sans-Serif" font-size="11.00" fill="#000000">&lt; 1</text>
<polygon fill="#ffffff" stroke="transparent" points="518,-735.7 518,-754.7 543,-754.7 543,-735.7 518,-735.7"/>
<polygon fill="none" stroke="#000000" points="518,-735.7 518,-754.7 543,-754.7 543,-735.7 518,-735.7"/>
<text text-anchor="start" x="533.8862" y="-741.8" font-family="Helvetica,sans-Serif" font-size="11.00" fill="#000000"> &#160;</text>
<polygon fill="#ffffff" stroke="transparent" points="543,-735.7 543,-754.7 568,-754.7 568,-735.7 543,-735.7"/>
<polygon fill="none" stroke="#000000" points="543,-735.7 543,-754.7 568,-754.7 568,-735.7 543,-735.7"/>
<text text-anchor="start" x="558.8862" y="-741.8" font-family="Helvetica,sans-Serif" font-size="11.00" fill="#000000"> &#160;</text>
</a>
</g>
</g>
<!-- outcome&#45;&gt;reported_adjudications -->
<g id="edge3" class="edge">
<title>outcome:w&#45;&gt;reported_adjudications:e</title>
<path fill="none" stroke="#000000" d="M456.5998,-763.643C415.5173,-763.1926 394.1897,-759.2604 363,-725.7 315.6592,-674.7609 391.541,-574.7 322,-574.7"/>
<polygon fill="#000000" stroke="#000000" points="463.0001,-763.6683 470.9857,-767.3 467,-763.6841 471,-763.7 471,-763.7 471,-763.7 467,-763.6841 471.0143,-760.1 463.0001,-763.6683 463.0001,-763.6683"/>
<ellipse fill="none" stroke="#000000" cx="459.8001" cy="-763.6556" rx="3.2" ry="3.2"/>
</g>
<!-- punishment -->
<g id="node5" class="node">
<title>punishment</title>
<g id="a_node5"><a xlink:href="../../tables/punishment.html" xlink:title="punishment" target="_top">
<polygon fill="#ffffff" stroke="transparent" points="459.5,-654.2 459.5,-715.2 578.5,-715.2 578.5,-654.2 459.5,-654.2"/>
<polygon fill="#f5f5f5" stroke="transparent" points="460,-691.7 460,-714.7 579,-714.7 579,-691.7 460,-691.7"/>
<polygon fill="none" stroke="#000000" points="460,-691.7 460,-714.7 579,-714.7 579,-691.7 460,-691.7"/>
<text text-anchor="start" x="465" y="-700.3" font-family="Helvetica,sans-Serif" font-weight="bold" font-size="11.00" fill="#000000">punishment</text>
<text text-anchor="start" x="544.5219" y="-699.8" font-family="Helvetica,sans-Serif" font-size="11.00" fill="#000000">[table]</text>
<polygon fill="none" stroke="#000000" points="460,-672.7 460,-691.7 579,-691.7 579,-672.7 460,-672.7"/>
<text text-anchor="start" x="463" y="-678.8" font-family="Helvetica,sans-Serif" font-size="11.00" fill="#000000">...</text>
<polygon fill="#ffffff" stroke="transparent" points="460,-653.7 460,-672.7 513,-672.7 513,-653.7 460,-653.7"/>
<polygon fill="none" stroke="#000000" points="460,-653.7 460,-672.7 513,-672.7 513,-653.7 460,-653.7"/>
<text text-anchor="start" x="463" y="-659.8" font-family="Helvetica,sans-Serif" font-size="11.00" fill="#000000">&lt; 1</text>
<polygon fill="#ffffff" stroke="transparent" points="513,-653.7 513,-672.7 541,-672.7 541,-653.7 513,-653.7"/>
<polygon fill="none" stroke="#000000" points="513,-653.7 513,-672.7 541,-672.7 541,-653.7 513,-653.7"/>
<text text-anchor="start" x="531.8862" y="-659.8" font-family="Helvetica,sans-Serif" font-size="11.00" fill="#000000"> &#160;</text>
<polygon fill="#ffffff" stroke="transparent" points="541,-653.7 541,-672.7 579,-672.7 579,-653.7 541,-653.7"/>
<polygon fill="none" stroke="#000000" points="541,-653.7 541,-672.7 579,-672.7 579,-653.7 541,-653.7"/>
<text text-anchor="start" x="560.4053" y="-659.8" font-family="Helvetica,sans-Serif" font-size="11.00" fill="#000000">2 &gt;</text>
</a>
</g>
</g>
<!-- punishment&#45;&gt;reported_adjudications -->
<g id="edge4" class="edge">
<title>punishment:w&#45;&gt;reported_adjudications:e</title>
<path fill="none" stroke="#000000" d="M445.3804,-681.3706C409.9532,-679.5991 394.2951,-670.2749 363,-643.7 335.809,-620.6101 357.672,-574.7 322,-574.7"/>
<polygon fill="#000000" stroke="#000000" points="452.002,-681.5198 459.9189,-685.2991 456.001,-681.6099 460,-681.7 460,-681.7 460,-681.7 456.001,-681.6099 460.0811,-678.1009 452.002,-681.5198 452.002,-681.5198"/>
<ellipse fill="none" stroke="#000000" cx="448.8028" cy="-681.4477" rx="3.2" ry="3.2"/>
</g>
<!-- punishment_comments -->
<g id="node6" class="node">
<title>punishment_comments</title>
<g id="a_node6"><a xlink:href="../../tables/punishment_comments.html" xlink:title="punishment_comments" target="_top">
<polygon fill="#ffffff" stroke="transparent" points="371,-366.7 371,-632.7 667,-632.7 667,-366.7 371,-366.7"/>
<polygon fill="#f5f5f5" stroke="transparent" points="373,-607.7 373,-630.7 665,-630.7 665,-607.7 373,-607.7"/>
<polygon fill="none" stroke="#000000" points="373,-607.7 373,-630.7 665,-630.7 665,-607.7 373,-607.7"/>
<text text-anchor="start" x="378" y="-616.3" font-family="Helvetica,sans-Serif" font-weight="bold" font-size="11.00" fill="#000000">punishment_comments</text>
<text text-anchor="start" x="630.0437" y="-615.8" font-family="Helvetica,sans-Serif" font-size="11.00" fill="#000000">[table]</text>
<polygon fill="none" stroke="#000000" points="373,-585.7 373,-607.7 581,-607.7 581,-585.7 373,-585.7"/>
<image xlink:href="../../images/primaryKeys.png" width="11px" height="12px" preserveAspectRatio="xMinYMin meet" x="378" y="-602.7"/>
<text text-anchor="start" x="393" y="-592.8" font-family="Helvetica,sans-Serif" font-size="11.00" fill="#000000">id</text>
<polygon fill="none" stroke="#000000" points="581,-585.7 581,-607.7 665,-607.7 665,-585.7 581,-585.7"/>
<text text-anchor="start" x="584" y="-593.4" font-family="Helvetica,sans-Serif" font-size="11.00" fill="#000000">serial[10]</text>
<polygon fill="#ffffff" stroke="transparent" points="373,-563.7 373,-585.7 581,-585.7 581,-563.7 373,-563.7"/>
<polygon fill="none" stroke="#000000" points="373,-563.7 373,-585.7 581,-585.7 581,-563.7 373,-563.7"/>
<image xlink:href="../../images/foreignKeys.png" width="11px" height="12px" preserveAspectRatio="xMinYMin meet" x="378" y="-580.7"/>
<text text-anchor="start" x="393" y="-570.8" font-family="Helvetica,sans-Serif" font-size="11.00" fill="#000000">reported_adjudication_fk_id</text>
<polygon fill="none" stroke="#000000" points="581,-563.7 581,-585.7 665,-585.7 665,-563.7 581,-563.7"/>
<text text-anchor="start" x="584" y="-571.4" font-family="Helvetica,sans-Serif" font-size="11.00" fill="#000000">int8[19]</text>
<polygon fill="none" stroke="#000000" points="373,-541.7 373,-563.7 581,-563.7 581,-541.7 373,-541.7"/>
<text text-anchor="start" x="393" y="-548.8" font-family="Helvetica,sans-Serif" font-size="11.00" fill="#000000">comment</text>
<polygon fill="none" stroke="#000000" points="581,-541.7 581,-563.7 665,-563.7 665,-541.7 581,-541.7"/>
<text text-anchor="start" x="584" y="-549.4" font-family="Helvetica,sans-Serif" font-size="11.00" fill="#000000">varchar[4000]</text>
<polygon fill="none" stroke="#000000" points="373,-519.7 373,-541.7 581,-541.7 581,-519.7 373,-519.7"/>
<text text-anchor="start" x="393" y="-526.8" font-family="Helvetica,sans-Serif" font-size="11.00" fill="#000000">create_user_id</text>
<polygon fill="none" stroke="#000000" points="581,-519.7 581,-541.7 665,-541.7 665,-519.7 581,-519.7"/>
<text text-anchor="start" x="584" y="-527.4" font-family="Helvetica,sans-Serif" font-size="11.00" fill="#000000">varchar[32]</text>
<polygon fill="none" stroke="#000000" points="373,-497.7 373,-519.7 581,-519.7 581,-497.7 373,-497.7"/>
<text text-anchor="start" x="393" y="-504.8" font-family="Helvetica,sans-Serif" font-size="11.00" fill="#000000">create_datetime</text>
<polygon fill="none" stroke="#000000" points="581,-497.7 581,-519.7 665,-519.7 665,-497.7 581,-497.7"/>
<text text-anchor="start" x="583.8807" y="-505.4" font-family="Helvetica,sans-Serif" font-size="11.00" fill="#000000">timestamp[29,6]</text>
<polygon fill="none" stroke="#000000" points="373,-475.7 373,-497.7 581,-497.7 581,-475.7 373,-475.7"/>
<text text-anchor="start" x="393" y="-482.8" font-family="Helvetica,sans-Serif" font-size="11.00" fill="#000000">modify_user_id</text>
<polygon fill="none" stroke="#000000" points="581,-475.7 581,-497.7 665,-497.7 665,-475.7 581,-475.7"/>
<text text-anchor="start" x="584" y="-483.4" font-family="Helvetica,sans-Serif" font-size="11.00" fill="#000000">varchar[32]</text>
<polygon fill="none" stroke="#000000" points="373,-453.7 373,-475.7 581,-475.7 581,-453.7 373,-453.7"/>
<text text-anchor="start" x="393" y="-460.8" font-family="Helvetica,sans-Serif" font-size="11.00" fill="#000000">modify_datetime</text>
<polygon fill="none" stroke="#000000" points="581,-453.7 581,-475.7 665,-475.7 665,-453.7 581,-453.7"/>
<text text-anchor="start" x="583.8807" y="-461.4" font-family="Helvetica,sans-Serif" font-size="11.00" fill="#000000">timestamp[29,6]</text>
<polygon fill="none" stroke="#000000" points="373,-431.7 373,-453.7 581,-453.7 581,-431.7 373,-431.7"/>
<text text-anchor="start" x="393" y="-438.8" font-family="Helvetica,sans-Serif" font-size="11.00" fill="#000000">reason_for_change</text>
<polygon fill="none" stroke="#000000" points="581,-431.7 581,-453.7 665,-453.7 665,-431.7 581,-431.7"/>
<text text-anchor="start" x="584" y="-439.4" font-family="Helvetica,sans-Serif" font-size="11.00" fill="#000000">varchar[32]</text>
<polygon fill="none" stroke="#000000" points="373,-409.7 373,-431.7 581,-431.7 581,-409.7 373,-409.7"/>
<text text-anchor="start" x="393" y="-416.8" font-family="Helvetica,sans-Serif" font-size="11.00" fill="#000000">nomis_created_by</text>
<polygon fill="none" stroke="#000000" points="581,-409.7 581,-431.7 665,-431.7 665,-409.7 581,-409.7"/>
<text text-anchor="start" x="584" y="-417.4" font-family="Helvetica,sans-Serif" font-size="11.00" fill="#000000">varchar[32]</text>
<polygon fill="none" stroke="#000000" points="373,-387.7 373,-409.7 581,-409.7 581,-387.7 373,-387.7"/>
<text text-anchor="start" x="393" y="-394.8" font-family="Helvetica,sans-Serif" font-size="11.00" fill="#000000">actual_created_date</text>
<polygon fill="none" stroke="#000000" points="581,-387.7 581,-409.7 665,-409.7 665,-387.7 581,-387.7"/>
<text text-anchor="start" x="583.8807" y="-395.4" font-family="Helvetica,sans-Serif" font-size="11.00" fill="#000000">timestamp[29,6]</text>
<polygon fill="#ffffff" stroke="transparent" points="373,-368.7 373,-387.7 481,-387.7 481,-368.7 373,-368.7"/>
<polygon fill="none" stroke="#000000" points="373,-368.7 373,-387.7 481,-387.7 481,-368.7 373,-368.7"/>
<text text-anchor="start" x="376" y="-374.8" font-family="Helvetica,sans-Serif" font-size="11.00" fill="#000000">&lt; 1</text>
<polygon fill="#ffffff" stroke="transparent" points="481,-368.7 481,-387.7 581,-387.7 581,-368.7 481,-368.7"/>
<polygon fill="none" stroke="#000000" points="481,-368.7 481,-387.7 581,-387.7 581,-368.7 481,-368.7"/>
<text text-anchor="start" x="571.8862" y="-374.8" font-family="Helvetica,sans-Serif" font-size="11.00" fill="#000000"> &#160;</text>
<polygon fill="#ffffff" stroke="transparent" points="581,-368.7 581,-387.7 665,-387.7 665,-368.7 581,-368.7"/>
<polygon fill="none" stroke="#000000" points="581,-368.7 581,-387.7 665,-387.7 665,-368.7 581,-368.7"/>
<text text-anchor="start" x="646.4053" y="-374.8" font-family="Helvetica,sans-Serif" font-size="11.00" fill="#000000">0 &gt;</text>
<polygon fill="none" stroke="#000000" stroke-width="2" points="372,-367.7 372,-631.7 666,-631.7 666,-367.7 372,-367.7"/>
</a>
</g>
</g>
<!-- punishment_comments&#45;&gt;reported_adjudications -->
<g id="edge5" class="edge">
<title>punishment_comments:w&#45;&gt;reported_adjudications:e</title>
<path fill="none" stroke="#000000" d="M358.276,-574.7C346.2815,-574.7 338.8229,-574.7 322,-574.7"/>
<polygon fill="#000000" stroke="#000000" points="365,-574.7001 373,-578.3 369,-574.7 373,-574.7 373,-574.7 373,-574.7 369,-574.7 373,-571.1 365,-574.7001 365,-574.7001"/>
<ellipse fill="none" stroke="#000000" cx="361.8" cy="-574.7001" rx="3.2" ry="3.2"/>
</g>
<!-- reported_damages -->
<g id="node7" class="node">
<title>reported_damages</title>
<g id="a_node7"><a xlink:href="../../tables/reported_damages.html" xlink:title="reported_damages" target="_top">
<polygon fill="#ffffff" stroke="transparent" points="436.5,-284.2 436.5,-345.2 601.5,-345.2 601.5,-284.2 436.5,-284.2"/>
<polygon fill="#f5f5f5" stroke="transparent" points="437,-321.7 437,-344.7 602,-344.7 602,-321.7 437,-321.7"/>
<polygon fill="none" stroke="#000000" points="437,-321.7 437,-344.7 602,-344.7 602,-321.7 437,-321.7"/>
<text text-anchor="start" x="442" y="-330.3" font-family="Helvetica,sans-Serif" font-weight="bold" font-size="11.00" fill="#000000">reported_damages</text>
<text text-anchor="start" x="567.5219" y="-329.8" font-family="Helvetica,sans-Serif" font-size="11.00" fill="#000000">[table]</text>
<polygon fill="none" stroke="#000000" points="437,-302.7 437,-321.7 602,-321.7 602,-302.7 437,-302.7"/>
<text text-anchor="start" x="440" y="-308.8" font-family="Helvetica,sans-Serif" font-size="11.00" fill="#000000">...</text>
<polygon fill="#ffffff" stroke="transparent" points="437,-283.7 437,-302.7 518,-302.7 518,-283.7 437,-283.7"/>
<polygon fill="none" stroke="#000000" points="437,-283.7 437,-302.7 518,-302.7 518,-283.7 437,-283.7"/>
<text text-anchor="start" x="440" y="-289.8" font-family="Helvetica,sans-Serif" font-size="11.00" fill="#000000">&lt; 1</text>
<polygon fill="#ffffff" stroke="transparent" points="518,-283.7 518,-302.7 560,-302.7 560,-283.7 518,-283.7"/>
<polygon fill="none" stroke="#000000" points="518,-283.7 518,-302.7 560,-302.7 560,-283.7 518,-283.7"/>
<text text-anchor="start" x="550.8862" y="-289.8" font-family="Helvetica,sans-Serif" font-size="11.00" fill="#000000"> &#160;</text>
<polygon fill="#ffffff" stroke="transparent" points="560,-283.7 560,-302.7 602,-302.7 602,-283.7 560,-283.7"/>
<polygon fill="none" stroke="#000000" points="560,-283.7 560,-302.7 602,-302.7 602,-283.7 560,-283.7"/>
<text text-anchor="start" x="592.8862" y="-289.8" font-family="Helvetica,sans-Serif" font-size="11.00" fill="#000000"> &#160;</text>
</a>
</g>
</g>
<!-- reported_damages&#45;&gt;reported_adjudications -->
<g id="edge6" class="edge">
<title>reported_damages:w&#45;&gt;reported_adjudications:e</title>
<path fill="none" stroke="#000000" d="M422.5226,-312.4609C394.6313,-315.6909 381.9045,-329.3715 363,-356.7 334.9567,-397.2395 371.2938,-574.7 322,-574.7"/>
<polygon fill="#000000" stroke="#000000" points="429.011,-312.12 437.189,-315.295 433.0055,-311.91 437,-311.7 437,-311.7 437,-311.7 433.0055,-311.91 436.811,-308.105 429.011,-312.12 429.011,-312.12"/>
<ellipse fill="none" stroke="#000000" cx="425.8154" cy="-312.2879" rx="3.2" ry="3.2"/>
</g>
<!-- reported_evidence -->
<g id="node8" class="node">
<title>reported_evidence</title>
<g id="a_node8"><a xlink:href="../../tables/reported_evidence.html" xlink:title="reported_evidence" target="_top">
<polygon fill="#ffffff" stroke="transparent" points="437,-202.2 437,-263.2 601,-263.2 601,-202.2 437,-202.2"/>
<polygon fill="#f5f5f5" stroke="transparent" points="437,-239.7 437,-262.7 601,-262.7 601,-239.7 437,-239.7"/>
<polygon fill="none" stroke="#000000" points="437,-239.7 437,-262.7 601,-262.7 601,-239.7 437,-239.7"/>
<text text-anchor="start" x="442" y="-248.3" font-family="Helvetica,sans-Serif" font-weight="bold" font-size="11.00" fill="#000000">reported_evidence</text>
<text text-anchor="start" x="566.5219" y="-247.8" font-family="Helvetica,sans-Serif" font-size="11.00" fill="#000000">[table]</text>
<polygon fill="none" stroke="#000000" points="437,-220.7 437,-239.7 601,-239.7 601,-220.7 437,-220.7"/>
<text text-anchor="start" x="440" y="-226.8" font-family="Helvetica,sans-Serif" font-size="11.00" fill="#000000">...</text>
<polygon fill="#ffffff" stroke="transparent" points="437,-201.7 437,-220.7 517,-220.7 517,-201.7 437,-201.7"/>
<polygon fill="none" stroke="#000000" points="437,-201.7 437,-220.7 517,-220.7 517,-201.7 437,-201.7"/>
<text text-anchor="start" x="440" y="-207.8" font-family="Helvetica,sans-Serif" font-size="11.00" fill="#000000">&lt; 1</text>
<polygon fill="#ffffff" stroke="transparent" points="517,-201.7 517,-220.7 559,-220.7 559,-201.7 517,-201.7"/>
<polygon fill="none" stroke="#000000" points="517,-201.7 517,-220.7 559,-220.7 559,-201.7 517,-201.7"/>
<text text-anchor="start" x="549.8862" y="-207.8" font-family="Helvetica,sans-Serif" font-size="11.00" fill="#000000"> &#160;</text>
<polygon fill="#ffffff" stroke="transparent" points="559,-201.7 559,-220.7 601,-220.7 601,-201.7 559,-201.7"/>
<polygon fill="none" stroke="#000000" points="559,-201.7 559,-220.7 601,-220.7 601,-201.7 559,-201.7"/>
<text text-anchor="start" x="591.8862" y="-207.8" font-family="Helvetica,sans-Serif" font-size="11.00" fill="#000000"> &#160;</text>
</a>
</g>
</g>
<!-- reported_evidence&#45;&gt;reported_adjudications -->
<g id="edge7" class="edge">
<title>reported_evidence:w&#45;&gt;reported_adjudications:e</title>
<path fill="none" stroke="#000000" d="M422.5552,-230.398C394.6194,-233.3779 381.2368,-246.1583 363,-273.7 325.7302,-329.9859 389.5066,-574.7 322,-574.7"/>
<polygon fill="#000000" stroke="#000000" points="429.0093,-230.0862 437.1738,-233.2958 433.0047,-229.8931 437,-229.7 437,-229.7 437,-229.7 433.0047,-229.8931 436.8262,-226.1042 429.0093,-230.0862 429.0093,-230.0862"/>
<ellipse fill="none" stroke="#000000" cx="425.8131" cy="-230.2407" rx="3.2" ry="3.2"/>
</g>
<!-- reported_offence -->
<g id="node9" class="node">
<title>reported_offence</title>
<g id="a_node9"><a xlink:href="../../tables/reported_offence.html" xlink:title="reported_offence" target="_top">
<polygon fill="#ffffff" stroke="transparent" points="442,-120.2 442,-181.2 596,-181.2 596,-120.2 442,-120.2"/>
<polygon fill="#f5f5f5" stroke="transparent" points="442,-157.7 442,-180.7 596,-180.7 596,-157.7 442,-157.7"/>
<polygon fill="none" stroke="#000000" points="442,-157.7 442,-180.7 596,-180.7 596,-157.7 442,-157.7"/>
<text text-anchor="start" x="447" y="-166.3" font-family="Helvetica,sans-Serif" font-weight="bold" font-size="11.00" fill="#000000">reported_offence</text>
<text text-anchor="start" x="561.5219" y="-165.8" font-family="Helvetica,sans-Serif" font-size="11.00" fill="#000000">[table]</text>
<polygon fill="none" stroke="#000000" points="442,-138.7 442,-157.7 596,-157.7 596,-138.7 442,-138.7"/>
<text text-anchor="start" x="445" y="-144.8" font-family="Helvetica,sans-Serif" font-size="11.00" fill="#000000">...</text>
<polygon fill="#ffffff" stroke="transparent" points="442,-119.7 442,-138.7 513,-138.7 513,-119.7 442,-119.7"/>
<polygon fill="none" stroke="#000000" points="442,-119.7 442,-138.7 513,-138.7 513,-119.7 442,-119.7"/>
<text text-anchor="start" x="445" y="-125.8" font-family="Helvetica,sans-Serif" font-size="11.00" fill="#000000">&lt; 1</text>
<polygon fill="#ffffff" stroke="transparent" points="513,-119.7 513,-138.7 550,-138.7 550,-119.7 513,-119.7"/>
<polygon fill="none" stroke="#000000" points="513,-119.7 513,-138.7 550,-138.7 550,-119.7 513,-119.7"/>
<text text-anchor="start" x="540.8862" y="-125.8" font-family="Helvetica,sans-Serif" font-size="11.00" fill="#000000"> &#160;</text>
<polygon fill="#ffffff" stroke="transparent" points="550,-119.7 550,-138.7 596,-138.7 596,-119.7 550,-119.7"/>
<polygon fill="none" stroke="#000000" points="550,-119.7 550,-138.7 596,-138.7 596,-119.7 550,-119.7"/>
<text text-anchor="start" x="577.4053" y="-125.8" font-family="Helvetica,sans-Serif" font-size="11.00" fill="#000000">1 &gt;</text>
</a>
</g>
</g>
<!-- reported_offence&#45;&gt;reported_adjudications -->
<g id="edge8" class="edge">
<title>reported_offence:w&#45;&gt;reported_adjudications:e</title>
<path fill="none" stroke="#000000" d="M427.57,-148.2496C397.4307,-150.7859 382.3212,-162.5055 363,-191.7 315.7593,-263.0809 407.5974,-574.7 322,-574.7"/>
<polygon fill="#000000" stroke="#000000" points="434.0058,-148.0045 442.137,-151.2974 438.0029,-147.8523 442,-147.7 442,-147.7 442,-147.7 438.0029,-147.8523 441.863,-144.1026 434.0058,-148.0045 434.0058,-148.0045"/>
<ellipse fill="none" stroke="#000000" cx="430.8081" cy="-148.1263" rx="3.2" ry="3.2"/>
</g>
<!-- reported_witness -->
<g id="node10" class="node">
<title>reported_witness</title>
<g id="a_node10"><a xlink:href="../../tables/reported_witness.html" xlink:title="reported_witness" target="_top">
<polygon fill="#ffffff" stroke="transparent" points="441,-38.2 441,-99.2 597,-99.2 597,-38.2 441,-38.2"/>
<polygon fill="#f5f5f5" stroke="transparent" points="441,-75.7 441,-98.7 597,-98.7 597,-75.7 441,-75.7"/>
<polygon fill="none" stroke="#000000" points="441,-75.7 441,-98.7 597,-98.7 597,-75.7 441,-75.7"/>
<text text-anchor="start" x="446" y="-84.3" font-family="Helvetica,sans-Serif" font-weight="bold" font-size="11.00" fill="#000000">reported_witness</text>
<text text-anchor="start" x="562.5219" y="-83.8" font-family="Helvetica,sans-Serif" font-size="11.00" fill="#000000">[table]</text>
<polygon fill="none" stroke="#000000" points="441,-56.7 441,-75.7 597,-75.7 597,-56.7 441,-56.7"/>
<text text-anchor="start" x="444" y="-62.8" font-family="Helvetica,sans-Serif" font-size="11.00" fill="#000000">...</text>
<polygon fill="#ffffff" stroke="transparent" points="441,-37.7 441,-56.7 517,-56.7 517,-37.7 441,-37.7"/>
<polygon fill="none" stroke="#000000" points="441,-37.7 441,-56.7 517,-56.7 517,-37.7 441,-37.7"/>
<text text-anchor="start" x="444" y="-43.8" font-family="Helvetica,sans-Serif" font-size="11.00" fill="#000000">&lt; 1</text>
<polygon fill="#ffffff" stroke="transparent" points="517,-37.7 517,-56.7 557,-56.7 557,-37.7 517,-37.7"/>
<polygon fill="none" stroke="#000000" points="517,-37.7 517,-56.7 557,-56.7 557,-37.7 517,-37.7"/>
<text text-anchor="start" x="547.8862" y="-43.8" font-family="Helvetica,sans-Serif" font-size="11.00" fill="#000000"> &#160;</text>
<polygon fill="#ffffff" stroke="transparent" points="557,-37.7 557,-56.7 597,-56.7 597,-37.7 557,-37.7"/>
<polygon fill="none" stroke="#000000" points="557,-37.7 557,-56.7 597,-56.7 597,-37.7 557,-37.7"/>
<text text-anchor="start" x="587.8862" y="-43.8" font-family="Helvetica,sans-Serif" font-size="11.00" fill="#000000"> &#160;</text>
</a>
</g>
</g>
<!-- reported_witness&#45;&gt;reported_adjudications -->
<g id="edge9" class="edge">
<title>reported_witness:w&#45;&gt;reported_adjudications:e</title>
<path fill="none" stroke="#000000" d="M426.3016,-66.287C396.6927,-68.9053 381.7004,-80.689 363,-109.7 334.8988,-153.295 373.8671,-574.7 322,-574.7"/>
<polygon fill="#000000" stroke="#000000" points="433.0064,-66.0193 441.1437,-69.2971 437.0032,-65.8597 441,-65.7 441,-65.7 441,-65.7 437.0032,-65.8597 440.8563,-62.1029 433.0064,-66.0193 433.0064,-66.0193"/>
<ellipse fill="none" stroke="#000000" cx="429.8089" cy="-66.147" rx="3.2" ry="3.2"/>
</g>
</g>
</svg>
