<?xml version="1.0" encoding="UTF-8" standalone="no"?>
<!DOCTYPE svg PUBLIC "-//W3C//DTD SVG 1.1//EN"
 "http://www.w3.org/Graphics/SVG/1.1/DTD/svg11.dtd">
<!-- Generated by graphviz version 2.40.1 (20161225.0304)
 -->
<!-- Title: twoDegreesRelationshipsDiagram Pages: 1 -->
<svg width="804pt" height="432pt"
 viewBox="0.00 0.00 804.00 431.70" xmlns="http://www.w3.org/2000/svg" xmlns:xlink="http://www.w3.org/1999/xlink">
<g id="graph0" class="graph" transform="scale(1 1) rotate(0) translate(4 427.7)">
<title>twoDegreesRelationshipsDiagram</title>
<polygon fill="#ffffff" stroke="transparent" points="-4,4 -4,-427.7 800,-427.7 800,4 -4,4"/>
<text text-anchor="middle" x="72.4936" y="-7.3" font-family="Helvetica,sans-Serif" font-size="11.00" fill="#000000">Generated by SchemaSpy</text>
<!-- punishment -->
<g id="node1" class="node">
<title>punishment</title>
<g id="a_node1"><a xlink:href="../../tables/punishment.html" xlink:title="punishment" target="_top">
<polygon fill="#ffffff" stroke="transparent" points="252,-38.2 252,-253.2 484,-253.2 484,-38.2 252,-38.2"/>
<polygon fill="#f5f5f5" stroke="transparent" points="252,-229.7 252,-252.7 484,-252.7 484,-229.7 252,-229.7"/>
<polygon fill="none" stroke="#000000" points="252,-229.7 252,-252.7 484,-252.7 484,-229.7 252,-229.7"/>
<text text-anchor="start" x="257" y="-238.3" font-family="Helvetica,sans-Serif" font-weight="bold" font-size="11.00" fill="#000000">punishment</text>
<text text-anchor="start" x="449.0437" y="-237.8" font-family="Helvetica,sans-Serif" font-size="11.00" fill="#000000">[table]</text>
<polygon fill="none" stroke="#000000" points="252,-207.7 252,-229.7 484,-229.7 484,-207.7 252,-207.7"/>
<image xlink:href="../../images/primaryKeys.png" width="11px" height="12px" preserveAspectRatio="xMinYMin meet" x="257" y="-224.7"/>
<text text-anchor="start" x="272" y="-214.8" font-family="Helvetica,sans-Serif" font-size="11.00" fill="#000000">id</text>
<polygon fill="#ffffff" stroke="transparent" points="252,-185.7 252,-207.7 484,-207.7 484,-185.7 252,-185.7"/>
<polygon fill="none" stroke="#000000" points="252,-185.7 252,-207.7 484,-207.7 484,-185.7 252,-185.7"/>
<image xlink:href="../../images/foreignKeys.png" width="11px" height="12px" preserveAspectRatio="xMinYMin meet" x="257" y="-202.7"/>
<text text-anchor="start" x="272" y="-192.8" font-family="Helvetica,sans-Serif" font-size="11.00" fill="#000000">reported_adjudication_fk_id</text>
<polygon fill="#ffffff" stroke="transparent" points="252,-163.7 252,-185.7 484,-185.7 484,-163.7 252,-163.7"/>
<polygon fill="none" stroke="#000000" points="252,-163.7 252,-185.7 484,-185.7 484,-163.7 252,-163.7"/>
<text text-anchor="start" x="272" y="-170.8" font-family="Helvetica,sans-Serif" font-size="11.00" fill="#000000">type</text>
<polygon fill="#ffffff" stroke="transparent" points="252,-141.7 252,-163.7 484,-163.7 484,-141.7 252,-141.7"/>
<polygon fill="none" stroke="#000000" points="252,-141.7 252,-163.7 484,-163.7 484,-141.7 252,-141.7"/>
<text text-anchor="start" x="272" y="-148.8" font-family="Helvetica,sans-Serif" font-size="11.00" fill="#000000">activated_by_charge_number</text>
<polygon fill="#ffffff" stroke="transparent" points="252,-119.7 252,-141.7 484,-141.7 484,-119.7 252,-119.7"/>
<polygon fill="none" stroke="#000000" points="252,-119.7 252,-141.7 484,-141.7 484,-119.7 252,-119.7"/>
<text text-anchor="start" x="272" y="-126.8" font-family="Helvetica,sans-Serif" font-size="11.00" fill="#000000">suspended_until</text>
<polygon fill="#ffffff" stroke="transparent" points="252,-97.7 252,-119.7 484,-119.7 484,-97.7 252,-97.7"/>
<polygon fill="none" stroke="#000000" points="252,-97.7 252,-119.7 484,-119.7 484,-97.7 252,-97.7"/>
<text text-anchor="start" x="272" y="-104.8" font-family="Helvetica,sans-Serif" font-size="11.00" fill="#000000">consecutive_to_charge_number</text>
<polygon fill="#ffffff" stroke="transparent" points="252,-75.7 252,-97.7 484,-97.7 484,-75.7 252,-75.7"/>
<polygon fill="none" stroke="#000000" points="252,-75.7 252,-97.7 484,-97.7 484,-75.7 252,-75.7"/>
<text text-anchor="start" x="272" y="-82.8" font-family="Helvetica,sans-Serif" font-size="11.00" fill="#000000">punishment_pre_migrate_id</text>
<polygon fill="none" stroke="#000000" points="252,-56.7 252,-75.7 484,-75.7 484,-56.7 252,-56.7"/>
<text text-anchor="start" x="255" y="-62.8" font-family="Helvetica,sans-Serif" font-size="11.00" fill="#000000">...</text>
<polygon fill="#ffffff" stroke="transparent" points="252,-37.7 252,-56.7 362,-56.7 362,-37.7 252,-37.7"/>
<polygon fill="none" stroke="#000000" points="252,-37.7 252,-56.7 362,-56.7 362,-37.7 252,-37.7"/>
<text text-anchor="start" x="255" y="-43.8" font-family="Helvetica,sans-Serif" font-size="11.00" fill="#000000">&lt; 1</text>
<polygon fill="#ffffff" stroke="transparent" points="362,-37.7 362,-56.7 418,-56.7 418,-37.7 362,-37.7"/>
<polygon fill="none" stroke="#000000" points="362,-37.7 362,-56.7 418,-56.7 418,-37.7 362,-37.7"/>
<text text-anchor="start" x="408.8862" y="-43.8" font-family="Helvetica,sans-Serif" font-size="11.00" fill="#000000"> &#160;</text>
<polygon fill="#ffffff" stroke="transparent" points="418,-37.7 418,-56.7 484,-56.7 484,-37.7 418,-37.7"/>
<polygon fill="none" stroke="#000000" points="418,-37.7 418,-56.7 484,-56.7 484,-37.7 418,-37.7"/>
<text text-anchor="start" x="465.4053" y="-43.8" font-family="Helvetica,sans-Serif" font-size="11.00" fill="#000000">2 &gt;</text>
</a>
</g>
</g>
<!-- reported_adjudications -->
<g id="node2" class="node">
<title>reported_adjudications</title>
<g id="a_node2"><a xlink:href="../../tables/reported_adjudications.html" xlink:title="reported_adjudications" target="_top">
<polygon fill="#ffffff" stroke="transparent" points="8,-169.2 8,-230.2 203,-230.2 203,-169.2 8,-169.2"/>
<polygon fill="#f5f5f5" stroke="transparent" points="8.5,-206.7 8.5,-229.7 203.5,-229.7 203.5,-206.7 8.5,-206.7"/>
<polygon fill="none" stroke="#000000" points="8.5,-206.7 8.5,-229.7 203.5,-229.7 203.5,-206.7 8.5,-206.7"/>
<text text-anchor="start" x="13.5" y="-215.3" font-family="Helvetica,sans-Serif" font-weight="bold" font-size="11.00" fill="#000000">reported_adjudications</text>
<text text-anchor="start" x="169.0219" y="-214.8" font-family="Helvetica,sans-Serif" font-size="11.00" fill="#000000">[table]</text>
<polygon fill="none" stroke="#000000" points="8.5,-187.7 8.5,-206.7 203.5,-206.7 203.5,-187.7 8.5,-187.7"/>
<text text-anchor="start" x="11.5" y="-193.8" font-family="Helvetica,sans-Serif" font-size="11.00" fill="#000000">...</text>
<polygon fill="#ffffff" stroke="transparent" points="8.5,-168.7 8.5,-187.7 95.5,-187.7 95.5,-168.7 8.5,-168.7"/>
<polygon fill="none" stroke="#000000" points="8.5,-168.7 8.5,-187.7 95.5,-187.7 95.5,-168.7 8.5,-168.7"/>
<text text-anchor="start" x="11.5" y="-174.8" font-family="Helvetica,sans-Serif" font-size="11.00" fill="#000000"> &#160;</text>
<polygon fill="#ffffff" stroke="transparent" points="95.5,-168.7 95.5,-187.7 144.5,-187.7 144.5,-168.7 95.5,-168.7"/>
<polygon fill="none" stroke="#000000" points="95.5,-168.7 95.5,-187.7 144.5,-187.7 144.5,-168.7 95.5,-168.7"/>
<text text-anchor="start" x="135.3862" y="-174.8" font-family="Helvetica,sans-Serif" font-size="11.00" fill="#000000"> &#160;</text>
<polygon fill="#ffffff" stroke="transparent" points="144.5,-168.7 144.5,-187.7 203.5,-187.7 203.5,-168.7 144.5,-168.7"/>
<polygon fill="none" stroke="#000000" points="144.5,-168.7 144.5,-187.7 203.5,-187.7 203.5,-168.7 144.5,-168.7"/>
<text text-anchor="start" x="184.9053" y="-174.8" font-family="Helvetica,sans-Serif" font-size="11.00" fill="#000000">9 &gt;</text>
</a>
</g>
</g>
<!-- punishment&#45;&gt;reported_adjudications -->
<g id="edge1" class="edge">
<title>punishment:w&#45;&gt;reported_adjudications:e</title>
<path fill="none" stroke="#000000" d="M237.2829,-196.7C226.2886,-196.7 219.1615,-196.7 203.5,-196.7"/>
<polygon fill="#000000" stroke="#000000" points="244,-196.7001 252,-200.3 248,-196.7 252,-196.7 252,-196.7 252,-196.7 248,-196.7 252,-193.1 244,-196.7001 244,-196.7001"/>
<ellipse fill="none" stroke="#000000" cx="240.8" cy="-196.7001" rx="3.2" ry="3.2"/>
</g>
<!-- punishment_schedule -->
<g id="node3" class="node">
<title>punishment_schedule</title>
<g id="a_node3"><a xlink:href="../../tables/punishment_schedule.html" xlink:title="punishment_schedule" target="_top">
<polygon fill="#ffffff" stroke="transparent" points="533,-131.7 533,-419.7 788,-419.7 788,-131.7 533,-131.7"/>
<polygon fill="#f5f5f5" stroke="transparent" points="535.5,-394.7 535.5,-417.7 786.5,-417.7 786.5,-394.7 535.5,-394.7"/>
<polygon fill="none" stroke="#000000" points="535.5,-394.7 535.5,-417.7 786.5,-417.7 786.5,-394.7 535.5,-394.7"/>
<text text-anchor="start" x="540.5" y="-403.3" font-family="Helvetica,sans-Serif" font-weight="bold" font-size="11.00" fill="#000000">punishment_schedule</text>
<text text-anchor="start" x="751.5437" y="-402.8" font-family="Helvetica,sans-Serif" font-size="11.00" fill="#000000">[table]</text>
<polygon fill="none" stroke="#000000" points="535.5,-372.7 535.5,-394.7 702.5,-394.7 702.5,-372.7 535.5,-372.7"/>
<image xlink:href="../../images/primaryKeys.png" width="11px" height="12px" preserveAspectRatio="xMinYMin meet" x="540.5" y="-389.7"/>
<text text-anchor="start" x="555.5" y="-379.8" font-family="Helvetica,sans-Serif" font-size="11.00" fill="#000000">id</text>
<polygon fill="none" stroke="#000000" points="702.5,-372.7 702.5,-394.7 786.5,-394.7 786.5,-372.7 702.5,-372.7"/>
<text text-anchor="start" x="705.5" y="-380.4" font-family="Helvetica,sans-Serif" font-size="11.00" fill="#000000">serial[10]</text>
<polygon fill="#ffffff" stroke="transparent" points="535.5,-350.7 535.5,-372.7 702.5,-372.7 702.5,-350.7 535.5,-350.7"/>
<polygon fill="none" stroke="#000000" points="535.5,-350.7 535.5,-372.7 702.5,-372.7 702.5,-350.7 535.5,-350.7"/>
<image xlink:href="../../images/foreignKeys.png" width="11px" height="12px" preserveAspectRatio="xMinYMin meet" x="540.5" y="-367.7"/>
<text text-anchor="start" x="555.5" y="-357.8" font-family="Helvetica,sans-Serif" font-size="11.00" fill="#000000">punishment_fk_id</text>
<polygon fill="none" stroke="#000000" points="702.5,-350.7 702.5,-372.7 786.5,-372.7 786.5,-350.7 702.5,-350.7"/>
<text text-anchor="start" x="705.5" y="-358.4" font-family="Helvetica,sans-Serif" font-size="11.00" fill="#000000">int8[19]</text>
<polygon fill="none" stroke="#000000" points="535.5,-328.7 535.5,-350.7 702.5,-350.7 702.5,-328.7 535.5,-328.7"/>
<text text-anchor="start" x="555.5" y="-335.8" font-family="Helvetica,sans-Serif" font-size="11.00" fill="#000000">duration</text>
<polygon fill="none" stroke="#000000" points="702.5,-328.7 702.5,-350.7 786.5,-350.7 786.5,-328.7 702.5,-328.7"/>
<text text-anchor="start" x="705.5" y="-336.4" font-family="Helvetica,sans-Serif" font-size="11.00" fill="#000000">int4[10]</text>
<polygon fill="none" stroke="#000000" points="535.5,-306.7 535.5,-328.7 702.5,-328.7 702.5,-306.7 535.5,-306.7"/>
<text text-anchor="start" x="555.5" y="-313.8" font-family="Helvetica,sans-Serif" font-size="11.00" fill="#000000">start_date</text>
<polygon fill="none" stroke="#000000" points="702.5,-306.7 702.5,-328.7 786.5,-328.7 786.5,-306.7 702.5,-306.7"/>
<text text-anchor="start" x="705.5" y="-314.4" font-family="Helvetica,sans-Serif" font-size="11.00" fill="#000000">date[13]</text>
<polygon fill="#ffffff" stroke="transparent" points="535.5,-284.7 535.5,-306.7 702.5,-306.7 702.5,-284.7 535.5,-284.7"/>
<polygon fill="none" stroke="#000000" points="535.5,-284.7 535.5,-306.7 702.5,-306.7 702.5,-284.7 535.5,-284.7"/>
<text text-anchor="start" x="555.5" y="-291.8" font-family="Helvetica,sans-Serif" font-size="11.00" fill="#000000">end_date</text>
<polygon fill="none" stroke="#000000" points="702.5,-284.7 702.5,-306.7 786.5,-306.7 786.5,-284.7 702.5,-284.7"/>
<text text-anchor="start" x="705.5" y="-292.4" font-family="Helvetica,sans-Serif" font-size="11.00" fill="#000000">date[13]</text>
<polygon fill="none" stroke="#000000" points="535.5,-262.7 535.5,-284.7 702.5,-284.7 702.5,-262.7 535.5,-262.7"/>
<text text-anchor="start" x="555.5" y="-269.8" font-family="Helvetica,sans-Serif" font-size="11.00" fill="#000000">suspended_until</text>
<polygon fill="none" stroke="#000000" points="702.5,-262.7 702.5,-284.7 786.5,-284.7 786.5,-262.7 702.5,-262.7"/>
<text text-anchor="start" x="705.5" y="-270.4" font-family="Helvetica,sans-Serif" font-size="11.00" fill="#000000">date[13]</text>
<polygon fill="none" stroke="#000000" points="535.5,-240.7 535.5,-262.7 702.5,-262.7 702.5,-240.7 535.5,-240.7"/>
<text text-anchor="start" x="555.5" y="-247.8" font-family="Helvetica,sans-Serif" font-size="11.00" fill="#000000">create_user_id</text>
<polygon fill="none" stroke="#000000" points="702.5,-240.7 702.5,-262.7 786.5,-262.7 786.5,-240.7 702.5,-240.7"/>
<text text-anchor="start" x="705.5" y="-248.4" font-family="Helvetica,sans-Serif" font-size="11.00" fill="#000000">varchar[32]</text>
<polygon fill="none" stroke="#000000" points="535.5,-218.7 535.5,-240.7 702.5,-240.7 702.5,-218.7 535.5,-218.7"/>
<text text-anchor="start" x="555.5" y="-225.8" font-family="Helvetica,sans-Serif" font-size="11.00" fill="#000000">create_datetime</text>
<polygon fill="none" stroke="#000000" points="702.5,-218.7 702.5,-240.7 786.5,-240.7 786.5,-218.7 702.5,-218.7"/>
<text text-anchor="start" x="705.3807" y="-226.4" font-family="Helvetica,sans-Serif" font-size="11.00" fill="#000000">timestamp[29,6]</text>
<polygon fill="none" stroke="#000000" points="535.5,-196.7 535.5,-218.7 702.5,-218.7 702.5,-196.7 535.5,-196.7"/>
<text text-anchor="start" x="555.5" y="-203.8" font-family="Helvetica,sans-Serif" font-size="11.00" fill="#000000">modify_user_id</text>
<polygon fill="none" stroke="#000000" points="702.5,-196.7 702.5,-218.7 786.5,-218.7 786.5,-196.7 702.5,-196.7"/>
<text text-anchor="start" x="705.5" y="-204.4" font-family="Helvetica,sans-Serif" font-size="11.00" fill="#000000">varchar[32]</text>
<polygon fill="none" stroke="#000000" points="535.5,-174.7 535.5,-196.7 702.5,-196.7 702.5,-174.7 535.5,-174.7"/>
<text text-anchor="start" x="555.5" y="-181.8" font-family="Helvetica,sans-Serif" font-size="11.00" fill="#000000">modify_datetime</text>
<polygon fill="none" stroke="#000000" points="702.5,-174.7 702.5,-196.7 786.5,-196.7 786.5,-174.7 702.5,-174.7"/>
<text text-anchor="start" x="705.3807" y="-182.4" font-family="Helvetica,sans-Serif" font-size="11.00" fill="#000000">timestamp[29,6]</text>
<polygon fill="none" stroke="#000000" points="535.5,-152.7 535.5,-174.7 702.5,-174.7 702.5,-152.7 535.5,-152.7"/>
<text text-anchor="start" x="555.5" y="-159.8" font-family="Helvetica,sans-Serif" font-size="11.00" fill="#000000">measurement</text>
<polygon fill="none" stroke="#000000" points="702.5,-152.7 702.5,-174.7 786.5,-174.7 786.5,-152.7 702.5,-152.7"/>
<text text-anchor="start" x="705.5" y="-160.4" font-family="Helvetica,sans-Serif" font-size="11.00" fill="#000000">varchar[16]</text>
<polygon fill="#ffffff" stroke="transparent" points="535.5,-133.7 535.5,-152.7 623.5,-152.7 623.5,-133.7 535.5,-133.7"/>
<polygon fill="none" stroke="#000000" points="535.5,-133.7 535.5,-152.7 623.5,-152.7 623.5,-133.7 535.5,-133.7"/>
<text text-anchor="start" x="538.5" y="-139.8" font-family="Helvetica,sans-Serif" font-size="11.00" fill="#000000">&lt; 1</text>
<polygon fill="#ffffff" stroke="transparent" points="623.5,-133.7 623.5,-152.7 702.5,-152.7 702.5,-133.7 623.5,-133.7"/>
<polygon fill="none" stroke="#000000" points="623.5,-133.7 623.5,-152.7 702.5,-152.7 702.5,-133.7 623.5,-133.7"/>
<text text-anchor="start" x="693.3862" y="-139.8" font-family="Helvetica,sans-Serif" font-size="11.00" fill="#000000"> &#160;</text>
<polygon fill="#ffffff" stroke="transparent" points="702.5,-133.7 702.5,-152.7 786.5,-152.7 786.5,-133.7 702.5,-133.7"/>
<polygon fill="none" stroke="#000000" points="702.5,-133.7 702.5,-152.7 786.5,-152.7 786.5,-133.7 702.5,-133.7"/>
<text text-anchor="start" x="767.9053" y="-139.8" font-family="Helvetica,sans-Serif" font-size="11.00" fill="#000000">0 &gt;</text>
<polygon fill="none" stroke="#000000" stroke-width="2" points="534,-132.7 534,-418.7 787,-418.7 787,-132.7 534,-132.7"/>
</a>
</g>
</g>
<!-- punishment_schedule&#45;&gt;punishment -->
<g id="edge2" class="edge">
<title>punishment_schedule:w&#45;&gt;punishment:e</title>
<path fill="none" stroke="#000000" d="M521.2414,-358.7132C481.2014,-338.178 545.7463,-218.7 484,-218.7"/>
<polygon fill="#000000" stroke="#000000" points="527.6699,-360.0598 534.7619,-365.2235 531.585,-360.8799 535.5,-361.7 535.5,-361.7 535.5,-361.7 531.585,-360.8799 536.2381,-358.1765 527.6699,-360.0598 527.6699,-360.0598"/>
<ellipse fill="none" stroke="#000000" cx="524.5379" cy="-359.4037" rx="3.2" ry="3.2"/>
</g>
<!-- rehabilitative_activity -->
<g id="node4" class="node">
<title>rehabilitative_activity</title>
<g id="a_node4"><a xlink:href="../../tables/rehabilitative_activity.html" xlink:title="rehabilitative_activity" target="_top">
<polygon fill="#ffffff" stroke="transparent" points="567.5,-49.2 567.5,-110.2 753.5,-110.2 753.5,-49.2 567.5,-49.2"/>
<polygon fill="#f5f5f5" stroke="transparent" points="567.5,-86.7 567.5,-109.7 753.5,-109.7 753.5,-86.7 567.5,-86.7"/>
<polygon fill="none" stroke="#000000" points="567.5,-86.7 567.5,-109.7 753.5,-109.7 753.5,-86.7 567.5,-86.7"/>
<text text-anchor="start" x="572.5" y="-95.3" font-family="Helvetica,sans-Serif" font-weight="bold" font-size="11.00" fill="#000000">rehabilitative_activity</text>
<text text-anchor="start" x="719.0219" y="-94.8" font-family="Helvetica,sans-Serif" font-size="11.00" fill="#000000">[table]</text>
<polygon fill="none" stroke="#000000" points="567.5,-67.7 567.5,-86.7 753.5,-86.7 753.5,-67.7 567.5,-67.7"/>
<text text-anchor="start" x="570.5" y="-73.8" font-family="Helvetica,sans-Serif" font-size="11.00" fill="#000000">...</text>
<polygon fill="#ffffff" stroke="transparent" points="567.5,-48.7 567.5,-67.7 658.5,-67.7 658.5,-48.7 567.5,-48.7"/>
<polygon fill="none" stroke="#000000" points="567.5,-48.7 567.5,-67.7 658.5,-67.7 658.5,-48.7 567.5,-48.7"/>
<text text-anchor="start" x="570.5" y="-54.8" font-family="Helvetica,sans-Serif" font-size="11.00" fill="#000000">&lt; 1</text>
<polygon fill="#ffffff" stroke="transparent" points="658.5,-48.7 658.5,-67.7 705.5,-67.7 705.5,-48.7 658.5,-48.7"/>
<polygon fill="none" stroke="#000000" points="658.5,-48.7 658.5,-67.7 705.5,-67.7 705.5,-48.7 658.5,-48.7"/>
<text text-anchor="start" x="696.3862" y="-54.8" font-family="Helvetica,sans-Serif" font-size="11.00" fill="#000000"> &#160;</text>
<polygon fill="#ffffff" stroke="transparent" points="705.5,-48.7 705.5,-67.7 753.5,-67.7 753.5,-48.7 705.5,-48.7"/>
<polygon fill="none" stroke="#000000" points="705.5,-48.7 705.5,-67.7 753.5,-67.7 753.5,-48.7 705.5,-48.7"/>
<text text-anchor="start" x="744.3862" y="-54.8" font-family="Helvetica,sans-Serif" font-size="11.00" fill="#000000"> &#160;</text>
</a>
</g>
</g>
<!-- rehabilitative_activity&#45;&gt;punishment -->
<g id="edge3" class="edge">
<title>rehabilitative_activity:w&#45;&gt;punishment:e</title>
<path fill="none" stroke="#000000" d="M552.9564,-79.6344C539.2894,-86.3607 536.7488,-103.7035 525,-121.7 499.4141,-160.8916 530.804,-218.7 484,-218.7"/>
<polygon fill="#000000" stroke="#000000" points="559.658,-78.2823 568.212,-80.2289 563.579,-77.4911 567.5,-76.7 567.5,-76.7 567.5,-76.7 563.579,-77.4911 566.788,-73.1711 559.658,-78.2823 559.658,-78.2823"/>
<ellipse fill="none" stroke="#000000" cx="556.5212" cy="-78.9152" rx="3.2" ry="3.2"/>
</g>
</g>
</svg>
