<?xml version="1.0" encoding="UTF-8" standalone="no"?>
<!DOCTYPE svg PUBLIC "-//W3C//DTD SVG 1.1//EN"
 "http://www.w3.org/Graphics/SVG/1.1/DTD/svg11.dtd">
<!-- Generated by graphviz version 2.40.1 (20161225.0304)
 -->
<!-- Title: oneDegreeRelationshipsDiagram Pages: 1 -->
<svg width="942pt" height="697pt"
 viewBox="0.00 0.00 942.00 696.70" xmlns="http://www.w3.org/2000/svg" xmlns:xlink="http://www.w3.org/1999/xlink">
<g id="graph0" class="graph" transform="scale(1 1) rotate(0) translate(4 692.7)">
<title>oneDegreeRelationshipsDiagram</title>
<polygon fill="#ffffff" stroke="transparent" points="-4,4 -4,-692.7 938,-692.7 938,4 -4,4"/>
<text text-anchor="middle" x="72.4936" y="-7.3" font-family="Helvetica,sans-Serif" font-size="11.00" fill="#000000">Generated by SchemaSpy</text>
<!-- punishment -->
<g id="node1" class="node">
<title>punishment</title>
<g id="a_node1"><a xlink:href="../../tables/punishment.html" xlink:title="punishment" target="_top">
<polygon fill="#ffffff" stroke="transparent" points="371,-38.2 371,-590.2 691,-590.2 691,-38.2 371,-38.2"/>
<polygon fill="#f5f5f5" stroke="transparent" points="373,-565.2 373,-588.2 689,-588.2 689,-565.2 373,-565.2"/>
<polygon fill="none" stroke="#000000" points="373,-565.2 373,-588.2 689,-588.2 689,-565.2 373,-565.2"/>
<text text-anchor="start" x="378" y="-573.8" font-family="Helvetica,sans-Serif" font-weight="bold" font-size="11.00" fill="#000000">punishment</text>
<text text-anchor="start" x="654.0437" y="-573.3" font-family="Helvetica,sans-Serif" font-size="11.00" fill="#000000">[table]</text>
<polygon fill="none" stroke="#000000" points="373,-543.2 373,-565.2 605,-565.2 605,-543.2 373,-543.2"/>
<image xlink:href="../../images/primaryKeys.png" width="11px" height="12px" preserveAspectRatio="xMinYMin meet" x="378" y="-560.2"/>
<text text-anchor="start" x="393" y="-550.3" font-family="Helvetica,sans-Serif" font-size="11.00" fill="#000000">id</text>
<polygon fill="none" stroke="#000000" points="605,-543.2 605,-565.2 689,-565.2 689,-543.2 605,-543.2"/>
<text text-anchor="start" x="608" y="-550.9" font-family="Helvetica,sans-Serif" font-size="11.00" fill="#000000">serial[10]</text>
<polygon fill="#ffffff" stroke="transparent" points="373,-521.2 373,-543.2 605,-543.2 605,-521.2 373,-521.2"/>
<polygon fill="none" stroke="#000000" points="373,-521.2 373,-543.2 605,-543.2 605,-521.2 373,-521.2"/>
<image xlink:href="../../images/foreignKeys.png" width="11px" height="12px" preserveAspectRatio="xMinYMin meet" x="378" y="-538.2"/>
<text text-anchor="start" x="393" y="-528.3" font-family="Helvetica,sans-Serif" font-size="11.00" fill="#000000">reported_adjudication_fk_id</text>
<polygon fill="none" stroke="#000000" points="605,-521.2 605,-543.2 689,-543.2 689,-521.2 605,-521.2"/>
<text text-anchor="start" x="608" y="-528.9" font-family="Helvetica,sans-Serif" font-size="11.00" fill="#000000">int8[19]</text>
<polygon fill="#ffffff" stroke="transparent" points="373,-499.2 373,-521.2 605,-521.2 605,-499.2 373,-499.2"/>
<polygon fill="none" stroke="#000000" points="373,-499.2 373,-521.2 605,-521.2 605,-499.2 373,-499.2"/>
<text text-anchor="start" x="393" y="-506.3" font-family="Helvetica,sans-Serif" font-size="11.00" fill="#000000">type</text>
<polygon fill="none" stroke="#000000" points="605,-499.2 605,-521.2 689,-521.2 689,-499.2 605,-499.2"/>
<text text-anchor="start" x="608" y="-506.9" font-family="Helvetica,sans-Serif" font-size="11.00" fill="#000000">varchar[32]</text>
<polygon fill="none" stroke="#000000" points="373,-477.2 373,-499.2 605,-499.2 605,-477.2 373,-477.2"/>
<text text-anchor="start" x="393" y="-484.3" font-family="Helvetica,sans-Serif" font-size="11.00" fill="#000000">privilege_type</text>
<polygon fill="none" stroke="#000000" points="605,-477.2 605,-499.2 689,-499.2 689,-477.2 605,-477.2"/>
<text text-anchor="start" x="608" y="-484.9" font-family="Helvetica,sans-Serif" font-size="11.00" fill="#000000">varchar[32]</text>
<polygon fill="none" stroke="#000000" points="373,-455.2 373,-477.2 605,-477.2 605,-455.2 373,-455.2"/>
<text text-anchor="start" x="393" y="-462.3" font-family="Helvetica,sans-Serif" font-size="11.00" fill="#000000">other_privilege</text>
<polygon fill="none" stroke="#000000" points="605,-455.2 605,-477.2 689,-477.2 689,-455.2 605,-455.2"/>
<text text-anchor="start" x="608" y="-462.9" font-family="Helvetica,sans-Serif" font-size="11.00" fill="#000000">varchar[32]</text>
<polygon fill="none" stroke="#000000" points="373,-433.2 373,-455.2 605,-455.2 605,-433.2 373,-433.2"/>
<text text-anchor="start" x="393" y="-440.3" font-family="Helvetica,sans-Serif" font-size="11.00" fill="#000000">stoppage_percentage</text>
<polygon fill="none" stroke="#000000" points="605,-433.2 605,-455.2 689,-455.2 689,-433.2 605,-433.2"/>
<text text-anchor="start" x="608" y="-440.9" font-family="Helvetica,sans-Serif" font-size="11.00" fill="#000000">int4[10]</text>
<polygon fill="none" stroke="#000000" points="373,-411.2 373,-433.2 605,-433.2 605,-411.2 373,-411.2"/>
<text text-anchor="start" x="393" y="-418.3" font-family="Helvetica,sans-Serif" font-size="11.00" fill="#000000">create_user_id</text>
<polygon fill="none" stroke="#000000" points="605,-411.2 605,-433.2 689,-433.2 689,-411.2 605,-411.2"/>
<text text-anchor="start" x="608" y="-418.9" font-family="Helvetica,sans-Serif" font-size="11.00" fill="#000000">varchar[32]</text>
<polygon fill="none" stroke="#000000" points="373,-389.2 373,-411.2 605,-411.2 605,-389.2 373,-389.2"/>
<text text-anchor="start" x="393" y="-396.3" font-family="Helvetica,sans-Serif" font-size="11.00" fill="#000000">create_datetime</text>
<polygon fill="none" stroke="#000000" points="605,-389.2 605,-411.2 689,-411.2 689,-389.2 605,-389.2"/>
<text text-anchor="start" x="607.8807" y="-396.9" font-family="Helvetica,sans-Serif" font-size="11.00" fill="#000000">timestamp[29,6]</text>
<polygon fill="none" stroke="#000000" points="373,-367.2 373,-389.2 605,-389.2 605,-367.2 373,-367.2"/>
<text text-anchor="start" x="393" y="-374.3" font-family="Helvetica,sans-Serif" font-size="11.00" fill="#000000">modify_user_id</text>
<polygon fill="none" stroke="#000000" points="605,-367.2 605,-389.2 689,-389.2 689,-367.2 605,-367.2"/>
<text text-anchor="start" x="608" y="-374.9" font-family="Helvetica,sans-Serif" font-size="11.00" fill="#000000">varchar[32]</text>
<polygon fill="none" stroke="#000000" points="373,-345.2 373,-367.2 605,-367.2 605,-345.2 373,-345.2"/>
<text text-anchor="start" x="393" y="-352.3" font-family="Helvetica,sans-Serif" font-size="11.00" fill="#000000">modify_datetime</text>
<polygon fill="none" stroke="#000000" points="605,-345.2 605,-367.2 689,-367.2 689,-345.2 605,-345.2"/>
<text text-anchor="start" x="607.8807" y="-352.9" font-family="Helvetica,sans-Serif" font-size="11.00" fill="#000000">timestamp[29,6]</text>
<polygon fill="#ffffff" stroke="transparent" points="373,-323.2 373,-345.2 605,-345.2 605,-323.2 373,-323.2"/>
<polygon fill="none" stroke="#000000" points="373,-323.2 373,-345.2 605,-345.2 605,-323.2 373,-323.2"/>
<text text-anchor="start" x="393" y="-330.3" font-family="Helvetica,sans-Serif" font-size="11.00" fill="#000000">activated_by_charge_number</text>
<polygon fill="none" stroke="#000000" points="605,-323.2 605,-345.2 689,-345.2 689,-323.2 605,-323.2"/>
<text text-anchor="start" x="608" y="-330.9" font-family="Helvetica,sans-Serif" font-size="11.00" fill="#000000">varchar[16]</text>
<polygon fill="#ffffff" stroke="transparent" points="373,-301.2 373,-323.2 605,-323.2 605,-301.2 373,-301.2"/>
<polygon fill="none" stroke="#000000" points="373,-301.2 373,-323.2 605,-323.2 605,-301.2 373,-301.2"/>
<text text-anchor="start" x="393" y="-308.3" font-family="Helvetica,sans-Serif" font-size="11.00" fill="#000000">suspended_until</text>
<polygon fill="none" stroke="#000000" points="605,-301.2 605,-323.2 689,-323.2 689,-301.2 605,-301.2"/>
<text text-anchor="start" x="608" y="-308.9" font-family="Helvetica,sans-Serif" font-size="11.00" fill="#000000">date[13]</text>
<polygon fill="none" stroke="#000000" points="373,-279.2 373,-301.2 605,-301.2 605,-279.2 373,-279.2"/>
<text text-anchor="start" x="393" y="-286.3" font-family="Helvetica,sans-Serif" font-size="11.00" fill="#000000">sanction_seq</text>
<polygon fill="none" stroke="#000000" points="605,-279.2 605,-301.2 689,-301.2 689,-279.2 605,-279.2"/>
<text text-anchor="start" x="608" y="-286.9" font-family="Helvetica,sans-Serif" font-size="11.00" fill="#000000">int8[19]</text>
<polygon fill="none" stroke="#000000" points="373,-257.2 373,-279.2 605,-279.2 605,-257.2 373,-257.2"/>
<text text-anchor="start" x="393" y="-264.3" font-family="Helvetica,sans-Serif" font-size="11.00" fill="#000000">amount</text>
<polygon fill="none" stroke="#000000" points="605,-257.2 605,-279.2 689,-279.2 689,-257.2 605,-257.2"/>
<text text-anchor="start" x="608" y="-264.9" font-family="Helvetica,sans-Serif" font-size="11.00" fill="#000000">numeric[10,2]</text>
<polygon fill="none" stroke="#000000" points="373,-235.2 373,-257.2 605,-257.2 605,-235.2 373,-235.2"/>
<text text-anchor="start" x="393" y="-242.3" font-family="Helvetica,sans-Serif" font-size="11.00" fill="#000000">deleted</text>
<polygon fill="none" stroke="#000000" points="605,-235.2 605,-257.2 689,-257.2 689,-235.2 605,-235.2"/>
<text text-anchor="start" x="608" y="-242.9" font-family="Helvetica,sans-Serif" font-size="11.00" fill="#000000">bool[1]</text>
<polygon fill="#ffffff" stroke="transparent" points="373,-213.2 373,-235.2 605,-235.2 605,-213.2 373,-213.2"/>
<polygon fill="none" stroke="#000000" points="373,-213.2 373,-235.2 605,-235.2 605,-213.2 373,-213.2"/>
<text text-anchor="start" x="393" y="-220.3" font-family="Helvetica,sans-Serif" font-size="11.00" fill="#000000">consecutive_to_charge_number</text>
<polygon fill="none" stroke="#000000" points="605,-213.2 605,-235.2 689,-235.2 689,-213.2 605,-213.2"/>
<text text-anchor="start" x="608" y="-220.9" font-family="Helvetica,sans-Serif" font-size="11.00" fill="#000000">varchar[16]</text>
<polygon fill="none" stroke="#000000" points="373,-191.2 373,-213.2 605,-213.2 605,-191.2 373,-191.2"/>
<text text-anchor="start" x="393" y="-198.3" font-family="Helvetica,sans-Serif" font-size="11.00" fill="#000000">nomis_status</text>
<polygon fill="none" stroke="#000000" points="605,-191.2 605,-213.2 689,-213.2 689,-191.2 605,-191.2"/>
<text text-anchor="start" x="608" y="-198.9" font-family="Helvetica,sans-Serif" font-size="11.00" fill="#000000">varchar[32]</text>
<polygon fill="#ffffff" stroke="transparent" points="373,-169.2 373,-191.2 605,-191.2 605,-169.2 373,-169.2"/>
<polygon fill="none" stroke="#000000" points="373,-169.2 373,-191.2 605,-191.2 605,-169.2 373,-169.2"/>
<text text-anchor="start" x="393" y="-176.3" font-family="Helvetica,sans-Serif" font-size="11.00" fill="#000000">punishment_pre_migrate_id</text>
<polygon fill="none" stroke="#000000" points="605,-169.2 605,-191.2 689,-191.2 689,-169.2 605,-169.2"/>
<text text-anchor="start" x="608" y="-176.9" font-family="Helvetica,sans-Serif" font-size="11.00" fill="#000000">int4[10]</text>
<polygon fill="none" stroke="#000000" points="373,-147.2 373,-169.2 605,-169.2 605,-147.2 373,-147.2"/>
<text text-anchor="start" x="393" y="-154.3" font-family="Helvetica,sans-Serif" font-size="11.00" fill="#000000">actual_created_date</text>
<polygon fill="none" stroke="#000000" points="605,-147.2 605,-169.2 689,-169.2 689,-147.2 605,-147.2"/>
<text text-anchor="start" x="607.8807" y="-154.9" font-family="Helvetica,sans-Serif" font-size="11.00" fill="#000000">timestamp[29,6]</text>
<polygon fill="none" stroke="#000000" points="373,-125.2 373,-147.2 605,-147.2 605,-125.2 373,-125.2"/>
<text text-anchor="start" x="393" y="-132.3" font-family="Helvetica,sans-Serif" font-size="11.00" fill="#000000">payback_notes</text>
<polygon fill="none" stroke="#000000" points="605,-125.2 605,-147.2 689,-147.2 689,-125.2 605,-125.2"/>
<text text-anchor="start" x="608" y="-132.9" font-family="Helvetica,sans-Serif" font-size="11.00" fill="#000000">varchar[4000]</text>
<polygon fill="none" stroke="#000000" points="373,-103.2 373,-125.2 605,-125.2 605,-103.2 373,-103.2"/>
<text text-anchor="start" x="393" y="-110.3" font-family="Helvetica,sans-Serif" font-size="11.00" fill="#000000">rehab_not_completed_outcome</text>
<polygon fill="none" stroke="#000000" points="605,-103.2 605,-125.2 689,-125.2 689,-103.2 605,-103.2"/>
<text text-anchor="start" x="608" y="-110.9" font-family="Helvetica,sans-Serif" font-size="11.00" fill="#000000">varchar[32]</text>
<polygon fill="none" stroke="#000000" points="373,-81.2 373,-103.2 605,-103.2 605,-81.2 373,-81.2"/>
<text text-anchor="start" x="393" y="-88.3" font-family="Helvetica,sans-Serif" font-size="11.00" fill="#000000">rehab_completed</text>
<polygon fill="none" stroke="#000000" points="605,-81.2 605,-103.2 689,-103.2 689,-81.2 605,-81.2"/>
<text text-anchor="start" x="608" y="-88.9" font-family="Helvetica,sans-Serif" font-size="11.00" fill="#000000">bool[1]</text>
<polygon fill="none" stroke="#000000" points="373,-59.2 373,-81.2 605,-81.2 605,-59.2 373,-59.2"/>
<text text-anchor="start" x="393" y="-66.3" font-family="Helvetica,sans-Serif" font-size="11.00" fill="#000000">has_child_under_18</text>
<polygon fill="none" stroke="#000000" points="605,-59.2 605,-81.2 689,-81.2 689,-59.2 605,-59.2"/>
<text text-anchor="start" x="608" y="-66.9" font-family="Helvetica,sans-Serif" font-size="11.00" fill="#000000">bool[1]</text>
<polygon fill="#ffffff" stroke="transparent" points="373,-40.2 373,-59.2 493,-59.2 493,-40.2 373,-40.2"/>
<polygon fill="none" stroke="#000000" points="373,-40.2 373,-59.2 493,-59.2 493,-40.2 373,-40.2"/>
<text text-anchor="start" x="376" y="-46.3" font-family="Helvetica,sans-Serif" font-size="11.00" fill="#000000">&lt; 1</text>
<polygon fill="#ffffff" stroke="transparent" points="493,-40.2 493,-59.2 605,-59.2 605,-40.2 493,-40.2"/>
<polygon fill="none" stroke="#000000" points="493,-40.2 493,-59.2 605,-59.2 605,-40.2 493,-40.2"/>
<text text-anchor="start" x="595.8862" y="-46.3" font-family="Helvetica,sans-Serif" font-size="11.00" fill="#000000"> &#160;</text>
<polygon fill="#ffffff" stroke="transparent" points="605,-40.2 605,-59.2 689,-59.2 689,-40.2 605,-40.2"/>
<polygon fill="none" stroke="#000000" points="605,-40.2 605,-59.2 689,-59.2 689,-40.2 605,-40.2"/>
<text text-anchor="start" x="670.4053" y="-46.3" font-family="Helvetica,sans-Serif" font-size="11.00" fill="#000000">2 &gt;</text>
<polygon fill="none" stroke="#000000" stroke-width="2" points="372,-39.2 372,-589.2 690,-589.2 690,-39.2 372,-39.2"/>
</a>
</g>
</g>
<!-- reported_adjudications -->
<g id="node2" class="node">
<title>reported_adjudications</title>
<g id="a_node2"><a xlink:href="../../tables/reported_adjudications.html" xlink:title="reported_adjudications" target="_top">
<polygon fill="#ffffff" stroke="transparent" points="8,-241.7 8,-566.7 322,-566.7 322,-241.7 8,-241.7"/>
<polygon fill="#f5f5f5" stroke="transparent" points="8,-543.2 8,-566.2 322,-566.2 322,-543.2 8,-543.2"/>
<polygon fill="none" stroke="#000000" points="8,-543.2 8,-566.2 322,-566.2 322,-543.2 8,-543.2"/>
<text text-anchor="start" x="13" y="-551.8" font-family="Helvetica,sans-Serif" font-weight="bold" font-size="11.00" fill="#000000">reported_adjudications</text>
<text text-anchor="start" x="287.0437" y="-551.3" font-family="Helvetica,sans-Serif" font-size="11.00" fill="#000000">[table]</text>
<polygon fill="none" stroke="#000000" points="8,-521.2 8,-543.2 322,-543.2 322,-521.2 8,-521.2"/>
<image xlink:href="../../images/primaryKeys.png" width="11px" height="12px" preserveAspectRatio="xMinYMin meet" x="13" y="-538.2"/>
<text text-anchor="start" x="28" y="-528.3" font-family="Helvetica,sans-Serif" font-size="11.00" fill="#000000">id</text>
<polygon fill="#ffffff" stroke="transparent" points="8,-499.2 8,-521.2 322,-521.2 322,-499.2 8,-499.2"/>
<polygon fill="none" stroke="#000000" points="8,-499.2 8,-521.2 322,-521.2 322,-499.2 8,-499.2"/>
<text text-anchor="start" x="28" y="-506.3" font-family="Helvetica,sans-Serif" font-size="11.00" fill="#000000">prisoner_number</text>
<polygon fill="#ffffff" stroke="transparent" points="8,-477.2 8,-499.2 322,-499.2 322,-477.2 8,-477.2"/>
<polygon fill="none" stroke="#000000" points="8,-477.2 8,-499.2 322,-499.2 322,-477.2 8,-477.2"/>
<text text-anchor="start" x="28" y="-484.3" font-family="Helvetica,sans-Serif" font-size="11.00" fill="#000000">charge_number</text>
<polygon fill="#ffffff" stroke="transparent" points="8,-455.2 8,-477.2 322,-477.2 322,-455.2 8,-455.2"/>
<polygon fill="none" stroke="#000000" points="8,-455.2 8,-477.2 322,-477.2 322,-455.2 8,-455.2"/>
<text text-anchor="start" x="28" y="-462.3" font-family="Helvetica,sans-Serif" font-size="11.00" fill="#000000">originating_agency_id</text>
<polygon fill="#ffffff" stroke="transparent" points="8,-433.2 8,-455.2 322,-455.2 322,-433.2 8,-433.2"/>
<polygon fill="none" stroke="#000000" points="8,-433.2 8,-455.2 322,-455.2 322,-433.2 8,-433.2"/>
<text text-anchor="start" x="28" y="-440.3" font-family="Helvetica,sans-Serif" font-size="11.00" fill="#000000">create_user_id</text>
<polygon fill="#ffffff" stroke="transparent" points="8,-411.2 8,-433.2 322,-433.2 322,-411.2 8,-411.2"/>
<polygon fill="none" stroke="#000000" points="8,-411.2 8,-433.2 322,-433.2 322,-411.2 8,-411.2"/>
<text text-anchor="start" x="28" y="-418.3" font-family="Helvetica,sans-Serif" font-size="11.00" fill="#000000">incident_role_associated_prisoners_number</text>
<polygon fill="#ffffff" stroke="transparent" points="8,-389.2 8,-411.2 322,-411.2 322,-389.2 8,-389.2"/>
<polygon fill="none" stroke="#000000" points="8,-389.2 8,-411.2 322,-411.2 322,-389.2 8,-389.2"/>
<text text-anchor="start" x="28" y="-396.3" font-family="Helvetica,sans-Serif" font-size="11.00" fill="#000000">status</text>
<polygon fill="#ffffff" stroke="transparent" points="8,-367.2 8,-389.2 322,-389.2 322,-367.2 8,-367.2"/>
<polygon fill="none" stroke="#000000" points="8,-367.2 8,-389.2 322,-389.2 322,-367.2 8,-367.2"/>
<text text-anchor="start" x="28" y="-374.3" font-family="Helvetica,sans-Serif" font-size="11.00" fill="#000000">date_time_of_discovery</text>
<polygon fill="#ffffff" stroke="transparent" points="8,-345.2 8,-367.2 322,-367.2 322,-345.2 8,-345.2"/>
<polygon fill="none" stroke="#000000" points="8,-345.2 8,-367.2 322,-367.2 322,-345.2 8,-345.2"/>
<text text-anchor="start" x="28" y="-352.3" font-family="Helvetica,sans-Serif" font-size="11.00" fill="#000000">date_time_of_first_hearing</text>
<polygon fill="#ffffff" stroke="transparent" points="8,-323.2 8,-345.2 322,-345.2 322,-323.2 8,-323.2"/>
<polygon fill="none" stroke="#000000" points="8,-323.2 8,-345.2 322,-345.2 322,-323.2 8,-323.2"/>
<text text-anchor="start" x="28" y="-330.3" font-family="Helvetica,sans-Serif" font-size="11.00" fill="#000000">override_agency_id</text>
<polygon fill="#ffffff" stroke="transparent" points="8,-301.2 8,-323.2 322,-323.2 322,-301.2 8,-301.2"/>
<polygon fill="none" stroke="#000000" points="8,-301.2 8,-323.2 322,-323.2 322,-301.2 8,-301.2"/>
<text text-anchor="start" x="28" y="-308.3" font-family="Helvetica,sans-Serif" font-size="11.00" fill="#000000">migrated</text>
<polygon fill="#ffffff" stroke="transparent" points="8,-279.2 8,-301.2 322,-301.2 322,-279.2 8,-279.2"/>
<polygon fill="none" stroke="#000000" points="8,-279.2 8,-301.2 322,-301.2 322,-279.2 8,-279.2"/>
<text text-anchor="start" x="28" y="-286.3" font-family="Helvetica,sans-Serif" font-size="11.00" fill="#000000">offender_booking_id</text>
<polygon fill="none" stroke="#000000" points="8,-260.2 8,-279.2 322,-279.2 322,-260.2 8,-260.2"/>
<text text-anchor="start" x="11" y="-266.3" font-family="Helvetica,sans-Serif" font-size="11.00" fill="#000000">...</text>
<polygon fill="#ffffff" stroke="transparent" points="8,-241.2 8,-260.2 154,-260.2 154,-241.2 8,-241.2"/>
<polygon fill="none" stroke="#000000" points="8,-241.2 8,-260.2 154,-260.2 154,-241.2 8,-241.2"/>
<text text-anchor="start" x="11" y="-247.3" font-family="Helvetica,sans-Serif" font-size="11.00" fill="#000000"> &#160;</text>
<polygon fill="#ffffff" stroke="transparent" points="154,-241.2 154,-260.2 233,-260.2 233,-241.2 154,-241.2"/>
<polygon fill="none" stroke="#000000" points="154,-241.2 154,-260.2 233,-260.2 233,-241.2 154,-241.2"/>
<text text-anchor="start" x="223.8862" y="-247.3" font-family="Helvetica,sans-Serif" font-size="11.00" fill="#000000"> &#160;</text>
<polygon fill="#ffffff" stroke="transparent" points="233,-241.2 233,-260.2 322,-260.2 322,-241.2 233,-241.2"/>
<polygon fill="none" stroke="#000000" points="233,-241.2 233,-260.2 322,-260.2 322,-241.2 233,-241.2"/>
<text text-anchor="start" x="303.4053" y="-247.3" font-family="Helvetica,sans-Serif" font-size="11.00" fill="#000000">9 &gt;</text>
</a>
</g>
</g>
<!-- punishment&#45;&gt;reported_adjudications -->
<g id="edge1" class="edge">
<title>punishment:w&#45;&gt;reported_adjudications:e</title>
<path fill="none" stroke="#000000" d="M358.276,-532.2C346.2815,-532.2 338.8229,-532.2 322,-532.2"/>
<polygon fill="#000000" stroke="#000000" points="365,-532.2001 373,-535.8 369,-532.2 373,-532.2 373,-532.2 373,-532.2 369,-532.2 373,-528.6 365,-532.2001 365,-532.2001"/>
<ellipse fill="none" stroke="#000000" cx="361.8" cy="-532.2001" rx="3.2" ry="3.2"/>
</g>
<!-- punishment_schedule -->
<g id="node3" class="node">
<title>punishment_schedule</title>
<g id="a_node3"><a xlink:href="../../tables/punishment_schedule.html" xlink:title="punishment_schedule" target="_top">
<polygon fill="#ffffff" stroke="transparent" points="740.5,-557.7 740.5,-684.7 925.5,-684.7 925.5,-557.7 740.5,-557.7"/>
<polygon fill="#f5f5f5" stroke="transparent" points="741,-661.2 741,-684.2 926,-684.2 926,-661.2 741,-661.2"/>
<polygon fill="none" stroke="#000000" points="741,-661.2 741,-684.2 926,-684.2 926,-661.2 741,-661.2"/>
<text text-anchor="start" x="746" y="-669.8" font-family="Helvetica,sans-Serif" font-weight="bold" font-size="11.00" fill="#000000">punishment_schedule</text>
<text text-anchor="start" x="891.5219" y="-669.3" font-family="Helvetica,sans-Serif" font-size="11.00" fill="#000000">[table]</text>
<polygon fill="none" stroke="#000000" points="741,-639.2 741,-661.2 926,-661.2 926,-639.2 741,-639.2"/>
<image xlink:href="../../images/primaryKeys.png" width="11px" height="12px" preserveAspectRatio="xMinYMin meet" x="746" y="-656.2"/>
<text text-anchor="start" x="770" y="-646.3" font-family="Helvetica,sans-Serif" font-size="11.00" fill="#000000">id</text>
<polygon fill="#ffffff" stroke="transparent" points="741,-617.2 741,-639.2 926,-639.2 926,-617.2 741,-617.2"/>
<polygon fill="none" stroke="#000000" points="741,-617.2 741,-639.2 926,-639.2 926,-617.2 741,-617.2"/>
<image xlink:href="../../images/foreignKeys.png" width="11px" height="12px" preserveAspectRatio="xMinYMin meet" x="746" y="-634.2"/>
<text text-anchor="start" x="770" y="-624.3" font-family="Helvetica,sans-Serif" font-size="11.00" fill="#000000">punishment_fk_id</text>
<polygon fill="#ffffff" stroke="transparent" points="741,-595.2 741,-617.2 926,-617.2 926,-595.2 741,-595.2"/>
<polygon fill="none" stroke="#000000" points="741,-595.2 741,-617.2 926,-617.2 926,-595.2 741,-595.2"/>
<text text-anchor="start" x="770" y="-602.3" font-family="Helvetica,sans-Serif" font-size="11.00" fill="#000000">end_date</text>
<polygon fill="none" stroke="#000000" points="741,-576.2 741,-595.2 926,-595.2 926,-576.2 741,-576.2"/>
<text text-anchor="start" x="744" y="-582.3" font-family="Helvetica,sans-Serif" font-size="11.00" fill="#000000">...</text>
<polygon fill="#ffffff" stroke="transparent" points="741,-557.2 741,-576.2 832,-576.2 832,-557.2 741,-557.2"/>
<polygon fill="none" stroke="#000000" points="741,-557.2 741,-576.2 832,-576.2 832,-557.2 741,-557.2"/>
<text text-anchor="start" x="744" y="-563.3" font-family="Helvetica,sans-Serif" font-size="11.00" fill="#000000">&lt; 1</text>
<polygon fill="#ffffff" stroke="transparent" points="832,-557.2 832,-576.2 879,-576.2 879,-557.2 832,-557.2"/>
<polygon fill="none" stroke="#000000" points="832,-557.2 832,-576.2 879,-576.2 879,-557.2 832,-557.2"/>
<text text-anchor="start" x="869.8862" y="-563.3" font-family="Helvetica,sans-Serif" font-size="11.00" fill="#000000"> &#160;</text>
<polygon fill="#ffffff" stroke="transparent" points="879,-557.2 879,-576.2 926,-576.2 926,-557.2 879,-557.2"/>
<polygon fill="none" stroke="#000000" points="879,-557.2 879,-576.2 926,-576.2 926,-557.2 879,-557.2"/>
<text text-anchor="start" x="916.8862" y="-563.3" font-family="Helvetica,sans-Serif" font-size="11.00" fill="#000000"> &#160;</text>
</a>
</g>
</g>
<!-- punishment_schedule&#45;&gt;punishment -->
<g id="edge2" class="edge">
<title>punishment_schedule:w&#45;&gt;punishment:e</title>
<path fill="none" stroke="#000000" d="M727.185,-623.7926C707.7211,-607.8617 723.2303,-554.2 689,-554.2"/>
<polygon fill="#000000" stroke="#000000" points="733.3785,-625.7684 739.9058,-631.6297 737.1892,-626.9842 741,-628.2 741,-628.2 741,-628.2 737.1892,-626.9842 742.0942,-624.7703 733.3785,-625.7684 733.3785,-625.7684"/>
<ellipse fill="none" stroke="#000000" cx="730.3299" cy="-624.7958" rx="3.2" ry="3.2"/>
</g>
<!-- rehabilitative_activity -->
<g id="node4" class="node">
<title>rehabilitative_activity</title>
<g id="a_node4"><a xlink:href="../../tables/rehabilitative_activity.html" xlink:title="rehabilitative_activity" target="_top">
<polygon fill="#ffffff" stroke="transparent" points="740,-431.7 740,-536.7 926,-536.7 926,-431.7 740,-431.7"/>
<polygon fill="#f5f5f5" stroke="transparent" points="740,-513.2 740,-536.2 926,-536.2 926,-513.2 740,-513.2"/>
<polygon fill="none" stroke="#000000" points="740,-513.2 740,-536.2 926,-536.2 926,-513.2 740,-513.2"/>
<text text-anchor="start" x="745" y="-521.8" font-family="Helvetica,sans-Serif" font-weight="bold" font-size="11.00" fill="#000000">rehabilitative_activity</text>
<text text-anchor="start" x="891.5219" y="-521.3" font-family="Helvetica,sans-Serif" font-size="11.00" fill="#000000">[table]</text>
<polygon fill="none" stroke="#000000" points="740,-491.2 740,-513.2 926,-513.2 926,-491.2 740,-491.2"/>
<image xlink:href="../../images/primaryKeys.png" width="11px" height="12px" preserveAspectRatio="xMinYMin meet" x="745" y="-508.2"/>
<text text-anchor="start" x="769" y="-498.3" font-family="Helvetica,sans-Serif" font-size="11.00" fill="#000000">id</text>
<polygon fill="#ffffff" stroke="transparent" points="740,-469.2 740,-491.2 926,-491.2 926,-469.2 740,-469.2"/>
<polygon fill="none" stroke="#000000" points="740,-469.2 740,-491.2 926,-491.2 926,-469.2 740,-469.2"/>
<image xlink:href="../../images/foreignKeys.png" width="11px" height="12px" preserveAspectRatio="xMinYMin meet" x="745" y="-486.2"/>
<text text-anchor="start" x="769" y="-476.3" font-family="Helvetica,sans-Serif" font-size="11.00" fill="#000000">punishment_fk_id</text>
<polygon fill="none" stroke="#000000" points="740,-450.2 740,-469.2 926,-469.2 926,-450.2 740,-450.2"/>
<text text-anchor="start" x="743" y="-456.3" font-family="Helvetica,sans-Serif" font-size="11.00" fill="#000000">...</text>
<polygon fill="#ffffff" stroke="transparent" points="740,-431.2 740,-450.2 831,-450.2 831,-431.2 740,-431.2"/>
<polygon fill="none" stroke="#000000" points="740,-431.2 740,-450.2 831,-450.2 831,-431.2 740,-431.2"/>
<text text-anchor="start" x="743" y="-437.3" font-family="Helvetica,sans-Serif" font-size="11.00" fill="#000000">&lt; 1</text>
<polygon fill="#ffffff" stroke="transparent" points="831,-431.2 831,-450.2 878,-450.2 878,-431.2 831,-431.2"/>
<polygon fill="none" stroke="#000000" points="831,-431.2 831,-450.2 878,-450.2 878,-431.2 831,-431.2"/>
<text text-anchor="start" x="868.8862" y="-437.3" font-family="Helvetica,sans-Serif" font-size="11.00" fill="#000000"> &#160;</text>
<polygon fill="#ffffff" stroke="transparent" points="878,-431.2 878,-450.2 926,-450.2 926,-431.2 878,-431.2"/>
<polygon fill="none" stroke="#000000" points="878,-431.2 878,-450.2 926,-450.2 926,-431.2 878,-431.2"/>
<text text-anchor="start" x="916.8862" y="-437.3" font-family="Helvetica,sans-Serif" font-size="11.00" fill="#000000"> &#160;</text>
</a>
</g>
</g>
<!-- rehabilitative_activity&#45;&gt;punishment -->
<g id="edge3" class="edge">
<title>rehabilitative_activity:w&#45;&gt;punishment:e</title>
<path fill="none" stroke="#000000" d="M726.0503,-484.829C707.2607,-501.0294 722.8581,-554.2 689,-554.2"/>
<polygon fill="#000000" stroke="#000000" points="732.4071,-482.7196 741.1338,-483.6168 736.2036,-481.4598 740,-480.2 740,-480.2 740,-480.2 736.2036,-481.4598 738.8662,-476.7832 732.4071,-482.7196 732.4071,-482.7196"/>
<ellipse fill="none" stroke="#000000" cx="729.37" cy="-483.7275" rx="3.2" ry="3.2"/>
</g>
</g>
</svg>
