<?xml version="1.0" encoding="UTF-8" standalone="no"?>
<!DOCTYPE svg PUBLIC "-//W3C//DTD SVG 1.1//EN"
 "http://www.w3.org/Graphics/SVG/1.1/DTD/svg11.dtd">
<!-- Generated by graphviz version 2.40.1 (20161225.0304)
 -->
<!-- Title: twoDegreesRelationshipsDiagram Pages: 1 -->
<svg width="805pt" height="421pt"
 viewBox="0.00 0.00 805.00 420.70" xmlns="http://www.w3.org/2000/svg" xmlns:xlink="http://www.w3.org/1999/xlink">
<g id="graph0" class="graph" transform="scale(1 1) rotate(0) translate(4 416.7)">
<title>twoDegreesRelationshipsDiagram</title>
<polygon fill="#ffffff" stroke="transparent" points="-4,4 -4,-416.7 801,-416.7 801,4 -4,4"/>
<text text-anchor="middle" x="72.4936" y="-7.3" font-family="Helvetica,sans-Serif" font-size="11.00" fill="#000000">Generated by SchemaSpy</text>
<!-- punishment -->
<g id="node1" class="node">
<title>punishment</title>
<g id="a_node1"><a xlink:href="../../tables/punishment.html" xlink:title="punishment" target="_top">
<polygon fill="#ffffff" stroke="transparent" points="252,-140.7 252,-355.7 484,-355.7 484,-140.7 252,-140.7"/>
<polygon fill="#f5f5f5" stroke="transparent" points="252,-332.2 252,-355.2 484,-355.2 484,-332.2 252,-332.2"/>
<polygon fill="none" stroke="#000000" points="252,-332.2 252,-355.2 484,-355.2 484,-332.2 252,-332.2"/>
<text text-anchor="start" x="257" y="-340.8" font-family="Helvetica,sans-Serif" font-weight="bold" font-size="11.00" fill="#000000">punishment</text>
<text text-anchor="start" x="449.0437" y="-340.3" font-family="Helvetica,sans-Serif" font-size="11.00" fill="#000000">[table]</text>
<polygon fill="none" stroke="#000000" points="252,-310.2 252,-332.2 484,-332.2 484,-310.2 252,-310.2"/>
<image xlink:href="../../images/primaryKeys.png" width="11px" height="12px" preserveAspectRatio="xMinYMin meet" x="257" y="-327.2"/>
<text text-anchor="start" x="272" y="-317.3" font-family="Helvetica,sans-Serif" font-size="11.00" fill="#000000">id</text>
<polygon fill="#ffffff" stroke="transparent" points="252,-288.2 252,-310.2 484,-310.2 484,-288.2 252,-288.2"/>
<polygon fill="none" stroke="#000000" points="252,-288.2 252,-310.2 484,-310.2 484,-288.2 252,-288.2"/>
<image xlink:href="../../images/foreignKeys.png" width="11px" height="12px" preserveAspectRatio="xMinYMin meet" x="257" y="-305.2"/>
<text text-anchor="start" x="272" y="-295.3" font-family="Helvetica,sans-Serif" font-size="11.00" fill="#000000">reported_adjudication_fk_id</text>
<polygon fill="#ffffff" stroke="transparent" points="252,-266.2 252,-288.2 484,-288.2 484,-266.2 252,-266.2"/>
<polygon fill="none" stroke="#000000" points="252,-266.2 252,-288.2 484,-288.2 484,-266.2 252,-266.2"/>
<text text-anchor="start" x="272" y="-273.3" font-family="Helvetica,sans-Serif" font-size="11.00" fill="#000000">type</text>
<polygon fill="#ffffff" stroke="transparent" points="252,-244.2 252,-266.2 484,-266.2 484,-244.2 252,-244.2"/>
<polygon fill="none" stroke="#000000" points="252,-244.2 252,-266.2 484,-266.2 484,-244.2 252,-244.2"/>
<text text-anchor="start" x="272" y="-251.3" font-family="Helvetica,sans-Serif" font-size="11.00" fill="#000000">activated_by_charge_number</text>
<polygon fill="#ffffff" stroke="transparent" points="252,-222.2 252,-244.2 484,-244.2 484,-222.2 252,-222.2"/>
<polygon fill="none" stroke="#000000" points="252,-222.2 252,-244.2 484,-244.2 484,-222.2 252,-222.2"/>
<text text-anchor="start" x="272" y="-229.3" font-family="Helvetica,sans-Serif" font-size="11.00" fill="#000000">suspended_until</text>
<polygon fill="#ffffff" stroke="transparent" points="252,-200.2 252,-222.2 484,-222.2 484,-200.2 252,-200.2"/>
<polygon fill="none" stroke="#000000" points="252,-200.2 252,-222.2 484,-222.2 484,-200.2 252,-200.2"/>
<text text-anchor="start" x="272" y="-207.3" font-family="Helvetica,sans-Serif" font-size="11.00" fill="#000000">consecutive_to_charge_number</text>
<polygon fill="#ffffff" stroke="transparent" points="252,-178.2 252,-200.2 484,-200.2 484,-178.2 252,-178.2"/>
<polygon fill="none" stroke="#000000" points="252,-178.2 252,-200.2 484,-200.2 484,-178.2 252,-178.2"/>
<text text-anchor="start" x="272" y="-185.3" font-family="Helvetica,sans-Serif" font-size="11.00" fill="#000000">punishment_pre_migrate_id</text>
<polygon fill="none" stroke="#000000" points="252,-159.2 252,-178.2 484,-178.2 484,-159.2 252,-159.2"/>
<text text-anchor="start" x="255" y="-165.3" font-family="Helvetica,sans-Serif" font-size="11.00" fill="#000000">...</text>
<polygon fill="#ffffff" stroke="transparent" points="252,-140.2 252,-159.2 362,-159.2 362,-140.2 252,-140.2"/>
<polygon fill="none" stroke="#000000" points="252,-140.2 252,-159.2 362,-159.2 362,-140.2 252,-140.2"/>
<text text-anchor="start" x="255" y="-146.3" font-family="Helvetica,sans-Serif" font-size="11.00" fill="#000000">&lt; 1</text>
<polygon fill="#ffffff" stroke="transparent" points="362,-140.2 362,-159.2 418,-159.2 418,-140.2 362,-140.2"/>
<polygon fill="none" stroke="#000000" points="362,-140.2 362,-159.2 418,-159.2 418,-140.2 362,-140.2"/>
<text text-anchor="start" x="408.8862" y="-146.3" font-family="Helvetica,sans-Serif" font-size="11.00" fill="#000000"> &#160;</text>
<polygon fill="#ffffff" stroke="transparent" points="418,-140.2 418,-159.2 484,-159.2 484,-140.2 418,-140.2"/>
<polygon fill="none" stroke="#000000" points="418,-140.2 418,-159.2 484,-159.2 484,-140.2 418,-140.2"/>
<text text-anchor="start" x="465.4053" y="-146.3" font-family="Helvetica,sans-Serif" font-size="11.00" fill="#000000">2 &gt;</text>
</a>
</g>
</g>
<!-- reported_adjudications -->
<g id="node2" class="node">
<title>reported_adjudications</title>
<g id="a_node2"><a xlink:href="../../tables/reported_adjudications.html" xlink:title="reported_adjudications" target="_top">
<polygon fill="#ffffff" stroke="transparent" points="8,-271.7 8,-332.7 203,-332.7 203,-271.7 8,-271.7"/>
<polygon fill="#f5f5f5" stroke="transparent" points="8.5,-309.2 8.5,-332.2 203.5,-332.2 203.5,-309.2 8.5,-309.2"/>
<polygon fill="none" stroke="#000000" points="8.5,-309.2 8.5,-332.2 203.5,-332.2 203.5,-309.2 8.5,-309.2"/>
<text text-anchor="start" x="13.5" y="-317.8" font-family="Helvetica,sans-Serif" font-weight="bold" font-size="11.00" fill="#000000">reported_adjudications</text>
<text text-anchor="start" x="169.0219" y="-317.3" font-family="Helvetica,sans-Serif" font-size="11.00" fill="#000000">[table]</text>
<polygon fill="none" stroke="#000000" points="8.5,-290.2 8.5,-309.2 203.5,-309.2 203.5,-290.2 8.5,-290.2"/>
<text text-anchor="start" x="11.5" y="-296.3" font-family="Helvetica,sans-Serif" font-size="11.00" fill="#000000">...</text>
<polygon fill="#ffffff" stroke="transparent" points="8.5,-271.2 8.5,-290.2 95.5,-290.2 95.5,-271.2 8.5,-271.2"/>
<polygon fill="none" stroke="#000000" points="8.5,-271.2 8.5,-290.2 95.5,-290.2 95.5,-271.2 8.5,-271.2"/>
<text text-anchor="start" x="11.5" y="-277.3" font-family="Helvetica,sans-Serif" font-size="11.00" fill="#000000"> &#160;</text>
<polygon fill="#ffffff" stroke="transparent" points="95.5,-271.2 95.5,-290.2 144.5,-290.2 144.5,-271.2 95.5,-271.2"/>
<polygon fill="none" stroke="#000000" points="95.5,-271.2 95.5,-290.2 144.5,-290.2 144.5,-271.2 95.5,-271.2"/>
<text text-anchor="start" x="135.3862" y="-277.3" font-family="Helvetica,sans-Serif" font-size="11.00" fill="#000000"> &#160;</text>
<polygon fill="#ffffff" stroke="transparent" points="144.5,-271.2 144.5,-290.2 203.5,-290.2 203.5,-271.2 144.5,-271.2"/>
<polygon fill="none" stroke="#000000" points="144.5,-271.2 144.5,-290.2 203.5,-290.2 203.5,-271.2 144.5,-271.2"/>
<text text-anchor="start" x="184.9053" y="-277.3" font-family="Helvetica,sans-Serif" font-size="11.00" fill="#000000">9 &gt;</text>
</a>
</g>
</g>
<!-- punishment&#45;&gt;reported_adjudications -->
<g id="edge1" class="edge">
<title>punishment:w&#45;&gt;reported_adjudications:e</title>
<path fill="none" stroke="#000000" d="M237.2829,-299.2C226.2886,-299.2 219.1615,-299.2 203.5,-299.2"/>
<polygon fill="#000000" stroke="#000000" points="244,-299.2001 252,-302.8 248,-299.2 252,-299.2 252,-299.2 252,-299.2 248,-299.2 252,-295.6 244,-299.2001 244,-299.2001"/>
<ellipse fill="none" stroke="#000000" cx="240.8" cy="-299.2001" rx="3.2" ry="3.2"/>
</g>
<!-- punishment_schedule -->
<g id="node3" class="node">
<title>punishment_schedule</title>
<g id="a_node3"><a xlink:href="../../tables/punishment_schedule.html" xlink:title="punishment_schedule" target="_top">
<polygon fill="#ffffff" stroke="transparent" points="568.5,-347.7 568.5,-408.7 753.5,-408.7 753.5,-347.7 568.5,-347.7"/>
<polygon fill="#f5f5f5" stroke="transparent" points="569,-385.2 569,-408.2 754,-408.2 754,-385.2 569,-385.2"/>
<polygon fill="none" stroke="#000000" points="569,-385.2 569,-408.2 754,-408.2 754,-385.2 569,-385.2"/>
<text text-anchor="start" x="574" y="-393.8" font-family="Helvetica,sans-Serif" font-weight="bold" font-size="11.00" fill="#000000">punishment_schedule</text>
<text text-anchor="start" x="719.5219" y="-393.3" font-family="Helvetica,sans-Serif" font-size="11.00" fill="#000000">[table]</text>
<polygon fill="none" stroke="#000000" points="569,-366.2 569,-385.2 754,-385.2 754,-366.2 569,-366.2"/>
<text text-anchor="start" x="572" y="-372.3" font-family="Helvetica,sans-Serif" font-size="11.00" fill="#000000">...</text>
<polygon fill="#ffffff" stroke="transparent" points="569,-347.2 569,-366.2 660,-366.2 660,-347.2 569,-347.2"/>
<polygon fill="none" stroke="#000000" points="569,-347.2 569,-366.2 660,-366.2 660,-347.2 569,-347.2"/>
<text text-anchor="start" x="572" y="-353.3" font-family="Helvetica,sans-Serif" font-size="11.00" fill="#000000">&lt; 1</text>
<polygon fill="#ffffff" stroke="transparent" points="660,-347.2 660,-366.2 707,-366.2 707,-347.2 660,-347.2"/>
<polygon fill="none" stroke="#000000" points="660,-347.2 660,-366.2 707,-366.2 707,-347.2 660,-347.2"/>
<text text-anchor="start" x="697.8862" y="-353.3" font-family="Helvetica,sans-Serif" font-size="11.00" fill="#000000"> &#160;</text>
<polygon fill="#ffffff" stroke="transparent" points="707,-347.2 707,-366.2 754,-366.2 754,-347.2 707,-347.2"/>
<polygon fill="none" stroke="#000000" points="707,-347.2 707,-366.2 754,-366.2 754,-347.2 707,-347.2"/>
<text text-anchor="start" x="744.8862" y="-353.3" font-family="Helvetica,sans-Serif" font-size="11.00" fill="#000000"> &#160;</text>
</a>
</g>
</g>
<!-- punishment_schedule&#45;&gt;punishment -->
<g id="edge2" class="edge">
<title>punishment_schedule:w&#45;&gt;punishment:e</title>
<path fill="none" stroke="#000000" d="M554.7332,-373.0163C524.6139,-362.9137 523.3369,-321.2 484,-321.2"/>
<polygon fill="#000000" stroke="#000000" points="561.0921,-373.9895 568.4553,-378.7586 565.046,-374.5948 569,-375.2 569,-375.2 569,-375.2 565.046,-374.5948 569.5447,-371.6414 561.0921,-373.9895 561.0921,-373.9895"/>
<ellipse fill="none" stroke="#000000" cx="557.9289" cy="-373.5053" rx="3.2" ry="3.2"/>
</g>
<!-- rehabilitative_activity -->
<g id="node4" class="node">
<title>rehabilitative_activity</title>
<g id="a_node4"><a xlink:href="../../tables/rehabilitative_activity.html" xlink:title="rehabilitative_activity" target="_top">
<polygon fill="#ffffff" stroke="transparent" points="533,-38.2 533,-326.2 789,-326.2 789,-38.2 533,-38.2"/>
<polygon fill="#f5f5f5" stroke="transparent" points="535,-301.2 535,-324.2 787,-324.2 787,-301.2 535,-301.2"/>
<polygon fill="none" stroke="#000000" points="535,-301.2 535,-324.2 787,-324.2 787,-301.2 535,-301.2"/>
<text text-anchor="start" x="540" y="-309.8" font-family="Helvetica,sans-Serif" font-weight="bold" font-size="11.00" fill="#000000">rehabilitative_activity</text>
<text text-anchor="start" x="752.0437" y="-309.3" font-family="Helvetica,sans-Serif" font-size="11.00" fill="#000000">[table]</text>
<polygon fill="none" stroke="#000000" points="535,-279.2 535,-301.2 703,-301.2 703,-279.2 535,-279.2"/>
<image xlink:href="../../images/primaryKeys.png" width="11px" height="12px" preserveAspectRatio="xMinYMin meet" x="540" y="-296.2"/>
<text text-anchor="start" x="555" y="-286.3" font-family="Helvetica,sans-Serif" font-size="11.00" fill="#000000">id</text>
<polygon fill="none" stroke="#000000" points="703,-279.2 703,-301.2 787,-301.2 787,-279.2 703,-279.2"/>
<text text-anchor="start" x="706" y="-286.9" font-family="Helvetica,sans-Serif" font-size="11.00" fill="#000000">serial[10]</text>
<polygon fill="#ffffff" stroke="transparent" points="535,-257.2 535,-279.2 703,-279.2 703,-257.2 535,-257.2"/>
<polygon fill="none" stroke="#000000" points="535,-257.2 535,-279.2 703,-279.2 703,-257.2 535,-257.2"/>
<image xlink:href="../../images/foreignKeys.png" width="11px" height="12px" preserveAspectRatio="xMinYMin meet" x="540" y="-274.2"/>
<text text-anchor="start" x="555" y="-264.3" font-family="Helvetica,sans-Serif" font-size="11.00" fill="#000000">punishment_fk_id</text>
<polygon fill="none" stroke="#000000" points="703,-257.2 703,-279.2 787,-279.2 787,-257.2 703,-257.2"/>
<text text-anchor="start" x="706" y="-264.9" font-family="Helvetica,sans-Serif" font-size="11.00" fill="#000000">int8[19]</text>
<polygon fill="none" stroke="#000000" points="535,-235.2 535,-257.2 703,-257.2 703,-235.2 535,-235.2"/>
<text text-anchor="start" x="555" y="-242.3" font-family="Helvetica,sans-Serif" font-size="11.00" fill="#000000">details</text>
<polygon fill="none" stroke="#000000" points="703,-235.2 703,-257.2 787,-257.2 787,-235.2 703,-235.2"/>
<text text-anchor="start" x="706" y="-242.9" font-family="Helvetica,sans-Serif" font-size="11.00" fill="#000000">varchar[4000]</text>
<polygon fill="none" stroke="#000000" points="535,-213.2 535,-235.2 703,-235.2 703,-213.2 535,-213.2"/>
<text text-anchor="start" x="555" y="-220.3" font-family="Helvetica,sans-Serif" font-size="11.00" fill="#000000">monitor</text>
<polygon fill="none" stroke="#000000" points="703,-213.2 703,-235.2 787,-235.2 787,-213.2 703,-213.2"/>
<text text-anchor="start" x="706" y="-220.9" font-family="Helvetica,sans-Serif" font-size="11.00" fill="#000000">varchar[32]</text>
<polygon fill="none" stroke="#000000" points="535,-191.2 535,-213.2 703,-213.2 703,-191.2 535,-191.2"/>
<text text-anchor="start" x="555" y="-198.3" font-family="Helvetica,sans-Serif" font-size="11.00" fill="#000000">end_date</text>
<polygon fill="none" stroke="#000000" points="703,-191.2 703,-213.2 787,-213.2 787,-191.2 703,-191.2"/>
<text text-anchor="start" x="705.8807" y="-198.9" font-family="Helvetica,sans-Serif" font-size="11.00" fill="#000000">timestamp[29,6]</text>
<polygon fill="none" stroke="#000000" points="535,-169.2 535,-191.2 703,-191.2 703,-169.2 535,-169.2"/>
<text text-anchor="start" x="555" y="-176.3" font-family="Helvetica,sans-Serif" font-size="11.00" fill="#000000">total_sessions</text>
<polygon fill="none" stroke="#000000" points="703,-169.2 703,-191.2 787,-191.2 787,-169.2 703,-169.2"/>
<text text-anchor="start" x="706" y="-176.9" font-family="Helvetica,sans-Serif" font-size="11.00" fill="#000000">int4[10]</text>
<polygon fill="none" stroke="#000000" points="535,-147.2 535,-169.2 703,-169.2 703,-147.2 535,-147.2"/>
<text text-anchor="start" x="555" y="-154.3" font-family="Helvetica,sans-Serif" font-size="11.00" fill="#000000">completed</text>
<polygon fill="none" stroke="#000000" points="703,-147.2 703,-169.2 787,-169.2 787,-147.2 703,-147.2"/>
<text text-anchor="start" x="706" y="-154.9" font-family="Helvetica,sans-Serif" font-size="11.00" fill="#000000">bool[1]</text>
<polygon fill="none" stroke="#000000" points="535,-125.2 535,-147.2 703,-147.2 703,-125.2 535,-125.2"/>
<text text-anchor="start" x="555" y="-132.3" font-family="Helvetica,sans-Serif" font-size="11.00" fill="#000000">create_user_id</text>
<polygon fill="none" stroke="#000000" points="703,-125.2 703,-147.2 787,-147.2 787,-125.2 703,-125.2"/>
<text text-anchor="start" x="706" y="-132.9" font-family="Helvetica,sans-Serif" font-size="11.00" fill="#000000">varchar[32]</text>
<polygon fill="none" stroke="#000000" points="535,-103.2 535,-125.2 703,-125.2 703,-103.2 535,-103.2"/>
<text text-anchor="start" x="555" y="-110.3" font-family="Helvetica,sans-Serif" font-size="11.00" fill="#000000">create_datetime</text>
<polygon fill="none" stroke="#000000" points="703,-103.2 703,-125.2 787,-125.2 787,-103.2 703,-103.2"/>
<text text-anchor="start" x="705.8807" y="-110.9" font-family="Helvetica,sans-Serif" font-size="11.00" fill="#000000">timestamp[29,6]</text>
<polygon fill="none" stroke="#000000" points="535,-81.2 535,-103.2 703,-103.2 703,-81.2 535,-81.2"/>
<text text-anchor="start" x="555" y="-88.3" font-family="Helvetica,sans-Serif" font-size="11.00" fill="#000000">modify_user_id</text>
<polygon fill="none" stroke="#000000" points="703,-81.2 703,-103.2 787,-103.2 787,-81.2 703,-81.2"/>
<text text-anchor="start" x="706" y="-88.9" font-family="Helvetica,sans-Serif" font-size="11.00" fill="#000000">varchar[32]</text>
<polygon fill="none" stroke="#000000" points="535,-59.2 535,-81.2 703,-81.2 703,-59.2 535,-59.2"/>
<text text-anchor="start" x="555" y="-66.3" font-family="Helvetica,sans-Serif" font-size="11.00" fill="#000000">modify_datetime</text>
<polygon fill="none" stroke="#000000" points="703,-59.2 703,-81.2 787,-81.2 787,-59.2 703,-59.2"/>
<text text-anchor="start" x="705.8807" y="-66.9" font-family="Helvetica,sans-Serif" font-size="11.00" fill="#000000">timestamp[29,6]</text>
<polygon fill="#ffffff" stroke="transparent" points="535,-40.2 535,-59.2 623,-59.2 623,-40.2 535,-40.2"/>
<polygon fill="none" stroke="#000000" points="535,-40.2 535,-59.2 623,-59.2 623,-40.2 535,-40.2"/>
<text text-anchor="start" x="538" y="-46.3" font-family="Helvetica,sans-Serif" font-size="11.00" fill="#000000">&lt; 1</text>
<polygon fill="#ffffff" stroke="transparent" points="623,-40.2 623,-59.2 703,-59.2 703,-40.2 623,-40.2"/>
<polygon fill="none" stroke="#000000" points="623,-40.2 623,-59.2 703,-59.2 703,-40.2 623,-40.2"/>
<text text-anchor="start" x="693.8862" y="-46.3" font-family="Helvetica,sans-Serif" font-size="11.00" fill="#000000"> &#160;</text>
<polygon fill="#ffffff" stroke="transparent" points="703,-40.2 703,-59.2 787,-59.2 787,-40.2 703,-40.2"/>
<polygon fill="none" stroke="#000000" points="703,-40.2 703,-59.2 787,-59.2 787,-40.2 703,-40.2"/>
<text text-anchor="start" x="768.4053" y="-46.3" font-family="Helvetica,sans-Serif" font-size="11.00" fill="#000000">0 &gt;</text>
<polygon fill="none" stroke="#000000" stroke-width="2" points="534,-39.2 534,-325.2 788,-325.2 788,-39.2 534,-39.2"/>
</a>
</g>
</g>
<!-- rehabilitative_activity&#45;&gt;punishment -->
<g id="edge3" class="edge">
<title>rehabilitative_activity:w&#45;&gt;punishment:e</title>
<path fill="none" stroke="#000000" d="M520.9557,-273.0911C506.0477,-286.2117 510.5607,-321.2 484,-321.2"/>
<polygon fill="#000000" stroke="#000000" points="527.445,-270.8311 536.184,-271.5997 531.2225,-269.5156 535,-268.2 535,-268.2 535,-268.2 531.2225,-269.5156 533.816,-264.8003 527.445,-270.8311 527.445,-270.8311"/>
<ellipse fill="none" stroke="#000000" cx="524.4231" cy="-271.8836" rx="3.2" ry="3.2"/>
</g>
</g>
</svg>
