<?xml version="1.0" encoding="UTF-8" standalone="no"?>
<!DOCTYPE svg PUBLIC "-//W3C//DTD SVG 1.1//EN"
 "http://www.w3.org/Graphics/SVG/1.1/DTD/svg11.dtd">
<!-- Generated by graphviz version 2.40.1 (20161225.0304)
 -->
<!-- Title: oneDegreeRelationshipsDiagram Pages: 1 -->
<svg width="561pt" height="338pt"
 viewBox="0.00 0.00 561.00 338.20" xmlns="http://www.w3.org/2000/svg" xmlns:xlink="http://www.w3.org/1999/xlink">
<g id="graph0" class="graph" transform="scale(1 1) rotate(0) translate(4 334.2)">
<title>oneDegreeRelationshipsDiagram</title>
<polygon fill="#ffffff" stroke="transparent" points="-4,4 -4,-334.2 557,-334.2 557,4 -4,4"/>
<text text-anchor="middle" x="72.4936" y="-7.3" font-family="Helvetica,sans-Serif" font-size="11.00" fill="#000000">Generated by SchemaSpy</text>
<!-- rehabilitative_activity -->
<g id="node1" class="node">
<title>rehabilitative_activity</title>
<g id="a_node1"><a xlink:href="../../tables/rehabilitative_activity.html" xlink:title="rehabilitative_activity" target="_top">
<polygon fill="#ffffff" stroke="transparent" points="289,-38.2 289,-326.2 545,-326.2 545,-38.2 289,-38.2"/>
<polygon fill="#f5f5f5" stroke="transparent" points="291,-301.2 291,-324.2 543,-324.2 543,-301.2 291,-301.2"/>
<polygon fill="none" stroke="#000000" points="291,-301.2 291,-324.2 543,-324.2 543,-301.2 291,-301.2"/>
<text text-anchor="start" x="296" y="-309.8" font-family="Helvetica,sans-Serif" font-weight="bold" font-size="11.00" fill="#000000">rehabilitative_activity</text>
<text text-anchor="start" x="508.0437" y="-309.3" font-family="Helvetica,sans-Serif" font-size="11.00" fill="#000000">[table]</text>
<polygon fill="none" stroke="#000000" points="291,-279.2 291,-301.2 459,-301.2 459,-279.2 291,-279.2"/>
<image xlink:href="../../images/primaryKeys.png" width="11px" height="12px" preserveAspectRatio="xMinYMin meet" x="296" y="-296.2"/>
<text text-anchor="start" x="311" y="-286.3" font-family="Helvetica,sans-Serif" font-size="11.00" fill="#000000">id</text>
<polygon fill="none" stroke="#000000" points="459,-279.2 459,-301.2 543,-301.2 543,-279.2 459,-279.2"/>
<text text-anchor="start" x="462" y="-286.9" font-family="Helvetica,sans-Serif" font-size="11.00" fill="#000000">serial[10]</text>
<polygon fill="#ffffff" stroke="transparent" points="291,-257.2 291,-279.2 459,-279.2 459,-257.2 291,-257.2"/>
<polygon fill="none" stroke="#000000" points="291,-257.2 291,-279.2 459,-279.2 459,-257.2 291,-257.2"/>
<image xlink:href="../../images/foreignKeys.png" width="11px" height="12px" preserveAspectRatio="xMinYMin meet" x="296" y="-274.2"/>
<text text-anchor="start" x="311" y="-264.3" font-family="Helvetica,sans-Serif" font-size="11.00" fill="#000000">punishment_fk_id</text>
<polygon fill="none" stroke="#000000" points="459,-257.2 459,-279.2 543,-279.2 543,-257.2 459,-257.2"/>
<text text-anchor="start" x="462" y="-264.9" font-family="Helvetica,sans-Serif" font-size="11.00" fill="#000000">int8[19]</text>
<polygon fill="none" stroke="#000000" points="291,-235.2 291,-257.2 459,-257.2 459,-235.2 291,-235.2"/>
<text text-anchor="start" x="311" y="-242.3" font-family="Helvetica,sans-Serif" font-size="11.00" fill="#000000">details</text>
<polygon fill="none" stroke="#000000" points="459,-235.2 459,-257.2 543,-257.2 543,-235.2 459,-235.2"/>
<text text-anchor="start" x="462" y="-242.9" font-family="Helvetica,sans-Serif" font-size="11.00" fill="#000000">varchar[4000]</text>
<polygon fill="none" stroke="#000000" points="291,-213.2 291,-235.2 459,-235.2 459,-213.2 291,-213.2"/>
<text text-anchor="start" x="311" y="-220.3" font-family="Helvetica,sans-Serif" font-size="11.00" fill="#000000">monitor</text>
<polygon fill="none" stroke="#000000" points="459,-213.2 459,-235.2 543,-235.2 543,-213.2 459,-213.2"/>
<text text-anchor="start" x="462" y="-220.9" font-family="Helvetica,sans-Serif" font-size="11.00" fill="#000000">varchar[32]</text>
<polygon fill="none" stroke="#000000" points="291,-191.2 291,-213.2 459,-213.2 459,-191.2 291,-191.2"/>
<text text-anchor="start" x="311" y="-198.3" font-family="Helvetica,sans-Serif" font-size="11.00" fill="#000000">end_date</text>
<polygon fill="none" stroke="#000000" points="459,-191.2 459,-213.2 543,-213.2 543,-191.2 459,-191.2"/>
<text text-anchor="start" x="461.8807" y="-198.9" font-family="Helvetica,sans-Serif" font-size="11.00" fill="#000000">timestamp[29,6]</text>
<polygon fill="none" stroke="#000000" points="291,-169.2 291,-191.2 459,-191.2 459,-169.2 291,-169.2"/>
<text text-anchor="start" x="311" y="-176.3" font-family="Helvetica,sans-Serif" font-size="11.00" fill="#000000">total_sessions</text>
<polygon fill="none" stroke="#000000" points="459,-169.2 459,-191.2 543,-191.2 543,-169.2 459,-169.2"/>
<text text-anchor="start" x="462" y="-176.9" font-family="Helvetica,sans-Serif" font-size="11.00" fill="#000000">int4[10]</text>
<polygon fill="none" stroke="#000000" points="291,-147.2 291,-169.2 459,-169.2 459,-147.2 291,-147.2"/>
<text text-anchor="start" x="311" y="-154.3" font-family="Helvetica,sans-Serif" font-size="11.00" fill="#000000">completed</text>
<polygon fill="none" stroke="#000000" points="459,-147.2 459,-169.2 543,-169.2 543,-147.2 459,-147.2"/>
<text text-anchor="start" x="462" y="-154.9" font-family="Helvetica,sans-Serif" font-size="11.00" fill="#000000">bool[1]</text>
<polygon fill="none" stroke="#000000" points="291,-125.2 291,-147.2 459,-147.2 459,-125.2 291,-125.2"/>
<text text-anchor="start" x="311" y="-132.3" font-family="Helvetica,sans-Serif" font-size="11.00" fill="#000000">create_user_id</text>
<polygon fill="none" stroke="#000000" points="459,-125.2 459,-147.2 543,-147.2 543,-125.2 459,-125.2"/>
<text text-anchor="start" x="462" y="-132.9" font-family="Helvetica,sans-Serif" font-size="11.00" fill="#000000">varchar[32]</text>
<polygon fill="none" stroke="#000000" points="291,-103.2 291,-125.2 459,-125.2 459,-103.2 291,-103.2"/>
<text text-anchor="start" x="311" y="-110.3" font-family="Helvetica,sans-Serif" font-size="11.00" fill="#000000">create_datetime</text>
<polygon fill="none" stroke="#000000" points="459,-103.2 459,-125.2 543,-125.2 543,-103.2 459,-103.2"/>
<text text-anchor="start" x="461.8807" y="-110.9" font-family="Helvetica,sans-Serif" font-size="11.00" fill="#000000">timestamp[29,6]</text>
<polygon fill="none" stroke="#000000" points="291,-81.2 291,-103.2 459,-103.2 459,-81.2 291,-81.2"/>
<text text-anchor="start" x="311" y="-88.3" font-family="Helvetica,sans-Serif" font-size="11.00" fill="#000000">modify_user_id</text>
<polygon fill="none" stroke="#000000" points="459,-81.2 459,-103.2 543,-103.2 543,-81.2 459,-81.2"/>
<text text-anchor="start" x="462" y="-88.9" font-family="Helvetica,sans-Serif" font-size="11.00" fill="#000000">varchar[32]</text>
<polygon fill="none" stroke="#000000" points="291,-59.2 291,-81.2 459,-81.2 459,-59.2 291,-59.2"/>
<text text-anchor="start" x="311" y="-66.3" font-family="Helvetica,sans-Serif" font-size="11.00" fill="#000000">modify_datetime</text>
<polygon fill="none" stroke="#000000" points="459,-59.2 459,-81.2 543,-81.2 543,-59.2 459,-59.2"/>
<text text-anchor="start" x="461.8807" y="-66.9" font-family="Helvetica,sans-Serif" font-size="11.00" fill="#000000">timestamp[29,6]</text>
<polygon fill="#ffffff" stroke="transparent" points="291,-40.2 291,-59.2 379,-59.2 379,-40.2 291,-40.2"/>
<polygon fill="none" stroke="#000000" points="291,-40.2 291,-59.2 379,-59.2 379,-40.2 291,-40.2"/>
<text text-anchor="start" x="294" y="-46.3" font-family="Helvetica,sans-Serif" font-size="11.00" fill="#000000">&lt; 1</text>
<polygon fill="#ffffff" stroke="transparent" points="379,-40.2 379,-59.2 459,-59.2 459,-40.2 379,-40.2"/>
<polygon fill="none" stroke="#000000" points="379,-40.2 379,-59.2 459,-59.2 459,-40.2 379,-40.2"/>
<text text-anchor="start" x="449.8862" y="-46.3" font-family="Helvetica,sans-Serif" font-size="11.00" fill="#000000"> &#160;</text>
<polygon fill="#ffffff" stroke="transparent" points="459,-40.2 459,-59.2 543,-59.2 543,-40.2 459,-40.2"/>
<polygon fill="none" stroke="#000000" points="459,-40.2 459,-59.2 543,-59.2 543,-40.2 459,-40.2"/>
<text text-anchor="start" x="524.4053" y="-46.3" font-family="Helvetica,sans-Serif" font-size="11.00" fill="#000000">0 &gt;</text>
<polygon fill="none" stroke="#000000" stroke-width="2" points="290,-39.2 290,-325.2 544,-325.2 544,-39.2 290,-39.2"/>
</a>
</g>
</g>
<!-- punishment -->
<g id="node2" class="node">
<title>punishment</title>
<g id="a_node2"><a xlink:href="../../tables/punishment.html" xlink:title="punishment" target="_top">
<polygon fill="#ffffff" stroke="transparent" points="8,-87.7 8,-302.7 240,-302.7 240,-87.7 8,-87.7"/>
<polygon fill="#f5f5f5" stroke="transparent" points="8,-279.2 8,-302.2 240,-302.2 240,-279.2 8,-279.2"/>
<polygon fill="none" stroke="#000000" points="8,-279.2 8,-302.2 240,-302.2 240,-279.2 8,-279.2"/>
<text text-anchor="start" x="13" y="-287.8" font-family="Helvetica,sans-Serif" font-weight="bold" font-size="11.00" fill="#000000">punishment</text>
<text text-anchor="start" x="205.0437" y="-287.3" font-family="Helvetica,sans-Serif" font-size="11.00" fill="#000000">[table]</text>
<polygon fill="none" stroke="#000000" points="8,-257.2 8,-279.2 240,-279.2 240,-257.2 8,-257.2"/>
<image xlink:href="../../images/primaryKeys.png" width="11px" height="12px" preserveAspectRatio="xMinYMin meet" x="13" y="-274.2"/>
<text text-anchor="start" x="28" y="-264.3" font-family="Helvetica,sans-Serif" font-size="11.00" fill="#000000">id</text>
<polygon fill="#ffffff" stroke="transparent" points="8,-235.2 8,-257.2 240,-257.2 240,-235.2 8,-235.2"/>
<polygon fill="none" stroke="#000000" points="8,-235.2 8,-257.2 240,-257.2 240,-235.2 8,-235.2"/>
<image xlink:href="../../images/foreignKeys.png" width="11px" height="12px" preserveAspectRatio="xMinYMin meet" x="13" y="-252.2"/>
<text text-anchor="start" x="28" y="-242.3" font-family="Helvetica,sans-Serif" font-size="11.00" fill="#000000">reported_adjudication_fk_id</text>
<polygon fill="#ffffff" stroke="transparent" points="8,-213.2 8,-235.2 240,-235.2 240,-213.2 8,-213.2"/>
<polygon fill="none" stroke="#000000" points="8,-213.2 8,-235.2 240,-235.2 240,-213.2 8,-213.2"/>
<text text-anchor="start" x="28" y="-220.3" font-family="Helvetica,sans-Serif" font-size="11.00" fill="#000000">type</text>
<polygon fill="#ffffff" stroke="transparent" points="8,-191.2 8,-213.2 240,-213.2 240,-191.2 8,-191.2"/>
<polygon fill="none" stroke="#000000" points="8,-191.2 8,-213.2 240,-213.2 240,-191.2 8,-191.2"/>
<text text-anchor="start" x="28" y="-198.3" font-family="Helvetica,sans-Serif" font-size="11.00" fill="#000000">activated_by_charge_number</text>
<polygon fill="#ffffff" stroke="transparent" points="8,-169.2 8,-191.2 240,-191.2 240,-169.2 8,-169.2"/>
<polygon fill="none" stroke="#000000" points="8,-169.2 8,-191.2 240,-191.2 240,-169.2 8,-169.2"/>
<text text-anchor="start" x="28" y="-176.3" font-family="Helvetica,sans-Serif" font-size="11.00" fill="#000000">suspended_until</text>
<polygon fill="#ffffff" stroke="transparent" points="8,-147.2 8,-169.2 240,-169.2 240,-147.2 8,-147.2"/>
<polygon fill="none" stroke="#000000" points="8,-147.2 8,-169.2 240,-169.2 240,-147.2 8,-147.2"/>
<text text-anchor="start" x="28" y="-154.3" font-family="Helvetica,sans-Serif" font-size="11.00" fill="#000000">consecutive_to_charge_number</text>
<polygon fill="#ffffff" stroke="transparent" points="8,-125.2 8,-147.2 240,-147.2 240,-125.2 8,-125.2"/>
<polygon fill="none" stroke="#000000" points="8,-125.2 8,-147.2 240,-147.2 240,-125.2 8,-125.2"/>
<text text-anchor="start" x="28" y="-132.3" font-family="Helvetica,sans-Serif" font-size="11.00" fill="#000000">punishment_pre_migrate_id</text>
<polygon fill="none" stroke="#000000" points="8,-106.2 8,-125.2 240,-125.2 240,-106.2 8,-106.2"/>
<text text-anchor="start" x="11" y="-112.3" font-family="Helvetica,sans-Serif" font-size="11.00" fill="#000000">...</text>
<polygon fill="#ffffff" stroke="transparent" points="8,-87.2 8,-106.2 118,-106.2 118,-87.2 8,-87.2"/>
<polygon fill="none" stroke="#000000" points="8,-87.2 8,-106.2 118,-106.2 118,-87.2 8,-87.2"/>
<text text-anchor="start" x="11" y="-93.3" font-family="Helvetica,sans-Serif" font-size="11.00" fill="#000000">&lt; 1</text>
<polygon fill="#ffffff" stroke="transparent" points="118,-87.2 118,-106.2 174,-106.2 174,-87.2 118,-87.2"/>
<polygon fill="none" stroke="#000000" points="118,-87.2 118,-106.2 174,-106.2 174,-87.2 118,-87.2"/>
<text text-anchor="start" x="164.8862" y="-93.3" font-family="Helvetica,sans-Serif" font-size="11.00" fill="#000000"> &#160;</text>
<polygon fill="#ffffff" stroke="transparent" points="174,-87.2 174,-106.2 240,-106.2 240,-87.2 174,-87.2"/>
<polygon fill="none" stroke="#000000" points="174,-87.2 174,-106.2 240,-106.2 240,-87.2 174,-87.2"/>
<text text-anchor="start" x="221.4053" y="-93.3" font-family="Helvetica,sans-Serif" font-size="11.00" fill="#000000">2 &gt;</text>
</a>
</g>
</g>
<!-- rehabilitative_activity&#45;&gt;punishment -->
<g id="edge1" class="edge">
<title>rehabilitative_activity:w&#45;&gt;punishment:e</title>
<path fill="none" stroke="#000000" d="M276.276,-268.2C264.2815,-268.2 256.8229,-268.2 240,-268.2"/>
<polygon fill="#000000" stroke="#000000" points="283,-268.2001 291,-271.8 287,-268.2 291,-268.2 291,-268.2 291,-268.2 287,-268.2 291,-264.6 283,-268.2001 283,-268.2001"/>
<ellipse fill="none" stroke="#000000" cx="279.8" cy="-268.2001" rx="3.2" ry="3.2"/>
</g>
</g>
</svg>
