<?xml version="1.0" encoding="UTF-8" standalone="no"?>
<!DOCTYPE svg PUBLIC "-//W3C//DTD SVG 1.1//EN"
 "http://www.w3.org/Graphics/SVG/1.1/DTD/svg11.dtd">
<!-- Generated by graphviz version 2.40.1 (20161225.0304)
 -->
<!-- Title: twoDegreesRelationshipsDiagram Pages: 1 -->
<svg width="683pt" height="973pt"
 viewBox="0.00 0.00 683.00 973.20" xmlns="http://www.w3.org/2000/svg" xmlns:xlink="http://www.w3.org/1999/xlink">
<g id="graph0" class="graph" transform="scale(1 1) rotate(0) translate(4 969.2)">
<title>twoDegreesRelationshipsDiagram</title>
<polygon fill="#ffffff" stroke="transparent" points="-4,4 -4,-969.2 679,-969.2 679,4 -4,4"/>
<text text-anchor="middle" x="72.4936" y="-7.3" font-family="Helvetica,sans-Serif" font-size="11.00" fill="#000000">Generated by SchemaSpy</text>
<!-- dis_issue_history -->
<g id="node1" class="node">
<title>dis_issue_history</title>
<g id="a_node1"><a xlink:href="../../tables/dis_issue_history.html" xlink:title="dis_issue_history" target="_top">
<polygon fill="#ffffff" stroke="transparent" points="442.5,-900.2 442.5,-961.2 595.5,-961.2 595.5,-900.2 442.5,-900.2"/>
<polygon fill="#f5f5f5" stroke="transparent" points="443,-937.7 443,-960.7 596,-960.7 596,-937.7 443,-937.7"/>
<polygon fill="none" stroke="#000000" points="443,-937.7 443,-960.7 596,-960.7 596,-937.7 443,-937.7"/>
<text text-anchor="start" x="448" y="-946.3" font-family="Helvetica,sans-Serif" font-weight="bold" font-size="11.00" fill="#000000">dis_issue_history</text>
<text text-anchor="start" x="561.5219" y="-945.8" font-family="Helvetica,sans-Serif" font-size="11.00" fill="#000000">[table]</text>
<polygon fill="none" stroke="#000000" points="443,-918.7 443,-937.7 596,-937.7 596,-918.7 443,-918.7"/>
<text text-anchor="start" x="446" y="-924.8" font-family="Helvetica,sans-Serif" font-size="11.00" fill="#000000">...</text>
<polygon fill="#ffffff" stroke="transparent" points="443,-899.7 443,-918.7 518,-918.7 518,-899.7 443,-899.7"/>
<polygon fill="none" stroke="#000000" points="443,-899.7 443,-918.7 518,-918.7 518,-899.7 443,-899.7"/>
<text text-anchor="start" x="446" y="-905.8" font-family="Helvetica,sans-Serif" font-size="11.00" fill="#000000">&lt; 1</text>
<polygon fill="#ffffff" stroke="transparent" points="518,-899.7 518,-918.7 557,-918.7 557,-899.7 518,-899.7"/>
<polygon fill="none" stroke="#000000" points="518,-899.7 518,-918.7 557,-918.7 557,-899.7 518,-899.7"/>
<text text-anchor="start" x="547.8862" y="-905.8" font-family="Helvetica,sans-Serif" font-size="11.00" fill="#000000"> &#160;</text>
<polygon fill="#ffffff" stroke="transparent" points="557,-899.7 557,-918.7 596,-918.7 596,-899.7 557,-899.7"/>
<polygon fill="none" stroke="#000000" points="557,-899.7 557,-918.7 596,-918.7 596,-899.7 557,-899.7"/>
<text text-anchor="start" x="586.8862" y="-905.8" font-family="Helvetica,sans-Serif" font-size="11.00" fill="#000000"> &#160;</text>
</a>
</g>
</g>
<!-- reported_adjudications -->
<g id="node2" class="node">
<title>reported_adjudications</title>
<g id="a_node2"><a xlink:href="../../tables/reported_adjudications.html" xlink:title="reported_adjudications" target="_top">
<polygon fill="#ffffff" stroke="transparent" points="8,-309.2 8,-634.2 322,-634.2 322,-309.2 8,-309.2"/>
<polygon fill="#f5f5f5" stroke="transparent" points="8,-610.7 8,-633.7 322,-633.7 322,-610.7 8,-610.7"/>
<polygon fill="none" stroke="#000000" points="8,-610.7 8,-633.7 322,-633.7 322,-610.7 8,-610.7"/>
<text text-anchor="start" x="13" y="-619.3" font-family="Helvetica,sans-Serif" font-weight="bold" font-size="11.00" fill="#000000">reported_adjudications</text>
<text text-anchor="start" x="287.0437" y="-618.8" font-family="Helvetica,sans-Serif" font-size="11.00" fill="#000000">[table]</text>
<polygon fill="none" stroke="#000000" points="8,-588.7 8,-610.7 322,-610.7 322,-588.7 8,-588.7"/>
<image xlink:href="../../images/primaryKeys.png" width="11px" height="12px" preserveAspectRatio="xMinYMin meet" x="13" y="-605.7"/>
<text text-anchor="start" x="28" y="-595.8" font-family="Helvetica,sans-Serif" font-size="11.00" fill="#000000">id</text>
<polygon fill="#ffffff" stroke="transparent" points="8,-566.7 8,-588.7 322,-588.7 322,-566.7 8,-566.7"/>
<polygon fill="none" stroke="#000000" points="8,-566.7 8,-588.7 322,-588.7 322,-566.7 8,-566.7"/>
<text text-anchor="start" x="28" y="-573.8" font-family="Helvetica,sans-Serif" font-size="11.00" fill="#000000">prisoner_number</text>
<polygon fill="#ffffff" stroke="transparent" points="8,-544.7 8,-566.7 322,-566.7 322,-544.7 8,-544.7"/>
<polygon fill="none" stroke="#000000" points="8,-544.7 8,-566.7 322,-566.7 322,-544.7 8,-544.7"/>
<text text-anchor="start" x="28" y="-551.8" font-family="Helvetica,sans-Serif" font-size="11.00" fill="#000000">charge_number</text>
<polygon fill="#ffffff" stroke="transparent" points="8,-522.7 8,-544.7 322,-544.7 322,-522.7 8,-522.7"/>
<polygon fill="none" stroke="#000000" points="8,-522.7 8,-544.7 322,-544.7 322,-522.7 8,-522.7"/>
<text text-anchor="start" x="28" y="-529.8" font-family="Helvetica,sans-Serif" font-size="11.00" fill="#000000">originating_agency_id</text>
<polygon fill="#ffffff" stroke="transparent" points="8,-500.7 8,-522.7 322,-522.7 322,-500.7 8,-500.7"/>
<polygon fill="none" stroke="#000000" points="8,-500.7 8,-522.7 322,-522.7 322,-500.7 8,-500.7"/>
<text text-anchor="start" x="28" y="-507.8" font-family="Helvetica,sans-Serif" font-size="11.00" fill="#000000">create_user_id</text>
<polygon fill="#ffffff" stroke="transparent" points="8,-478.7 8,-500.7 322,-500.7 322,-478.7 8,-478.7"/>
<polygon fill="none" stroke="#000000" points="8,-478.7 8,-500.7 322,-500.7 322,-478.7 8,-478.7"/>
<text text-anchor="start" x="28" y="-485.8" font-family="Helvetica,sans-Serif" font-size="11.00" fill="#000000">incident_role_associated_prisoners_number</text>
<polygon fill="#ffffff" stroke="transparent" points="8,-456.7 8,-478.7 322,-478.7 322,-456.7 8,-456.7"/>
<polygon fill="none" stroke="#000000" points="8,-456.7 8,-478.7 322,-478.7 322,-456.7 8,-456.7"/>
<text text-anchor="start" x="28" y="-463.8" font-family="Helvetica,sans-Serif" font-size="11.00" fill="#000000">status</text>
<polygon fill="#ffffff" stroke="transparent" points="8,-434.7 8,-456.7 322,-456.7 322,-434.7 8,-434.7"/>
<polygon fill="none" stroke="#000000" points="8,-434.7 8,-456.7 322,-456.7 322,-434.7 8,-434.7"/>
<text text-anchor="start" x="28" y="-441.8" font-family="Helvetica,sans-Serif" font-size="11.00" fill="#000000">date_time_of_discovery</text>
<polygon fill="#ffffff" stroke="transparent" points="8,-412.7 8,-434.7 322,-434.7 322,-412.7 8,-412.7"/>
<polygon fill="none" stroke="#000000" points="8,-412.7 8,-434.7 322,-434.7 322,-412.7 8,-412.7"/>
<text text-anchor="start" x="28" y="-419.8" font-family="Helvetica,sans-Serif" font-size="11.00" fill="#000000">date_time_of_first_hearing</text>
<polygon fill="#ffffff" stroke="transparent" points="8,-390.7 8,-412.7 322,-412.7 322,-390.7 8,-390.7"/>
<polygon fill="none" stroke="#000000" points="8,-390.7 8,-412.7 322,-412.7 322,-390.7 8,-390.7"/>
<text text-anchor="start" x="28" y="-397.8" font-family="Helvetica,sans-Serif" font-size="11.00" fill="#000000">override_agency_id</text>
<polygon fill="#ffffff" stroke="transparent" points="8,-368.7 8,-390.7 322,-390.7 322,-368.7 8,-368.7"/>
<polygon fill="none" stroke="#000000" points="8,-368.7 8,-390.7 322,-390.7 322,-368.7 8,-368.7"/>
<text text-anchor="start" x="28" y="-375.8" font-family="Helvetica,sans-Serif" font-size="11.00" fill="#000000">migrated</text>
<polygon fill="#ffffff" stroke="transparent" points="8,-346.7 8,-368.7 322,-368.7 322,-346.7 8,-346.7"/>
<polygon fill="none" stroke="#000000" points="8,-346.7 8,-368.7 322,-368.7 322,-346.7 8,-346.7"/>
<text text-anchor="start" x="28" y="-353.8" font-family="Helvetica,sans-Serif" font-size="11.00" fill="#000000">offender_booking_id</text>
<polygon fill="none" stroke="#000000" points="8,-327.7 8,-346.7 322,-346.7 322,-327.7 8,-327.7"/>
<text text-anchor="start" x="11" y="-333.8" font-family="Helvetica,sans-Serif" font-size="11.00" fill="#000000">...</text>
<polygon fill="#ffffff" stroke="transparent" points="8,-308.7 8,-327.7 154,-327.7 154,-308.7 8,-308.7"/>
<polygon fill="none" stroke="#000000" points="8,-308.7 8,-327.7 154,-327.7 154,-308.7 8,-308.7"/>
<text text-anchor="start" x="11" y="-314.8" font-family="Helvetica,sans-Serif" font-size="11.00" fill="#000000"> &#160;</text>
<polygon fill="#ffffff" stroke="transparent" points="154,-308.7 154,-327.7 233,-327.7 233,-308.7 154,-308.7"/>
<polygon fill="none" stroke="#000000" points="154,-308.7 154,-327.7 233,-327.7 233,-308.7 154,-308.7"/>
<text text-anchor="start" x="223.8862" y="-314.8" font-family="Helvetica,sans-Serif" font-size="11.00" fill="#000000"> &#160;</text>
<polygon fill="#ffffff" stroke="transparent" points="233,-308.7 233,-327.7 322,-327.7 322,-308.7 233,-308.7"/>
<polygon fill="none" stroke="#000000" points="233,-308.7 233,-327.7 322,-327.7 322,-308.7 233,-308.7"/>
<text text-anchor="start" x="303.4053" y="-314.8" font-family="Helvetica,sans-Serif" font-size="11.00" fill="#000000">9 &gt;</text>
</a>
</g>
</g>
<!-- dis_issue_history&#45;&gt;reported_adjudications -->
<g id="edge1" class="edge">
<title>dis_issue_history:w&#45;&gt;reported_adjudications:e</title>
<path fill="none" stroke="#000000" d="M428.417,-927.3226C398.9301,-925.5821 383.2178,-917.2034 363,-889.7 324.4506,-837.2591 387.0853,-599.7 322,-599.7"/>
<polygon fill="#000000" stroke="#000000" points="435.0027,-927.493 442.9068,-931.2988 439.0013,-927.5965 443,-927.7 443,-927.7 443,-927.7 439.0013,-927.5965 443.0932,-924.1012 435.0027,-927.493 435.0027,-927.493"/>
<ellipse fill="none" stroke="#000000" cx="431.8037" cy="-927.4102" rx="3.2" ry="3.2"/>
</g>
<!-- hearing -->
<g id="node3" class="node">
<title>hearing</title>
<g id="a_node3"><a xlink:href="../../tables/hearing.html" xlink:title="hearing" target="_top">
<polygon fill="#ffffff" stroke="transparent" points="474,-818.2 474,-879.2 564,-879.2 564,-818.2 474,-818.2"/>
<polygon fill="#f5f5f5" stroke="transparent" points="474,-855.7 474,-878.7 564,-878.7 564,-855.7 474,-855.7"/>
<polygon fill="none" stroke="#000000" points="474,-855.7 474,-878.7 564,-878.7 564,-855.7 474,-855.7"/>
<text text-anchor="start" x="479" y="-864.3" font-family="Helvetica,sans-Serif" font-weight="bold" font-size="11.00" fill="#000000">hearing</text>
<text text-anchor="start" x="529.5219" y="-863.8" font-family="Helvetica,sans-Serif" font-size="11.00" fill="#000000">[table]</text>
<polygon fill="none" stroke="#000000" points="474,-836.7 474,-855.7 564,-855.7 564,-836.7 474,-836.7"/>
<text text-anchor="start" x="477" y="-842.8" font-family="Helvetica,sans-Serif" font-size="11.00" fill="#000000">...</text>
<polygon fill="#ffffff" stroke="transparent" points="474,-817.7 474,-836.7 517,-836.7 517,-817.7 474,-817.7"/>
<polygon fill="none" stroke="#000000" points="474,-817.7 474,-836.7 517,-836.7 517,-817.7 474,-817.7"/>
<text text-anchor="start" x="477" y="-823.8" font-family="Helvetica,sans-Serif" font-size="11.00" fill="#000000">&lt; 2</text>
<polygon fill="#ffffff" stroke="transparent" points="517,-817.7 517,-836.7 540,-836.7 540,-817.7 517,-817.7"/>
<polygon fill="none" stroke="#000000" points="517,-817.7 517,-836.7 540,-836.7 540,-817.7 517,-817.7"/>
<text text-anchor="start" x="530.8862" y="-823.8" font-family="Helvetica,sans-Serif" font-size="11.00" fill="#000000"> &#160;</text>
<polygon fill="#ffffff" stroke="transparent" points="540,-817.7 540,-836.7 564,-836.7 564,-817.7 540,-817.7"/>
<polygon fill="none" stroke="#000000" points="540,-817.7 540,-836.7 564,-836.7 564,-817.7 540,-817.7"/>
<text text-anchor="start" x="554.8862" y="-823.8" font-family="Helvetica,sans-Serif" font-size="11.00" fill="#000000"> &#160;</text>
</a>
</g>
</g>
<!-- hearing&#45;&gt;reported_adjudications -->
<g id="edge2" class="edge">
<title>hearing:w&#45;&gt;reported_adjudications:e</title>
<path fill="none" stroke="#000000" d="M459.4778,-845.6976C416.9662,-845.5629 393.9471,-843.1424 363,-807.7 301.0273,-736.7253 416.2233,-599.7 322,-599.7"/>
<polygon fill="#000000" stroke="#000000" points="466,-845.6986 473.9994,-849.3 470,-845.6993 474,-845.7 474,-845.7 474,-845.7 470,-845.6993 474.0006,-842.1 466,-845.6986 466,-845.6986"/>
<ellipse fill="none" stroke="#000000" cx="462.8" cy="-845.6981" rx="3.2" ry="3.2"/>
</g>
<!-- outcome -->
<g id="node4" class="node">
<title>outcome</title>
<g id="a_node4"><a xlink:href="../../tables/outcome.html" xlink:title="outcome" target="_top">
<polygon fill="#ffffff" stroke="transparent" points="470.5,-736.2 470.5,-797.2 567.5,-797.2 567.5,-736.2 470.5,-736.2"/>
<polygon fill="#f5f5f5" stroke="transparent" points="471,-773.7 471,-796.7 568,-796.7 568,-773.7 471,-773.7"/>
<polygon fill="none" stroke="#000000" points="471,-773.7 471,-796.7 568,-796.7 568,-773.7 471,-773.7"/>
<text text-anchor="start" x="476" y="-782.3" font-family="Helvetica,sans-Serif" font-weight="bold" font-size="11.00" fill="#000000">outcome</text>
<text text-anchor="start" x="533.5219" y="-781.8" font-family="Helvetica,sans-Serif" font-size="11.00" fill="#000000">[table]</text>
<polygon fill="none" stroke="#000000" points="471,-754.7 471,-773.7 568,-773.7 568,-754.7 471,-754.7"/>
<text text-anchor="start" x="474" y="-760.8" font-family="Helvetica,sans-Serif" font-size="11.00" fill="#000000">...</text>
<polygon fill="#ffffff" stroke="transparent" points="471,-735.7 471,-754.7 518,-754.7 518,-735.7 471,-735.7"/>
<polygon fill="none" stroke="#000000" points="471,-735.7 471,-754.7 518,-754.7 518,-735.7 471,-735.7"/>
<text text-anchor="start" x="474" y="-741.8" font-family="Helvetica,sans-Serif" font-size="11.00" fill="#000000">&lt; 1</text>
<polygon fill="#ffffff" stroke="transparent" points="518,-735.7 518,-754.7 543,-754.7 543,-735.7 518,-735.7"/>
<polygon fill="none" stroke="#000000" points="518,-735.7 518,-754.7 543,-754.7 543,-735.7 518,-735.7"/>
<text text-anchor="start" x="533.8862" y="-741.8" font-family="Helvetica,sans-Serif" font-size="11.00" fill="#000000"> &#160;</text>
<polygon fill="#ffffff" stroke="transparent" points="543,-735.7 543,-754.7 568,-754.7 568,-735.7 543,-735.7"/>
<polygon fill="none" stroke="#000000" points="543,-735.7 543,-754.7 568,-754.7 568,-735.7 543,-735.7"/>
<text text-anchor="start" x="558.8862" y="-741.8" font-family="Helvetica,sans-Serif" font-size="11.00" fill="#000000"> &#160;</text>
</a>
</g>
</g>
<!-- outcome&#45;&gt;reported_adjudications -->
<g id="edge3" class="edge">
<title>outcome:w&#45;&gt;reported_adjudications:e</title>
<path fill="none" stroke="#000000" d="M456.3581,-763.6159C415.591,-763.017 394.9406,-758.4078 363,-725.7 321.8554,-683.5672 380.8901,-599.7 322,-599.7"/>
<polygon fill="#000000" stroke="#000000" points="463.0001,-763.654 470.9793,-767.2999 467.0001,-763.677 471,-763.7 471,-763.7 471,-763.7 467.0001,-763.677 471.0207,-760.1001 463.0001,-763.654 463.0001,-763.654"/>
<ellipse fill="none" stroke="#000000" cx="459.8002" cy="-763.6356" rx="3.2" ry="3.2"/>
</g>
<!-- punishment -->
<g id="node5" class="node">
<title>punishment</title>
<g id="a_node5"><a xlink:href="../../tables/punishment.html" xlink:title="punishment" target="_top">
<polygon fill="#ffffff" stroke="transparent" points="459.5,-654.2 459.5,-715.2 578.5,-715.2 578.5,-654.2 459.5,-654.2"/>
<polygon fill="#f5f5f5" stroke="transparent" points="460,-691.7 460,-714.7 579,-714.7 579,-691.7 460,-691.7"/>
<polygon fill="none" stroke="#000000" points="460,-691.7 460,-714.7 579,-714.7 579,-691.7 460,-691.7"/>
<text text-anchor="start" x="465" y="-700.3" font-family="Helvetica,sans-Serif" font-weight="bold" font-size="11.00" fill="#000000">punishment</text>
<text text-anchor="start" x="544.5219" y="-699.8" font-family="Helvetica,sans-Serif" font-size="11.00" fill="#000000">[table]</text>
<polygon fill="none" stroke="#000000" points="460,-672.7 460,-691.7 579,-691.7 579,-672.7 460,-672.7"/>
<text text-anchor="start" x="463" y="-678.8" font-family="Helvetica,sans-Serif" font-size="11.00" fill="#000000">...</text>
<polygon fill="#ffffff" stroke="transparent" points="460,-653.7 460,-672.7 513,-672.7 513,-653.7 460,-653.7"/>
<polygon fill="none" stroke="#000000" points="460,-653.7 460,-672.7 513,-672.7 513,-653.7 460,-653.7"/>
<text text-anchor="start" x="463" y="-659.8" font-family="Helvetica,sans-Serif" font-size="11.00" fill="#000000">&lt; 1</text>
<polygon fill="#ffffff" stroke="transparent" points="513,-653.7 513,-672.7 541,-672.7 541,-653.7 513,-653.7"/>
<polygon fill="none" stroke="#000000" points="513,-653.7 513,-672.7 541,-672.7 541,-653.7 513,-653.7"/>
<text text-anchor="start" x="531.8862" y="-659.8" font-family="Helvetica,sans-Serif" font-size="11.00" fill="#000000"> &#160;</text>
<polygon fill="#ffffff" stroke="transparent" points="541,-653.7 541,-672.7 579,-672.7 579,-653.7 541,-653.7"/>
<polygon fill="none" stroke="#000000" points="541,-653.7 541,-672.7 579,-672.7 579,-653.7 541,-653.7"/>
<text text-anchor="start" x="560.4053" y="-659.8" font-family="Helvetica,sans-Serif" font-size="11.00" fill="#000000">2 &gt;</text>
</a>
</g>
</g>
<!-- punishment&#45;&gt;reported_adjudications -->
<g id="edge4" class="edge">
<title>punishment:w&#45;&gt;reported_adjudications:e</title>
<path fill="none" stroke="#000000" d="M445.4828,-681.2361C410.5556,-678.8076 396.9539,-666.7812 363,-643.7 340.8944,-628.673 348.7296,-599.7 322,-599.7"/>
<polygon fill="#000000" stroke="#000000" points="452.0041,-681.4445 459.885,-685.2982 456.002,-681.5722 460,-681.7 460,-681.7 460,-681.7 456.002,-681.5722 460.115,-678.1018 452.0041,-681.4445 452.0041,-681.4445"/>
<ellipse fill="none" stroke="#000000" cx="448.8057" cy="-681.3422" rx="3.2" ry="3.2"/>
</g>
<!-- punishment_comments -->
<g id="node6" class="node">
<title>punishment_comments</title>
<g id="a_node6"><a xlink:href="../../tables/punishment_comments.html" xlink:title="punishment_comments" target="_top">
<polygon fill="#ffffff" stroke="transparent" points="421.5,-572.2 421.5,-633.2 616.5,-633.2 616.5,-572.2 421.5,-572.2"/>
<polygon fill="#f5f5f5" stroke="transparent" points="422,-609.7 422,-632.7 617,-632.7 617,-609.7 422,-609.7"/>
<polygon fill="none" stroke="#000000" points="422,-609.7 422,-632.7 617,-632.7 617,-609.7 422,-609.7"/>
<text text-anchor="start" x="427" y="-618.3" font-family="Helvetica,sans-Serif" font-weight="bold" font-size="11.00" fill="#000000">punishment_comments</text>
<text text-anchor="start" x="582.5219" y="-617.8" font-family="Helvetica,sans-Serif" font-size="11.00" fill="#000000">[table]</text>
<polygon fill="none" stroke="#000000" points="422,-590.7 422,-609.7 617,-609.7 617,-590.7 422,-590.7"/>
<text text-anchor="start" x="425" y="-596.8" font-family="Helvetica,sans-Serif" font-size="11.00" fill="#000000">...</text>
<polygon fill="#ffffff" stroke="transparent" points="422,-571.7 422,-590.7 518,-590.7 518,-571.7 422,-571.7"/>
<polygon fill="none" stroke="#000000" points="422,-571.7 422,-590.7 518,-590.7 518,-571.7 422,-571.7"/>
<text text-anchor="start" x="425" y="-577.8" font-family="Helvetica,sans-Serif" font-size="11.00" fill="#000000">&lt; 1</text>
<polygon fill="#ffffff" stroke="transparent" points="518,-571.7 518,-590.7 567,-590.7 567,-571.7 518,-571.7"/>
<polygon fill="none" stroke="#000000" points="518,-571.7 518,-590.7 567,-590.7 567,-571.7 518,-571.7"/>
<text text-anchor="start" x="557.8862" y="-577.8" font-family="Helvetica,sans-Serif" font-size="11.00" fill="#000000"> &#160;</text>
<polygon fill="#ffffff" stroke="transparent" points="567,-571.7 567,-590.7 617,-590.7 617,-571.7 567,-571.7"/>
<polygon fill="none" stroke="#000000" points="567,-571.7 567,-590.7 617,-590.7 617,-571.7 567,-571.7"/>
<text text-anchor="start" x="607.8862" y="-577.8" font-family="Helvetica,sans-Serif" font-size="11.00" fill="#000000"> &#160;</text>
</a>
</g>
</g>
<!-- punishment_comments&#45;&gt;reported_adjudications -->
<g id="edge5" class="edge">
<title>punishment_comments:w&#45;&gt;reported_adjudications:e</title>
<path fill="none" stroke="#000000" d="M407.2022,-599.7C374.3758,-599.7 361.0625,-599.7 322,-599.7"/>
<polygon fill="#000000" stroke="#000000" points="414,-599.7001 422,-603.3 418,-599.7 422,-599.7 422,-599.7 422,-599.7 418,-599.7 422,-596.1 414,-599.7001 414,-599.7001"/>
<ellipse fill="none" stroke="#000000" cx="410.8" cy="-599.7001" rx="3.2" ry="3.2"/>
</g>
<!-- reported_damages -->
<g id="node7" class="node">
<title>reported_damages</title>
<g id="a_node7"><a xlink:href="../../tables/reported_damages.html" xlink:title="reported_damages" target="_top">
<polygon fill="#ffffff" stroke="transparent" points="371,-284.7 371,-550.7 667,-550.7 667,-284.7 371,-284.7"/>
<polygon fill="#f5f5f5" stroke="transparent" points="373,-525.7 373,-548.7 665,-548.7 665,-525.7 373,-525.7"/>
<polygon fill="none" stroke="#000000" points="373,-525.7 373,-548.7 665,-548.7 665,-525.7 373,-525.7"/>
<text text-anchor="start" x="378" y="-534.3" font-family="Helvetica,sans-Serif" font-weight="bold" font-size="11.00" fill="#000000">reported_damages</text>
<text text-anchor="start" x="630.0437" y="-533.8" font-family="Helvetica,sans-Serif" font-size="11.00" fill="#000000">[table]</text>
<polygon fill="none" stroke="#000000" points="373,-503.7 373,-525.7 581,-525.7 581,-503.7 373,-503.7"/>
<image xlink:href="../../images/primaryKeys.png" width="11px" height="12px" preserveAspectRatio="xMinYMin meet" x="378" y="-520.7"/>
<text text-anchor="start" x="393" y="-510.8" font-family="Helvetica,sans-Serif" font-size="11.00" fill="#000000">id</text>
<polygon fill="none" stroke="#000000" points="581,-503.7 581,-525.7 665,-525.7 665,-503.7 581,-503.7"/>
<text text-anchor="start" x="584" y="-511.4" font-family="Helvetica,sans-Serif" font-size="11.00" fill="#000000">serial[10]</text>
<polygon fill="#ffffff" stroke="transparent" points="373,-481.7 373,-503.7 581,-503.7 581,-481.7 373,-481.7"/>
<polygon fill="none" stroke="#000000" points="373,-481.7 373,-503.7 581,-503.7 581,-481.7 373,-481.7"/>
<image xlink:href="../../images/foreignKeys.png" width="11px" height="12px" preserveAspectRatio="xMinYMin meet" x="378" y="-498.7"/>
<text text-anchor="start" x="393" y="-488.8" font-family="Helvetica,sans-Serif" font-size="11.00" fill="#000000">reported_adjudication_fk_id</text>
<polygon fill="none" stroke="#000000" points="581,-481.7 581,-503.7 665,-503.7 665,-481.7 581,-481.7"/>
<text text-anchor="start" x="584" y="-489.4" font-family="Helvetica,sans-Serif" font-size="11.00" fill="#000000">int8[19]</text>
<polygon fill="none" stroke="#000000" points="373,-459.7 373,-481.7 581,-481.7 581,-459.7 373,-459.7"/>
<text text-anchor="start" x="393" y="-466.8" font-family="Helvetica,sans-Serif" font-size="11.00" fill="#000000">code</text>
<polygon fill="none" stroke="#000000" points="581,-459.7 581,-481.7 665,-481.7 665,-459.7 581,-459.7"/>
<text text-anchor="start" x="584" y="-467.4" font-family="Helvetica,sans-Serif" font-size="11.00" fill="#000000">varchar[32]</text>
<polygon fill="none" stroke="#000000" points="373,-437.7 373,-459.7 581,-459.7 581,-437.7 373,-437.7"/>
<text text-anchor="start" x="393" y="-444.8" font-family="Helvetica,sans-Serif" font-size="11.00" fill="#000000">details</text>
<polygon fill="none" stroke="#000000" points="581,-437.7 581,-459.7 665,-459.7 665,-437.7 581,-437.7"/>
<text text-anchor="start" x="584" y="-445.4" font-family="Helvetica,sans-Serif" font-size="11.00" fill="#000000">varchar[4000]</text>
<polygon fill="none" stroke="#000000" points="373,-415.7 373,-437.7 581,-437.7 581,-415.7 373,-415.7"/>
<text text-anchor="start" x="393" y="-422.8" font-family="Helvetica,sans-Serif" font-size="11.00" fill="#000000">reporter</text>
<polygon fill="none" stroke="#000000" points="581,-415.7 581,-437.7 665,-437.7 665,-415.7 581,-415.7"/>
<text text-anchor="start" x="584" y="-423.4" font-family="Helvetica,sans-Serif" font-size="11.00" fill="#000000">varchar[32]</text>
<polygon fill="none" stroke="#000000" points="373,-393.7 373,-415.7 581,-415.7 581,-393.7 373,-393.7"/>
<text text-anchor="start" x="393" y="-400.8" font-family="Helvetica,sans-Serif" font-size="11.00" fill="#000000">create_user_id</text>
<polygon fill="none" stroke="#000000" points="581,-393.7 581,-415.7 665,-415.7 665,-393.7 581,-393.7"/>
<text text-anchor="start" x="584" y="-401.4" font-family="Helvetica,sans-Serif" font-size="11.00" fill="#000000">varchar[32]</text>
<polygon fill="none" stroke="#000000" points="373,-371.7 373,-393.7 581,-393.7 581,-371.7 373,-371.7"/>
<text text-anchor="start" x="393" y="-378.8" font-family="Helvetica,sans-Serif" font-size="11.00" fill="#000000">create_datetime</text>
<polygon fill="none" stroke="#000000" points="581,-371.7 581,-393.7 665,-393.7 665,-371.7 581,-371.7"/>
<text text-anchor="start" x="583.8807" y="-379.4" font-family="Helvetica,sans-Serif" font-size="11.00" fill="#000000">timestamp[29,6]</text>
<polygon fill="none" stroke="#000000" points="373,-349.7 373,-371.7 581,-371.7 581,-349.7 373,-349.7"/>
<text text-anchor="start" x="393" y="-356.8" font-family="Helvetica,sans-Serif" font-size="11.00" fill="#000000">modify_user_id</text>
<polygon fill="none" stroke="#000000" points="581,-349.7 581,-371.7 665,-371.7 665,-349.7 581,-349.7"/>
<text text-anchor="start" x="584" y="-357.4" font-family="Helvetica,sans-Serif" font-size="11.00" fill="#000000">varchar[32]</text>
<polygon fill="none" stroke="#000000" points="373,-327.7 373,-349.7 581,-349.7 581,-327.7 373,-327.7"/>
<text text-anchor="start" x="393" y="-334.8" font-family="Helvetica,sans-Serif" font-size="11.00" fill="#000000">modify_datetime</text>
<polygon fill="none" stroke="#000000" points="581,-327.7 581,-349.7 665,-349.7 665,-327.7 581,-327.7"/>
<text text-anchor="start" x="583.8807" y="-335.4" font-family="Helvetica,sans-Serif" font-size="11.00" fill="#000000">timestamp[29,6]</text>
<polygon fill="none" stroke="#000000" points="373,-305.7 373,-327.7 581,-327.7 581,-305.7 373,-305.7"/>
<text text-anchor="start" x="393" y="-312.8" font-family="Helvetica,sans-Serif" font-size="11.00" fill="#000000">repair_cost</text>
<polygon fill="none" stroke="#000000" points="581,-305.7 581,-327.7 665,-327.7 665,-305.7 581,-305.7"/>
<text text-anchor="start" x="584" y="-313.4" font-family="Helvetica,sans-Serif" font-size="11.00" fill="#000000">numeric[10,2]</text>
<polygon fill="#ffffff" stroke="transparent" points="373,-286.7 373,-305.7 481,-305.7 481,-286.7 373,-286.7"/>
<polygon fill="none" stroke="#000000" points="373,-286.7 373,-305.7 481,-305.7 481,-286.7 373,-286.7"/>
<text text-anchor="start" x="376" y="-292.8" font-family="Helvetica,sans-Serif" font-size="11.00" fill="#000000">&lt; 1</text>
<polygon fill="#ffffff" stroke="transparent" points="481,-286.7 481,-305.7 581,-305.7 581,-286.7 481,-286.7"/>
<polygon fill="none" stroke="#000000" points="481,-286.7 481,-305.7 581,-305.7 581,-286.7 481,-286.7"/>
<text text-anchor="start" x="571.8862" y="-292.8" font-family="Helvetica,sans-Serif" font-size="11.00" fill="#000000"> &#160;</text>
<polygon fill="#ffffff" stroke="transparent" points="581,-286.7 581,-305.7 665,-305.7 665,-286.7 581,-286.7"/>
<polygon fill="none" stroke="#000000" points="581,-286.7 581,-305.7 665,-305.7 665,-286.7 581,-286.7"/>
<text text-anchor="start" x="646.4053" y="-292.8" font-family="Helvetica,sans-Serif" font-size="11.00" fill="#000000">0 &gt;</text>
<polygon fill="none" stroke="#000000" stroke-width="2" points="372,-285.7 372,-549.7 666,-549.7 666,-285.7 372,-285.7"/>
</a>
</g>
</g>
<!-- reported_damages&#45;&gt;reported_adjudications -->
<g id="edge6" class="edge">
<title>reported_damages:w&#45;&gt;reported_adjudications:e</title>
<path fill="none" stroke="#000000" d="M358.9064,-496.5082C331.2616,-515.5691 368.7134,-599.7 322,-599.7"/>
<polygon fill="#000000" stroke="#000000" points="365.277,-494.7869 373.9391,-496.1754 369.1385,-493.7434 373,-492.7 373,-492.7 373,-492.7 369.1385,-493.7434 372.0609,-489.2246 365.277,-494.7869 365.277,-494.7869"/>
<ellipse fill="none" stroke="#000000" cx="362.1878" cy="-495.6216" rx="3.2" ry="3.2"/>
</g>
<!-- reported_evidence -->
<g id="node8" class="node">
<title>reported_evidence</title>
<g id="a_node8"><a xlink:href="../../tables/reported_evidence.html" xlink:title="reported_evidence" target="_top">
<polygon fill="#ffffff" stroke="transparent" points="437,-202.2 437,-263.2 601,-263.2 601,-202.2 437,-202.2"/>
<polygon fill="#f5f5f5" stroke="transparent" points="437,-239.7 437,-262.7 601,-262.7 601,-239.7 437,-239.7"/>
<polygon fill="none" stroke="#000000" points="437,-239.7 437,-262.7 601,-262.7 601,-239.7 437,-239.7"/>
<text text-anchor="start" x="442" y="-248.3" font-family="Helvetica,sans-Serif" font-weight="bold" font-size="11.00" fill="#000000">reported_evidence</text>
<text text-anchor="start" x="566.5219" y="-247.8" font-family="Helvetica,sans-Serif" font-size="11.00" fill="#000000">[table]</text>
<polygon fill="none" stroke="#000000" points="437,-220.7 437,-239.7 601,-239.7 601,-220.7 437,-220.7"/>
<text text-anchor="start" x="440" y="-226.8" font-family="Helvetica,sans-Serif" font-size="11.00" fill="#000000">...</text>
<polygon fill="#ffffff" stroke="transparent" points="437,-201.7 437,-220.7 517,-220.7 517,-201.7 437,-201.7"/>
<polygon fill="none" stroke="#000000" points="437,-201.7 437,-220.7 517,-220.7 517,-201.7 437,-201.7"/>
<text text-anchor="start" x="440" y="-207.8" font-family="Helvetica,sans-Serif" font-size="11.00" fill="#000000">&lt; 1</text>
<polygon fill="#ffffff" stroke="transparent" points="517,-201.7 517,-220.7 559,-220.7 559,-201.7 517,-201.7"/>
<polygon fill="none" stroke="#000000" points="517,-201.7 517,-220.7 559,-220.7 559,-201.7 517,-201.7"/>
<text text-anchor="start" x="549.8862" y="-207.8" font-family="Helvetica,sans-Serif" font-size="11.00" fill="#000000"> &#160;</text>
<polygon fill="#ffffff" stroke="transparent" points="559,-201.7 559,-220.7 601,-220.7 601,-201.7 559,-201.7"/>
<polygon fill="none" stroke="#000000" points="559,-201.7 559,-220.7 601,-220.7 601,-201.7 559,-201.7"/>
<text text-anchor="start" x="591.8862" y="-207.8" font-family="Helvetica,sans-Serif" font-size="11.00" fill="#000000"> &#160;</text>
</a>
</g>
</g>
<!-- reported_evidence&#45;&gt;reported_adjudications -->
<g id="edge7" class="edge">
<title>reported_evidence:w&#45;&gt;reported_adjudications:e</title>
<path fill="none" stroke="#000000" d="M422.4759,-230.4296C394.4032,-233.5382 381.0706,-246.813 363,-274.7 323.414,-335.7902 394.7947,-599.7 322,-599.7"/>
<polygon fill="#000000" stroke="#000000" points="429.0101,-230.1014 437.1806,-233.2955 433.005,-229.9007 437,-229.7 437,-229.7 437,-229.7 433.005,-229.9007 436.8194,-226.1045 429.0101,-230.1014 429.0101,-230.1014"/>
<ellipse fill="none" stroke="#000000" cx="425.8141" cy="-230.262" rx="3.2" ry="3.2"/>
</g>
<!-- reported_offence -->
<g id="node9" class="node">
<title>reported_offence</title>
<g id="a_node9"><a xlink:href="../../tables/reported_offence.html" xlink:title="reported_offence" target="_top">
<polygon fill="#ffffff" stroke="transparent" points="442,-120.2 442,-181.2 596,-181.2 596,-120.2 442,-120.2"/>
<polygon fill="#f5f5f5" stroke="transparent" points="442,-157.7 442,-180.7 596,-180.7 596,-157.7 442,-157.7"/>
<polygon fill="none" stroke="#000000" points="442,-157.7 442,-180.7 596,-180.7 596,-157.7 442,-157.7"/>
<text text-anchor="start" x="447" y="-166.3" font-family="Helvetica,sans-Serif" font-weight="bold" font-size="11.00" fill="#000000">reported_offence</text>
<text text-anchor="start" x="561.5219" y="-165.8" font-family="Helvetica,sans-Serif" font-size="11.00" fill="#000000">[table]</text>
<polygon fill="none" stroke="#000000" points="442,-138.7 442,-157.7 596,-157.7 596,-138.7 442,-138.7"/>
<text text-anchor="start" x="445" y="-144.8" font-family="Helvetica,sans-Serif" font-size="11.00" fill="#000000">...</text>
<polygon fill="#ffffff" stroke="transparent" points="442,-119.7 442,-138.7 513,-138.7 513,-119.7 442,-119.7"/>
<polygon fill="none" stroke="#000000" points="442,-119.7 442,-138.7 513,-138.7 513,-119.7 442,-119.7"/>
<text text-anchor="start" x="445" y="-125.8" font-family="Helvetica,sans-Serif" font-size="11.00" fill="#000000">&lt; 1</text>
<polygon fill="#ffffff" stroke="transparent" points="513,-119.7 513,-138.7 550,-138.7 550,-119.7 513,-119.7"/>
<polygon fill="none" stroke="#000000" points="513,-119.7 513,-138.7 550,-138.7 550,-119.7 513,-119.7"/>
<text text-anchor="start" x="540.8862" y="-125.8" font-family="Helvetica,sans-Serif" font-size="11.00" fill="#000000"> &#160;</text>
<polygon fill="#ffffff" stroke="transparent" points="550,-119.7 550,-138.7 596,-138.7 596,-119.7 550,-119.7"/>
<polygon fill="none" stroke="#000000" points="550,-119.7 550,-138.7 596,-138.7 596,-119.7 550,-119.7"/>
<text text-anchor="start" x="577.4053" y="-125.8" font-family="Helvetica,sans-Serif" font-size="11.00" fill="#000000">1 &gt;</text>
</a>
</g>
</g>
<!-- reported_offence&#45;&gt;reported_adjudications -->
<g id="edge8" class="edge">
<title>reported_offence:w&#45;&gt;reported_adjudications:e</title>
<path fill="none" stroke="#000000" d="M427.5653,-148.2464C397.4063,-150.7698 382.2264,-162.443 363,-191.7 312.9564,-267.8518 413.1233,-599.7 322,-599.7"/>
<polygon fill="#000000" stroke="#000000" points="434.0057,-148.0027 442.1362,-151.2974 438.0029,-147.8513 442,-147.7 442,-147.7 442,-147.7 438.0029,-147.8513 441.8638,-144.1026 434.0057,-148.0027 434.0057,-148.0027"/>
<ellipse fill="none" stroke="#000000" cx="430.808" cy="-148.1238" rx="3.2" ry="3.2"/>
</g>
<!-- reported_witness -->
<g id="node10" class="node">
<title>reported_witness</title>
<g id="a_node10"><a xlink:href="../../tables/reported_witness.html" xlink:title="reported_witness" target="_top">
<polygon fill="#ffffff" stroke="transparent" points="441,-38.2 441,-99.2 597,-99.2 597,-38.2 441,-38.2"/>
<polygon fill="#f5f5f5" stroke="transparent" points="441,-75.7 441,-98.7 597,-98.7 597,-75.7 441,-75.7"/>
<polygon fill="none" stroke="#000000" points="441,-75.7 441,-98.7 597,-98.7 597,-75.7 441,-75.7"/>
<text text-anchor="start" x="446" y="-84.3" font-family="Helvetica,sans-Serif" font-weight="bold" font-size="11.00" fill="#000000">reported_witness</text>
<text text-anchor="start" x="562.5219" y="-83.8" font-family="Helvetica,sans-Serif" font-size="11.00" fill="#000000">[table]</text>
<polygon fill="none" stroke="#000000" points="441,-56.7 441,-75.7 597,-75.7 597,-56.7 441,-56.7"/>
<text text-anchor="start" x="444" y="-62.8" font-family="Helvetica,sans-Serif" font-size="11.00" fill="#000000">...</text>
<polygon fill="#ffffff" stroke="transparent" points="441,-37.7 441,-56.7 517,-56.7 517,-37.7 441,-37.7"/>
<polygon fill="none" stroke="#000000" points="441,-37.7 441,-56.7 517,-56.7 517,-37.7 441,-37.7"/>
<text text-anchor="start" x="444" y="-43.8" font-family="Helvetica,sans-Serif" font-size="11.00" fill="#000000">&lt; 1</text>
<polygon fill="#ffffff" stroke="transparent" points="517,-37.7 517,-56.7 557,-56.7 557,-37.7 517,-37.7"/>
<polygon fill="none" stroke="#000000" points="517,-37.7 517,-56.7 557,-56.7 557,-37.7 517,-37.7"/>
<text text-anchor="start" x="547.8862" y="-43.8" font-family="Helvetica,sans-Serif" font-size="11.00" fill="#000000"> &#160;</text>
<polygon fill="#ffffff" stroke="transparent" points="557,-37.7 557,-56.7 597,-56.7 597,-37.7 557,-37.7"/>
<polygon fill="none" stroke="#000000" points="557,-37.7 557,-56.7 597,-56.7 597,-37.7 557,-37.7"/>
<text text-anchor="start" x="587.8862" y="-43.8" font-family="Helvetica,sans-Serif" font-size="11.00" fill="#000000"> &#160;</text>
</a>
</g>
</g>
<!-- reported_witness&#45;&gt;reported_adjudications -->
<g id="edge9" class="edge">
<title>reported_witness:w&#45;&gt;reported_adjudications:e</title>
<path fill="none" stroke="#000000" d="M426.2982,-66.2848C396.6755,-68.8943 381.6355,-80.6474 363,-109.7 333.502,-155.6871 376.6347,-599.7 322,-599.7"/>
<polygon fill="#000000" stroke="#000000" points="433.0063,-66.018 441.1431,-69.2972 437.0032,-65.859 441,-65.7 441,-65.7 441,-65.7 437.0032,-65.859 440.8569,-62.1028 433.0063,-66.018 433.0063,-66.018"/>
<ellipse fill="none" stroke="#000000" cx="429.8089" cy="-66.1452" rx="3.2" ry="3.2"/>
</g>
</g>
</svg>
