<?xml version="1.0" encoding="UTF-8" standalone="no"?>
<!DOCTYPE svg PUBLIC "-//W3C//DTD SVG 1.1//EN"
 "http://www.w3.org/Graphics/SVG/1.1/DTD/svg11.dtd">
<!-- Generated by graphviz version 2.40.1 (20161225.0304)
 -->
<!-- Title: twoDegreesRelationshipsDiagram Pages: 1 -->
<svg width="943pt" height="1061pt"
 viewBox="0.00 0.00 943.00 1061.20" xmlns="http://www.w3.org/2000/svg" xmlns:xlink="http://www.w3.org/1999/xlink">
<g id="graph0" class="graph" transform="scale(1 1) rotate(0) translate(4 1057.2)">
<title>twoDegreesRelationshipsDiagram</title>
<polygon fill="#ffffff" stroke="transparent" points="-4,4 -4,-1057.2 939,-1057.2 939,4 -4,4"/>
<text text-anchor="middle" x="72.4936" y="-7.3" font-family="Helvetica,sans-Serif" font-size="11.00" fill="#000000">Generated by SchemaSpy</text>
<!-- dis_issue_history -->
<g id="node1" class="node">
<title>dis_issue_history</title>
<g id="a_node1"><a xlink:href="../../tables/dis_issue_history.html" xlink:title="dis_issue_history" target="_top">
<polygon fill="#ffffff" stroke="transparent" points="442.5,-988.2 442.5,-1049.2 595.5,-1049.2 595.5,-988.2 442.5,-988.2"/>
<polygon fill="#f5f5f5" stroke="transparent" points="443,-1025.7 443,-1048.7 596,-1048.7 596,-1025.7 443,-1025.7"/>
<polygon fill="none" stroke="#000000" points="443,-1025.7 443,-1048.7 596,-1048.7 596,-1025.7 443,-1025.7"/>
<text text-anchor="start" x="448" y="-1034.3" font-family="Helvetica,sans-Serif" font-weight="bold" font-size="11.00" fill="#000000">dis_issue_history</text>
<text text-anchor="start" x="561.5219" y="-1033.8" font-family="Helvetica,sans-Serif" font-size="11.00" fill="#000000">[table]</text>
<polygon fill="none" stroke="#000000" points="443,-1006.7 443,-1025.7 596,-1025.7 596,-1006.7 443,-1006.7"/>
<text text-anchor="start" x="446" y="-1012.8" font-family="Helvetica,sans-Serif" font-size="11.00" fill="#000000">...</text>
<polygon fill="#ffffff" stroke="transparent" points="443,-987.7 443,-1006.7 518,-1006.7 518,-987.7 443,-987.7"/>
<polygon fill="none" stroke="#000000" points="443,-987.7 443,-1006.7 518,-1006.7 518,-987.7 443,-987.7"/>
<text text-anchor="start" x="446" y="-993.8" font-family="Helvetica,sans-Serif" font-size="11.00" fill="#000000">&lt; 1</text>
<polygon fill="#ffffff" stroke="transparent" points="518,-987.7 518,-1006.7 557,-1006.7 557,-987.7 518,-987.7"/>
<polygon fill="none" stroke="#000000" points="518,-987.7 518,-1006.7 557,-1006.7 557,-987.7 518,-987.7"/>
<text text-anchor="start" x="547.8862" y="-993.8" font-family="Helvetica,sans-Serif" font-size="11.00" fill="#000000"> &#160;</text>
<polygon fill="#ffffff" stroke="transparent" points="557,-987.7 557,-1006.7 596,-1006.7 596,-987.7 557,-987.7"/>
<polygon fill="none" stroke="#000000" points="557,-987.7 557,-1006.7 596,-1006.7 596,-987.7 557,-987.7"/>
<text text-anchor="start" x="586.8862" y="-993.8" font-family="Helvetica,sans-Serif" font-size="11.00" fill="#000000"> &#160;</text>
</a>
</g>
</g>
<!-- reported_adjudications -->
<g id="node2" class="node">
<title>reported_adjudications</title>
<g id="a_node2"><a xlink:href="../../tables/reported_adjudications.html" xlink:title="reported_adjudications" target="_top">
<polygon fill="#ffffff" stroke="transparent" points="8,-103.2 8,-428.2 322,-428.2 322,-103.2 8,-103.2"/>
<polygon fill="#f5f5f5" stroke="transparent" points="8,-404.7 8,-427.7 322,-427.7 322,-404.7 8,-404.7"/>
<polygon fill="none" stroke="#000000" points="8,-404.7 8,-427.7 322,-427.7 322,-404.7 8,-404.7"/>
<text text-anchor="start" x="13" y="-413.3" font-family="Helvetica,sans-Serif" font-weight="bold" font-size="11.00" fill="#000000">reported_adjudications</text>
<text text-anchor="start" x="287.0437" y="-412.8" font-family="Helvetica,sans-Serif" font-size="11.00" fill="#000000">[table]</text>
<polygon fill="none" stroke="#000000" points="8,-382.7 8,-404.7 322,-404.7 322,-382.7 8,-382.7"/>
<image xlink:href="../../images/primaryKeys.png" width="11px" height="12px" preserveAspectRatio="xMinYMin meet" x="13" y="-399.7"/>
<text text-anchor="start" x="28" y="-389.8" font-family="Helvetica,sans-Serif" font-size="11.00" fill="#000000">id</text>
<polygon fill="#ffffff" stroke="transparent" points="8,-360.7 8,-382.7 322,-382.7 322,-360.7 8,-360.7"/>
<polygon fill="none" stroke="#000000" points="8,-360.7 8,-382.7 322,-382.7 322,-360.7 8,-360.7"/>
<text text-anchor="start" x="28" y="-367.8" font-family="Helvetica,sans-Serif" font-size="11.00" fill="#000000">prisoner_number</text>
<polygon fill="#ffffff" stroke="transparent" points="8,-338.7 8,-360.7 322,-360.7 322,-338.7 8,-338.7"/>
<polygon fill="none" stroke="#000000" points="8,-338.7 8,-360.7 322,-360.7 322,-338.7 8,-338.7"/>
<text text-anchor="start" x="28" y="-345.8" font-family="Helvetica,sans-Serif" font-size="11.00" fill="#000000">charge_number</text>
<polygon fill="#ffffff" stroke="transparent" points="8,-316.7 8,-338.7 322,-338.7 322,-316.7 8,-316.7"/>
<polygon fill="none" stroke="#000000" points="8,-316.7 8,-338.7 322,-338.7 322,-316.7 8,-316.7"/>
<text text-anchor="start" x="28" y="-323.8" font-family="Helvetica,sans-Serif" font-size="11.00" fill="#000000">originating_agency_id</text>
<polygon fill="#ffffff" stroke="transparent" points="8,-294.7 8,-316.7 322,-316.7 322,-294.7 8,-294.7"/>
<polygon fill="none" stroke="#000000" points="8,-294.7 8,-316.7 322,-316.7 322,-294.7 8,-294.7"/>
<text text-anchor="start" x="28" y="-301.8" font-family="Helvetica,sans-Serif" font-size="11.00" fill="#000000">create_user_id</text>
<polygon fill="#ffffff" stroke="transparent" points="8,-272.7 8,-294.7 322,-294.7 322,-272.7 8,-272.7"/>
<polygon fill="none" stroke="#000000" points="8,-272.7 8,-294.7 322,-294.7 322,-272.7 8,-272.7"/>
<text text-anchor="start" x="28" y="-279.8" font-family="Helvetica,sans-Serif" font-size="11.00" fill="#000000">incident_role_associated_prisoners_number</text>
<polygon fill="#ffffff" stroke="transparent" points="8,-250.7 8,-272.7 322,-272.7 322,-250.7 8,-250.7"/>
<polygon fill="none" stroke="#000000" points="8,-250.7 8,-272.7 322,-272.7 322,-250.7 8,-250.7"/>
<text text-anchor="start" x="28" y="-257.8" font-family="Helvetica,sans-Serif" font-size="11.00" fill="#000000">status</text>
<polygon fill="#ffffff" stroke="transparent" points="8,-228.7 8,-250.7 322,-250.7 322,-228.7 8,-228.7"/>
<polygon fill="none" stroke="#000000" points="8,-228.7 8,-250.7 322,-250.7 322,-228.7 8,-228.7"/>
<text text-anchor="start" x="28" y="-235.8" font-family="Helvetica,sans-Serif" font-size="11.00" fill="#000000">date_time_of_discovery</text>
<polygon fill="#ffffff" stroke="transparent" points="8,-206.7 8,-228.7 322,-228.7 322,-206.7 8,-206.7"/>
<polygon fill="none" stroke="#000000" points="8,-206.7 8,-228.7 322,-228.7 322,-206.7 8,-206.7"/>
<text text-anchor="start" x="28" y="-213.8" font-family="Helvetica,sans-Serif" font-size="11.00" fill="#000000">date_time_of_first_hearing</text>
<polygon fill="#ffffff" stroke="transparent" points="8,-184.7 8,-206.7 322,-206.7 322,-184.7 8,-184.7"/>
<polygon fill="none" stroke="#000000" points="8,-184.7 8,-206.7 322,-206.7 322,-184.7 8,-184.7"/>
<text text-anchor="start" x="28" y="-191.8" font-family="Helvetica,sans-Serif" font-size="11.00" fill="#000000">override_agency_id</text>
<polygon fill="#ffffff" stroke="transparent" points="8,-162.7 8,-184.7 322,-184.7 322,-162.7 8,-162.7"/>
<polygon fill="none" stroke="#000000" points="8,-162.7 8,-184.7 322,-184.7 322,-162.7 8,-162.7"/>
<text text-anchor="start" x="28" y="-169.8" font-family="Helvetica,sans-Serif" font-size="11.00" fill="#000000">migrated</text>
<polygon fill="#ffffff" stroke="transparent" points="8,-140.7 8,-162.7 322,-162.7 322,-140.7 8,-140.7"/>
<polygon fill="none" stroke="#000000" points="8,-140.7 8,-162.7 322,-162.7 322,-140.7 8,-140.7"/>
<text text-anchor="start" x="28" y="-147.8" font-family="Helvetica,sans-Serif" font-size="11.00" fill="#000000">offender_booking_id</text>
<polygon fill="none" stroke="#000000" points="8,-121.7 8,-140.7 322,-140.7 322,-121.7 8,-121.7"/>
<text text-anchor="start" x="11" y="-127.8" font-family="Helvetica,sans-Serif" font-size="11.00" fill="#000000">...</text>
<polygon fill="#ffffff" stroke="transparent" points="8,-102.7 8,-121.7 154,-121.7 154,-102.7 8,-102.7"/>
<polygon fill="none" stroke="#000000" points="8,-102.7 8,-121.7 154,-121.7 154,-102.7 8,-102.7"/>
<text text-anchor="start" x="11" y="-108.8" font-family="Helvetica,sans-Serif" font-size="11.00" fill="#000000"> &#160;</text>
<polygon fill="#ffffff" stroke="transparent" points="154,-102.7 154,-121.7 233,-121.7 233,-102.7 154,-102.7"/>
<polygon fill="none" stroke="#000000" points="154,-102.7 154,-121.7 233,-121.7 233,-102.7 154,-102.7"/>
<text text-anchor="start" x="223.8862" y="-108.8" font-family="Helvetica,sans-Serif" font-size="11.00" fill="#000000"> &#160;</text>
<polygon fill="#ffffff" stroke="transparent" points="233,-102.7 233,-121.7 322,-121.7 322,-102.7 233,-102.7"/>
<polygon fill="none" stroke="#000000" points="233,-102.7 233,-121.7 322,-121.7 322,-102.7 233,-102.7"/>
<text text-anchor="start" x="303.4053" y="-108.8" font-family="Helvetica,sans-Serif" font-size="11.00" fill="#000000">9 &gt;</text>
</a>
</g>
</g>
<!-- dis_issue_history&#45;&gt;reported_adjudications -->
<g id="edge1" class="edge">
<title>dis_issue_history:w&#45;&gt;reported_adjudications:e</title>
<path fill="none" stroke="#000000" d="M428.3651,-1015.3593C398.6698,-1013.7665 382.2379,-1005.8975 363,-977.7 326.3396,-923.9661 387.0486,-393.7 322,-393.7"/>
<polygon fill="#000000" stroke="#000000" points="435.0022,-1015.5138 442.9162,-1019.299 439.0011,-1015.6069 443,-1015.7 443,-1015.7 443,-1015.7 439.0011,-1015.6069 443.0838,-1012.101 435.0022,-1015.5138 435.0022,-1015.5138"/>
<ellipse fill="none" stroke="#000000" cx="431.803" cy="-1015.4393" rx="3.2" ry="3.2"/>
</g>
<!-- hearing -->
<g id="node3" class="node">
<title>hearing</title>
<g id="a_node3"><a xlink:href="../../tables/hearing.html" xlink:title="hearing" target="_top">
<polygon fill="#ffffff" stroke="transparent" points="474,-906.2 474,-967.2 564,-967.2 564,-906.2 474,-906.2"/>
<polygon fill="#f5f5f5" stroke="transparent" points="474,-943.7 474,-966.7 564,-966.7 564,-943.7 474,-943.7"/>
<polygon fill="none" stroke="#000000" points="474,-943.7 474,-966.7 564,-966.7 564,-943.7 474,-943.7"/>
<text text-anchor="start" x="479" y="-952.3" font-family="Helvetica,sans-Serif" font-weight="bold" font-size="11.00" fill="#000000">hearing</text>
<text text-anchor="start" x="529.5219" y="-951.8" font-family="Helvetica,sans-Serif" font-size="11.00" fill="#000000">[table]</text>
<polygon fill="none" stroke="#000000" points="474,-924.7 474,-943.7 564,-943.7 564,-924.7 474,-924.7"/>
<text text-anchor="start" x="477" y="-930.8" font-family="Helvetica,sans-Serif" font-size="11.00" fill="#000000">...</text>
<polygon fill="#ffffff" stroke="transparent" points="474,-905.7 474,-924.7 517,-924.7 517,-905.7 474,-905.7"/>
<polygon fill="none" stroke="#000000" points="474,-905.7 474,-924.7 517,-924.7 517,-905.7 474,-905.7"/>
<text text-anchor="start" x="477" y="-911.8" font-family="Helvetica,sans-Serif" font-size="11.00" fill="#000000">&lt; 2</text>
<polygon fill="#ffffff" stroke="transparent" points="517,-905.7 517,-924.7 540,-924.7 540,-905.7 517,-905.7"/>
<polygon fill="none" stroke="#000000" points="517,-905.7 517,-924.7 540,-924.7 540,-905.7 517,-905.7"/>
<text text-anchor="start" x="530.8862" y="-911.8" font-family="Helvetica,sans-Serif" font-size="11.00" fill="#000000"> &#160;</text>
<polygon fill="#ffffff" stroke="transparent" points="540,-905.7 540,-924.7 564,-924.7 564,-905.7 540,-905.7"/>
<polygon fill="none" stroke="#000000" points="540,-905.7 540,-924.7 564,-924.7 564,-905.7 540,-905.7"/>
<text text-anchor="start" x="554.8862" y="-911.8" font-family="Helvetica,sans-Serif" font-size="11.00" fill="#000000"> &#160;</text>
</a>
</g>
</g>
<!-- hearing&#45;&gt;reported_adjudications -->
<g id="edge2" class="edge">
<title>hearing:w&#45;&gt;reported_adjudications:e</title>
<path fill="none" stroke="#000000" d="M459.4191,-933.746C416.5652,-933.8935 391.8939,-932.8353 363,-895.7 328.6337,-851.5314 377.9635,-393.7 322,-393.7"/>
<polygon fill="#000000" stroke="#000000" points="466,-933.7253 474.0114,-937.3 470,-933.7127 474,-933.7 474,-933.7 474,-933.7 470,-933.7127 473.9886,-930.1 466,-933.7253 466,-933.7253"/>
<ellipse fill="none" stroke="#000000" cx="462.8001" cy="-933.7354" rx="3.2" ry="3.2"/>
</g>
<!-- outcome -->
<g id="node4" class="node">
<title>outcome</title>
<g id="a_node4"><a xlink:href="../../tables/outcome.html" xlink:title="outcome" target="_top">
<polygon fill="#ffffff" stroke="transparent" points="470.5,-824.2 470.5,-885.2 567.5,-885.2 567.5,-824.2 470.5,-824.2"/>
<polygon fill="#f5f5f5" stroke="transparent" points="471,-861.7 471,-884.7 568,-884.7 568,-861.7 471,-861.7"/>
<polygon fill="none" stroke="#000000" points="471,-861.7 471,-884.7 568,-884.7 568,-861.7 471,-861.7"/>
<text text-anchor="start" x="476" y="-870.3" font-family="Helvetica,sans-Serif" font-weight="bold" font-size="11.00" fill="#000000">outcome</text>
<text text-anchor="start" x="533.5219" y="-869.8" font-family="Helvetica,sans-Serif" font-size="11.00" fill="#000000">[table]</text>
<polygon fill="none" stroke="#000000" points="471,-842.7 471,-861.7 568,-861.7 568,-842.7 471,-842.7"/>
<text text-anchor="start" x="474" y="-848.8" font-family="Helvetica,sans-Serif" font-size="11.00" fill="#000000">...</text>
<polygon fill="#ffffff" stroke="transparent" points="471,-823.7 471,-842.7 518,-842.7 518,-823.7 471,-823.7"/>
<polygon fill="none" stroke="#000000" points="471,-823.7 471,-842.7 518,-842.7 518,-823.7 471,-823.7"/>
<text text-anchor="start" x="474" y="-829.8" font-family="Helvetica,sans-Serif" font-size="11.00" fill="#000000">&lt; 1</text>
<polygon fill="#ffffff" stroke="transparent" points="518,-823.7 518,-842.7 543,-842.7 543,-823.7 518,-823.7"/>
<polygon fill="none" stroke="#000000" points="518,-823.7 518,-842.7 543,-842.7 543,-823.7 518,-823.7"/>
<text text-anchor="start" x="533.8862" y="-829.8" font-family="Helvetica,sans-Serif" font-size="11.00" fill="#000000"> &#160;</text>
<polygon fill="#ffffff" stroke="transparent" points="543,-823.7 543,-842.7 568,-842.7 568,-823.7 543,-823.7"/>
<polygon fill="none" stroke="#000000" points="543,-823.7 543,-842.7 568,-842.7 568,-823.7 543,-823.7"/>
<text text-anchor="start" x="558.8862" y="-829.8" font-family="Helvetica,sans-Serif" font-size="11.00" fill="#000000"> &#160;</text>
</a>
</g>
</g>
<!-- outcome&#45;&gt;reported_adjudications -->
<g id="edge3" class="edge">
<title>outcome:w&#45;&gt;reported_adjudications:e</title>
<path fill="none" stroke="#000000" d="M456.5128,-851.7173C414.9351,-851.6898 391.2672,-849.7564 363,-813.7 305.142,-739.899 415.777,-393.7 322,-393.7"/>
<polygon fill="#000000" stroke="#000000" points="463,-851.7096 471.0043,-855.3 467,-851.7048 471,-851.7 471,-851.7 471,-851.7 467,-851.7048 470.9957,-848.1 463,-851.7096 463,-851.7096"/>
<ellipse fill="none" stroke="#000000" cx="459.8" cy="-851.7134" rx="3.2" ry="3.2"/>
</g>
<!-- protected_characteristics -->
<g id="node5" class="node">
<title>protected_characteristics</title>
<g id="a_node5"><a xlink:href="../../tables/protected_characteristics.html" xlink:title="protected_characteristics" target="_top">
<polygon fill="#ffffff" stroke="transparent" points="716,-718.2 716,-823.2 927,-823.2 927,-718.2 716,-718.2"/>
<polygon fill="#f5f5f5" stroke="transparent" points="716.5,-799.7 716.5,-822.7 927.5,-822.7 927.5,-799.7 716.5,-799.7"/>
<polygon fill="none" stroke="#000000" points="716.5,-799.7 716.5,-822.7 927.5,-822.7 927.5,-799.7 716.5,-799.7"/>
<text text-anchor="start" x="721.5" y="-808.3" font-family="Helvetica,sans-Serif" font-weight="bold" font-size="11.00" fill="#000000">protected_characteristics</text>
<text text-anchor="start" x="893.0219" y="-807.8" font-family="Helvetica,sans-Serif" font-size="11.00" fill="#000000">[table]</text>
<polygon fill="none" stroke="#000000" points="716.5,-777.7 716.5,-799.7 927.5,-799.7 927.5,-777.7 716.5,-777.7"/>
<image xlink:href="../../images/primaryKeys.png" width="11px" height="12px" preserveAspectRatio="xMinYMin meet" x="721.5" y="-794.7"/>
<text text-anchor="start" x="745.5" y="-784.8" font-family="Helvetica,sans-Serif" font-size="11.00" fill="#000000">id</text>
<polygon fill="#ffffff" stroke="transparent" points="716.5,-755.7 716.5,-777.7 927.5,-777.7 927.5,-755.7 716.5,-755.7"/>
<polygon fill="none" stroke="#000000" points="716.5,-755.7 716.5,-777.7 927.5,-777.7 927.5,-755.7 716.5,-755.7"/>
<image xlink:href="../../images/foreignKeys.png" width="11px" height="12px" preserveAspectRatio="xMinYMin meet" x="721.5" y="-772.7"/>
<text text-anchor="start" x="745.5" y="-762.8" font-family="Helvetica,sans-Serif" font-size="11.00" fill="#000000">reported_offence_fk_id</text>
<polygon fill="none" stroke="#000000" points="716.5,-736.7 716.5,-755.7 927.5,-755.7 927.5,-736.7 716.5,-736.7"/>
<text text-anchor="start" x="719.5" y="-742.8" font-family="Helvetica,sans-Serif" font-size="11.00" fill="#000000">...</text>
<polygon fill="#ffffff" stroke="transparent" points="716.5,-717.7 716.5,-736.7 820.5,-736.7 820.5,-717.7 716.5,-717.7"/>
<polygon fill="none" stroke="#000000" points="716.5,-717.7 716.5,-736.7 820.5,-736.7 820.5,-717.7 716.5,-717.7"/>
<text text-anchor="start" x="719.5" y="-723.8" font-family="Helvetica,sans-Serif" font-size="11.00" fill="#000000">&lt; 1</text>
<polygon fill="#ffffff" stroke="transparent" points="820.5,-717.7 820.5,-736.7 873.5,-736.7 873.5,-717.7 820.5,-717.7"/>
<polygon fill="none" stroke="#000000" points="820.5,-717.7 820.5,-736.7 873.5,-736.7 873.5,-717.7 820.5,-717.7"/>
<text text-anchor="start" x="864.3862" y="-723.8" font-family="Helvetica,sans-Serif" font-size="11.00" fill="#000000"> &#160;</text>
<polygon fill="#ffffff" stroke="transparent" points="873.5,-717.7 873.5,-736.7 927.5,-736.7 927.5,-717.7 873.5,-717.7"/>
<polygon fill="none" stroke="#000000" points="873.5,-717.7 873.5,-736.7 927.5,-736.7 927.5,-717.7 873.5,-717.7"/>
<text text-anchor="start" x="918.3862" y="-723.8" font-family="Helvetica,sans-Serif" font-size="11.00" fill="#000000"> &#160;</text>
</a>
</g>
</g>
<!-- reported_offence -->
<g id="node6" class="node">
<title>reported_offence</title>
<g id="a_node6"><a xlink:href="../../tables/reported_offence.html" xlink:title="reported_offence" target="_top">
<polygon fill="#ffffff" stroke="transparent" points="371,-448.7 371,-802.7 667,-802.7 667,-448.7 371,-448.7"/>
<polygon fill="#f5f5f5" stroke="transparent" points="373,-777.7 373,-800.7 665,-800.7 665,-777.7 373,-777.7"/>
<polygon fill="none" stroke="#000000" points="373,-777.7 373,-800.7 665,-800.7 665,-777.7 373,-777.7"/>
<text text-anchor="start" x="378" y="-786.3" font-family="Helvetica,sans-Serif" font-weight="bold" font-size="11.00" fill="#000000">reported_offence</text>
<text text-anchor="start" x="630.0437" y="-785.8" font-family="Helvetica,sans-Serif" font-size="11.00" fill="#000000">[table]</text>
<polygon fill="none" stroke="#000000" points="373,-755.7 373,-777.7 581,-777.7 581,-755.7 373,-755.7"/>
<image xlink:href="../../images/primaryKeys.png" width="11px" height="12px" preserveAspectRatio="xMinYMin meet" x="378" y="-772.7"/>
<text text-anchor="start" x="393" y="-762.8" font-family="Helvetica,sans-Serif" font-size="11.00" fill="#000000">id</text>
<polygon fill="none" stroke="#000000" points="581,-755.7 581,-777.7 665,-777.7 665,-755.7 581,-755.7"/>
<text text-anchor="start" x="584" y="-763.4" font-family="Helvetica,sans-Serif" font-size="11.00" fill="#000000">serial[10]</text>
<polygon fill="#ffffff" stroke="transparent" points="373,-733.7 373,-755.7 581,-755.7 581,-733.7 373,-733.7"/>
<polygon fill="none" stroke="#000000" points="373,-733.7 373,-755.7 581,-755.7 581,-733.7 373,-733.7"/>
<image xlink:href="../../images/foreignKeys.png" width="11px" height="12px" preserveAspectRatio="xMinYMin meet" x="378" y="-750.7"/>
<text text-anchor="start" x="393" y="-740.8" font-family="Helvetica,sans-Serif" font-size="11.00" fill="#000000">reported_adjudication_fk_id</text>
<polygon fill="none" stroke="#000000" points="581,-733.7 581,-755.7 665,-755.7 665,-733.7 581,-733.7"/>
<text text-anchor="start" x="584" y="-741.4" font-family="Helvetica,sans-Serif" font-size="11.00" fill="#000000">int8[19]</text>
<polygon fill="none" stroke="#000000" points="373,-711.7 373,-733.7 581,-733.7 581,-711.7 373,-711.7"/>
<text text-anchor="start" x="393" y="-718.8" font-family="Helvetica,sans-Serif" font-size="11.00" fill="#000000">offence_code</text>
<polygon fill="none" stroke="#000000" points="581,-711.7 581,-733.7 665,-733.7 665,-711.7 581,-711.7"/>
<text text-anchor="start" x="584" y="-719.4" font-family="Helvetica,sans-Serif" font-size="11.00" fill="#000000">int4[10]</text>
<polygon fill="#ffffff" stroke="transparent" points="373,-689.7 373,-711.7 581,-711.7 581,-689.7 373,-689.7"/>
<polygon fill="none" stroke="#000000" points="373,-689.7 373,-711.7 581,-711.7 581,-689.7 373,-689.7"/>
<text text-anchor="start" x="393" y="-696.8" font-family="Helvetica,sans-Serif" font-size="11.00" fill="#000000">victim_prisoners_number</text>
<polygon fill="none" stroke="#000000" points="581,-689.7 581,-711.7 665,-711.7 665,-689.7 581,-689.7"/>
<text text-anchor="start" x="584" y="-697.4" font-family="Helvetica,sans-Serif" font-size="11.00" fill="#000000">varchar[7]</text>
<polygon fill="none" stroke="#000000" points="373,-667.7 373,-689.7 581,-689.7 581,-667.7 373,-667.7"/>
<text text-anchor="start" x="393" y="-674.8" font-family="Helvetica,sans-Serif" font-size="11.00" fill="#000000">create_user_id</text>
<polygon fill="none" stroke="#000000" points="581,-667.7 581,-689.7 665,-689.7 665,-667.7 581,-667.7"/>
<text text-anchor="start" x="584" y="-675.4" font-family="Helvetica,sans-Serif" font-size="11.00" fill="#000000">varchar[32]</text>
<polygon fill="none" stroke="#000000" points="373,-645.7 373,-667.7 581,-667.7 581,-645.7 373,-645.7"/>
<text text-anchor="start" x="393" y="-652.8" font-family="Helvetica,sans-Serif" font-size="11.00" fill="#000000">create_datetime</text>
<polygon fill="none" stroke="#000000" points="581,-645.7 581,-667.7 665,-667.7 665,-645.7 581,-645.7"/>
<text text-anchor="start" x="583.8807" y="-653.4" font-family="Helvetica,sans-Serif" font-size="11.00" fill="#000000">timestamp[29,6]</text>
<polygon fill="none" stroke="#000000" points="373,-623.7 373,-645.7 581,-645.7 581,-623.7 373,-623.7"/>
<text text-anchor="start" x="393" y="-630.8" font-family="Helvetica,sans-Serif" font-size="11.00" fill="#000000">modify_user_id</text>
<polygon fill="none" stroke="#000000" points="581,-623.7 581,-645.7 665,-645.7 665,-623.7 581,-623.7"/>
<text text-anchor="start" x="584" y="-631.4" font-family="Helvetica,sans-Serif" font-size="11.00" fill="#000000">varchar[32]</text>
<polygon fill="none" stroke="#000000" points="373,-601.7 373,-623.7 581,-623.7 581,-601.7 373,-601.7"/>
<text text-anchor="start" x="393" y="-608.8" font-family="Helvetica,sans-Serif" font-size="11.00" fill="#000000">modify_datetime</text>
<polygon fill="none" stroke="#000000" points="581,-601.7 581,-623.7 665,-623.7 665,-601.7 581,-601.7"/>
<text text-anchor="start" x="583.8807" y="-609.4" font-family="Helvetica,sans-Serif" font-size="11.00" fill="#000000">timestamp[29,6]</text>
<polygon fill="none" stroke="#000000" points="373,-579.7 373,-601.7 581,-601.7 581,-579.7 373,-579.7"/>
<text text-anchor="start" x="393" y="-586.8" font-family="Helvetica,sans-Serif" font-size="11.00" fill="#000000">victim_staff_username</text>
<polygon fill="none" stroke="#000000" points="581,-579.7 581,-601.7 665,-601.7 665,-579.7 581,-579.7"/>
<text text-anchor="start" x="584" y="-587.4" font-family="Helvetica,sans-Serif" font-size="11.00" fill="#000000">varchar[30]</text>
<polygon fill="none" stroke="#000000" points="373,-557.7 373,-579.7 581,-579.7 581,-557.7 373,-557.7"/>
<text text-anchor="start" x="393" y="-564.8" font-family="Helvetica,sans-Serif" font-size="11.00" fill="#000000">victim_other_persons_name</text>
<polygon fill="none" stroke="#000000" points="581,-557.7 581,-579.7 665,-579.7 665,-557.7 581,-557.7"/>
<text text-anchor="start" x="584" y="-565.4" font-family="Helvetica,sans-Serif" font-size="11.00" fill="#000000">varchar[100]</text>
<polygon fill="none" stroke="#000000" points="373,-535.7 373,-557.7 581,-557.7 581,-535.7 373,-535.7"/>
<text text-anchor="start" x="393" y="-542.8" font-family="Helvetica,sans-Serif" font-size="11.00" fill="#000000">nomis_offence_code</text>
<polygon fill="none" stroke="#000000" points="581,-535.7 581,-557.7 665,-557.7 665,-535.7 581,-535.7"/>
<text text-anchor="start" x="584" y="-543.4" font-family="Helvetica,sans-Serif" font-size="11.00" fill="#000000">varchar[10]</text>
<polygon fill="none" stroke="#000000" points="373,-513.7 373,-535.7 581,-535.7 581,-513.7 373,-513.7"/>
<text text-anchor="start" x="393" y="-520.8" font-family="Helvetica,sans-Serif" font-size="11.00" fill="#000000">nomis_offence_description</text>
<polygon fill="none" stroke="#000000" points="581,-513.7 581,-535.7 665,-535.7 665,-513.7 581,-513.7"/>
<text text-anchor="start" x="584" y="-521.4" font-family="Helvetica,sans-Serif" font-size="11.00" fill="#000000">varchar[350]</text>
<polygon fill="none" stroke="#000000" points="373,-491.7 373,-513.7 581,-513.7 581,-491.7 373,-491.7"/>
<text text-anchor="start" x="393" y="-498.8" font-family="Helvetica,sans-Serif" font-size="11.00" fill="#000000">migrated</text>
<polygon fill="none" stroke="#000000" points="581,-491.7 581,-513.7 665,-513.7 665,-491.7 581,-491.7"/>
<text text-anchor="start" x="584" y="-499.4" font-family="Helvetica,sans-Serif" font-size="11.00" fill="#000000">bool[1]</text>
<polygon fill="none" stroke="#000000" points="373,-469.7 373,-491.7 581,-491.7 581,-469.7 373,-469.7"/>
<text text-anchor="start" x="393" y="-476.8" font-family="Helvetica,sans-Serif" font-size="11.00" fill="#000000">actual_offence_code</text>
<polygon fill="none" stroke="#000000" points="581,-469.7 581,-491.7 665,-491.7 665,-469.7 581,-469.7"/>
<text text-anchor="start" x="584" y="-477.4" font-family="Helvetica,sans-Serif" font-size="11.00" fill="#000000">int4[10]</text>
<polygon fill="#ffffff" stroke="transparent" points="373,-450.7 373,-469.7 481,-469.7 481,-450.7 373,-450.7"/>
<polygon fill="none" stroke="#000000" points="373,-450.7 373,-469.7 481,-469.7 481,-450.7 373,-450.7"/>
<text text-anchor="start" x="376" y="-456.8" font-family="Helvetica,sans-Serif" font-size="11.00" fill="#000000">&lt; 1</text>
<polygon fill="#ffffff" stroke="transparent" points="481,-450.7 481,-469.7 581,-469.7 581,-450.7 481,-450.7"/>
<polygon fill="none" stroke="#000000" points="481,-450.7 481,-469.7 581,-469.7 581,-450.7 481,-450.7"/>
<text text-anchor="start" x="571.8862" y="-456.8" font-family="Helvetica,sans-Serif" font-size="11.00" fill="#000000"> &#160;</text>
<polygon fill="#ffffff" stroke="transparent" points="581,-450.7 581,-469.7 665,-469.7 665,-450.7 581,-450.7"/>
<polygon fill="none" stroke="#000000" points="581,-450.7 581,-469.7 665,-469.7 665,-450.7 581,-450.7"/>
<text text-anchor="start" x="646.4053" y="-456.8" font-family="Helvetica,sans-Serif" font-size="11.00" fill="#000000">1 &gt;</text>
<polygon fill="none" stroke="#000000" stroke-width="2" points="372,-449.7 372,-801.7 666,-801.7 666,-449.7 372,-449.7"/>
</a>
</g>
</g>
<!-- protected_characteristics&#45;&gt;reported_offence -->
<g id="edge4" class="edge">
<title>protected_characteristics:w&#45;&gt;reported_offence:e</title>
<path fill="none" stroke="#000000" d="M702.0156,-766.7C689.6771,-766.7 682.1667,-766.7 665,-766.7"/>
<polygon fill="#000000" stroke="#000000" points="708.5,-766.7001 716.5,-770.3 712.5,-766.7 716.5,-766.7 716.5,-766.7 716.5,-766.7 712.5,-766.7 716.5,-763.1 708.5,-766.7001 708.5,-766.7001"/>
<ellipse fill="none" stroke="#000000" cx="705.3" cy="-766.7001" rx="3.2" ry="3.2"/>
</g>
<!-- reported_offence&#45;&gt;reported_adjudications -->
<g id="edge9" class="edge">
<title>reported_offence:w&#45;&gt;reported_adjudications:e</title>
<path fill="none" stroke="#000000" d="M359.3174,-740.0036C307.8937,-698.3519 395.431,-393.7 322,-393.7"/>
<polygon fill="#000000" stroke="#000000" points="365.4333,-742.1028 371.8312,-748.105 369.2167,-743.4014 373,-744.7 373,-744.7 373,-744.7 369.2167,-743.4014 374.1688,-741.295 365.4333,-742.1028 365.4333,-742.1028"/>
<ellipse fill="none" stroke="#000000" cx="362.4066" cy="-741.0639" rx="3.2" ry="3.2"/>
</g>
<!-- punishment -->
<g id="node7" class="node">
<title>punishment</title>
<g id="a_node7"><a xlink:href="../../tables/punishment.html" xlink:title="punishment" target="_top">
<polygon fill="#ffffff" stroke="transparent" points="459.5,-366.2 459.5,-427.2 578.5,-427.2 578.5,-366.2 459.5,-366.2"/>
<polygon fill="#f5f5f5" stroke="transparent" points="460,-403.7 460,-426.7 579,-426.7 579,-403.7 460,-403.7"/>
<polygon fill="none" stroke="#000000" points="460,-403.7 460,-426.7 579,-426.7 579,-403.7 460,-403.7"/>
<text text-anchor="start" x="465" y="-412.3" font-family="Helvetica,sans-Serif" font-weight="bold" font-size="11.00" fill="#000000">punishment</text>
<text text-anchor="start" x="544.5219" y="-411.8" font-family="Helvetica,sans-Serif" font-size="11.00" fill="#000000">[table]</text>
<polygon fill="none" stroke="#000000" points="460,-384.7 460,-403.7 579,-403.7 579,-384.7 460,-384.7"/>
<text text-anchor="start" x="463" y="-390.8" font-family="Helvetica,sans-Serif" font-size="11.00" fill="#000000">...</text>
<polygon fill="#ffffff" stroke="transparent" points="460,-365.7 460,-384.7 513,-384.7 513,-365.7 460,-365.7"/>
<polygon fill="none" stroke="#000000" points="460,-365.7 460,-384.7 513,-384.7 513,-365.7 460,-365.7"/>
<text text-anchor="start" x="463" y="-371.8" font-family="Helvetica,sans-Serif" font-size="11.00" fill="#000000">&lt; 1</text>
<polygon fill="#ffffff" stroke="transparent" points="513,-365.7 513,-384.7 541,-384.7 541,-365.7 513,-365.7"/>
<polygon fill="none" stroke="#000000" points="513,-365.7 513,-384.7 541,-384.7 541,-365.7 513,-365.7"/>
<text text-anchor="start" x="531.8862" y="-371.8" font-family="Helvetica,sans-Serif" font-size="11.00" fill="#000000"> &#160;</text>
<polygon fill="#ffffff" stroke="transparent" points="541,-365.7 541,-384.7 579,-384.7 579,-365.7 541,-365.7"/>
<polygon fill="none" stroke="#000000" points="541,-365.7 541,-384.7 579,-384.7 579,-365.7 541,-365.7"/>
<text text-anchor="start" x="560.4053" y="-371.8" font-family="Helvetica,sans-Serif" font-size="11.00" fill="#000000">2 &gt;</text>
</a>
</g>
</g>
<!-- punishment&#45;&gt;reported_adjudications -->
<g id="edge5" class="edge">
<title>punishment:w&#45;&gt;reported_adjudications:e</title>
<path fill="none" stroke="#000000" d="M445.4657,-393.7C395.7667,-393.7 378.1823,-393.7 322,-393.7"/>
<polygon fill="#000000" stroke="#000000" points="452,-393.7001 460,-397.3 456,-393.7 460,-393.7 460,-393.7 460,-393.7 456,-393.7 460,-390.1 452,-393.7001 452,-393.7001"/>
<ellipse fill="none" stroke="#000000" cx="448.8" cy="-393.7001" rx="3.2" ry="3.2"/>
</g>
<!-- punishment_comments -->
<g id="node8" class="node">
<title>punishment_comments</title>
<g id="a_node8"><a xlink:href="../../tables/punishment_comments.html" xlink:title="punishment_comments" target="_top">
<polygon fill="#ffffff" stroke="transparent" points="421.5,-284.2 421.5,-345.2 616.5,-345.2 616.5,-284.2 421.5,-284.2"/>
<polygon fill="#f5f5f5" stroke="transparent" points="422,-321.7 422,-344.7 617,-344.7 617,-321.7 422,-321.7"/>
<polygon fill="none" stroke="#000000" points="422,-321.7 422,-344.7 617,-344.7 617,-321.7 422,-321.7"/>
<text text-anchor="start" x="427" y="-330.3" font-family="Helvetica,sans-Serif" font-weight="bold" font-size="11.00" fill="#000000">punishment_comments</text>
<text text-anchor="start" x="582.5219" y="-329.8" font-family="Helvetica,sans-Serif" font-size="11.00" fill="#000000">[table]</text>
<polygon fill="none" stroke="#000000" points="422,-302.7 422,-321.7 617,-321.7 617,-302.7 422,-302.7"/>
<text text-anchor="start" x="425" y="-308.8" font-family="Helvetica,sans-Serif" font-size="11.00" fill="#000000">...</text>
<polygon fill="#ffffff" stroke="transparent" points="422,-283.7 422,-302.7 518,-302.7 518,-283.7 422,-283.7"/>
<polygon fill="none" stroke="#000000" points="422,-283.7 422,-302.7 518,-302.7 518,-283.7 422,-283.7"/>
<text text-anchor="start" x="425" y="-289.8" font-family="Helvetica,sans-Serif" font-size="11.00" fill="#000000">&lt; 1</text>
<polygon fill="#ffffff" stroke="transparent" points="518,-283.7 518,-302.7 567,-302.7 567,-283.7 518,-283.7"/>
<polygon fill="none" stroke="#000000" points="518,-283.7 518,-302.7 567,-302.7 567,-283.7 518,-283.7"/>
<text text-anchor="start" x="557.8862" y="-289.8" font-family="Helvetica,sans-Serif" font-size="11.00" fill="#000000"> &#160;</text>
<polygon fill="#ffffff" stroke="transparent" points="567,-283.7 567,-302.7 617,-302.7 617,-283.7 567,-283.7"/>
<polygon fill="none" stroke="#000000" points="567,-283.7 567,-302.7 617,-302.7 617,-283.7 567,-283.7"/>
<text text-anchor="start" x="607.8862" y="-289.8" font-family="Helvetica,sans-Serif" font-size="11.00" fill="#000000"> &#160;</text>
</a>
</g>
</g>
<!-- punishment_comments&#45;&gt;reported_adjudications -->
<g id="edge6" class="edge">
<title>punishment_comments:w&#45;&gt;reported_adjudications:e</title>
<path fill="none" stroke="#000000" d="M407.6486,-313.6169C388.1859,-319.5684 383.8212,-338.3711 363,-355.7 343.9034,-371.5936 346.8452,-393.7 322,-393.7"/>
<polygon fill="#000000" stroke="#000000" points="414.0704,-312.7592 422.4766,-315.2683 418.0352,-312.2296 422,-311.7 422,-311.7 422,-311.7 418.0352,-312.2296 421.5234,-308.1317 414.0704,-312.7592 414.0704,-312.7592"/>
<ellipse fill="none" stroke="#000000" cx="410.8986" cy="-313.1828" rx="3.2" ry="3.2"/>
</g>
<!-- reported_damages -->
<g id="node9" class="node">
<title>reported_damages</title>
<g id="a_node9"><a xlink:href="../../tables/reported_damages.html" xlink:title="reported_damages" target="_top">
<polygon fill="#ffffff" stroke="transparent" points="436.5,-202.2 436.5,-263.2 601.5,-263.2 601.5,-202.2 436.5,-202.2"/>
<polygon fill="#f5f5f5" stroke="transparent" points="437,-239.7 437,-262.7 602,-262.7 602,-239.7 437,-239.7"/>
<polygon fill="none" stroke="#000000" points="437,-239.7 437,-262.7 602,-262.7 602,-239.7 437,-239.7"/>
<text text-anchor="start" x="442" y="-248.3" font-family="Helvetica,sans-Serif" font-weight="bold" font-size="11.00" fill="#000000">reported_damages</text>
<text text-anchor="start" x="567.5219" y="-247.8" font-family="Helvetica,sans-Serif" font-size="11.00" fill="#000000">[table]</text>
<polygon fill="none" stroke="#000000" points="437,-220.7 437,-239.7 602,-239.7 602,-220.7 437,-220.7"/>
<text text-anchor="start" x="440" y="-226.8" font-family="Helvetica,sans-Serif" font-size="11.00" fill="#000000">...</text>
<polygon fill="#ffffff" stroke="transparent" points="437,-201.7 437,-220.7 518,-220.7 518,-201.7 437,-201.7"/>
<polygon fill="none" stroke="#000000" points="437,-201.7 437,-220.7 518,-220.7 518,-201.7 437,-201.7"/>
<text text-anchor="start" x="440" y="-207.8" font-family="Helvetica,sans-Serif" font-size="11.00" fill="#000000">&lt; 1</text>
<polygon fill="#ffffff" stroke="transparent" points="518,-201.7 518,-220.7 560,-220.7 560,-201.7 518,-201.7"/>
<polygon fill="none" stroke="#000000" points="518,-201.7 518,-220.7 560,-220.7 560,-201.7 518,-201.7"/>
<text text-anchor="start" x="550.8862" y="-207.8" font-family="Helvetica,sans-Serif" font-size="11.00" fill="#000000"> &#160;</text>
<polygon fill="#ffffff" stroke="transparent" points="560,-201.7 560,-220.7 602,-220.7 602,-201.7 560,-201.7"/>
<polygon fill="none" stroke="#000000" points="560,-201.7 560,-220.7 602,-220.7 602,-201.7 560,-201.7"/>
<text text-anchor="start" x="592.8862" y="-207.8" font-family="Helvetica,sans-Serif" font-size="11.00" fill="#000000"> &#160;</text>
</a>
</g>
</g>
<!-- reported_damages&#45;&gt;reported_adjudications -->
<g id="edge7" class="edge">
<title>reported_damages:w&#45;&gt;reported_adjudications:e</title>
<path fill="none" stroke="#000000" d="M422.3292,-230.5509C395.2204,-234.0241 383.7223,-248.1685 363,-273.7 327.4823,-317.4606 378.3604,-393.7 322,-393.7"/>
<polygon fill="#000000" stroke="#000000" points="429.0134,-230.1633 437.2085,-233.294 433.0067,-229.9316 437,-229.7 437,-229.7 437,-229.7 433.0067,-229.9316 436.7915,-226.106 429.0134,-230.1633 429.0134,-230.1633"/>
<ellipse fill="none" stroke="#000000" cx="425.8188" cy="-230.3486" rx="3.2" ry="3.2"/>
</g>
<!-- reported_evidence -->
<g id="node10" class="node">
<title>reported_evidence</title>
<g id="a_node10"><a xlink:href="../../tables/reported_evidence.html" xlink:title="reported_evidence" target="_top">
<polygon fill="#ffffff" stroke="transparent" points="437,-120.2 437,-181.2 601,-181.2 601,-120.2 437,-120.2"/>
<polygon fill="#f5f5f5" stroke="transparent" points="437,-157.7 437,-180.7 601,-180.7 601,-157.7 437,-157.7"/>
<polygon fill="none" stroke="#000000" points="437,-157.7 437,-180.7 601,-180.7 601,-157.7 437,-157.7"/>
<text text-anchor="start" x="442" y="-166.3" font-family="Helvetica,sans-Serif" font-weight="bold" font-size="11.00" fill="#000000">reported_evidence</text>
<text text-anchor="start" x="566.5219" y="-165.8" font-family="Helvetica,sans-Serif" font-size="11.00" fill="#000000">[table]</text>
<polygon fill="none" stroke="#000000" points="437,-138.7 437,-157.7 601,-157.7 601,-138.7 437,-138.7"/>
<text text-anchor="start" x="440" y="-144.8" font-family="Helvetica,sans-Serif" font-size="11.00" fill="#000000">...</text>
<polygon fill="#ffffff" stroke="transparent" points="437,-119.7 437,-138.7 517,-138.7 517,-119.7 437,-119.7"/>
<polygon fill="none" stroke="#000000" points="437,-119.7 437,-138.7 517,-138.7 517,-119.7 437,-119.7"/>
<text text-anchor="start" x="440" y="-125.8" font-family="Helvetica,sans-Serif" font-size="11.00" fill="#000000">&lt; 1</text>
<polygon fill="#ffffff" stroke="transparent" points="517,-119.7 517,-138.7 559,-138.7 559,-119.7 517,-119.7"/>
<polygon fill="none" stroke="#000000" points="517,-119.7 517,-138.7 559,-138.7 559,-119.7 517,-119.7"/>
<text text-anchor="start" x="549.8862" y="-125.8" font-family="Helvetica,sans-Serif" font-size="11.00" fill="#000000"> &#160;</text>
<polygon fill="#ffffff" stroke="transparent" points="559,-119.7 559,-138.7 601,-138.7 601,-119.7 559,-119.7"/>
<polygon fill="none" stroke="#000000" points="559,-119.7 559,-138.7 601,-138.7 601,-119.7 559,-119.7"/>
<text text-anchor="start" x="591.8862" y="-125.8" font-family="Helvetica,sans-Serif" font-size="11.00" fill="#000000"> &#160;</text>
</a>
</g>
</g>
<!-- reported_evidence&#45;&gt;reported_adjudications -->
<g id="edge8" class="edge">
<title>reported_evidence:w&#45;&gt;reported_adjudications:e</title>
<path fill="none" stroke="#000000" d="M422.6047,-148.432C394.861,-151.5435 382.1204,-164.7642 363,-191.7 309.9734,-266.4013 413.6084,-393.7 322,-393.7"/>
<polygon fill="#000000" stroke="#000000" points="429.0103,-148.1063 437.1828,-151.2954 433.0052,-147.9032 437,-147.7 437,-147.7 437,-147.7 433.0052,-147.9032 436.8172,-144.1046 429.0103,-148.1063 429.0103,-148.1063"/>
<ellipse fill="none" stroke="#000000" cx="425.8145" cy="-148.2689" rx="3.2" ry="3.2"/>
</g>
<!-- reported_witness -->
<g id="node11" class="node">
<title>reported_witness</title>
<g id="a_node11"><a xlink:href="../../tables/reported_witness.html" xlink:title="reported_witness" target="_top">
<polygon fill="#ffffff" stroke="transparent" points="441,-38.2 441,-99.2 597,-99.2 597,-38.2 441,-38.2"/>
<polygon fill="#f5f5f5" stroke="transparent" points="441,-75.7 441,-98.7 597,-98.7 597,-75.7 441,-75.7"/>
<polygon fill="none" stroke="#000000" points="441,-75.7 441,-98.7 597,-98.7 597,-75.7 441,-75.7"/>
<text text-anchor="start" x="446" y="-84.3" font-family="Helvetica,sans-Serif" font-weight="bold" font-size="11.00" fill="#000000">reported_witness</text>
<text text-anchor="start" x="562.5219" y="-83.8" font-family="Helvetica,sans-Serif" font-size="11.00" fill="#000000">[table]</text>
<polygon fill="none" stroke="#000000" points="441,-56.7 441,-75.7 597,-75.7 597,-56.7 441,-56.7"/>
<text text-anchor="start" x="444" y="-62.8" font-family="Helvetica,sans-Serif" font-size="11.00" fill="#000000">...</text>
<polygon fill="#ffffff" stroke="transparent" points="441,-37.7 441,-56.7 517,-56.7 517,-37.7 441,-37.7"/>
<polygon fill="none" stroke="#000000" points="441,-37.7 441,-56.7 517,-56.7 517,-37.7 441,-37.7"/>
<text text-anchor="start" x="444" y="-43.8" font-family="Helvetica,sans-Serif" font-size="11.00" fill="#000000">&lt; 1</text>
<polygon fill="#ffffff" stroke="transparent" points="517,-37.7 517,-56.7 557,-56.7 557,-37.7 517,-37.7"/>
<polygon fill="none" stroke="#000000" points="517,-37.7 517,-56.7 557,-56.7 557,-37.7 517,-37.7"/>
<text text-anchor="start" x="547.8862" y="-43.8" font-family="Helvetica,sans-Serif" font-size="11.00" fill="#000000"> &#160;</text>
<polygon fill="#ffffff" stroke="transparent" points="557,-37.7 557,-56.7 597,-56.7 597,-37.7 557,-37.7"/>
<polygon fill="none" stroke="#000000" points="557,-37.7 557,-56.7 597,-56.7 597,-37.7 557,-37.7"/>
<text text-anchor="start" x="587.8862" y="-43.8" font-family="Helvetica,sans-Serif" font-size="11.00" fill="#000000"> &#160;</text>
</a>
</g>
</g>
<!-- reported_witness&#45;&gt;reported_adjudications -->
<g id="edge10" class="edge">
<title>reported_witness:w&#45;&gt;reported_adjudications:e</title>
<path fill="none" stroke="#000000" d="M426.3437,-66.315C396.9044,-69.046 382.4971,-81.2184 363,-109.7 326.9805,-162.3177 385.7654,-393.7 322,-393.7"/>
<polygon fill="#000000" stroke="#000000" points="433.007,-66.0355 441.151,-69.2968 437.0035,-65.8677 441,-65.7 441,-65.7 441,-65.7 437.0035,-65.8677 440.849,-62.1032 433.007,-66.0355 433.007,-66.0355"/>
<ellipse fill="none" stroke="#000000" cx="429.8098" cy="-66.1697" rx="3.2" ry="3.2"/>
</g>
</g>
</svg>
