<?xml version="1.0" encoding="UTF-8" standalone="no"?>
<!DOCTYPE svg PUBLIC "-//W3C//DTD SVG 1.1//EN"
 "http://www.w3.org/Graphics/SVG/1.1/DTD/svg11.dtd">
<!-- Generated by graphviz version 2.40.1 (20161225.0304)
 -->
<!-- Title: twoDegreesRelationshipsDiagram Pages: 1 -->
<svg width="683pt" height="995pt"
 viewBox="0.00 0.00 683.00 995.20" xmlns="http://www.w3.org/2000/svg" xmlns:xlink="http://www.w3.org/1999/xlink">
<g id="graph0" class="graph" transform="scale(1 1) rotate(0) translate(4 991.2)">
<title>twoDegreesRelationshipsDiagram</title>
<polygon fill="#ffffff" stroke="transparent" points="-4,4 -4,-991.2 679,-991.2 679,4 -4,4"/>
<text text-anchor="middle" x="72.4936" y="-7.3" font-family="Helvetica,sans-Serif" font-size="11.00" fill="#000000">Generated by SchemaSpy</text>
<!-- dis_issue_history -->
<g id="node1" class="node">
<title>dis_issue_history</title>
<g id="a_node1"><a xlink:href="../../tables/dis_issue_history.html" xlink:title="dis_issue_history" target="_top">
<polygon fill="#ffffff" stroke="transparent" points="442.5,-922.2 442.5,-983.2 595.5,-983.2 595.5,-922.2 442.5,-922.2"/>
<polygon fill="#f5f5f5" stroke="transparent" points="443,-959.7 443,-982.7 596,-982.7 596,-959.7 443,-959.7"/>
<polygon fill="none" stroke="#000000" points="443,-959.7 443,-982.7 596,-982.7 596,-959.7 443,-959.7"/>
<text text-anchor="start" x="448" y="-968.3" font-family="Helvetica,sans-Serif" font-weight="bold" font-size="11.00" fill="#000000">dis_issue_history</text>
<text text-anchor="start" x="561.5219" y="-967.8" font-family="Helvetica,sans-Serif" font-size="11.00" fill="#000000">[table]</text>
<polygon fill="none" stroke="#000000" points="443,-940.7 443,-959.7 596,-959.7 596,-940.7 443,-940.7"/>
<text text-anchor="start" x="446" y="-946.8" font-family="Helvetica,sans-Serif" font-size="11.00" fill="#000000">...</text>
<polygon fill="#ffffff" stroke="transparent" points="443,-921.7 443,-940.7 518,-940.7 518,-921.7 443,-921.7"/>
<polygon fill="none" stroke="#000000" points="443,-921.7 443,-940.7 518,-940.7 518,-921.7 443,-921.7"/>
<text text-anchor="start" x="446" y="-927.8" font-family="Helvetica,sans-Serif" font-size="11.00" fill="#000000">&lt; 1</text>
<polygon fill="#ffffff" stroke="transparent" points="518,-921.7 518,-940.7 557,-940.7 557,-921.7 518,-921.7"/>
<polygon fill="none" stroke="#000000" points="518,-921.7 518,-940.7 557,-940.7 557,-921.7 518,-921.7"/>
<text text-anchor="start" x="547.8862" y="-927.8" font-family="Helvetica,sans-Serif" font-size="11.00" fill="#000000"> &#160;</text>
<polygon fill="#ffffff" stroke="transparent" points="557,-921.7 557,-940.7 596,-940.7 596,-921.7 557,-921.7"/>
<polygon fill="none" stroke="#000000" points="557,-921.7 557,-940.7 596,-940.7 596,-921.7 557,-921.7"/>
<text text-anchor="start" x="586.8862" y="-927.8" font-family="Helvetica,sans-Serif" font-size="11.00" fill="#000000"> &#160;</text>
</a>
</g>
</g>
<!-- reported_adjudications -->
<g id="node2" class="node">
<title>reported_adjudications</title>
<g id="a_node2"><a xlink:href="../../tables/reported_adjudications.html" xlink:title="reported_adjudications" target="_top">
<polygon fill="#ffffff" stroke="transparent" points="8,-331.2 8,-656.2 322,-656.2 322,-331.2 8,-331.2"/>
<polygon fill="#f5f5f5" stroke="transparent" points="8,-632.7 8,-655.7 322,-655.7 322,-632.7 8,-632.7"/>
<polygon fill="none" stroke="#000000" points="8,-632.7 8,-655.7 322,-655.7 322,-632.7 8,-632.7"/>
<text text-anchor="start" x="13" y="-641.3" font-family="Helvetica,sans-Serif" font-weight="bold" font-size="11.00" fill="#000000">reported_adjudications</text>
<text text-anchor="start" x="287.0437" y="-640.8" font-family="Helvetica,sans-Serif" font-size="11.00" fill="#000000">[table]</text>
<polygon fill="none" stroke="#000000" points="8,-610.7 8,-632.7 322,-632.7 322,-610.7 8,-610.7"/>
<image xlink:href="../../images/primaryKeys.png" width="11px" height="12px" preserveAspectRatio="xMinYMin meet" x="13" y="-627.7"/>
<text text-anchor="start" x="28" y="-617.8" font-family="Helvetica,sans-Serif" font-size="11.00" fill="#000000">id</text>
<polygon fill="#ffffff" stroke="transparent" points="8,-588.7 8,-610.7 322,-610.7 322,-588.7 8,-588.7"/>
<polygon fill="none" stroke="#000000" points="8,-588.7 8,-610.7 322,-610.7 322,-588.7 8,-588.7"/>
<text text-anchor="start" x="28" y="-595.8" font-family="Helvetica,sans-Serif" font-size="11.00" fill="#000000">prisoner_number</text>
<polygon fill="#ffffff" stroke="transparent" points="8,-566.7 8,-588.7 322,-588.7 322,-566.7 8,-566.7"/>
<polygon fill="none" stroke="#000000" points="8,-566.7 8,-588.7 322,-588.7 322,-566.7 8,-566.7"/>
<text text-anchor="start" x="28" y="-573.8" font-family="Helvetica,sans-Serif" font-size="11.00" fill="#000000">charge_number</text>
<polygon fill="#ffffff" stroke="transparent" points="8,-544.7 8,-566.7 322,-566.7 322,-544.7 8,-544.7"/>
<polygon fill="none" stroke="#000000" points="8,-544.7 8,-566.7 322,-566.7 322,-544.7 8,-544.7"/>
<text text-anchor="start" x="28" y="-551.8" font-family="Helvetica,sans-Serif" font-size="11.00" fill="#000000">originating_agency_id</text>
<polygon fill="#ffffff" stroke="transparent" points="8,-522.7 8,-544.7 322,-544.7 322,-522.7 8,-522.7"/>
<polygon fill="none" stroke="#000000" points="8,-522.7 8,-544.7 322,-544.7 322,-522.7 8,-522.7"/>
<text text-anchor="start" x="28" y="-529.8" font-family="Helvetica,sans-Serif" font-size="11.00" fill="#000000">create_user_id</text>
<polygon fill="#ffffff" stroke="transparent" points="8,-500.7 8,-522.7 322,-522.7 322,-500.7 8,-500.7"/>
<polygon fill="none" stroke="#000000" points="8,-500.7 8,-522.7 322,-522.7 322,-500.7 8,-500.7"/>
<text text-anchor="start" x="28" y="-507.8" font-family="Helvetica,sans-Serif" font-size="11.00" fill="#000000">incident_role_associated_prisoners_number</text>
<polygon fill="#ffffff" stroke="transparent" points="8,-478.7 8,-500.7 322,-500.7 322,-478.7 8,-478.7"/>
<polygon fill="none" stroke="#000000" points="8,-478.7 8,-500.7 322,-500.7 322,-478.7 8,-478.7"/>
<text text-anchor="start" x="28" y="-485.8" font-family="Helvetica,sans-Serif" font-size="11.00" fill="#000000">status</text>
<polygon fill="#ffffff" stroke="transparent" points="8,-456.7 8,-478.7 322,-478.7 322,-456.7 8,-456.7"/>
<polygon fill="none" stroke="#000000" points="8,-456.7 8,-478.7 322,-478.7 322,-456.7 8,-456.7"/>
<text text-anchor="start" x="28" y="-463.8" font-family="Helvetica,sans-Serif" font-size="11.00" fill="#000000">date_time_of_discovery</text>
<polygon fill="#ffffff" stroke="transparent" points="8,-434.7 8,-456.7 322,-456.7 322,-434.7 8,-434.7"/>
<polygon fill="none" stroke="#000000" points="8,-434.7 8,-456.7 322,-456.7 322,-434.7 8,-434.7"/>
<text text-anchor="start" x="28" y="-441.8" font-family="Helvetica,sans-Serif" font-size="11.00" fill="#000000">date_time_of_first_hearing</text>
<polygon fill="#ffffff" stroke="transparent" points="8,-412.7 8,-434.7 322,-434.7 322,-412.7 8,-412.7"/>
<polygon fill="none" stroke="#000000" points="8,-412.7 8,-434.7 322,-434.7 322,-412.7 8,-412.7"/>
<text text-anchor="start" x="28" y="-419.8" font-family="Helvetica,sans-Serif" font-size="11.00" fill="#000000">override_agency_id</text>
<polygon fill="#ffffff" stroke="transparent" points="8,-390.7 8,-412.7 322,-412.7 322,-390.7 8,-390.7"/>
<polygon fill="none" stroke="#000000" points="8,-390.7 8,-412.7 322,-412.7 322,-390.7 8,-390.7"/>
<text text-anchor="start" x="28" y="-397.8" font-family="Helvetica,sans-Serif" font-size="11.00" fill="#000000">migrated</text>
<polygon fill="#ffffff" stroke="transparent" points="8,-368.7 8,-390.7 322,-390.7 322,-368.7 8,-368.7"/>
<polygon fill="none" stroke="#000000" points="8,-368.7 8,-390.7 322,-390.7 322,-368.7 8,-368.7"/>
<text text-anchor="start" x="28" y="-375.8" font-family="Helvetica,sans-Serif" font-size="11.00" fill="#000000">offender_booking_id</text>
<polygon fill="none" stroke="#000000" points="8,-349.7 8,-368.7 322,-368.7 322,-349.7 8,-349.7"/>
<text text-anchor="start" x="11" y="-355.8" font-family="Helvetica,sans-Serif" font-size="11.00" fill="#000000">...</text>
<polygon fill="#ffffff" stroke="transparent" points="8,-330.7 8,-349.7 154,-349.7 154,-330.7 8,-330.7"/>
<polygon fill="none" stroke="#000000" points="8,-330.7 8,-349.7 154,-349.7 154,-330.7 8,-330.7"/>
<text text-anchor="start" x="11" y="-336.8" font-family="Helvetica,sans-Serif" font-size="11.00" fill="#000000"> &#160;</text>
<polygon fill="#ffffff" stroke="transparent" points="154,-330.7 154,-349.7 233,-349.7 233,-330.7 154,-330.7"/>
<polygon fill="none" stroke="#000000" points="154,-330.7 154,-349.7 233,-349.7 233,-330.7 154,-330.7"/>
<text text-anchor="start" x="223.8862" y="-336.8" font-family="Helvetica,sans-Serif" font-size="11.00" fill="#000000"> &#160;</text>
<polygon fill="#ffffff" stroke="transparent" points="233,-330.7 233,-349.7 322,-349.7 322,-330.7 233,-330.7"/>
<polygon fill="none" stroke="#000000" points="233,-330.7 233,-349.7 322,-349.7 322,-330.7 233,-330.7"/>
<text text-anchor="start" x="303.4053" y="-336.8" font-family="Helvetica,sans-Serif" font-size="11.00" fill="#000000">9 &gt;</text>
</a>
</g>
</g>
<!-- dis_issue_history&#45;&gt;reported_adjudications -->
<g id="edge1" class="edge">
<title>dis_issue_history:w&#45;&gt;reported_adjudications:e</title>
<path fill="none" stroke="#000000" d="M428.417,-949.3226C398.9301,-947.5821 383.2178,-939.2034 363,-911.7 324.4506,-859.2591 387.0853,-621.7 322,-621.7"/>
<polygon fill="#000000" stroke="#000000" points="435.0027,-949.493 442.9068,-953.2988 439.0013,-949.5965 443,-949.7 443,-949.7 443,-949.7 439.0013,-949.5965 443.0932,-946.1012 435.0027,-949.493 435.0027,-949.493"/>
<ellipse fill="none" stroke="#000000" cx="431.8037" cy="-949.4102" rx="3.2" ry="3.2"/>
</g>
<!-- hearing -->
<g id="node3" class="node">
<title>hearing</title>
<g id="a_node3"><a xlink:href="../../tables/hearing.html" xlink:title="hearing" target="_top">
<polygon fill="#ffffff" stroke="transparent" points="474,-840.2 474,-901.2 564,-901.2 564,-840.2 474,-840.2"/>
<polygon fill="#f5f5f5" stroke="transparent" points="474,-877.7 474,-900.7 564,-900.7 564,-877.7 474,-877.7"/>
<polygon fill="none" stroke="#000000" points="474,-877.7 474,-900.7 564,-900.7 564,-877.7 474,-877.7"/>
<text text-anchor="start" x="479" y="-886.3" font-family="Helvetica,sans-Serif" font-weight="bold" font-size="11.00" fill="#000000">hearing</text>
<text text-anchor="start" x="529.5219" y="-885.8" font-family="Helvetica,sans-Serif" font-size="11.00" fill="#000000">[table]</text>
<polygon fill="none" stroke="#000000" points="474,-858.7 474,-877.7 564,-877.7 564,-858.7 474,-858.7"/>
<text text-anchor="start" x="477" y="-864.8" font-family="Helvetica,sans-Serif" font-size="11.00" fill="#000000">...</text>
<polygon fill="#ffffff" stroke="transparent" points="474,-839.7 474,-858.7 517,-858.7 517,-839.7 474,-839.7"/>
<polygon fill="none" stroke="#000000" points="474,-839.7 474,-858.7 517,-858.7 517,-839.7 474,-839.7"/>
<text text-anchor="start" x="477" y="-845.8" font-family="Helvetica,sans-Serif" font-size="11.00" fill="#000000">&lt; 2</text>
<polygon fill="#ffffff" stroke="transparent" points="517,-839.7 517,-858.7 540,-858.7 540,-839.7 517,-839.7"/>
<polygon fill="none" stroke="#000000" points="517,-839.7 517,-858.7 540,-858.7 540,-839.7 517,-839.7"/>
<text text-anchor="start" x="530.8862" y="-845.8" font-family="Helvetica,sans-Serif" font-size="11.00" fill="#000000"> &#160;</text>
<polygon fill="#ffffff" stroke="transparent" points="540,-839.7 540,-858.7 564,-858.7 564,-839.7 540,-839.7"/>
<polygon fill="none" stroke="#000000" points="540,-839.7 540,-858.7 564,-858.7 564,-839.7 540,-839.7"/>
<text text-anchor="start" x="554.8862" y="-845.8" font-family="Helvetica,sans-Serif" font-size="11.00" fill="#000000"> &#160;</text>
</a>
</g>
</g>
<!-- hearing&#45;&gt;reported_adjudications -->
<g id="edge2" class="edge">
<title>hearing:w&#45;&gt;reported_adjudications:e</title>
<path fill="none" stroke="#000000" d="M459.4778,-867.6976C416.9662,-867.5629 393.9471,-865.1424 363,-829.7 301.0273,-758.7253 416.2233,-621.7 322,-621.7"/>
<polygon fill="#000000" stroke="#000000" points="466,-867.6986 473.9994,-871.3 470,-867.6993 474,-867.7 474,-867.7 474,-867.7 470,-867.6993 474.0006,-864.1 466,-867.6986 466,-867.6986"/>
<ellipse fill="none" stroke="#000000" cx="462.8" cy="-867.6981" rx="3.2" ry="3.2"/>
</g>
<!-- outcome -->
<g id="node4" class="node">
<title>outcome</title>
<g id="a_node4"><a xlink:href="../../tables/outcome.html" xlink:title="outcome" target="_top">
<polygon fill="#ffffff" stroke="transparent" points="470.5,-758.2 470.5,-819.2 567.5,-819.2 567.5,-758.2 470.5,-758.2"/>
<polygon fill="#f5f5f5" stroke="transparent" points="471,-795.7 471,-818.7 568,-818.7 568,-795.7 471,-795.7"/>
<polygon fill="none" stroke="#000000" points="471,-795.7 471,-818.7 568,-818.7 568,-795.7 471,-795.7"/>
<text text-anchor="start" x="476" y="-804.3" font-family="Helvetica,sans-Serif" font-weight="bold" font-size="11.00" fill="#000000">outcome</text>
<text text-anchor="start" x="533.5219" y="-803.8" font-family="Helvetica,sans-Serif" font-size="11.00" fill="#000000">[table]</text>
<polygon fill="none" stroke="#000000" points="471,-776.7 471,-795.7 568,-795.7 568,-776.7 471,-776.7"/>
<text text-anchor="start" x="474" y="-782.8" font-family="Helvetica,sans-Serif" font-size="11.00" fill="#000000">...</text>
<polygon fill="#ffffff" stroke="transparent" points="471,-757.7 471,-776.7 518,-776.7 518,-757.7 471,-757.7"/>
<polygon fill="none" stroke="#000000" points="471,-757.7 471,-776.7 518,-776.7 518,-757.7 471,-757.7"/>
<text text-anchor="start" x="474" y="-763.8" font-family="Helvetica,sans-Serif" font-size="11.00" fill="#000000">&lt; 1</text>
<polygon fill="#ffffff" stroke="transparent" points="518,-757.7 518,-776.7 543,-776.7 543,-757.7 518,-757.7"/>
<polygon fill="none" stroke="#000000" points="518,-757.7 518,-776.7 543,-776.7 543,-757.7 518,-757.7"/>
<text text-anchor="start" x="533.8862" y="-763.8" font-family="Helvetica,sans-Serif" font-size="11.00" fill="#000000"> &#160;</text>
<polygon fill="#ffffff" stroke="transparent" points="543,-757.7 543,-776.7 568,-776.7 568,-757.7 543,-757.7"/>
<polygon fill="none" stroke="#000000" points="543,-757.7 543,-776.7 568,-776.7 568,-757.7 543,-757.7"/>
<text text-anchor="start" x="558.8862" y="-763.8" font-family="Helvetica,sans-Serif" font-size="11.00" fill="#000000"> &#160;</text>
</a>
</g>
</g>
<!-- outcome&#45;&gt;reported_adjudications -->
<g id="edge3" class="edge">
<title>outcome:w&#45;&gt;reported_adjudications:e</title>
<path fill="none" stroke="#000000" d="M456.3581,-785.6159C415.591,-785.017 394.9406,-780.4078 363,-747.7 321.8554,-705.5672 380.8901,-621.7 322,-621.7"/>
<polygon fill="#000000" stroke="#000000" points="463.0001,-785.654 470.9793,-789.2999 467.0001,-785.677 471,-785.7 471,-785.7 471,-785.7 467.0001,-785.677 471.0207,-782.1001 463.0001,-785.654 463.0001,-785.654"/>
<ellipse fill="none" stroke="#000000" cx="459.8002" cy="-785.6356" rx="3.2" ry="3.2"/>
</g>
<!-- punishment -->
<g id="node5" class="node">
<title>punishment</title>
<g id="a_node5"><a xlink:href="../../tables/punishment.html" xlink:title="punishment" target="_top">
<polygon fill="#ffffff" stroke="transparent" points="459.5,-676.2 459.5,-737.2 578.5,-737.2 578.5,-676.2 459.5,-676.2"/>
<polygon fill="#f5f5f5" stroke="transparent" points="460,-713.7 460,-736.7 579,-736.7 579,-713.7 460,-713.7"/>
<polygon fill="none" stroke="#000000" points="460,-713.7 460,-736.7 579,-736.7 579,-713.7 460,-713.7"/>
<text text-anchor="start" x="465" y="-722.3" font-family="Helvetica,sans-Serif" font-weight="bold" font-size="11.00" fill="#000000">punishment</text>
<text text-anchor="start" x="544.5219" y="-721.8" font-family="Helvetica,sans-Serif" font-size="11.00" fill="#000000">[table]</text>
<polygon fill="none" stroke="#000000" points="460,-694.7 460,-713.7 579,-713.7 579,-694.7 460,-694.7"/>
<text text-anchor="start" x="463" y="-700.8" font-family="Helvetica,sans-Serif" font-size="11.00" fill="#000000">...</text>
<polygon fill="#ffffff" stroke="transparent" points="460,-675.7 460,-694.7 513,-694.7 513,-675.7 460,-675.7"/>
<polygon fill="none" stroke="#000000" points="460,-675.7 460,-694.7 513,-694.7 513,-675.7 460,-675.7"/>
<text text-anchor="start" x="463" y="-681.8" font-family="Helvetica,sans-Serif" font-size="11.00" fill="#000000">&lt; 1</text>
<polygon fill="#ffffff" stroke="transparent" points="513,-675.7 513,-694.7 541,-694.7 541,-675.7 513,-675.7"/>
<polygon fill="none" stroke="#000000" points="513,-675.7 513,-694.7 541,-694.7 541,-675.7 513,-675.7"/>
<text text-anchor="start" x="531.8862" y="-681.8" font-family="Helvetica,sans-Serif" font-size="11.00" fill="#000000"> &#160;</text>
<polygon fill="#ffffff" stroke="transparent" points="541,-675.7 541,-694.7 579,-694.7 579,-675.7 541,-675.7"/>
<polygon fill="none" stroke="#000000" points="541,-675.7 541,-694.7 579,-694.7 579,-675.7 541,-675.7"/>
<text text-anchor="start" x="560.4053" y="-681.8" font-family="Helvetica,sans-Serif" font-size="11.00" fill="#000000">2 &gt;</text>
</a>
</g>
</g>
<!-- punishment&#45;&gt;reported_adjudications -->
<g id="edge4" class="edge">
<title>punishment:w&#45;&gt;reported_adjudications:e</title>
<path fill="none" stroke="#000000" d="M445.4828,-703.2361C410.5556,-700.8076 396.9539,-688.7812 363,-665.7 340.8944,-650.673 348.7296,-621.7 322,-621.7"/>
<polygon fill="#000000" stroke="#000000" points="452.0041,-703.4445 459.885,-707.2982 456.002,-703.5722 460,-703.7 460,-703.7 460,-703.7 456.002,-703.5722 460.115,-700.1018 452.0041,-703.4445 452.0041,-703.4445"/>
<ellipse fill="none" stroke="#000000" cx="448.8057" cy="-703.3422" rx="3.2" ry="3.2"/>
</g>
<!-- punishment_comments -->
<g id="node6" class="node">
<title>punishment_comments</title>
<g id="a_node6"><a xlink:href="../../tables/punishment_comments.html" xlink:title="punishment_comments" target="_top">
<polygon fill="#ffffff" stroke="transparent" points="421.5,-594.2 421.5,-655.2 616.5,-655.2 616.5,-594.2 421.5,-594.2"/>
<polygon fill="#f5f5f5" stroke="transparent" points="422,-631.7 422,-654.7 617,-654.7 617,-631.7 422,-631.7"/>
<polygon fill="none" stroke="#000000" points="422,-631.7 422,-654.7 617,-654.7 617,-631.7 422,-631.7"/>
<text text-anchor="start" x="427" y="-640.3" font-family="Helvetica,sans-Serif" font-weight="bold" font-size="11.00" fill="#000000">punishment_comments</text>
<text text-anchor="start" x="582.5219" y="-639.8" font-family="Helvetica,sans-Serif" font-size="11.00" fill="#000000">[table]</text>
<polygon fill="none" stroke="#000000" points="422,-612.7 422,-631.7 617,-631.7 617,-612.7 422,-612.7"/>
<text text-anchor="start" x="425" y="-618.8" font-family="Helvetica,sans-Serif" font-size="11.00" fill="#000000">...</text>
<polygon fill="#ffffff" stroke="transparent" points="422,-593.7 422,-612.7 518,-612.7 518,-593.7 422,-593.7"/>
<polygon fill="none" stroke="#000000" points="422,-593.7 422,-612.7 518,-612.7 518,-593.7 422,-593.7"/>
<text text-anchor="start" x="425" y="-599.8" font-family="Helvetica,sans-Serif" font-size="11.00" fill="#000000">&lt; 1</text>
<polygon fill="#ffffff" stroke="transparent" points="518,-593.7 518,-612.7 567,-612.7 567,-593.7 518,-593.7"/>
<polygon fill="none" stroke="#000000" points="518,-593.7 518,-612.7 567,-612.7 567,-593.7 518,-593.7"/>
<text text-anchor="start" x="557.8862" y="-599.8" font-family="Helvetica,sans-Serif" font-size="11.00" fill="#000000"> &#160;</text>
<polygon fill="#ffffff" stroke="transparent" points="567,-593.7 567,-612.7 617,-612.7 617,-593.7 567,-593.7"/>
<polygon fill="none" stroke="#000000" points="567,-593.7 567,-612.7 617,-612.7 617,-593.7 567,-593.7"/>
<text text-anchor="start" x="607.8862" y="-599.8" font-family="Helvetica,sans-Serif" font-size="11.00" fill="#000000"> &#160;</text>
</a>
</g>
</g>
<!-- punishment_comments&#45;&gt;reported_adjudications -->
<g id="edge5" class="edge">
<title>punishment_comments:w&#45;&gt;reported_adjudications:e</title>
<path fill="none" stroke="#000000" d="M407.2022,-621.7C374.3758,-621.7 361.0625,-621.7 322,-621.7"/>
<polygon fill="#000000" stroke="#000000" points="414,-621.7001 422,-625.3 418,-621.7 422,-621.7 422,-621.7 422,-621.7 418,-621.7 422,-618.1 414,-621.7001 414,-621.7001"/>
<ellipse fill="none" stroke="#000000" cx="410.8" cy="-621.7001" rx="3.2" ry="3.2"/>
</g>
<!-- reported_damages -->
<g id="node7" class="node">
<title>reported_damages</title>
<g id="a_node7"><a xlink:href="../../tables/reported_damages.html" xlink:title="reported_damages" target="_top">
<polygon fill="#ffffff" stroke="transparent" points="436.5,-512.2 436.5,-573.2 601.5,-573.2 601.5,-512.2 436.5,-512.2"/>
<polygon fill="#f5f5f5" stroke="transparent" points="437,-549.7 437,-572.7 602,-572.7 602,-549.7 437,-549.7"/>
<polygon fill="none" stroke="#000000" points="437,-549.7 437,-572.7 602,-572.7 602,-549.7 437,-549.7"/>
<text text-anchor="start" x="442" y="-558.3" font-family="Helvetica,sans-Serif" font-weight="bold" font-size="11.00" fill="#000000">reported_damages</text>
<text text-anchor="start" x="567.5219" y="-557.8" font-family="Helvetica,sans-Serif" font-size="11.00" fill="#000000">[table]</text>
<polygon fill="none" stroke="#000000" points="437,-530.7 437,-549.7 602,-549.7 602,-530.7 437,-530.7"/>
<text text-anchor="start" x="440" y="-536.8" font-family="Helvetica,sans-Serif" font-size="11.00" fill="#000000">...</text>
<polygon fill="#ffffff" stroke="transparent" points="437,-511.7 437,-530.7 518,-530.7 518,-511.7 437,-511.7"/>
<polygon fill="none" stroke="#000000" points="437,-511.7 437,-530.7 518,-530.7 518,-511.7 437,-511.7"/>
<text text-anchor="start" x="440" y="-517.8" font-family="Helvetica,sans-Serif" font-size="11.00" fill="#000000">&lt; 1</text>
<polygon fill="#ffffff" stroke="transparent" points="518,-511.7 518,-530.7 560,-530.7 560,-511.7 518,-511.7"/>
<polygon fill="none" stroke="#000000" points="518,-511.7 518,-530.7 560,-530.7 560,-511.7 518,-511.7"/>
<text text-anchor="start" x="550.8862" y="-517.8" font-family="Helvetica,sans-Serif" font-size="11.00" fill="#000000"> &#160;</text>
<polygon fill="#ffffff" stroke="transparent" points="560,-511.7 560,-530.7 602,-530.7 602,-511.7 560,-511.7"/>
<polygon fill="none" stroke="#000000" points="560,-511.7 560,-530.7 602,-530.7 602,-511.7 560,-511.7"/>
<text text-anchor="start" x="592.8862" y="-517.8" font-family="Helvetica,sans-Serif" font-size="11.00" fill="#000000"> &#160;</text>
</a>
</g>
</g>
<!-- reported_damages&#45;&gt;reported_adjudications -->
<g id="edge6" class="edge">
<title>reported_damages:w&#45;&gt;reported_adjudications:e</title>
<path fill="none" stroke="#000000" d="M422.3108,-540.9635C396.7313,-545.8343 389.2173,-564.101 363,-583.7 343.1006,-598.576 346.8452,-621.7 322,-621.7"/>
<polygon fill="#000000" stroke="#000000" points="429.0294,-540.3856 437.3085,-543.2868 433.0147,-540.0428 437,-539.7 437,-539.7 437,-539.7 433.0147,-540.0428 436.6915,-536.1132 429.0294,-540.3856 429.0294,-540.3856"/>
<ellipse fill="none" stroke="#000000" cx="425.8412" cy="-540.6599" rx="3.2" ry="3.2"/>
</g>
<!-- reported_evidence -->
<g id="node8" class="node">
<title>reported_evidence</title>
<g id="a_node8"><a xlink:href="../../tables/reported_evidence.html" xlink:title="reported_evidence" target="_top">
<polygon fill="#ffffff" stroke="transparent" points="371,-202.7 371,-490.7 667,-490.7 667,-202.7 371,-202.7"/>
<polygon fill="#f5f5f5" stroke="transparent" points="373,-465.7 373,-488.7 665,-488.7 665,-465.7 373,-465.7"/>
<polygon fill="none" stroke="#000000" points="373,-465.7 373,-488.7 665,-488.7 665,-465.7 373,-465.7"/>
<text text-anchor="start" x="378" y="-474.3" font-family="Helvetica,sans-Serif" font-weight="bold" font-size="11.00" fill="#000000">reported_evidence</text>
<text text-anchor="start" x="630.0437" y="-473.8" font-family="Helvetica,sans-Serif" font-size="11.00" fill="#000000">[table]</text>
<polygon fill="none" stroke="#000000" points="373,-443.7 373,-465.7 581,-465.7 581,-443.7 373,-443.7"/>
<image xlink:href="../../images/primaryKeys.png" width="11px" height="12px" preserveAspectRatio="xMinYMin meet" x="378" y="-460.7"/>
<text text-anchor="start" x="393" y="-450.8" font-family="Helvetica,sans-Serif" font-size="11.00" fill="#000000">id</text>
<polygon fill="none" stroke="#000000" points="581,-443.7 581,-465.7 665,-465.7 665,-443.7 581,-443.7"/>
<text text-anchor="start" x="584" y="-451.4" font-family="Helvetica,sans-Serif" font-size="11.00" fill="#000000">serial[10]</text>
<polygon fill="#ffffff" stroke="transparent" points="373,-421.7 373,-443.7 581,-443.7 581,-421.7 373,-421.7"/>
<polygon fill="none" stroke="#000000" points="373,-421.7 373,-443.7 581,-443.7 581,-421.7 373,-421.7"/>
<image xlink:href="../../images/foreignKeys.png" width="11px" height="12px" preserveAspectRatio="xMinYMin meet" x="378" y="-438.7"/>
<text text-anchor="start" x="393" y="-428.8" font-family="Helvetica,sans-Serif" font-size="11.00" fill="#000000">reported_adjudication_fk_id</text>
<polygon fill="none" stroke="#000000" points="581,-421.7 581,-443.7 665,-443.7 665,-421.7 581,-421.7"/>
<text text-anchor="start" x="584" y="-429.4" font-family="Helvetica,sans-Serif" font-size="11.00" fill="#000000">int8[19]</text>
<polygon fill="none" stroke="#000000" points="373,-399.7 373,-421.7 581,-421.7 581,-399.7 373,-399.7"/>
<text text-anchor="start" x="393" y="-406.8" font-family="Helvetica,sans-Serif" font-size="11.00" fill="#000000">code</text>
<polygon fill="none" stroke="#000000" points="581,-399.7 581,-421.7 665,-421.7 665,-399.7 581,-399.7"/>
<text text-anchor="start" x="584" y="-407.4" font-family="Helvetica,sans-Serif" font-size="11.00" fill="#000000">varchar[32]</text>
<polygon fill="none" stroke="#000000" points="373,-377.7 373,-399.7 581,-399.7 581,-377.7 373,-377.7"/>
<text text-anchor="start" x="393" y="-384.8" font-family="Helvetica,sans-Serif" font-size="11.00" fill="#000000">identifier</text>
<polygon fill="none" stroke="#000000" points="581,-377.7 581,-399.7 665,-399.7 665,-377.7 581,-377.7"/>
<text text-anchor="start" x="584" y="-385.4" font-family="Helvetica,sans-Serif" font-size="11.00" fill="#000000">varchar[32]</text>
<polygon fill="none" stroke="#000000" points="373,-355.7 373,-377.7 581,-377.7 581,-355.7 373,-355.7"/>
<text text-anchor="start" x="393" y="-362.8" font-family="Helvetica,sans-Serif" font-size="11.00" fill="#000000">details</text>
<polygon fill="none" stroke="#000000" points="581,-355.7 581,-377.7 665,-377.7 665,-355.7 581,-355.7"/>
<text text-anchor="start" x="584" y="-363.4" font-family="Helvetica,sans-Serif" font-size="11.00" fill="#000000">varchar[4000]</text>
<polygon fill="none" stroke="#000000" points="373,-333.7 373,-355.7 581,-355.7 581,-333.7 373,-333.7"/>
<text text-anchor="start" x="393" y="-340.8" font-family="Helvetica,sans-Serif" font-size="11.00" fill="#000000">reporter</text>
<polygon fill="none" stroke="#000000" points="581,-333.7 581,-355.7 665,-355.7 665,-333.7 581,-333.7"/>
<text text-anchor="start" x="584" y="-341.4" font-family="Helvetica,sans-Serif" font-size="11.00" fill="#000000">varchar[32]</text>
<polygon fill="none" stroke="#000000" points="373,-311.7 373,-333.7 581,-333.7 581,-311.7 373,-311.7"/>
<text text-anchor="start" x="393" y="-318.8" font-family="Helvetica,sans-Serif" font-size="11.00" fill="#000000">create_user_id</text>
<polygon fill="none" stroke="#000000" points="581,-311.7 581,-333.7 665,-333.7 665,-311.7 581,-311.7"/>
<text text-anchor="start" x="584" y="-319.4" font-family="Helvetica,sans-Serif" font-size="11.00" fill="#000000">varchar[32]</text>
<polygon fill="none" stroke="#000000" points="373,-289.7 373,-311.7 581,-311.7 581,-289.7 373,-289.7"/>
<text text-anchor="start" x="393" y="-296.8" font-family="Helvetica,sans-Serif" font-size="11.00" fill="#000000">create_datetime</text>
<polygon fill="none" stroke="#000000" points="581,-289.7 581,-311.7 665,-311.7 665,-289.7 581,-289.7"/>
<text text-anchor="start" x="583.8807" y="-297.4" font-family="Helvetica,sans-Serif" font-size="11.00" fill="#000000">timestamp[29,6]</text>
<polygon fill="none" stroke="#000000" points="373,-267.7 373,-289.7 581,-289.7 581,-267.7 373,-267.7"/>
<text text-anchor="start" x="393" y="-274.8" font-family="Helvetica,sans-Serif" font-size="11.00" fill="#000000">modify_user_id</text>
<polygon fill="none" stroke="#000000" points="581,-267.7 581,-289.7 665,-289.7 665,-267.7 581,-267.7"/>
<text text-anchor="start" x="584" y="-275.4" font-family="Helvetica,sans-Serif" font-size="11.00" fill="#000000">varchar[32]</text>
<polygon fill="none" stroke="#000000" points="373,-245.7 373,-267.7 581,-267.7 581,-245.7 373,-245.7"/>
<text text-anchor="start" x="393" y="-252.8" font-family="Helvetica,sans-Serif" font-size="11.00" fill="#000000">modify_datetime</text>
<polygon fill="none" stroke="#000000" points="581,-245.7 581,-267.7 665,-267.7 665,-245.7 581,-245.7"/>
<text text-anchor="start" x="583.8807" y="-253.4" font-family="Helvetica,sans-Serif" font-size="11.00" fill="#000000">timestamp[29,6]</text>
<polygon fill="none" stroke="#000000" points="373,-223.7 373,-245.7 581,-245.7 581,-223.7 373,-223.7"/>
<text text-anchor="start" x="393" y="-230.8" font-family="Helvetica,sans-Serif" font-size="11.00" fill="#000000">date_added</text>
<polygon fill="none" stroke="#000000" points="581,-223.7 581,-245.7 665,-245.7 665,-223.7 581,-223.7"/>
<text text-anchor="start" x="583.8807" y="-231.4" font-family="Helvetica,sans-Serif" font-size="11.00" fill="#000000">timestamp[29,6]</text>
<polygon fill="#ffffff" stroke="transparent" points="373,-204.7 373,-223.7 481,-223.7 481,-204.7 373,-204.7"/>
<polygon fill="none" stroke="#000000" points="373,-204.7 373,-223.7 481,-223.7 481,-204.7 373,-204.7"/>
<text text-anchor="start" x="376" y="-210.8" font-family="Helvetica,sans-Serif" font-size="11.00" fill="#000000">&lt; 1</text>
<polygon fill="#ffffff" stroke="transparent" points="481,-204.7 481,-223.7 581,-223.7 581,-204.7 481,-204.7"/>
<polygon fill="none" stroke="#000000" points="481,-204.7 481,-223.7 581,-223.7 581,-204.7 481,-204.7"/>
<text text-anchor="start" x="571.8862" y="-210.8" font-family="Helvetica,sans-Serif" font-size="11.00" fill="#000000"> &#160;</text>
<polygon fill="#ffffff" stroke="transparent" points="581,-204.7 581,-223.7 665,-223.7 665,-204.7 581,-204.7"/>
<polygon fill="none" stroke="#000000" points="581,-204.7 581,-223.7 665,-223.7 665,-204.7 581,-204.7"/>
<text text-anchor="start" x="646.4053" y="-210.8" font-family="Helvetica,sans-Serif" font-size="11.00" fill="#000000">0 &gt;</text>
<polygon fill="none" stroke="#000000" stroke-width="2" points="372,-203.7 372,-489.7 666,-489.7 666,-203.7 372,-203.7"/>
</a>
</g>
</g>
<!-- reported_evidence&#45;&gt;reported_adjudications -->
<g id="edge7" class="edge">
<title>reported_evidence:w&#45;&gt;reported_adjudications:e</title>
<path fill="none" stroke="#000000" d="M358.6817,-434.9542C300.9797,-456.2781 403.3968,-621.7 322,-621.7"/>
<polygon fill="#000000" stroke="#000000" points="365.0973,-433.9442 373.5599,-436.2562 369.0487,-433.3221 373,-432.7 373,-432.7 373,-432.7 369.0487,-433.3221 372.4401,-429.1438 365.0973,-433.9442 365.0973,-433.9442"/>
<ellipse fill="none" stroke="#000000" cx="361.9363" cy="-434.4419" rx="3.2" ry="3.2"/>
</g>
<!-- reported_offence -->
<g id="node9" class="node">
<title>reported_offence</title>
<g id="a_node9"><a xlink:href="../../tables/reported_offence.html" xlink:title="reported_offence" target="_top">
<polygon fill="#ffffff" stroke="transparent" points="442,-120.2 442,-181.2 596,-181.2 596,-120.2 442,-120.2"/>
<polygon fill="#f5f5f5" stroke="transparent" points="442,-157.7 442,-180.7 596,-180.7 596,-157.7 442,-157.7"/>
<polygon fill="none" stroke="#000000" points="442,-157.7 442,-180.7 596,-180.7 596,-157.7 442,-157.7"/>
<text text-anchor="start" x="447" y="-166.3" font-family="Helvetica,sans-Serif" font-weight="bold" font-size="11.00" fill="#000000">reported_offence</text>
<text text-anchor="start" x="561.5219" y="-165.8" font-family="Helvetica,sans-Serif" font-size="11.00" fill="#000000">[table]</text>
<polygon fill="none" stroke="#000000" points="442,-138.7 442,-157.7 596,-157.7 596,-138.7 442,-138.7"/>
<text text-anchor="start" x="445" y="-144.8" font-family="Helvetica,sans-Serif" font-size="11.00" fill="#000000">...</text>
<polygon fill="#ffffff" stroke="transparent" points="442,-119.7 442,-138.7 513,-138.7 513,-119.7 442,-119.7"/>
<polygon fill="none" stroke="#000000" points="442,-119.7 442,-138.7 513,-138.7 513,-119.7 442,-119.7"/>
<text text-anchor="start" x="445" y="-125.8" font-family="Helvetica,sans-Serif" font-size="11.00" fill="#000000">&lt; 1</text>
<polygon fill="#ffffff" stroke="transparent" points="513,-119.7 513,-138.7 550,-138.7 550,-119.7 513,-119.7"/>
<polygon fill="none" stroke="#000000" points="513,-119.7 513,-138.7 550,-138.7 550,-119.7 513,-119.7"/>
<text text-anchor="start" x="540.8862" y="-125.8" font-family="Helvetica,sans-Serif" font-size="11.00" fill="#000000"> &#160;</text>
<polygon fill="#ffffff" stroke="transparent" points="550,-119.7 550,-138.7 596,-138.7 596,-119.7 550,-119.7"/>
<polygon fill="none" stroke="#000000" points="550,-119.7 550,-138.7 596,-138.7 596,-119.7 550,-119.7"/>
<text text-anchor="start" x="577.4053" y="-125.8" font-family="Helvetica,sans-Serif" font-size="11.00" fill="#000000">1 &gt;</text>
</a>
</g>
</g>
<!-- reported_offence&#45;&gt;reported_adjudications -->
<g id="edge8" class="edge">
<title>reported_offence:w&#45;&gt;reported_adjudications:e</title>
<path fill="none" stroke="#000000" d="M427.4958,-148.2772C397.2126,-150.9342 382.1173,-163.145 363,-192.7 336.9933,-232.9059 369.8839,-621.7 322,-621.7"/>
<polygon fill="#000000" stroke="#000000" points="434.0063,-148.0181 442.1432,-151.2972 438.0032,-147.8591 442,-147.7 442,-147.7 442,-147.7 438.0032,-147.8591 441.8568,-144.1028 434.0063,-148.0181 434.0063,-148.0181"/>
<ellipse fill="none" stroke="#000000" cx="430.8089" cy="-148.1454" rx="3.2" ry="3.2"/>
</g>
<!-- reported_witness -->
<g id="node10" class="node">
<title>reported_witness</title>
<g id="a_node10"><a xlink:href="../../tables/reported_witness.html" xlink:title="reported_witness" target="_top">
<polygon fill="#ffffff" stroke="transparent" points="441,-38.2 441,-99.2 597,-99.2 597,-38.2 441,-38.2"/>
<polygon fill="#f5f5f5" stroke="transparent" points="441,-75.7 441,-98.7 597,-98.7 597,-75.7 441,-75.7"/>
<polygon fill="none" stroke="#000000" points="441,-75.7 441,-98.7 597,-98.7 597,-75.7 441,-75.7"/>
<text text-anchor="start" x="446" y="-84.3" font-family="Helvetica,sans-Serif" font-weight="bold" font-size="11.00" fill="#000000">reported_witness</text>
<text text-anchor="start" x="562.5219" y="-83.8" font-family="Helvetica,sans-Serif" font-size="11.00" fill="#000000">[table]</text>
<polygon fill="none" stroke="#000000" points="441,-56.7 441,-75.7 597,-75.7 597,-56.7 441,-56.7"/>
<text text-anchor="start" x="444" y="-62.8" font-family="Helvetica,sans-Serif" font-size="11.00" fill="#000000">...</text>
<polygon fill="#ffffff" stroke="transparent" points="441,-37.7 441,-56.7 517,-56.7 517,-37.7 441,-37.7"/>
<polygon fill="none" stroke="#000000" points="441,-37.7 441,-56.7 517,-56.7 517,-37.7 441,-37.7"/>
<text text-anchor="start" x="444" y="-43.8" font-family="Helvetica,sans-Serif" font-size="11.00" fill="#000000">&lt; 1</text>
<polygon fill="#ffffff" stroke="transparent" points="517,-37.7 517,-56.7 557,-56.7 557,-37.7 517,-37.7"/>
<polygon fill="none" stroke="#000000" points="517,-37.7 517,-56.7 557,-56.7 557,-37.7 517,-37.7"/>
<text text-anchor="start" x="547.8862" y="-43.8" font-family="Helvetica,sans-Serif" font-size="11.00" fill="#000000"> &#160;</text>
<polygon fill="#ffffff" stroke="transparent" points="557,-37.7 557,-56.7 597,-56.7 597,-37.7 557,-37.7"/>
<polygon fill="none" stroke="#000000" points="557,-37.7 557,-56.7 597,-56.7 597,-37.7 557,-37.7"/>
<text text-anchor="start" x="587.8862" y="-43.8" font-family="Helvetica,sans-Serif" font-size="11.00" fill="#000000"> &#160;</text>
</a>
</g>
</g>
<!-- reported_witness&#45;&gt;reported_adjudications -->
<g id="edge9" class="edge">
<title>reported_witness:w&#45;&gt;reported_adjudications:e</title>
<path fill="none" stroke="#000000" d="M426.2954,-66.2831C396.6617,-68.8854 381.5836,-80.6141 363,-109.7 332.2724,-157.7928 379.071,-621.7 322,-621.7"/>
<polygon fill="#000000" stroke="#000000" points="433.0063,-66.017 441.1427,-69.2972 437.0031,-65.8585 441,-65.7 441,-65.7 441,-65.7 437.0031,-65.8585 440.8573,-62.1028 433.0063,-66.017 433.0063,-66.017"/>
<ellipse fill="none" stroke="#000000" cx="429.8088" cy="-66.1438" rx="3.2" ry="3.2"/>
</g>
</g>
</svg>
