<?xml version="1.0" encoding="UTF-8" standalone="no"?>
<!DOCTYPE svg PUBLIC "-//W3C//DTD SVG 1.1//EN"
 "http://www.w3.org/Graphics/SVG/1.1/DTD/svg11.dtd">
<!-- Generated by graphviz version 2.40.1 (20161225.0304)
 -->
<!-- Title: twoDegreesRelationshipsDiagram Pages: 1 -->
<svg width="683pt" height="1039pt"
 viewBox="0.00 0.00 683.00 1038.70" xmlns="http://www.w3.org/2000/svg" xmlns:xlink="http://www.w3.org/1999/xlink">
<g id="graph0" class="graph" transform="scale(1 1) rotate(0) translate(4 1034.7)">
<title>twoDegreesRelationshipsDiagram</title>
<polygon fill="#ffffff" stroke="transparent" points="-4,4 -4,-1034.7 679,-1034.7 679,4 -4,4"/>
<text text-anchor="middle" x="72.4936" y="-7.3" font-family="Helvetica,sans-Serif" font-size="11.00" fill="#000000">Generated by SchemaSpy</text>
<!-- dis_issue_history -->
<g id="node1" class="node">
<title>dis_issue_history</title>
<g id="a_node1"><a xlink:href="../../tables/dis_issue_history.html" xlink:title="dis_issue_history" target="_top">
<polygon fill="#ffffff" stroke="transparent" points="442.5,-965.7 442.5,-1026.7 595.5,-1026.7 595.5,-965.7 442.5,-965.7"/>
<polygon fill="#f5f5f5" stroke="transparent" points="443,-1003.2 443,-1026.2 596,-1026.2 596,-1003.2 443,-1003.2"/>
<polygon fill="none" stroke="#000000" points="443,-1003.2 443,-1026.2 596,-1026.2 596,-1003.2 443,-1003.2"/>
<text text-anchor="start" x="448" y="-1011.8" font-family="Helvetica,sans-Serif" font-weight="bold" font-size="11.00" fill="#000000">dis_issue_history</text>
<text text-anchor="start" x="561.5219" y="-1011.3" font-family="Helvetica,sans-Serif" font-size="11.00" fill="#000000">[table]</text>
<polygon fill="none" stroke="#000000" points="443,-984.2 443,-1003.2 596,-1003.2 596,-984.2 443,-984.2"/>
<text text-anchor="start" x="446" y="-990.3" font-family="Helvetica,sans-Serif" font-size="11.00" fill="#000000">...</text>
<polygon fill="#ffffff" stroke="transparent" points="443,-965.2 443,-984.2 518,-984.2 518,-965.2 443,-965.2"/>
<polygon fill="none" stroke="#000000" points="443,-965.2 443,-984.2 518,-984.2 518,-965.2 443,-965.2"/>
<text text-anchor="start" x="446" y="-971.3" font-family="Helvetica,sans-Serif" font-size="11.00" fill="#000000">&lt; 1</text>
<polygon fill="#ffffff" stroke="transparent" points="518,-965.2 518,-984.2 557,-984.2 557,-965.2 518,-965.2"/>
<polygon fill="none" stroke="#000000" points="518,-965.2 518,-984.2 557,-984.2 557,-965.2 518,-965.2"/>
<text text-anchor="start" x="547.8862" y="-971.3" font-family="Helvetica,sans-Serif" font-size="11.00" fill="#000000"> &#160;</text>
<polygon fill="#ffffff" stroke="transparent" points="557,-965.2 557,-984.2 596,-984.2 596,-965.2 557,-965.2"/>
<polygon fill="none" stroke="#000000" points="557,-965.2 557,-984.2 596,-984.2 596,-965.2 557,-965.2"/>
<text text-anchor="start" x="586.8862" y="-971.3" font-family="Helvetica,sans-Serif" font-size="11.00" fill="#000000"> &#160;</text>
</a>
</g>
</g>
<!-- reported_adjudications -->
<g id="node2" class="node">
<title>reported_adjudications</title>
<g id="a_node2"><a xlink:href="../../tables/reported_adjudications.html" xlink:title="reported_adjudications" target="_top">
<polygon fill="#ffffff" stroke="transparent" points="8,-374.7 8,-699.7 322,-699.7 322,-374.7 8,-374.7"/>
<polygon fill="#f5f5f5" stroke="transparent" points="8,-676.2 8,-699.2 322,-699.2 322,-676.2 8,-676.2"/>
<polygon fill="none" stroke="#000000" points="8,-676.2 8,-699.2 322,-699.2 322,-676.2 8,-676.2"/>
<text text-anchor="start" x="13" y="-684.8" font-family="Helvetica,sans-Serif" font-weight="bold" font-size="11.00" fill="#000000">reported_adjudications</text>
<text text-anchor="start" x="287.0437" y="-684.3" font-family="Helvetica,sans-Serif" font-size="11.00" fill="#000000">[table]</text>
<polygon fill="none" stroke="#000000" points="8,-654.2 8,-676.2 322,-676.2 322,-654.2 8,-654.2"/>
<image xlink:href="../../images/primaryKeys.png" width="11px" height="12px" preserveAspectRatio="xMinYMin meet" x="13" y="-671.2"/>
<text text-anchor="start" x="28" y="-661.3" font-family="Helvetica,sans-Serif" font-size="11.00" fill="#000000">id</text>
<polygon fill="#ffffff" stroke="transparent" points="8,-632.2 8,-654.2 322,-654.2 322,-632.2 8,-632.2"/>
<polygon fill="none" stroke="#000000" points="8,-632.2 8,-654.2 322,-654.2 322,-632.2 8,-632.2"/>
<text text-anchor="start" x="28" y="-639.3" font-family="Helvetica,sans-Serif" font-size="11.00" fill="#000000">prisoner_number</text>
<polygon fill="#ffffff" stroke="transparent" points="8,-610.2 8,-632.2 322,-632.2 322,-610.2 8,-610.2"/>
<polygon fill="none" stroke="#000000" points="8,-610.2 8,-632.2 322,-632.2 322,-610.2 8,-610.2"/>
<text text-anchor="start" x="28" y="-617.3" font-family="Helvetica,sans-Serif" font-size="11.00" fill="#000000">charge_number</text>
<polygon fill="#ffffff" stroke="transparent" points="8,-588.2 8,-610.2 322,-610.2 322,-588.2 8,-588.2"/>
<polygon fill="none" stroke="#000000" points="8,-588.2 8,-610.2 322,-610.2 322,-588.2 8,-588.2"/>
<text text-anchor="start" x="28" y="-595.3" font-family="Helvetica,sans-Serif" font-size="11.00" fill="#000000">originating_agency_id</text>
<polygon fill="#ffffff" stroke="transparent" points="8,-566.2 8,-588.2 322,-588.2 322,-566.2 8,-566.2"/>
<polygon fill="none" stroke="#000000" points="8,-566.2 8,-588.2 322,-588.2 322,-566.2 8,-566.2"/>
<text text-anchor="start" x="28" y="-573.3" font-family="Helvetica,sans-Serif" font-size="11.00" fill="#000000">create_user_id</text>
<polygon fill="#ffffff" stroke="transparent" points="8,-544.2 8,-566.2 322,-566.2 322,-544.2 8,-544.2"/>
<polygon fill="none" stroke="#000000" points="8,-544.2 8,-566.2 322,-566.2 322,-544.2 8,-544.2"/>
<text text-anchor="start" x="28" y="-551.3" font-family="Helvetica,sans-Serif" font-size="11.00" fill="#000000">incident_role_associated_prisoners_number</text>
<polygon fill="#ffffff" stroke="transparent" points="8,-522.2 8,-544.2 322,-544.2 322,-522.2 8,-522.2"/>
<polygon fill="none" stroke="#000000" points="8,-522.2 8,-544.2 322,-544.2 322,-522.2 8,-522.2"/>
<text text-anchor="start" x="28" y="-529.3" font-family="Helvetica,sans-Serif" font-size="11.00" fill="#000000">status</text>
<polygon fill="#ffffff" stroke="transparent" points="8,-500.2 8,-522.2 322,-522.2 322,-500.2 8,-500.2"/>
<polygon fill="none" stroke="#000000" points="8,-500.2 8,-522.2 322,-522.2 322,-500.2 8,-500.2"/>
<text text-anchor="start" x="28" y="-507.3" font-family="Helvetica,sans-Serif" font-size="11.00" fill="#000000">date_time_of_discovery</text>
<polygon fill="#ffffff" stroke="transparent" points="8,-478.2 8,-500.2 322,-500.2 322,-478.2 8,-478.2"/>
<polygon fill="none" stroke="#000000" points="8,-478.2 8,-500.2 322,-500.2 322,-478.2 8,-478.2"/>
<text text-anchor="start" x="28" y="-485.3" font-family="Helvetica,sans-Serif" font-size="11.00" fill="#000000">date_time_of_first_hearing</text>
<polygon fill="#ffffff" stroke="transparent" points="8,-456.2 8,-478.2 322,-478.2 322,-456.2 8,-456.2"/>
<polygon fill="none" stroke="#000000" points="8,-456.2 8,-478.2 322,-478.2 322,-456.2 8,-456.2"/>
<text text-anchor="start" x="28" y="-463.3" font-family="Helvetica,sans-Serif" font-size="11.00" fill="#000000">override_agency_id</text>
<polygon fill="#ffffff" stroke="transparent" points="8,-434.2 8,-456.2 322,-456.2 322,-434.2 8,-434.2"/>
<polygon fill="none" stroke="#000000" points="8,-434.2 8,-456.2 322,-456.2 322,-434.2 8,-434.2"/>
<text text-anchor="start" x="28" y="-441.3" font-family="Helvetica,sans-Serif" font-size="11.00" fill="#000000">migrated</text>
<polygon fill="#ffffff" stroke="transparent" points="8,-412.2 8,-434.2 322,-434.2 322,-412.2 8,-412.2"/>
<polygon fill="none" stroke="#000000" points="8,-412.2 8,-434.2 322,-434.2 322,-412.2 8,-412.2"/>
<text text-anchor="start" x="28" y="-419.3" font-family="Helvetica,sans-Serif" font-size="11.00" fill="#000000">offender_booking_id</text>
<polygon fill="none" stroke="#000000" points="8,-393.2 8,-412.2 322,-412.2 322,-393.2 8,-393.2"/>
<text text-anchor="start" x="11" y="-399.3" font-family="Helvetica,sans-Serif" font-size="11.00" fill="#000000">...</text>
<polygon fill="#ffffff" stroke="transparent" points="8,-374.2 8,-393.2 154,-393.2 154,-374.2 8,-374.2"/>
<polygon fill="none" stroke="#000000" points="8,-374.2 8,-393.2 154,-393.2 154,-374.2 8,-374.2"/>
<text text-anchor="start" x="11" y="-380.3" font-family="Helvetica,sans-Serif" font-size="11.00" fill="#000000"> &#160;</text>
<polygon fill="#ffffff" stroke="transparent" points="154,-374.2 154,-393.2 233,-393.2 233,-374.2 154,-374.2"/>
<polygon fill="none" stroke="#000000" points="154,-374.2 154,-393.2 233,-393.2 233,-374.2 154,-374.2"/>
<text text-anchor="start" x="223.8862" y="-380.3" font-family="Helvetica,sans-Serif" font-size="11.00" fill="#000000"> &#160;</text>
<polygon fill="#ffffff" stroke="transparent" points="233,-374.2 233,-393.2 322,-393.2 322,-374.2 233,-374.2"/>
<polygon fill="none" stroke="#000000" points="233,-374.2 233,-393.2 322,-393.2 322,-374.2 233,-374.2"/>
<text text-anchor="start" x="303.4053" y="-380.3" font-family="Helvetica,sans-Serif" font-size="11.00" fill="#000000">9 &gt;</text>
</a>
</g>
</g>
<!-- dis_issue_history&#45;&gt;reported_adjudications -->
<g id="edge1" class="edge">
<title>dis_issue_history:w&#45;&gt;reported_adjudications:e</title>
<path fill="none" stroke="#000000" d="M428.417,-992.8226C398.9301,-991.0821 383.2178,-982.7034 363,-955.2 324.4506,-902.7591 387.0853,-665.2 322,-665.2"/>
<polygon fill="#000000" stroke="#000000" points="435.0027,-992.993 442.9068,-996.7988 439.0013,-993.0965 443,-993.2 443,-993.2 443,-993.2 439.0013,-993.0965 443.0932,-989.6012 435.0027,-992.993 435.0027,-992.993"/>
<ellipse fill="none" stroke="#000000" cx="431.8037" cy="-992.9102" rx="3.2" ry="3.2"/>
</g>
<!-- hearing -->
<g id="node3" class="node">
<title>hearing</title>
<g id="a_node3"><a xlink:href="../../tables/hearing.html" xlink:title="hearing" target="_top">
<polygon fill="#ffffff" stroke="transparent" points="474,-883.7 474,-944.7 564,-944.7 564,-883.7 474,-883.7"/>
<polygon fill="#f5f5f5" stroke="transparent" points="474,-921.2 474,-944.2 564,-944.2 564,-921.2 474,-921.2"/>
<polygon fill="none" stroke="#000000" points="474,-921.2 474,-944.2 564,-944.2 564,-921.2 474,-921.2"/>
<text text-anchor="start" x="479" y="-929.8" font-family="Helvetica,sans-Serif" font-weight="bold" font-size="11.00" fill="#000000">hearing</text>
<text text-anchor="start" x="529.5219" y="-929.3" font-family="Helvetica,sans-Serif" font-size="11.00" fill="#000000">[table]</text>
<polygon fill="none" stroke="#000000" points="474,-902.2 474,-921.2 564,-921.2 564,-902.2 474,-902.2"/>
<text text-anchor="start" x="477" y="-908.3" font-family="Helvetica,sans-Serif" font-size="11.00" fill="#000000">...</text>
<polygon fill="#ffffff" stroke="transparent" points="474,-883.2 474,-902.2 517,-902.2 517,-883.2 474,-883.2"/>
<polygon fill="none" stroke="#000000" points="474,-883.2 474,-902.2 517,-902.2 517,-883.2 474,-883.2"/>
<text text-anchor="start" x="477" y="-889.3" font-family="Helvetica,sans-Serif" font-size="11.00" fill="#000000">&lt; 2</text>
<polygon fill="#ffffff" stroke="transparent" points="517,-883.2 517,-902.2 540,-902.2 540,-883.2 517,-883.2"/>
<polygon fill="none" stroke="#000000" points="517,-883.2 517,-902.2 540,-902.2 540,-883.2 517,-883.2"/>
<text text-anchor="start" x="530.8862" y="-889.3" font-family="Helvetica,sans-Serif" font-size="11.00" fill="#000000"> &#160;</text>
<polygon fill="#ffffff" stroke="transparent" points="540,-883.2 540,-902.2 564,-902.2 564,-883.2 540,-883.2"/>
<polygon fill="none" stroke="#000000" points="540,-883.2 540,-902.2 564,-902.2 564,-883.2 540,-883.2"/>
<text text-anchor="start" x="554.8862" y="-889.3" font-family="Helvetica,sans-Serif" font-size="11.00" fill="#000000"> &#160;</text>
</a>
</g>
</g>
<!-- hearing&#45;&gt;reported_adjudications -->
<g id="edge2" class="edge">
<title>hearing:w&#45;&gt;reported_adjudications:e</title>
<path fill="none" stroke="#000000" d="M459.4778,-911.1976C416.9662,-911.0629 393.9471,-908.6424 363,-873.2 301.0273,-802.2253 416.2233,-665.2 322,-665.2"/>
<polygon fill="#000000" stroke="#000000" points="466,-911.1986 473.9994,-914.8 470,-911.1993 474,-911.2 474,-911.2 474,-911.2 470,-911.1993 474.0006,-907.6 466,-911.1986 466,-911.1986"/>
<ellipse fill="none" stroke="#000000" cx="462.8" cy="-911.1981" rx="3.2" ry="3.2"/>
</g>
<!-- outcome -->
<g id="node4" class="node">
<title>outcome</title>
<g id="a_node4"><a xlink:href="../../tables/outcome.html" xlink:title="outcome" target="_top">
<polygon fill="#ffffff" stroke="transparent" points="470.5,-801.7 470.5,-862.7 567.5,-862.7 567.5,-801.7 470.5,-801.7"/>
<polygon fill="#f5f5f5" stroke="transparent" points="471,-839.2 471,-862.2 568,-862.2 568,-839.2 471,-839.2"/>
<polygon fill="none" stroke="#000000" points="471,-839.2 471,-862.2 568,-862.2 568,-839.2 471,-839.2"/>
<text text-anchor="start" x="476" y="-847.8" font-family="Helvetica,sans-Serif" font-weight="bold" font-size="11.00" fill="#000000">outcome</text>
<text text-anchor="start" x="533.5219" y="-847.3" font-family="Helvetica,sans-Serif" font-size="11.00" fill="#000000">[table]</text>
<polygon fill="none" stroke="#000000" points="471,-820.2 471,-839.2 568,-839.2 568,-820.2 471,-820.2"/>
<text text-anchor="start" x="474" y="-826.3" font-family="Helvetica,sans-Serif" font-size="11.00" fill="#000000">...</text>
<polygon fill="#ffffff" stroke="transparent" points="471,-801.2 471,-820.2 518,-820.2 518,-801.2 471,-801.2"/>
<polygon fill="none" stroke="#000000" points="471,-801.2 471,-820.2 518,-820.2 518,-801.2 471,-801.2"/>
<text text-anchor="start" x="474" y="-807.3" font-family="Helvetica,sans-Serif" font-size="11.00" fill="#000000">&lt; 1</text>
<polygon fill="#ffffff" stroke="transparent" points="518,-801.2 518,-820.2 543,-820.2 543,-801.2 518,-801.2"/>
<polygon fill="none" stroke="#000000" points="518,-801.2 518,-820.2 543,-820.2 543,-801.2 518,-801.2"/>
<text text-anchor="start" x="533.8862" y="-807.3" font-family="Helvetica,sans-Serif" font-size="11.00" fill="#000000"> &#160;</text>
<polygon fill="#ffffff" stroke="transparent" points="543,-801.2 543,-820.2 568,-820.2 568,-801.2 543,-801.2"/>
<polygon fill="none" stroke="#000000" points="543,-801.2 543,-820.2 568,-820.2 568,-801.2 543,-801.2"/>
<text text-anchor="start" x="558.8862" y="-807.3" font-family="Helvetica,sans-Serif" font-size="11.00" fill="#000000"> &#160;</text>
</a>
</g>
</g>
<!-- outcome&#45;&gt;reported_adjudications -->
<g id="edge3" class="edge">
<title>outcome:w&#45;&gt;reported_adjudications:e</title>
<path fill="none" stroke="#000000" d="M456.3581,-829.1159C415.591,-828.517 394.9406,-823.9078 363,-791.2 321.8554,-749.0672 380.8901,-665.2 322,-665.2"/>
<polygon fill="#000000" stroke="#000000" points="463.0001,-829.154 470.9793,-832.7999 467.0001,-829.177 471,-829.2 471,-829.2 471,-829.2 467.0001,-829.177 471.0207,-825.6001 463.0001,-829.154 463.0001,-829.154"/>
<ellipse fill="none" stroke="#000000" cx="459.8002" cy="-829.1356" rx="3.2" ry="3.2"/>
</g>
<!-- punishment -->
<g id="node5" class="node">
<title>punishment</title>
<g id="a_node5"><a xlink:href="../../tables/punishment.html" xlink:title="punishment" target="_top">
<polygon fill="#ffffff" stroke="transparent" points="459.5,-719.7 459.5,-780.7 578.5,-780.7 578.5,-719.7 459.5,-719.7"/>
<polygon fill="#f5f5f5" stroke="transparent" points="460,-757.2 460,-780.2 579,-780.2 579,-757.2 460,-757.2"/>
<polygon fill="none" stroke="#000000" points="460,-757.2 460,-780.2 579,-780.2 579,-757.2 460,-757.2"/>
<text text-anchor="start" x="465" y="-765.8" font-family="Helvetica,sans-Serif" font-weight="bold" font-size="11.00" fill="#000000">punishment</text>
<text text-anchor="start" x="544.5219" y="-765.3" font-family="Helvetica,sans-Serif" font-size="11.00" fill="#000000">[table]</text>
<polygon fill="none" stroke="#000000" points="460,-738.2 460,-757.2 579,-757.2 579,-738.2 460,-738.2"/>
<text text-anchor="start" x="463" y="-744.3" font-family="Helvetica,sans-Serif" font-size="11.00" fill="#000000">...</text>
<polygon fill="#ffffff" stroke="transparent" points="460,-719.2 460,-738.2 513,-738.2 513,-719.2 460,-719.2"/>
<polygon fill="none" stroke="#000000" points="460,-719.2 460,-738.2 513,-738.2 513,-719.2 460,-719.2"/>
<text text-anchor="start" x="463" y="-725.3" font-family="Helvetica,sans-Serif" font-size="11.00" fill="#000000">&lt; 1</text>
<polygon fill="#ffffff" stroke="transparent" points="513,-719.2 513,-738.2 541,-738.2 541,-719.2 513,-719.2"/>
<polygon fill="none" stroke="#000000" points="513,-719.2 513,-738.2 541,-738.2 541,-719.2 513,-719.2"/>
<text text-anchor="start" x="531.8862" y="-725.3" font-family="Helvetica,sans-Serif" font-size="11.00" fill="#000000"> &#160;</text>
<polygon fill="#ffffff" stroke="transparent" points="541,-719.2 541,-738.2 579,-738.2 579,-719.2 541,-719.2"/>
<polygon fill="none" stroke="#000000" points="541,-719.2 541,-738.2 579,-738.2 579,-719.2 541,-719.2"/>
<text text-anchor="start" x="560.4053" y="-725.3" font-family="Helvetica,sans-Serif" font-size="11.00" fill="#000000">2 &gt;</text>
</a>
</g>
</g>
<!-- punishment&#45;&gt;reported_adjudications -->
<g id="edge4" class="edge">
<title>punishment:w&#45;&gt;reported_adjudications:e</title>
<path fill="none" stroke="#000000" d="M445.4828,-746.7361C410.5556,-744.3076 396.9539,-732.2812 363,-709.2 340.8944,-694.173 348.7296,-665.2 322,-665.2"/>
<polygon fill="#000000" stroke="#000000" points="452.0041,-746.9445 459.885,-750.7982 456.002,-747.0722 460,-747.2 460,-747.2 460,-747.2 456.002,-747.0722 460.115,-743.6018 452.0041,-746.9445 452.0041,-746.9445"/>
<ellipse fill="none" stroke="#000000" cx="448.8057" cy="-746.8422" rx="3.2" ry="3.2"/>
</g>
<!-- punishment_comments -->
<g id="node6" class="node">
<title>punishment_comments</title>
<g id="a_node6"><a xlink:href="../../tables/punishment_comments.html" xlink:title="punishment_comments" target="_top">
<polygon fill="#ffffff" stroke="transparent" points="421.5,-637.7 421.5,-698.7 616.5,-698.7 616.5,-637.7 421.5,-637.7"/>
<polygon fill="#f5f5f5" stroke="transparent" points="422,-675.2 422,-698.2 617,-698.2 617,-675.2 422,-675.2"/>
<polygon fill="none" stroke="#000000" points="422,-675.2 422,-698.2 617,-698.2 617,-675.2 422,-675.2"/>
<text text-anchor="start" x="427" y="-683.8" font-family="Helvetica,sans-Serif" font-weight="bold" font-size="11.00" fill="#000000">punishment_comments</text>
<text text-anchor="start" x="582.5219" y="-683.3" font-family="Helvetica,sans-Serif" font-size="11.00" fill="#000000">[table]</text>
<polygon fill="none" stroke="#000000" points="422,-656.2 422,-675.2 617,-675.2 617,-656.2 422,-656.2"/>
<text text-anchor="start" x="425" y="-662.3" font-family="Helvetica,sans-Serif" font-size="11.00" fill="#000000">...</text>
<polygon fill="#ffffff" stroke="transparent" points="422,-637.2 422,-656.2 518,-656.2 518,-637.2 422,-637.2"/>
<polygon fill="none" stroke="#000000" points="422,-637.2 422,-656.2 518,-656.2 518,-637.2 422,-637.2"/>
<text text-anchor="start" x="425" y="-643.3" font-family="Helvetica,sans-Serif" font-size="11.00" fill="#000000">&lt; 1</text>
<polygon fill="#ffffff" stroke="transparent" points="518,-637.2 518,-656.2 567,-656.2 567,-637.2 518,-637.2"/>
<polygon fill="none" stroke="#000000" points="518,-637.2 518,-656.2 567,-656.2 567,-637.2 518,-637.2"/>
<text text-anchor="start" x="557.8862" y="-643.3" font-family="Helvetica,sans-Serif" font-size="11.00" fill="#000000"> &#160;</text>
<polygon fill="#ffffff" stroke="transparent" points="567,-637.2 567,-656.2 617,-656.2 617,-637.2 567,-637.2"/>
<polygon fill="none" stroke="#000000" points="567,-637.2 567,-656.2 617,-656.2 617,-637.2 567,-637.2"/>
<text text-anchor="start" x="607.8862" y="-643.3" font-family="Helvetica,sans-Serif" font-size="11.00" fill="#000000"> &#160;</text>
</a>
</g>
</g>
<!-- punishment_comments&#45;&gt;reported_adjudications -->
<g id="edge5" class="edge">
<title>punishment_comments:w&#45;&gt;reported_adjudications:e</title>
<path fill="none" stroke="#000000" d="M407.2022,-665.2C374.3758,-665.2 361.0625,-665.2 322,-665.2"/>
<polygon fill="#000000" stroke="#000000" points="414,-665.2001 422,-668.8 418,-665.2 422,-665.2 422,-665.2 422,-665.2 418,-665.2 422,-661.6 414,-665.2001 414,-665.2001"/>
<ellipse fill="none" stroke="#000000" cx="410.8" cy="-665.2001" rx="3.2" ry="3.2"/>
</g>
<!-- reported_damages -->
<g id="node7" class="node">
<title>reported_damages</title>
<g id="a_node7"><a xlink:href="../../tables/reported_damages.html" xlink:title="reported_damages" target="_top">
<polygon fill="#ffffff" stroke="transparent" points="436.5,-555.7 436.5,-616.7 601.5,-616.7 601.5,-555.7 436.5,-555.7"/>
<polygon fill="#f5f5f5" stroke="transparent" points="437,-593.2 437,-616.2 602,-616.2 602,-593.2 437,-593.2"/>
<polygon fill="none" stroke="#000000" points="437,-593.2 437,-616.2 602,-616.2 602,-593.2 437,-593.2"/>
<text text-anchor="start" x="442" y="-601.8" font-family="Helvetica,sans-Serif" font-weight="bold" font-size="11.00" fill="#000000">reported_damages</text>
<text text-anchor="start" x="567.5219" y="-601.3" font-family="Helvetica,sans-Serif" font-size="11.00" fill="#000000">[table]</text>
<polygon fill="none" stroke="#000000" points="437,-574.2 437,-593.2 602,-593.2 602,-574.2 437,-574.2"/>
<text text-anchor="start" x="440" y="-580.3" font-family="Helvetica,sans-Serif" font-size="11.00" fill="#000000">...</text>
<polygon fill="#ffffff" stroke="transparent" points="437,-555.2 437,-574.2 518,-574.2 518,-555.2 437,-555.2"/>
<polygon fill="none" stroke="#000000" points="437,-555.2 437,-574.2 518,-574.2 518,-555.2 437,-555.2"/>
<text text-anchor="start" x="440" y="-561.3" font-family="Helvetica,sans-Serif" font-size="11.00" fill="#000000">&lt; 1</text>
<polygon fill="#ffffff" stroke="transparent" points="518,-555.2 518,-574.2 560,-574.2 560,-555.2 518,-555.2"/>
<polygon fill="none" stroke="#000000" points="518,-555.2 518,-574.2 560,-574.2 560,-555.2 518,-555.2"/>
<text text-anchor="start" x="550.8862" y="-561.3" font-family="Helvetica,sans-Serif" font-size="11.00" fill="#000000"> &#160;</text>
<polygon fill="#ffffff" stroke="transparent" points="560,-555.2 560,-574.2 602,-574.2 602,-555.2 560,-555.2"/>
<polygon fill="none" stroke="#000000" points="560,-555.2 560,-574.2 602,-574.2 602,-555.2 560,-555.2"/>
<text text-anchor="start" x="592.8862" y="-561.3" font-family="Helvetica,sans-Serif" font-size="11.00" fill="#000000"> &#160;</text>
</a>
</g>
</g>
<!-- reported_damages&#45;&gt;reported_adjudications -->
<g id="edge6" class="edge">
<title>reported_damages:w&#45;&gt;reported_adjudications:e</title>
<path fill="none" stroke="#000000" d="M422.3108,-584.4635C396.7313,-589.3343 389.2173,-607.601 363,-627.2 343.1006,-642.076 346.8452,-665.2 322,-665.2"/>
<polygon fill="#000000" stroke="#000000" points="429.0294,-583.8856 437.3085,-586.7868 433.0147,-583.5428 437,-583.2 437,-583.2 437,-583.2 433.0147,-583.5428 436.6915,-579.6132 429.0294,-583.8856 429.0294,-583.8856"/>
<ellipse fill="none" stroke="#000000" cx="425.8412" cy="-584.1599" rx="3.2" ry="3.2"/>
</g>
<!-- reported_evidence -->
<g id="node8" class="node">
<title>reported_evidence</title>
<g id="a_node8"><a xlink:href="../../tables/reported_evidence.html" xlink:title="reported_evidence" target="_top">
<polygon fill="#ffffff" stroke="transparent" points="437,-473.7 437,-534.7 601,-534.7 601,-473.7 437,-473.7"/>
<polygon fill="#f5f5f5" stroke="transparent" points="437,-511.2 437,-534.2 601,-534.2 601,-511.2 437,-511.2"/>
<polygon fill="none" stroke="#000000" points="437,-511.2 437,-534.2 601,-534.2 601,-511.2 437,-511.2"/>
<text text-anchor="start" x="442" y="-519.8" font-family="Helvetica,sans-Serif" font-weight="bold" font-size="11.00" fill="#000000">reported_evidence</text>
<text text-anchor="start" x="566.5219" y="-519.3" font-family="Helvetica,sans-Serif" font-size="11.00" fill="#000000">[table]</text>
<polygon fill="none" stroke="#000000" points="437,-492.2 437,-511.2 601,-511.2 601,-492.2 437,-492.2"/>
<text text-anchor="start" x="440" y="-498.3" font-family="Helvetica,sans-Serif" font-size="11.00" fill="#000000">...</text>
<polygon fill="#ffffff" stroke="transparent" points="437,-473.2 437,-492.2 517,-492.2 517,-473.2 437,-473.2"/>
<polygon fill="none" stroke="#000000" points="437,-473.2 437,-492.2 517,-492.2 517,-473.2 437,-473.2"/>
<text text-anchor="start" x="440" y="-479.3" font-family="Helvetica,sans-Serif" font-size="11.00" fill="#000000">&lt; 1</text>
<polygon fill="#ffffff" stroke="transparent" points="517,-473.2 517,-492.2 559,-492.2 559,-473.2 517,-473.2"/>
<polygon fill="none" stroke="#000000" points="517,-473.2 517,-492.2 559,-492.2 559,-473.2 517,-473.2"/>
<text text-anchor="start" x="549.8862" y="-479.3" font-family="Helvetica,sans-Serif" font-size="11.00" fill="#000000"> &#160;</text>
<polygon fill="#ffffff" stroke="transparent" points="559,-473.2 559,-492.2 601,-492.2 601,-473.2 559,-473.2"/>
<polygon fill="none" stroke="#000000" points="559,-473.2 559,-492.2 601,-492.2 601,-473.2 559,-473.2"/>
<text text-anchor="start" x="591.8862" y="-479.3" font-family="Helvetica,sans-Serif" font-size="11.00" fill="#000000"> &#160;</text>
</a>
</g>
</g>
<!-- reported_evidence&#45;&gt;reported_adjudications -->
<g id="edge7" class="edge">
<title>reported_evidence:w&#45;&gt;reported_adjudications:e</title>
<path fill="none" stroke="#000000" d="M422.3292,-502.0509C395.2204,-505.5241 383.7223,-519.6685 363,-545.2 327.4823,-588.9606 378.3604,-665.2 322,-665.2"/>
<polygon fill="#000000" stroke="#000000" points="429.0134,-501.6633 437.2085,-504.794 433.0067,-501.4316 437,-501.2 437,-501.2 437,-501.2 433.0067,-501.4316 436.7915,-497.606 429.0134,-501.6633 429.0134,-501.6633"/>
<ellipse fill="none" stroke="#000000" cx="425.8188" cy="-501.8486" rx="3.2" ry="3.2"/>
</g>
<!-- reported_offence -->
<g id="node9" class="node">
<title>reported_offence</title>
<g id="a_node9"><a xlink:href="../../tables/reported_offence.html" xlink:title="reported_offence" target="_top">
<polygon fill="#ffffff" stroke="transparent" points="442,-391.7 442,-452.7 596,-452.7 596,-391.7 442,-391.7"/>
<polygon fill="#f5f5f5" stroke="transparent" points="442,-429.2 442,-452.2 596,-452.2 596,-429.2 442,-429.2"/>
<polygon fill="none" stroke="#000000" points="442,-429.2 442,-452.2 596,-452.2 596,-429.2 442,-429.2"/>
<text text-anchor="start" x="447" y="-437.8" font-family="Helvetica,sans-Serif" font-weight="bold" font-size="11.00" fill="#000000">reported_offence</text>
<text text-anchor="start" x="561.5219" y="-437.3" font-family="Helvetica,sans-Serif" font-size="11.00" fill="#000000">[table]</text>
<polygon fill="none" stroke="#000000" points="442,-410.2 442,-429.2 596,-429.2 596,-410.2 442,-410.2"/>
<text text-anchor="start" x="445" y="-416.3" font-family="Helvetica,sans-Serif" font-size="11.00" fill="#000000">...</text>
<polygon fill="#ffffff" stroke="transparent" points="442,-391.2 442,-410.2 513,-410.2 513,-391.2 442,-391.2"/>
<polygon fill="none" stroke="#000000" points="442,-391.2 442,-410.2 513,-410.2 513,-391.2 442,-391.2"/>
<text text-anchor="start" x="445" y="-397.3" font-family="Helvetica,sans-Serif" font-size="11.00" fill="#000000">&lt; 1</text>
<polygon fill="#ffffff" stroke="transparent" points="513,-391.2 513,-410.2 550,-410.2 550,-391.2 513,-391.2"/>
<polygon fill="none" stroke="#000000" points="513,-391.2 513,-410.2 550,-410.2 550,-391.2 513,-391.2"/>
<text text-anchor="start" x="540.8862" y="-397.3" font-family="Helvetica,sans-Serif" font-size="11.00" fill="#000000"> &#160;</text>
<polygon fill="#ffffff" stroke="transparent" points="550,-391.2 550,-410.2 596,-410.2 596,-391.2 550,-391.2"/>
<polygon fill="none" stroke="#000000" points="550,-391.2 550,-410.2 596,-410.2 596,-391.2 550,-391.2"/>
<text text-anchor="start" x="577.4053" y="-397.3" font-family="Helvetica,sans-Serif" font-size="11.00" fill="#000000">1 &gt;</text>
</a>
</g>
</g>
<!-- reported_offence&#45;&gt;reported_adjudications -->
<g id="edge8" class="edge">
<title>reported_offence:w&#45;&gt;reported_adjudications:e</title>
<path fill="none" stroke="#000000" d="M427.2363,-419.8335C397.6507,-422.6389 383.5733,-435.0682 363,-463.2 308.9231,-537.1445 413.6084,-665.2 322,-665.2"/>
<polygon fill="#000000" stroke="#000000" points="434.0074,-419.543 442.1544,-422.7967 438.0037,-419.3715 442,-419.2 442,-419.2 442,-419.2 438.0037,-419.3715 441.8456,-415.6033 434.0074,-419.543 434.0074,-419.543"/>
<ellipse fill="none" stroke="#000000" cx="430.8103" cy="-419.6802" rx="3.2" ry="3.2"/>
</g>
<!-- reported_witness -->
<g id="node10" class="node">
<title>reported_witness</title>
<g id="a_node10"><a xlink:href="../../tables/reported_witness.html" xlink:title="reported_witness" target="_top">
<polygon fill="#ffffff" stroke="transparent" points="371,-38.2 371,-370.2 667,-370.2 667,-38.2 371,-38.2"/>
<polygon fill="#f5f5f5" stroke="transparent" points="373,-345.2 373,-368.2 665,-368.2 665,-345.2 373,-345.2"/>
<polygon fill="none" stroke="#000000" points="373,-345.2 373,-368.2 665,-368.2 665,-345.2 373,-345.2"/>
<text text-anchor="start" x="378" y="-353.8" font-family="Helvetica,sans-Serif" font-weight="bold" font-size="11.00" fill="#000000">reported_witness</text>
<text text-anchor="start" x="630.0437" y="-353.3" font-family="Helvetica,sans-Serif" font-size="11.00" fill="#000000">[table]</text>
<polygon fill="none" stroke="#000000" points="373,-323.2 373,-345.2 581,-345.2 581,-323.2 373,-323.2"/>
<image xlink:href="../../images/primaryKeys.png" width="11px" height="12px" preserveAspectRatio="xMinYMin meet" x="378" y="-340.2"/>
<text text-anchor="start" x="393" y="-330.3" font-family="Helvetica,sans-Serif" font-size="11.00" fill="#000000">id</text>
<polygon fill="none" stroke="#000000" points="581,-323.2 581,-345.2 665,-345.2 665,-323.2 581,-323.2"/>
<text text-anchor="start" x="584" y="-330.9" font-family="Helvetica,sans-Serif" font-size="11.00" fill="#000000">serial[10]</text>
<polygon fill="#ffffff" stroke="transparent" points="373,-301.2 373,-323.2 581,-323.2 581,-301.2 373,-301.2"/>
<polygon fill="none" stroke="#000000" points="373,-301.2 373,-323.2 581,-323.2 581,-301.2 373,-301.2"/>
<image xlink:href="../../images/foreignKeys.png" width="11px" height="12px" preserveAspectRatio="xMinYMin meet" x="378" y="-318.2"/>
<text text-anchor="start" x="393" y="-308.3" font-family="Helvetica,sans-Serif" font-size="11.00" fill="#000000">reported_adjudication_fk_id</text>
<polygon fill="none" stroke="#000000" points="581,-301.2 581,-323.2 665,-323.2 665,-301.2 581,-301.2"/>
<text text-anchor="start" x="584" y="-308.9" font-family="Helvetica,sans-Serif" font-size="11.00" fill="#000000">int8[19]</text>
<polygon fill="none" stroke="#000000" points="373,-279.2 373,-301.2 581,-301.2 581,-279.2 373,-279.2"/>
<text text-anchor="start" x="393" y="-286.3" font-family="Helvetica,sans-Serif" font-size="11.00" fill="#000000">code</text>
<polygon fill="none" stroke="#000000" points="581,-279.2 581,-301.2 665,-301.2 665,-279.2 581,-279.2"/>
<text text-anchor="start" x="584" y="-286.9" font-family="Helvetica,sans-Serif" font-size="11.00" fill="#000000">varchar[32]</text>
<polygon fill="none" stroke="#000000" points="373,-257.2 373,-279.2 581,-279.2 581,-257.2 373,-257.2"/>
<text text-anchor="start" x="393" y="-264.3" font-family="Helvetica,sans-Serif" font-size="11.00" fill="#000000">first_name</text>
<polygon fill="none" stroke="#000000" points="581,-257.2 581,-279.2 665,-279.2 665,-257.2 581,-257.2"/>
<text text-anchor="start" x="584" y="-264.9" font-family="Helvetica,sans-Serif" font-size="11.00" fill="#000000">varchar[32]</text>
<polygon fill="none" stroke="#000000" points="373,-235.2 373,-257.2 581,-257.2 581,-235.2 373,-235.2"/>
<text text-anchor="start" x="393" y="-242.3" font-family="Helvetica,sans-Serif" font-size="11.00" fill="#000000">last_name</text>
<polygon fill="none" stroke="#000000" points="581,-235.2 581,-257.2 665,-257.2 665,-235.2 581,-235.2"/>
<text text-anchor="start" x="584" y="-242.9" font-family="Helvetica,sans-Serif" font-size="11.00" fill="#000000">varchar[32]</text>
<polygon fill="none" stroke="#000000" points="373,-213.2 373,-235.2 581,-235.2 581,-213.2 373,-213.2"/>
<text text-anchor="start" x="393" y="-220.3" font-family="Helvetica,sans-Serif" font-size="11.00" fill="#000000">reporter</text>
<polygon fill="none" stroke="#000000" points="581,-213.2 581,-235.2 665,-235.2 665,-213.2 581,-213.2"/>
<text text-anchor="start" x="584" y="-220.9" font-family="Helvetica,sans-Serif" font-size="11.00" fill="#000000">varchar[32]</text>
<polygon fill="none" stroke="#000000" points="373,-191.2 373,-213.2 581,-213.2 581,-191.2 373,-191.2"/>
<text text-anchor="start" x="393" y="-198.3" font-family="Helvetica,sans-Serif" font-size="11.00" fill="#000000">create_user_id</text>
<polygon fill="none" stroke="#000000" points="581,-191.2 581,-213.2 665,-213.2 665,-191.2 581,-191.2"/>
<text text-anchor="start" x="584" y="-198.9" font-family="Helvetica,sans-Serif" font-size="11.00" fill="#000000">varchar[32]</text>
<polygon fill="none" stroke="#000000" points="373,-169.2 373,-191.2 581,-191.2 581,-169.2 373,-169.2"/>
<text text-anchor="start" x="393" y="-176.3" font-family="Helvetica,sans-Serif" font-size="11.00" fill="#000000">create_datetime</text>
<polygon fill="none" stroke="#000000" points="581,-169.2 581,-191.2 665,-191.2 665,-169.2 581,-169.2"/>
<text text-anchor="start" x="583.8807" y="-176.9" font-family="Helvetica,sans-Serif" font-size="11.00" fill="#000000">timestamp[29,6]</text>
<polygon fill="none" stroke="#000000" points="373,-147.2 373,-169.2 581,-169.2 581,-147.2 373,-147.2"/>
<text text-anchor="start" x="393" y="-154.3" font-family="Helvetica,sans-Serif" font-size="11.00" fill="#000000">modify_user_id</text>
<polygon fill="none" stroke="#000000" points="581,-147.2 581,-169.2 665,-169.2 665,-147.2 581,-147.2"/>
<text text-anchor="start" x="584" y="-154.9" font-family="Helvetica,sans-Serif" font-size="11.00" fill="#000000">varchar[32]</text>
<polygon fill="none" stroke="#000000" points="373,-125.2 373,-147.2 581,-147.2 581,-125.2 373,-125.2"/>
<text text-anchor="start" x="393" y="-132.3" font-family="Helvetica,sans-Serif" font-size="11.00" fill="#000000">modify_datetime</text>
<polygon fill="none" stroke="#000000" points="581,-125.2 581,-147.2 665,-147.2 665,-125.2 581,-125.2"/>
<text text-anchor="start" x="583.8807" y="-132.9" font-family="Helvetica,sans-Serif" font-size="11.00" fill="#000000">timestamp[29,6]</text>
<polygon fill="none" stroke="#000000" points="373,-103.2 373,-125.2 581,-125.2 581,-103.2 373,-103.2"/>
<text text-anchor="start" x="393" y="-110.3" font-family="Helvetica,sans-Serif" font-size="11.00" fill="#000000">comment</text>
<polygon fill="none" stroke="#000000" points="581,-103.2 581,-125.2 665,-125.2 665,-103.2 581,-103.2"/>
<text text-anchor="start" x="584" y="-110.9" font-family="Helvetica,sans-Serif" font-size="11.00" fill="#000000">varchar[240]</text>
<polygon fill="none" stroke="#000000" points="373,-81.2 373,-103.2 581,-103.2 581,-81.2 373,-81.2"/>
<text text-anchor="start" x="393" y="-88.3" font-family="Helvetica,sans-Serif" font-size="11.00" fill="#000000">username</text>
<polygon fill="none" stroke="#000000" points="581,-81.2 581,-103.2 665,-103.2 665,-81.2 581,-81.2"/>
<text text-anchor="start" x="584" y="-88.9" font-family="Helvetica,sans-Serif" font-size="11.00" fill="#000000">varchar[32]</text>
<polygon fill="none" stroke="#000000" points="373,-59.2 373,-81.2 581,-81.2 581,-59.2 373,-59.2"/>
<text text-anchor="start" x="393" y="-66.3" font-family="Helvetica,sans-Serif" font-size="11.00" fill="#000000">date_added</text>
<polygon fill="none" stroke="#000000" points="581,-59.2 581,-81.2 665,-81.2 665,-59.2 581,-59.2"/>
<text text-anchor="start" x="583.8807" y="-66.9" font-family="Helvetica,sans-Serif" font-size="11.00" fill="#000000">timestamp[29,6]</text>
<polygon fill="#ffffff" stroke="transparent" points="373,-40.2 373,-59.2 481,-59.2 481,-40.2 373,-40.2"/>
<polygon fill="none" stroke="#000000" points="373,-40.2 373,-59.2 481,-59.2 481,-40.2 373,-40.2"/>
<text text-anchor="start" x="376" y="-46.3" font-family="Helvetica,sans-Serif" font-size="11.00" fill="#000000">&lt; 1</text>
<polygon fill="#ffffff" stroke="transparent" points="481,-40.2 481,-59.2 581,-59.2 581,-40.2 481,-40.2"/>
<polygon fill="none" stroke="#000000" points="481,-40.2 481,-59.2 581,-59.2 581,-40.2 481,-40.2"/>
<text text-anchor="start" x="571.8862" y="-46.3" font-family="Helvetica,sans-Serif" font-size="11.00" fill="#000000"> &#160;</text>
<polygon fill="#ffffff" stroke="transparent" points="581,-40.2 581,-59.2 665,-59.2 665,-40.2 581,-40.2"/>
<polygon fill="none" stroke="#000000" points="581,-40.2 581,-59.2 665,-59.2 665,-40.2 581,-40.2"/>
<text text-anchor="start" x="646.4053" y="-46.3" font-family="Helvetica,sans-Serif" font-size="11.00" fill="#000000">0 &gt;</text>
<polygon fill="none" stroke="#000000" stroke-width="2" points="372,-39.2 372,-369.2 666,-369.2 666,-39.2 372,-39.2"/>
</a>
</g>
</g>
<!-- reported_witness&#45;&gt;reported_adjudications -->
<g id="edge9" class="edge">
<title>reported_witness:w&#45;&gt;reported_adjudications:e</title>
<path fill="none" stroke="#000000" d="M359.2448,-316.9232C307.568,-358.8121 395.8408,-665.2 322,-665.2"/>
<polygon fill="#000000" stroke="#000000" points="365.4336,-314.7981 374.1692,-315.6049 369.2168,-313.4991 373,-312.2 373,-312.2 373,-312.2 369.2168,-313.4991 371.8308,-308.7951 365.4336,-314.7981 365.4336,-314.7981"/>
<ellipse fill="none" stroke="#000000" cx="362.4071" cy="-315.8374" rx="3.2" ry="3.2"/>
</g>
</g>
</svg>
