<?xml version="1.0" encoding="UTF-8" standalone="no"?>
<!DOCTYPE svg PUBLIC "-//W3C//DTD SVG 1.1//EN"
 "http://www.w3.org/Graphics/SVG/1.1/DTD/svg11.dtd">
<!-- Generated by graphviz version 2.40.1 (20161225.0304)
 -->
<!-- Title: oneDegreeRelationshipsDiagram Pages: 1 -->
<svg width="943pt" height="425pt"
 viewBox="0.00 0.00 943.00 424.70" xmlns="http://www.w3.org/2000/svg" xmlns:xlink="http://www.w3.org/1999/xlink">
<g id="graph0" class="graph" transform="scale(1 1) rotate(0) translate(4 420.7)">
<title>oneDegreeRelationshipsDiagram</title>
<polygon fill="#ffffff" stroke="transparent" points="-4,4 -4,-420.7 939,-420.7 939,4 -4,4"/>
<text text-anchor="middle" x="72.4936" y="-7.3" font-family="Helvetica,sans-Serif" font-size="11.00" fill="#000000">Generated by SchemaSpy</text>
<!-- protected_characteristics -->
<g id="node1" class="node">
<title>protected_characteristics</title>
<g id="a_node1"><a xlink:href="../../tables/protected_characteristics.html" xlink:title="protected_characteristics" target="_top">
<polygon fill="#ffffff" stroke="transparent" points="716,-307.7 716,-412.7 927,-412.7 927,-307.7 716,-307.7"/>
<polygon fill="#f5f5f5" stroke="transparent" points="716.5,-389.2 716.5,-412.2 927.5,-412.2 927.5,-389.2 716.5,-389.2"/>
<polygon fill="none" stroke="#000000" points="716.5,-389.2 716.5,-412.2 927.5,-412.2 927.5,-389.2 716.5,-389.2"/>
<text text-anchor="start" x="721.5" y="-397.8" font-family="Helvetica,sans-Serif" font-weight="bold" font-size="11.00" fill="#000000">protected_characteristics</text>
<text text-anchor="start" x="893.0219" y="-397.3" font-family="Helvetica,sans-Serif" font-size="11.00" fill="#000000">[table]</text>
<polygon fill="none" stroke="#000000" points="716.5,-367.2 716.5,-389.2 927.5,-389.2 927.5,-367.2 716.5,-367.2"/>
<image xlink:href="../../images/primaryKeys.png" width="11px" height="12px" preserveAspectRatio="xMinYMin meet" x="721.5" y="-384.2"/>
<text text-anchor="start" x="745.5" y="-374.3" font-family="Helvetica,sans-Serif" font-size="11.00" fill="#000000">id</text>
<polygon fill="#ffffff" stroke="transparent" points="716.5,-345.2 716.5,-367.2 927.5,-367.2 927.5,-345.2 716.5,-345.2"/>
<polygon fill="none" stroke="#000000" points="716.5,-345.2 716.5,-367.2 927.5,-367.2 927.5,-345.2 716.5,-345.2"/>
<image xlink:href="../../images/foreignKeys.png" width="11px" height="12px" preserveAspectRatio="xMinYMin meet" x="721.5" y="-362.2"/>
<text text-anchor="start" x="745.5" y="-352.3" font-family="Helvetica,sans-Serif" font-size="11.00" fill="#000000">reported_offence_fk_id</text>
<polygon fill="none" stroke="#000000" points="716.5,-326.2 716.5,-345.2 927.5,-345.2 927.5,-326.2 716.5,-326.2"/>
<text text-anchor="start" x="719.5" y="-332.3" font-family="Helvetica,sans-Serif" font-size="11.00" fill="#000000">...</text>
<polygon fill="#ffffff" stroke="transparent" points="716.5,-307.2 716.5,-326.2 820.5,-326.2 820.5,-307.2 716.5,-307.2"/>
<polygon fill="none" stroke="#000000" points="716.5,-307.2 716.5,-326.2 820.5,-326.2 820.5,-307.2 716.5,-307.2"/>
<text text-anchor="start" x="719.5" y="-313.3" font-family="Helvetica,sans-Serif" font-size="11.00" fill="#000000">&lt; 1</text>
<polygon fill="#ffffff" stroke="transparent" points="820.5,-307.2 820.5,-326.2 873.5,-326.2 873.5,-307.2 820.5,-307.2"/>
<polygon fill="none" stroke="#000000" points="820.5,-307.2 820.5,-326.2 873.5,-326.2 873.5,-307.2 820.5,-307.2"/>
<text text-anchor="start" x="864.3862" y="-313.3" font-family="Helvetica,sans-Serif" font-size="11.00" fill="#000000"> &#160;</text>
<polygon fill="#ffffff" stroke="transparent" points="873.5,-307.2 873.5,-326.2 927.5,-326.2 927.5,-307.2 873.5,-307.2"/>
<polygon fill="none" stroke="#000000" points="873.5,-307.2 873.5,-326.2 927.5,-326.2 927.5,-307.2 873.5,-307.2"/>
<text text-anchor="start" x="918.3862" y="-313.3" font-family="Helvetica,sans-Serif" font-size="11.00" fill="#000000"> &#160;</text>
</a>
</g>
</g>
<!-- reported_offence -->
<g id="node2" class="node">
<title>reported_offence</title>
<g id="a_node2"><a xlink:href="../../tables/reported_offence.html" xlink:title="reported_offence" target="_top">
<polygon fill="#ffffff" stroke="transparent" points="371,-38.2 371,-392.2 667,-392.2 667,-38.2 371,-38.2"/>
<polygon fill="#f5f5f5" stroke="transparent" points="373,-367.2 373,-390.2 665,-390.2 665,-367.2 373,-367.2"/>
<polygon fill="none" stroke="#000000" points="373,-367.2 373,-390.2 665,-390.2 665,-367.2 373,-367.2"/>
<text text-anchor="start" x="378" y="-375.8" font-family="Helvetica,sans-Serif" font-weight="bold" font-size="11.00" fill="#000000">reported_offence</text>
<text text-anchor="start" x="630.0437" y="-375.3" font-family="Helvetica,sans-Serif" font-size="11.00" fill="#000000">[table]</text>
<polygon fill="none" stroke="#000000" points="373,-345.2 373,-367.2 581,-367.2 581,-345.2 373,-345.2"/>
<image xlink:href="../../images/primaryKeys.png" width="11px" height="12px" preserveAspectRatio="xMinYMin meet" x="378" y="-362.2"/>
<text text-anchor="start" x="393" y="-352.3" font-family="Helvetica,sans-Serif" font-size="11.00" fill="#000000">id</text>
<polygon fill="none" stroke="#000000" points="581,-345.2 581,-367.2 665,-367.2 665,-345.2 581,-345.2"/>
<text text-anchor="start" x="584" y="-352.9" font-family="Helvetica,sans-Serif" font-size="11.00" fill="#000000">serial[10]</text>
<polygon fill="#ffffff" stroke="transparent" points="373,-323.2 373,-345.2 581,-345.2 581,-323.2 373,-323.2"/>
<polygon fill="none" stroke="#000000" points="373,-323.2 373,-345.2 581,-345.2 581,-323.2 373,-323.2"/>
<image xlink:href="../../images/foreignKeys.png" width="11px" height="12px" preserveAspectRatio="xMinYMin meet" x="378" y="-340.2"/>
<text text-anchor="start" x="393" y="-330.3" font-family="Helvetica,sans-Serif" font-size="11.00" fill="#000000">reported_adjudication_fk_id</text>
<polygon fill="none" stroke="#000000" points="581,-323.2 581,-345.2 665,-345.2 665,-323.2 581,-323.2"/>
<text text-anchor="start" x="584" y="-330.9" font-family="Helvetica,sans-Serif" font-size="11.00" fill="#000000">int8[19]</text>
<polygon fill="none" stroke="#000000" points="373,-301.2 373,-323.2 581,-323.2 581,-301.2 373,-301.2"/>
<text text-anchor="start" x="393" y="-308.3" font-family="Helvetica,sans-Serif" font-size="11.00" fill="#000000">offence_code</text>
<polygon fill="none" stroke="#000000" points="581,-301.2 581,-323.2 665,-323.2 665,-301.2 581,-301.2"/>
<text text-anchor="start" x="584" y="-308.9" font-family="Helvetica,sans-Serif" font-size="11.00" fill="#000000">int4[10]</text>
<polygon fill="#ffffff" stroke="transparent" points="373,-279.2 373,-301.2 581,-301.2 581,-279.2 373,-279.2"/>
<polygon fill="none" stroke="#000000" points="373,-279.2 373,-301.2 581,-301.2 581,-279.2 373,-279.2"/>
<text text-anchor="start" x="393" y="-286.3" font-family="Helvetica,sans-Serif" font-size="11.00" fill="#000000">victim_prisoners_number</text>
<polygon fill="none" stroke="#000000" points="581,-279.2 581,-301.2 665,-301.2 665,-279.2 581,-279.2"/>
<text text-anchor="start" x="584" y="-286.9" font-family="Helvetica,sans-Serif" font-size="11.00" fill="#000000">varchar[7]</text>
<polygon fill="none" stroke="#000000" points="373,-257.2 373,-279.2 581,-279.2 581,-257.2 373,-257.2"/>
<text text-anchor="start" x="393" y="-264.3" font-family="Helvetica,sans-Serif" font-size="11.00" fill="#000000">create_user_id</text>
<polygon fill="none" stroke="#000000" points="581,-257.2 581,-279.2 665,-279.2 665,-257.2 581,-257.2"/>
<text text-anchor="start" x="584" y="-264.9" font-family="Helvetica,sans-Serif" font-size="11.00" fill="#000000">varchar[32]</text>
<polygon fill="none" stroke="#000000" points="373,-235.2 373,-257.2 581,-257.2 581,-235.2 373,-235.2"/>
<text text-anchor="start" x="393" y="-242.3" font-family="Helvetica,sans-Serif" font-size="11.00" fill="#000000">create_datetime</text>
<polygon fill="none" stroke="#000000" points="581,-235.2 581,-257.2 665,-257.2 665,-235.2 581,-235.2"/>
<text text-anchor="start" x="583.8807" y="-242.9" font-family="Helvetica,sans-Serif" font-size="11.00" fill="#000000">timestamp[29,6]</text>
<polygon fill="none" stroke="#000000" points="373,-213.2 373,-235.2 581,-235.2 581,-213.2 373,-213.2"/>
<text text-anchor="start" x="393" y="-220.3" font-family="Helvetica,sans-Serif" font-size="11.00" fill="#000000">modify_user_id</text>
<polygon fill="none" stroke="#000000" points="581,-213.2 581,-235.2 665,-235.2 665,-213.2 581,-213.2"/>
<text text-anchor="start" x="584" y="-220.9" font-family="Helvetica,sans-Serif" font-size="11.00" fill="#000000">varchar[32]</text>
<polygon fill="none" stroke="#000000" points="373,-191.2 373,-213.2 581,-213.2 581,-191.2 373,-191.2"/>
<text text-anchor="start" x="393" y="-198.3" font-family="Helvetica,sans-Serif" font-size="11.00" fill="#000000">modify_datetime</text>
<polygon fill="none" stroke="#000000" points="581,-191.2 581,-213.2 665,-213.2 665,-191.2 581,-191.2"/>
<text text-anchor="start" x="583.8807" y="-198.9" font-family="Helvetica,sans-Serif" font-size="11.00" fill="#000000">timestamp[29,6]</text>
<polygon fill="none" stroke="#000000" points="373,-169.2 373,-191.2 581,-191.2 581,-169.2 373,-169.2"/>
<text text-anchor="start" x="393" y="-176.3" font-family="Helvetica,sans-Serif" font-size="11.00" fill="#000000">victim_staff_username</text>
<polygon fill="none" stroke="#000000" points="581,-169.2 581,-191.2 665,-191.2 665,-169.2 581,-169.2"/>
<text text-anchor="start" x="584" y="-176.9" font-family="Helvetica,sans-Serif" font-size="11.00" fill="#000000">varchar[30]</text>
<polygon fill="none" stroke="#000000" points="373,-147.2 373,-169.2 581,-169.2 581,-147.2 373,-147.2"/>
<text text-anchor="start" x="393" y="-154.3" font-family="Helvetica,sans-Serif" font-size="11.00" fill="#000000">victim_other_persons_name</text>
<polygon fill="none" stroke="#000000" points="581,-147.2 581,-169.2 665,-169.2 665,-147.2 581,-147.2"/>
<text text-anchor="start" x="584" y="-154.9" font-family="Helvetica,sans-Serif" font-size="11.00" fill="#000000">varchar[100]</text>
<polygon fill="none" stroke="#000000" points="373,-125.2 373,-147.2 581,-147.2 581,-125.2 373,-125.2"/>
<text text-anchor="start" x="393" y="-132.3" font-family="Helvetica,sans-Serif" font-size="11.00" fill="#000000">nomis_offence_code</text>
<polygon fill="none" stroke="#000000" points="581,-125.2 581,-147.2 665,-147.2 665,-125.2 581,-125.2"/>
<text text-anchor="start" x="584" y="-132.9" font-family="Helvetica,sans-Serif" font-size="11.00" fill="#000000">varchar[10]</text>
<polygon fill="none" stroke="#000000" points="373,-103.2 373,-125.2 581,-125.2 581,-103.2 373,-103.2"/>
<text text-anchor="start" x="393" y="-110.3" font-family="Helvetica,sans-Serif" font-size="11.00" fill="#000000">nomis_offence_description</text>
<polygon fill="none" stroke="#000000" points="581,-103.2 581,-125.2 665,-125.2 665,-103.2 581,-103.2"/>
<text text-anchor="start" x="584" y="-110.9" font-family="Helvetica,sans-Serif" font-size="11.00" fill="#000000">varchar[350]</text>
<polygon fill="none" stroke="#000000" points="373,-81.2 373,-103.2 581,-103.2 581,-81.2 373,-81.2"/>
<text text-anchor="start" x="393" y="-88.3" font-family="Helvetica,sans-Serif" font-size="11.00" fill="#000000">migrated</text>
<polygon fill="none" stroke="#000000" points="581,-81.2 581,-103.2 665,-103.2 665,-81.2 581,-81.2"/>
<text text-anchor="start" x="584" y="-88.9" font-family="Helvetica,sans-Serif" font-size="11.00" fill="#000000">bool[1]</text>
<polygon fill="none" stroke="#000000" points="373,-59.2 373,-81.2 581,-81.2 581,-59.2 373,-59.2"/>
<text text-anchor="start" x="393" y="-66.3" font-family="Helvetica,sans-Serif" font-size="11.00" fill="#000000">actual_offence_code</text>
<polygon fill="none" stroke="#000000" points="581,-59.2 581,-81.2 665,-81.2 665,-59.2 581,-59.2"/>
<text text-anchor="start" x="584" y="-66.9" font-family="Helvetica,sans-Serif" font-size="11.00" fill="#000000">int4[10]</text>
<polygon fill="#ffffff" stroke="transparent" points="373,-40.2 373,-59.2 481,-59.2 481,-40.2 373,-40.2"/>
<polygon fill="none" stroke="#000000" points="373,-40.2 373,-59.2 481,-59.2 481,-40.2 373,-40.2"/>
<text text-anchor="start" x="376" y="-46.3" font-family="Helvetica,sans-Serif" font-size="11.00" fill="#000000">&lt; 1</text>
<polygon fill="#ffffff" stroke="transparent" points="481,-40.2 481,-59.2 581,-59.2 581,-40.2 481,-40.2"/>
<polygon fill="none" stroke="#000000" points="481,-40.2 481,-59.2 581,-59.2 581,-40.2 481,-40.2"/>
<text text-anchor="start" x="571.8862" y="-46.3" font-family="Helvetica,sans-Serif" font-size="11.00" fill="#000000"> &#160;</text>
<polygon fill="#ffffff" stroke="transparent" points="581,-40.2 581,-59.2 665,-59.2 665,-40.2 581,-40.2"/>
<polygon fill="none" stroke="#000000" points="581,-40.2 581,-59.2 665,-59.2 665,-40.2 581,-40.2"/>
<text text-anchor="start" x="646.4053" y="-46.3" font-family="Helvetica,sans-Serif" font-size="11.00" fill="#000000">1 &gt;</text>
<polygon fill="none" stroke="#000000" stroke-width="2" points="372,-39.2 372,-391.2 666,-391.2 666,-39.2 372,-39.2"/>
</a>
</g>
</g>
<!-- protected_characteristics&#45;&gt;reported_offence -->
<g id="edge1" class="edge">
<title>protected_characteristics:w&#45;&gt;reported_offence:e</title>
<path fill="none" stroke="#000000" d="M702.0156,-356.2C689.6771,-356.2 682.1667,-356.2 665,-356.2"/>
<polygon fill="#000000" stroke="#000000" points="708.5,-356.2001 716.5,-359.8 712.5,-356.2 716.5,-356.2 716.5,-356.2 716.5,-356.2 712.5,-356.2 716.5,-352.6 708.5,-356.2001 708.5,-356.2001"/>
<ellipse fill="none" stroke="#000000" cx="705.3" cy="-356.2001" rx="3.2" ry="3.2"/>
</g>
<!-- reported_adjudications -->
<g id="node3" class="node">
<title>reported_adjudications</title>
<g id="a_node3"><a xlink:href="../../tables/reported_adjudications.html" xlink:title="reported_adjudications" target="_top">
<polygon fill="#ffffff" stroke="transparent" points="8,-43.7 8,-368.7 322,-368.7 322,-43.7 8,-43.7"/>
<polygon fill="#f5f5f5" stroke="transparent" points="8,-345.2 8,-368.2 322,-368.2 322,-345.2 8,-345.2"/>
<polygon fill="none" stroke="#000000" points="8,-345.2 8,-368.2 322,-368.2 322,-345.2 8,-345.2"/>
<text text-anchor="start" x="13" y="-353.8" font-family="Helvetica,sans-Serif" font-weight="bold" font-size="11.00" fill="#000000">reported_adjudications</text>
<text text-anchor="start" x="287.0437" y="-353.3" font-family="Helvetica,sans-Serif" font-size="11.00" fill="#000000">[table]</text>
<polygon fill="none" stroke="#000000" points="8,-323.2 8,-345.2 322,-345.2 322,-323.2 8,-323.2"/>
<image xlink:href="../../images/primaryKeys.png" width="11px" height="12px" preserveAspectRatio="xMinYMin meet" x="13" y="-340.2"/>
<text text-anchor="start" x="28" y="-330.3" font-family="Helvetica,sans-Serif" font-size="11.00" fill="#000000">id</text>
<polygon fill="#ffffff" stroke="transparent" points="8,-301.2 8,-323.2 322,-323.2 322,-301.2 8,-301.2"/>
<polygon fill="none" stroke="#000000" points="8,-301.2 8,-323.2 322,-323.2 322,-301.2 8,-301.2"/>
<text text-anchor="start" x="28" y="-308.3" font-family="Helvetica,sans-Serif" font-size="11.00" fill="#000000">prisoner_number</text>
<polygon fill="#ffffff" stroke="transparent" points="8,-279.2 8,-301.2 322,-301.2 322,-279.2 8,-279.2"/>
<polygon fill="none" stroke="#000000" points="8,-279.2 8,-301.2 322,-301.2 322,-279.2 8,-279.2"/>
<text text-anchor="start" x="28" y="-286.3" font-family="Helvetica,sans-Serif" font-size="11.00" fill="#000000">charge_number</text>
<polygon fill="#ffffff" stroke="transparent" points="8,-257.2 8,-279.2 322,-279.2 322,-257.2 8,-257.2"/>
<polygon fill="none" stroke="#000000" points="8,-257.2 8,-279.2 322,-279.2 322,-257.2 8,-257.2"/>
<text text-anchor="start" x="28" y="-264.3" font-family="Helvetica,sans-Serif" font-size="11.00" fill="#000000">originating_agency_id</text>
<polygon fill="#ffffff" stroke="transparent" points="8,-235.2 8,-257.2 322,-257.2 322,-235.2 8,-235.2"/>
<polygon fill="none" stroke="#000000" points="8,-235.2 8,-257.2 322,-257.2 322,-235.2 8,-235.2"/>
<text text-anchor="start" x="28" y="-242.3" font-family="Helvetica,sans-Serif" font-size="11.00" fill="#000000">create_user_id</text>
<polygon fill="#ffffff" stroke="transparent" points="8,-213.2 8,-235.2 322,-235.2 322,-213.2 8,-213.2"/>
<polygon fill="none" stroke="#000000" points="8,-213.2 8,-235.2 322,-235.2 322,-213.2 8,-213.2"/>
<text text-anchor="start" x="28" y="-220.3" font-family="Helvetica,sans-Serif" font-size="11.00" fill="#000000">incident_role_associated_prisoners_number</text>
<polygon fill="#ffffff" stroke="transparent" points="8,-191.2 8,-213.2 322,-213.2 322,-191.2 8,-191.2"/>
<polygon fill="none" stroke="#000000" points="8,-191.2 8,-213.2 322,-213.2 322,-191.2 8,-191.2"/>
<text text-anchor="start" x="28" y="-198.3" font-family="Helvetica,sans-Serif" font-size="11.00" fill="#000000">status</text>
<polygon fill="#ffffff" stroke="transparent" points="8,-169.2 8,-191.2 322,-191.2 322,-169.2 8,-169.2"/>
<polygon fill="none" stroke="#000000" points="8,-169.2 8,-191.2 322,-191.2 322,-169.2 8,-169.2"/>
<text text-anchor="start" x="28" y="-176.3" font-family="Helvetica,sans-Serif" font-size="11.00" fill="#000000">date_time_of_discovery</text>
<polygon fill="#ffffff" stroke="transparent" points="8,-147.2 8,-169.2 322,-169.2 322,-147.2 8,-147.2"/>
<polygon fill="none" stroke="#000000" points="8,-147.2 8,-169.2 322,-169.2 322,-147.2 8,-147.2"/>
<text text-anchor="start" x="28" y="-154.3" font-family="Helvetica,sans-Serif" font-size="11.00" fill="#000000">date_time_of_first_hearing</text>
<polygon fill="#ffffff" stroke="transparent" points="8,-125.2 8,-147.2 322,-147.2 322,-125.2 8,-125.2"/>
<polygon fill="none" stroke="#000000" points="8,-125.2 8,-147.2 322,-147.2 322,-125.2 8,-125.2"/>
<text text-anchor="start" x="28" y="-132.3" font-family="Helvetica,sans-Serif" font-size="11.00" fill="#000000">override_agency_id</text>
<polygon fill="#ffffff" stroke="transparent" points="8,-103.2 8,-125.2 322,-125.2 322,-103.2 8,-103.2"/>
<polygon fill="none" stroke="#000000" points="8,-103.2 8,-125.2 322,-125.2 322,-103.2 8,-103.2"/>
<text text-anchor="start" x="28" y="-110.3" font-family="Helvetica,sans-Serif" font-size="11.00" fill="#000000">migrated</text>
<polygon fill="#ffffff" stroke="transparent" points="8,-81.2 8,-103.2 322,-103.2 322,-81.2 8,-81.2"/>
<polygon fill="none" stroke="#000000" points="8,-81.2 8,-103.2 322,-103.2 322,-81.2 8,-81.2"/>
<text text-anchor="start" x="28" y="-88.3" font-family="Helvetica,sans-Serif" font-size="11.00" fill="#000000">offender_booking_id</text>
<polygon fill="none" stroke="#000000" points="8,-62.2 8,-81.2 322,-81.2 322,-62.2 8,-62.2"/>
<text text-anchor="start" x="11" y="-68.3" font-family="Helvetica,sans-Serif" font-size="11.00" fill="#000000">...</text>
<polygon fill="#ffffff" stroke="transparent" points="8,-43.2 8,-62.2 154,-62.2 154,-43.2 8,-43.2"/>
<polygon fill="none" stroke="#000000" points="8,-43.2 8,-62.2 154,-62.2 154,-43.2 8,-43.2"/>
<text text-anchor="start" x="11" y="-49.3" font-family="Helvetica,sans-Serif" font-size="11.00" fill="#000000"> &#160;</text>
<polygon fill="#ffffff" stroke="transparent" points="154,-43.2 154,-62.2 233,-62.2 233,-43.2 154,-43.2"/>
<polygon fill="none" stroke="#000000" points="154,-43.2 154,-62.2 233,-62.2 233,-43.2 154,-43.2"/>
<text text-anchor="start" x="223.8862" y="-49.3" font-family="Helvetica,sans-Serif" font-size="11.00" fill="#000000"> &#160;</text>
<polygon fill="#ffffff" stroke="transparent" points="233,-43.2 233,-62.2 322,-62.2 322,-43.2 233,-43.2"/>
<polygon fill="none" stroke="#000000" points="233,-43.2 233,-62.2 322,-62.2 322,-43.2 233,-43.2"/>
<text text-anchor="start" x="303.4053" y="-49.3" font-family="Helvetica,sans-Serif" font-size="11.00" fill="#000000">9 &gt;</text>
</a>
</g>
</g>
<!-- reported_offence&#45;&gt;reported_adjudications -->
<g id="edge2" class="edge">
<title>reported_offence:w&#45;&gt;reported_adjudications:e</title>
<path fill="none" stroke="#000000" d="M358.276,-334.2C346.2815,-334.2 338.8229,-334.2 322,-334.2"/>
<polygon fill="#000000" stroke="#000000" points="365,-334.2001 373,-337.8 369,-334.2 373,-334.2 373,-334.2 373,-334.2 369,-334.2 373,-330.6 365,-334.2001 365,-334.2001"/>
<ellipse fill="none" stroke="#000000" cx="361.8" cy="-334.2001" rx="3.2" ry="3.2"/>
</g>
</g>
</svg>
