<?xml version="1.0" encoding="UTF-8" standalone="no"?>
<!DOCTYPE svg PUBLIC "-//W3C//DTD SVG 1.1//EN"
 "http://www.w3.org/Graphics/SVG/1.1/DTD/svg11.dtd">
<!-- Generated by graphviz version 2.40.1 (20161225.0304)
 -->
<!-- Title: oneDegreeRelationshipsDiagram Pages: 1 -->
<svg width="683pt" height="399pt"
 viewBox="0.00 0.00 683.00 398.70" xmlns="http://www.w3.org/2000/svg" xmlns:xlink="http://www.w3.org/1999/xlink">
<g id="graph0" class="graph" transform="scale(1 1) rotate(0) translate(4 394.7)">
<title>oneDegreeRelationshipsDiagram</title>
<polygon fill="#ffffff" stroke="transparent" points="-4,4 -4,-394.7 679,-394.7 679,4 -4,4"/>
<text text-anchor="middle" x="72.4936" y="-7.3" font-family="Helvetica,sans-Serif" font-size="11.00" fill="#000000">Generated by SchemaSpy</text>
<!-- reported_witness -->
<g id="node1" class="node">
<title>reported_witness</title>
<g id="a_node1"><a xlink:href="../../tables/reported_witness.html" xlink:title="reported_witness" target="_top">
<polygon fill="#ffffff" stroke="transparent" points="371,-54.7 371,-386.7 667,-386.7 667,-54.7 371,-54.7"/>
<polygon fill="#f5f5f5" stroke="transparent" points="373,-361.7 373,-384.7 665,-384.7 665,-361.7 373,-361.7"/>
<polygon fill="none" stroke="#000000" points="373,-361.7 373,-384.7 665,-384.7 665,-361.7 373,-361.7"/>
<text text-anchor="start" x="378" y="-370.3" font-family="Helvetica,sans-Serif" font-weight="bold" font-size="11.00" fill="#000000">reported_witness</text>
<text text-anchor="start" x="630.0437" y="-369.8" font-family="Helvetica,sans-Serif" font-size="11.00" fill="#000000">[table]</text>
<polygon fill="none" stroke="#000000" points="373,-339.7 373,-361.7 581,-361.7 581,-339.7 373,-339.7"/>
<image xlink:href="../../images/primaryKeys.png" width="11px" height="12px" preserveAspectRatio="xMinYMin meet" x="378" y="-356.7"/>
<text text-anchor="start" x="393" y="-346.8" font-family="Helvetica,sans-Serif" font-size="11.00" fill="#000000">id</text>
<polygon fill="none" stroke="#000000" points="581,-339.7 581,-361.7 665,-361.7 665,-339.7 581,-339.7"/>
<text text-anchor="start" x="584" y="-347.4" font-family="Helvetica,sans-Serif" font-size="11.00" fill="#000000">serial[10]</text>
<polygon fill="#ffffff" stroke="transparent" points="373,-317.7 373,-339.7 581,-339.7 581,-317.7 373,-317.7"/>
<polygon fill="none" stroke="#000000" points="373,-317.7 373,-339.7 581,-339.7 581,-317.7 373,-317.7"/>
<image xlink:href="../../images/foreignKeys.png" width="11px" height="12px" preserveAspectRatio="xMinYMin meet" x="378" y="-334.7"/>
<text text-anchor="start" x="393" y="-324.8" font-family="Helvetica,sans-Serif" font-size="11.00" fill="#000000">reported_adjudication_fk_id</text>
<polygon fill="none" stroke="#000000" points="581,-317.7 581,-339.7 665,-339.7 665,-317.7 581,-317.7"/>
<text text-anchor="start" x="584" y="-325.4" font-family="Helvetica,sans-Serif" font-size="11.00" fill="#000000">int8[19]</text>
<polygon fill="none" stroke="#000000" points="373,-295.7 373,-317.7 581,-317.7 581,-295.7 373,-295.7"/>
<text text-anchor="start" x="393" y="-302.8" font-family="Helvetica,sans-Serif" font-size="11.00" fill="#000000">code</text>
<polygon fill="none" stroke="#000000" points="581,-295.7 581,-317.7 665,-317.7 665,-295.7 581,-295.7"/>
<text text-anchor="start" x="584" y="-303.4" font-family="Helvetica,sans-Serif" font-size="11.00" fill="#000000">varchar[32]</text>
<polygon fill="none" stroke="#000000" points="373,-273.7 373,-295.7 581,-295.7 581,-273.7 373,-273.7"/>
<text text-anchor="start" x="393" y="-280.8" font-family="Helvetica,sans-Serif" font-size="11.00" fill="#000000">first_name</text>
<polygon fill="none" stroke="#000000" points="581,-273.7 581,-295.7 665,-295.7 665,-273.7 581,-273.7"/>
<text text-anchor="start" x="584" y="-281.4" font-family="Helvetica,sans-Serif" font-size="11.00" fill="#000000">varchar[32]</text>
<polygon fill="none" stroke="#000000" points="373,-251.7 373,-273.7 581,-273.7 581,-251.7 373,-251.7"/>
<text text-anchor="start" x="393" y="-258.8" font-family="Helvetica,sans-Serif" font-size="11.00" fill="#000000">last_name</text>
<polygon fill="none" stroke="#000000" points="581,-251.7 581,-273.7 665,-273.7 665,-251.7 581,-251.7"/>
<text text-anchor="start" x="584" y="-259.4" font-family="Helvetica,sans-Serif" font-size="11.00" fill="#000000">varchar[32]</text>
<polygon fill="none" stroke="#000000" points="373,-229.7 373,-251.7 581,-251.7 581,-229.7 373,-229.7"/>
<text text-anchor="start" x="393" y="-236.8" font-family="Helvetica,sans-Serif" font-size="11.00" fill="#000000">reporter</text>
<polygon fill="none" stroke="#000000" points="581,-229.7 581,-251.7 665,-251.7 665,-229.7 581,-229.7"/>
<text text-anchor="start" x="584" y="-237.4" font-family="Helvetica,sans-Serif" font-size="11.00" fill="#000000">varchar[32]</text>
<polygon fill="none" stroke="#000000" points="373,-207.7 373,-229.7 581,-229.7 581,-207.7 373,-207.7"/>
<text text-anchor="start" x="393" y="-214.8" font-family="Helvetica,sans-Serif" font-size="11.00" fill="#000000">create_user_id</text>
<polygon fill="none" stroke="#000000" points="581,-207.7 581,-229.7 665,-229.7 665,-207.7 581,-207.7"/>
<text text-anchor="start" x="584" y="-215.4" font-family="Helvetica,sans-Serif" font-size="11.00" fill="#000000">varchar[32]</text>
<polygon fill="none" stroke="#000000" points="373,-185.7 373,-207.7 581,-207.7 581,-185.7 373,-185.7"/>
<text text-anchor="start" x="393" y="-192.8" font-family="Helvetica,sans-Serif" font-size="11.00" fill="#000000">create_datetime</text>
<polygon fill="none" stroke="#000000" points="581,-185.7 581,-207.7 665,-207.7 665,-185.7 581,-185.7"/>
<text text-anchor="start" x="583.8807" y="-193.4" font-family="Helvetica,sans-Serif" font-size="11.00" fill="#000000">timestamp[29,6]</text>
<polygon fill="none" stroke="#000000" points="373,-163.7 373,-185.7 581,-185.7 581,-163.7 373,-163.7"/>
<text text-anchor="start" x="393" y="-170.8" font-family="Helvetica,sans-Serif" font-size="11.00" fill="#000000">modify_user_id</text>
<polygon fill="none" stroke="#000000" points="581,-163.7 581,-185.7 665,-185.7 665,-163.7 581,-163.7"/>
<text text-anchor="start" x="584" y="-171.4" font-family="Helvetica,sans-Serif" font-size="11.00" fill="#000000">varchar[32]</text>
<polygon fill="none" stroke="#000000" points="373,-141.7 373,-163.7 581,-163.7 581,-141.7 373,-141.7"/>
<text text-anchor="start" x="393" y="-148.8" font-family="Helvetica,sans-Serif" font-size="11.00" fill="#000000">modify_datetime</text>
<polygon fill="none" stroke="#000000" points="581,-141.7 581,-163.7 665,-163.7 665,-141.7 581,-141.7"/>
<text text-anchor="start" x="583.8807" y="-149.4" font-family="Helvetica,sans-Serif" font-size="11.00" fill="#000000">timestamp[29,6]</text>
<polygon fill="none" stroke="#000000" points="373,-119.7 373,-141.7 581,-141.7 581,-119.7 373,-119.7"/>
<text text-anchor="start" x="393" y="-126.8" font-family="Helvetica,sans-Serif" font-size="11.00" fill="#000000">comment</text>
<polygon fill="none" stroke="#000000" points="581,-119.7 581,-141.7 665,-141.7 665,-119.7 581,-119.7"/>
<text text-anchor="start" x="584" y="-127.4" font-family="Helvetica,sans-Serif" font-size="11.00" fill="#000000">varchar[240]</text>
<polygon fill="none" stroke="#000000" points="373,-97.7 373,-119.7 581,-119.7 581,-97.7 373,-97.7"/>
<text text-anchor="start" x="393" y="-104.8" font-family="Helvetica,sans-Serif" font-size="11.00" fill="#000000">username</text>
<polygon fill="none" stroke="#000000" points="581,-97.7 581,-119.7 665,-119.7 665,-97.7 581,-97.7"/>
<text text-anchor="start" x="584" y="-105.4" font-family="Helvetica,sans-Serif" font-size="11.00" fill="#000000">varchar[32]</text>
<polygon fill="none" stroke="#000000" points="373,-75.7 373,-97.7 581,-97.7 581,-75.7 373,-75.7"/>
<text text-anchor="start" x="393" y="-82.8" font-family="Helvetica,sans-Serif" font-size="11.00" fill="#000000">date_added</text>
<polygon fill="none" stroke="#000000" points="581,-75.7 581,-97.7 665,-97.7 665,-75.7 581,-75.7"/>
<text text-anchor="start" x="583.8807" y="-83.4" font-family="Helvetica,sans-Serif" font-size="11.00" fill="#000000">timestamp[29,6]</text>
<polygon fill="#ffffff" stroke="transparent" points="373,-56.7 373,-75.7 481,-75.7 481,-56.7 373,-56.7"/>
<polygon fill="none" stroke="#000000" points="373,-56.7 373,-75.7 481,-75.7 481,-56.7 373,-56.7"/>
<text text-anchor="start" x="376" y="-62.8" font-family="Helvetica,sans-Serif" font-size="11.00" fill="#000000">&lt; 1</text>
<polygon fill="#ffffff" stroke="transparent" points="481,-56.7 481,-75.7 581,-75.7 581,-56.7 481,-56.7"/>
<polygon fill="none" stroke="#000000" points="481,-56.7 481,-75.7 581,-75.7 581,-56.7 481,-56.7"/>
<text text-anchor="start" x="571.8862" y="-62.8" font-family="Helvetica,sans-Serif" font-size="11.00" fill="#000000"> &#160;</text>
<polygon fill="#ffffff" stroke="transparent" points="581,-56.7 581,-75.7 665,-75.7 665,-56.7 581,-56.7"/>
<polygon fill="none" stroke="#000000" points="581,-56.7 581,-75.7 665,-75.7 665,-56.7 581,-56.7"/>
<text text-anchor="start" x="646.4053" y="-62.8" font-family="Helvetica,sans-Serif" font-size="11.00" fill="#000000">0 &gt;</text>
<polygon fill="none" stroke="#000000" stroke-width="2" points="372,-55.7 372,-385.7 666,-385.7 666,-55.7 372,-55.7"/>
</a>
</g>
</g>
<!-- reported_adjudications -->
<g id="node2" class="node">
<title>reported_adjudications</title>
<g id="a_node2"><a xlink:href="../../tables/reported_adjudications.html" xlink:title="reported_adjudications" target="_top">
<polygon fill="#ffffff" stroke="transparent" points="8,-38.2 8,-363.2 322,-363.2 322,-38.2 8,-38.2"/>
<polygon fill="#f5f5f5" stroke="transparent" points="8,-339.7 8,-362.7 322,-362.7 322,-339.7 8,-339.7"/>
<polygon fill="none" stroke="#000000" points="8,-339.7 8,-362.7 322,-362.7 322,-339.7 8,-339.7"/>
<text text-anchor="start" x="13" y="-348.3" font-family="Helvetica,sans-Serif" font-weight="bold" font-size="11.00" fill="#000000">reported_adjudications</text>
<text text-anchor="start" x="287.0437" y="-347.8" font-family="Helvetica,sans-Serif" font-size="11.00" fill="#000000">[table]</text>
<polygon fill="none" stroke="#000000" points="8,-317.7 8,-339.7 322,-339.7 322,-317.7 8,-317.7"/>
<image xlink:href="../../images/primaryKeys.png" width="11px" height="12px" preserveAspectRatio="xMinYMin meet" x="13" y="-334.7"/>
<text text-anchor="start" x="28" y="-324.8" font-family="Helvetica,sans-Serif" font-size="11.00" fill="#000000">id</text>
<polygon fill="#ffffff" stroke="transparent" points="8,-295.7 8,-317.7 322,-317.7 322,-295.7 8,-295.7"/>
<polygon fill="none" stroke="#000000" points="8,-295.7 8,-317.7 322,-317.7 322,-295.7 8,-295.7"/>
<text text-anchor="start" x="28" y="-302.8" font-family="Helvetica,sans-Serif" font-size="11.00" fill="#000000">prisoner_number</text>
<polygon fill="#ffffff" stroke="transparent" points="8,-273.7 8,-295.7 322,-295.7 322,-273.7 8,-273.7"/>
<polygon fill="none" stroke="#000000" points="8,-273.7 8,-295.7 322,-295.7 322,-273.7 8,-273.7"/>
<text text-anchor="start" x="28" y="-280.8" font-family="Helvetica,sans-Serif" font-size="11.00" fill="#000000">charge_number</text>
<polygon fill="#ffffff" stroke="transparent" points="8,-251.7 8,-273.7 322,-273.7 322,-251.7 8,-251.7"/>
<polygon fill="none" stroke="#000000" points="8,-251.7 8,-273.7 322,-273.7 322,-251.7 8,-251.7"/>
<text text-anchor="start" x="28" y="-258.8" font-family="Helvetica,sans-Serif" font-size="11.00" fill="#000000">originating_agency_id</text>
<polygon fill="#ffffff" stroke="transparent" points="8,-229.7 8,-251.7 322,-251.7 322,-229.7 8,-229.7"/>
<polygon fill="none" stroke="#000000" points="8,-229.7 8,-251.7 322,-251.7 322,-229.7 8,-229.7"/>
<text text-anchor="start" x="28" y="-236.8" font-family="Helvetica,sans-Serif" font-size="11.00" fill="#000000">create_user_id</text>
<polygon fill="#ffffff" stroke="transparent" points="8,-207.7 8,-229.7 322,-229.7 322,-207.7 8,-207.7"/>
<polygon fill="none" stroke="#000000" points="8,-207.7 8,-229.7 322,-229.7 322,-207.7 8,-207.7"/>
<text text-anchor="start" x="28" y="-214.8" font-family="Helvetica,sans-Serif" font-size="11.00" fill="#000000">incident_role_associated_prisoners_number</text>
<polygon fill="#ffffff" stroke="transparent" points="8,-185.7 8,-207.7 322,-207.7 322,-185.7 8,-185.7"/>
<polygon fill="none" stroke="#000000" points="8,-185.7 8,-207.7 322,-207.7 322,-185.7 8,-185.7"/>
<text text-anchor="start" x="28" y="-192.8" font-family="Helvetica,sans-Serif" font-size="11.00" fill="#000000">status</text>
<polygon fill="#ffffff" stroke="transparent" points="8,-163.7 8,-185.7 322,-185.7 322,-163.7 8,-163.7"/>
<polygon fill="none" stroke="#000000" points="8,-163.7 8,-185.7 322,-185.7 322,-163.7 8,-163.7"/>
<text text-anchor="start" x="28" y="-170.8" font-family="Helvetica,sans-Serif" font-size="11.00" fill="#000000">date_time_of_discovery</text>
<polygon fill="#ffffff" stroke="transparent" points="8,-141.7 8,-163.7 322,-163.7 322,-141.7 8,-141.7"/>
<polygon fill="none" stroke="#000000" points="8,-141.7 8,-163.7 322,-163.7 322,-141.7 8,-141.7"/>
<text text-anchor="start" x="28" y="-148.8" font-family="Helvetica,sans-Serif" font-size="11.00" fill="#000000">date_time_of_first_hearing</text>
<polygon fill="#ffffff" stroke="transparent" points="8,-119.7 8,-141.7 322,-141.7 322,-119.7 8,-119.7"/>
<polygon fill="none" stroke="#000000" points="8,-119.7 8,-141.7 322,-141.7 322,-119.7 8,-119.7"/>
<text text-anchor="start" x="28" y="-126.8" font-family="Helvetica,sans-Serif" font-size="11.00" fill="#000000">override_agency_id</text>
<polygon fill="#ffffff" stroke="transparent" points="8,-97.7 8,-119.7 322,-119.7 322,-97.7 8,-97.7"/>
<polygon fill="none" stroke="#000000" points="8,-97.7 8,-119.7 322,-119.7 322,-97.7 8,-97.7"/>
<text text-anchor="start" x="28" y="-104.8" font-family="Helvetica,sans-Serif" font-size="11.00" fill="#000000">migrated</text>
<polygon fill="#ffffff" stroke="transparent" points="8,-75.7 8,-97.7 322,-97.7 322,-75.7 8,-75.7"/>
<polygon fill="none" stroke="#000000" points="8,-75.7 8,-97.7 322,-97.7 322,-75.7 8,-75.7"/>
<text text-anchor="start" x="28" y="-82.8" font-family="Helvetica,sans-Serif" font-size="11.00" fill="#000000">offender_booking_id</text>
<polygon fill="none" stroke="#000000" points="8,-56.7 8,-75.7 322,-75.7 322,-56.7 8,-56.7"/>
<text text-anchor="start" x="11" y="-62.8" font-family="Helvetica,sans-Serif" font-size="11.00" fill="#000000">...</text>
<polygon fill="#ffffff" stroke="transparent" points="8,-37.7 8,-56.7 154,-56.7 154,-37.7 8,-37.7"/>
<polygon fill="none" stroke="#000000" points="8,-37.7 8,-56.7 154,-56.7 154,-37.7 8,-37.7"/>
<text text-anchor="start" x="11" y="-43.8" font-family="Helvetica,sans-Serif" font-size="11.00" fill="#000000"> &#160;</text>
<polygon fill="#ffffff" stroke="transparent" points="154,-37.7 154,-56.7 233,-56.7 233,-37.7 154,-37.7"/>
<polygon fill="none" stroke="#000000" points="154,-37.7 154,-56.7 233,-56.7 233,-37.7 154,-37.7"/>
<text text-anchor="start" x="223.8862" y="-43.8" font-family="Helvetica,sans-Serif" font-size="11.00" fill="#000000"> &#160;</text>
<polygon fill="#ffffff" stroke="transparent" points="233,-37.7 233,-56.7 322,-56.7 322,-37.7 233,-37.7"/>
<polygon fill="none" stroke="#000000" points="233,-37.7 233,-56.7 322,-56.7 322,-37.7 233,-37.7"/>
<text text-anchor="start" x="303.4053" y="-43.8" font-family="Helvetica,sans-Serif" font-size="11.00" fill="#000000">9 &gt;</text>
</a>
</g>
</g>
<!-- reported_witness&#45;&gt;reported_adjudications -->
<g id="edge1" class="edge">
<title>reported_witness:w&#45;&gt;reported_adjudications:e</title>
<path fill="none" stroke="#000000" d="M358.276,-328.7C346.2815,-328.7 338.8229,-328.7 322,-328.7"/>
<polygon fill="#000000" stroke="#000000" points="365,-328.7001 373,-332.3 369,-328.7 373,-328.7 373,-328.7 373,-328.7 369,-328.7 373,-325.1 365,-328.7001 365,-328.7001"/>
<ellipse fill="none" stroke="#000000" cx="361.8" cy="-328.7001" rx="3.2" ry="3.2"/>
</g>
</g>
</svg>
