<?xml version="1.0" encoding="UTF-8" standalone="no"?>
<!DOCTYPE svg PUBLIC "-//W3C//DTD SVG 1.1//EN"
 "http://www.w3.org/Graphics/SVG/1.1/DTD/svg11.dtd">
<!-- Generated by graphviz version 2.40.1 (20161225.0304)
 -->
<!-- Title: twoDegreesRelationshipsDiagram Pages: 1 -->
<svg width="776pt" height="585pt"
 viewBox="0.00 0.00 776.00 584.70" xmlns="http://www.w3.org/2000/svg" xmlns:xlink="http://www.w3.org/1999/xlink">
<g id="graph0" class="graph" transform="scale(1 1) rotate(0) translate(4 580.7)">
<title>twoDegreesRelationshipsDiagram</title>
<polygon fill="#ffffff" stroke="transparent" points="-4,4 -4,-580.7 772,-580.7 772,4 -4,4"/>
<text text-anchor="middle" x="72.4936" y="-7.3" font-family="Helvetica,sans-Serif" font-size="11.00" fill="#000000">Generated by SchemaSpy</text>
<!-- damages -->
<g id="node1" class="node">
<title>damages</title>
<g id="a_node1"><a xlink:href="../../tables/damages.html" xlink:title="damages" target="_top">
<polygon fill="#ffffff" stroke="transparent" points="575,-511.7 575,-572.7 675,-572.7 675,-511.7 575,-511.7"/>
<polygon fill="#f5f5f5" stroke="transparent" points="575,-549.2 575,-572.2 675,-572.2 675,-549.2 575,-549.2"/>
<polygon fill="none" stroke="#000000" points="575,-549.2 575,-572.2 675,-572.2 675,-549.2 575,-549.2"/>
<text text-anchor="start" x="580" y="-557.8" font-family="Helvetica,sans-Serif" font-weight="bold" font-size="11.00" fill="#000000">damages</text>
<text text-anchor="start" x="640.5219" y="-557.3" font-family="Helvetica,sans-Serif" font-size="11.00" fill="#000000">[table]</text>
<polygon fill="none" stroke="#000000" points="575,-530.2 575,-549.2 675,-549.2 675,-530.2 575,-530.2"/>
<text text-anchor="start" x="578" y="-536.3" font-family="Helvetica,sans-Serif" font-size="11.00" fill="#000000">...</text>
<polygon fill="#ffffff" stroke="transparent" points="575,-511.2 575,-530.2 623,-530.2 623,-511.2 575,-511.2"/>
<polygon fill="none" stroke="#000000" points="575,-511.2 575,-530.2 623,-530.2 623,-511.2 575,-511.2"/>
<text text-anchor="start" x="578" y="-517.3" font-family="Helvetica,sans-Serif" font-size="11.00" fill="#000000">&lt; 1</text>
<polygon fill="#ffffff" stroke="transparent" points="623,-511.2 623,-530.2 649,-530.2 649,-511.2 623,-511.2"/>
<polygon fill="none" stroke="#000000" points="623,-511.2 623,-530.2 649,-530.2 649,-511.2 623,-511.2"/>
<text text-anchor="start" x="639.8862" y="-517.3" font-family="Helvetica,sans-Serif" font-size="11.00" fill="#000000"> &#160;</text>
<polygon fill="#ffffff" stroke="transparent" points="649,-511.2 649,-530.2 675,-530.2 675,-511.2 649,-511.2"/>
<polygon fill="none" stroke="#000000" points="649,-511.2 649,-530.2 675,-530.2 675,-511.2 649,-511.2"/>
<text text-anchor="start" x="665.8862" y="-517.3" font-family="Helvetica,sans-Serif" font-size="11.00" fill="#000000"> &#160;</text>
</a>
</g>
</g>
<!-- draft_adjudications -->
<g id="node2" class="node">
<title>draft_adjudications</title>
<g id="a_node2"><a xlink:href="../../tables/draft_adjudications.html" xlink:title="draft_adjudications" target="_top">
<polygon fill="#ffffff" stroke="transparent" points="226,-279.7 226,-450.7 441,-450.7 441,-279.7 226,-279.7"/>
<polygon fill="#f5f5f5" stroke="transparent" points="226.5,-427.2 226.5,-450.2 441.5,-450.2 441.5,-427.2 226.5,-427.2"/>
<polygon fill="none" stroke="#000000" points="226.5,-427.2 226.5,-450.2 441.5,-450.2 441.5,-427.2 226.5,-427.2"/>
<text text-anchor="start" x="231.5" y="-435.8" font-family="Helvetica,sans-Serif" font-weight="bold" font-size="11.00" fill="#000000">draft_adjudications</text>
<text text-anchor="start" x="406.5437" y="-435.3" font-family="Helvetica,sans-Serif" font-size="11.00" fill="#000000">[table]</text>
<polygon fill="none" stroke="#000000" points="226.5,-405.2 226.5,-427.2 441.5,-427.2 441.5,-405.2 226.5,-405.2"/>
<image xlink:href="../../images/primaryKeys.png" width="11px" height="12px" preserveAspectRatio="xMinYMin meet" x="231.5" y="-422.2"/>
<text text-anchor="start" x="246.5" y="-412.3" font-family="Helvetica,sans-Serif" font-size="11.00" fill="#000000">id</text>
<polygon fill="#ffffff" stroke="transparent" points="226.5,-383.2 226.5,-405.2 441.5,-405.2 441.5,-383.2 226.5,-383.2"/>
<polygon fill="none" stroke="#000000" points="226.5,-383.2 226.5,-405.2 441.5,-405.2 441.5,-383.2 226.5,-383.2"/>
<text text-anchor="start" x="246.5" y="-390.3" font-family="Helvetica,sans-Serif" font-size="11.00" fill="#000000">prisoner_number</text>
<polygon fill="#ffffff" stroke="transparent" points="226.5,-361.2 226.5,-383.2 441.5,-383.2 441.5,-361.2 226.5,-361.2"/>
<polygon fill="none" stroke="#000000" points="226.5,-361.2 226.5,-383.2 441.5,-383.2 441.5,-361.2 226.5,-361.2"/>
<image xlink:href="../../images/foreignKeys.png" width="11px" height="12px" preserveAspectRatio="xMinYMin meet" x="231.5" y="-378.2"/>
<text text-anchor="start" x="246.5" y="-368.3" font-family="Helvetica,sans-Serif" font-size="11.00" fill="#000000">incident_details_id</text>
<polygon fill="#ffffff" stroke="transparent" points="226.5,-339.2 226.5,-361.2 441.5,-361.2 441.5,-339.2 226.5,-339.2"/>
<polygon fill="none" stroke="#000000" points="226.5,-339.2 226.5,-361.2 441.5,-361.2 441.5,-339.2 226.5,-339.2"/>
<image xlink:href="../../images/foreignKeys.png" width="11px" height="12px" preserveAspectRatio="xMinYMin meet" x="231.5" y="-356.2"/>
<text text-anchor="start" x="246.5" y="-346.3" font-family="Helvetica,sans-Serif" font-size="11.00" fill="#000000">incident_statement_id</text>
<polygon fill="#ffffff" stroke="transparent" points="226.5,-317.2 226.5,-339.2 441.5,-339.2 441.5,-317.2 226.5,-317.2"/>
<polygon fill="none" stroke="#000000" points="226.5,-317.2 226.5,-339.2 441.5,-339.2 441.5,-317.2 226.5,-317.2"/>
<image xlink:href="../../images/foreignKeys.png" width="11px" height="12px" preserveAspectRatio="xMinYMin meet" x="231.5" y="-334.2"/>
<text text-anchor="start" x="246.5" y="-324.3" font-family="Helvetica,sans-Serif" font-size="11.00" fill="#000000">incident_role_id</text>
<polygon fill="none" stroke="#000000" points="226.5,-298.2 226.5,-317.2 441.5,-317.2 441.5,-298.2 226.5,-298.2"/>
<text text-anchor="start" x="229.5" y="-304.3" font-family="Helvetica,sans-Serif" font-size="11.00" fill="#000000">...</text>
<polygon fill="#ffffff" stroke="transparent" points="226.5,-279.2 226.5,-298.2 327.5,-298.2 327.5,-279.2 226.5,-279.2"/>
<polygon fill="none" stroke="#000000" points="226.5,-279.2 226.5,-298.2 327.5,-298.2 327.5,-279.2 226.5,-279.2"/>
<text text-anchor="start" x="229.5" y="-285.3" font-family="Helvetica,sans-Serif" font-size="11.00" fill="#000000">&lt; 3</text>
<polygon fill="#ffffff" stroke="transparent" points="327.5,-279.2 327.5,-298.2 379.5,-298.2 379.5,-279.2 327.5,-279.2"/>
<polygon fill="none" stroke="#000000" points="327.5,-279.2 327.5,-298.2 379.5,-298.2 379.5,-279.2 327.5,-279.2"/>
<text text-anchor="start" x="370.3862" y="-285.3" font-family="Helvetica,sans-Serif" font-size="11.00" fill="#000000"> &#160;</text>
<polygon fill="#ffffff" stroke="transparent" points="379.5,-279.2 379.5,-298.2 441.5,-298.2 441.5,-279.2 379.5,-279.2"/>
<polygon fill="none" stroke="#000000" points="379.5,-279.2 379.5,-298.2 441.5,-298.2 441.5,-279.2 379.5,-279.2"/>
<text text-anchor="start" x="422.9053" y="-285.3" font-family="Helvetica,sans-Serif" font-size="11.00" fill="#000000">4 &gt;</text>
</a>
</g>
</g>
<!-- damages&#45;&gt;draft_adjudications -->
<g id="edge1" class="edge">
<title>damages:w&#45;&gt;draft_adjudications:e</title>
<path fill="none" stroke="#000000" d="M560.4143,-538.872C526.3969,-537.1603 510.6524,-528.2709 482,-501.2 451.5822,-472.4612 483.3469,-416.2 441.5,-416.2"/>
<polygon fill="#000000" stroke="#000000" points="567.002,-539.0201 574.9191,-542.7991 571.001,-539.1101 575,-539.2 575,-539.2 575,-539.2 571.001,-539.1101 575.0809,-535.6009 567.002,-539.0201 567.002,-539.0201"/>
<ellipse fill="none" stroke="#000000" cx="563.8028" cy="-538.9482" rx="3.2" ry="3.2"/>
</g>
<!-- incident_details -->
<g id="node3" class="node">
<title>incident_details</title>
<g id="a_node3"><a xlink:href="../../tables/incident_details.html" xlink:title="incident_details" target="_top">
<polygon fill="#ffffff" stroke="transparent" points="20,-404.7 20,-465.7 165,-465.7 165,-404.7 20,-404.7"/>
<polygon fill="#f5f5f5" stroke="transparent" points="20.5,-442.2 20.5,-465.2 165.5,-465.2 165.5,-442.2 20.5,-442.2"/>
<polygon fill="none" stroke="#000000" points="20.5,-442.2 20.5,-465.2 165.5,-465.2 165.5,-442.2 20.5,-442.2"/>
<text text-anchor="start" x="25.5" y="-450.8" font-family="Helvetica,sans-Serif" font-weight="bold" font-size="11.00" fill="#000000">incident_details</text>
<text text-anchor="start" x="131.0219" y="-450.3" font-family="Helvetica,sans-Serif" font-size="11.00" fill="#000000">[table]</text>
<polygon fill="none" stroke="#000000" points="20.5,-423.2 20.5,-442.2 165.5,-442.2 165.5,-423.2 20.5,-423.2"/>
<text text-anchor="start" x="23.5" y="-429.3" font-family="Helvetica,sans-Serif" font-size="11.00" fill="#000000">...</text>
<polygon fill="#ffffff" stroke="transparent" points="20.5,-404.2 20.5,-423.2 82.5,-423.2 82.5,-404.2 20.5,-404.2"/>
<polygon fill="none" stroke="#000000" points="20.5,-404.2 20.5,-423.2 82.5,-423.2 82.5,-404.2 20.5,-404.2"/>
<text text-anchor="start" x="23.5" y="-410.3" font-family="Helvetica,sans-Serif" font-size="11.00" fill="#000000"> &#160;</text>
<polygon fill="#ffffff" stroke="transparent" points="82.5,-404.2 82.5,-423.2 119.5,-423.2 119.5,-404.2 82.5,-404.2"/>
<polygon fill="none" stroke="#000000" points="82.5,-404.2 82.5,-423.2 119.5,-423.2 119.5,-404.2 82.5,-404.2"/>
<text text-anchor="start" x="110.3862" y="-410.3" font-family="Helvetica,sans-Serif" font-size="11.00" fill="#000000"> &#160;</text>
<polygon fill="#ffffff" stroke="transparent" points="119.5,-404.2 119.5,-423.2 165.5,-423.2 165.5,-404.2 119.5,-404.2"/>
<polygon fill="none" stroke="#000000" points="119.5,-404.2 119.5,-423.2 165.5,-423.2 165.5,-404.2 119.5,-404.2"/>
<text text-anchor="start" x="146.9053" y="-410.3" font-family="Helvetica,sans-Serif" font-size="11.00" fill="#000000">1 &gt;</text>
</a>
</g>
</g>
<!-- draft_adjudications&#45;&gt;incident_details -->
<g id="edge2" class="edge">
<title>draft_adjudications:w&#45;&gt;incident_details:e</title>
<path fill="none" stroke="#000000" d="M212.4407,-375.9533C191.8274,-389.0887 197.7346,-432.2 165.5,-432.2"/>
<polygon fill="#000000" stroke="#000000" points="218.7707,-374.2635 227.4286,-375.6782 222.6353,-373.2317 226.5,-372.2 226.5,-372.2 226.5,-372.2 222.6353,-373.2317 225.5714,-368.7218 218.7707,-374.2635 218.7707,-374.2635"/>
<ellipse fill="none" stroke="#000000" cx="215.679" cy="-375.0888" rx="3.2" ry="3.2"/>
</g>
<!-- incident_role -->
<g id="node4" class="node">
<title>incident_role</title>
<g id="a_node4"><a xlink:href="../../tables/incident_role.html" xlink:title="incident_role" target="_top">
<polygon fill="#ffffff" stroke="transparent" points="29.5,-240.7 29.5,-301.7 155.5,-301.7 155.5,-240.7 29.5,-240.7"/>
<polygon fill="#f5f5f5" stroke="transparent" points="29.5,-278.2 29.5,-301.2 155.5,-301.2 155.5,-278.2 29.5,-278.2"/>
<polygon fill="none" stroke="#000000" points="29.5,-278.2 29.5,-301.2 155.5,-301.2 155.5,-278.2 29.5,-278.2"/>
<text text-anchor="start" x="34.5" y="-286.8" font-family="Helvetica,sans-Serif" font-weight="bold" font-size="11.00" fill="#000000">incident_role</text>
<text text-anchor="start" x="121.0219" y="-286.3" font-family="Helvetica,sans-Serif" font-size="11.00" fill="#000000">[table]</text>
<polygon fill="none" stroke="#000000" points="29.5,-259.2 29.5,-278.2 155.5,-278.2 155.5,-259.2 29.5,-259.2"/>
<text text-anchor="start" x="32.5" y="-265.3" font-family="Helvetica,sans-Serif" font-size="11.00" fill="#000000">...</text>
<polygon fill="#ffffff" stroke="transparent" points="29.5,-240.2 29.5,-259.2 81.5,-259.2 81.5,-240.2 29.5,-240.2"/>
<polygon fill="none" stroke="#000000" points="29.5,-240.2 29.5,-259.2 81.5,-259.2 81.5,-240.2 29.5,-240.2"/>
<text text-anchor="start" x="32.5" y="-246.3" font-family="Helvetica,sans-Serif" font-size="11.00" fill="#000000"> &#160;</text>
<polygon fill="#ffffff" stroke="transparent" points="81.5,-240.2 81.5,-259.2 113.5,-259.2 113.5,-240.2 81.5,-240.2"/>
<polygon fill="none" stroke="#000000" points="81.5,-240.2 81.5,-259.2 113.5,-259.2 113.5,-240.2 81.5,-240.2"/>
<text text-anchor="start" x="104.3862" y="-246.3" font-family="Helvetica,sans-Serif" font-size="11.00" fill="#000000"> &#160;</text>
<polygon fill="#ffffff" stroke="transparent" points="113.5,-240.2 113.5,-259.2 155.5,-259.2 155.5,-240.2 113.5,-240.2"/>
<polygon fill="none" stroke="#000000" points="113.5,-240.2 113.5,-259.2 155.5,-259.2 155.5,-240.2 113.5,-240.2"/>
<text text-anchor="start" x="136.9053" y="-246.3" font-family="Helvetica,sans-Serif" font-size="11.00" fill="#000000">1 &gt;</text>
</a>
</g>
</g>
<!-- draft_adjudications&#45;&gt;incident_role -->
<g id="edge3" class="edge">
<title>draft_adjudications:w&#45;&gt;incident_role:e</title>
<path fill="none" stroke="#000000" d="M212.2529,-325.1421C187.3758,-312.9153 191.1658,-268.2 155.5,-268.2"/>
<polygon fill="#000000" stroke="#000000" points="218.6781,-326.5211 225.7445,-331.7198 222.5891,-327.3606 226.5,-328.2 226.5,-328.2 226.5,-328.2 222.5891,-327.3606 227.2555,-324.6802 218.6781,-326.5211 218.6781,-326.5211"/>
<ellipse fill="none" stroke="#000000" cx="215.5494" cy="-325.8496" rx="3.2" ry="3.2"/>
</g>
<!-- incident_statement -->
<g id="node5" class="node">
<title>incident_statement</title>
<g id="a_node5"><a xlink:href="../../tables/incident_statement.html" xlink:title="incident_statement" target="_top">
<polygon fill="#ffffff" stroke="transparent" points="8,-322.7 8,-383.7 177,-383.7 177,-322.7 8,-322.7"/>
<polygon fill="#f5f5f5" stroke="transparent" points="8.5,-360.2 8.5,-383.2 177.5,-383.2 177.5,-360.2 8.5,-360.2"/>
<polygon fill="none" stroke="#000000" points="8.5,-360.2 8.5,-383.2 177.5,-383.2 177.5,-360.2 8.5,-360.2"/>
<text text-anchor="start" x="13.5" y="-368.8" font-family="Helvetica,sans-Serif" font-weight="bold" font-size="11.00" fill="#000000">incident_statement</text>
<text text-anchor="start" x="143.0219" y="-368.3" font-family="Helvetica,sans-Serif" font-size="11.00" fill="#000000">[table]</text>
<polygon fill="none" stroke="#000000" points="8.5,-341.2 8.5,-360.2 177.5,-360.2 177.5,-341.2 8.5,-341.2"/>
<text text-anchor="start" x="11.5" y="-347.3" font-family="Helvetica,sans-Serif" font-size="11.00" fill="#000000">...</text>
<polygon fill="#ffffff" stroke="transparent" points="8.5,-322.2 8.5,-341.2 82.5,-341.2 82.5,-322.2 8.5,-322.2"/>
<polygon fill="none" stroke="#000000" points="8.5,-322.2 8.5,-341.2 82.5,-341.2 82.5,-322.2 8.5,-322.2"/>
<text text-anchor="start" x="11.5" y="-328.3" font-family="Helvetica,sans-Serif" font-size="11.00" fill="#000000"> &#160;</text>
<polygon fill="#ffffff" stroke="transparent" points="82.5,-322.2 82.5,-341.2 125.5,-341.2 125.5,-322.2 82.5,-322.2"/>
<polygon fill="none" stroke="#000000" points="82.5,-322.2 82.5,-341.2 125.5,-341.2 125.5,-322.2 82.5,-322.2"/>
<text text-anchor="start" x="116.3862" y="-328.3" font-family="Helvetica,sans-Serif" font-size="11.00" fill="#000000"> &#160;</text>
<polygon fill="#ffffff" stroke="transparent" points="125.5,-322.2 125.5,-341.2 177.5,-341.2 177.5,-322.2 125.5,-322.2"/>
<polygon fill="none" stroke="#000000" points="125.5,-322.2 125.5,-341.2 177.5,-341.2 177.5,-322.2 125.5,-322.2"/>
<text text-anchor="start" x="158.9053" y="-328.3" font-family="Helvetica,sans-Serif" font-size="11.00" fill="#000000">1 &gt;</text>
</a>
</g>
</g>
<!-- draft_adjudications&#45;&gt;incident_statement -->
<g id="edge4" class="edge">
<title>draft_adjudications:w&#45;&gt;incident_statement:e</title>
<path fill="none" stroke="#000000" d="M211.9909,-350.2C200.6774,-350.2 193.4931,-350.2 177.5,-350.2"/>
<polygon fill="#000000" stroke="#000000" points="218.5,-350.2001 226.5,-353.8 222.5,-350.2 226.5,-350.2 226.5,-350.2 226.5,-350.2 222.5,-350.2 226.5,-346.6 218.5,-350.2001 218.5,-350.2001"/>
<ellipse fill="none" stroke="#000000" cx="215.3" cy="-350.2001" rx="3.2" ry="3.2"/>
</g>
<!-- evidence -->
<g id="node6" class="node">
<title>evidence</title>
<g id="a_node6"><a xlink:href="../../tables/evidence.html" xlink:title="evidence" target="_top">
<polygon fill="#ffffff" stroke="transparent" points="575.5,-429.7 575.5,-490.7 674.5,-490.7 674.5,-429.7 575.5,-429.7"/>
<polygon fill="#f5f5f5" stroke="transparent" points="576,-467.2 576,-490.2 675,-490.2 675,-467.2 576,-467.2"/>
<polygon fill="none" stroke="#000000" points="576,-467.2 576,-490.2 675,-490.2 675,-467.2 576,-467.2"/>
<text text-anchor="start" x="581" y="-475.8" font-family="Helvetica,sans-Serif" font-weight="bold" font-size="11.00" fill="#000000">evidence</text>
<text text-anchor="start" x="640.5219" y="-475.3" font-family="Helvetica,sans-Serif" font-size="11.00" fill="#000000">[table]</text>
<polygon fill="none" stroke="#000000" points="576,-448.2 576,-467.2 675,-467.2 675,-448.2 576,-448.2"/>
<text text-anchor="start" x="579" y="-454.3" font-family="Helvetica,sans-Serif" font-size="11.00" fill="#000000">...</text>
<polygon fill="#ffffff" stroke="transparent" points="576,-429.2 576,-448.2 624,-448.2 624,-429.2 576,-429.2"/>
<polygon fill="none" stroke="#000000" points="576,-429.2 576,-448.2 624,-448.2 624,-429.2 576,-429.2"/>
<text text-anchor="start" x="579" y="-435.3" font-family="Helvetica,sans-Serif" font-size="11.00" fill="#000000">&lt; 1</text>
<polygon fill="#ffffff" stroke="transparent" points="624,-429.2 624,-448.2 649,-448.2 649,-429.2 624,-429.2"/>
<polygon fill="none" stroke="#000000" points="624,-429.2 624,-448.2 649,-448.2 649,-429.2 624,-429.2"/>
<text text-anchor="start" x="639.8862" y="-435.3" font-family="Helvetica,sans-Serif" font-size="11.00" fill="#000000"> &#160;</text>
<polygon fill="#ffffff" stroke="transparent" points="649,-429.2 649,-448.2 675,-448.2 675,-429.2 649,-429.2"/>
<polygon fill="none" stroke="#000000" points="649,-429.2 649,-448.2 675,-448.2 675,-429.2 649,-429.2"/>
<text text-anchor="start" x="665.8862" y="-435.3" font-family="Helvetica,sans-Serif" font-size="11.00" fill="#000000"> &#160;</text>
</a>
</g>
</g>
<!-- evidence&#45;&gt;draft_adjudications -->
<g id="edge5" class="edge">
<title>evidence:w&#45;&gt;draft_adjudications:e</title>
<path fill="none" stroke="#000000" d="M561.3129,-456.381C511.535,-450.6025 498.745,-416.2 441.5,-416.2"/>
<polygon fill="#000000" stroke="#000000" points="568.0124,-456.7545 575.7995,-460.7944 572.0062,-456.9773 576,-457.2 576,-457.2 576,-457.2 572.0062,-456.9773 576.2005,-453.6056 568.0124,-456.7545 568.0124,-456.7545"/>
<ellipse fill="none" stroke="#000000" cx="564.8174" cy="-456.5764" rx="3.2" ry="3.2"/>
</g>
<!-- offence -->
<g id="node7" class="node">
<title>offence</title>
<g id="a_node7"><a xlink:href="../../tables/offence.html" xlink:title="offence" target="_top">
<polygon fill="#ffffff" stroke="transparent" points="580.5,-347.7 580.5,-408.7 669.5,-408.7 669.5,-347.7 580.5,-347.7"/>
<polygon fill="#f5f5f5" stroke="transparent" points="581,-385.2 581,-408.2 670,-408.2 670,-385.2 581,-385.2"/>
<polygon fill="none" stroke="#000000" points="581,-385.2 581,-408.2 670,-408.2 670,-385.2 581,-385.2"/>
<text text-anchor="start" x="586" y="-393.8" font-family="Helvetica,sans-Serif" font-weight="bold" font-size="11.00" fill="#000000">offence</text>
<text text-anchor="start" x="635.5219" y="-393.3" font-family="Helvetica,sans-Serif" font-size="11.00" fill="#000000">[table]</text>
<polygon fill="none" stroke="#000000" points="581,-366.2 581,-385.2 670,-385.2 670,-366.2 581,-366.2"/>
<text text-anchor="start" x="584" y="-372.3" font-family="Helvetica,sans-Serif" font-size="11.00" fill="#000000">...</text>
<polygon fill="#ffffff" stroke="transparent" points="581,-347.2 581,-366.2 619,-366.2 619,-347.2 581,-347.2"/>
<polygon fill="none" stroke="#000000" points="581,-347.2 581,-366.2 619,-366.2 619,-347.2 581,-347.2"/>
<text text-anchor="start" x="584" y="-353.3" font-family="Helvetica,sans-Serif" font-size="11.00" fill="#000000">&lt; 1</text>
<polygon fill="#ffffff" stroke="transparent" points="619,-347.2 619,-366.2 640,-366.2 640,-347.2 619,-347.2"/>
<polygon fill="none" stroke="#000000" points="619,-347.2 619,-366.2 640,-366.2 640,-347.2 619,-347.2"/>
<text text-anchor="start" x="630.8862" y="-353.3" font-family="Helvetica,sans-Serif" font-size="11.00" fill="#000000"> &#160;</text>
<polygon fill="#ffffff" stroke="transparent" points="640,-347.2 640,-366.2 670,-366.2 670,-347.2 640,-347.2"/>
<polygon fill="none" stroke="#000000" points="640,-347.2 640,-366.2 670,-366.2 670,-347.2 640,-347.2"/>
<text text-anchor="start" x="651.4053" y="-353.3" font-family="Helvetica,sans-Serif" font-size="11.00" fill="#000000">1 &gt;</text>
</a>
</g>
</g>
<!-- offence&#45;&gt;draft_adjudications -->
<g id="edge6" class="edge">
<title>offence:w&#45;&gt;draft_adjudications:e</title>
<path fill="none" stroke="#000000" d="M566.4655,-375.9466C514.3866,-381.5035 500.9475,-416.2 441.5,-416.2"/>
<polygon fill="#000000" stroke="#000000" points="573.0105,-375.6105 581.1847,-378.7953 577.0053,-375.4052 581,-375.2 581,-375.2 581,-375.2 577.0053,-375.4052 580.8153,-371.6047 573.0105,-375.6105 573.0105,-375.6105"/>
<ellipse fill="none" stroke="#000000" cx="569.8147" cy="-375.7747" rx="3.2" ry="3.2"/>
</g>
<!-- witness -->
<g id="node8" class="node">
<title>witness</title>
<g id="a_node8"><a xlink:href="../../tables/witness.html" xlink:title="witness" target="_top">
<polygon fill="#ffffff" stroke="transparent" points="490,-38.2 490,-326.2 760,-326.2 760,-38.2 490,-38.2"/>
<polygon fill="#f5f5f5" stroke="transparent" points="492,-301.2 492,-324.2 758,-324.2 758,-301.2 492,-301.2"/>
<polygon fill="none" stroke="#000000" points="492,-301.2 492,-324.2 758,-324.2 758,-301.2 492,-301.2"/>
<text text-anchor="start" x="497" y="-309.8" font-family="Helvetica,sans-Serif" font-weight="bold" font-size="11.00" fill="#000000">witness</text>
<text text-anchor="start" x="723.0437" y="-309.3" font-family="Helvetica,sans-Serif" font-size="11.00" fill="#000000">[table]</text>
<polygon fill="none" stroke="#000000" points="492,-279.2 492,-301.2 674,-301.2 674,-279.2 492,-279.2"/>
<image xlink:href="../../images/primaryKeys.png" width="11px" height="12px" preserveAspectRatio="xMinYMin meet" x="497" y="-296.2"/>
<text text-anchor="start" x="512" y="-286.3" font-family="Helvetica,sans-Serif" font-size="11.00" fill="#000000">id</text>
<polygon fill="none" stroke="#000000" points="674,-279.2 674,-301.2 758,-301.2 758,-279.2 674,-279.2"/>
<text text-anchor="start" x="677" y="-286.9" font-family="Helvetica,sans-Serif" font-size="11.00" fill="#000000">serial[10]</text>
<polygon fill="#ffffff" stroke="transparent" points="492,-257.2 492,-279.2 674,-279.2 674,-257.2 492,-257.2"/>
<polygon fill="none" stroke="#000000" points="492,-257.2 492,-279.2 674,-279.2 674,-257.2 492,-257.2"/>
<image xlink:href="../../images/foreignKeys.png" width="11px" height="12px" preserveAspectRatio="xMinYMin meet" x="497" y="-274.2"/>
<text text-anchor="start" x="512" y="-264.3" font-family="Helvetica,sans-Serif" font-size="11.00" fill="#000000">draft_adjudication_fk_id</text>
<polygon fill="none" stroke="#000000" points="674,-257.2 674,-279.2 758,-279.2 758,-257.2 674,-257.2"/>
<text text-anchor="start" x="677" y="-264.9" font-family="Helvetica,sans-Serif" font-size="11.00" fill="#000000">int8[19]</text>
<polygon fill="none" stroke="#000000" points="492,-235.2 492,-257.2 674,-257.2 674,-235.2 492,-235.2"/>
<text text-anchor="start" x="512" y="-242.3" font-family="Helvetica,sans-Serif" font-size="11.00" fill="#000000">code</text>
<polygon fill="none" stroke="#000000" points="674,-235.2 674,-257.2 758,-257.2 758,-235.2 674,-235.2"/>
<text text-anchor="start" x="677" y="-242.9" font-family="Helvetica,sans-Serif" font-size="11.00" fill="#000000">varchar[32]</text>
<polygon fill="none" stroke="#000000" points="492,-213.2 492,-235.2 674,-235.2 674,-213.2 492,-213.2"/>
<text text-anchor="start" x="512" y="-220.3" font-family="Helvetica,sans-Serif" font-size="11.00" fill="#000000">first_name</text>
<polygon fill="none" stroke="#000000" points="674,-213.2 674,-235.2 758,-235.2 758,-213.2 674,-213.2"/>
<text text-anchor="start" x="677" y="-220.9" font-family="Helvetica,sans-Serif" font-size="11.00" fill="#000000">varchar[32]</text>
<polygon fill="none" stroke="#000000" points="492,-191.2 492,-213.2 674,-213.2 674,-191.2 492,-191.2"/>
<text text-anchor="start" x="512" y="-198.3" font-family="Helvetica,sans-Serif" font-size="11.00" fill="#000000">last_name</text>
<polygon fill="none" stroke="#000000" points="674,-191.2 674,-213.2 758,-213.2 758,-191.2 674,-191.2"/>
<text text-anchor="start" x="677" y="-198.9" font-family="Helvetica,sans-Serif" font-size="11.00" fill="#000000">varchar[32]</text>
<polygon fill="none" stroke="#000000" points="492,-169.2 492,-191.2 674,-191.2 674,-169.2 492,-169.2"/>
<text text-anchor="start" x="512" y="-176.3" font-family="Helvetica,sans-Serif" font-size="11.00" fill="#000000">reporter</text>
<polygon fill="none" stroke="#000000" points="674,-169.2 674,-191.2 758,-191.2 758,-169.2 674,-169.2"/>
<text text-anchor="start" x="677" y="-176.9" font-family="Helvetica,sans-Serif" font-size="11.00" fill="#000000">varchar[32]</text>
<polygon fill="none" stroke="#000000" points="492,-147.2 492,-169.2 674,-169.2 674,-147.2 492,-147.2"/>
<text text-anchor="start" x="512" y="-154.3" font-family="Helvetica,sans-Serif" font-size="11.00" fill="#000000">create_user_id</text>
<polygon fill="none" stroke="#000000" points="674,-147.2 674,-169.2 758,-169.2 758,-147.2 674,-147.2"/>
<text text-anchor="start" x="677" y="-154.9" font-family="Helvetica,sans-Serif" font-size="11.00" fill="#000000">varchar[32]</text>
<polygon fill="none" stroke="#000000" points="492,-125.2 492,-147.2 674,-147.2 674,-125.2 492,-125.2"/>
<text text-anchor="start" x="512" y="-132.3" font-family="Helvetica,sans-Serif" font-size="11.00" fill="#000000">create_datetime</text>
<polygon fill="none" stroke="#000000" points="674,-125.2 674,-147.2 758,-147.2 758,-125.2 674,-125.2"/>
<text text-anchor="start" x="676.8807" y="-132.9" font-family="Helvetica,sans-Serif" font-size="11.00" fill="#000000">timestamp[29,6]</text>
<polygon fill="none" stroke="#000000" points="492,-103.2 492,-125.2 674,-125.2 674,-103.2 492,-103.2"/>
<text text-anchor="start" x="512" y="-110.3" font-family="Helvetica,sans-Serif" font-size="11.00" fill="#000000">modify_user_id</text>
<polygon fill="none" stroke="#000000" points="674,-103.2 674,-125.2 758,-125.2 758,-103.2 674,-103.2"/>
<text text-anchor="start" x="677" y="-110.9" font-family="Helvetica,sans-Serif" font-size="11.00" fill="#000000">varchar[32]</text>
<polygon fill="none" stroke="#000000" points="492,-81.2 492,-103.2 674,-103.2 674,-81.2 492,-81.2"/>
<text text-anchor="start" x="512" y="-88.3" font-family="Helvetica,sans-Serif" font-size="11.00" fill="#000000">modify_datetime</text>
<polygon fill="none" stroke="#000000" points="674,-81.2 674,-103.2 758,-103.2 758,-81.2 674,-81.2"/>
<text text-anchor="start" x="676.8807" y="-88.9" font-family="Helvetica,sans-Serif" font-size="11.00" fill="#000000">timestamp[29,6]</text>
<polygon fill="none" stroke="#000000" points="492,-59.2 492,-81.2 674,-81.2 674,-59.2 492,-59.2"/>
<text text-anchor="start" x="512" y="-66.3" font-family="Helvetica,sans-Serif" font-size="11.00" fill="#000000">username</text>
<polygon fill="none" stroke="#000000" points="674,-59.2 674,-81.2 758,-81.2 758,-59.2 674,-59.2"/>
<text text-anchor="start" x="677" y="-66.9" font-family="Helvetica,sans-Serif" font-size="11.00" fill="#000000">varchar[32]</text>
<polygon fill="#ffffff" stroke="transparent" points="492,-40.2 492,-59.2 587,-59.2 587,-40.2 492,-40.2"/>
<polygon fill="none" stroke="#000000" points="492,-40.2 492,-59.2 587,-59.2 587,-40.2 492,-40.2"/>
<text text-anchor="start" x="495" y="-46.3" font-family="Helvetica,sans-Serif" font-size="11.00" fill="#000000">&lt; 1</text>
<polygon fill="#ffffff" stroke="transparent" points="587,-40.2 587,-59.2 674,-59.2 674,-40.2 587,-40.2"/>
<polygon fill="none" stroke="#000000" points="587,-40.2 587,-59.2 674,-59.2 674,-40.2 587,-40.2"/>
<text text-anchor="start" x="664.8862" y="-46.3" font-family="Helvetica,sans-Serif" font-size="11.00" fill="#000000"> &#160;</text>
<polygon fill="#ffffff" stroke="transparent" points="674,-40.2 674,-59.2 758,-59.2 758,-40.2 674,-40.2"/>
<polygon fill="none" stroke="#000000" points="674,-40.2 674,-59.2 758,-59.2 758,-40.2 674,-40.2"/>
<text text-anchor="start" x="739.4053" y="-46.3" font-family="Helvetica,sans-Serif" font-size="11.00" fill="#000000">0 &gt;</text>
<polygon fill="none" stroke="#000000" stroke-width="2" points="491,-39.2 491,-325.2 759,-325.2 759,-39.2 491,-39.2"/>
</a>
</g>
</g>
<!-- witness&#45;&gt;draft_adjudications -->
<g id="edge7" class="edge">
<title>witness:w&#45;&gt;draft_adjudications:e</title>
<path fill="none" stroke="#000000" d="M477.6451,-271.1564C436.2497,-292.0155 505.1645,-416.2 441.5,-416.2"/>
<polygon fill="#000000" stroke="#000000" points="484.1644,-269.8138 492.7262,-271.726 488.0822,-269.0069 492,-268.2 492,-268.2 492,-268.2 488.0822,-269.0069 491.2738,-264.674 484.1644,-269.8138 484.1644,-269.8138"/>
<ellipse fill="none" stroke="#000000" cx="481.0302" cy="-270.4593" rx="3.2" ry="3.2"/>
</g>
</g>
</svg>
